<?xml version="1.0" encoding="UTF-8"?>
<!--Generator: Apple Native CoreSVG 123-->
<!DOCTYPE svg
PUBLIC "-//W3C//DTD SVG 1.1//EN"
       "http://www.w3.org/Graphics/SVG/1.1/DTD/svg11.dtd">
<svg version="1.1" xmlns="http://www.w3.org/2000/svg" xmlns:xlink="http://www.w3.org/1999/xlink" width="3300" height="2200">
 <!--glyph: "uni1002AF.medium", point size: 100.000000, font version: "Version 15.0d4e20", template writer version: "2"-->
 <g id="Notes">
  <rect height="2200" id="artboard" style="fill:white;opacity:1" width="3300" x="0" y="0"/>
  <line id="" style="fill:none;stroke:black;opacity:1;stroke-width:0.5;" x1="263" x2="3036" y1="292" y2="292"/>
  <text style="stroke:none;fill:black;font-family:-apple-system,&quot;SF Pro Display&quot;,&quot;SF Pro Text&quot;,Helvetica,sans-serif;font-weight:bold;" transform="matrix(1 0 0 1 263 322)">Weight/Scale Variations</text>
  <text style="stroke:none;fill:black;font-family:-apple-system,&quot;SF Pro Display&quot;,&quot;SF Pro Text&quot;,Helvetica,sans-serif;text-anchor:middle;" transform="matrix(1 0 0 1 559.711 322)">Ultralight</text>
  <text style="stroke:none;fill:black;font-family:-apple-system,&quot;SF Pro Display&quot;,&quot;SF Pro Text&quot;,Helvetica,sans-serif;text-anchor:middle;" transform="matrix(1 0 0 1 856.422 322)">Thin</text>
  <text style="stroke:none;fill:black;font-family:-apple-system,&quot;SF Pro Display&quot;,&quot;SF Pro Text&quot;,Helvetica,sans-serif;text-anchor:middle;" transform="matrix(1 0 0 1 1153.13 322)">Light</text>
  <text style="stroke:none;fill:black;font-family:-apple-system,&quot;SF Pro Display&quot;,&quot;SF Pro Text&quot;,Helvetica,sans-serif;text-anchor:middle;" transform="matrix(1 0 0 1 1449.84 322)">Regular</text>
  <text style="stroke:none;fill:black;font-family:-apple-system,&quot;SF Pro Display&quot;,&quot;SF Pro Text&quot;,Helvetica,sans-serif;text-anchor:middle;" transform="matrix(1 0 0 1 1746.56 322)">Medium</text>
  <text style="stroke:none;fill:black;font-family:-apple-system,&quot;SF Pro Display&quot;,&quot;SF Pro Text&quot;,Helvetica,sans-serif;text-anchor:middle;" transform="matrix(1 0 0 1 2043.27 322)">Semibold</text>
  <text style="stroke:none;fill:black;font-family:-apple-system,&quot;SF Pro Display&quot;,&quot;SF Pro Text&quot;,Helvetica,sans-serif;text-anchor:middle;" transform="matrix(1 0 0 1 2339.98 322)">Bold</text>
  <text style="stroke:none;fill:black;font-family:-apple-system,&quot;SF Pro Display&quot;,&quot;SF Pro Text&quot;,Helvetica,sans-serif;text-anchor:middle;" transform="matrix(1 0 0 1 2636.69 322)">Heavy</text>
  <text style="stroke:none;fill:black;font-family:-apple-system,&quot;SF Pro Display&quot;,&quot;SF Pro Text&quot;,Helvetica,sans-serif;text-anchor:middle;" transform="matrix(1 0 0 1 2933.4 322)">Black</text>
  <line id="" style="fill:none;stroke:black;opacity:1;stroke-width:0.5;" x1="263" x2="3036" y1="1903" y2="1903"/>
  <g id="" transform="matrix(1 0 0 1 263 1933)">
   <path d="M 9.24805 0.830078 C 13.5547 0.830078 17.1387 -2.74414 17.1387 -7.05078 C 17.1387 -11.3574 13.5449 -14.9316 9.23828 -14.9316 C 4.94141 -14.9316 1.36719 -11.3574 1.36719 -7.05078 C 1.36719 -2.74414 4.95117 0.830078 9.24805 0.830078 Z M 9.24805 -0.654297 C 5.70312 -0.654297 2.87109 -3.49609 2.87109 -7.05078 C 2.87109 -10.6055 5.69336 -13.4473 9.23828 -13.4473 C 12.793 -13.4473 15.6348 -10.6055 15.6445 -7.05078 C 15.6543 -3.49609 12.8027 -0.654297 9.24805 -0.654297 Z M 9.22852 -3.42773 C 9.69727 -3.42773 9.9707 -3.74023 9.9707 -4.25781 L 9.9707 -6.31836 L 12.1973 -6.31836 C 12.6953 -6.31836 13.0371 -6.57227 13.0371 -7.04102 C 13.0371 -7.51953 12.7148 -7.7832 12.1973 -7.7832 L 9.9707 -7.7832 L 9.9707 -10.0098 C 9.9707 -10.5273 9.69727 -10.8496 9.22852 -10.8496 C 8.75977 -10.8496 8.50586 -10.5078 8.50586 -10.0098 L 8.50586 -7.7832 L 6.29883 -7.7832 C 5.78125 -7.7832 5.44922 -7.51953 5.44922 -7.04102 C 5.44922 -6.57227 5.80078 -6.31836 6.29883 -6.31836 L 8.50586 -6.31836 L 8.50586 -4.25781 C 8.50586 -3.75977 8.75977 -3.42773 9.22852 -3.42773 Z"/>
  </g>
  <g id="" transform="matrix(1 0 0 1 281.506 1933)">
   <path d="M 11.709 2.91016 C 17.1484 2.91016 21.6699 -1.60156 21.6699 -7.05078 C 21.6699 -12.4902 17.1387 -17.0117 11.6992 -17.0117 C 6.25 -17.0117 1.74805 -12.4902 1.74805 -7.05078 C 1.74805 -1.60156 6.25977 2.91016 11.709 2.91016 Z M 11.709 1.25 C 7.09961 1.25 3.41797 -2.44141 3.41797 -7.05078 C 3.41797 -11.6504 7.08984 -15.3516 11.6992 -15.3516 C 16.2988 -15.3516 20 -11.6504 20.0098 -7.05078 C 20.0195 -2.44141 16.3086 1.25 11.709 1.25 Z M 11.6797 -2.41211 C 12.207 -2.41211 12.5195 -2.77344 12.5195 -3.33984 L 12.5195 -6.23047 L 15.5762 -6.23047 C 16.123 -6.23047 16.5039 -6.51367 16.5039 -7.03125 C 16.5039 -7.55859 16.1426 -7.86133 15.5762 -7.86133 L 12.5195 -7.86133 L 12.5195 -10.9277 C 12.5195 -11.5039 12.207 -11.8555 11.6797 -11.8555 C 11.1621 -11.8555 10.8789 -11.4844 10.8789 -10.9277 L 10.8789 -7.86133 L 7.83203 -7.86133 C 7.25586 -7.86133 6.89453 -7.55859 6.89453 -7.03125 C 6.89453 -6.51367 7.28516 -6.23047 7.83203 -6.23047 L 10.8789 -6.23047 L 10.8789 -3.33984 C 10.8789 -2.79297 11.1621 -2.41211 11.6797 -2.41211 Z"/>
  </g>
  <g id="" transform="matrix(1 0 0 1 304.914 1933)">
   <path d="M 14.9707 5.67383 C 21.9336 5.67383 27.6855 -0.078125 27.6855 -7.04102 C 27.6855 -14.0039 21.9238 -19.7559 14.9609 -19.7559 C 7.99805 -19.7559 2.25586 -14.0039 2.25586 -7.04102 C 2.25586 -0.078125 8.00781 5.67383 14.9707 5.67383 Z M 14.9707 3.85742 C 8.92578 3.85742 4.08203 -1.00586 4.08203 -7.04102 C 4.08203 -13.0762 8.91602 -17.9395 14.9609 -17.9395 C 20.9961 -17.9395 25.8594 -13.0762 25.8691 -7.04102 C 25.8789 -1.00586 21.0059 3.85742 14.9707 3.85742 Z M 14.9414 -1.06445 C 15.5176 -1.06445 15.8594 -1.45508 15.8594 -2.06055 L 15.8594 -6.13281 L 20.0977 -6.13281 C 20.6934 -6.13281 21.1133 -6.46484 21.1133 -7.02148 C 21.1133 -7.59766 20.7227 -7.93945 20.0977 -7.93945 L 15.8594 -7.93945 L 15.8594 -12.1875 C 15.8594 -12.8027 15.5176 -13.1934 14.9414 -13.1934 C 14.3848 -13.1934 14.0625 -12.7832 14.0625 -12.1875 L 14.0625 -7.93945 L 9.82422 -7.93945 C 9.20898 -7.93945 8.80859 -7.59766 8.80859 -7.02148 C 8.80859 -6.46484 9.23828 -6.13281 9.82422 -6.13281 L 14.0625 -6.13281 L 14.0625 -2.06055 C 14.0625 -1.47461 14.3848 -1.06445 14.9414 -1.06445 Z"/>
  </g>
  <text style="stroke:none;fill:black;font-family:-apple-system,&quot;SF Pro Display&quot;,&quot;SF Pro Text&quot;,Helvetica,sans-serif;font-weight:bold;" transform="matrix(1 0 0 1 263 1953)">Design Variations</text>
  <text style="stroke:none;fill:black;font-family:-apple-system,&quot;SF Pro Display&quot;,&quot;SF Pro Text&quot;,Helvetica,sans-serif;" transform="matrix(1 0 0 1 263 1971)">Symbols are supported in up to nine weights and three scales.</text>
  <text style="stroke:none;fill:black;font-family:-apple-system,&quot;SF Pro Display&quot;,&quot;SF Pro Text&quot;,Helvetica,sans-serif;" transform="matrix(1 0 0 1 263 1989)">For optimal layout with text and other symbols, vertically align</text>
  <text style="stroke:none;fill:black;font-family:-apple-system,&quot;SF Pro Display&quot;,&quot;SF Pro Text&quot;,Helvetica,sans-serif;" transform="matrix(1 0 0 1 263 2007)">symbols with the adjacent text.</text>
  <rect height="14" id="" style="fill:#00AEEF;stroke:none;opacity:0.4;" width="3" x="776" y="1919"/>
  <g id="" transform="matrix(1 0 0 1 779 1933)">
   <path d="M 10.5273 0 L 12.373 0 L 7.17773 -14.0918 L 5.43945 -14.0918 L 0.244141 0 L 2.08984 0 L 3.50586 -4.0332 L 9.11133 -4.0332 Z M 6.2793 -11.9531 L 6.33789 -11.9531 L 8.59375 -5.52734 L 4.02344 -5.52734 Z"/>
  </g>
  <rect height="14" id="" style="fill:#00AEEF;stroke:none;opacity:0.4;" width="3" x="791.617" y="1919"/>
  <text style="stroke:none;fill:black;font-family:-apple-system,&quot;SF Pro Display&quot;,&quot;SF Pro Text&quot;,Helvetica,sans-serif;font-weight:bold;" transform="matrix(1 0 0 1 776 1953)">Side Bearings</text>
  <text style="stroke:none;fill:black;font-family:-apple-system,&quot;SF Pro Display&quot;,&quot;SF Pro Text&quot;,Helvetica,sans-serif;" transform="matrix(1 0 0 1 776 1971)">Horizontal padding on the left and right side of each symbol</text>
  <text style="stroke:none;fill:black;font-family:-apple-system,&quot;SF Pro Display&quot;,&quot;SF Pro Text&quot;,Helvetica,sans-serif;" transform="matrix(1 0 0 1 776 1989)">can be adjusted by modifying the width of the blue rectangles.</text>
  <text style="stroke:none;fill:black;font-family:-apple-system,&quot;SF Pro Display&quot;,&quot;SF Pro Text&quot;,Helvetica,sans-serif;" transform="matrix(1 0 0 1 776 2007)">Modifications are automatically applied proportionally to all</text>
  <text style="stroke:none;fill:black;font-family:-apple-system,&quot;SF Pro Display&quot;,&quot;SF Pro Text&quot;,Helvetica,sans-serif;" transform="matrix(1 0 0 1 776 2025)">scales and weights.</text>
  <g id="" transform="matrix(1 0 0 1 1289 1933)">
   <path d="M 2.96875 2.35352 L 3.80859 3.19336 C 4.84375 4.22852 6.12305 4.15039 7.19727 2.97852 L 16.1621 -6.82617 C 16.5527 -6.74805 16.9629 -6.8457 17.4902 -7.02148 C 18.1738 -7.25586 18.2715 -7.25586 18.3887 -7.13867 C 18.5352 -7.01172 18.4863 -6.89453 18.2422 -6.25 C 17.8809 -5.33203 17.8125 -4.79492 18.5547 -4.02344 L 19.4238 -3.13477 C 20.2734 -2.24609 21.3281 -2.26562 22.2168 -3.14453 L 25.0586 -5.97656 C 25.9473 -6.86523 25.957 -7.92969 25.0781 -8.7793 L 24.1797 -9.64844 C 23.4082 -10.4004 22.8711 -10.3516 21.9629 -9.98047 C 21.3184 -9.72656 21.2012 -9.6875 21.0645 -9.81445 C 20.9375 -9.93164 20.9473 -10.0391 21.1816 -10.7129 C 21.5332 -11.6895 21.5723 -12.2852 20.752 -13.0957 L 19.3359 -14.5117 C 15.1953 -18.6133 11.2305 -18.7402 7.65625 -15.4395 C 7.08008 -14.9023 6.99219 -14.1504 7.53906 -13.6133 L 7.79297 -13.3594 C 8.22266 -12.9297 8.86719 -12.8418 9.41406 -13.1152 C 11.0645 -13.9453 12.2559 -14.0234 13.457 -12.9785 L 13.0273 -11.416 C 12.8516 -10.8008 12.793 -10.3418 12.9199 -9.93164 L 3.18359 -1.04492 C 2.02148 0.0292969 1.93359 1.32812 2.96875 2.35352 Z M 8.96484 -14.4922 C 8.89648 -14.5703 8.86719 -14.6582 8.99414 -14.7559 C 11.709 -17.2852 15.0391 -16.8457 18.3496 -13.5254 L 19.6973 -12.168 C 20.0879 -11.7773 20.0977 -11.582 19.8828 -10.8691 C 19.6582 -10.127 19.502 -9.53125 20.1465 -8.88672 C 20.8105 -8.22266 21.2891 -8.41797 22.207 -8.63281 C 22.9004 -8.79883 23.0664 -8.79883 23.4473 -8.41797 L 24.0918 -7.77344 C 24.4043 -7.48047 24.4141 -7.32422 24.0723 -6.97266 L 21.2207 -4.13086 C 20.8887 -3.79883 20.7227 -3.79883 20.4297 -4.10156 L 19.7852 -4.75586 C 19.4141 -5.13672 19.4141 -5.30273 19.5801 -6.01562 C 19.7852 -6.88477 19.9805 -7.38281 19.3262 -8.04688 C 18.6719 -8.7207 18.0762 -8.57422 17.3438 -8.33008 C 16.5625 -8.06641 16.3281 -8.06641 15.8984 -8.49609 L 14.6094 -9.78516 C 14.1699 -10.2246 14.1309 -10.4395 14.2676 -10.9082 L 15.0293 -13.3984 C 13.3887 -15.2832 11.4941 -15.5566 9.20898 -14.4434 C 9.11133 -14.3945 9.04297 -14.4141 8.96484 -14.4922 Z M 3.96484 1.36719 C 3.52539 0.927734 3.54492 0.537109 4.14062 -0.00976562 L 13.7402 -8.81836 L 15 -7.55859 L 6.17188 2.02148 C 5.625 2.60742 5.24414 2.64648 4.79492 2.19727 Z"/>
  </g>
  <text style="stroke:none;fill:black;font-family:-apple-system,&quot;SF Pro Display&quot;,&quot;SF Pro Text&quot;,Helvetica,sans-serif;font-weight:bold;" transform="matrix(1 0 0 1 1289 1953)">Exporting</text>
  <text style="stroke:none;fill:black;font-family:-apple-system,&quot;SF Pro Display&quot;,&quot;SF Pro Text&quot;,Helvetica,sans-serif;" transform="matrix(1 0 0 1 1289 1971)">Symbols should be outlined when exporting to ensure the</text>
  <text style="stroke:none;fill:black;font-family:-apple-system,&quot;SF Pro Display&quot;,&quot;SF Pro Text&quot;,Helvetica,sans-serif;" transform="matrix(1 0 0 1 1289 1989)">design is preserved when submitting to Xcode.</text>
  <text id="template-version" style="stroke:none;fill:black;font-family:-apple-system,&quot;SF Pro Display&quot;,&quot;SF Pro Text&quot;,Helvetica,sans-serif;text-anchor:end;" transform="matrix(1 0 0 1 3036 1933)">Template v.0.1</text>
  <text style="stroke:none;fill:black;font-family:-apple-system,&quot;SF Pro Display&quot;,&quot;SF Pro Text&quot;,Helvetica,sans-serif;text-anchor:end;" transform="matrix(1 0 0 1 3036 1951)">Generated from arrow.2.circlepath</text>
  <text style="stroke:none;fill:black;font-family:-apple-system,&quot;SF Pro Display&quot;,&quot;SF Pro Text&quot;,Helvetica,sans-serif;text-anchor:end;" transform="matrix(1 0 0 1 3036 1969)">Typeset at 100 points</text>
  <text style="stroke:none;fill:black;font-family:-apple-system,&quot;SF Pro Display&quot;,&quot;SF Pro Text&quot;,Helvetica,sans-serif;" transform="matrix(1 0 0 1 263 726)">Small</text>
  <text style="stroke:none;fill:black;font-family:-apple-system,&quot;SF Pro Display&quot;,&quot;SF Pro Text&quot;,Helvetica,sans-serif;" transform="matrix(1 0 0 1 263 1156)">Medium</text>
  <text style="stroke:none;fill:black;font-family:-apple-system,&quot;SF Pro Display&quot;,&quot;SF Pro Text&quot;,Helvetica,sans-serif;" transform="matrix(1 0 0 1 263 1586)">Large</text>
 </g>
 <g id="Guides">
  <g id="H-reference" style="fill:#27AAE1;stroke:none;" transform="matrix(1 0 0 1 339 696)">
   <path d="M 54.9316 0 L 57.666 0 L 30.5664 -70.459 L 28.0762 -70.459 L 0.976562 0 L 3.66211 0 L 12.9395 -24.4629 L 45.7031 -24.4629 Z M 29.1992 -67.0898 L 29.4434 -67.0898 L 44.8242 -26.709 L 13.8184 -26.709 Z"/>
  </g>
  <line id="Baseline-S" style="fill:none;stroke:#27AAE1;opacity:1;stroke-width:0.577;" x1="263" x2="3036" y1="696" y2="696"/>
  <line id="Capline-S" style="fill:none;stroke:#27AAE1;opacity:1;stroke-width:0.577;" x1="263" x2="3036" y1="625.541" y2="625.541"/>
  <g id="H-reference" style="fill:#27AAE1;stroke:none;" transform="matrix(1 0 0 1 339 1126)">
   <path d="M 54.9316 0 L 57.666 0 L 30.5664 -70.459 L 28.0762 -70.459 L 0.976562 0 L 3.66211 0 L 12.9395 -24.4629 L 45.7031 -24.4629 Z M 29.1992 -67.0898 L 29.4434 -67.0898 L 44.8242 -26.709 L 13.8184 -26.709 Z"/>
  </g>
  <line id="Baseline-M" style="fill:none;stroke:#27AAE1;opacity:1;stroke-width:0.577;" x1="263" x2="3036" y1="1126" y2="1126"/>
  <line id="Capline-M" style="fill:none;stroke:#27AAE1;opacity:1;stroke-width:0.577;" x1="263" x2="3036" y1="1055.54" y2="1055.54"/>
  <g id="H-reference" style="fill:#27AAE1;stroke:none;" transform="matrix(1 0 0 1 339 1556)">
   <path d="M 54.9316 0 L 57.666 0 L 30.5664 -70.459 L 28.0762 -70.459 L 0.976562 0 L 3.66211 0 L 12.9395 -24.4629 L 45.7031 -24.4629 Z M 29.1992 -67.0898 L 29.4434 -67.0898 L 44.8242 -26.709 L 13.8184 -26.709 Z"/>
  </g>
  <line id="Baseline-L" style="fill:none;stroke:#27AAE1;opacity:1;stroke-width:0.577;" x1="263" x2="3036" y1="1556" y2="1556"/>
  <line id="Capline-L" style="fill:none;stroke:#27AAE1;opacity:1;stroke-width:0.577;" x1="263" x2="3036" y1="1485.54" y2="1485.54"/>
  <rect height="119.336" id="left-margin" style="fill:#00AEEF;stroke:none;opacity:0.4;" width="8.71601" x="1383.54" y="1030.79"/>
  <rect height="119.336" id="right-margin" style="fill:#00AEEF;stroke:none;opacity:0.4;" width="8.71447" x="1507.44" y="1030.79"/>
 </g>
 <g id="Symbols">
  <g id="Ultralight-S" transform="matrix(1 0 0 1 509.906 696)">
   <path d="M 49.8047 -71.4844 C 38.8672 -71.4844 29.1016 -66.3574 22.3145 -58.8867 C 21.8262 -58.3008 21.9238 -57.5684 22.4121 -57.1289 C 22.9004 -56.6895 23.6328 -56.8359 24.0723 -57.373 C 29.9805 -64.6973 39.5508 -69.1895 49.8047 -69.1895 C 68.0664 -69.1895 83.0078 -54.6387 83.7891 -36.5723 L 77.1973 -36.5723 C 75.5371 -36.5723 75.1465 -34.9121 76.0254 -33.8379 L 82.6172 -25.6836 C 83.4961 -24.5605 84.8145 -24.5605 85.7422 -25.6836 L 92.2852 -33.8379 C 93.1641 -34.9121 92.7734 -36.5723 91.1133 -36.5723 L 86.084 -36.5723 C 85.3027 -56.1035 69.2871 -71.4844 49.8047 -71.4844 Z M 8.44727 -33.7402 L 13.4766 -33.7402 C 14.3066 -14.2578 30.3223 1.17188 49.8047 1.17188 C 60.6934 1.17188 70.6543 -3.75977 77.2461 -11.4746 C 77.7832 -12.0117 77.6855 -12.793 77.1973 -13.2324 C 76.6602 -13.6719 75.9766 -13.4766 75.5371 -12.9395 C 69.4336 -5.76172 60.0586 -1.12305 49.8047 -1.12305 C 31.543 -1.12305 16.6016 -15.6738 15.8203 -33.7402 L 22.3633 -33.7402 C 24.0234 -33.7402 24.4141 -35.4004 23.5352 -36.4746 L 16.9922 -44.6289 C 16.0645 -45.752 14.7461 -45.752 13.8672 -44.6289 L 7.27539 -36.4746 C 6.39648 -35.4004 6.78711 -33.7402 8.44727 -33.7402 Z"/>
  </g>
  <g id="Thin-S" transform="matrix(1 0 0 1 806.032 696)">
   <path d="M 50.3906 -71.9727 C 39.5996 -71.9727 29.8828 -67.041 23.0469 -59.6191 C 22.2168 -58.7891 22.3145 -57.7148 23.0957 -57.0312 C 23.8281 -56.3965 24.8535 -56.543 25.5371 -57.3242 C 31.3477 -64.2578 40.5273 -68.5059 50.3906 -68.5059 C 68.1641 -68.5059 82.666 -54.5898 83.6426 -37.0605 L 77.5391 -37.0605 C 75.6348 -37.0605 75.0488 -35.1562 76.123 -33.8379 L 82.8125 -25.4395 C 83.9844 -23.9746 85.5469 -23.9746 86.7188 -25.4395 L 93.4082 -33.8379 C 94.4824 -35.1562 93.8965 -37.0605 91.9922 -37.0605 L 87.1094 -37.0605 C 86.1328 -56.543 69.9219 -71.9727 50.3906 -71.9727 Z M 8.78906 -33.3008 L 13.6719 -33.3008 C 14.6484 -13.8184 30.8594 1.61133 50.3906 1.61133 C 61.2305 1.61133 71.0938 -3.17383 77.7832 -10.7422 C 78.5645 -11.5723 78.4668 -12.6465 77.7344 -13.3301 C 77.002 -13.9648 75.9277 -13.8184 75.2441 -13.0371 C 69.2871 -6.20117 60.2539 -1.85547 50.3906 -1.85547 C 32.6172 -1.85547 18.1152 -15.7715 17.1387 -33.3008 L 23.2422 -33.3008 C 25.1465 -33.3008 25.7324 -35.2051 24.6582 -36.5234 L 17.9688 -44.9219 C 16.7969 -46.3867 15.2344 -46.3867 14.0625 -44.9219 L 7.37305 -36.5234 C 6.29883 -35.2051 6.88477 -33.3008 8.78906 -33.3008 Z"/>
  </g>
  <g id="Light-S" transform="matrix(1 0 0 1 1101.57 696)">
   <path d="M 51.5625 -72.9004 C 40.918 -72.9004 31.2988 -68.3105 24.3652 -61.1328 C 23.0469 -59.7656 23.1445 -57.959 24.3652 -56.8848 C 25.5371 -55.8105 27.2461 -56.0547 28.418 -57.2754 C 34.082 -63.4766 42.4316 -67.1875 51.5625 -67.1875 C 68.3594 -67.1875 81.9824 -54.4434 83.3984 -38.0371 L 78.125 -38.0371 C 75.7812 -38.0371 74.8535 -35.6445 76.2695 -33.8379 L 83.2031 -24.9512 C 84.8633 -22.8516 86.9629 -22.8516 88.6719 -24.9512 L 95.6055 -33.8379 C 97.0215 -35.6445 96.0449 -38.0371 93.75 -38.0371 L 89.1602 -38.0371 C 87.6953 -57.4707 71.2402 -72.9004 51.5625 -72.9004 Z M 9.375 -32.4219 L 13.9648 -32.4219 C 15.3809 -12.9883 31.8359 2.44141 51.5625 2.44141 C 62.1582 2.44141 71.875 -2.05078 78.7109 -9.32617 C 80.0781 -10.6934 79.9805 -12.5 78.7598 -13.5742 C 77.5391 -14.5996 75.8301 -14.3555 74.6582 -13.1836 C 68.9453 -7.03125 60.6934 -3.27148 51.5625 -3.27148 C 34.7656 -3.27148 21.0938 -16.0156 19.7266 -32.4219 L 25 -32.4219 C 27.2949 -32.4219 28.2715 -34.8145 26.8555 -36.6211 L 19.9219 -45.459 C 18.2129 -47.6074 16.1133 -47.6074 14.4531 -45.459 L 7.51953 -36.6211 C 6.10352 -34.8145 7.03125 -32.4219 9.375 -32.4219 Z"/>
  </g>
  <g id="Regular-S" transform="matrix(1 0 0 1 1397.4 696)">
   <path d="M 52.4414 -73.584 C 41.9434 -73.584 32.373 -69.2871 25.3906 -62.2559 C 23.6328 -60.4492 23.7305 -58.1543 25.3418 -56.7383 C 26.8555 -55.4199 29.0527 -55.6641 30.6152 -57.2266 C 36.1816 -62.8418 43.8965 -66.2109 52.4414 -66.2109 C 68.457 -66.2109 81.4941 -54.2969 83.2031 -38.7207 L 78.5645 -38.7207 C 75.9277 -38.7207 74.707 -35.9863 76.3672 -33.8379 L 83.4961 -24.6094 C 85.5957 -21.9727 88.0371 -21.9727 90.1367 -24.6094 L 97.2656 -33.8379 C 98.9258 -35.9863 97.7051 -38.7207 95.0195 -38.7207 L 90.625 -38.7207 C 88.916 -58.1543 72.2656 -73.584 52.4414 -73.584 Z M 9.81445 -31.7383 L 14.209 -31.7383 C 15.9668 -12.3535 32.6172 3.125 52.4414 3.125 C 62.8906 3.125 72.5098 -1.2207 79.4434 -8.25195 C 81.25 -10.0098 81.1523 -12.3535 79.541 -13.7207 C 77.9785 -15.0879 75.7812 -14.7949 74.2676 -13.2812 C 68.7012 -7.66602 60.9863 -4.29688 52.4414 -4.29688 C 36.377 -4.29688 23.3887 -16.2109 21.6797 -31.7383 L 26.2695 -31.7383 C 28.9551 -31.7383 30.1758 -34.5215 28.5156 -36.6699 L 21.3867 -45.8984 C 19.2871 -48.5352 16.8457 -48.5352 14.7461 -45.8984 L 7.61719 -36.6699 C 5.95703 -34.5215 7.17773 -31.7383 9.81445 -31.7383 Z"/>
  </g>
  <g id="Medium-S" transform="matrix(1 0 0 1 1692.75 696)">
   <path d="M 53.8086 -74.4141 C 43.6035 -74.4141 34.2773 -70.3613 27.3926 -63.8184 C 25.1953 -61.8164 25.1465 -59.082 26.7578 -57.373 C 28.3691 -55.5664 31.0547 -55.4199 33.3496 -57.373 C 38.6719 -62.4512 45.8984 -65.4785 53.8086 -65.4785 C 69.3359 -65.4785 81.8359 -54.1016 83.8379 -39.5508 L 78.8086 -39.5508 C 75.8789 -39.5508 74.6094 -36.5234 76.5137 -34.082 L 84.7656 -23.6328 C 86.8652 -20.9961 89.5508 -20.9961 91.6016 -23.6328 L 99.8535 -34.082 C 101.807 -36.5234 100.537 -39.5508 97.6074 -39.5508 L 92.8223 -39.5508 C 90.7715 -58.8379 74.0234 -74.4141 53.8086 -74.4141 Z M 10.0586 -30.957 L 14.7949 -30.957 C 16.8457 -11.6211 33.5938 3.95508 53.8086 3.95508 C 64.0137 3.95508 73.3887 -0.0976562 80.2246 -6.64062 C 82.4707 -8.64258 82.4707 -11.377 80.8594 -13.1348 C 79.248 -14.8926 76.6113 -15.0391 74.2676 -13.0859 C 68.9941 -8.05664 61.7676 -4.98047 53.8086 -4.98047 C 38.2812 -4.98047 25.7812 -16.3574 23.8281 -30.957 L 28.8574 -30.957 C 31.7871 -30.957 33.0566 -33.9355 31.1035 -36.377 L 22.9004 -46.8262 C 20.752 -49.5117 18.1152 -49.4629 16.0156 -46.8262 L 7.76367 -36.377 C 5.85938 -33.9355 7.08008 -30.957 10.0586 -30.957 Z"/>
  </g>
  <g id="Semibold-S" transform="matrix(1 0 0 1 1988.38 696)">
   <path d="M 54.8828 -75.0488 C 44.873 -75.0488 35.6934 -71.1426 28.9551 -65.0391 C 26.3672 -62.8906 26.2695 -59.8145 27.8809 -57.8125 C 29.541 -55.7129 32.5684 -55.2246 35.4492 -57.5195 C 40.5762 -62.1094 47.4121 -64.9414 54.8828 -64.9414 C 70.0195 -64.9414 82.0801 -53.9551 84.2773 -40.1367 L 78.9551 -40.1367 C 75.8301 -40.1367 74.5117 -36.9629 76.6602 -34.2773 L 85.7422 -22.9004 C 87.8906 -20.2148 90.6738 -20.2637 92.7734 -22.9004 L 101.855 -34.2773 C 103.955 -36.9629 102.734 -40.1367 99.5605 -40.1367 L 94.5312 -40.1367 C 92.2363 -59.375 75.3906 -75.0488 54.8828 -75.0488 Z M 10.2051 -30.3223 L 15.2344 -30.3223 C 17.5293 -11.084 34.375 4.58984 54.8828 4.58984 C 64.8926 4.58984 74.0723 0.732422 80.8105 -5.41992 C 83.3984 -7.56836 83.4961 -10.6445 81.8848 -12.6465 C 80.2246 -14.7461 77.1973 -15.2344 74.3164 -12.9395 C 69.1895 -8.30078 62.3535 -5.51758 54.8828 -5.51758 C 39.7461 -5.51758 27.6855 -16.5039 25.4883 -30.3223 L 30.8105 -30.3223 C 33.9355 -30.3223 35.2539 -33.4961 33.1055 -36.1816 L 24.0234 -47.5586 C 21.875 -50.2441 19.0918 -50.1953 16.9922 -47.5586 L 7.91016 -36.1816 C 5.81055 -33.4961 7.03125 -30.3223 10.2051 -30.3223 Z"/>
  </g>
  <g id="Bold-S" transform="matrix(1 0 0 1 2283.7 696)">
   <path d="M 56.2988 -75.8789 C 46.5332 -75.8789 37.5977 -72.2656 30.957 -66.6504 C 27.9297 -64.2578 27.7344 -60.7422 29.3457 -58.3984 C 31.1035 -55.9082 34.5703 -54.9805 38.1836 -57.666 C 43.0664 -61.7188 49.4141 -64.209 56.2988 -64.209 C 70.8984 -64.209 82.4219 -53.7598 84.8633 -40.918 L 79.1992 -40.918 C 75.7812 -40.918 74.4141 -37.5488 76.8066 -34.5703 L 87.0117 -21.9238 C 89.209 -19.2383 92.1387 -19.2871 94.2871 -21.9238 L 104.492 -34.5703 C 106.885 -37.5 105.615 -40.918 102.148 -40.918 L 96.7285 -40.918 C 94.1406 -60.1074 77.1973 -75.8789 56.2988 -75.8789 Z M 10.4492 -29.4922 L 15.8691 -29.4922 C 18.4082 -10.3516 35.3516 5.41992 56.2988 5.41992 C 66.0156 5.41992 75 1.85547 81.5918 -3.75977 C 84.668 -6.20117 84.8145 -9.7168 83.2031 -12.0605 C 81.4453 -14.5508 77.9785 -15.4785 74.3652 -12.793 C 69.4824 -8.69141 63.1836 -6.25 56.2988 -6.25 C 41.6992 -6.25 30.1758 -16.6504 27.6855 -29.4922 L 33.3984 -29.4922 C 36.8164 -29.4922 38.1348 -32.9102 35.7422 -35.8887 L 25.5371 -48.5352 C 23.3887 -51.2207 20.4102 -51.1719 18.3105 -48.5352 L 8.05664 -35.8887 C 5.71289 -32.959 6.93359 -29.4922 10.4492 -29.4922 Z"/>
  </g>
  <g id="Heavy-S" transform="matrix(1 0 0 1 2578.36 696)">
   <path d="M 58.3008 -77.0996 C 48.9746 -77.0996 40.3809 -73.8281 33.8867 -68.9941 C 30.1758 -66.2598 29.834 -62.1094 31.4941 -59.2773 C 33.3496 -56.1523 37.4512 -54.5898 42.2363 -57.9102 C 46.7285 -61.084 52.3438 -63.1348 58.3008 -63.1348 C 72.1191 -63.1348 82.8125 -53.5156 85.6934 -42.0898 L 79.4922 -42.0898 C 75.6836 -42.0898 74.2676 -38.3789 77.0996 -34.9121 L 88.8672 -20.459 C 91.1133 -17.7734 94.3359 -17.8711 96.4844 -20.459 L 108.301 -34.9121 C 111.035 -38.3301 109.814 -42.0898 105.908 -42.0898 L 99.9023 -42.0898 C 96.9238 -61.1328 79.834 -77.0996 58.3008 -77.0996 Z M 10.7422 -28.3203 L 16.748 -28.3203 C 19.7266 -9.27734 36.8164 6.68945 58.3008 6.68945 C 67.6758 6.68945 76.3184 3.4668 82.7637 -1.41602 C 86.4258 -4.15039 86.7676 -8.30078 85.1562 -11.1328 C 83.3008 -14.2578 79.1504 -15.8203 74.4141 -12.5 C 69.9219 -9.27734 64.3066 -7.27539 58.3008 -7.27539 C 44.5312 -7.27539 33.7891 -16.8945 30.957 -28.3203 L 37.1582 -28.3203 C 40.9668 -28.3203 42.334 -32.0312 39.5508 -35.498 L 27.7832 -49.9512 C 25.5371 -52.6367 22.3145 -52.5391 20.166 -49.9512 L 8.34961 -35.498 C 5.56641 -32.0801 6.83594 -28.3203 10.7422 -28.3203 Z"/>
  </g>
  <g id="Black-S" transform="matrix(1 0 0 1 2873.27 696)">
   <path d="M 60.1562 -78.1738 C 51.123 -78.1738 42.8711 -75.2441 36.5234 -71.0449 C 32.2266 -68.0176 31.7383 -63.3301 33.3984 -60.0586 C 35.3516 -56.3965 40.0879 -54.248 45.8008 -58.1055 C 50 -60.5469 54.9316 -62.207 60.1562 -62.207 C 73.1445 -62.207 83.2031 -53.3691 86.3281 -43.1152 L 79.7852 -43.1152 C 75.6348 -43.1152 74.1699 -39.1113 77.2949 -35.2539 L 90.5273 -19.1895 C 92.8223 -16.4551 96.2891 -16.6016 98.4375 -19.1895 L 111.719 -35.2539 C 114.795 -39.0137 113.525 -43.1152 109.229 -43.1152 L 102.734 -43.1152 C 99.3652 -62.1094 82.1289 -78.1738 60.1562 -78.1738 Z M 11.0352 -27.2949 L 17.5293 -27.2949 C 20.8984 -8.30078 38.1348 7.76367 60.1562 7.76367 C 69.1406 7.76367 77.4902 4.93164 83.7891 0.683594 C 88.0371 -2.34375 88.5254 -7.08008 86.8652 -10.3516 C 84.9609 -14.0137 80.2246 -16.1621 74.4629 -12.3047 C 70.2637 -9.76562 65.332 -8.1543 60.1562 -8.1543 C 47.1191 -8.1543 37.1094 -16.9922 33.9355 -27.2949 L 40.4785 -27.2949 C 44.6777 -27.2949 46.0938 -31.2988 42.9688 -35.1074 L 29.7363 -51.1719 C 27.4902 -53.9062 23.9746 -53.8086 21.8262 -51.1719 L 8.54492 -35.1074 C 5.46875 -31.3477 6.73828 -27.2949 11.0352 -27.2949 Z"/>
  </g>
  <g id="Ultralight-M" transform="matrix(1 0 0 1 496.381 1126)">
   <path d="M 63.3301 -81.3477 C 49.3652 -81.3477 36.9141 -74.707 28.2227 -65.0879 C 27.6855 -64.502 27.832 -63.6719 28.3691 -63.1836 C 28.9062 -62.6953 29.6875 -62.8906 30.1758 -63.4766 C 37.6953 -72.998 50.0977 -78.8086 63.3301 -78.8086 C 86.8164 -78.8086 106.055 -60.0586 106.982 -36.7676 L 98.4375 -36.7676 C 96.3867 -36.7676 95.9961 -34.7168 97.0215 -33.4473 L 105.371 -23.1445 C 106.396 -21.875 108.008 -21.875 109.033 -23.1445 L 117.383 -33.4473 C 118.408 -34.7168 118.018 -36.7676 115.967 -36.7676 L 109.521 -36.7676 C 108.545 -61.6699 88.1348 -81.3477 63.3301 -81.3477 Z M 10.6934 -33.4961 L 17.1387 -33.4961 C 18.0664 -8.59375 38.5254 11.084 63.3301 11.084 C 77.2949 11.084 90.0391 4.6875 98.4375 -5.17578 C 98.9746 -5.76172 98.8281 -6.5918 98.291 -7.08008 C 97.7539 -7.56836 96.9727 -7.37305 96.4844 -6.78711 C 88.7207 2.53906 76.5625 8.54492 63.3301 8.54492 C 39.8438 8.54492 20.6055 -10.2051 19.6777 -33.4961 L 28.2227 -33.4961 C 30.2734 -33.4961 30.6641 -35.5469 29.6387 -36.8164 L 21.2891 -47.1191 C 20.2637 -48.4375 18.6523 -48.4375 17.627 -47.1191 L 9.27734 -36.8164 C 8.25195 -35.5469 8.64258 -33.4961 10.6934 -33.4961 Z"/>
  </g>
  <g id="Thin-M" transform="matrix(1 0 0 1 792.409 1126)">
   <path d="M 64.0137 -81.8848 C 50.1465 -81.8848 37.7441 -75.4395 29.0039 -65.9668 C 28.1738 -65.0391 28.2715 -63.8184 29.1016 -63.0859 C 29.9316 -62.4023 31.0547 -62.5977 31.8359 -63.4766 C 39.3066 -72.5098 51.1719 -78.0762 64.0137 -78.0762 C 86.9141 -78.0762 105.664 -59.9609 106.836 -37.3047 L 98.7793 -37.3047 C 96.4844 -37.3047 95.8496 -35.0098 97.1191 -33.4473 L 105.615 -22.8516 C 106.934 -21.1914 108.838 -21.1914 110.156 -22.8516 L 118.652 -33.4473 C 119.873 -35.0098 119.238 -37.3047 116.943 -37.3047 L 110.645 -37.3047 C 109.473 -62.207 88.916 -81.8848 64.0137 -81.8848 Z M 11.0352 -33.0078 L 17.334 -33.0078 C 18.5059 -8.10547 39.1113 11.5723 64.0137 11.5723 C 77.8809 11.5723 90.4785 5.37109 98.9746 -4.3457 C 99.8535 -5.27344 99.707 -6.49414 98.9258 -7.22656 C 98.0957 -7.91016 96.9238 -7.71484 96.1914 -6.83594 C 88.5254 2.05078 76.8066 7.76367 64.0137 7.76367 C 41.0645 7.76367 22.3145 -10.3516 21.1426 -33.0078 L 29.1992 -33.0078 C 31.4941 -33.0078 32.1289 -35.3027 30.9082 -36.8652 L 22.4121 -47.4609 C 21.0938 -49.1211 19.1895 -49.1211 17.8223 -47.4609 L 9.375 -36.8652 C 8.10547 -35.3027 8.74023 -33.0078 11.0352 -33.0078 Z"/>
  </g>
  <g id="Light-M" transform="matrix(1 0 0 1 1087.83 1126)">
   <path d="M 65.332 -82.9102 C 51.6602 -82.9102 39.3555 -76.9043 30.5664 -67.6758 C 29.0527 -66.1133 29.1992 -64.1113 30.5664 -62.9395 C 31.8848 -61.7676 33.7891 -62.0117 35.1074 -63.3789 C 42.3828 -71.6309 53.3691 -76.5625 65.332 -76.5625 C 87.1582 -76.5625 104.932 -59.8145 106.543 -38.3789 L 99.4629 -38.3789 C 96.6797 -38.3789 95.6055 -35.5469 97.2656 -33.4473 L 106.055 -22.3145 C 107.959 -19.873 110.4 -19.873 112.354 -22.3145 L 121.143 -33.4473 C 122.754 -35.5469 121.729 -38.3789 118.896 -38.3789 L 112.939 -38.3789 C 111.279 -63.2324 90.3809 -82.9102 65.332 -82.9102 Z M 11.7188 -31.9824 L 17.6758 -31.9824 C 19.3359 -7.17773 40.2344 12.5488 65.332 12.5488 C 78.9551 12.5488 91.4062 6.64062 100.098 -2.73438 C 101.562 -4.24805 101.465 -6.25 100.098 -7.4707 C 98.7305 -8.64258 96.8262 -8.34961 95.5566 -6.98242 C 88.1348 1.12305 77.2949 6.15234 65.332 6.15234 C 43.5059 6.15234 25.6836 -10.5957 24.0723 -31.9824 L 31.1523 -31.9824 C 33.9844 -31.9824 35.0098 -34.8633 33.3496 -36.9629 L 24.6094 -48.0469 C 22.6562 -50.4883 20.2148 -50.4883 18.2617 -48.0469 L 9.52148 -36.9629 C 7.86133 -34.8633 8.93555 -31.9824 11.7188 -31.9824 Z"/>
  </g>
  <g id="Regular-M" transform="matrix(1 0 0 1 1383.54 1126)">
   <path d="M 66.3086 -83.7402 C 52.832 -83.7402 40.5762 -77.9785 31.6895 -68.9453 C 29.7363 -66.9434 29.8828 -64.3555 31.6406 -62.793 C 33.3496 -61.2793 35.8398 -61.6211 37.5488 -63.3301 C 44.7266 -70.8984 54.9805 -75.4395 66.3086 -75.4395 C 87.3047 -75.4395 104.395 -59.668 106.348 -39.209 L 100 -39.209 C 96.8262 -39.209 95.459 -35.9375 97.3633 -33.4473 L 106.348 -21.9238 C 108.74 -18.8965 111.621 -18.8965 114.014 -21.9238 L 122.998 -33.4473 C 124.951 -35.9375 123.584 -39.209 120.41 -39.209 L 114.648 -39.209 C 112.646 -64.0137 91.5039 -83.7402 66.3086 -83.7402 Z M 12.2559 -31.25 L 17.9688 -31.25 C 19.9707 -6.44531 41.1133 13.2324 66.3086 13.2324 C 79.7852 13.2324 92.0898 7.56836 100.928 -1.51367 C 102.881 -3.51562 102.783 -6.10352 100.977 -7.66602 C 99.2676 -9.17969 96.7773 -8.88672 95.0684 -7.12891 C 87.8418 0.390625 77.6367 4.98047 66.3086 4.98047 C 45.3125 4.98047 28.2715 -10.791 26.2695 -31.25 L 32.6172 -31.25 C 35.8398 -31.25 37.1582 -34.5215 35.2539 -37.0117 L 26.2695 -48.5352 C 23.877 -51.5625 20.9961 -51.5625 18.6035 -48.5352 L 9.61914 -37.0117 C 7.66602 -34.5215 9.0332 -31.25 12.2559 -31.25 Z"/>
  </g>
  <g id="Medium-M" transform="matrix(1 0 0 1 1678.71 1126)">
   <path d="M 67.8711 -84.668 C 54.6875 -84.668 42.627 -79.248 33.8867 -70.7031 C 31.3965 -68.4082 31.3965 -65.332 33.252 -63.3789 C 35.1074 -61.377 38.0859 -61.2793 40.625 -63.4766 C 47.5586 -70.4102 57.2266 -74.5605 67.8711 -74.5605 C 88.2324 -74.5605 104.639 -59.4238 106.982 -40.0879 L 100.244 -40.0879 C 96.7773 -40.0879 95.3125 -36.5723 97.5586 -33.7402 L 107.715 -20.8984 C 110.156 -17.7734 113.281 -17.8223 115.723 -20.8984 L 125.879 -33.7402 C 128.125 -36.5234 126.709 -40.0879 123.193 -40.0879 L 117.09 -40.0879 C 114.746 -64.7949 93.5059 -84.668 67.8711 -84.668 Z M 12.5 -30.3223 L 18.6035 -30.3223 C 20.9473 -5.66406 42.1875 14.209 67.8711 14.209 C 81.0547 14.209 93.1152 8.83789 101.807 0.244141 C 104.297 -2.00195 104.297 -5.12695 102.441 -7.08008 C 100.586 -9.08203 97.6074 -9.17969 95.0684 -6.93359 C 88.1348 -0.0488281 78.4668 4.10156 67.8711 4.10156 C 47.4609 4.10156 31.0547 -11.0352 28.7598 -30.3223 L 35.4492 -30.3223 C 38.916 -30.3223 40.3809 -33.8867 38.1348 -36.7188 L 27.9785 -49.5605 C 25.5371 -52.6855 22.4121 -52.6367 19.9707 -49.5605 L 9.81445 -36.7188 C 7.56836 -33.8867 8.98438 -30.3223 12.5 -30.3223 Z"/>
  </g>
  <g id="Semibold-M" transform="matrix(1 0 0 1 1974.25 1126)">
   <path d="M 69.043 -85.3516 C 56.0547 -85.3516 44.2383 -80.1758 35.5469 -72.0703 C 32.666 -69.5801 32.6172 -66.0645 34.5215 -63.8184 C 36.4258 -61.4746 39.8438 -61.0352 43.0176 -63.623 C 49.707 -70.0195 58.9355 -73.9258 69.043 -73.9258 C 88.916 -73.9258 104.883 -59.2773 107.422 -40.8203 L 100.488 -40.8203 C 96.7285 -40.8203 95.2148 -37.0117 97.7051 -33.9355 L 108.74 -20.0684 C 111.279 -16.9434 114.551 -16.9434 117.041 -20.0684 L 128.076 -33.9355 C 130.566 -37.0117 129.102 -40.8203 125.342 -40.8203 L 118.945 -40.8203 C 116.357 -65.4297 94.9707 -85.3516 69.043 -85.3516 Z M 12.7441 -29.6387 L 19.0918 -29.6387 C 21.7285 -5.0293 43.0664 14.9414 69.043 14.9414 C 81.9824 14.9414 93.8965 9.76562 102.49 1.61133 C 105.371 -0.878906 105.42 -4.3457 103.564 -6.5918 C 101.611 -8.93555 98.1934 -9.42383 95.0195 -6.83594 C 88.3301 -0.439453 79.1016 3.4668 69.043 3.4668 C 49.1211 3.4668 33.2031 -11.1816 30.6152 -29.6387 L 37.5488 -29.6387 C 41.3086 -29.6387 42.8223 -33.3984 40.332 -36.5234 L 29.3457 -50.3418 C 26.8066 -53.5156 23.4863 -53.4668 20.9961 -50.3418 L 9.96094 -36.5234 C 7.51953 -33.4473 8.93555 -29.6387 12.7441 -29.6387 Z"/>
  </g>
  <g id="Bold-M" transform="matrix(1 0 0 1 2269.4 1126)">
   <path d="M 70.5566 -86.3281 C 57.9102 -86.3281 46.3379 -81.3965 37.793 -73.877 C 34.375 -71.0938 34.1797 -67.0898 36.1328 -64.4531 C 38.1836 -61.6211 42.1387 -60.7422 46.1426 -63.7695 C 52.5391 -69.5312 61.1816 -73.0469 70.5566 -73.0469 C 89.8438 -73.0469 105.127 -59.0332 108.008 -41.6992 L 100.781 -41.6992 C 96.6797 -41.6992 95.1172 -37.6465 97.9004 -34.1797 L 110.059 -19.043 C 112.695 -15.7715 116.26 -15.8203 118.799 -19.043 L 131.006 -34.1797 C 133.789 -37.6465 132.275 -41.6992 128.125 -41.6992 L 121.436 -41.6992 C 118.457 -66.2598 96.9727 -86.3281 70.5566 -86.3281 Z M 13.0371 -28.7109 L 19.7266 -28.7109 C 22.7051 -4.19922 44.1895 15.8691 70.5566 15.8691 C 83.252 15.8691 94.873 11.0352 103.369 3.41797 C 106.787 0.634766 106.982 -3.36914 105.029 -6.00586 C 102.979 -8.83789 99.0234 -9.7168 95.0195 -6.64062 C 88.5742 -0.878906 79.9805 2.58789 70.5566 2.58789 C 51.3184 2.58789 36.0352 -11.377 33.1543 -28.7109 L 40.3809 -28.7109 C 44.4824 -28.7109 46.0449 -32.7637 43.2617 -36.2305 L 31.1035 -51.416 C 28.4668 -54.6387 24.9023 -54.5898 22.3633 -51.416 L 10.1562 -36.2305 C 7.37305 -32.8125 8.88672 -28.7109 13.0371 -28.7109 Z"/>
  </g>
  <g id="Heavy-M" transform="matrix(1 0 0 1 2563.86 1126)">
   <path d="M 72.8516 -87.6953 C 60.5957 -87.6953 49.3652 -83.2031 40.9668 -76.4648 C 36.8164 -73.2422 36.4746 -68.5059 38.5254 -65.2832 C 40.7227 -61.8164 45.459 -60.2539 50.6836 -64.0137 C 56.6895 -68.7988 64.4531 -71.7773 72.8516 -71.7773 C 91.1621 -71.7773 105.469 -58.7891 108.838 -43.0176 L 101.172 -43.0176 C 96.6309 -43.0176 94.9219 -38.5742 98.1934 -34.5703 L 112.061 -17.4805 C 114.795 -14.1113 118.701 -14.209 121.338 -17.4805 L 135.254 -34.5703 C 138.428 -38.5254 136.865 -43.0176 132.227 -43.0176 L 125 -43.0176 C 121.533 -67.4805 99.8535 -87.6953 72.8516 -87.6953 Z M 13.4277 -27.3926 L 20.7031 -27.3926 C 24.1699 -2.92969 45.8496 17.2852 72.8516 17.2852 C 85.0586 17.2852 96.3379 12.8418 104.688 6.05469 C 108.887 2.83203 109.18 -1.9043 107.129 -5.12695 C 104.932 -8.59375 100.195 -10.1562 95.0195 -6.39648 C 88.9648 -1.61133 81.2012 1.36719 72.8516 1.36719 C 54.541 1.36719 40.1855 -11.6211 36.8652 -27.3926 L 44.4824 -27.3926 C 49.0234 -27.3926 50.7324 -31.8359 47.4609 -35.8398 L 33.6426 -52.9297 C 30.8594 -56.2988 27.002 -56.2012 24.3164 -52.9297 L 10.4492 -35.8398 C 7.22656 -31.8848 8.78906 -27.3926 13.4277 -27.3926 Z"/>
  </g>
  <g id="Black-M" transform="matrix(1 0 0 1 2858.55 1126)">
   <path d="M 74.8535 -88.916 C 62.9883 -88.916 52.0996 -84.8145 43.8477 -78.8086 C 38.9648 -75.1953 38.5254 -69.7754 40.625 -66.0645 C 43.0176 -61.9629 48.4375 -59.8633 54.6875 -64.209 C 60.4004 -68.1152 67.3828 -70.6543 74.8535 -70.6543 C 92.2852 -70.6543 105.762 -58.5449 109.473 -44.2383 L 101.562 -44.2383 C 96.582 -44.2383 94.7754 -39.4043 98.4375 -34.9121 L 113.77 -16.1133 C 116.65 -12.6465 120.85 -12.7441 123.584 -16.1133 L 139.014 -34.9121 C 142.627 -39.3066 140.967 -44.2383 135.889 -44.2383 L 128.125 -44.2383 C 124.219 -68.5547 102.393 -88.916 74.8535 -88.916 Z M 13.8184 -26.1719 L 21.5332 -26.1719 C 25.4395 -1.85547 47.3145 18.5059 74.8535 18.5059 C 86.7188 18.5059 97.6562 14.502 105.859 8.39844 C 110.742 4.83398 111.182 -0.585938 109.033 -4.3457 C 106.689 -8.44727 101.27 -10.5469 94.9707 -6.20117 C 89.3066 -2.19727 82.3242 0.244141 74.8535 0.244141 C 57.4219 0.244141 43.8965 -11.8164 40.1855 -26.1719 L 48.1445 -26.1719 C 53.125 -26.1719 54.9316 -31.0059 51.2695 -35.4492 L 35.8887 -54.2969 C 33.0566 -57.7637 28.8574 -57.6172 26.123 -54.2969 L 10.6934 -35.4492 C 7.08008 -31.0547 8.69141 -26.1719 13.8184 -26.1719 Z"/>
  </g>
  <g id="Ultralight-L" transform="matrix(1 0 0 1 478.29 1556)">
   <path d="M 81.4453 -94.4824 C 63.3301 -94.4824 47.2656 -85.8398 36.084 -73.3887 C 35.5469 -72.7539 35.6934 -71.875 36.2793 -71.3379 C 36.8652 -70.8496 37.6953 -71.0449 38.1836 -71.7285 C 47.9492 -84.1797 64.1602 -91.7969 81.4453 -91.7969 C 111.963 -91.7969 137.012 -67.2852 138.086 -36.9629 L 126.855 -36.9629 C 124.365 -36.9629 123.926 -34.4727 125.195 -32.959 L 135.889 -19.7266 C 137.061 -18.2617 139.014 -18.2617 140.234 -19.7266 L 150.928 -32.959 C 152.148 -34.4727 151.709 -36.9629 149.219 -36.9629 L 140.771 -36.9629 C 139.697 -69.1406 113.428 -94.4824 81.4453 -94.4824 Z M 13.623 -33.2031 L 22.0703 -33.2031 C 23.1445 -1.07422 49.4141 24.3164 81.4453 24.3164 C 99.5117 24.3164 115.967 16.0156 126.758 3.22266 C 127.295 2.58789 127.148 1.66016 126.562 1.17188 C 125.977 0.634766 125.146 0.878906 124.658 1.51367 C 114.551 13.7207 98.7305 21.6309 81.4453 21.6309 C 50.8789 21.6309 25.8301 -2.88086 24.7559 -33.2031 L 35.9863 -33.2031 C 38.4766 -33.2031 38.916 -35.6934 37.6953 -37.2559 L 27.002 -50.4395 C 25.7812 -51.9531 23.8281 -51.9531 22.6562 -50.4395 L 11.9629 -37.2559 C 10.6934 -35.6934 11.1328 -33.2031 13.623 -33.2031 Z"/>
  </g>
  <g id="Thin-L" transform="matrix(1 0 0 1 774.244 1556)">
   <path d="M 82.1777 -95.0684 C 64.209 -95.0684 48.1445 -86.6699 36.9629 -74.3652 C 36.0352 -73.3887 36.2305 -72.0215 37.1094 -71.2402 C 37.9883 -70.459 39.2578 -70.7031 40.0391 -71.6797 C 49.707 -83.6426 65.3809 -90.9668 82.1777 -90.9668 C 112.109 -90.9668 136.572 -67.1875 137.939 -37.5977 L 127.246 -37.5977 C 124.463 -37.5977 123.779 -34.7656 125.244 -32.959 L 136.133 -19.4336 C 137.646 -17.5293 139.941 -17.5293 141.455 -19.4336 L 152.344 -32.959 C 153.809 -34.7656 153.125 -37.5977 150.342 -37.5977 L 142.09 -37.5977 C 140.723 -69.7266 114.258 -95.0684 82.1777 -95.0684 Z M 14.0137 -32.666 L 22.2656 -32.666 C 23.6328 -0.537109 50.0977 24.8535 82.1777 24.8535 C 100.146 24.8535 116.455 16.748 127.393 4.15039 C 128.32 3.125 128.125 1.80664 127.246 1.02539 C 126.367 0.244141 125.098 0.488281 124.316 1.41602 C 114.307 13.1836 98.9746 20.7031 82.1777 20.7031 C 52.2461 20.7031 27.7832 -3.02734 26.416 -32.666 L 37.1094 -32.666 C 39.8926 -32.666 40.5762 -35.4492 39.1113 -37.3047 L 28.2227 -50.8301 C 26.709 -52.7344 24.4141 -52.7344 22.9004 -50.8301 L 12.0117 -37.3047 C 10.5469 -35.4492 11.2305 -32.666 14.0137 -32.666 Z"/>
  </g>
  <g id="Light-L" transform="matrix(1 0 0 1 1069.49 1556)">
   <path d="M 83.6426 -96.2891 C 65.918 -96.2891 50 -88.2812 38.6719 -76.2695 C 37.0605 -74.5605 37.207 -72.3633 38.7207 -71.0449 C 40.1855 -69.7754 42.2852 -70.0684 43.7012 -71.6309 C 53.1738 -82.6172 67.8223 -89.3066 83.6426 -89.3066 C 112.354 -89.3066 135.742 -67.041 137.646 -38.8184 L 128.027 -38.8184 C 124.658 -38.8184 123.486 -35.3516 125.439 -32.959 L 136.621 -18.8477 C 138.818 -16.0645 141.699 -16.0645 143.896 -18.8477 L 155.078 -32.959 C 157.031 -35.3516 155.859 -38.8184 152.49 -38.8184 L 144.629 -38.8184 C 142.725 -70.8496 115.918 -96.2891 83.6426 -96.2891 Z M 14.7949 -31.543 L 22.6562 -31.543 C 24.5605 0.488281 51.3672 25.9277 83.6426 25.9277 C 101.367 25.9277 117.529 18.1641 128.613 5.9082 C 130.225 4.24805 130.078 2.05078 128.564 0.732422 C 127.1 -0.585938 125 -0.244141 123.584 1.26953 C 113.916 12.1582 99.4629 18.9453 83.6426 18.9453 C 54.9316 18.9453 31.543 -3.32031 29.6387 -31.543 L 39.2578 -31.543 C 42.627 -31.543 43.7988 -34.9609 41.8457 -37.4023 L 30.6641 -51.5137 C 28.4668 -54.248 25.5859 -54.248 23.3887 -51.5137 L 12.207 -37.4023 C 10.2539 -34.9609 11.4258 -31.543 14.7949 -31.543 Z"/>
  </g>
  <g id="Regular-L" transform="matrix(1 0 0 1 1365.1 1556)">
   <path d="M 84.7656 -97.168 C 67.2363 -97.168 51.3672 -89.502 39.9902 -77.6855 C 37.793 -75.4883 37.9883 -72.6562 39.9414 -70.8984 C 41.8457 -69.2383 44.5801 -69.6289 46.4355 -71.5332 C 55.7617 -81.8359 69.6289 -88.0371 84.7656 -88.0371 C 112.549 -88.0371 135.156 -66.8945 137.402 -39.6973 L 128.613 -39.6973 C 124.805 -39.6973 123.291 -35.791 125.537 -32.959 L 136.963 -18.4082 C 139.697 -14.9902 143.066 -14.9902 145.752 -18.4082 L 157.178 -32.959 C 159.424 -35.791 157.91 -39.6973 154.15 -39.6973 L 146.533 -39.6973 C 144.238 -71.7285 117.188 -97.168 84.7656 -97.168 Z M 15.3809 -30.7129 L 22.9492 -30.7129 C 25.2441 1.31836 52.3438 26.7578 84.7656 26.7578 C 102.295 26.7578 118.262 19.2383 129.541 7.27539 C 131.689 5.07812 131.543 2.19727 129.59 0.488281 C 127.637 -1.17188 124.951 -0.78125 123.047 1.12305 C 113.574 11.3281 99.8535 17.627 84.7656 17.627 C 56.9824 17.627 34.375 -3.51562 32.0801 -30.7129 L 40.918 -30.7129 C 44.6777 -30.7129 46.1914 -34.6191 43.9453 -37.5 L 32.5195 -52.002 C 29.834 -55.4199 26.4648 -55.4199 23.7305 -52.002 L 12.3047 -37.5 C 10.0586 -34.6191 11.5723 -30.7129 15.3809 -30.7129 Z"/>
  </g>
  <g id="Medium-L" transform="matrix(1 0 0 1 1660.2 1556)">
   <path d="M 86.377 -98.1445 C 69.1406 -98.1445 53.5156 -90.8691 42.1875 -79.541 C 39.4531 -77.002 39.5508 -73.584 41.6504 -71.4355 C 43.75 -69.2383 47.0703 -69.2383 49.7559 -71.6797 C 58.8379 -81.25 72.0215 -87.0117 86.377 -87.0117 C 113.428 -87.0117 135.303 -66.6504 137.939 -40.6738 L 128.955 -40.6738 C 124.805 -40.6738 123.145 -36.4746 125.732 -33.2031 L 138.281 -17.3828 C 141.162 -13.7695 144.824 -13.7695 147.656 -17.3828 L 160.205 -33.2031 C 162.793 -36.4746 161.182 -40.6738 156.982 -40.6738 L 149.121 -40.6738 C 146.436 -72.6074 119.189 -98.1445 86.377 -98.1445 Z M 15.7227 -29.7363 L 23.584 -29.7363 C 26.2695 2.19727 53.5156 27.7344 86.377 27.7344 C 103.564 27.7344 119.336 20.5566 130.518 9.13086 C 133.252 6.5918 133.203 3.17383 131.104 0.976562 C 129.004 -1.17188 125.684 -1.17188 122.949 1.26953 C 113.77 10.7422 100.732 16.6016 86.377 16.6016 C 59.3262 16.6016 37.4512 -3.75977 34.7656 -29.7363 L 43.75 -29.7363 C 47.9004 -29.7363 49.5605 -33.9355 46.9727 -37.2559 L 34.4727 -53.0762 C 31.5918 -56.6895 27.8809 -56.6406 25.0488 -53.0762 L 12.5488 -37.2559 C 9.96094 -33.9844 11.5234 -29.7363 15.7227 -29.7363 Z"/>
  </g>
  <g id="Semibold-L" transform="matrix(1 0 0 1 1955.67 1556)">
   <path d="M 87.5977 -98.9258 C 70.6055 -98.9258 55.127 -91.8945 43.8965 -81.0059 C 40.7227 -78.1738 40.7227 -74.3164 42.9199 -71.8262 C 45.166 -69.2383 48.9746 -68.9453 52.2949 -71.7773 C 61.1816 -80.7617 73.8281 -86.2305 87.5977 -86.2305 C 114.062 -86.2305 135.4 -66.4551 138.33 -41.4551 L 129.248 -41.4551 C 124.805 -41.4551 123.047 -36.9629 125.928 -33.3496 L 139.258 -16.5527 C 142.236 -12.793 146.191 -12.8418 149.121 -16.5527 L 162.5 -33.3496 C 165.332 -36.9629 163.672 -41.4551 159.18 -41.4551 L 151.123 -41.4551 C 148.096 -73.291 120.752 -98.9258 87.5977 -98.9258 Z M 16.0156 -28.9551 L 24.0723 -28.9551 C 27.0508 2.88086 54.4434 28.5156 87.5977 28.5156 C 104.59 28.5156 120.166 21.582 131.25 10.5957 C 134.424 7.76367 134.424 3.85742 132.227 1.36719 C 129.98 -1.17188 126.221 -1.46484 122.852 1.36719 C 113.916 10.3027 101.367 15.8203 87.5977 15.8203 C 61.084 15.8203 39.7949 -3.95508 36.8652 -28.9551 L 45.9473 -28.9551 C 50.3906 -28.9551 52.1484 -33.4473 49.2676 -37.0605 L 35.9375 -53.8574 C 32.9102 -57.6172 29.0039 -57.5684 26.0254 -53.8574 L 12.6953 -37.0605 C 9.81445 -33.4961 11.5234 -28.9551 16.0156 -28.9551 Z"/>
  </g>
  <g id="Bold-L" transform="matrix(1 0 0 1 2250.77 1556)">
   <path d="M 89.209 -99.9512 C 72.5098 -99.9512 57.3242 -93.2617 46.1426 -82.9102 C 42.4316 -79.7363 42.334 -75.2441 44.6777 -72.3145 C 47.0703 -69.2871 51.4648 -68.5547 55.6641 -71.9238 C 64.2578 -80.1758 76.2207 -85.2051 89.209 -85.2051 C 114.941 -85.2051 135.547 -66.2109 138.818 -42.4316 L 129.59 -42.4316 C 124.805 -42.4316 122.9 -37.5977 126.123 -33.5938 L 140.576 -15.5273 C 143.75 -11.5723 147.949 -11.6211 151.074 -15.5273 L 165.576 -33.5938 C 168.75 -37.5977 166.943 -42.4316 162.061 -42.4316 L 153.711 -42.4316 C 150.342 -74.2188 122.803 -99.9512 89.209 -99.9512 Z M 16.3574 -27.9785 L 24.707 -27.9785 C 28.125 3.80859 55.6152 29.541 89.209 29.541 C 105.908 29.541 121.191 22.9492 132.275 12.5 C 136.035 9.32617 136.133 4.83398 133.789 1.9043 C 131.348 -1.17188 126.953 -1.85547 122.754 1.51367 C 114.111 9.7168 102.197 14.7949 89.209 14.7949 C 63.4766 14.7949 42.9199 -4.19922 39.5996 -27.9785 L 48.8281 -27.9785 C 53.6621 -27.9785 55.5176 -32.8125 52.3438 -36.8164 L 37.8906 -54.8828 C 34.7168 -58.8379 30.4688 -58.7891 27.3438 -54.8828 L 12.8906 -36.8164 C 9.7168 -32.8125 11.4746 -27.9785 16.3574 -27.9785 Z"/>
  </g>
  <g id="Heavy-L" transform="matrix(1 0 0 1 2545.11 1556)">
   <path d="M 91.5527 -101.465 C 75.293 -101.465 60.4492 -95.2148 49.4141 -85.6445 C 44.873 -81.9824 44.6289 -76.6113 47.168 -73.0957 C 49.8535 -69.2871 55.127 -68.0176 60.5469 -72.1191 C 68.75 -79.2969 79.6875 -83.6914 91.5527 -83.6914 C 116.211 -83.6914 135.693 -65.918 139.551 -43.8965 L 130.127 -43.8965 C 124.756 -43.8965 122.705 -38.5742 126.416 -33.9844 L 142.432 -14.0137 C 145.898 -9.76562 150.537 -9.81445 153.857 -14.0137 L 169.971 -33.9844 C 173.633 -38.5254 171.68 -43.8965 166.26 -43.8965 L 157.471 -43.8965 C 153.516 -75.5371 125.781 -101.465 91.5527 -101.465 Z M 16.8945 -26.5137 L 25.6836 -26.5137 C 29.6387 5.12695 57.373 31.0547 91.5527 31.0547 C 107.812 31.0547 122.754 24.9023 133.691 15.2344 C 138.281 11.5234 138.525 6.20117 135.986 2.63672 C 133.301 -1.12305 128.027 -2.39258 122.607 1.66016 C 114.355 8.88672 103.467 13.2812 91.5527 13.2812 C 66.9434 13.2812 47.4609 -4.49219 43.6035 -26.5137 L 53.0273 -26.5137 C 58.3496 -26.5137 60.4492 -31.8359 56.7383 -36.4746 L 40.6738 -56.4453 C 37.2559 -60.6934 32.6172 -60.5957 29.248 -56.4453 L 13.1836 -36.4746 C 9.52148 -31.8848 11.4746 -26.5137 16.8945 -26.5137 Z"/>
  </g>
  <g id="Black-L" transform="matrix(1 0 0 1 2839.72 1556)">
   <path d="M 93.7012 -102.783 C 77.832 -102.783 63.2812 -96.9727 52.3438 -88.1348 C 47.0215 -83.9355 46.6797 -77.832 49.4141 -73.7305 C 52.3438 -69.3359 58.3984 -67.5293 64.8926 -72.2656 C 72.7539 -78.5156 82.8125 -82.373 93.7012 -82.373 C 117.285 -82.373 135.84 -65.625 140.088 -45.2148 L 130.615 -45.2148 C 124.756 -45.2148 122.51 -39.4043 126.66 -34.2773 L 144.141 -12.6465 C 147.803 -8.1543 152.832 -8.25195 156.396 -12.6465 L 173.926 -34.2773 C 178.027 -39.3555 175.928 -45.2148 169.971 -45.2148 L 160.84 -45.2148 C 156.396 -76.7578 128.418 -102.783 93.7012 -102.783 Z M 17.3828 -25.2441 L 26.5137 -25.2441 C 30.957 6.29883 58.9844 32.373 93.7012 32.373 C 109.57 32.373 124.121 26.6113 135.01 17.7246 C 140.332 13.5254 140.674 7.42188 137.939 3.32031 C 135.01 -1.12305 128.955 -2.88086 122.461 1.85547 C 114.6 8.1543 104.541 11.9629 93.7012 11.9629 C 70.0684 11.9629 51.5137 -4.78516 47.2656 -25.2441 L 56.7383 -25.2441 C 62.5977 -25.2441 64.8438 -31.0059 60.6934 -36.1328 L 43.2129 -57.7637 C 39.5508 -62.3047 34.5215 -62.1582 30.957 -57.7637 L 13.4277 -36.1328 C 9.32617 -31.0547 11.4258 -25.2441 17.3828 -25.2441 Z"/>
  </g>
 </g>
</svg>
