<?xml version="1.0" encoding="UTF-8"?>
<!--Generator: Apple Native CoreSVG 123-->
<!DOCTYPE svg
PUBLIC "-//W3C//DTD SVG 1.1//EN"
       "http://www.w3.org/Graphics/SVG/1.1/DTD/svg11.dtd">
<svg version="1.1" xmlns="http://www.w3.org/2000/svg" xmlns:xlink="http://www.w3.org/1999/xlink" width="3300" height="2200">
 <!--glyph: "uni100189.medium", point size: 100.000000, font version: "Version 15.0d4e20", template writer version: "2"-->
 <g id="Notes">
  <rect height="2200" id="artboard" style="fill:white;opacity:1" width="3300" x="0" y="0"/>
  <line id="" style="fill:none;stroke:black;opacity:1;stroke-width:0.5;" x1="263" x2="3036" y1="292" y2="292"/>
  <text style="stroke:none;fill:black;font-family:-apple-system,&quot;SF Pro Display&quot;,&quot;SF Pro Text&quot;,Helvetica,sans-serif;font-weight:bold;" transform="matrix(1 0 0 1 263 322)">Weight/Scale Variations</text>
  <text style="stroke:none;fill:black;font-family:-apple-system,&quot;SF Pro Display&quot;,&quot;SF Pro Text&quot;,Helvetica,sans-serif;text-anchor:middle;" transform="matrix(1 0 0 1 559.711 322)">Ultralight</text>
  <text style="stroke:none;fill:black;font-family:-apple-system,&quot;SF Pro Display&quot;,&quot;SF Pro Text&quot;,Helvetica,sans-serif;text-anchor:middle;" transform="matrix(1 0 0 1 856.422 322)">Thin</text>
  <text style="stroke:none;fill:black;font-family:-apple-system,&quot;SF Pro Display&quot;,&quot;SF Pro Text&quot;,Helvetica,sans-serif;text-anchor:middle;" transform="matrix(1 0 0 1 1153.13 322)">Light</text>
  <text style="stroke:none;fill:black;font-family:-apple-system,&quot;SF Pro Display&quot;,&quot;SF Pro Text&quot;,Helvetica,sans-serif;text-anchor:middle;" transform="matrix(1 0 0 1 1449.84 322)">Regular</text>
  <text style="stroke:none;fill:black;font-family:-apple-system,&quot;SF Pro Display&quot;,&quot;SF Pro Text&quot;,Helvetica,sans-serif;text-anchor:middle;" transform="matrix(1 0 0 1 1746.56 322)">Medium</text>
  <text style="stroke:none;fill:black;font-family:-apple-system,&quot;SF Pro Display&quot;,&quot;SF Pro Text&quot;,Helvetica,sans-serif;text-anchor:middle;" transform="matrix(1 0 0 1 2043.27 322)">Semibold</text>
  <text style="stroke:none;fill:black;font-family:-apple-system,&quot;SF Pro Display&quot;,&quot;SF Pro Text&quot;,Helvetica,sans-serif;text-anchor:middle;" transform="matrix(1 0 0 1 2339.98 322)">Bold</text>
  <text style="stroke:none;fill:black;font-family:-apple-system,&quot;SF Pro Display&quot;,&quot;SF Pro Text&quot;,Helvetica,sans-serif;text-anchor:middle;" transform="matrix(1 0 0 1 2636.69 322)">Heavy</text>
  <text style="stroke:none;fill:black;font-family:-apple-system,&quot;SF Pro Display&quot;,&quot;SF Pro Text&quot;,Helvetica,sans-serif;text-anchor:middle;" transform="matrix(1 0 0 1 2933.4 322)">Black</text>
  <line id="" style="fill:none;stroke:black;opacity:1;stroke-width:0.5;" x1="263" x2="3036" y1="1903" y2="1903"/>
  <g id="" transform="matrix(1 0 0 1 263 1933)">
   <path d="M 9.24805 0.830078 C 13.5547 0.830078 17.1387 -2.74414 17.1387 -7.05078 C 17.1387 -11.3574 13.5449 -14.9316 9.23828 -14.9316 C 4.94141 -14.9316 1.36719 -11.3574 1.36719 -7.05078 C 1.36719 -2.74414 4.95117 0.830078 9.24805 0.830078 Z M 9.24805 -0.654297 C 5.70312 -0.654297 2.87109 -3.49609 2.87109 -7.05078 C 2.87109 -10.6055 5.69336 -13.4473 9.23828 -13.4473 C 12.793 -13.4473 15.6348 -10.6055 15.6445 -7.05078 C 15.6543 -3.49609 12.8027 -0.654297 9.24805 -0.654297 Z M 9.22852 -3.42773 C 9.69727 -3.42773 9.9707 -3.74023 9.9707 -4.25781 L 9.9707 -6.31836 L 12.1973 -6.31836 C 12.6953 -6.31836 13.0371 -6.57227 13.0371 -7.04102 C 13.0371 -7.51953 12.7148 -7.7832 12.1973 -7.7832 L 9.9707 -7.7832 L 9.9707 -10.0098 C 9.9707 -10.5273 9.69727 -10.8496 9.22852 -10.8496 C 8.75977 -10.8496 8.50586 -10.5078 8.50586 -10.0098 L 8.50586 -7.7832 L 6.29883 -7.7832 C 5.78125 -7.7832 5.44922 -7.51953 5.44922 -7.04102 C 5.44922 -6.57227 5.80078 -6.31836 6.29883 -6.31836 L 8.50586 -6.31836 L 8.50586 -4.25781 C 8.50586 -3.75977 8.75977 -3.42773 9.22852 -3.42773 Z"/>
  </g>
  <g id="" transform="matrix(1 0 0 1 281.506 1933)">
   <path d="M 11.709 2.91016 C 17.1484 2.91016 21.6699 -1.60156 21.6699 -7.05078 C 21.6699 -12.4902 17.1387 -17.0117 11.6992 -17.0117 C 6.25 -17.0117 1.74805 -12.4902 1.74805 -7.05078 C 1.74805 -1.60156 6.25977 2.91016 11.709 2.91016 Z M 11.709 1.25 C 7.09961 1.25 3.41797 -2.44141 3.41797 -7.05078 C 3.41797 -11.6504 7.08984 -15.3516 11.6992 -15.3516 C 16.2988 -15.3516 20 -11.6504 20.0098 -7.05078 C 20.0195 -2.44141 16.3086 1.25 11.709 1.25 Z M 11.6797 -2.41211 C 12.207 -2.41211 12.5195 -2.77344 12.5195 -3.33984 L 12.5195 -6.23047 L 15.5762 -6.23047 C 16.123 -6.23047 16.5039 -6.51367 16.5039 -7.03125 C 16.5039 -7.55859 16.1426 -7.86133 15.5762 -7.86133 L 12.5195 -7.86133 L 12.5195 -10.9277 C 12.5195 -11.5039 12.207 -11.8555 11.6797 -11.8555 C 11.1621 -11.8555 10.8789 -11.4844 10.8789 -10.9277 L 10.8789 -7.86133 L 7.83203 -7.86133 C 7.25586 -7.86133 6.89453 -7.55859 6.89453 -7.03125 C 6.89453 -6.51367 7.28516 -6.23047 7.83203 -6.23047 L 10.8789 -6.23047 L 10.8789 -3.33984 C 10.8789 -2.79297 11.1621 -2.41211 11.6797 -2.41211 Z"/>
  </g>
  <g id="" transform="matrix(1 0 0 1 304.914 1933)">
   <path d="M 14.9707 5.67383 C 21.9336 5.67383 27.6855 -0.078125 27.6855 -7.04102 C 27.6855 -14.0039 21.9238 -19.7559 14.9609 -19.7559 C 7.99805 -19.7559 2.25586 -14.0039 2.25586 -7.04102 C 2.25586 -0.078125 8.00781 5.67383 14.9707 5.67383 Z M 14.9707 3.85742 C 8.92578 3.85742 4.08203 -1.00586 4.08203 -7.04102 C 4.08203 -13.0762 8.91602 -17.9395 14.9609 -17.9395 C 20.9961 -17.9395 25.8594 -13.0762 25.8691 -7.04102 C 25.8789 -1.00586 21.0059 3.85742 14.9707 3.85742 Z M 14.9414 -1.06445 C 15.5176 -1.06445 15.8594 -1.45508 15.8594 -2.06055 L 15.8594 -6.13281 L 20.0977 -6.13281 C 20.6934 -6.13281 21.1133 -6.46484 21.1133 -7.02148 C 21.1133 -7.59766 20.7227 -7.93945 20.0977 -7.93945 L 15.8594 -7.93945 L 15.8594 -12.1875 C 15.8594 -12.8027 15.5176 -13.1934 14.9414 -13.1934 C 14.3848 -13.1934 14.0625 -12.7832 14.0625 -12.1875 L 14.0625 -7.93945 L 9.82422 -7.93945 C 9.20898 -7.93945 8.80859 -7.59766 8.80859 -7.02148 C 8.80859 -6.46484 9.23828 -6.13281 9.82422 -6.13281 L 14.0625 -6.13281 L 14.0625 -2.06055 C 14.0625 -1.47461 14.3848 -1.06445 14.9414 -1.06445 Z"/>
  </g>
  <text style="stroke:none;fill:black;font-family:-apple-system,&quot;SF Pro Display&quot;,&quot;SF Pro Text&quot;,Helvetica,sans-serif;font-weight:bold;" transform="matrix(1 0 0 1 263 1953)">Design Variations</text>
  <text style="stroke:none;fill:black;font-family:-apple-system,&quot;SF Pro Display&quot;,&quot;SF Pro Text&quot;,Helvetica,sans-serif;" transform="matrix(1 0 0 1 263 1971)">Symbols are supported in up to nine weights and three scales.</text>
  <text style="stroke:none;fill:black;font-family:-apple-system,&quot;SF Pro Display&quot;,&quot;SF Pro Text&quot;,Helvetica,sans-serif;" transform="matrix(1 0 0 1 263 1989)">For optimal layout with text and other symbols, vertically align</text>
  <text style="stroke:none;fill:black;font-family:-apple-system,&quot;SF Pro Display&quot;,&quot;SF Pro Text&quot;,Helvetica,sans-serif;" transform="matrix(1 0 0 1 263 2007)">symbols with the adjacent text.</text>
  <rect height="14" id="" style="fill:#00AEEF;stroke:none;opacity:0.4;" width="3" x="776" y="1919"/>
  <g id="" transform="matrix(1 0 0 1 779 1933)">
   <path d="M 10.5273 0 L 12.373 0 L 7.17773 -14.0918 L 5.43945 -14.0918 L 0.244141 0 L 2.08984 0 L 3.50586 -4.0332 L 9.11133 -4.0332 Z M 6.2793 -11.9531 L 6.33789 -11.9531 L 8.59375 -5.52734 L 4.02344 -5.52734 Z"/>
  </g>
  <rect height="14" id="" style="fill:#00AEEF;stroke:none;opacity:0.4;" width="3" x="791.617" y="1919"/>
  <text style="stroke:none;fill:black;font-family:-apple-system,&quot;SF Pro Display&quot;,&quot;SF Pro Text&quot;,Helvetica,sans-serif;font-weight:bold;" transform="matrix(1 0 0 1 776 1953)">Side Bearings</text>
  <text style="stroke:none;fill:black;font-family:-apple-system,&quot;SF Pro Display&quot;,&quot;SF Pro Text&quot;,Helvetica,sans-serif;" transform="matrix(1 0 0 1 776 1971)">Horizontal padding on the left and right side of each symbol</text>
  <text style="stroke:none;fill:black;font-family:-apple-system,&quot;SF Pro Display&quot;,&quot;SF Pro Text&quot;,Helvetica,sans-serif;" transform="matrix(1 0 0 1 776 1989)">can be adjusted by modifying the width of the blue rectangles.</text>
  <text style="stroke:none;fill:black;font-family:-apple-system,&quot;SF Pro Display&quot;,&quot;SF Pro Text&quot;,Helvetica,sans-serif;" transform="matrix(1 0 0 1 776 2007)">Modifications are automatically applied proportionally to all</text>
  <text style="stroke:none;fill:black;font-family:-apple-system,&quot;SF Pro Display&quot;,&quot;SF Pro Text&quot;,Helvetica,sans-serif;" transform="matrix(1 0 0 1 776 2025)">scales and weights.</text>
  <g id="" transform="matrix(1 0 0 1 1289 1933)">
   <path d="M 2.96875 2.35352 L 3.80859 3.19336 C 4.84375 4.22852 6.12305 4.15039 7.19727 2.97852 L 16.1621 -6.82617 C 16.5527 -6.74805 16.9629 -6.8457 17.4902 -7.02148 C 18.1738 -7.25586 18.2715 -7.25586 18.3887 -7.13867 C 18.5352 -7.01172 18.4863 -6.89453 18.2422 -6.25 C 17.8809 -5.33203 17.8125 -4.79492 18.5547 -4.02344 L 19.4238 -3.13477 C 20.2734 -2.24609 21.3281 -2.26562 22.2168 -3.14453 L 25.0586 -5.97656 C 25.9473 -6.86523 25.957 -7.92969 25.0781 -8.7793 L 24.1797 -9.64844 C 23.4082 -10.4004 22.8711 -10.3516 21.9629 -9.98047 C 21.3184 -9.72656 21.2012 -9.6875 21.0645 -9.81445 C 20.9375 -9.93164 20.9473 -10.0391 21.1816 -10.7129 C 21.5332 -11.6895 21.5723 -12.2852 20.752 -13.0957 L 19.3359 -14.5117 C 15.1953 -18.6133 11.2305 -18.7402 7.65625 -15.4395 C 7.08008 -14.9023 6.99219 -14.1504 7.53906 -13.6133 L 7.79297 -13.3594 C 8.22266 -12.9297 8.86719 -12.8418 9.41406 -13.1152 C 11.0645 -13.9453 12.2559 -14.0234 13.457 -12.9785 L 13.0273 -11.416 C 12.8516 -10.8008 12.793 -10.3418 12.9199 -9.93164 L 3.18359 -1.04492 C 2.02148 0.0292969 1.93359 1.32812 2.96875 2.35352 Z M 8.96484 -14.4922 C 8.89648 -14.5703 8.86719 -14.6582 8.99414 -14.7559 C 11.709 -17.2852 15.0391 -16.8457 18.3496 -13.5254 L 19.6973 -12.168 C 20.0879 -11.7773 20.0977 -11.582 19.8828 -10.8691 C 19.6582 -10.127 19.502 -9.53125 20.1465 -8.88672 C 20.8105 -8.22266 21.2891 -8.41797 22.207 -8.63281 C 22.9004 -8.79883 23.0664 -8.79883 23.4473 -8.41797 L 24.0918 -7.77344 C 24.4043 -7.48047 24.4141 -7.32422 24.0723 -6.97266 L 21.2207 -4.13086 C 20.8887 -3.79883 20.7227 -3.79883 20.4297 -4.10156 L 19.7852 -4.75586 C 19.4141 -5.13672 19.4141 -5.30273 19.5801 -6.01562 C 19.7852 -6.88477 19.9805 -7.38281 19.3262 -8.04688 C 18.6719 -8.7207 18.0762 -8.57422 17.3438 -8.33008 C 16.5625 -8.06641 16.3281 -8.06641 15.8984 -8.49609 L 14.6094 -9.78516 C 14.1699 -10.2246 14.1309 -10.4395 14.2676 -10.9082 L 15.0293 -13.3984 C 13.3887 -15.2832 11.4941 -15.5566 9.20898 -14.4434 C 9.11133 -14.3945 9.04297 -14.4141 8.96484 -14.4922 Z M 3.96484 1.36719 C 3.52539 0.927734 3.54492 0.537109 4.14062 -0.00976562 L 13.7402 -8.81836 L 15 -7.55859 L 6.17188 2.02148 C 5.625 2.60742 5.24414 2.64648 4.79492 2.19727 Z"/>
  </g>
  <text style="stroke:none;fill:black;font-family:-apple-system,&quot;SF Pro Display&quot;,&quot;SF Pro Text&quot;,Helvetica,sans-serif;font-weight:bold;" transform="matrix(1 0 0 1 1289 1953)">Exporting</text>
  <text style="stroke:none;fill:black;font-family:-apple-system,&quot;SF Pro Display&quot;,&quot;SF Pro Text&quot;,Helvetica,sans-serif;" transform="matrix(1 0 0 1 1289 1971)">Symbols should be outlined when exporting to ensure the</text>
  <text style="stroke:none;fill:black;font-family:-apple-system,&quot;SF Pro Display&quot;,&quot;SF Pro Text&quot;,Helvetica,sans-serif;" transform="matrix(1 0 0 1 1289 1989)">design is preserved when submitting to Xcode.</text>
  <text id="template-version" style="stroke:none;fill:black;font-family:-apple-system,&quot;SF Pro Display&quot;,&quot;SF Pro Text&quot;,Helvetica,sans-serif;text-anchor:end;" transform="matrix(1 0 0 1 3036 1933)">Template v.0.1</text>
  <text style="stroke:none;fill:black;font-family:-apple-system,&quot;SF Pro Display&quot;,&quot;SF Pro Text&quot;,Helvetica,sans-serif;text-anchor:end;" transform="matrix(1 0 0 1 3036 1951)">Generated from chevron.left</text>
  <text style="stroke:none;fill:black;font-family:-apple-system,&quot;SF Pro Display&quot;,&quot;SF Pro Text&quot;,Helvetica,sans-serif;text-anchor:end;" transform="matrix(1 0 0 1 3036 1969)">Typeset at 100 points</text>
  <text style="stroke:none;fill:black;font-family:-apple-system,&quot;SF Pro Display&quot;,&quot;SF Pro Text&quot;,Helvetica,sans-serif;" transform="matrix(1 0 0 1 263 726)">Small</text>
  <text style="stroke:none;fill:black;font-family:-apple-system,&quot;SF Pro Display&quot;,&quot;SF Pro Text&quot;,Helvetica,sans-serif;" transform="matrix(1 0 0 1 263 1156)">Medium</text>
  <text style="stroke:none;fill:black;font-family:-apple-system,&quot;SF Pro Display&quot;,&quot;SF Pro Text&quot;,Helvetica,sans-serif;" transform="matrix(1 0 0 1 263 1586)">Large</text>
 </g>
 <g id="Guides">
  <g id="H-reference" style="fill:#27AAE1;stroke:none;" transform="matrix(1 0 0 1 339 696)">
   <path d="M 54.9316 0 L 57.666 0 L 30.5664 -70.459 L 28.0762 -70.459 L 0.976562 0 L 3.66211 0 L 12.9395 -24.4629 L 45.7031 -24.4629 Z M 29.1992 -67.0898 L 29.4434 -67.0898 L 44.8242 -26.709 L 13.8184 -26.709 Z"/>
  </g>
  <line id="Baseline-S" style="fill:none;stroke:#27AAE1;opacity:1;stroke-width:0.577;" x1="263" x2="3036" y1="696" y2="696"/>
  <line id="Capline-S" style="fill:none;stroke:#27AAE1;opacity:1;stroke-width:0.577;" x1="263" x2="3036" y1="625.541" y2="625.541"/>
  <g id="H-reference" style="fill:#27AAE1;stroke:none;" transform="matrix(1 0 0 1 339 1126)">
   <path d="M 54.9316 0 L 57.666 0 L 30.5664 -70.459 L 28.0762 -70.459 L 0.976562 0 L 3.66211 0 L 12.9395 -24.4629 L 45.7031 -24.4629 Z M 29.1992 -67.0898 L 29.4434 -67.0898 L 44.8242 -26.709 L 13.8184 -26.709 Z"/>
  </g>
  <line id="Baseline-M" style="fill:none;stroke:#27AAE1;opacity:1;stroke-width:0.577;" x1="263" x2="3036" y1="1126" y2="1126"/>
  <line id="Capline-M" style="fill:none;stroke:#27AAE1;opacity:1;stroke-width:0.577;" x1="263" x2="3036" y1="1055.54" y2="1055.54"/>
  <g id="H-reference" style="fill:#27AAE1;stroke:none;" transform="matrix(1 0 0 1 339 1556)">
   <path d="M 54.9316 0 L 57.666 0 L 30.5664 -70.459 L 28.0762 -70.459 L 0.976562 0 L 3.66211 0 L 12.9395 -24.4629 L 45.7031 -24.4629 Z M 29.1992 -67.0898 L 29.4434 -67.0898 L 44.8242 -26.709 L 13.8184 -26.709 Z"/>
  </g>
  <line id="Baseline-L" style="fill:none;stroke:#27AAE1;opacity:1;stroke-width:0.577;" x1="263" x2="3036" y1="1556" y2="1556"/>
  <line id="Capline-L" style="fill:none;stroke:#27AAE1;opacity:1;stroke-width:0.577;" x1="263" x2="3036" y1="1485.54" y2="1485.54"/>
  <rect height="119.336" id="left-margin" style="fill:#00AEEF;stroke:none;opacity:0.4;" width="12.4512" x="1413.49" y="1030.79"/>
  <rect height="119.336" id="right-margin" style="fill:#00AEEF;stroke:none;opacity:0.4;" width="12.5" x="1473.7" y="1030.79"/>
 </g>
 <g id="Symbols">
  <g id="Ultralight-S" transform="matrix(1 0 0 1 533.197 696)">
   <path d="M 41.3086 -6.20117 C 41.5527 -5.95703 41.7969 -5.76172 42.1387 -5.76172 C 42.7734 -5.76172 43.2617 -6.25 43.2617 -6.88477 C 43.2617 -7.17773 43.2129 -7.51953 42.9688 -7.66602 L 12.5488 -35.3027 L 42.9688 -62.8418 C 43.2129 -63.0371 43.2617 -63.3789 43.2617 -63.6719 C 43.2617 -64.3066 42.7734 -64.7949 42.1387 -64.7949 C 41.7969 -64.7949 41.6016 -64.6484 41.3574 -64.4043 L 10.4492 -36.4746 C 10.0586 -36.084 9.76562 -35.7422 9.76562 -35.2539 C 9.76562 -34.7656 10.0098 -34.4727 10.4004 -34.082 Z"/>
  </g>
  <g id="Thin-S" transform="matrix(1 0 0 1 829.371 696)">
   <path d="M 41.2598 -5.32227 C 41.6504 -4.98047 42.041 -4.73633 42.5781 -4.73633 C 43.5547 -4.73633 44.3359 -5.51758 44.3359 -6.49414 C 44.3359 -6.98242 44.1895 -7.4707 43.8477 -7.76367 L 14.1602 -35.3027 L 43.8477 -62.7441 C 44.1895 -63.0859 44.3359 -63.5742 44.3359 -64.0137 C 44.3359 -65.0391 43.5547 -65.8203 42.5781 -65.8203 C 42.041 -65.8203 41.6992 -65.5762 41.3086 -65.2344 L 10.5469 -36.8652 C 10.1074 -36.4258 9.76562 -35.8887 9.76562 -35.2539 C 9.76562 -34.6191 10.0586 -34.1797 10.5469 -33.6914 Z"/>
  </g>
  <g id="Light-S" transform="matrix(1 0 0 1 1125.01 696)">
   <path d="M 41.2109 -3.66211 C 41.7969 -3.07617 42.5293 -2.73438 43.4082 -2.73438 C 45.1172 -2.73438 46.4844 -4.05273 46.4844 -5.76172 C 46.4844 -6.64062 46.1426 -7.37305 45.6055 -7.95898 L 17.2852 -35.2539 L 45.6055 -62.5488 C 46.1426 -63.1348 46.4844 -63.916 46.4844 -64.7461 C 46.4844 -66.5039 45.1172 -67.8223 43.4082 -67.8223 C 42.5293 -67.8223 41.8457 -67.4805 41.2109 -66.8945 L 10.791 -37.5977 C 10.1562 -36.9629 9.76562 -36.1328 9.76562 -35.2539 C 9.76562 -34.375 10.1562 -33.5938 10.791 -32.959 Z"/>
  </g>
  <g id="Regular-S" transform="matrix(1 0 0 1 1420.94 696)">
   <path d="M 41.1621 -2.39258 C 41.9434 -1.61133 42.9199 -1.17188 44.043 -1.17188 C 46.3379 -1.17188 48.0469 -2.92969 48.0469 -5.22461 C 48.0469 -6.34766 47.6074 -7.32422 46.875 -8.10547 L 19.6289 -35.2539 L 46.875 -62.4023 C 47.6074 -63.1836 48.0469 -64.209 48.0469 -65.2832 C 48.0469 -67.5781 46.3379 -69.3359 44.043 -69.3359 C 42.9199 -69.3359 41.9434 -68.8965 41.1621 -68.1641 L 10.9863 -38.1348 C 10.2051 -37.4023 9.76562 -36.3281 9.76562 -35.2539 C 9.76562 -34.1797 10.2051 -33.2031 10.9863 -32.373 Z"/>
  </g>
  <g id="Medium-S" transform="matrix(1 0 0 1 1716.72 696)">
   <path d="M 41.0645 -2.00195 C 42.041 -1.02539 43.2617 -0.488281 44.6777 -0.488281 C 47.6074 -0.488281 49.9023 -2.7832 49.9023 -5.71289 C 49.9023 -7.12891 49.3164 -8.44727 48.291 -9.47266 L 22.2168 -35.2539 L 48.291 -61.0352 C 49.3164 -62.0605 49.9023 -63.4277 49.9023 -64.7949 C 49.9023 -67.7246 47.6074 -69.9707 44.6777 -69.9707 C 43.2617 -69.9707 42.041 -69.4824 41.0645 -68.5059 L 11.5234 -39.2578 C 10.3516 -38.1348 9.76562 -36.7676 9.76562 -35.2539 C 9.76562 -33.7402 10.3516 -32.4219 11.5234 -31.25 Z"/>
  </g>
  <g id="Semibold-S" transform="matrix(1 0 0 1 2012.7 696)">
   <path d="M 40.9668 -1.70898 C 42.1875 -0.585938 43.5547 0 45.2148 0 C 48.6328 0 51.3672 -2.68555 51.3672 -6.05469 C 51.3672 -7.76367 50.6348 -9.27734 49.4141 -10.498 L 24.1699 -35.3027 L 49.4141 -60.0098 C 50.6348 -61.2305 51.3672 -62.793 51.3672 -64.4531 C 51.3672 -67.8223 48.6328 -70.5078 45.2148 -70.5078 C 43.5547 -70.5078 42.1387 -69.9219 40.9668 -68.7988 L 11.9629 -40.1367 C 10.498 -38.7207 9.76562 -37.1094 9.76562 -35.2539 C 9.76562 -33.3984 10.4492 -31.8848 11.9629 -30.3711 Z"/>
  </g>
  <g id="Bold-S" transform="matrix(1 0 0 1 2308.48 696)">
   <path d="M 40.8691 -1.31836 C 42.2852 0.0488281 43.9453 0.732422 45.8984 0.732422 C 49.9023 0.732422 53.2227 -2.53906 53.2227 -6.49414 C 53.2227 -8.54492 52.3926 -10.4004 50.8301 -11.9141 L 26.8066 -35.3027 L 50.8301 -58.5938 C 52.3926 -60.1074 53.2227 -62.0117 53.2227 -63.9648 C 53.2227 -67.9199 49.9023 -71.1914 45.8984 -71.1914 C 43.8965 -71.1914 42.2852 -70.5566 40.8691 -69.1406 L 12.5 -41.3086 C 10.6445 -39.4043 9.81445 -37.5977 9.76562 -35.2539 C 9.76562 -32.959 10.5957 -31.1035 12.5 -29.1992 Z"/>
  </g>
  <g id="Heavy-S" transform="matrix(1 0 0 1 2603.83 696)">
   <path d="M 40.7227 -0.78125 C 42.5293 0.927734 44.4824 1.70898 46.875 1.70898 C 51.8066 1.70898 55.957 -2.34375 55.957 -7.17773 C 55.957 -9.7168 54.8828 -12.0117 52.9297 -13.916 L 30.5664 -35.3027 L 52.9297 -56.5918 C 54.9316 -58.4961 55.957 -60.791 55.957 -63.2812 C 55.957 -68.1152 51.8066 -72.168 46.875 -72.168 C 44.4336 -72.168 42.4805 -71.4355 40.7227 -69.6777 L 13.3301 -42.9688 C 10.8887 -40.4785 9.81445 -38.2324 9.76562 -35.2539 C 9.76562 -32.3242 10.8398 -30.0293 13.3301 -27.5391 Z"/>
  </g>
  <g id="Black-S" transform="matrix(1 0 0 1 2899.32 696)">
   <path d="M 40.625 -0.292969 C 42.6758 1.70898 44.9707 2.63672 47.7539 2.63672 C 53.5156 2.63672 58.3984 -2.19727 58.3984 -7.8125 C 58.3984 -10.7422 57.1289 -13.4277 54.7852 -15.7227 L 33.9355 -35.3516 L 54.7852 -54.7852 C 57.2266 -57.0801 58.3984 -59.7656 58.3984 -62.6465 C 58.3984 -68.2617 53.5156 -73.0957 47.7539 -73.0957 C 44.9219 -73.0957 42.627 -72.2168 40.625 -70.166 L 14.0137 -44.4824 C 11.084 -41.4551 9.81445 -38.8184 9.76562 -35.2539 C 9.76562 -31.7383 11.0352 -29.0527 14.0137 -26.0254 Z"/>
  </g>
  <g id="Ultralight-M" transform="matrix(1 0 0 1 526.069 1126)">
   <path d="M 52.7344 1.51367 C 53.0273 1.70898 53.2715 1.95312 53.6133 1.95312 C 54.2969 1.95312 54.7852 1.46484 54.7852 0.78125 C 54.7852 0.488281 54.7363 0.146484 54.4922 -0.0488281 L 15.3809 -35.3027 L 54.4922 -70.459 C 54.7363 -70.7031 54.7852 -71.0938 54.7852 -71.3867 C 54.7852 -72.0215 54.2969 -72.5586 53.6133 -72.5586 C 53.2715 -72.5586 53.0762 -72.3633 52.7832 -72.1191 L 13.2812 -36.6699 C 12.8418 -36.2305 12.4512 -35.791 12.4512 -35.2539 C 12.4512 -34.7168 12.793 -34.375 13.1836 -33.9355 Z"/>
  </g>
  <g id="Thin-M" transform="matrix(1 0 0 1 822.169 1126)">
   <path d="M 52.6855 2.49023 C 53.125 2.83203 53.5645 3.125 54.1016 3.125 C 55.1758 3.125 56.0547 2.29492 56.0547 1.2207 C 56.0547 0.732422 55.8594 0.195312 55.5176 -0.146484 L 17.2363 -35.3027 L 55.5176 -70.3613 C 55.8594 -70.752 56.0547 -71.2891 56.0547 -71.7773 C 56.0547 -72.8516 55.1758 -73.7305 54.1016 -73.7305 C 53.5645 -73.7305 53.1738 -73.4863 52.7344 -73.0957 L 13.4277 -37.1094 C 12.8906 -36.5723 12.4512 -35.9863 12.4512 -35.2539 C 12.4512 -34.5703 12.8418 -34.0332 13.3789 -33.4961 Z"/>
  </g>
  <g id="Light-M" transform="matrix(1 0 0 1 1117.68 1126)">
   <path d="M 52.6367 4.39453 C 53.2715 5.0293 54.1016 5.41992 55.0293 5.41992 C 56.9336 5.41992 58.3984 3.95508 58.3984 2.05078 C 58.3984 1.12305 58.0566 0.244141 57.4707 -0.341797 L 20.752 -35.3027 L 57.4707 -70.166 C 58.0566 -70.8008 58.3984 -71.7285 58.3984 -72.6074 C 58.3984 -74.5117 56.9336 -75.9766 55.0293 -75.9766 C 54.1016 -75.9766 53.3203 -75.5859 52.6367 -74.9512 L 13.6719 -37.9395 C 12.9395 -37.207 12.4512 -36.2793 12.4512 -35.2539 C 12.4512 -34.2285 12.8906 -33.3984 13.6719 -32.6172 Z"/>
  </g>
  <g id="Regular-M" transform="matrix(1 0 0 1 1413.49 1126)">
   <path d="M 52.5879 5.81055 C 53.418 6.64062 54.4922 7.12891 55.7617 7.12891 C 58.3008 7.12891 60.2051 5.22461 60.2051 2.68555 C 60.2051 1.46484 59.7168 0.341797 58.9355 -0.488281 L 23.3887 -35.2539 L 58.9355 -70.0195 C 59.7168 -70.8496 60.2051 -72.0215 60.2051 -73.1934 C 60.2051 -75.7324 58.3008 -77.6855 55.7617 -77.6855 C 54.4922 -77.6855 53.418 -77.1973 52.5879 -76.3672 L 13.916 -38.5254 C 12.9883 -37.7441 12.4512 -36.5234 12.4512 -35.2539 C 12.4512 -34.0332 12.9883 -32.9102 13.916 -31.9824 Z"/>
  </g>
  <g id="Medium-M" transform="matrix(1 0 0 1 1709.15 1126)">
   <path d="M 52.4902 6.39648 C 53.5645 7.4707 54.9316 8.05664 56.543 8.05664 C 59.7656 8.05664 62.3535 5.51758 62.3535 2.29492 C 62.3535 0.683594 61.6699 -0.78125 60.5469 -1.9043 L 26.3672 -35.3027 L 60.5469 -68.6035 C 61.6699 -69.7266 62.3535 -71.2402 62.3535 -72.8027 C 62.3535 -76.0254 59.7656 -78.5645 56.543 -78.5645 C 54.9316 -78.5645 53.5645 -77.9785 52.4902 -76.9043 L 14.502 -39.7949 C 13.1348 -38.5254 12.5 -36.9629 12.4512 -35.2539 C 12.4512 -33.5449 13.1348 -32.0801 14.502 -30.7617 Z"/>
  </g>
  <g id="Semibold-M" transform="matrix(1 0 0 1 2005.06 1126)">
   <path d="M 52.3926 6.78711 C 53.7109 8.05664 55.2734 8.74023 57.1289 8.74023 C 60.9375 8.74023 63.9648 5.71289 63.9648 1.95312 C 63.9648 0.0976562 63.1836 -1.66016 61.8164 -2.97852 L 28.6133 -35.3027 L 61.8164 -67.5293 C 63.1836 -68.8965 63.9648 -70.6543 63.9648 -72.4609 C 63.9648 -76.2207 60.9375 -79.248 57.1289 -79.248 C 55.2246 -79.248 53.7109 -78.6133 52.3926 -77.3438 L 14.9414 -40.7227 C 13.2812 -39.1113 12.5 -37.3535 12.4512 -35.2539 C 12.4512 -33.2031 13.2324 -31.4453 14.9414 -29.7852 Z"/>
  </g>
  <g id="Bold-M" transform="matrix(1 0 0 1 2300.7 1126)">
   <path d="M 52.2949 7.37305 C 53.8574 8.88672 55.7129 9.66797 57.9102 9.66797 C 62.4023 9.66797 66.1133 6.00586 66.1133 1.5625 C 66.1133 -0.683594 65.1367 -2.7832 63.4766 -4.44336 L 31.6406 -35.3027 L 63.4766 -66.0645 C 65.1855 -67.7734 66.1133 -69.873 66.1133 -72.0703 C 66.1133 -76.5137 62.4023 -80.1758 57.9102 -80.1758 C 55.6641 -80.1758 53.8574 -79.4434 52.2949 -77.8809 L 15.5273 -41.9922 C 13.4766 -39.9414 12.5 -37.8418 12.4512 -35.2539 C 12.4512 -32.7148 13.4277 -30.6152 15.5273 -28.5156 Z"/>
  </g>
  <g id="Heavy-M" transform="matrix(1 0 0 1 2595.84 1126)">
   <path d="M 52.0996 8.20312 C 54.1016 10.0586 56.3477 10.9863 59.0332 10.9863 C 64.5996 10.9863 69.1895 6.44531 69.1895 0.976562 C 69.1895 -1.80664 68.0176 -4.39453 65.8691 -6.54297 L 35.9375 -35.3516 L 65.8691 -64.0137 C 68.0664 -66.1133 69.1895 -68.7012 69.1895 -71.4355 C 69.1895 -76.9043 64.5996 -81.4941 59.0332 -81.4941 C 56.2988 -81.4941 54.0527 -80.6152 52.0996 -78.6621 L 16.4062 -43.7988 C 13.7207 -41.1133 12.5 -38.5742 12.4512 -35.2539 C 12.4512 -32.0312 13.623 -29.4434 16.4062 -26.709 Z"/>
  </g>
  <g id="Black-M" transform="matrix(1 0 0 1 2891.19 1126)">
   <path d="M 51.9531 8.88672 C 54.2969 11.1328 56.8848 12.207 60.0586 12.207 C 66.5527 12.207 71.9727 6.83594 71.9727 0.439453 C 71.9727 -2.83203 70.6055 -5.85938 68.0176 -8.39844 L 39.7949 -35.3516 L 68.0176 -62.1094 C 70.6543 -64.6484 71.9727 -67.6758 71.9727 -70.8984 C 71.9727 -77.2949 66.5527 -82.666 60.0586 -82.666 C 56.8359 -82.666 54.248 -81.6406 51.9531 -79.3457 L 17.1387 -45.459 C 13.916 -42.1387 12.5488 -39.1602 12.4512 -35.2539 C 12.4512 -31.3965 13.8672 -28.3691 17.1387 -25.0977 Z"/>
  </g>
  <g id="Ultralight-L" transform="matrix(1 0 0 1 516.571 1556)">
   <path d="M 68.0664 11.7188 C 68.4082 11.9629 68.6035 12.2559 68.9941 12.2559 C 69.6289 12.2559 70.2148 11.7188 70.2148 11.084 C 70.2148 10.791 70.166 10.4004 69.9219 10.2051 L 19.043 -35.3516 L 69.9219 -80.7617 C 70.166 -81.0059 70.2148 -81.3965 70.2148 -81.6895 C 70.2148 -82.3242 69.6289 -82.9102 68.9941 -82.9102 C 68.6035 -82.9102 68.457 -82.7148 68.1641 -82.4219 L 17.041 -36.9141 C 16.5527 -36.377 16.0645 -35.8887 16.0645 -35.2539 C 16.0645 -34.6191 16.4551 -34.2285 16.9434 -33.7402 Z"/>
  </g>
  <g id="Thin-L" transform="matrix(1 0 0 1 812.599 1556)">
   <path d="M 68.0176 12.8418 C 68.5059 13.2324 68.9453 13.5742 69.5312 13.5742 C 70.6543 13.5742 71.5332 12.6465 71.5332 11.5234 C 71.5332 11.0352 71.4355 10.4492 71.0449 10.1074 L 21.0938 -35.3516 L 71.0449 -80.6641 C 71.4355 -81.0547 71.5332 -81.6406 71.5332 -82.1289 C 71.5332 -83.3008 70.6543 -84.1797 69.5312 -84.1797 C 68.9453 -84.1797 68.5547 -83.8867 68.0664 -83.4961 L 17.2363 -37.3535 C 16.6016 -36.7676 16.0645 -36.084 16.0645 -35.2539 C 16.0645 -34.4727 16.5039 -33.8867 17.1387 -33.252 Z"/>
  </g>
  <g id="Light-L" transform="matrix(1 0 0 1 1107.99 1556)">
   <path d="M 67.9199 14.9414 C 68.7012 15.625 69.5312 16.1133 70.5566 16.1133 C 72.6074 16.1133 74.2188 14.5508 74.2188 12.4512 C 74.2188 11.4746 73.877 10.5469 73.1934 9.91211 L 25.0488 -35.3027 L 73.1934 -80.4199 C 73.877 -81.1035 74.2188 -82.0801 74.2188 -83.0566 C 74.2188 -85.1074 72.6074 -86.7188 70.5566 -86.7188 C 69.5312 -86.7188 68.75 -86.2793 67.9688 -85.5957 L 17.5293 -38.2812 C 16.6504 -37.5 16.0645 -36.4258 16.0645 -35.2539 C 16.0645 -34.1309 16.6016 -33.1543 17.4805 -32.2754 Z"/>
  </g>
  <g id="Regular-L" transform="matrix(1 0 0 1 1403.68 1556)">
   <path d="M 67.8711 16.5527 C 68.8477 17.4805 69.9707 18.0176 71.3867 18.0176 C 74.1211 18.0176 76.2207 15.918 76.2207 13.1836 C 76.2207 11.8164 75.7324 10.5957 74.8535 9.7168 L 28.0273 -35.3027 L 74.8535 -80.2734 C 75.7324 -81.2012 76.2207 -82.4707 76.2207 -83.7402 C 76.2207 -86.5234 74.1211 -88.623 71.3867 -88.623 C 69.9707 -88.623 68.8477 -88.0859 67.9199 -87.1582 L 17.7734 -39.0137 C 16.6992 -38.0371 16.0645 -36.6699 16.0645 -35.2539 C 16.0645 -33.8379 16.6992 -32.6172 17.7246 -31.5918 Z"/>
  </g>
  <g id="Medium-L" transform="matrix(1 0 0 1 1699.24 1556)">
   <path d="M 67.7734 17.334 C 68.9941 18.5547 70.459 19.2383 72.2168 19.2383 C 75.7812 19.2383 78.5156 16.4551 78.5156 12.9395 C 78.5156 11.1816 77.832 9.61914 76.6113 8.39844 L 31.2988 -35.3027 L 76.6113 -78.9062 C 77.832 -80.1758 78.5156 -81.7871 78.5156 -83.4961 C 78.5156 -87.0117 75.7812 -89.7949 72.2168 -89.7949 C 70.459 -89.7949 68.9941 -89.1113 67.8223 -87.9395 L 18.3594 -40.2832 C 16.8945 -38.8672 16.1133 -37.1582 16.0645 -35.2539 C 16.0645 -33.3984 16.8457 -31.7871 18.3105 -30.3223 Z"/>
  </g>
  <g id="Semibold-L" transform="matrix(1 0 0 1 1995.07 1556)">
   <path d="M 67.6758 17.9688 C 69.1406 19.3359 70.8496 20.1172 72.8516 20.1172 C 77.002 20.1172 80.3223 16.8457 80.3223 12.7441 C 80.3223 10.6934 79.4434 8.83789 78.0273 7.37305 L 33.7402 -35.3027 L 78.0273 -77.9297 C 79.4922 -79.3945 80.3223 -81.2988 80.3223 -83.3008 C 80.3223 -87.4023 77.002 -90.6738 72.8516 -90.6738 C 70.8008 -90.6738 69.1406 -89.9414 67.7246 -88.5254 L 18.7988 -41.2109 C 16.9922 -39.502 16.1133 -37.5488 16.0645 -35.2539 C 16.0645 -33.0078 16.9434 -31.1523 18.75 -29.3457 Z"/>
  </g>
  <g id="Bold-L" transform="matrix(1 0 0 1 2290.61 1556)">
   <path d="M 67.5781 18.7988 C 69.2871 20.459 71.3379 21.3379 73.7305 21.3379 C 78.6621 21.3379 82.6172 17.3828 82.6172 12.5 C 82.6172 10.0586 81.5918 7.8125 79.834 6.00586 L 37.0117 -35.3027 L 79.834 -76.5625 C 81.6406 -78.3691 82.6172 -80.6641 82.6172 -83.0078 C 82.6172 -87.8906 78.6621 -91.8457 73.7305 -91.8457 C 71.2891 -91.8457 69.2871 -91.0156 67.5781 -89.3066 L 19.3848 -42.5293 C 17.1875 -40.332 16.1133 -38.0371 16.0645 -35.2539 C 16.0645 -32.5195 17.1387 -30.2734 19.3359 -28.0273 Z"/>
  </g>
  <g id="Heavy-L" transform="matrix(1 0 0 1 2585.64 1556)">
   <path d="M 67.4316 19.9707 C 69.5801 22.0215 72.0215 23.0469 74.9512 23.0469 C 81.0547 23.0469 85.9863 18.1152 85.9863 12.1582 C 85.9863 9.13086 84.7168 6.34766 82.4219 4.05273 L 41.7969 -35.3516 L 82.4219 -74.6094 C 84.7656 -76.8555 85.9863 -79.6875 85.9863 -82.666 C 85.9863 -88.623 81.0547 -93.5547 74.9512 -93.5547 C 71.9727 -93.5547 69.5312 -92.5781 67.4316 -90.4785 L 20.2148 -44.3359 C 17.4316 -41.5527 16.1133 -38.7695 16.0645 -35.2539 C 16.0645 -31.8359 17.3828 -29.0527 20.2148 -26.1719 Z"/>
  </g>
  <g id="Black-L" transform="matrix(1 0 0 1 2880.84 1556)">
   <path d="M 67.2852 20.9961 C 69.7754 23.3887 72.6562 24.6094 76.0742 24.6094 C 83.2031 24.6094 89.0137 18.7988 89.0137 11.8164 C 89.0137 8.25195 87.5 5.0293 84.7656 2.29492 L 46.0449 -35.3516 L 84.7656 -72.8516 C 87.5488 -75.5371 89.0137 -78.8574 89.0137 -82.3242 C 89.0137 -89.3066 83.2031 -95.0684 76.0742 -95.0684 C 72.5586 -95.0684 69.7266 -93.9453 67.2852 -91.5039 L 20.9961 -45.9961 C 17.627 -42.627 16.1621 -39.4043 16.0645 -35.2539 C 16.0645 -31.2012 17.5781 -27.9297 20.9961 -24.5117 Z"/>
  </g>
 </g>
</svg>
