<?xml version="1.0" encoding="UTF-8"?>
<!--Generator: Apple Native CoreSVG 123-->
<!DOCTYPE svg
PUBLIC "-//W3C//DTD SVG 1.1//EN"
       "http://www.w3.org/Graphics/SVG/1.1/DTD/svg11.dtd">
<svg version="1.1" xmlns="http://www.w3.org/2000/svg" xmlns:xlink="http://www.w3.org/1999/xlink" width="3300" height="2200">
 <!--glyph: "uni10018A.medium", point size: 100.000000, font version: "Version 15.0d4e20", template writer version: "2"-->
 <g id="Notes">
  <rect height="2200" id="artboard" style="fill:white;opacity:1" width="3300" x="0" y="0"/>
  <line id="" style="fill:none;stroke:black;opacity:1;stroke-width:0.5;" x1="263" x2="3036" y1="292" y2="292"/>
  <text style="stroke:none;fill:black;font-family:-apple-system,&quot;SF Pro Display&quot;,&quot;SF Pro Text&quot;,Helvetica,sans-serif;font-weight:bold;" transform="matrix(1 0 0 1 263 322)">Weight/Scale Variations</text>
  <text style="stroke:none;fill:black;font-family:-apple-system,&quot;SF Pro Display&quot;,&quot;SF Pro Text&quot;,Helvetica,sans-serif;text-anchor:middle;" transform="matrix(1 0 0 1 559.711 322)">Ultralight</text>
  <text style="stroke:none;fill:black;font-family:-apple-system,&quot;SF Pro Display&quot;,&quot;SF Pro Text&quot;,Helvetica,sans-serif;text-anchor:middle;" transform="matrix(1 0 0 1 856.422 322)">Thin</text>
  <text style="stroke:none;fill:black;font-family:-apple-system,&quot;SF Pro Display&quot;,&quot;SF Pro Text&quot;,Helvetica,sans-serif;text-anchor:middle;" transform="matrix(1 0 0 1 1153.13 322)">Light</text>
  <text style="stroke:none;fill:black;font-family:-apple-system,&quot;SF Pro Display&quot;,&quot;SF Pro Text&quot;,Helvetica,sans-serif;text-anchor:middle;" transform="matrix(1 0 0 1 1449.84 322)">Regular</text>
  <text style="stroke:none;fill:black;font-family:-apple-system,&quot;SF Pro Display&quot;,&quot;SF Pro Text&quot;,Helvetica,sans-serif;text-anchor:middle;" transform="matrix(1 0 0 1 1746.56 322)">Medium</text>
  <text style="stroke:none;fill:black;font-family:-apple-system,&quot;SF Pro Display&quot;,&quot;SF Pro Text&quot;,Helvetica,sans-serif;text-anchor:middle;" transform="matrix(1 0 0 1 2043.27 322)">Semibold</text>
  <text style="stroke:none;fill:black;font-family:-apple-system,&quot;SF Pro Display&quot;,&quot;SF Pro Text&quot;,Helvetica,sans-serif;text-anchor:middle;" transform="matrix(1 0 0 1 2339.98 322)">Bold</text>
  <text style="stroke:none;fill:black;font-family:-apple-system,&quot;SF Pro Display&quot;,&quot;SF Pro Text&quot;,Helvetica,sans-serif;text-anchor:middle;" transform="matrix(1 0 0 1 2636.69 322)">Heavy</text>
  <text style="stroke:none;fill:black;font-family:-apple-system,&quot;SF Pro Display&quot;,&quot;SF Pro Text&quot;,Helvetica,sans-serif;text-anchor:middle;" transform="matrix(1 0 0 1 2933.4 322)">Black</text>
  <line id="" style="fill:none;stroke:black;opacity:1;stroke-width:0.5;" x1="263" x2="3036" y1="1903" y2="1903"/>
  <g id="" transform="matrix(1 0 0 1 263 1933)">
   <path d="M 9.24805 0.830078 C 13.5547 0.830078 17.1387 -2.74414 17.1387 -7.05078 C 17.1387 -11.3574 13.5449 -14.9316 9.23828 -14.9316 C 4.94141 -14.9316 1.36719 -11.3574 1.36719 -7.05078 C 1.36719 -2.74414 4.95117 0.830078 9.24805 0.830078 Z M 9.24805 -0.654297 C 5.70312 -0.654297 2.87109 -3.49609 2.87109 -7.05078 C 2.87109 -10.6055 5.69336 -13.4473 9.23828 -13.4473 C 12.793 -13.4473 15.6348 -10.6055 15.6445 -7.05078 C 15.6543 -3.49609 12.8027 -0.654297 9.24805 -0.654297 Z M 9.22852 -3.42773 C 9.69727 -3.42773 9.9707 -3.74023 9.9707 -4.25781 L 9.9707 -6.31836 L 12.1973 -6.31836 C 12.6953 -6.31836 13.0371 -6.57227 13.0371 -7.04102 C 13.0371 -7.51953 12.7148 -7.7832 12.1973 -7.7832 L 9.9707 -7.7832 L 9.9707 -10.0098 C 9.9707 -10.5273 9.69727 -10.8496 9.22852 -10.8496 C 8.75977 -10.8496 8.50586 -10.5078 8.50586 -10.0098 L 8.50586 -7.7832 L 6.29883 -7.7832 C 5.78125 -7.7832 5.44922 -7.51953 5.44922 -7.04102 C 5.44922 -6.57227 5.80078 -6.31836 6.29883 -6.31836 L 8.50586 -6.31836 L 8.50586 -4.25781 C 8.50586 -3.75977 8.75977 -3.42773 9.22852 -3.42773 Z"/>
  </g>
  <g id="" transform="matrix(1 0 0 1 281.506 1933)">
   <path d="M 11.709 2.91016 C 17.1484 2.91016 21.6699 -1.60156 21.6699 -7.05078 C 21.6699 -12.4902 17.1387 -17.0117 11.6992 -17.0117 C 6.25 -17.0117 1.74805 -12.4902 1.74805 -7.05078 C 1.74805 -1.60156 6.25977 2.91016 11.709 2.91016 Z M 11.709 1.25 C 7.09961 1.25 3.41797 -2.44141 3.41797 -7.05078 C 3.41797 -11.6504 7.08984 -15.3516 11.6992 -15.3516 C 16.2988 -15.3516 20 -11.6504 20.0098 -7.05078 C 20.0195 -2.44141 16.3086 1.25 11.709 1.25 Z M 11.6797 -2.41211 C 12.207 -2.41211 12.5195 -2.77344 12.5195 -3.33984 L 12.5195 -6.23047 L 15.5762 -6.23047 C 16.123 -6.23047 16.5039 -6.51367 16.5039 -7.03125 C 16.5039 -7.55859 16.1426 -7.86133 15.5762 -7.86133 L 12.5195 -7.86133 L 12.5195 -10.9277 C 12.5195 -11.5039 12.207 -11.8555 11.6797 -11.8555 C 11.1621 -11.8555 10.8789 -11.4844 10.8789 -10.9277 L 10.8789 -7.86133 L 7.83203 -7.86133 C 7.25586 -7.86133 6.89453 -7.55859 6.89453 -7.03125 C 6.89453 -6.51367 7.28516 -6.23047 7.83203 -6.23047 L 10.8789 -6.23047 L 10.8789 -3.33984 C 10.8789 -2.79297 11.1621 -2.41211 11.6797 -2.41211 Z"/>
  </g>
  <g id="" transform="matrix(1 0 0 1 304.914 1933)">
   <path d="M 14.9707 5.67383 C 21.9336 5.67383 27.6855 -0.078125 27.6855 -7.04102 C 27.6855 -14.0039 21.9238 -19.7559 14.9609 -19.7559 C 7.99805 -19.7559 2.25586 -14.0039 2.25586 -7.04102 C 2.25586 -0.078125 8.00781 5.67383 14.9707 5.67383 Z M 14.9707 3.85742 C 8.92578 3.85742 4.08203 -1.00586 4.08203 -7.04102 C 4.08203 -13.0762 8.91602 -17.9395 14.9609 -17.9395 C 20.9961 -17.9395 25.8594 -13.0762 25.8691 -7.04102 C 25.8789 -1.00586 21.0059 3.85742 14.9707 3.85742 Z M 14.9414 -1.06445 C 15.5176 -1.06445 15.8594 -1.45508 15.8594 -2.06055 L 15.8594 -6.13281 L 20.0977 -6.13281 C 20.6934 -6.13281 21.1133 -6.46484 21.1133 -7.02148 C 21.1133 -7.59766 20.7227 -7.93945 20.0977 -7.93945 L 15.8594 -7.93945 L 15.8594 -12.1875 C 15.8594 -12.8027 15.5176 -13.1934 14.9414 -13.1934 C 14.3848 -13.1934 14.0625 -12.7832 14.0625 -12.1875 L 14.0625 -7.93945 L 9.82422 -7.93945 C 9.20898 -7.93945 8.80859 -7.59766 8.80859 -7.02148 C 8.80859 -6.46484 9.23828 -6.13281 9.82422 -6.13281 L 14.0625 -6.13281 L 14.0625 -2.06055 C 14.0625 -1.47461 14.3848 -1.06445 14.9414 -1.06445 Z"/>
  </g>
  <text style="stroke:none;fill:black;font-family:-apple-system,&quot;SF Pro Display&quot;,&quot;SF Pro Text&quot;,Helvetica,sans-serif;font-weight:bold;" transform="matrix(1 0 0 1 263 1953)">Design Variations</text>
  <text style="stroke:none;fill:black;font-family:-apple-system,&quot;SF Pro Display&quot;,&quot;SF Pro Text&quot;,Helvetica,sans-serif;" transform="matrix(1 0 0 1 263 1971)">Symbols are supported in up to nine weights and three scales.</text>
  <text style="stroke:none;fill:black;font-family:-apple-system,&quot;SF Pro Display&quot;,&quot;SF Pro Text&quot;,Helvetica,sans-serif;" transform="matrix(1 0 0 1 263 1989)">For optimal layout with text and other symbols, vertically align</text>
  <text style="stroke:none;fill:black;font-family:-apple-system,&quot;SF Pro Display&quot;,&quot;SF Pro Text&quot;,Helvetica,sans-serif;" transform="matrix(1 0 0 1 263 2007)">symbols with the adjacent text.</text>
  <rect height="14" id="" style="fill:#00AEEF;stroke:none;opacity:0.4;" width="3" x="776" y="1919"/>
  <g id="" transform="matrix(1 0 0 1 779 1933)">
   <path d="M 10.5273 0 L 12.373 0 L 7.17773 -14.0918 L 5.43945 -14.0918 L 0.244141 0 L 2.08984 0 L 3.50586 -4.0332 L 9.11133 -4.0332 Z M 6.2793 -11.9531 L 6.33789 -11.9531 L 8.59375 -5.52734 L 4.02344 -5.52734 Z"/>
  </g>
  <rect height="14" id="" style="fill:#00AEEF;stroke:none;opacity:0.4;" width="3" x="791.617" y="1919"/>
  <text style="stroke:none;fill:black;font-family:-apple-system,&quot;SF Pro Display&quot;,&quot;SF Pro Text&quot;,Helvetica,sans-serif;font-weight:bold;" transform="matrix(1 0 0 1 776 1953)">Side Bearings</text>
  <text style="stroke:none;fill:black;font-family:-apple-system,&quot;SF Pro Display&quot;,&quot;SF Pro Text&quot;,Helvetica,sans-serif;" transform="matrix(1 0 0 1 776 1971)">Horizontal padding on the left and right side of each symbol</text>
  <text style="stroke:none;fill:black;font-family:-apple-system,&quot;SF Pro Display&quot;,&quot;SF Pro Text&quot;,Helvetica,sans-serif;" transform="matrix(1 0 0 1 776 1989)">can be adjusted by modifying the width of the blue rectangles.</text>
  <text style="stroke:none;fill:black;font-family:-apple-system,&quot;SF Pro Display&quot;,&quot;SF Pro Text&quot;,Helvetica,sans-serif;" transform="matrix(1 0 0 1 776 2007)">Modifications are automatically applied proportionally to all</text>
  <text style="stroke:none;fill:black;font-family:-apple-system,&quot;SF Pro Display&quot;,&quot;SF Pro Text&quot;,Helvetica,sans-serif;" transform="matrix(1 0 0 1 776 2025)">scales and weights.</text>
  <g id="" transform="matrix(1 0 0 1 1289 1933)">
   <path d="M 2.96875 2.35352 L 3.80859 3.19336 C 4.84375 4.22852 6.12305 4.15039 7.19727 2.97852 L 16.1621 -6.82617 C 16.5527 -6.74805 16.9629 -6.8457 17.4902 -7.02148 C 18.1738 -7.25586 18.2715 -7.25586 18.3887 -7.13867 C 18.5352 -7.01172 18.4863 -6.89453 18.2422 -6.25 C 17.8809 -5.33203 17.8125 -4.79492 18.5547 -4.02344 L 19.4238 -3.13477 C 20.2734 -2.24609 21.3281 -2.26562 22.2168 -3.14453 L 25.0586 -5.97656 C 25.9473 -6.86523 25.957 -7.92969 25.0781 -8.7793 L 24.1797 -9.64844 C 23.4082 -10.4004 22.8711 -10.3516 21.9629 -9.98047 C 21.3184 -9.72656 21.2012 -9.6875 21.0645 -9.81445 C 20.9375 -9.93164 20.9473 -10.0391 21.1816 -10.7129 C 21.5332 -11.6895 21.5723 -12.2852 20.752 -13.0957 L 19.3359 -14.5117 C 15.1953 -18.6133 11.2305 -18.7402 7.65625 -15.4395 C 7.08008 -14.9023 6.99219 -14.1504 7.53906 -13.6133 L 7.79297 -13.3594 C 8.22266 -12.9297 8.86719 -12.8418 9.41406 -13.1152 C 11.0645 -13.9453 12.2559 -14.0234 13.457 -12.9785 L 13.0273 -11.416 C 12.8516 -10.8008 12.793 -10.3418 12.9199 -9.93164 L 3.18359 -1.04492 C 2.02148 0.0292969 1.93359 1.32812 2.96875 2.35352 Z M 8.96484 -14.4922 C 8.89648 -14.5703 8.86719 -14.6582 8.99414 -14.7559 C 11.709 -17.2852 15.0391 -16.8457 18.3496 -13.5254 L 19.6973 -12.168 C 20.0879 -11.7773 20.0977 -11.582 19.8828 -10.8691 C 19.6582 -10.127 19.502 -9.53125 20.1465 -8.88672 C 20.8105 -8.22266 21.2891 -8.41797 22.207 -8.63281 C 22.9004 -8.79883 23.0664 -8.79883 23.4473 -8.41797 L 24.0918 -7.77344 C 24.4043 -7.48047 24.4141 -7.32422 24.0723 -6.97266 L 21.2207 -4.13086 C 20.8887 -3.79883 20.7227 -3.79883 20.4297 -4.10156 L 19.7852 -4.75586 C 19.4141 -5.13672 19.4141 -5.30273 19.5801 -6.01562 C 19.7852 -6.88477 19.9805 -7.38281 19.3262 -8.04688 C 18.6719 -8.7207 18.0762 -8.57422 17.3438 -8.33008 C 16.5625 -8.06641 16.3281 -8.06641 15.8984 -8.49609 L 14.6094 -9.78516 C 14.1699 -10.2246 14.1309 -10.4395 14.2676 -10.9082 L 15.0293 -13.3984 C 13.3887 -15.2832 11.4941 -15.5566 9.20898 -14.4434 C 9.11133 -14.3945 9.04297 -14.4141 8.96484 -14.4922 Z M 3.96484 1.36719 C 3.52539 0.927734 3.54492 0.537109 4.14062 -0.00976562 L 13.7402 -8.81836 L 15 -7.55859 L 6.17188 2.02148 C 5.625 2.60742 5.24414 2.64648 4.79492 2.19727 Z"/>
  </g>
  <text style="stroke:none;fill:black;font-family:-apple-system,&quot;SF Pro Display&quot;,&quot;SF Pro Text&quot;,Helvetica,sans-serif;font-weight:bold;" transform="matrix(1 0 0 1 1289 1953)">Exporting</text>
  <text style="stroke:none;fill:black;font-family:-apple-system,&quot;SF Pro Display&quot;,&quot;SF Pro Text&quot;,Helvetica,sans-serif;" transform="matrix(1 0 0 1 1289 1971)">Symbols should be outlined when exporting to ensure the</text>
  <text style="stroke:none;fill:black;font-family:-apple-system,&quot;SF Pro Display&quot;,&quot;SF Pro Text&quot;,Helvetica,sans-serif;" transform="matrix(1 0 0 1 1289 1989)">design is preserved when submitting to Xcode.</text>
  <text id="template-version" style="stroke:none;fill:black;font-family:-apple-system,&quot;SF Pro Display&quot;,&quot;SF Pro Text&quot;,Helvetica,sans-serif;text-anchor:end;" transform="matrix(1 0 0 1 3036 1933)">Template v.0.1</text>
  <text style="stroke:none;fill:black;font-family:-apple-system,&quot;SF Pro Display&quot;,&quot;SF Pro Text&quot;,Helvetica,sans-serif;text-anchor:end;" transform="matrix(1 0 0 1 3036 1951)">Generated from chevron.right</text>
  <text style="stroke:none;fill:black;font-family:-apple-system,&quot;SF Pro Display&quot;,&quot;SF Pro Text&quot;,Helvetica,sans-serif;text-anchor:end;" transform="matrix(1 0 0 1 3036 1969)">Typeset at 100 points</text>
  <text style="stroke:none;fill:black;font-family:-apple-system,&quot;SF Pro Display&quot;,&quot;SF Pro Text&quot;,Helvetica,sans-serif;" transform="matrix(1 0 0 1 263 726)">Small</text>
  <text style="stroke:none;fill:black;font-family:-apple-system,&quot;SF Pro Display&quot;,&quot;SF Pro Text&quot;,Helvetica,sans-serif;" transform="matrix(1 0 0 1 263 1156)">Medium</text>
  <text style="stroke:none;fill:black;font-family:-apple-system,&quot;SF Pro Display&quot;,&quot;SF Pro Text&quot;,Helvetica,sans-serif;" transform="matrix(1 0 0 1 263 1586)">Large</text>
 </g>
 <g id="Guides">
  <g id="H-reference" style="fill:#27AAE1;stroke:none;" transform="matrix(1 0 0 1 339 696)">
   <path d="M 54.9316 0 L 57.666 0 L 30.5664 -70.459 L 28.0762 -70.459 L 0.976562 0 L 3.66211 0 L 12.9395 -24.4629 L 45.7031 -24.4629 Z M 29.1992 -67.0898 L 29.4434 -67.0898 L 44.8242 -26.709 L 13.8184 -26.709 Z"/>
  </g>
  <line id="Baseline-S" style="fill:none;stroke:#27AAE1;opacity:1;stroke-width:0.577;" x1="263" x2="3036" y1="696" y2="696"/>
  <line id="Capline-S" style="fill:none;stroke:#27AAE1;opacity:1;stroke-width:0.577;" x1="263" x2="3036" y1="625.541" y2="625.541"/>
  <g id="H-reference" style="fill:#27AAE1;stroke:none;" transform="matrix(1 0 0 1 339 1126)">
   <path d="M 54.9316 0 L 57.666 0 L 30.5664 -70.459 L 28.0762 -70.459 L 0.976562 0 L 3.66211 0 L 12.9395 -24.4629 L 45.7031 -24.4629 Z M 29.1992 -67.0898 L 29.4434 -67.0898 L 44.8242 -26.709 L 13.8184 -26.709 Z"/>
  </g>
  <line id="Baseline-M" style="fill:none;stroke:#27AAE1;opacity:1;stroke-width:0.577;" x1="263" x2="3036" y1="1126" y2="1126"/>
  <line id="Capline-M" style="fill:none;stroke:#27AAE1;opacity:1;stroke-width:0.577;" x1="263" x2="3036" y1="1055.54" y2="1055.54"/>
  <g id="H-reference" style="fill:#27AAE1;stroke:none;" transform="matrix(1 0 0 1 339 1556)">
   <path d="M 54.9316 0 L 57.666 0 L 30.5664 -70.459 L 28.0762 -70.459 L 0.976562 0 L 3.66211 0 L 12.9395 -24.4629 L 45.7031 -24.4629 Z M 29.1992 -67.0898 L 29.4434 -67.0898 L 44.8242 -26.709 L 13.8184 -26.709 Z"/>
  </g>
  <line id="Baseline-L" style="fill:none;stroke:#27AAE1;opacity:1;stroke-width:0.577;" x1="263" x2="3036" y1="1556" y2="1556"/>
  <line id="Capline-L" style="fill:none;stroke:#27AAE1;opacity:1;stroke-width:0.577;" x1="263" x2="3036" y1="1485.54" y2="1485.54"/>
  <rect height="119.336" id="left-margin" style="fill:#00AEEF;stroke:none;opacity:0.4;" width="12.4512" x="1413.49" y="1030.79"/>
  <rect height="119.336" id="right-margin" style="fill:#00AEEF;stroke:none;opacity:0.4;" width="12.5" x="1473.7" y="1030.79"/>
 </g>
 <g id="Symbols">
  <g id="Ultralight-S" transform="matrix(1 0 0 1 533.197 696)">
   <path d="M 10.8887 -5.71289 C 11.2305 -5.71289 11.4258 -5.85938 11.6699 -6.10352 L 42.5781 -34.0332 C 42.9688 -34.4238 43.2617 -34.7656 43.2617 -35.2539 C 43.2617 -35.7422 43.0176 -36.0352 42.627 -36.4258 L 11.7188 -64.3066 C 11.4746 -64.5508 11.2305 -64.7461 10.8887 -64.7461 C 10.2539 -64.7461 9.76562 -64.2578 9.76562 -63.623 C 9.76562 -63.3301 9.81445 -62.9883 10.0586 -62.8418 L 40.4785 -35.2051 L 10.0586 -7.66602 C 9.81445 -7.4707 9.76562 -7.12891 9.76562 -6.83594 C 9.76562 -6.20117 10.2539 -5.71289 10.8887 -5.71289 Z"/>
  </g>
  <g id="Thin-S" transform="matrix(1 0 0 1 829.371 696)">
   <path d="M 11.5723 -4.6875 C 12.0605 -4.6875 12.4512 -4.93164 12.793 -5.27344 L 43.5547 -33.6426 C 44.043 -34.1309 44.3359 -34.6191 44.3359 -35.2539 C 44.3359 -35.8887 44.043 -36.377 43.6035 -36.8164 L 12.8418 -65.1855 C 12.4512 -65.5273 12.0605 -65.7715 11.5723 -65.7715 C 10.5469 -65.7715 9.76562 -64.9902 9.76562 -64.0137 C 9.76562 -63.5254 9.91211 -63.0371 10.2539 -62.7441 L 39.9414 -35.2051 L 10.2539 -7.76367 C 9.91211 -7.42188 9.76562 -6.93359 9.76562 -6.49414 C 9.76562 -5.46875 10.5469 -4.6875 11.5723 -4.6875 Z"/>
  </g>
  <g id="Light-S" transform="matrix(1 0 0 1 1125.01 696)">
   <path d="M 12.8418 -2.68555 C 13.6719 -2.68555 14.4043 -3.02734 14.9902 -3.61328 L 45.4102 -32.9102 C 46.0938 -33.5938 46.4844 -34.375 46.4844 -35.2539 C 46.4844 -36.1328 46.0938 -36.9629 45.4102 -37.5488 L 14.9902 -66.8457 C 14.4043 -67.4316 13.6719 -67.7734 12.8418 -67.7734 C 11.084 -67.7734 9.76562 -66.4551 9.76562 -64.7461 C 9.76562 -63.916 10.1074 -63.1348 10.6445 -62.5488 L 38.9648 -35.2539 L 10.6445 -7.95898 C 10.1074 -7.37305 9.76562 -6.5918 9.76562 -5.76172 C 9.76562 -4.00391 11.084 -2.68555 12.8418 -2.68555 Z"/>
  </g>
  <g id="Regular-S" transform="matrix(1 0 0 1 1420.94 696)">
   <path d="M 13.8184 -1.17188 C 14.9414 -1.17188 15.918 -1.61133 16.6504 -2.34375 L 46.8262 -32.373 C 47.6074 -33.1543 48.0469 -34.1797 48.0469 -35.2539 C 48.0469 -36.3281 47.6074 -37.4023 46.8262 -38.1348 L 16.6504 -68.1152 C 15.918 -68.8965 14.9414 -69.3359 13.8184 -69.3359 C 11.5234 -69.3359 9.76562 -67.5781 9.76562 -65.2832 C 9.76562 -64.209 10.2539 -63.1836 10.9375 -62.4023 L 38.2324 -35.2539 L 10.9375 -8.10547 C 10.2539 -7.32422 9.76562 -6.34766 9.76562 -5.22461 C 9.76562 -2.92969 11.5234 -1.17188 13.8184 -1.17188 Z"/>
  </g>
  <g id="Medium-S" transform="matrix(1 0 0 1 1716.72 696)">
   <path d="M 14.9902 -0.537109 C 16.4062 -0.537109 17.627 -1.07422 18.6035 -2.05078 L 48.1445 -31.25 C 49.3164 -32.4707 49.9023 -33.7402 49.9023 -35.3027 C 49.9023 -36.8164 49.3652 -38.1836 48.1445 -39.3066 L 18.6035 -68.5547 C 17.627 -69.5312 16.4062 -70.0195 14.9902 -70.0195 C 12.0605 -70.0195 9.76562 -67.7246 9.76562 -64.8438 C 9.76562 -63.4277 10.3516 -62.1094 11.377 -61.084 L 37.5 -35.2539 L 11.377 -9.47266 C 10.3516 -8.44727 9.76562 -7.17773 9.76562 -5.71289 C 9.76562 -2.83203 12.0605 -0.537109 14.9902 -0.537109 Z"/>
  </g>
  <g id="Semibold-S" transform="matrix(1 0 0 1 2012.7 696)">
   <path d="M 15.8691 -0.0488281 C 17.5781 -0.0488281 18.9453 -0.634766 20.1172 -1.75781 L 49.1211 -30.4199 C 50.6348 -31.9336 51.3184 -33.4473 51.3672 -35.3027 C 51.3672 -37.1582 50.6348 -38.7695 49.1699 -40.1855 L 20.1172 -68.8477 C 18.9453 -70.0195 17.5293 -70.6055 15.8691 -70.6055 C 12.5 -70.6055 9.76562 -67.8711 9.76562 -64.502 C 9.76562 -62.8418 10.498 -61.2793 11.7188 -60.0586 L 36.9141 -35.3027 L 11.7188 -10.5469 C 10.4492 -9.32617 9.76562 -7.8125 9.76562 -6.10352 C 9.76562 -2.7832 12.5 -0.0488281 15.8691 -0.0488281 Z"/>
  </g>
  <g id="Bold-S" transform="matrix(1 0 0 1 2308.48 696)">
   <path d="M 17.0898 0.585938 C 19.0918 0.585938 20.7031 -0.0488281 22.1191 -1.46484 L 50.4883 -29.2969 C 52.3438 -31.2012 53.1738 -33.0078 53.2227 -35.3516 C 53.2227 -37.6465 52.3926 -39.502 50.4883 -41.4062 L 22.1191 -69.2871 C 20.7031 -70.6543 19.043 -71.3379 17.0898 -71.3379 C 13.0859 -71.3379 9.76562 -68.0664 9.76562 -64.0625 C 9.76562 -62.0605 10.5957 -60.2051 12.1582 -58.6914 L 36.1816 -35.3027 L 12.1582 -12.0117 C 10.5957 -10.498 9.76562 -8.64258 9.76562 -6.64062 C 9.76562 -2.68555 13.0859 0.585938 17.0898 0.585938 Z"/>
  </g>
  <g id="Heavy-S" transform="matrix(1 0 0 1 2603.83 696)">
   <path d="M 18.8477 1.51367 C 21.2891 1.51367 23.2422 0.78125 25 -0.976562 L 52.3926 -27.6855 C 54.834 -30.1758 55.9082 -32.4219 55.957 -35.4004 C 55.957 -38.3301 54.8828 -40.625 52.3926 -43.1152 L 25 -69.873 C 23.1934 -71.582 21.2402 -72.3633 18.8477 -72.3633 C 13.8672 -72.3633 9.76562 -68.3105 9.76562 -63.4277 C 9.76562 -60.9375 10.8398 -58.6426 12.793 -56.7383 L 35.1562 -35.3516 L 12.793 -14.0625 C 10.791 -12.1582 9.76562 -9.81445 9.76562 -7.37305 C 9.76562 -2.53906 13.8672 1.51367 18.8477 1.51367 Z"/>
  </g>
  <g id="Black-S" transform="matrix(1 0 0 1 2899.32 696)">
   <path d="M 20.4102 2.39258 C 23.2422 2.39258 25.5371 1.51367 27.5391 -0.537109 L 54.1016 -26.2207 C 57.0801 -29.248 58.3008 -31.8848 58.3984 -35.4492 C 58.3984 -38.916 57.1289 -41.6016 54.1016 -44.6777 L 27.5391 -70.4102 C 25.4395 -72.3633 23.1934 -73.3398 20.4102 -73.3398 C 14.6484 -73.3398 9.76562 -68.5059 9.76562 -62.8906 C 9.76562 -59.9609 10.9863 -57.2754 13.3789 -54.9805 L 34.2285 -35.3516 L 13.3789 -15.918 C 10.9375 -13.623 9.76562 -10.9375 9.76562 -8.05664 C 9.76562 -2.44141 14.6484 2.39258 20.4102 2.39258 Z"/>
  </g>
  <g id="Ultralight-M" transform="matrix(1 0 0 1 526.069 1126)">
   <path d="M 13.6719 2.05078 C 14.0137 2.05078 14.1602 1.85547 14.502 1.61133 L 54.0039 -33.8379 C 54.4434 -34.2773 54.7852 -34.7168 54.7852 -35.2539 C 54.7852 -35.791 54.4922 -36.1816 54.0527 -36.5723 L 14.5508 -72.0215 C 14.2578 -72.2656 14.0137 -72.5098 13.6719 -72.5098 C 12.9883 -72.5098 12.4512 -71.9727 12.4512 -71.2891 C 12.4512 -70.9961 12.5 -70.6543 12.7441 -70.459 L 51.9043 -35.2051 L 12.7441 -0.0488281 C 12.5 0.195312 12.4512 0.537109 12.4512 0.830078 C 12.4512 1.51367 12.9883 2.05078 13.6719 2.05078 Z"/>
  </g>
  <g id="Thin-M" transform="matrix(1 0 0 1 822.169 1126)">
   <path d="M 14.4043 3.17383 C 14.9414 3.17383 15.332 2.92969 15.7715 2.58789 L 55.0781 -33.4473 C 55.6152 -33.9844 56.0547 -34.5703 56.0547 -35.2539 C 56.0547 -35.9863 55.6641 -36.5234 55.127 -37.0117 L 15.8203 -72.998 C 15.3809 -73.3887 14.9414 -73.6816 14.4043 -73.6816 C 13.3301 -73.6816 12.4512 -72.8027 12.4512 -71.7285 C 12.4512 -71.2402 12.5977 -70.7031 12.9883 -70.3613 L 51.2695 -35.2051 L 12.9883 -0.146484 C 12.5977 0.244141 12.4512 0.78125 12.4512 1.26953 C 12.4512 2.34375 13.3301 3.17383 14.4043 3.17383 Z"/>
  </g>
  <g id="Light-M" transform="matrix(1 0 0 1 1117.68 1126)">
   <path d="M 15.8203 5.46875 C 16.7969 5.46875 17.5781 5.07812 18.2129 4.44336 L 57.1777 -32.6172 C 57.959 -33.3496 58.3984 -34.2285 58.3984 -35.2539 C 58.3984 -36.2793 57.959 -37.207 57.2266 -37.8906 L 18.2617 -74.9023 C 17.5781 -75.5371 16.7969 -75.9277 15.8203 -75.9277 C 13.916 -75.9277 12.4512 -74.4629 12.4512 -72.5586 C 12.4512 -71.6797 12.793 -70.8008 13.4277 -70.166 L 50.1465 -35.2539 L 13.4277 -0.341797 C 12.793 0.292969 12.4512 1.17188 12.4512 2.09961 C 12.4512 4.00391 13.916 5.46875 15.8203 5.46875 Z"/>
  </g>
  <g id="Regular-M" transform="matrix(1 0 0 1 1413.49 1126)">
   <path d="M 16.9434 7.17773 C 18.1641 7.17773 19.2383 6.68945 20.1172 5.85938 L 58.7891 -31.9824 C 59.7168 -32.9102 60.2051 -34.0332 60.2051 -35.2539 C 60.2051 -36.5234 59.7168 -37.6953 58.7891 -38.5254 L 20.1172 -76.3184 C 19.2871 -77.1973 18.1641 -77.6855 16.9434 -77.6855 C 14.4043 -77.6855 12.4512 -75.7324 12.4512 -73.1934 C 12.4512 -72.0215 12.9883 -70.8496 13.7695 -70.0195 L 49.2676 -35.2539 L 13.7695 -0.488281 C 12.9883 0.341797 12.4512 1.46484 12.4512 2.68555 C 12.4512 5.22461 14.4043 7.17773 16.9434 7.17773 Z"/>
  </g>
  <g id="Medium-M" transform="matrix(1 0 0 1 1709.15 1126)">
   <path d="M 18.2617 8.00781 C 19.873 8.00781 21.2402 7.42188 22.3145 6.34766 L 60.3027 -30.7617 C 61.6699 -32.1289 62.3535 -33.5449 62.3535 -35.3027 C 62.3535 -37.0117 61.6699 -38.5254 60.3027 -39.7949 L 22.3145 -76.9531 C 21.2402 -78.0273 19.873 -78.6133 18.2617 -78.6133 C 15.0391 -78.6133 12.4512 -76.0742 12.4512 -72.8516 C 12.4512 -71.2891 13.1348 -69.7754 14.2578 -68.6523 L 48.4375 -35.2539 L 14.2578 -1.95312 C 13.1348 -0.78125 12.4512 0.634766 12.4512 2.24609 C 12.4512 5.46875 15.0391 8.00781 18.2617 8.00781 Z"/>
  </g>
  <g id="Semibold-M" transform="matrix(1 0 0 1 2005.06 1126)">
   <path d="M 19.2871 8.69141 C 21.1914 8.69141 22.7539 8.00781 24.0234 6.73828 L 61.4746 -29.834 C 63.1348 -31.4941 63.9648 -33.2031 63.9648 -35.3027 C 63.9648 -37.4023 63.1836 -39.1602 61.4746 -40.7715 L 24.0234 -77.3926 C 22.7051 -78.6621 21.1426 -79.3457 19.2871 -79.3457 C 15.5273 -79.3457 12.4512 -76.3184 12.4512 -72.5586 C 12.4512 -70.7031 13.2324 -68.9453 14.5996 -67.5781 L 47.8027 -35.3027 L 14.5996 -3.07617 C 13.2324 -1.70898 12.4512 0.0488281 12.4512 1.9043 C 12.4512 5.66406 15.5273 8.69141 19.2871 8.69141 Z"/>
  </g>
  <g id="Bold-M" transform="matrix(1 0 0 1 2300.7 1126)">
   <path d="M 20.6543 9.57031 C 22.9004 9.57031 24.707 8.78906 26.2695 7.22656 L 63.0371 -28.6133 C 65.1367 -30.7129 66.0645 -32.7637 66.1133 -35.3516 C 66.1133 -37.8906 65.1367 -40.0391 63.0371 -42.0898 L 26.3184 -77.9785 C 24.707 -79.4922 22.8516 -80.2734 20.6543 -80.2734 C 16.1621 -80.2734 12.4512 -76.6602 12.4512 -72.168 C 12.4512 -69.9219 13.4277 -67.8711 15.0879 -66.1621 L 46.9727 -35.3027 L 15.0879 -4.54102 C 13.3789 -2.83203 12.4512 -0.78125 12.4512 1.46484 C 12.4512 5.9082 16.1621 9.57031 20.6543 9.57031 Z"/>
  </g>
  <g id="Heavy-M" transform="matrix(1 0 0 1 2595.84 1126)">
   <path d="M 22.6562 10.791 C 25.3906 10.791 27.6367 9.91211 29.541 8.00781 L 65.2832 -26.8555 C 67.9688 -29.5898 69.1406 -32.1289 69.1895 -35.4004 C 69.1895 -38.6719 68.0176 -41.2598 65.2832 -43.9453 L 29.541 -78.8574 C 27.5879 -80.7129 25.3418 -81.6895 22.6562 -81.6895 C 17.0898 -81.6895 12.4512 -77.0996 12.4512 -71.6309 C 12.4512 -68.8477 13.623 -66.2598 15.8203 -64.1602 L 45.7031 -35.3516 L 15.8203 -6.68945 C 13.5742 -4.54102 12.4512 -1.95312 12.4512 0.78125 C 12.4512 6.25 17.0898 10.791 22.6562 10.791 Z"/>
  </g>
  <g id="Black-M" transform="matrix(1 0 0 1 2891.19 1126)">
   <path d="M 24.4141 11.9141 C 27.6367 11.9141 30.2246 10.9375 32.4707 8.64258 L 67.2852 -25.2441 C 70.5078 -28.5645 71.9238 -31.543 71.9727 -35.4492 C 71.9727 -39.3066 70.6055 -42.334 67.2852 -45.6543 L 32.4707 -79.6387 C 30.127 -81.8359 27.5391 -82.9102 24.4141 -82.9102 C 17.9199 -82.9102 12.4512 -77.5391 12.4512 -71.1426 C 12.4512 -67.8711 13.8672 -64.8438 16.4551 -62.3047 L 44.6289 -35.3516 L 16.4551 -8.59375 C 13.7695 -6.05469 12.4512 -3.02734 12.4512 0.195312 C 12.4512 6.54297 17.9199 11.9141 24.4141 11.9141 Z"/>
  </g>
  <g id="Ultralight-L" transform="matrix(1 0 0 1 516.571 1556)">
   <path d="M 17.2852 12.3535 C 17.6758 12.3535 17.8223 12.1582 18.1152 11.9141 L 69.2383 -33.6426 C 69.7266 -34.1309 70.2148 -34.6191 70.2148 -35.2539 C 70.2148 -35.8887 69.8242 -36.2793 69.2871 -36.8164 L 18.2129 -82.2754 C 17.8711 -82.5195 17.6758 -82.8125 17.2852 -82.8125 C 16.6504 -82.8125 16.0645 -82.2754 16.0645 -81.5918 C 16.0645 -81.2988 16.1133 -80.9082 16.3574 -80.7617 L 67.2363 -35.2051 L 16.3574 10.2051 C 16.1133 10.4492 16.0645 10.8398 16.0645 11.1328 C 16.0645 11.8164 16.6504 12.3535 17.2852 12.3535 Z"/>
  </g>
  <g id="Thin-L" transform="matrix(1 0 0 1 812.599 1556)">
   <path d="M 18.1152 13.6719 C 18.7012 13.6719 19.0918 13.3789 19.5312 12.9883 L 70.4102 -33.1543 C 71.0449 -33.7891 71.5332 -34.4727 71.5332 -35.2539 C 71.5332 -36.084 71.1426 -36.6699 70.5078 -37.3047 L 19.6289 -83.3496 C 19.1406 -83.7402 18.7012 -84.1309 18.1152 -84.1309 C 16.9922 -84.1309 16.0645 -83.2031 16.0645 -82.0801 C 16.0645 -81.543 16.2109 -80.957 16.6016 -80.6641 L 66.5527 -35.2051 L 16.6016 10.1074 C 16.2109 10.498 16.0645 11.084 16.0645 11.6211 C 16.0645 12.7441 16.9922 13.6719 18.1152 13.6719 Z"/>
  </g>
  <g id="Light-L" transform="matrix(1 0 0 1 1107.99 1556)">
   <path d="M 19.7266 16.1621 C 20.752 16.1621 21.582 15.7227 22.3145 15.0391 L 72.7539 -32.2266 C 73.6328 -33.1055 74.2188 -34.1309 74.2188 -35.2539 C 74.2188 -36.4258 73.6816 -37.4512 72.8027 -38.2324 L 22.3633 -85.498 C 21.6309 -86.1816 20.752 -86.6699 19.7266 -86.6699 C 17.6758 -86.6699 16.0645 -85.0586 16.0645 -83.0078 C 16.0645 -82.0312 16.4551 -81.0547 17.0898 -80.4199 L 65.2344 -35.2051 L 17.0898 9.91211 C 16.4551 10.5957 16.0645 11.5234 16.0645 12.5 C 16.0645 14.5996 17.6758 16.1621 19.7266 16.1621 Z"/>
  </g>
  <g id="Regular-L" transform="matrix(1 0 0 1 1403.68 1556)">
   <path d="M 20.9473 18.0664 C 22.3145 18.0664 23.4375 17.5293 24.4141 16.6016 L 74.5605 -31.543 C 75.5859 -32.6172 76.2207 -33.8379 76.2207 -35.2539 C 76.2207 -36.6699 75.6348 -37.9883 74.5605 -38.9648 L 24.4141 -87.1094 C 23.4863 -87.9883 22.3145 -88.5742 20.9473 -88.5742 C 18.2129 -88.5742 16.0645 -86.4746 16.0645 -83.6914 C 16.0645 -82.4219 16.6016 -81.1523 17.4805 -80.2734 L 64.2578 -35.2539 L 17.4805 9.7168 C 16.6016 10.6445 16.0645 11.8652 16.0645 13.1836 C 16.0645 15.9668 18.2129 18.0664 20.9473 18.0664 Z"/>
  </g>
  <g id="Medium-L" transform="matrix(1 0 0 1 1699.24 1556)">
   <path d="M 22.4121 19.1895 C 24.1699 19.1895 25.5859 18.5547 26.8066 17.3828 L 76.2695 -30.3223 C 77.7344 -31.7871 78.5156 -33.3984 78.5156 -35.3027 C 78.5156 -37.207 77.7832 -38.8672 76.3184 -40.2832 L 26.8555 -87.9395 C 25.6348 -89.1113 24.1699 -89.7949 22.4121 -89.7949 C 18.8477 -89.7949 16.0645 -87.0117 16.0645 -83.4961 C 16.0645 -81.7871 16.7969 -80.1758 17.9688 -78.9551 L 63.3301 -35.2539 L 17.9688 8.34961 C 16.7969 9.57031 16.0645 11.1816 16.0645 12.8906 C 16.0645 16.4551 18.8477 19.1895 22.4121 19.1895 Z"/>
  </g>
  <g id="Semibold-L" transform="matrix(1 0 0 1 1995.07 1556)">
   <path d="M 23.5352 20.0684 C 25.5859 20.0684 27.2461 19.3359 28.6621 17.9199 L 77.5879 -29.3457 C 79.3945 -31.1523 80.2734 -33.0566 80.3223 -35.3027 C 80.3223 -37.5977 79.4434 -39.5508 77.6367 -41.2598 L 28.7109 -88.5742 C 27.2461 -89.9414 25.5371 -90.7227 23.5352 -90.7227 C 19.3848 -90.7227 16.0645 -87.4512 16.0645 -83.3496 C 16.0645 -81.3477 16.9434 -79.4434 18.3594 -77.9785 L 62.6465 -35.3027 L 18.3594 7.32422 C 16.8945 8.78906 16.0645 10.6445 16.0645 12.6953 C 16.0645 16.7969 19.3848 20.0684 23.5352 20.0684 Z"/>
  </g>
  <g id="Bold-L" transform="matrix(1 0 0 1 2290.61 1556)">
   <path d="M 25 21.2402 C 27.4414 21.2402 29.3945 20.3613 31.1035 18.7012 L 79.3457 -28.125 C 81.543 -30.3711 82.6172 -32.5684 82.6172 -35.3516 C 82.6172 -38.0859 81.5918 -40.4297 79.3457 -42.5781 L 31.1523 -89.4043 C 29.3945 -91.0645 27.3926 -91.9434 25 -91.9434 C 20.0684 -91.9434 16.0645 -87.9883 16.0645 -83.1543 C 16.0645 -80.7129 17.0898 -78.418 18.8965 -76.6602 L 61.6699 -35.3027 L 18.8965 5.95703 C 17.0898 7.71484 16.0645 9.96094 16.0645 12.4023 C 16.0645 17.2852 20.0684 21.2402 25 21.2402 Z"/>
  </g>
  <g id="Heavy-L" transform="matrix(1 0 0 1 2585.64 1556)">
   <path d="M 27.0996 22.9004 C 30.127 22.9004 32.5684 21.875 34.668 19.7754 L 81.8848 -26.3184 C 84.668 -29.1504 85.9375 -31.9336 85.9863 -35.4004 C 85.9863 -38.8672 84.7168 -41.6992 81.8848 -44.4824 L 34.668 -90.625 C 32.5195 -92.6758 30.0781 -93.7012 27.0996 -93.7012 C 21.0449 -93.7012 16.0645 -88.8184 16.0645 -82.8125 C 16.0645 -79.834 17.334 -77.002 19.6289 -74.7559 L 60.3027 -35.3516 L 19.6289 3.95508 C 17.334 6.20117 16.0645 8.98438 16.0645 11.9629 C 16.0645 17.9688 21.0449 22.9004 27.0996 22.9004 Z"/>
  </g>
  <g id="Black-L" transform="matrix(1 0 0 1 2880.84 1556)">
   <path d="M 29.0039 24.3652 C 32.5195 24.3652 35.4004 23.2422 37.8418 20.752 L 84.1309 -24.707 C 87.5 -28.125 88.9648 -31.2988 89.0137 -35.4492 C 89.0137 -39.502 87.5488 -42.8223 84.1309 -46.1914 L 37.8418 -91.6992 C 35.3027 -94.1406 32.4707 -95.3125 29.0039 -95.3125 C 21.9238 -95.3125 16.0645 -89.5508 16.0645 -82.5684 C 16.0645 -79.0039 17.5781 -75.7324 20.3125 -73.0469 L 59.082 -35.3516 L 20.3125 2.14844 C 17.5293 4.83398 16.0645 8.10547 16.0645 11.6211 C 16.0645 18.6035 21.9238 24.3652 29.0039 24.3652 Z"/>
  </g>
 </g>
</svg>
