<?xml version="1.0" encoding="UTF-8"?>
<!--Generator: Apple Native CoreSVG 123-->
<!DOCTYPE svg
PUBLIC "-//W3C//DTD SVG 1.1//EN"
       "http://www.w3.org/Graphics/SVG/1.1/DTD/svg11.dtd">
<svg version="1.1" xmlns="http://www.w3.org/2000/svg" xmlns:xlink="http://www.w3.org/1999/xlink" width="3300" height="2200">
 <!--glyph: "uni100419.medium", point size: 100.000000, font version: "Version 15.0d4e20", template writer version: "2"-->
 <g id="Notes">
  <rect height="2200" id="artboard" style="fill:white;opacity:1" width="3300" x="0" y="0"/>
  <line id="" style="fill:none;stroke:black;opacity:1;stroke-width:0.5;" x1="263" x2="3036" y1="292" y2="292"/>
  <text style="stroke:none;fill:black;font-family:-apple-system,&quot;SF Pro Display&quot;,&quot;SF Pro Text&quot;,Helvetica,sans-serif;font-weight:bold;" transform="matrix(1 0 0 1 263 322)">Weight/Scale Variations</text>
  <text style="stroke:none;fill:black;font-family:-apple-system,&quot;SF Pro Display&quot;,&quot;SF Pro Text&quot;,Helvetica,sans-serif;text-anchor:middle;" transform="matrix(1 0 0 1 559.711 322)">Ultralight</text>
  <text style="stroke:none;fill:black;font-family:-apple-system,&quot;SF Pro Display&quot;,&quot;SF Pro Text&quot;,Helvetica,sans-serif;text-anchor:middle;" transform="matrix(1 0 0 1 856.422 322)">Thin</text>
  <text style="stroke:none;fill:black;font-family:-apple-system,&quot;SF Pro Display&quot;,&quot;SF Pro Text&quot;,Helvetica,sans-serif;text-anchor:middle;" transform="matrix(1 0 0 1 1153.13 322)">Light</text>
  <text style="stroke:none;fill:black;font-family:-apple-system,&quot;SF Pro Display&quot;,&quot;SF Pro Text&quot;,Helvetica,sans-serif;text-anchor:middle;" transform="matrix(1 0 0 1 1449.84 322)">Regular</text>
  <text style="stroke:none;fill:black;font-family:-apple-system,&quot;SF Pro Display&quot;,&quot;SF Pro Text&quot;,Helvetica,sans-serif;text-anchor:middle;" transform="matrix(1 0 0 1 1746.56 322)">Medium</text>
  <text style="stroke:none;fill:black;font-family:-apple-system,&quot;SF Pro Display&quot;,&quot;SF Pro Text&quot;,Helvetica,sans-serif;text-anchor:middle;" transform="matrix(1 0 0 1 2043.27 322)">Semibold</text>
  <text style="stroke:none;fill:black;font-family:-apple-system,&quot;SF Pro Display&quot;,&quot;SF Pro Text&quot;,Helvetica,sans-serif;text-anchor:middle;" transform="matrix(1 0 0 1 2339.98 322)">Bold</text>
  <text style="stroke:none;fill:black;font-family:-apple-system,&quot;SF Pro Display&quot;,&quot;SF Pro Text&quot;,Helvetica,sans-serif;text-anchor:middle;" transform="matrix(1 0 0 1 2636.69 322)">Heavy</text>
  <text style="stroke:none;fill:black;font-family:-apple-system,&quot;SF Pro Display&quot;,&quot;SF Pro Text&quot;,Helvetica,sans-serif;text-anchor:middle;" transform="matrix(1 0 0 1 2933.4 322)">Black</text>
  <line id="" style="fill:none;stroke:black;opacity:1;stroke-width:0.5;" x1="263" x2="3036" y1="1903" y2="1903"/>
  <g id="" transform="matrix(1 0 0 1 263 1933)">
   <path d="M 9.24805 0.830078 C 13.5547 0.830078 17.1387 -2.74414 17.1387 -7.05078 C 17.1387 -11.3574 13.5449 -14.9316 9.23828 -14.9316 C 4.94141 -14.9316 1.36719 -11.3574 1.36719 -7.05078 C 1.36719 -2.74414 4.95117 0.830078 9.24805 0.830078 Z M 9.24805 -0.654297 C 5.70312 -0.654297 2.87109 -3.49609 2.87109 -7.05078 C 2.87109 -10.6055 5.69336 -13.4473 9.23828 -13.4473 C 12.793 -13.4473 15.6348 -10.6055 15.6445 -7.05078 C 15.6543 -3.49609 12.8027 -0.654297 9.24805 -0.654297 Z M 9.22852 -3.42773 C 9.69727 -3.42773 9.9707 -3.74023 9.9707 -4.25781 L 9.9707 -6.31836 L 12.1973 -6.31836 C 12.6953 -6.31836 13.0371 -6.57227 13.0371 -7.04102 C 13.0371 -7.51953 12.7148 -7.7832 12.1973 -7.7832 L 9.9707 -7.7832 L 9.9707 -10.0098 C 9.9707 -10.5273 9.69727 -10.8496 9.22852 -10.8496 C 8.75977 -10.8496 8.50586 -10.5078 8.50586 -10.0098 L 8.50586 -7.7832 L 6.29883 -7.7832 C 5.78125 -7.7832 5.44922 -7.51953 5.44922 -7.04102 C 5.44922 -6.57227 5.80078 -6.31836 6.29883 -6.31836 L 8.50586 -6.31836 L 8.50586 -4.25781 C 8.50586 -3.75977 8.75977 -3.42773 9.22852 -3.42773 Z"/>
  </g>
  <g id="" transform="matrix(1 0 0 1 281.506 1933)">
   <path d="M 11.709 2.91016 C 17.1484 2.91016 21.6699 -1.60156 21.6699 -7.05078 C 21.6699 -12.4902 17.1387 -17.0117 11.6992 -17.0117 C 6.25 -17.0117 1.74805 -12.4902 1.74805 -7.05078 C 1.74805 -1.60156 6.25977 2.91016 11.709 2.91016 Z M 11.709 1.25 C 7.09961 1.25 3.41797 -2.44141 3.41797 -7.05078 C 3.41797 -11.6504 7.08984 -15.3516 11.6992 -15.3516 C 16.2988 -15.3516 20 -11.6504 20.0098 -7.05078 C 20.0195 -2.44141 16.3086 1.25 11.709 1.25 Z M 11.6797 -2.41211 C 12.207 -2.41211 12.5195 -2.77344 12.5195 -3.33984 L 12.5195 -6.23047 L 15.5762 -6.23047 C 16.123 -6.23047 16.5039 -6.51367 16.5039 -7.03125 C 16.5039 -7.55859 16.1426 -7.86133 15.5762 -7.86133 L 12.5195 -7.86133 L 12.5195 -10.9277 C 12.5195 -11.5039 12.207 -11.8555 11.6797 -11.8555 C 11.1621 -11.8555 10.8789 -11.4844 10.8789 -10.9277 L 10.8789 -7.86133 L 7.83203 -7.86133 C 7.25586 -7.86133 6.89453 -7.55859 6.89453 -7.03125 C 6.89453 -6.51367 7.28516 -6.23047 7.83203 -6.23047 L 10.8789 -6.23047 L 10.8789 -3.33984 C 10.8789 -2.79297 11.1621 -2.41211 11.6797 -2.41211 Z"/>
  </g>
  <g id="" transform="matrix(1 0 0 1 304.914 1933)">
   <path d="M 14.9707 5.67383 C 21.9336 5.67383 27.6855 -0.078125 27.6855 -7.04102 C 27.6855 -14.0039 21.9238 -19.7559 14.9609 -19.7559 C 7.99805 -19.7559 2.25586 -14.0039 2.25586 -7.04102 C 2.25586 -0.078125 8.00781 5.67383 14.9707 5.67383 Z M 14.9707 3.85742 C 8.92578 3.85742 4.08203 -1.00586 4.08203 -7.04102 C 4.08203 -13.0762 8.91602 -17.9395 14.9609 -17.9395 C 20.9961 -17.9395 25.8594 -13.0762 25.8691 -7.04102 C 25.8789 -1.00586 21.0059 3.85742 14.9707 3.85742 Z M 14.9414 -1.06445 C 15.5176 -1.06445 15.8594 -1.45508 15.8594 -2.06055 L 15.8594 -6.13281 L 20.0977 -6.13281 C 20.6934 -6.13281 21.1133 -6.46484 21.1133 -7.02148 C 21.1133 -7.59766 20.7227 -7.93945 20.0977 -7.93945 L 15.8594 -7.93945 L 15.8594 -12.1875 C 15.8594 -12.8027 15.5176 -13.1934 14.9414 -13.1934 C 14.3848 -13.1934 14.0625 -12.7832 14.0625 -12.1875 L 14.0625 -7.93945 L 9.82422 -7.93945 C 9.20898 -7.93945 8.80859 -7.59766 8.80859 -7.02148 C 8.80859 -6.46484 9.23828 -6.13281 9.82422 -6.13281 L 14.0625 -6.13281 L 14.0625 -2.06055 C 14.0625 -1.47461 14.3848 -1.06445 14.9414 -1.06445 Z"/>
  </g>
  <text style="stroke:none;fill:black;font-family:-apple-system,&quot;SF Pro Display&quot;,&quot;SF Pro Text&quot;,Helvetica,sans-serif;font-weight:bold;" transform="matrix(1 0 0 1 263 1953)">Design Variations</text>
  <text style="stroke:none;fill:black;font-family:-apple-system,&quot;SF Pro Display&quot;,&quot;SF Pro Text&quot;,Helvetica,sans-serif;" transform="matrix(1 0 0 1 263 1971)">Symbols are supported in up to nine weights and three scales.</text>
  <text style="stroke:none;fill:black;font-family:-apple-system,&quot;SF Pro Display&quot;,&quot;SF Pro Text&quot;,Helvetica,sans-serif;" transform="matrix(1 0 0 1 263 1989)">For optimal layout with text and other symbols, vertically align</text>
  <text style="stroke:none;fill:black;font-family:-apple-system,&quot;SF Pro Display&quot;,&quot;SF Pro Text&quot;,Helvetica,sans-serif;" transform="matrix(1 0 0 1 263 2007)">symbols with the adjacent text.</text>
  <rect height="14" id="" style="fill:#00AEEF;stroke:none;opacity:0.4;" width="3" x="776" y="1919"/>
  <g id="" transform="matrix(1 0 0 1 779 1933)">
   <path d="M 10.5273 0 L 12.373 0 L 7.17773 -14.0918 L 5.43945 -14.0918 L 0.244141 0 L 2.08984 0 L 3.50586 -4.0332 L 9.11133 -4.0332 Z M 6.2793 -11.9531 L 6.33789 -11.9531 L 8.59375 -5.52734 L 4.02344 -5.52734 Z"/>
  </g>
  <rect height="14" id="" style="fill:#00AEEF;stroke:none;opacity:0.4;" width="3" x="791.617" y="1919"/>
  <text style="stroke:none;fill:black;font-family:-apple-system,&quot;SF Pro Display&quot;,&quot;SF Pro Text&quot;,Helvetica,sans-serif;font-weight:bold;" transform="matrix(1 0 0 1 776 1953)">Side Bearings</text>
  <text style="stroke:none;fill:black;font-family:-apple-system,&quot;SF Pro Display&quot;,&quot;SF Pro Text&quot;,Helvetica,sans-serif;" transform="matrix(1 0 0 1 776 1971)">Horizontal padding on the left and right side of each symbol</text>
  <text style="stroke:none;fill:black;font-family:-apple-system,&quot;SF Pro Display&quot;,&quot;SF Pro Text&quot;,Helvetica,sans-serif;" transform="matrix(1 0 0 1 776 1989)">can be adjusted by modifying the width of the blue rectangles.</text>
  <text style="stroke:none;fill:black;font-family:-apple-system,&quot;SF Pro Display&quot;,&quot;SF Pro Text&quot;,Helvetica,sans-serif;" transform="matrix(1 0 0 1 776 2007)">Modifications are automatically applied proportionally to all</text>
  <text style="stroke:none;fill:black;font-family:-apple-system,&quot;SF Pro Display&quot;,&quot;SF Pro Text&quot;,Helvetica,sans-serif;" transform="matrix(1 0 0 1 776 2025)">scales and weights.</text>
  <g id="" transform="matrix(1 0 0 1 1289 1933)">
   <path d="M 2.96875 2.35352 L 3.80859 3.19336 C 4.84375 4.22852 6.12305 4.15039 7.19727 2.97852 L 16.1621 -6.82617 C 16.5527 -6.74805 16.9629 -6.8457 17.4902 -7.02148 C 18.1738 -7.25586 18.2715 -7.25586 18.3887 -7.13867 C 18.5352 -7.01172 18.4863 -6.89453 18.2422 -6.25 C 17.8809 -5.33203 17.8125 -4.79492 18.5547 -4.02344 L 19.4238 -3.13477 C 20.2734 -2.24609 21.3281 -2.26562 22.2168 -3.14453 L 25.0586 -5.97656 C 25.9473 -6.86523 25.957 -7.92969 25.0781 -8.7793 L 24.1797 -9.64844 C 23.4082 -10.4004 22.8711 -10.3516 21.9629 -9.98047 C 21.3184 -9.72656 21.2012 -9.6875 21.0645 -9.81445 C 20.9375 -9.93164 20.9473 -10.0391 21.1816 -10.7129 C 21.5332 -11.6895 21.5723 -12.2852 20.752 -13.0957 L 19.3359 -14.5117 C 15.1953 -18.6133 11.2305 -18.7402 7.65625 -15.4395 C 7.08008 -14.9023 6.99219 -14.1504 7.53906 -13.6133 L 7.79297 -13.3594 C 8.22266 -12.9297 8.86719 -12.8418 9.41406 -13.1152 C 11.0645 -13.9453 12.2559 -14.0234 13.457 -12.9785 L 13.0273 -11.416 C 12.8516 -10.8008 12.793 -10.3418 12.9199 -9.93164 L 3.18359 -1.04492 C 2.02148 0.0292969 1.93359 1.32812 2.96875 2.35352 Z M 8.96484 -14.4922 C 8.89648 -14.5703 8.86719 -14.6582 8.99414 -14.7559 C 11.709 -17.2852 15.0391 -16.8457 18.3496 -13.5254 L 19.6973 -12.168 C 20.0879 -11.7773 20.0977 -11.582 19.8828 -10.8691 C 19.6582 -10.127 19.502 -9.53125 20.1465 -8.88672 C 20.8105 -8.22266 21.2891 -8.41797 22.207 -8.63281 C 22.9004 -8.79883 23.0664 -8.79883 23.4473 -8.41797 L 24.0918 -7.77344 C 24.4043 -7.48047 24.4141 -7.32422 24.0723 -6.97266 L 21.2207 -4.13086 C 20.8887 -3.79883 20.7227 -3.79883 20.4297 -4.10156 L 19.7852 -4.75586 C 19.4141 -5.13672 19.4141 -5.30273 19.5801 -6.01562 C 19.7852 -6.88477 19.9805 -7.38281 19.3262 -8.04688 C 18.6719 -8.7207 18.0762 -8.57422 17.3438 -8.33008 C 16.5625 -8.06641 16.3281 -8.06641 15.8984 -8.49609 L 14.6094 -9.78516 C 14.1699 -10.2246 14.1309 -10.4395 14.2676 -10.9082 L 15.0293 -13.3984 C 13.3887 -15.2832 11.4941 -15.5566 9.20898 -14.4434 C 9.11133 -14.3945 9.04297 -14.4141 8.96484 -14.4922 Z M 3.96484 1.36719 C 3.52539 0.927734 3.54492 0.537109 4.14062 -0.00976562 L 13.7402 -8.81836 L 15 -7.55859 L 6.17188 2.02148 C 5.625 2.60742 5.24414 2.64648 4.79492 2.19727 Z"/>
  </g>
  <text style="stroke:none;fill:black;font-family:-apple-system,&quot;SF Pro Display&quot;,&quot;SF Pro Text&quot;,Helvetica,sans-serif;font-weight:bold;" transform="matrix(1 0 0 1 1289 1953)">Exporting</text>
  <text style="stroke:none;fill:black;font-family:-apple-system,&quot;SF Pro Display&quot;,&quot;SF Pro Text&quot;,Helvetica,sans-serif;" transform="matrix(1 0 0 1 1289 1971)">Symbols should be outlined when exporting to ensure the</text>
  <text style="stroke:none;fill:black;font-family:-apple-system,&quot;SF Pro Display&quot;,&quot;SF Pro Text&quot;,Helvetica,sans-serif;" transform="matrix(1 0 0 1 1289 1989)">design is preserved when submitting to Xcode.</text>
  <text id="template-version" style="stroke:none;fill:black;font-family:-apple-system,&quot;SF Pro Display&quot;,&quot;SF Pro Text&quot;,Helvetica,sans-serif;text-anchor:end;" transform="matrix(1 0 0 1 3036 1933)">Template v.0.1</text>
  <text style="stroke:none;fill:black;font-family:-apple-system,&quot;SF Pro Display&quot;,&quot;SF Pro Text&quot;,Helvetica,sans-serif;text-anchor:end;" transform="matrix(1 0 0 1 3036 1951)">Generated from cube.fill</text>
  <text style="stroke:none;fill:black;font-family:-apple-system,&quot;SF Pro Display&quot;,&quot;SF Pro Text&quot;,Helvetica,sans-serif;text-anchor:end;" transform="matrix(1 0 0 1 3036 1969)">Typeset at 100 points</text>
  <text style="stroke:none;fill:black;font-family:-apple-system,&quot;SF Pro Display&quot;,&quot;SF Pro Text&quot;,Helvetica,sans-serif;" transform="matrix(1 0 0 1 263 726)">Small</text>
  <text style="stroke:none;fill:black;font-family:-apple-system,&quot;SF Pro Display&quot;,&quot;SF Pro Text&quot;,Helvetica,sans-serif;" transform="matrix(1 0 0 1 263 1156)">Medium</text>
  <text style="stroke:none;fill:black;font-family:-apple-system,&quot;SF Pro Display&quot;,&quot;SF Pro Text&quot;,Helvetica,sans-serif;" transform="matrix(1 0 0 1 263 1586)">Large</text>
 </g>
 <g id="Guides">
  <g id="H-reference" style="fill:#27AAE1;stroke:none;" transform="matrix(1 0 0 1 339 696)">
   <path d="M 54.9316 0 L 57.666 0 L 30.5664 -70.459 L 28.0762 -70.459 L 0.976562 0 L 3.66211 0 L 12.9395 -24.4629 L 45.7031 -24.4629 Z M 29.1992 -67.0898 L 29.4434 -67.0898 L 44.8242 -26.709 L 13.8184 -26.709 Z"/>
  </g>
  <line id="Baseline-S" style="fill:none;stroke:#27AAE1;opacity:1;stroke-width:0.577;" x1="263" x2="3036" y1="696" y2="696"/>
  <line id="Capline-S" style="fill:none;stroke:#27AAE1;opacity:1;stroke-width:0.577;" x1="263" x2="3036" y1="625.541" y2="625.541"/>
  <g id="H-reference" style="fill:#27AAE1;stroke:none;" transform="matrix(1 0 0 1 339 1126)">
   <path d="M 54.9316 0 L 57.666 0 L 30.5664 -70.459 L 28.0762 -70.459 L 0.976562 0 L 3.66211 0 L 12.9395 -24.4629 L 45.7031 -24.4629 Z M 29.1992 -67.0898 L 29.4434 -67.0898 L 44.8242 -26.709 L 13.8184 -26.709 Z"/>
  </g>
  <line id="Baseline-M" style="fill:none;stroke:#27AAE1;opacity:1;stroke-width:0.577;" x1="263" x2="3036" y1="1126" y2="1126"/>
  <line id="Capline-M" style="fill:none;stroke:#27AAE1;opacity:1;stroke-width:0.577;" x1="263" x2="3036" y1="1055.54" y2="1055.54"/>
  <g id="H-reference" style="fill:#27AAE1;stroke:none;" transform="matrix(1 0 0 1 339 1556)">
   <path d="M 54.9316 0 L 57.666 0 L 30.5664 -70.459 L 28.0762 -70.459 L 0.976562 0 L 3.66211 0 L 12.9395 -24.4629 L 45.7031 -24.4629 Z M 29.1992 -67.0898 L 29.4434 -67.0898 L 44.8242 -26.709 L 13.8184 -26.709 Z"/>
  </g>
  <line id="Baseline-L" style="fill:none;stroke:#27AAE1;opacity:1;stroke-width:0.577;" x1="263" x2="3036" y1="1556" y2="1556"/>
  <line id="Capline-L" style="fill:none;stroke:#27AAE1;opacity:1;stroke-width:0.577;" x1="263" x2="3036" y1="1485.54" y2="1485.54"/>
  <rect height="119.336" id="left-margin" style="fill:#00AEEF;stroke:none;opacity:0.4;" width="12.4512" x="1387.83" y="1030.79"/>
  <rect height="119.336" id="right-margin" style="fill:#00AEEF;stroke:none;opacity:0.4;" width="12.4512" x="1499.41" y="1030.79"/>
 </g>
 <g id="Symbols">
  <g id="Ultralight-S" transform="matrix(1 0 0 1 512.47 696)">
   <path d="M 47.2656 -36.2793 L 83.3496 -56.1035 C 83.0566 -56.4453 82.7637 -56.6895 81.9824 -57.1289 L 51.123 -74.3164 C 49.707 -75.0977 48.4863 -75.4883 47.2656 -75.4883 C 45.9961 -75.4883 44.7754 -75.0977 43.4082 -74.3164 L 12.5488 -57.0801 C 11.8164 -56.6895 11.4258 -56.4453 11.1816 -56.1035 Z M 45.7031 3.90625 L 45.7031 -33.5449 L 9.96094 -52.9297 C 9.81445 -52.5391 9.76562 -52.0996 9.76562 -51.2207 L 9.76562 -19.5801 C 9.76562 -16.6504 10.6445 -15.0879 13.3301 -13.623 L 44.7266 3.51562 C 45.0195 3.66211 45.3613 3.90625 45.7031 3.90625 Z M 48.7793 3.90625 C 49.1211 3.90625 49.5117 3.66211 49.8047 3.51562 L 81.2012 -13.623 C 83.8379 -15.0879 84.7168 -16.6504 84.7168 -19.5801 L 84.7168 -51.2207 C 84.7168 -52.0996 84.668 -52.5391 84.5215 -52.9297 L 48.7793 -33.5449 Z"/>
  </g>
  <g id="Thin-S" transform="matrix(1 0 0 1 808.79 696)">
   <path d="M 47.6074 -36.4746 L 83.6914 -56.4941 C 83.3496 -56.8848 82.9102 -57.2266 82.1289 -57.666 L 52.3438 -74.3164 C 50.6836 -75.2441 49.1699 -75.7324 47.6074 -75.7324 C 46.0938 -75.7324 44.5312 -75.2441 42.9199 -74.3164 L 13.1348 -57.6172 C 12.3535 -57.2266 11.9141 -56.8848 11.5723 -56.4941 Z M 45.8008 4.73633 L 45.8008 -33.2031 L 10.0098 -52.9297 C 9.81445 -52.4414 9.76562 -51.8066 9.76562 -50.8789 L 9.76562 -19.7754 C 9.76562 -16.1133 10.9375 -14.4043 13.8672 -12.793 L 44.873 4.3457 C 45.1172 4.49219 45.459 4.6875 45.8008 4.73633 Z M 49.4629 4.73633 C 49.7559 4.6875 50.0977 4.49219 50.3906 4.3457 L 81.3965 -12.793 C 84.2773 -14.4043 85.498 -16.1133 85.498 -19.7754 L 85.498 -50.8789 C 85.498 -51.8066 85.4004 -52.4414 85.2539 -52.9297 L 49.4629 -33.2031 Z"/>
  </g>
  <g id="Light-S" transform="matrix(1 0 0 1 1104.79 696)">
   <path d="M 48.3398 -36.8652 L 84.375 -57.2266 C 83.8379 -57.7148 83.252 -58.1543 82.4219 -58.6426 L 54.7363 -74.3652 C 52.5391 -75.5859 50.4395 -76.2207 48.3398 -76.2207 C 46.2402 -76.2207 44.1406 -75.5859 41.9434 -74.3652 L 14.2578 -58.6426 C 13.4277 -58.1543 12.793 -57.7148 12.3047 -57.2266 Z M 45.9473 6.29883 L 45.9473 -32.6172 L 10.0586 -52.9297 C 9.86328 -52.1973 9.76562 -51.3184 9.76562 -50.2441 L 9.76562 -20.1172 C 9.76562 -15.0391 11.5234 -13.0371 14.8926 -11.1328 L 45.1172 5.95703 C 45.3613 6.10352 45.6543 6.25 45.9473 6.29883 Z M 50.7324 6.29883 C 51.0254 6.25 51.2695 6.10352 51.5625 5.95703 L 81.7871 -11.1328 C 85.1562 -13.0371 86.9141 -15.0391 86.9141 -20.1172 L 86.9141 -50.2441 C 86.9141 -51.3184 86.8164 -52.1973 86.6211 -52.9297 L 50.7324 -32.6172 Z"/>
  </g>
  <g id="Regular-S" transform="matrix(1 0 0 1 1400.97 696)">
   <path d="M 48.877 -37.1582 L 84.9121 -57.7637 C 84.2773 -58.3984 83.4961 -58.8867 82.6172 -59.375 L 56.543 -74.3652 C 53.9551 -75.8301 51.416 -76.6113 48.877 -76.6113 C 46.3867 -76.6113 43.7988 -75.8301 41.2598 -74.3652 L 15.1367 -59.375 C 14.2578 -58.8867 13.5254 -58.3984 12.8418 -57.7637 Z M 46.0449 7.51953 L 46.0449 -32.1777 L 10.1074 -52.9297 C 9.86328 -52.002 9.76562 -50.9277 9.76562 -49.7559 L 9.76562 -20.3613 C 9.76562 -14.209 11.9141 -12.0605 15.6738 -9.86328 L 45.3125 7.17773 C 45.5566 7.32422 45.8008 7.42188 46.0449 7.51953 Z M 51.709 7.51953 C 52.002 7.42188 52.1973 7.32422 52.4414 7.17773 L 82.0801 -9.86328 C 85.8398 -12.0605 87.9883 -14.209 87.9883 -20.3613 L 87.9883 -49.7559 C 87.9883 -50.9277 87.8906 -52.002 87.6465 -52.9297 L 51.709 -32.1777 Z"/>
  </g>
  <g id="Medium-S" transform="matrix(1 0 0 1 1697.34 696)">
   <path d="M 49.2188 -38.1836 L 85.6445 -58.5938 C 84.9121 -59.2773 84.1309 -59.8145 83.1543 -60.3516 L 57.0312 -75 C 54.4922 -76.4648 51.8555 -77.1973 49.2188 -77.1973 C 46.6309 -77.1973 43.9941 -76.4648 41.4062 -75 L 15.2832 -60.3516 C 14.3555 -59.8145 13.5254 -59.2773 12.8418 -58.5938 Z M 46.1914 7.17773 L 46.1914 -32.7637 L 10.0098 -53.2715 C 9.81445 -52.4902 9.76562 -51.6602 9.76562 -50.6348 L 9.76562 -20.166 C 9.76562 -14.3066 11.8164 -11.9629 15.7227 -9.76562 L 45.0195 6.68945 C 45.4102 6.93359 45.8008 7.08008 46.1914 7.17773 Z M 52.2461 7.17773 C 52.6855 7.08008 53.0273 6.93359 53.418 6.68945 L 82.7148 -9.76562 C 86.6211 -11.9629 88.6719 -14.3066 88.6719 -20.166 L 88.6719 -50.6348 C 88.6719 -51.6602 88.623 -52.4902 88.4277 -53.2715 L 52.2461 -32.7637 Z"/>
  </g>
  <g id="Semibold-S" transform="matrix(1 0 0 1 1993.78 696)">
   <path d="M 49.4629 -39.0137 L 86.1816 -59.2285 C 85.4492 -59.9121 84.5703 -60.498 83.5938 -61.0352 L 57.4707 -75.4883 C 54.8828 -76.9043 52.1973 -77.6367 49.5117 -77.6367 C 46.8262 -77.6367 44.0918 -76.9043 41.5527 -75.4883 L 15.4297 -61.0352 C 14.4043 -60.498 13.5254 -59.9121 12.793 -59.2285 Z M 46.2891 6.93359 L 46.2891 -33.252 L 9.96094 -53.5645 C 9.81445 -52.8809 9.76562 -52.1973 9.76562 -51.3672 L 9.76562 -20.0195 C 9.76562 -14.3555 11.7188 -11.9141 15.7715 -9.7168 L 44.7754 6.34766 C 45.2637 6.64062 45.8008 6.83594 46.2891 6.93359 Z M 52.6855 6.93359 C 53.1738 6.83594 53.6621 6.64062 54.1992 6.34766 L 83.2031 -9.7168 C 87.207 -11.9141 89.209 -14.3555 89.209 -20.0195 L 89.209 -51.3672 C 89.209 -52.1973 89.1602 -52.8809 89.0137 -53.5645 L 52.6855 -33.252 Z"/>
  </g>
  <g id="Bold-S" transform="matrix(1 0 0 1 2290.15 696)">
   <path d="M 49.8535 -40.0391 L 86.9141 -60.1074 C 86.1328 -60.791 85.2051 -61.4258 84.1309 -62.0117 L 58.0078 -76.123 C 55.4199 -77.5391 52.6367 -78.2715 49.8535 -78.2715 C 47.0703 -78.2715 44.2871 -77.5391 41.6992 -76.123 L 15.5762 -62.0117 C 14.502 -61.4258 13.5742 -60.791 12.793 -60.1074 Z M 46.4355 6.5918 L 46.4355 -33.8867 L 9.86328 -53.9062 C 9.81445 -53.418 9.76562 -52.8809 9.76562 -52.2461 L 9.76562 -19.8242 C 9.76562 -14.4531 11.6211 -11.8652 15.8203 -9.57031 L 44.4336 5.85938 C 45.1172 6.25 45.8008 6.49414 46.4355 6.5918 Z M 53.2227 6.5918 C 53.8574 6.49414 54.541 6.25 55.2246 5.85938 L 83.8379 -9.57031 C 88.0371 -11.8652 89.8926 -14.4531 89.8926 -19.8242 L 89.8926 -52.2461 C 89.8926 -52.8809 89.8438 -53.418 89.7949 -53.9062 L 53.2227 -33.8867 Z"/>
  </g>
  <g id="Heavy-S" transform="matrix(1 0 0 1 2586.35 696)">
   <path d="M 50.3418 -41.6016 L 87.9395 -61.3281 C 87.1094 -62.1094 86.1328 -62.793 84.9121 -63.3789 L 58.7402 -77.0996 C 56.2012 -78.4668 53.2715 -79.1016 50.3906 -79.1016 C 47.4121 -79.1016 44.5312 -78.4668 41.9434 -77.0996 L 15.8203 -63.3789 C 14.5996 -62.793 13.5742 -62.1094 12.793 -61.3281 Z M 46.6797 6.15234 L 46.6797 -34.8145 L 9.76562 -54.4434 C 9.76562 -54.1504 9.76562 -53.9062 9.76562 -53.5645 L 9.76562 -19.5312 C 9.76562 -14.5508 11.4746 -11.7676 15.918 -9.42383 L 43.9941 5.17578 C 44.873 5.66406 45.8008 6.05469 46.6797 6.15234 Z M 54.0039 6.15234 C 54.8828 6.05469 55.8105 5.66406 56.6895 5.17578 L 84.7168 -9.42383 C 89.209 -11.7676 90.918 -14.5508 90.918 -19.5312 L 90.918 -53.5645 C 90.918 -53.9062 90.918 -54.1504 90.918 -54.4434 L 54.0039 -34.8145 Z"/>
  </g>
  <g id="Black-S" transform="matrix(1 0 0 1 2882.62 696)">
   <path d="M 50.7812 -42.9688 L 88.8672 -62.4023 C 87.9883 -63.2324 86.9141 -63.9648 85.5957 -64.6484 L 59.4727 -77.9297 C 56.8848 -79.248 53.8574 -79.8828 50.8301 -79.8828 C 47.7539 -79.8828 44.7266 -79.248 42.1875 -77.9297 L 16.0156 -64.6484 C 14.6973 -63.9648 13.623 -63.2324 12.7441 -62.4023 Z M 46.875 5.71289 L 46.875 -35.6445 L 9.66797 -54.9316 C 9.7168 -54.834 9.76562 -54.834 9.76562 -54.7852 L 9.76562 -19.2871 C 9.76562 -14.6973 11.3281 -11.6699 16.0156 -9.27734 L 43.5547 4.54102 C 44.6777 5.12695 45.8008 5.61523 46.875 5.71289 Z M 54.7363 5.71289 C 55.7617 5.61523 56.8848 5.12695 58.0078 4.54102 L 85.5469 -9.27734 C 90.2344 -11.6699 91.7969 -14.6973 91.7969 -19.2871 L 91.7969 -54.7852 C 91.7969 -54.834 91.8457 -54.834 91.8945 -54.9316 L 54.7363 -35.6445 Z"/>
  </g>
  <g id="Ultralight-M" transform="matrix(1 0 0 1 499.53 1126)">
   <path d="M 60.1562 -36.4746 L 106.25 -61.7188 C 105.908 -62.1582 105.566 -62.4512 104.59 -62.9883 L 64.7461 -85.1074 C 63.0859 -86.0352 61.6211 -86.5234 60.1562 -86.5234 C 58.6914 -86.5234 57.2266 -86.0352 55.5664 -85.1074 L 15.7715 -62.9395 C 14.8438 -62.4512 14.4043 -62.1582 14.1113 -61.7188 Z M 58.3496 14.4043 L 58.3496 -33.1543 L 12.6953 -57.8125 C 12.5488 -57.4219 12.4512 -56.8359 12.4512 -55.8105 L 12.4512 -15.1855 C 12.4512 -11.7676 13.4766 -9.76562 16.7969 -7.95898 L 57.0312 13.916 C 57.373 14.0625 57.9102 14.4043 58.3496 14.4043 Z M 62.0117 14.4043 C 62.4512 14.4043 62.9395 14.0625 63.3301 13.916 L 103.564 -7.95898 C 106.836 -9.76562 107.861 -11.7676 107.861 -15.1855 L 107.861 -55.8105 C 107.861 -56.8359 107.812 -57.4219 107.617 -57.8125 L 62.0117 -33.1543 Z"/>
  </g>
  <g id="Thin-M" transform="matrix(1 0 0 1 795.827 1126)">
   <path d="M 60.5957 -36.7188 L 106.641 -62.1582 C 106.25 -62.6465 105.762 -62.9883 104.736 -63.5742 L 66.1621 -85.1074 C 64.209 -86.2305 62.4023 -86.8164 60.5957 -86.8164 C 58.7891 -86.8164 56.9824 -86.2305 55.0293 -85.1074 L 16.4551 -63.5254 C 15.4785 -62.9883 14.9414 -62.6465 14.5508 -62.1582 Z M 58.3984 15.332 L 58.3984 -32.8125 L 12.7441 -57.8125 C 12.5488 -57.2754 12.4512 -56.543 12.4512 -55.4199 L 12.4512 -15.3809 C 12.4512 -11.1328 13.8184 -8.98438 17.3828 -7.03125 L 57.1777 14.8438 C 57.5195 15.0391 58.0078 15.2832 58.3984 15.332 Z M 62.7441 15.332 C 63.1836 15.2832 63.623 15.0391 64.0137 14.8438 L 103.809 -7.03125 C 107.373 -8.98438 108.691 -11.1328 108.691 -15.3809 L 108.691 -55.4199 C 108.691 -56.543 108.643 -57.2754 108.447 -57.8125 L 62.7441 -32.8125 Z"/>
  </g>
  <g id="Light-M" transform="matrix(1 0 0 1 1091.73 1126)">
   <path d="M 61.377 -37.1582 L 107.422 -62.9883 C 106.836 -63.623 106.104 -64.1113 105.078 -64.6973 L 68.8477 -85.1562 C 66.3086 -86.6211 63.8184 -87.3535 61.377 -87.3535 C 58.9844 -87.3535 56.4941 -86.6211 53.9551 -85.1562 L 17.7246 -64.6484 C 16.6992 -64.1113 15.9668 -63.623 15.3809 -62.9883 Z M 58.5449 17.1387 L 58.5449 -32.1289 L 12.793 -57.8125 C 12.5488 -56.9824 12.4512 -56.0059 12.4512 -54.6875 L 12.4512 -15.7715 C 12.4512 -9.91211 14.4531 -7.4707 18.5547 -5.17578 L 57.4707 16.6504 C 57.8125 16.8457 58.2031 17.041 58.5449 17.1387 Z M 64.2578 17.1387 C 64.5996 17.041 64.9902 16.8457 65.332 16.6504 L 104.248 -5.17578 C 108.35 -7.4707 110.352 -9.91211 110.352 -15.7715 L 110.352 -54.6875 C 110.352 -56.0059 110.254 -56.9824 109.961 -57.8125 L 64.2578 -32.1289 Z"/>
  </g>
  <g id="Regular-M" transform="matrix(1 0 0 1 1387.83 1126)">
   <path d="M 62.0117 -37.5 L 108.008 -63.623 C 107.275 -64.3555 106.396 -64.9414 105.322 -65.5273 L 70.8984 -85.1562 C 67.8711 -86.8652 64.9414 -87.793 62.0117 -87.793 C 59.082 -87.793 56.1523 -86.8652 53.125 -85.1562 L 18.7012 -65.5273 C 17.627 -64.9414 16.748 -64.3555 16.0156 -63.623 Z M 58.6914 18.457 L 58.6914 -31.6406 L 12.8418 -57.8125 C 12.5977 -56.7383 12.4512 -55.5664 12.4512 -54.1016 L 12.4512 -16.0645 C 12.4512 -8.98438 14.9414 -6.34766 19.4824 -3.75977 L 57.7148 18.0176 C 58.0566 18.2129 58.3496 18.3594 58.6914 18.457 Z M 65.332 18.457 C 65.6738 18.3594 65.9668 18.2129 66.3086 18.0176 L 104.541 -3.75977 C 109.082 -6.34766 111.572 -8.98438 111.572 -16.0645 L 111.572 -54.1016 C 111.572 -55.5664 111.426 -56.7383 111.182 -57.8125 L 65.332 -31.6406 Z"/>
  </g>
  <g id="Medium-M" transform="matrix(1 0 0 1 1684.13 1126)">
   <path d="M 62.4512 -38.5742 L 108.838 -64.5508 C 108.008 -65.332 107.08 -65.9668 105.908 -66.6016 L 71.6797 -85.8398 C 68.6035 -87.5488 65.5273 -88.4277 62.4512 -88.4277 C 59.375 -88.4277 56.25 -87.5488 53.2227 -85.8398 L 18.9941 -66.6016 C 17.8223 -65.9668 16.8457 -65.332 16.0645 -64.5508 Z M 58.8379 18.3105 L 58.8379 -32.2266 L 12.793 -58.2031 C 12.5488 -57.2266 12.4512 -56.2012 12.4512 -54.9805 L 12.4512 -15.918 C 12.4512 -8.93555 14.8926 -6.15234 19.6289 -3.4668 L 57.4219 17.7246 C 57.9102 17.9688 58.3496 18.2129 58.8379 18.3105 Z M 66.0156 18.3105 C 66.5039 18.2129 66.9922 17.9688 67.4805 17.7246 L 105.225 -3.4668 C 109.961 -6.15234 112.402 -8.93555 112.402 -15.918 L 112.402 -54.9805 C 112.402 -56.2012 112.305 -57.2266 112.061 -58.2031 L 66.0156 -32.2266 Z"/>
  </g>
  <g id="Semibold-M" transform="matrix(1 0 0 1 1980.5 1126)">
   <path d="M 62.7441 -39.4531 L 109.424 -65.2344 C 108.594 -66.0645 107.568 -66.748 106.348 -67.4316 L 72.2656 -86.3281 C 69.1895 -88.0371 65.9668 -88.916 62.793 -88.916 C 59.5703 -88.916 56.3477 -88.0371 53.2715 -86.3281 L 19.1895 -67.4316 C 17.9688 -66.748 16.9434 -66.0645 16.1133 -65.2344 Z M 58.9844 18.1641 L 58.9844 -32.666 L 12.7441 -58.4961 C 12.5488 -57.6172 12.4512 -56.7383 12.4512 -55.6152 L 12.4512 -15.7715 C 12.4512 -8.93555 14.8438 -6.00586 19.7754 -3.27148 L 57.1777 17.4805 C 57.7637 17.8223 58.3984 18.0664 58.9844 18.1641 Z M 66.5527 18.1641 C 67.1387 18.0664 67.7246 17.8223 68.3594 17.4805 L 105.762 -3.27148 C 110.693 -6.00586 113.037 -8.93555 113.037 -15.7715 L 113.037 -55.6152 C 113.037 -56.7383 112.988 -57.6172 112.793 -58.4961 L 66.5527 -32.666 Z"/>
  </g>
  <g id="Bold-M" transform="matrix(1 0 0 1 2276.79 1126)">
   <path d="M 63.1836 -40.5762 L 110.254 -66.2109 C 109.326 -67.041 108.252 -67.7734 106.934 -68.5059 L 73.0469 -87.0117 C 69.9219 -88.7207 66.5527 -89.5996 63.2324 -89.5996 C 59.8633 -89.5996 56.4941 -88.7207 53.3691 -87.0117 L 19.4824 -68.5059 C 18.1641 -67.7734 17.0898 -67.041 16.1621 -66.2109 Z M 59.1309 18.0176 L 59.1309 -33.252 L 12.6465 -58.8379 C 12.5 -58.1543 12.4512 -57.373 12.4512 -56.4941 L 12.4512 -15.625 C 12.4512 -8.88672 14.7949 -5.76172 19.9219 -2.97852 L 56.8848 17.1387 C 57.666 17.5781 58.3984 17.9199 59.1309 18.0176 Z M 67.2363 18.0176 C 67.9688 17.9199 68.75 17.5781 69.4824 17.1387 L 106.445 -2.97852 C 111.572 -5.76172 113.916 -8.88672 113.916 -15.625 L 113.916 -56.4941 C 113.916 -57.373 113.867 -58.1543 113.721 -58.8379 L 67.2363 -33.252 Z"/>
  </g>
  <g id="Heavy-M" transform="matrix(1 0 0 1 2572.87 1126)">
   <path d="M 63.8184 -42.1875 L 111.426 -67.5781 C 110.449 -68.5059 109.229 -69.2871 107.764 -70.0684 L 74.2188 -87.9395 C 70.9473 -89.6973 67.4316 -90.5762 63.8672 -90.5762 C 60.2539 -90.5762 56.6895 -89.6973 53.4668 -87.9395 L 19.9219 -70.0684 C 18.457 -69.2871 17.2363 -68.5059 16.2598 -67.5781 Z M 59.375 17.7734 L 59.375 -34.082 L 12.5488 -59.375 C 12.5 -58.8379 12.4512 -58.3496 12.4512 -57.7637 L 12.4512 -15.3809 C 12.4512 -8.88672 14.6973 -5.46875 20.166 -2.58789 L 56.4453 16.6992 C 57.4219 17.2363 58.4473 17.627 59.375 17.7734 Z M 68.2129 17.7734 C 69.1895 17.627 70.166 17.2363 71.1914 16.6992 L 107.471 -2.58789 C 112.891 -5.46875 115.137 -8.88672 115.137 -15.3809 L 115.137 -57.7637 C 115.137 -58.3496 115.137 -58.8379 115.088 -59.375 L 68.2129 -34.082 Z"/>
  </g>
  <g id="Black-M" transform="matrix(1 0 0 1 2869.04 1126)">
   <path d="M 64.3555 -43.6035 L 112.451 -68.7988 C 111.377 -69.7754 110.107 -70.6543 108.496 -71.4844 L 75.2441 -88.8184 C 71.9238 -90.5762 68.1641 -91.4551 64.4043 -91.4551 C 60.5957 -91.4551 56.8848 -90.5762 53.5645 -88.8184 L 20.2637 -71.4844 C 18.7012 -70.6543 17.3828 -69.7754 16.3086 -68.7988 Z M 59.6191 17.5293 L 59.6191 -34.8633 L 12.4512 -59.8633 C 12.4512 -59.5215 12.4512 -59.2285 12.4512 -58.8867 L 12.4512 -15.1855 C 12.4512 -8.83789 14.6484 -5.22461 20.3613 -2.19727 L 56.0547 16.2598 C 57.2754 16.8945 58.4473 17.4316 59.6191 17.5293 Z M 69.1406 17.5293 C 70.2637 17.4316 71.4844 16.8945 72.6562 16.2598 L 108.35 -2.19727 C 114.111 -5.22461 116.26 -8.83789 116.26 -15.1855 L 116.26 -58.8867 C 116.26 -59.2285 116.26 -59.5215 116.26 -59.8633 L 69.1406 -34.8633 Z"/>
  </g>
  <g id="Ultralight-L" transform="matrix(1 0 0 1 482.245 1556)">
   <path d="M 77.4414 -36.7676 L 136.914 -69.2383 C 136.572 -69.7266 136.133 -70.1172 134.863 -70.8496 L 82.959 -99.6094 C 80.957 -100.732 79.1992 -101.318 77.4414 -101.318 C 75.6836 -101.318 73.9746 -100.732 71.9727 -99.6094 L 20.0684 -70.752 C 18.8965 -70.1172 18.3594 -69.7266 18.0176 -69.2383 Z M 75.2441 28.418 L 75.2441 -32.7148 L 16.4062 -64.4043 C 16.1621 -63.916 16.0645 -63.2324 16.0645 -61.9141 L 16.0645 -9.27734 C 16.0645 -5.22461 17.2852 -2.73438 21.3867 -0.488281 L 73.4863 27.7832 C 73.9746 27.9785 74.6582 28.418 75.2441 28.418 Z M 79.6875 28.418 C 80.2734 28.418 80.957 27.9785 81.4453 27.7832 L 133.545 -0.488281 C 137.646 -2.73438 138.818 -5.22461 138.818 -9.27734 L 138.818 -61.9141 C 138.818 -63.2324 138.77 -63.916 138.525 -64.4043 L 79.6875 -32.7148 Z"/>
  </g>
  <g id="Thin-L" transform="matrix(1 0 0 1 778.493 1556)">
   <path d="M 77.9297 -37.0117 L 137.354 -69.6777 C 136.865 -70.3125 136.328 -70.752 135.059 -71.4844 L 84.5215 -99.6094 C 82.1777 -100.928 80.0293 -101.611 77.9297 -101.611 C 75.8301 -101.611 73.6816 -100.928 71.3379 -99.6094 L 20.8008 -71.3867 C 19.5801 -70.752 18.9453 -70.3125 18.5059 -69.6777 Z M 75.3418 29.4434 L 75.3418 -32.3242 L 16.4062 -64.4043 C 16.1621 -63.7207 16.0645 -62.9395 16.0645 -61.5234 L 16.0645 -9.47266 C 16.0645 -4.49219 17.627 -1.85547 22.0703 0.585938 L 73.6816 28.8086 C 74.1699 29.0527 74.7559 29.4434 75.3418 29.4434 Z M 80.5176 29.4434 C 81.1035 29.4434 81.6895 29.0527 82.1777 28.8086 L 133.789 0.585938 C 138.232 -1.85547 139.746 -4.49219 139.746 -9.47266 L 139.746 -61.5234 C 139.746 -62.9395 139.697 -63.7207 139.404 -64.4043 L 80.5176 -32.3242 Z"/>
  </g>
  <g id="Light-L" transform="matrix(1 0 0 1 1074.3 1556)">
   <path d="M 78.8086 -37.5 L 138.232 -70.6055 C 137.549 -71.3867 136.768 -71.9727 135.4 -72.7051 L 87.5 -99.6582 C 84.5215 -101.318 81.6406 -102.246 78.8086 -102.246 C 76.0254 -102.246 73.1445 -101.318 70.1172 -99.6582 L 22.2656 -72.6562 C 20.9473 -71.9727 20.1172 -71.3867 19.4336 -70.6055 Z M 75.4883 31.4453 L 75.4883 -31.5918 L 16.5039 -64.4043 C 16.2109 -63.4277 16.0645 -62.3047 16.0645 -60.6934 L 16.0645 -9.91211 C 16.0645 -3.125 18.3594 -0.146484 23.3887 2.68555 L 74.0234 30.8105 C 74.4629 31.0547 75 31.3965 75.4883 31.4453 Z M 82.1777 31.4453 C 82.666 31.3965 83.2031 31.0547 83.6426 30.8105 L 134.277 2.68555 C 139.307 -0.146484 141.553 -3.125 141.553 -9.91211 L 141.553 -60.6934 C 141.553 -62.3047 141.455 -63.4277 141.162 -64.4043 L 82.1777 -31.5918 Z"/>
  </g>
  <g id="Regular-L" transform="matrix(1 0 0 1 1370.33 1556)">
   <path d="M 79.4922 -37.8418 L 138.916 -71.3379 C 138.037 -72.168 137.061 -72.9004 135.693 -73.6328 L 89.7949 -99.6582 C 86.2793 -101.66 82.8613 -102.686 79.4922 -102.686 C 76.1719 -102.686 72.7539 -101.66 69.2383 -99.6582 L 23.3398 -73.6328 C 21.9727 -72.9004 20.9961 -72.168 20.1172 -71.3379 Z M 75.6348 32.959 L 75.6348 -31.0059 L 16.5527 -64.4043 C 16.2109 -63.1836 16.0645 -61.8164 16.0645 -60.0586 L 16.0645 -10.2539 C 16.0645 -2.09961 18.8965 1.12305 24.3652 4.24805 L 74.2676 32.373 C 74.707 32.6172 75.1465 32.8613 75.6348 32.959 Z M 83.3984 32.959 C 83.8867 32.8613 84.3262 32.6172 84.7656 32.373 L 134.668 4.24805 C 140.137 1.12305 142.92 -2.09961 142.92 -10.2539 L 142.92 -60.0586 C 142.92 -61.8164 142.822 -63.1836 142.48 -64.4043 L 83.3984 -31.0059 Z"/>
  </g>
  <g id="Medium-L" transform="matrix(1 0 0 1 1666.53 1556)">
   <path d="M 80.0293 -38.9648 L 139.746 -72.3145 C 138.818 -73.2422 137.744 -73.9746 136.279 -74.8047 L 90.918 -100.244 C 87.2559 -102.295 83.6426 -103.369 80.0293 -103.369 C 76.416 -103.369 72.8027 -102.295 69.1406 -100.244 L 23.7793 -74.7559 C 22.3633 -73.9746 21.2402 -73.2422 20.3125 -72.3145 Z M 75.7812 33.0566 L 75.7812 -31.4453 L 16.5039 -64.6973 C 16.2109 -63.5742 16.0645 -62.3047 16.0645 -60.7422 L 16.0645 -10.1562 C 16.0645 -1.9043 18.9453 1.51367 24.707 4.78516 L 74.0723 32.373 C 74.6094 32.666 75.1953 32.959 75.7812 33.0566 Z M 84.2773 33.0566 C 84.8633 32.959 85.4492 32.666 85.9863 32.373 L 135.352 4.78516 C 141.113 1.51367 143.945 -1.9043 143.945 -10.1562 L 143.945 -60.7422 C 143.945 -62.3047 143.848 -63.5742 143.555 -64.6973 L 84.2773 -31.4453 Z"/>
  </g>
  <g id="Semibold-L" transform="matrix(1 0 0 1 1962.85 1556)">
   <path d="M 80.4199 -39.7949 L 140.381 -73.0469 C 139.404 -74.0234 138.232 -74.8535 136.719 -75.6836 L 91.7969 -100.732 C 88.0371 -102.832 84.2285 -103.906 80.4199 -103.906 C 76.6602 -103.906 72.8027 -102.832 69.043 -100.732 L 24.1699 -75.6836 C 22.6562 -74.8535 21.4355 -74.0234 20.459 -73.0469 Z M 75.9277 33.1543 L 75.9277 -31.7383 L 16.4551 -64.9902 C 16.2109 -63.916 16.0645 -62.7441 16.0645 -61.2305 L 16.0645 -10.1074 C 16.0645 -1.75781 18.9453 1.85547 24.9512 5.17578 L 73.877 32.3242 C 74.5605 32.7148 75.2441 33.0566 75.9277 33.1543 Z M 84.9121 33.1543 C 85.5957 33.0566 86.2793 32.7148 86.9629 32.3242 L 135.889 5.17578 C 141.846 1.85547 144.727 -1.75781 144.727 -10.1074 L 144.727 -61.2305 C 144.727 -62.7441 144.629 -63.916 144.385 -64.9902 L 84.9121 -31.7383 Z"/>
  </g>
  <g id="Bold-L" transform="matrix(1 0 0 1 2259.05 1556)">
   <path d="M 80.957 -40.8691 L 141.26 -74.0234 C 140.186 -75.0977 138.916 -75.9766 137.305 -76.8555 L 92.9199 -101.318 C 89.0137 -103.516 84.9609 -104.59 80.957 -104.59 C 76.9043 -104.59 72.8516 -103.516 68.9941 -101.318 L 24.6094 -76.8066 C 22.998 -75.9766 21.7285 -75.0977 20.6543 -74.0234 Z M 76.123 33.3008 L 76.123 -32.1777 L 16.4062 -65.332 C 16.1621 -64.3066 16.0645 -63.2324 16.0645 -61.9141 L 16.0645 -10.0098 C 16.0645 -1.51367 18.9941 2.24609 25.293 5.71289 L 73.6328 32.3242 C 74.4629 32.7637 75.293 33.1543 76.123 33.3008 Z M 85.7422 33.3008 C 86.5723 33.1543 87.4023 32.7637 88.2324 32.3242 L 136.572 5.71289 C 142.871 2.24609 145.801 -1.51367 145.801 -10.0098 L 145.801 -61.9141 C 145.801 -63.2324 145.703 -64.3066 145.459 -65.332 L 85.7422 -32.1777 Z"/>
  </g>
  <g id="Heavy-L" transform="matrix(1 0 0 1 2555 1556)">
   <path d="M 81.6895 -42.4316 L 142.529 -75.4883 C 141.309 -76.6113 139.893 -77.5879 138.135 -78.5156 L 94.5801 -102.246 C 90.4785 -104.443 86.084 -105.615 81.7383 -105.615 C 77.3438 -105.615 72.9492 -104.443 68.8477 -102.246 L 25.293 -78.5156 C 23.5352 -77.5879 22.0703 -76.6113 20.8984 -75.4883 Z M 76.3672 33.4961 L 76.3672 -32.8125 L 16.3086 -65.8203 C 16.1621 -64.9414 16.0645 -64.0137 16.0645 -62.8906 L 16.0645 -9.86328 C 16.0645 -1.2207 19.0918 2.88086 25.7812 6.49414 L 73.291 32.3242 C 74.3652 32.8613 75.3906 33.3496 76.3672 33.4961 Z M 87.0117 33.4961 C 87.9883 33.3496 89.0137 32.8613 90.0391 32.3242 L 137.598 6.49414 C 144.287 2.88086 147.266 -1.2207 147.266 -9.86328 L 147.266 -62.8906 C 147.266 -64.0137 147.217 -64.9414 147.07 -65.8203 L 87.0117 -32.8125 Z"/>
  </g>
  <g id="Black-L" transform="matrix(1 0 0 1 2851.05 1556)">
   <path d="M 82.373 -43.8477 L 143.652 -76.7578 C 142.334 -77.9785 140.771 -79.0527 138.916 -80.0293 L 96.0449 -103.027 C 91.7969 -105.322 87.0605 -106.494 82.4219 -106.494 C 77.6855 -106.494 72.998 -105.322 68.7012 -103.027 L 25.8789 -80.0293 C 24.0234 -79.0527 22.4609 -77.9785 21.1426 -76.7578 Z M 76.6113 33.6426 L 76.6113 -33.3496 L 16.2598 -66.2598 C 16.1133 -65.4785 16.0645 -64.6973 16.0645 -63.7695 L 16.0645 -9.76562 C 16.0645 -0.927734 19.1406 3.41797 26.2207 7.22656 L 72.998 32.3242 C 74.2188 32.959 75.4395 33.4473 76.6113 33.6426 Z M 88.1348 33.6426 C 89.2578 33.4473 90.4785 32.959 91.6992 32.3242 L 138.477 7.22656 C 145.557 3.41797 148.633 -0.927734 148.633 -9.76562 L 148.633 -63.7695 C 148.633 -64.6973 148.584 -65.4785 148.486 -66.2598 L 88.1348 -33.3496 Z"/>
  </g>
 </g>
</svg>
