<?xml version="1.0" encoding="UTF-8"?>
<!--Generator: Apple Native CoreSVG 123-->
<!DOCTYPE svg
PUBLIC "-//W3C//DTD SVG 1.1//EN"
       "http://www.w3.org/Graphics/SVG/1.1/DTD/svg11.dtd">
<svg version="1.1" xmlns="http://www.w3.org/2000/svg" xmlns:xlink="http://www.w3.org/1999/xlink" width="3300" height="2200">
 <!--glyph: "uni1003BF.medium", point size: 100.000000, font version: "Version 15.0d4e20", template writer version: "2"-->
 <g id="Notes">
  <rect height="2200" id="artboard" style="fill:white;opacity:1" width="3300" x="0" y="0"/>
  <line id="" style="fill:none;stroke:black;opacity:1;stroke-width:0.5;" x1="263" x2="3036" y1="292" y2="292"/>
  <text style="stroke:none;fill:black;font-family:-apple-system,&quot;SF Pro Display&quot;,&quot;SF Pro Text&quot;,Helvetica,sans-serif;font-weight:bold;" transform="matrix(1 0 0 1 263 322)">Weight/Scale Variations</text>
  <text style="stroke:none;fill:black;font-family:-apple-system,&quot;SF Pro Display&quot;,&quot;SF Pro Text&quot;,Helvetica,sans-serif;text-anchor:middle;" transform="matrix(1 0 0 1 559.711 322)">Ultralight</text>
  <text style="stroke:none;fill:black;font-family:-apple-system,&quot;SF Pro Display&quot;,&quot;SF Pro Text&quot;,Helvetica,sans-serif;text-anchor:middle;" transform="matrix(1 0 0 1 856.422 322)">Thin</text>
  <text style="stroke:none;fill:black;font-family:-apple-system,&quot;SF Pro Display&quot;,&quot;SF Pro Text&quot;,Helvetica,sans-serif;text-anchor:middle;" transform="matrix(1 0 0 1 1153.13 322)">Light</text>
  <text style="stroke:none;fill:black;font-family:-apple-system,&quot;SF Pro Display&quot;,&quot;SF Pro Text&quot;,Helvetica,sans-serif;text-anchor:middle;" transform="matrix(1 0 0 1 1449.84 322)">Regular</text>
  <text style="stroke:none;fill:black;font-family:-apple-system,&quot;SF Pro Display&quot;,&quot;SF Pro Text&quot;,Helvetica,sans-serif;text-anchor:middle;" transform="matrix(1 0 0 1 1746.56 322)">Medium</text>
  <text style="stroke:none;fill:black;font-family:-apple-system,&quot;SF Pro Display&quot;,&quot;SF Pro Text&quot;,Helvetica,sans-serif;text-anchor:middle;" transform="matrix(1 0 0 1 2043.27 322)">Semibold</text>
  <text style="stroke:none;fill:black;font-family:-apple-system,&quot;SF Pro Display&quot;,&quot;SF Pro Text&quot;,Helvetica,sans-serif;text-anchor:middle;" transform="matrix(1 0 0 1 2339.98 322)">Bold</text>
  <text style="stroke:none;fill:black;font-family:-apple-system,&quot;SF Pro Display&quot;,&quot;SF Pro Text&quot;,Helvetica,sans-serif;text-anchor:middle;" transform="matrix(1 0 0 1 2636.69 322)">Heavy</text>
  <text style="stroke:none;fill:black;font-family:-apple-system,&quot;SF Pro Display&quot;,&quot;SF Pro Text&quot;,Helvetica,sans-serif;text-anchor:middle;" transform="matrix(1 0 0 1 2933.4 322)">Black</text>
  <line id="" style="fill:none;stroke:black;opacity:1;stroke-width:0.5;" x1="263" x2="3036" y1="1903" y2="1903"/>
  <g id="" transform="matrix(1 0 0 1 263 1933)">
   <path d="M 9.24805 0.830078 C 13.5547 0.830078 17.1387 -2.74414 17.1387 -7.05078 C 17.1387 -11.3574 13.5449 -14.9316 9.23828 -14.9316 C 4.94141 -14.9316 1.36719 -11.3574 1.36719 -7.05078 C 1.36719 -2.74414 4.95117 0.830078 9.24805 0.830078 Z M 9.24805 -0.654297 C 5.70312 -0.654297 2.87109 -3.49609 2.87109 -7.05078 C 2.87109 -10.6055 5.69336 -13.4473 9.23828 -13.4473 C 12.793 -13.4473 15.6348 -10.6055 15.6445 -7.05078 C 15.6543 -3.49609 12.8027 -0.654297 9.24805 -0.654297 Z M 9.22852 -3.42773 C 9.69727 -3.42773 9.9707 -3.74023 9.9707 -4.25781 L 9.9707 -6.31836 L 12.1973 -6.31836 C 12.6953 -6.31836 13.0371 -6.57227 13.0371 -7.04102 C 13.0371 -7.51953 12.7148 -7.7832 12.1973 -7.7832 L 9.9707 -7.7832 L 9.9707 -10.0098 C 9.9707 -10.5273 9.69727 -10.8496 9.22852 -10.8496 C 8.75977 -10.8496 8.50586 -10.5078 8.50586 -10.0098 L 8.50586 -7.7832 L 6.29883 -7.7832 C 5.78125 -7.7832 5.44922 -7.51953 5.44922 -7.04102 C 5.44922 -6.57227 5.80078 -6.31836 6.29883 -6.31836 L 8.50586 -6.31836 L 8.50586 -4.25781 C 8.50586 -3.75977 8.75977 -3.42773 9.22852 -3.42773 Z"/>
  </g>
  <g id="" transform="matrix(1 0 0 1 281.506 1933)">
   <path d="M 11.709 2.91016 C 17.1484 2.91016 21.6699 -1.60156 21.6699 -7.05078 C 21.6699 -12.4902 17.1387 -17.0117 11.6992 -17.0117 C 6.25 -17.0117 1.74805 -12.4902 1.74805 -7.05078 C 1.74805 -1.60156 6.25977 2.91016 11.709 2.91016 Z M 11.709 1.25 C 7.09961 1.25 3.41797 -2.44141 3.41797 -7.05078 C 3.41797 -11.6504 7.08984 -15.3516 11.6992 -15.3516 C 16.2988 -15.3516 20 -11.6504 20.0098 -7.05078 C 20.0195 -2.44141 16.3086 1.25 11.709 1.25 Z M 11.6797 -2.41211 C 12.207 -2.41211 12.5195 -2.77344 12.5195 -3.33984 L 12.5195 -6.23047 L 15.5762 -6.23047 C 16.123 -6.23047 16.5039 -6.51367 16.5039 -7.03125 C 16.5039 -7.55859 16.1426 -7.86133 15.5762 -7.86133 L 12.5195 -7.86133 L 12.5195 -10.9277 C 12.5195 -11.5039 12.207 -11.8555 11.6797 -11.8555 C 11.1621 -11.8555 10.8789 -11.4844 10.8789 -10.9277 L 10.8789 -7.86133 L 7.83203 -7.86133 C 7.25586 -7.86133 6.89453 -7.55859 6.89453 -7.03125 C 6.89453 -6.51367 7.28516 -6.23047 7.83203 -6.23047 L 10.8789 -6.23047 L 10.8789 -3.33984 C 10.8789 -2.79297 11.1621 -2.41211 11.6797 -2.41211 Z"/>
  </g>
  <g id="" transform="matrix(1 0 0 1 304.914 1933)">
   <path d="M 14.9707 5.67383 C 21.9336 5.67383 27.6855 -0.078125 27.6855 -7.04102 C 27.6855 -14.0039 21.9238 -19.7559 14.9609 -19.7559 C 7.99805 -19.7559 2.25586 -14.0039 2.25586 -7.04102 C 2.25586 -0.078125 8.00781 5.67383 14.9707 5.67383 Z M 14.9707 3.85742 C 8.92578 3.85742 4.08203 -1.00586 4.08203 -7.04102 C 4.08203 -13.0762 8.91602 -17.9395 14.9609 -17.9395 C 20.9961 -17.9395 25.8594 -13.0762 25.8691 -7.04102 C 25.8789 -1.00586 21.0059 3.85742 14.9707 3.85742 Z M 14.9414 -1.06445 C 15.5176 -1.06445 15.8594 -1.45508 15.8594 -2.06055 L 15.8594 -6.13281 L 20.0977 -6.13281 C 20.6934 -6.13281 21.1133 -6.46484 21.1133 -7.02148 C 21.1133 -7.59766 20.7227 -7.93945 20.0977 -7.93945 L 15.8594 -7.93945 L 15.8594 -12.1875 C 15.8594 -12.8027 15.5176 -13.1934 14.9414 -13.1934 C 14.3848 -13.1934 14.0625 -12.7832 14.0625 -12.1875 L 14.0625 -7.93945 L 9.82422 -7.93945 C 9.20898 -7.93945 8.80859 -7.59766 8.80859 -7.02148 C 8.80859 -6.46484 9.23828 -6.13281 9.82422 -6.13281 L 14.0625 -6.13281 L 14.0625 -2.06055 C 14.0625 -1.47461 14.3848 -1.06445 14.9414 -1.06445 Z"/>
  </g>
  <text style="stroke:none;fill:black;font-family:-apple-system,&quot;SF Pro Display&quot;,&quot;SF Pro Text&quot;,Helvetica,sans-serif;font-weight:bold;" transform="matrix(1 0 0 1 263 1953)">Design Variations</text>
  <text style="stroke:none;fill:black;font-family:-apple-system,&quot;SF Pro Display&quot;,&quot;SF Pro Text&quot;,Helvetica,sans-serif;" transform="matrix(1 0 0 1 263 1971)">Symbols are supported in up to nine weights and three scales.</text>
  <text style="stroke:none;fill:black;font-family:-apple-system,&quot;SF Pro Display&quot;,&quot;SF Pro Text&quot;,Helvetica,sans-serif;" transform="matrix(1 0 0 1 263 1989)">For optimal layout with text and other symbols, vertically align</text>
  <text style="stroke:none;fill:black;font-family:-apple-system,&quot;SF Pro Display&quot;,&quot;SF Pro Text&quot;,Helvetica,sans-serif;" transform="matrix(1 0 0 1 263 2007)">symbols with the adjacent text.</text>
  <rect height="14" id="" style="fill:#00AEEF;stroke:none;opacity:0.4;" width="3" x="776" y="1919"/>
  <g id="" transform="matrix(1 0 0 1 779 1933)">
   <path d="M 10.5273 0 L 12.373 0 L 7.17773 -14.0918 L 5.43945 -14.0918 L 0.244141 0 L 2.08984 0 L 3.50586 -4.0332 L 9.11133 -4.0332 Z M 6.2793 -11.9531 L 6.33789 -11.9531 L 8.59375 -5.52734 L 4.02344 -5.52734 Z"/>
  </g>
  <rect height="14" id="" style="fill:#00AEEF;stroke:none;opacity:0.4;" width="3" x="791.617" y="1919"/>
  <text style="stroke:none;fill:black;font-family:-apple-system,&quot;SF Pro Display&quot;,&quot;SF Pro Text&quot;,Helvetica,sans-serif;font-weight:bold;" transform="matrix(1 0 0 1 776 1953)">Side Bearings</text>
  <text style="stroke:none;fill:black;font-family:-apple-system,&quot;SF Pro Display&quot;,&quot;SF Pro Text&quot;,Helvetica,sans-serif;" transform="matrix(1 0 0 1 776 1971)">Horizontal padding on the left and right side of each symbol</text>
  <text style="stroke:none;fill:black;font-family:-apple-system,&quot;SF Pro Display&quot;,&quot;SF Pro Text&quot;,Helvetica,sans-serif;" transform="matrix(1 0 0 1 776 1989)">can be adjusted by modifying the width of the blue rectangles.</text>
  <text style="stroke:none;fill:black;font-family:-apple-system,&quot;SF Pro Display&quot;,&quot;SF Pro Text&quot;,Helvetica,sans-serif;" transform="matrix(1 0 0 1 776 2007)">Modifications are automatically applied proportionally to all</text>
  <text style="stroke:none;fill:black;font-family:-apple-system,&quot;SF Pro Display&quot;,&quot;SF Pro Text&quot;,Helvetica,sans-serif;" transform="matrix(1 0 0 1 776 2025)">scales and weights.</text>
  <g id="" transform="matrix(1 0 0 1 1289 1933)">
   <path d="M 2.96875 2.35352 L 3.80859 3.19336 C 4.84375 4.22852 6.12305 4.15039 7.19727 2.97852 L 16.1621 -6.82617 C 16.5527 -6.74805 16.9629 -6.8457 17.4902 -7.02148 C 18.1738 -7.25586 18.2715 -7.25586 18.3887 -7.13867 C 18.5352 -7.01172 18.4863 -6.89453 18.2422 -6.25 C 17.8809 -5.33203 17.8125 -4.79492 18.5547 -4.02344 L 19.4238 -3.13477 C 20.2734 -2.24609 21.3281 -2.26562 22.2168 -3.14453 L 25.0586 -5.97656 C 25.9473 -6.86523 25.957 -7.92969 25.0781 -8.7793 L 24.1797 -9.64844 C 23.4082 -10.4004 22.8711 -10.3516 21.9629 -9.98047 C 21.3184 -9.72656 21.2012 -9.6875 21.0645 -9.81445 C 20.9375 -9.93164 20.9473 -10.0391 21.1816 -10.7129 C 21.5332 -11.6895 21.5723 -12.2852 20.752 -13.0957 L 19.3359 -14.5117 C 15.1953 -18.6133 11.2305 -18.7402 7.65625 -15.4395 C 7.08008 -14.9023 6.99219 -14.1504 7.53906 -13.6133 L 7.79297 -13.3594 C 8.22266 -12.9297 8.86719 -12.8418 9.41406 -13.1152 C 11.0645 -13.9453 12.2559 -14.0234 13.457 -12.9785 L 13.0273 -11.416 C 12.8516 -10.8008 12.793 -10.3418 12.9199 -9.93164 L 3.18359 -1.04492 C 2.02148 0.0292969 1.93359 1.32812 2.96875 2.35352 Z M 8.96484 -14.4922 C 8.89648 -14.5703 8.86719 -14.6582 8.99414 -14.7559 C 11.709 -17.2852 15.0391 -16.8457 18.3496 -13.5254 L 19.6973 -12.168 C 20.0879 -11.7773 20.0977 -11.582 19.8828 -10.8691 C 19.6582 -10.127 19.502 -9.53125 20.1465 -8.88672 C 20.8105 -8.22266 21.2891 -8.41797 22.207 -8.63281 C 22.9004 -8.79883 23.0664 -8.79883 23.4473 -8.41797 L 24.0918 -7.77344 C 24.4043 -7.48047 24.4141 -7.32422 24.0723 -6.97266 L 21.2207 -4.13086 C 20.8887 -3.79883 20.7227 -3.79883 20.4297 -4.10156 L 19.7852 -4.75586 C 19.4141 -5.13672 19.4141 -5.30273 19.5801 -6.01562 C 19.7852 -6.88477 19.9805 -7.38281 19.3262 -8.04688 C 18.6719 -8.7207 18.0762 -8.57422 17.3438 -8.33008 C 16.5625 -8.06641 16.3281 -8.06641 15.8984 -8.49609 L 14.6094 -9.78516 C 14.1699 -10.2246 14.1309 -10.4395 14.2676 -10.9082 L 15.0293 -13.3984 C 13.3887 -15.2832 11.4941 -15.5566 9.20898 -14.4434 C 9.11133 -14.3945 9.04297 -14.4141 8.96484 -14.4922 Z M 3.96484 1.36719 C 3.52539 0.927734 3.54492 0.537109 4.14062 -0.00976562 L 13.7402 -8.81836 L 15 -7.55859 L 6.17188 2.02148 C 5.625 2.60742 5.24414 2.64648 4.79492 2.19727 Z"/>
  </g>
  <text style="stroke:none;fill:black;font-family:-apple-system,&quot;SF Pro Display&quot;,&quot;SF Pro Text&quot;,Helvetica,sans-serif;font-weight:bold;" transform="matrix(1 0 0 1 1289 1953)">Exporting</text>
  <text style="stroke:none;fill:black;font-family:-apple-system,&quot;SF Pro Display&quot;,&quot;SF Pro Text&quot;,Helvetica,sans-serif;" transform="matrix(1 0 0 1 1289 1971)">Symbols should be outlined when exporting to ensure the</text>
  <text style="stroke:none;fill:black;font-family:-apple-system,&quot;SF Pro Display&quot;,&quot;SF Pro Text&quot;,Helvetica,sans-serif;" transform="matrix(1 0 0 1 1289 1989)">design is preserved when submitting to Xcode.</text>
  <text id="template-version" style="stroke:none;fill:black;font-family:-apple-system,&quot;SF Pro Display&quot;,&quot;SF Pro Text&quot;,Helvetica,sans-serif;text-anchor:end;" transform="matrix(1 0 0 1 3036 1933)">Template v.0.1</text>
  <text style="stroke:none;fill:black;font-family:-apple-system,&quot;SF Pro Display&quot;,&quot;SF Pro Text&quot;,Helvetica,sans-serif;text-anchor:end;" transform="matrix(1 0 0 1 3036 1951)">Generated from viewfinder.circle</text>
  <text style="stroke:none;fill:black;font-family:-apple-system,&quot;SF Pro Display&quot;,&quot;SF Pro Text&quot;,Helvetica,sans-serif;text-anchor:end;" transform="matrix(1 0 0 1 3036 1969)">Typeset at 100 points</text>
  <text style="stroke:none;fill:black;font-family:-apple-system,&quot;SF Pro Display&quot;,&quot;SF Pro Text&quot;,Helvetica,sans-serif;" transform="matrix(1 0 0 1 263 726)">Small</text>
  <text style="stroke:none;fill:black;font-family:-apple-system,&quot;SF Pro Display&quot;,&quot;SF Pro Text&quot;,Helvetica,sans-serif;" transform="matrix(1 0 0 1 263 1156)">Medium</text>
  <text style="stroke:none;fill:black;font-family:-apple-system,&quot;SF Pro Display&quot;,&quot;SF Pro Text&quot;,Helvetica,sans-serif;" transform="matrix(1 0 0 1 263 1586)">Large</text>
 </g>
 <g id="Guides">
  <g id="H-reference" style="fill:#27AAE1;stroke:none;" transform="matrix(1 0 0 1 339 696)">
   <path d="M 54.9316 0 L 57.666 0 L 30.5664 -70.459 L 28.0762 -70.459 L 0.976562 0 L 3.66211 0 L 12.9395 -24.4629 L 45.7031 -24.4629 Z M 29.1992 -67.0898 L 29.4434 -67.0898 L 44.8242 -26.709 L 13.8184 -26.709 Z"/>
  </g>
  <line id="Baseline-S" style="fill:none;stroke:#27AAE1;opacity:1;stroke-width:0.577;" x1="263" x2="3036" y1="696" y2="696"/>
  <line id="Capline-S" style="fill:none;stroke:#27AAE1;opacity:1;stroke-width:0.577;" x1="263" x2="3036" y1="625.541" y2="625.541"/>
  <g id="H-reference" style="fill:#27AAE1;stroke:none;" transform="matrix(1 0 0 1 339 1126)">
   <path d="M 54.9316 0 L 57.666 0 L 30.5664 -70.459 L 28.0762 -70.459 L 0.976562 0 L 3.66211 0 L 12.9395 -24.4629 L 45.7031 -24.4629 Z M 29.1992 -67.0898 L 29.4434 -67.0898 L 44.8242 -26.709 L 13.8184 -26.709 Z"/>
  </g>
  <line id="Baseline-M" style="fill:none;stroke:#27AAE1;opacity:1;stroke-width:0.577;" x1="263" x2="3036" y1="1126" y2="1126"/>
  <line id="Capline-M" style="fill:none;stroke:#27AAE1;opacity:1;stroke-width:0.577;" x1="263" x2="3036" y1="1055.54" y2="1055.54"/>
  <g id="H-reference" style="fill:#27AAE1;stroke:none;" transform="matrix(1 0 0 1 339 1556)">
   <path d="M 54.9316 0 L 57.666 0 L 30.5664 -70.459 L 28.0762 -70.459 L 0.976562 0 L 3.66211 0 L 12.9395 -24.4629 L 45.7031 -24.4629 Z M 29.1992 -67.0898 L 29.4434 -67.0898 L 44.8242 -26.709 L 13.8184 -26.709 Z"/>
  </g>
  <line id="Baseline-L" style="fill:none;stroke:#27AAE1;opacity:1;stroke-width:0.577;" x1="263" x2="3036" y1="1556" y2="1556"/>
  <line id="Capline-L" style="fill:none;stroke:#27AAE1;opacity:1;stroke-width:0.577;" x1="263" x2="3036" y1="1485.54" y2="1485.54"/>
  <rect height="119.336" id="left-margin" style="fill:#00AEEF;stroke:none;opacity:0.4;" width="8.74023" x="1391.32" y="1030.79"/>
  <rect height="119.336" id="right-margin" style="fill:#00AEEF;stroke:none;opacity:0.4;" width="8.69141" x="1499.67" y="1030.79"/>
 </g>
 <g id="Symbols">
  <g id="Ultralight-S" transform="matrix(1 0 0 1 515.644 696)">
   <path d="M 44.043 2.05078 C 64.502 2.05078 81.2988 -14.6973 81.2988 -35.1562 C 81.2988 -55.6152 64.502 -72.3633 44.043 -72.3633 C 23.584 -72.3633 6.83594 -55.6152 6.83594 -35.1562 C 6.83594 -14.6973 23.584 2.05078 44.043 2.05078 Z M 44.043 -0.146484 C 24.7559 -0.146484 9.08203 -15.8691 9.08203 -35.1562 C 9.08203 -54.4434 24.7559 -70.166 44.043 -70.166 C 63.3789 -70.166 79.0527 -54.4434 79.0527 -35.1562 C 79.0527 -15.8691 63.3789 -0.146484 44.043 -0.146484 Z M 31.4941 -53.5156 C 27.6367 -53.5156 25.6348 -51.4648 25.6348 -47.6074 L 25.6348 -41.8945 C 25.6348 -41.2109 26.0742 -40.7227 26.709 -40.7227 C 27.3438 -40.7227 27.7832 -41.2109 27.7832 -41.8945 L 27.7832 -47.5098 C 27.7832 -50.0488 29.0527 -51.3184 31.5918 -51.3184 L 37.2559 -51.3184 C 37.9395 -51.3184 38.4277 -51.7578 38.4277 -52.4414 C 38.4277 -53.0762 37.9395 -53.5156 37.2559 -53.5156 Z M 56.3965 -53.5156 L 50.6836 -53.5156 C 50 -53.5156 49.5117 -53.0762 49.5117 -52.4414 C 49.5117 -51.7578 50 -51.3184 50.6836 -51.3184 L 56.2988 -51.3184 C 58.8379 -51.3184 60.1562 -50.0488 60.1562 -47.5098 L 60.1562 -41.8945 C 60.1562 -41.2109 60.5469 -40.7227 61.2305 -40.7227 C 61.8652 -40.7227 62.3047 -41.2109 62.3047 -41.8945 L 62.3047 -47.6074 C 62.3047 -51.4648 60.2539 -53.5156 56.3965 -53.5156 Z M 31.4941 -16.7969 L 37.2559 -16.7969 C 37.9395 -16.7969 38.4277 -17.2363 38.4277 -17.9199 C 38.4277 -18.5547 37.9395 -18.9941 37.2559 -18.9941 L 31.5918 -18.9941 C 29.0527 -18.9941 27.7832 -20.2637 27.7832 -22.8027 L 27.7832 -28.418 C 27.7832 -29.1504 27.3438 -29.5898 26.709 -29.5898 C 26.0742 -29.5898 25.6348 -29.1016 25.6348 -28.418 L 25.6348 -22.7051 C 25.6348 -18.8477 27.6367 -16.7969 31.4941 -16.7969 Z M 56.3965 -16.7969 C 60.2539 -16.7969 62.3047 -18.8477 62.3047 -22.7051 L 62.3047 -28.418 C 62.3047 -29.1016 61.8652 -29.5898 61.2305 -29.5898 C 60.5469 -29.5898 60.1562 -29.1504 60.1562 -28.418 L 60.1562 -22.8027 C 60.1562 -20.2637 58.8379 -18.9941 56.2988 -18.9941 L 50.6836 -18.9941 C 50 -18.9941 49.5117 -18.5547 49.5117 -17.9199 C 49.5117 -17.2363 50 -16.7969 50.6836 -16.7969 Z"/>
  </g>
  <g id="Thin-S" transform="matrix(1 0 0 1 811.867 696)">
   <path d="M 44.5801 2.53906 C 65.2832 2.53906 82.2754 -14.4531 82.2754 -35.2051 C 82.2754 -55.9082 65.2344 -72.9004 44.5312 -72.9004 C 23.8281 -72.9004 6.83594 -55.9082 6.83594 -35.2051 C 6.83594 -14.4531 23.877 2.53906 44.5801 2.53906 Z M 44.5801 -0.878906 C 25.5859 -0.878906 10.2539 -16.2109 10.2539 -35.2051 C 10.2539 -54.1504 25.5859 -69.4824 44.5312 -69.4824 C 63.5254 -69.4824 78.8574 -54.1504 78.8574 -35.2051 C 78.8574 -16.2109 63.5254 -0.878906 44.5801 -0.878906 Z M 32.2266 -53.6621 C 28.125 -53.6621 25.9766 -51.5137 25.9766 -47.4121 L 25.9766 -41.8457 C 25.9766 -40.8691 26.6113 -40.2344 27.5391 -40.2344 C 28.4668 -40.2344 29.0527 -40.8691 29.0527 -41.8457 L 29.0527 -47.0703 C 29.0527 -49.4141 30.2246 -50.5371 32.5195 -50.5371 L 37.793 -50.5371 C 38.7695 -50.5371 39.4043 -51.1719 39.4043 -52.0996 C 39.4043 -53.0273 38.7695 -53.6621 37.793 -53.6621 Z M 56.6406 -53.6621 L 51.123 -53.6621 C 50.1465 -53.6621 49.4629 -53.0273 49.4629 -52.0996 C 49.4629 -51.1719 50.1465 -50.5371 51.123 -50.5371 L 56.3477 -50.5371 C 58.6914 -50.5371 59.8145 -49.4141 59.8145 -47.0703 L 59.8145 -41.8457 C 59.8145 -40.8691 60.4492 -40.2344 61.377 -40.2344 C 62.3047 -40.2344 62.9395 -40.8691 62.9395 -41.8457 L 62.9395 -47.4121 C 62.9395 -51.5137 60.791 -53.6621 56.6406 -53.6621 Z M 32.2266 -16.6992 L 37.793 -16.6992 C 38.7695 -16.6992 39.4043 -17.334 39.4043 -18.2617 C 39.4043 -19.1406 38.7695 -19.7754 37.793 -19.7754 L 32.5195 -19.7754 C 30.2246 -19.7754 29.0527 -20.9473 29.0527 -23.291 L 29.0527 -28.4668 C 29.0527 -29.4434 28.4668 -30.127 27.5391 -30.127 C 26.6113 -30.127 25.9766 -29.4434 25.9766 -28.4668 L 25.9766 -22.9492 C 25.9766 -18.8477 28.125 -16.6992 32.2266 -16.6992 Z M 56.6406 -16.6992 C 60.791 -16.6992 62.9395 -18.8477 62.9395 -22.9492 L 62.9395 -28.4668 C 62.9395 -29.4434 62.3047 -30.127 61.377 -30.127 C 60.4492 -30.127 59.8145 -29.4434 59.8145 -28.4668 L 59.8145 -23.291 C 59.8145 -20.9473 58.6914 -19.7754 56.3477 -19.7754 L 51.123 -19.7754 C 50.1465 -19.7754 49.4629 -19.1406 49.4629 -18.2617 C 49.4629 -17.334 50.1465 -16.6992 51.123 -16.6992 Z"/>
  </g>
  <g id="Light-S" transform="matrix(1 0 0 1 1107.6 696)">
   <path d="M 45.5078 3.4668 C 66.6992 3.4668 84.2285 -14.0625 84.2285 -35.2051 C 84.2285 -56.3965 66.6504 -73.9258 45.5078 -73.9258 C 24.3164 -73.9258 6.83594 -56.3965 6.83594 -35.2051 C 6.83594 -14.0625 24.3652 3.4668 45.5078 3.4668 Z M 45.5078 -2.24609 C 27.2461 -2.24609 12.5977 -16.9434 12.5977 -35.2051 C 12.5977 -53.5156 27.1973 -68.2129 45.5078 -68.2129 C 63.7695 -68.2129 78.4668 -53.5156 78.5156 -35.2051 C 78.5156 -16.9434 63.8184 -2.24609 45.5078 -2.24609 Z M 33.6426 -53.9551 C 29.0527 -53.9551 26.6602 -51.5625 26.6602 -46.9727 L 26.6602 -41.7969 C 26.6602 -40.332 27.6367 -39.3066 29.1016 -39.3066 C 30.5664 -39.3066 31.543 -40.2832 31.543 -41.7969 L 31.543 -46.2402 C 31.543 -48.1445 32.4219 -49.0723 34.3262 -49.0723 L 38.8672 -49.0723 C 40.332 -49.0723 41.3574 -50.0488 41.3574 -51.4648 C 41.3574 -52.9297 40.332 -53.9551 38.8672 -53.9551 Z M 57.1289 -53.9551 L 51.9531 -53.9551 C 50.4395 -53.9551 49.4629 -52.9297 49.4629 -51.4648 C 49.4629 -50.0488 50.4395 -49.0723 51.9531 -49.0723 L 56.4453 -49.0723 C 58.3496 -49.0723 59.2773 -48.1445 59.2773 -46.2402 L 59.2773 -41.7969 C 59.2773 -40.2832 60.2051 -39.3066 61.6699 -39.3066 C 63.1348 -39.3066 64.1602 -40.332 64.1602 -41.7969 L 64.1602 -46.9727 C 64.1602 -51.5625 61.7188 -53.9551 57.1289 -53.9551 Z M 33.6426 -16.4551 L 38.8672 -16.4551 C 40.332 -16.4551 41.3574 -17.4316 41.3574 -18.8965 C 41.3574 -20.3125 40.332 -21.3379 38.8672 -21.3379 L 34.3262 -21.3379 C 32.4219 -21.3379 31.543 -22.2168 31.543 -24.1699 L 31.543 -28.5645 C 31.543 -30.0781 30.5664 -31.0547 29.1016 -31.0547 C 27.6367 -31.0547 26.6602 -30.0781 26.6602 -28.5645 L 26.6602 -23.3887 C 26.6602 -18.7988 29.0527 -16.4551 33.6426 -16.4551 Z M 57.1289 -16.4551 C 61.7188 -16.4551 64.1602 -18.7988 64.1602 -23.3887 L 64.1602 -28.5645 C 64.1602 -30.0781 63.1348 -31.0547 61.6699 -31.0547 C 60.2051 -31.0547 59.2773 -30.0781 59.2773 -28.5645 L 59.2773 -24.1699 C 59.2773 -22.2168 58.3496 -21.3379 56.4453 -21.3379 L 51.9531 -21.3379 C 50.4395 -21.3379 49.4629 -20.3125 49.4629 -18.8965 C 49.4629 -17.4316 50.4395 -16.4551 51.9531 -16.4551 Z"/>
  </g>
  <g id="Regular-S" transform="matrix(1 0 0 1 1403.58 696)">
   <path d="M 46.2402 4.15039 C 67.7734 4.15039 85.6934 -13.7207 85.6934 -35.2539 C 85.6934 -56.7871 67.7246 -74.6582 46.1914 -74.6582 C 24.707 -74.6582 6.83594 -56.7871 6.83594 -35.2539 C 6.83594 -13.7207 24.7559 4.15039 46.2402 4.15039 Z M 46.2402 -3.27148 C 28.5156 -3.27148 14.3555 -17.4805 14.3555 -35.2539 C 14.3555 -53.0273 28.4668 -67.2363 46.1914 -67.2363 C 63.9648 -67.2363 78.1738 -53.0273 78.2227 -35.2539 C 78.2715 -17.4805 64.0137 -3.27148 46.2402 -3.27148 Z M 34.7168 -54.1504 C 29.7363 -54.1504 27.1484 -51.6113 27.1484 -46.6797 L 27.1484 -41.748 C 27.1484 -39.8926 28.418 -38.623 30.3223 -38.623 C 32.1777 -38.623 33.3984 -39.8438 33.3984 -41.748 L 33.3984 -45.5566 C 33.3984 -47.168 34.1309 -47.9004 35.6934 -47.9004 L 39.6484 -47.9004 C 41.5527 -47.9004 42.8223 -49.1699 42.8223 -51.0254 C 42.8223 -52.8809 41.5527 -54.1504 39.6484 -54.1504 Z M 57.5195 -54.1504 L 52.5879 -54.1504 C 50.6836 -54.1504 49.4141 -52.8809 49.4141 -51.0254 C 49.4141 -49.1699 50.6836 -47.9004 52.5879 -47.9004 L 56.543 -47.9004 C 58.1055 -47.9004 58.8379 -47.168 58.8379 -45.5566 L 58.8379 -41.748 C 58.8379 -39.8438 60.0586 -38.623 61.9141 -38.623 C 63.8184 -38.623 65.0879 -39.8926 65.0879 -41.748 L 65.0879 -46.6797 C 65.0879 -51.6113 62.4512 -54.1504 57.5195 -54.1504 Z M 34.7168 -16.2598 L 39.6484 -16.2598 C 41.5527 -16.2598 42.8223 -17.5293 42.8223 -19.3848 C 42.8223 -21.2402 41.5527 -22.5098 39.6484 -22.5098 L 35.6934 -22.5098 C 34.1309 -22.5098 33.3984 -23.1934 33.3984 -24.8535 L 33.3984 -28.6621 C 33.3984 -30.5664 32.1777 -31.7871 30.3223 -31.7871 C 28.418 -31.7871 27.1484 -30.5176 27.1484 -28.6621 L 27.1484 -23.7305 C 27.1484 -18.7988 29.7363 -16.2598 34.7168 -16.2598 Z M 57.5195 -16.2598 C 62.4512 -16.2598 65.0879 -18.7988 65.0879 -23.7305 L 65.0879 -28.6621 C 65.0879 -30.5176 63.8184 -31.7871 61.9141 -31.7871 C 60.0586 -31.7871 58.8379 -30.5664 58.8379 -28.6621 L 58.8379 -24.8535 C 58.8379 -23.1934 58.1055 -22.5098 56.543 -22.5098 L 52.5879 -22.5098 C 50.6836 -22.5098 49.4141 -21.2402 49.4141 -19.3848 C 49.4141 -17.5293 50.6836 -16.2598 52.5879 -16.2598 Z"/>
  </g>
  <g id="Medium-S" transform="matrix(1 0 0 1 1699.7 696)">
   <path d="M 46.8262 4.78516 C 68.75 4.78516 86.8652 -13.3301 86.8652 -35.2051 C 86.8652 -57.1289 68.7012 -75.2441 46.8262 -75.2441 C 24.9023 -75.2441 6.83594 -57.1289 6.83594 -35.2051 C 6.83594 -13.3301 24.9512 4.78516 46.8262 4.78516 Z M 46.8262 -4.19922 C 29.6387 -4.19922 15.8691 -18.0176 15.8691 -35.2051 C 15.8691 -52.4414 29.5898 -66.2598 46.8262 -66.2598 C 64.0137 -66.2598 77.832 -52.4414 77.8809 -35.2051 C 77.8809 -18.0176 64.0625 -4.19922 46.8262 -4.19922 Z M 35.5957 -53.9551 C 30.6641 -53.9551 27.9297 -51.2695 27.9297 -46.3867 L 27.9297 -41.6992 C 27.9297 -39.5996 29.2969 -38.2324 31.3965 -38.2324 C 33.4961 -38.2324 34.8145 -39.5996 34.8145 -41.6992 L 34.8145 -44.9707 C 34.8145 -46.4844 35.4492 -47.1191 36.9141 -47.1191 L 40.2832 -47.1191 C 42.3828 -47.1191 43.75 -48.4863 43.75 -50.5371 C 43.75 -52.6367 42.3828 -53.9551 40.2832 -53.9551 Z M 57.8613 -53.9551 L 53.1738 -53.9551 C 51.0742 -53.9551 49.707 -52.6367 49.707 -50.5371 C 49.707 -48.4863 51.0742 -47.1191 53.1738 -47.1191 L 56.543 -47.1191 C 58.0078 -47.1191 58.6914 -46.4844 58.6914 -44.9707 L 58.6914 -41.6992 C 58.6914 -39.5996 60.0098 -38.2324 62.0605 -38.2324 C 64.1602 -38.2324 65.5273 -39.5996 65.5273 -41.6992 L 65.5273 -46.3867 C 65.5273 -51.2695 62.793 -53.9551 57.8613 -53.9551 Z M 35.5957 -16.4062 L 40.2832 -16.4062 C 42.3828 -16.4062 43.75 -17.7734 43.75 -19.873 C 43.75 -21.875 42.3828 -23.2422 40.2832 -23.2422 L 36.9141 -23.2422 C 35.4492 -23.2422 34.8145 -23.9258 34.8145 -25.3906 L 34.8145 -28.6621 C 34.8145 -30.8105 33.4961 -32.1289 31.3965 -32.1289 C 29.2969 -32.1289 27.9297 -30.7617 27.9297 -28.6621 L 27.9297 -23.9746 C 27.9297 -19.0918 30.6641 -16.4062 35.5957 -16.4062 Z M 57.8613 -16.4062 C 62.793 -16.4062 65.5273 -19.0918 65.5273 -23.9746 L 65.5273 -28.6621 C 65.5273 -30.7617 64.1602 -32.1289 62.0605 -32.1289 C 60.0098 -32.1289 58.6914 -30.8105 58.6914 -28.6621 L 58.6914 -25.3906 C 58.6914 -23.9258 58.0078 -23.2422 56.543 -23.2422 L 53.1738 -23.2422 C 51.0742 -23.2422 49.707 -21.875 49.707 -19.873 C 49.707 -17.7734 51.0742 -16.4062 53.1738 -16.4062 Z"/>
  </g>
  <g id="Semibold-S" transform="matrix(1 0 0 1 1995.98 696)">
   <path d="M 47.3145 5.22461 C 69.4824 5.22461 87.7441 -13.0371 87.7441 -35.2051 C 87.7441 -57.373 69.4336 -75.6836 47.2656 -75.6836 C 25.0977 -75.6836 6.83594 -57.373 6.83594 -35.2051 C 6.83594 -13.0371 25.0977 5.22461 47.3145 5.22461 Z M 47.3145 -4.93164 C 30.4688 -4.93164 17.041 -18.4082 17.041 -35.2051 C 17.041 -52.002 30.4688 -65.5273 47.2656 -65.5273 C 64.0625 -65.5273 77.5879 -52.002 77.5879 -35.2051 C 77.6367 -18.4082 64.1113 -4.93164 47.3145 -4.93164 Z M 36.2793 -53.8574 C 31.3965 -53.8574 28.5645 -51.0254 28.5645 -46.1914 L 28.5645 -41.6504 C 28.5645 -39.4043 29.9805 -37.9883 32.2266 -37.9883 C 34.4727 -37.9883 35.8398 -39.4043 35.8398 -41.6504 L 35.8398 -44.5312 C 35.8398 -45.9473 36.4746 -46.5332 37.8418 -46.5332 L 40.7715 -46.5332 C 43.0176 -46.5332 44.4824 -47.998 44.4824 -50.1465 C 44.4824 -52.3926 43.0176 -53.8574 40.7715 -53.8574 Z M 58.1543 -53.8574 L 53.6133 -53.8574 C 51.3672 -53.8574 49.9512 -52.3926 49.9512 -50.1465 C 49.9512 -47.998 51.416 -46.5332 53.6133 -46.5332 L 56.5918 -46.5332 C 57.959 -46.5332 58.5449 -45.9473 58.5449 -44.5312 L 58.5449 -41.6504 C 58.5449 -39.4043 59.9609 -37.9883 62.207 -37.9883 C 64.4531 -37.9883 65.8691 -39.4043 65.8691 -41.6504 L 65.8691 -46.1914 C 65.8691 -51.0254 63.0371 -53.8574 58.1543 -53.8574 Z M 36.2793 -16.5527 L 40.7715 -16.5527 C 43.0176 -16.5527 44.4824 -17.9688 44.4824 -20.2148 C 44.4824 -22.4121 43.0176 -23.8281 40.7715 -23.8281 L 37.8418 -23.8281 C 36.4746 -23.8281 35.8398 -24.4629 35.8398 -25.8301 L 35.8398 -28.7109 C 35.8398 -31.0059 34.4727 -32.4219 32.2266 -32.4219 C 29.9805 -32.4219 28.5645 -30.957 28.5645 -28.7109 L 28.5645 -24.2188 C 28.5645 -19.3359 31.3965 -16.5527 36.2793 -16.5527 Z M 58.1543 -16.5527 C 63.0371 -16.5527 65.8691 -19.3359 65.8691 -24.2188 L 65.8691 -28.7109 C 65.8691 -30.957 64.4531 -32.4219 62.207 -32.4219 C 59.9609 -32.4219 58.5449 -31.0059 58.5449 -28.7109 L 58.5449 -25.8301 C 58.5449 -24.4629 57.959 -23.8281 56.5918 -23.8281 L 53.6133 -23.8281 C 51.416 -23.8281 49.9512 -22.4121 49.9512 -20.2148 C 49.9512 -17.9688 51.3672 -16.5527 53.6133 -16.5527 Z"/>
  </g>
  <g id="Bold-S" transform="matrix(1 0 0 1 2292.1 696)">
   <path d="M 47.9004 5.85938 C 70.4102 5.85938 88.916 -12.6465 88.916 -35.2051 C 88.916 -57.7148 70.4102 -76.2207 47.8516 -76.2207 C 25.293 -76.2207 6.83594 -57.7148 6.83594 -35.2051 C 6.83594 -12.6465 25.3418 5.85938 47.9004 5.85938 Z M 47.9004 -5.85938 C 31.6406 -5.85938 18.5547 -18.9453 18.5547 -35.2051 C 18.5547 -51.4648 31.5918 -64.5508 47.8516 -64.5508 C 64.1113 -64.5508 77.1973 -51.4648 77.2461 -35.2051 C 77.2461 -18.9453 64.1602 -5.85938 47.9004 -5.85938 Z M 37.1582 -53.6621 C 32.3242 -53.6621 29.3457 -50.6836 29.3457 -45.8984 L 29.3457 -41.6016 C 29.3457 -39.1602 30.8594 -37.5977 33.3008 -37.5977 C 35.7422 -37.5977 37.2559 -39.1113 37.2559 -41.6016 L 37.2559 -43.9453 C 37.2559 -45.2148 37.793 -45.752 39.0625 -45.752 L 41.4551 -45.752 C 43.8477 -45.752 45.4102 -47.2656 45.4102 -49.707 C 45.4102 -52.1484 43.8965 -53.6621 41.4551 -53.6621 Z M 58.4961 -53.6621 L 54.1992 -53.6621 C 51.7578 -53.6621 50.2441 -52.1484 50.2441 -49.707 C 50.2441 -47.2656 51.8066 -45.752 54.1992 -45.752 L 56.5918 -45.752 C 57.8613 -45.752 58.3984 -45.2148 58.3984 -43.9453 L 58.3984 -41.6016 C 58.3984 -39.1113 59.9121 -37.5977 62.3535 -37.5977 C 64.7949 -37.5977 66.3086 -39.1602 66.3086 -41.6016 L 66.3086 -45.8984 C 66.3086 -50.6836 63.3301 -53.6621 58.4961 -53.6621 Z M 37.1582 -16.6992 L 41.4551 -16.6992 C 43.8965 -16.6992 45.4102 -18.2129 45.4102 -20.6543 C 45.4102 -23.0469 43.8477 -24.6094 41.4551 -24.6094 L 39.0625 -24.6094 C 37.793 -24.6094 37.2559 -25.1465 37.2559 -26.416 L 37.2559 -28.7598 C 37.2559 -31.2012 35.7422 -32.7637 33.3008 -32.7637 C 30.8594 -32.7637 29.3457 -31.2012 29.3457 -28.7598 L 29.3457 -24.4629 C 29.3457 -19.6289 32.3242 -16.6992 37.1582 -16.6992 Z M 58.4961 -16.6992 C 63.3301 -16.6992 66.3086 -19.6289 66.3086 -24.4629 L 66.3086 -28.7598 C 66.3086 -31.2012 64.7949 -32.7637 62.3535 -32.7637 C 59.9121 -32.7637 58.3984 -31.2012 58.3984 -28.7598 L 58.3984 -26.416 C 58.3984 -25.1465 57.8613 -24.6094 56.5918 -24.6094 L 54.1992 -24.6094 C 51.8066 -24.6094 50.2441 -23.0469 50.2441 -20.6543 C 50.2441 -18.2129 51.7578 -16.6992 54.1992 -16.6992 Z"/>
  </g>
  <g id="Heavy-S" transform="matrix(1 0 0 1 2587.96 696)">
   <path d="M 48.7305 6.73828 C 71.8262 6.73828 90.625 -12.0605 90.625 -35.1562 C 90.625 -58.252 71.8262 -77.0508 48.7305 -77.0508 C 25.6348 -77.0508 6.83594 -58.252 6.83594 -35.1562 C 6.83594 -12.0605 25.6348 6.73828 48.7305 6.73828 Z M 48.7305 -7.17773 C 33.3008 -7.17773 20.752 -19.6777 20.752 -35.1562 C 20.752 -50.6348 33.3008 -63.1348 48.7305 -63.1348 C 64.209 -63.1348 76.709 -50.6348 76.709 -35.1562 C 76.709 -19.6777 64.209 -7.17773 48.7305 -7.17773 Z M 38.4277 -53.3691 C 33.6914 -53.3691 30.5176 -50.2441 30.5176 -45.459 L 30.5176 -41.5039 C 30.5176 -38.7695 32.1777 -37.0605 34.9121 -37.0605 C 37.6465 -37.0605 39.3066 -38.7695 39.3066 -41.5039 L 39.3066 -43.0664 C 39.3066 -44.1406 39.7461 -44.6289 40.8203 -44.6289 L 42.3828 -44.6289 C 45.0684 -44.6289 46.8262 -46.2891 46.8262 -48.9746 C 46.8262 -51.7578 45.1172 -53.3691 42.3828 -53.3691 Z M 59.0332 -53.3691 L 55.0781 -53.3691 C 52.3438 -53.3691 50.6348 -51.7578 50.6348 -48.9746 C 50.6348 -46.2891 52.3926 -44.6289 55.0781 -44.6289 L 56.6406 -44.6289 C 57.7148 -44.6289 58.2031 -44.1406 58.2031 -43.0664 L 58.2031 -41.5039 C 58.2031 -38.7695 59.8145 -37.0605 62.5488 -37.0605 C 65.332 -37.0605 66.9434 -38.7695 66.9434 -41.5039 L 66.9434 -45.459 C 66.9434 -50.2441 63.8184 -53.3691 59.0332 -53.3691 Z M 38.4277 -16.9434 L 42.3828 -16.9434 C 45.1172 -16.9434 46.8262 -18.5547 46.8262 -21.3379 C 46.8262 -24.0234 45.0684 -25.6836 42.3828 -25.6836 L 40.8203 -25.6836 C 39.7461 -25.6836 39.3066 -26.1719 39.3066 -27.2461 L 39.3066 -28.8086 C 39.3066 -31.543 37.6465 -33.252 34.9121 -33.252 C 32.1777 -33.252 30.5176 -31.543 30.5176 -28.8086 L 30.5176 -24.8535 C 30.5176 -20.0684 33.6914 -16.9434 38.4277 -16.9434 Z M 59.0332 -16.9434 C 63.8184 -16.9434 66.9434 -20.0684 66.9434 -24.8535 L 66.9434 -28.8086 C 66.9434 -31.543 65.332 -33.252 62.5488 -33.252 C 59.8145 -33.252 58.2031 -31.543 58.2031 -28.8086 L 58.2031 -27.2461 C 58.2031 -26.1719 57.7148 -25.6836 56.6406 -25.6836 L 55.0781 -25.6836 C 52.3926 -25.6836 50.6348 -24.0234 50.6348 -21.3379 C 50.6348 -18.5547 52.3438 -16.9434 55.0781 -16.9434 Z"/>
  </g>
  <g id="Black-S" transform="matrix(1 0 0 1 2883.89 696)">
   <path d="M 49.5117 7.51953 C 73.0957 7.51953 92.1875 -11.5723 92.1875 -35.1074 C 92.1875 -58.6914 73.0957 -77.7832 49.5117 -77.7832 C 25.9277 -77.7832 6.83594 -58.6914 6.83594 -35.1074 C 6.83594 -11.5723 25.9277 7.51953 49.5117 7.51953 Z M 49.5117 -8.39844 C 34.7656 -8.39844 22.7539 -20.4102 22.7539 -35.1074 C 22.7539 -49.8535 34.7656 -61.8652 49.5117 -61.8652 C 64.2578 -61.8652 76.2695 -49.8535 76.2207 -35.1074 C 76.2207 -20.4102 64.2578 -8.39844 49.5117 -8.39844 Z M 39.5996 -53.125 C 34.8633 -53.125 31.543 -49.8047 31.543 -45.0684 L 31.543 -41.4551 C 31.543 -38.4277 33.3008 -36.6211 36.3281 -36.6211 C 39.3555 -36.6211 41.1133 -38.4277 41.1133 -41.4551 L 41.1133 -42.2852 C 41.1133 -43.2129 41.4551 -43.6035 42.4316 -43.6035 L 43.2129 -43.6035 C 46.1914 -43.6035 48.0469 -45.4102 48.0469 -48.3887 C 48.0469 -51.3672 46.2402 -53.125 43.2129 -53.125 Z M 59.5215 -53.125 L 55.8594 -53.125 C 52.832 -53.125 51.0254 -51.3672 51.0254 -48.3887 C 51.0254 -45.4102 52.9297 -43.6035 55.8594 -43.6035 L 56.6895 -43.6035 C 57.6172 -43.6035 58.0078 -43.2129 58.0078 -42.2852 L 58.0078 -41.4551 C 58.0078 -38.4277 59.7656 -36.6211 62.793 -36.6211 C 65.7715 -36.6211 67.5293 -38.4277 67.5293 -41.4551 L 67.5293 -45.0684 C 67.5293 -49.8047 64.209 -53.125 59.5215 -53.125 Z M 39.5996 -17.1387 L 43.2129 -17.1387 C 46.2402 -17.1387 48.0469 -18.8965 48.0469 -21.9238 C 48.0469 -24.9023 46.1914 -26.709 43.2129 -26.709 L 42.4316 -26.709 C 41.4551 -26.709 41.1133 -27.0508 41.1133 -28.0273 L 41.1133 -28.8574 C 41.1133 -31.8359 39.3555 -33.6914 36.3281 -33.6914 C 33.3008 -33.6914 31.543 -31.8848 31.543 -28.8574 L 31.543 -25.1953 C 31.543 -20.5078 34.8633 -17.1387 39.5996 -17.1387 Z M 59.5215 -17.1387 C 64.209 -17.1387 67.5293 -20.5078 67.5293 -25.1953 L 67.5293 -28.8574 C 67.5293 -31.8848 65.7715 -33.6914 62.793 -33.6914 C 59.7656 -33.6914 58.0078 -31.8359 58.0078 -28.8574 L 58.0078 -28.0273 C 58.0078 -27.0508 57.6172 -26.709 56.6895 -26.709 L 55.8594 -26.709 C 52.9297 -26.709 51.0254 -24.9023 51.0254 -21.9238 C 51.0254 -18.8965 52.832 -17.1387 55.8594 -17.1387 Z"/>
  </g>
  <g id="Ultralight-M" transform="matrix(1 0 0 1 503.656 1126)">
   <path d="M 56.0547 12.207 C 82.0801 12.207 103.369 -9.08203 103.369 -35.1562 C 103.369 -61.1816 82.0801 -82.4707 56.0547 -82.4707 C 30.0293 -82.4707 8.74023 -61.1816 8.74023 -35.1562 C 8.74023 -9.08203 30.0293 12.207 56.0547 12.207 Z M 56.0547 9.81445 C 31.25 9.81445 11.1328 -10.3516 11.1328 -35.1562 C 11.1328 -59.9121 31.25 -80.0781 56.0547 -80.0781 C 80.8105 -80.0781 100.977 -59.9121 100.977 -35.1562 C 100.977 -10.3516 80.8105 9.81445 56.0547 9.81445 Z M 39.9414 -58.4961 C 35.1074 -58.4961 32.5684 -55.957 32.5684 -51.123 L 32.5684 -43.75 C 32.5684 -42.9688 33.0566 -42.4316 33.7891 -42.4316 C 34.4727 -42.4316 34.9609 -42.9688 34.9609 -43.75 L 34.9609 -51.0742 C 34.9609 -54.3945 36.6699 -56.1035 39.9902 -56.1035 L 47.3145 -56.1035 C 48.0957 -56.1035 48.6328 -56.543 48.6328 -57.2754 C 48.6328 -58.0078 48.0957 -58.4961 47.3145 -58.4961 Z M 71.875 -58.4961 L 64.5508 -58.4961 C 63.7207 -58.4961 63.1836 -58.0078 63.1836 -57.2754 C 63.1836 -56.543 63.7207 -56.1035 64.5508 -56.1035 L 71.875 -56.1035 C 75.1953 -56.1035 76.8555 -54.3945 76.8555 -51.0742 L 76.8555 -43.75 C 76.8555 -42.9688 77.3438 -42.4316 78.0762 -42.4316 C 78.8086 -42.4316 79.2969 -42.9688 79.2969 -43.75 L 79.2969 -51.123 C 79.2969 -55.957 76.7578 -58.4961 71.875 -58.4961 Z M 39.9414 -11.7676 L 47.3145 -11.7676 C 48.0957 -11.7676 48.6328 -12.2559 48.6328 -12.9883 C 48.6328 -13.7207 48.0957 -14.1602 47.3145 -14.1602 L 39.9902 -14.1602 C 36.6699 -14.1602 34.9609 -15.8691 34.9609 -19.1895 L 34.9609 -26.5137 C 34.9609 -27.2949 34.4727 -27.8809 33.7891 -27.8809 C 33.0566 -27.8809 32.5684 -27.2949 32.5684 -26.5137 L 32.5684 -19.1406 C 32.5684 -14.3066 35.1074 -11.7676 39.9414 -11.7676 Z M 71.875 -11.7676 C 76.7578 -11.7676 79.2969 -14.3066 79.2969 -19.1406 L 79.2969 -26.5137 C 79.2969 -27.2949 78.8086 -27.8809 78.0762 -27.8809 C 77.3438 -27.8809 76.8555 -27.2949 76.8555 -26.5137 L 76.8555 -19.1895 C 76.8555 -15.8691 75.1953 -14.1602 71.875 -14.1602 L 64.5508 -14.1602 C 63.7207 -14.1602 63.1836 -13.7207 63.1836 -12.9883 C 63.1836 -12.2559 63.7207 -11.7676 64.5508 -11.7676 Z"/>
  </g>
  <g id="Thin-M" transform="matrix(1 0 0 1 799.806 1126)">
   <path d="M 56.5918 12.7441 C 82.9102 12.7441 104.492 -8.83789 104.492 -35.1562 C 104.492 -61.4746 82.9102 -83.0566 56.5918 -83.0566 C 30.3223 -83.0566 8.74023 -61.4746 8.74023 -35.1562 C 8.74023 -8.83789 30.3223 12.7441 56.5918 12.7441 Z M 56.5918 8.98438 C 32.2266 8.98438 12.4512 -10.791 12.4512 -35.1562 C 12.4512 -59.5215 32.2266 -79.2969 56.5918 -79.2969 C 80.957 -79.2969 100.781 -59.5215 100.781 -35.1562 C 100.781 -10.791 81.0059 8.98438 56.5918 8.98438 Z M 40.7715 -58.6426 C 35.6445 -58.6426 32.959 -56.0059 32.959 -50.8789 L 32.959 -43.7012 C 32.959 -42.627 33.6426 -41.8945 34.668 -41.8945 C 35.7422 -41.8945 36.4258 -42.627 36.4258 -43.7012 L 36.4258 -50.5859 C 36.4258 -53.6621 37.9395 -55.2246 41.0156 -55.2246 L 47.9492 -55.2246 C 49.0234 -55.2246 49.7559 -55.9082 49.7559 -56.9336 C 49.7559 -57.959 49.0234 -58.6426 47.9492 -58.6426 Z M 72.168 -58.6426 L 64.9902 -58.6426 C 63.916 -58.6426 63.1836 -57.959 63.1836 -56.9336 C 63.1836 -55.9082 63.916 -55.2246 64.9902 -55.2246 L 71.9238 -55.2246 C 75 -55.2246 76.5137 -53.6621 76.5137 -50.5859 L 76.5137 -43.7012 C 76.5137 -42.627 77.1973 -41.8945 78.2715 -41.8945 C 79.2969 -41.8945 79.9805 -42.627 79.9805 -43.7012 L 79.9805 -50.8789 C 79.9805 -56.0059 77.2949 -58.6426 72.168 -58.6426 Z M 40.7715 -11.6211 L 47.9492 -11.6211 C 49.0234 -11.6211 49.7559 -12.3047 49.7559 -13.3789 C 49.7559 -14.4043 49.0234 -15.0879 47.9492 -15.0879 L 41.0156 -15.0879 C 37.9395 -15.0879 36.4258 -16.6504 36.4258 -19.7266 L 36.4258 -26.5625 C 36.4258 -27.6855 35.7422 -28.418 34.668 -28.418 C 33.6426 -28.418 32.959 -27.6855 32.959 -26.5625 L 32.959 -19.4336 C 32.959 -14.3066 35.6445 -11.6211 40.7715 -11.6211 Z M 72.168 -11.6211 C 77.2949 -11.6211 79.9805 -14.3066 79.9805 -19.4336 L 79.9805 -26.5625 C 79.9805 -27.6855 79.2969 -28.418 78.2715 -28.418 C 77.1973 -28.418 76.5137 -27.6855 76.5137 -26.5625 L 76.5137 -19.7266 C 76.5137 -16.6504 75 -15.0879 71.9238 -15.0879 L 64.9902 -15.0879 C 63.916 -15.0879 63.1836 -14.4043 63.1836 -13.3789 C 63.1836 -12.3047 63.916 -11.6211 64.9902 -11.6211 Z"/>
  </g>
  <g id="Light-M" transform="matrix(1 0 0 1 1095.42 1126)">
   <path d="M 57.7148 13.7695 C 84.5215 13.7695 106.689 -8.39844 106.689 -35.2051 C 106.689 -62.0117 84.4727 -84.1797 57.666 -84.1797 C 30.8594 -84.1797 8.74023 -62.0117 8.74023 -35.2051 C 8.74023 -8.39844 30.8594 13.7695 57.7148 13.7695 Z M 57.7148 7.4707 C 34.082 7.4707 15.0879 -11.5723 15.0879 -35.2051 C 15.0879 -58.8379 34.0332 -77.832 57.666 -77.832 C 81.2988 -77.832 100.342 -58.8379 100.342 -35.2051 C 100.391 -11.5723 81.2988 7.4707 57.7148 7.4707 Z M 42.3828 -58.9844 C 36.7188 -58.9844 33.7402 -56.0547 33.7402 -50.3906 L 33.7402 -43.6523 C 33.7402 -41.9434 34.8145 -40.8203 36.4746 -40.8203 C 38.1348 -40.8203 39.209 -41.9434 39.209 -43.6523 L 39.209 -49.6094 C 39.209 -52.2461 40.4785 -53.5156 43.0664 -53.5156 L 49.1211 -53.5156 C 50.8301 -53.5156 51.9531 -54.5898 51.9531 -56.25 C 51.9531 -57.8613 50.8301 -58.9844 49.1211 -58.9844 Z M 72.7051 -58.9844 L 65.9668 -58.9844 C 64.2578 -58.9844 63.1348 -57.8613 63.1348 -56.25 C 63.1348 -54.5898 64.2578 -53.5156 65.9668 -53.5156 L 72.0215 -53.5156 C 74.6094 -53.5156 75.8789 -52.2461 75.8789 -49.6094 L 75.8789 -43.6523 C 75.8789 -41.9434 76.9531 -40.8203 78.6133 -40.8203 C 80.2734 -40.8203 81.3477 -41.9434 81.3477 -43.6523 L 81.3477 -50.3906 C 81.3477 -56.0547 78.418 -58.9844 72.7051 -58.9844 Z M 42.3828 -11.3281 L 49.1211 -11.3281 C 50.8301 -11.3281 51.9531 -12.4512 51.9531 -14.1113 C 51.9531 -15.7227 50.8301 -16.8457 49.1211 -16.8457 L 43.0664 -16.8457 C 40.4785 -16.8457 39.209 -18.1152 39.209 -20.7031 L 39.209 -26.709 C 39.209 -28.418 38.1348 -29.541 36.4746 -29.541 C 34.8145 -29.541 33.7402 -28.3691 33.7402 -26.709 L 33.7402 -19.9219 C 33.7402 -14.3066 36.7188 -11.3281 42.3828 -11.3281 Z M 72.7051 -11.3281 C 78.418 -11.3281 81.3477 -14.3066 81.3477 -19.9219 L 81.3477 -26.709 C 81.3477 -28.3691 80.2734 -29.541 78.6133 -29.541 C 76.9531 -29.541 75.8789 -28.418 75.8789 -26.709 L 75.8789 -20.7031 C 75.8789 -18.1152 74.6094 -16.8457 72.0215 -16.8457 L 65.9668 -16.8457 C 64.2578 -16.8457 63.1348 -15.7227 63.1348 -14.1113 C 63.1348 -12.4512 64.2578 -11.3281 65.9668 -11.3281 Z"/>
  </g>
  <g id="Regular-M" transform="matrix(1 0 0 1 1391.32 1126)">
   <path d="M 58.5449 14.5508 C 85.7422 14.5508 108.35 -8.00781 108.35 -35.2539 C 108.35 -62.4512 85.6934 -85.0586 58.4961 -85.0586 C 31.25 -85.0586 8.74023 -62.4512 8.74023 -35.2539 C 8.74023 -8.00781 31.2988 14.5508 58.5449 14.5508 Z M 58.5449 6.25 C 35.498 6.25 17.0898 -12.207 17.0898 -35.2539 C 17.0898 -58.252 35.4492 -76.7578 58.4961 -76.7578 C 81.4941 -76.7578 100 -58.252 100.049 -35.2539 C 100.098 -12.207 81.543 6.25 58.5449 6.25 Z M 43.5547 -59.2285 C 37.5 -59.2285 34.3262 -56.1035 34.3262 -50.0488 L 34.3262 -43.6035 C 34.3262 -41.4551 35.7422 -40.0391 37.8418 -40.0391 C 39.9414 -40.0391 41.3574 -41.4062 41.3574 -43.6035 L 41.3574 -48.877 C 41.3574 -51.1719 42.3828 -52.1973 44.6289 -52.1973 L 50.0488 -52.1973 C 52.1973 -52.1973 53.6133 -53.6133 53.6133 -55.7129 C 53.6133 -57.8125 52.1973 -59.2285 50.0488 -59.2285 Z M 73.1445 -59.2285 L 66.6504 -59.2285 C 64.5508 -59.2285 63.0859 -57.8125 63.0859 -55.7129 C 63.0859 -53.6133 64.5508 -52.1973 66.6504 -52.1973 L 72.1191 -52.1973 C 74.3164 -52.1973 75.3906 -51.1719 75.3906 -48.877 L 75.3906 -43.6035 C 75.3906 -41.4062 76.7578 -40.0391 78.8574 -40.0391 C 81.0059 -40.0391 82.4219 -41.4551 82.4219 -43.6035 L 82.4219 -50.0488 C 82.4219 -56.1035 79.1992 -59.2285 73.1445 -59.2285 Z M 43.5547 -11.1328 L 50.0488 -11.1328 C 52.1973 -11.1328 53.6133 -12.5488 53.6133 -14.6484 C 53.6133 -16.748 52.1973 -18.1641 50.0488 -18.1641 L 44.6289 -18.1641 C 42.3828 -18.1641 41.3574 -19.1895 41.3574 -21.4844 L 41.3574 -26.7578 C 41.3574 -28.9551 39.9414 -30.3223 37.8418 -30.3223 C 35.7422 -30.3223 34.3262 -28.9062 34.3262 -26.7578 L 34.3262 -20.3125 C 34.3262 -14.2578 37.5 -11.1328 43.5547 -11.1328 Z M 73.1445 -11.1328 C 79.1992 -11.1328 82.4219 -14.2578 82.4219 -20.3125 L 82.4219 -26.7578 C 82.4219 -28.9062 81.0059 -30.3223 78.8574 -30.3223 C 76.7578 -30.3223 75.3906 -28.9551 75.3906 -26.7578 L 75.3906 -21.4844 C 75.3906 -19.1895 74.3164 -18.1641 72.1191 -18.1641 L 66.6504 -18.1641 C 64.5508 -18.1641 63.0859 -16.748 63.0859 -14.6484 C 63.0859 -12.5488 64.5508 -11.1328 66.6504 -11.1328 Z"/>
  </g>
  <g id="Medium-M" transform="matrix(1 0 0 1 1687.33 1126)">
   <path d="M 59.2285 15.2832 C 86.8652 15.2832 109.717 -7.56836 109.717 -35.2051 C 109.717 -62.8418 86.8164 -85.7422 59.1797 -85.7422 C 31.543 -85.7422 8.74023 -62.8418 8.74023 -35.2051 C 8.74023 -7.56836 31.5918 15.2832 59.2285 15.2832 Z M 59.2285 5.17578 C 36.8164 5.17578 18.8477 -12.793 18.8477 -35.2051 C 18.8477 -57.6172 36.7676 -75.6348 59.1797 -75.6348 C 81.5918 -75.6348 99.6094 -57.6172 99.6582 -35.2051 C 99.6582 -12.793 81.6406 5.17578 59.2285 5.17578 Z M 44.6289 -59.082 C 38.5254 -59.082 35.2051 -55.7617 35.2051 -49.707 L 35.2051 -43.5059 C 35.2051 -41.1133 36.7188 -39.5508 39.1113 -39.5508 C 41.5039 -39.5508 43.0176 -41.1133 43.0176 -43.5059 L 43.0176 -48.1934 C 43.0176 -50.293 43.9453 -51.2695 46.0449 -51.2695 L 50.8301 -51.2695 C 53.1738 -51.2695 54.7852 -52.832 54.7852 -55.127 C 54.7852 -57.5195 53.2227 -59.082 50.8301 -59.082 Z M 73.5352 -59.082 L 67.334 -59.082 C 64.9902 -59.082 63.3789 -57.5195 63.3789 -55.127 C 63.3789 -52.832 64.9902 -51.2695 67.334 -51.2695 L 72.1191 -51.2695 C 74.2188 -51.2695 75.1465 -50.293 75.1465 -48.1934 L 75.1465 -43.5059 C 75.1465 -41.1133 76.6602 -39.5508 79.0527 -39.5508 C 81.4453 -39.5508 83.0078 -41.1133 83.0078 -43.5059 L 83.0078 -49.707 C 83.0078 -55.7617 79.6387 -59.082 73.5352 -59.082 Z M 44.6289 -11.2793 L 50.8301 -11.2793 C 53.2227 -11.2793 54.7852 -12.8418 54.7852 -15.1855 C 54.7852 -17.5293 53.1738 -19.0918 50.8301 -19.0918 L 46.0449 -19.0918 C 43.9453 -19.0918 43.0176 -20.0684 43.0176 -22.168 L 43.0176 -26.8066 C 43.0176 -29.248 41.5039 -30.8105 39.1113 -30.8105 C 36.7188 -30.8105 35.2051 -29.1992 35.2051 -26.8066 L 35.2051 -20.6055 C 35.2051 -14.5996 38.5254 -11.2793 44.6289 -11.2793 Z M 73.5352 -11.2793 C 79.6387 -11.2793 83.0078 -14.5996 83.0078 -20.6055 L 83.0078 -26.8066 C 83.0078 -29.1992 81.4453 -30.8105 79.0527 -30.8105 C 76.6602 -30.8105 75.1465 -29.248 75.1465 -26.8066 L 75.1465 -22.168 C 75.1465 -20.0684 74.2188 -19.0918 72.1191 -19.0918 L 67.334 -19.0918 C 64.9902 -19.0918 63.3789 -17.5293 63.3789 -15.1855 C 63.3789 -12.8418 64.9902 -11.2793 67.334 -11.2793 Z"/>
  </g>
  <g id="Semibold-M" transform="matrix(1 0 0 1 1983.5 1126)">
   <path d="M 59.7656 15.8203 C 87.7441 15.8203 110.791 -7.22656 110.791 -35.2051 C 110.791 -63.1836 87.6953 -86.2305 59.7168 -86.2305 C 31.7383 -86.2305 8.74023 -63.1836 8.74023 -35.2051 C 8.74023 -7.22656 31.7871 15.8203 59.7656 15.8203 Z M 59.7656 4.3457 C 37.8418 4.3457 20.2148 -13.2812 20.2148 -35.2051 C 20.2148 -57.1289 37.793 -74.7559 59.7168 -74.7559 C 81.6406 -74.7559 99.3164 -57.1289 99.3164 -35.2051 C 99.3652 -13.2812 81.6895 4.3457 59.7656 4.3457 Z M 45.4102 -58.9355 C 39.3066 -58.9355 35.8398 -55.5176 35.8398 -49.4629 L 35.8398 -43.457 C 35.8398 -40.8691 37.5 -39.209 40.0879 -39.209 C 42.6758 -39.209 44.2871 -40.8691 44.2871 -43.457 L 44.2871 -47.6562 C 44.2871 -49.6582 45.166 -50.5371 47.1191 -50.5371 L 51.416 -50.5371 C 53.9551 -50.5371 55.6641 -52.1973 55.6641 -54.7363 C 55.6641 -57.3242 54.0039 -58.9355 51.416 -58.9355 Z M 73.877 -58.9355 L 67.8711 -58.9355 C 65.2832 -58.9355 63.623 -57.3242 63.623 -54.7363 C 63.623 -52.1973 65.332 -50.5371 67.8711 -50.5371 L 72.168 -50.5371 C 74.1211 -50.5371 75 -49.6582 75 -47.6562 L 75 -43.457 C 75 -40.8691 76.6113 -39.209 79.1992 -39.209 C 81.7871 -39.209 83.4473 -40.8691 83.4473 -43.457 L 83.4473 -49.4629 C 83.4473 -55.5176 79.9805 -58.9355 73.877 -58.9355 Z M 45.4102 -11.377 L 51.416 -11.377 C 54.0039 -11.377 55.6641 -13.0371 55.6641 -15.625 C 55.6641 -18.1152 53.9551 -19.8242 51.416 -19.8242 L 47.1191 -19.8242 C 45.166 -19.8242 44.2871 -20.7031 44.2871 -22.7051 L 44.2871 -26.8555 C 44.2871 -29.4922 42.6758 -31.1523 40.0879 -31.1523 C 37.5 -31.1523 35.8398 -29.4434 35.8398 -26.8555 L 35.8398 -20.8496 C 35.8398 -14.7949 39.3066 -11.377 45.4102 -11.377 Z M 73.877 -11.377 C 79.9805 -11.377 83.4473 -14.7949 83.4473 -20.8496 L 83.4473 -26.8555 C 83.4473 -29.4434 81.7871 -31.1523 79.1992 -31.1523 C 76.6113 -31.1523 75 -29.4922 75 -26.8555 L 75 -22.7051 C 75 -20.7031 74.1211 -19.8242 72.168 -19.8242 L 67.8711 -19.8242 C 65.332 -19.8242 63.623 -18.1152 63.623 -15.625 C 63.623 -13.0371 65.2832 -11.377 67.8711 -11.377 Z"/>
  </g>
  <g id="Bold-M" transform="matrix(1 0 0 1 2279.5 1126)">
   <path d="M 60.4492 16.5527 C 88.8672 16.5527 112.207 -6.78711 112.207 -35.2051 C 112.207 -63.5742 88.8672 -86.9141 60.4492 -86.9141 C 32.0312 -86.9141 8.74023 -63.5742 8.74023 -35.2051 C 8.74023 -6.78711 32.0801 16.5527 60.4492 16.5527 Z M 60.4492 3.27148 C 39.1602 3.27148 22.0215 -13.8672 22.0215 -35.2051 C 22.0215 -56.4941 39.1602 -73.6328 60.4492 -73.6328 C 81.7383 -73.6328 98.877 -56.4941 98.9258 -35.2051 C 98.9258 -13.8672 81.7871 3.27148 60.4492 3.27148 Z M 46.4844 -58.7891 C 40.3809 -58.7891 36.7188 -55.1758 36.7188 -49.1211 L 36.7188 -43.4082 C 36.7188 -40.5762 38.5254 -38.7207 41.3574 -38.7207 C 44.1895 -38.7207 45.9473 -40.5273 45.9473 -43.4082 L 45.9473 -46.9727 C 45.9473 -48.7793 46.7773 -49.5605 48.584 -49.5605 L 52.1973 -49.5605 C 54.9805 -49.5605 56.8359 -51.3672 56.8359 -54.1504 C 56.8359 -57.0312 55.0293 -58.7891 52.1973 -58.7891 Z M 74.3164 -58.7891 L 68.6035 -58.7891 C 65.7227 -58.7891 63.916 -57.0312 63.916 -54.1504 C 63.916 -51.3672 65.7715 -49.5605 68.6035 -49.5605 L 72.2168 -49.5605 C 73.9746 -49.5605 74.8047 -48.7793 74.8047 -46.9727 L 74.8047 -43.4082 C 74.8047 -40.5273 76.5625 -38.7207 79.3945 -38.7207 C 82.2266 -38.7207 84.0332 -40.5762 84.0332 -43.4082 L 84.0332 -49.1211 C 84.0332 -55.1758 80.3711 -58.7891 74.3164 -58.7891 Z M 46.4844 -11.5234 L 52.1973 -11.5234 C 55.0293 -11.5234 56.8359 -13.2812 56.8359 -16.1621 C 56.8359 -18.9453 54.9805 -20.752 52.1973 -20.752 L 48.584 -20.752 C 46.7773 -20.752 45.9473 -21.5332 45.9473 -23.3398 L 45.9473 -26.9043 C 45.9473 -29.7852 44.1895 -31.5918 41.3574 -31.5918 C 38.5254 -31.5918 36.7188 -29.7852 36.7188 -26.9043 L 36.7188 -21.1914 C 36.7188 -15.1367 40.3809 -11.5234 46.4844 -11.5234 Z M 74.3164 -11.5234 C 80.3711 -11.5234 84.0332 -15.1367 84.0332 -21.1914 L 84.0332 -26.9043 C 84.0332 -29.7852 82.2266 -31.5918 79.3945 -31.5918 C 76.5625 -31.5918 74.8047 -29.7852 74.8047 -26.9043 L 74.8047 -23.3398 C 74.8047 -21.5332 73.9746 -20.752 72.2168 -20.752 L 68.6035 -20.752 C 65.7715 -20.752 63.916 -18.9453 63.916 -16.1621 C 63.916 -13.2812 65.7227 -11.5234 68.6035 -11.5234 Z"/>
  </g>
  <g id="Heavy-M" transform="matrix(1 0 0 1 2575.19 1126)">
   <path d="M 61.4746 17.627 C 90.5273 17.627 114.258 -6.10352 114.258 -35.1562 C 114.258 -64.209 90.5273 -87.9395 61.4746 -87.9395 C 32.4219 -87.9395 8.74023 -64.209 8.74023 -35.1562 C 8.74023 -6.10352 32.4707 17.627 61.4746 17.627 Z M 61.4746 1.70898 C 41.1133 1.70898 24.6582 -14.7949 24.6582 -35.1562 C 24.6582 -55.5176 41.1133 -72.0215 61.4746 -72.0215 C 81.8359 -72.0215 98.3398 -55.5176 98.3398 -35.1562 C 98.3398 -14.7949 81.8848 1.70898 61.4746 1.70898 Z M 47.998 -58.5449 C 41.8945 -58.5449 38.0371 -54.7363 38.0371 -48.6328 L 38.0371 -43.3105 C 38.0371 -40.0879 39.9902 -38.0859 43.2129 -38.0859 C 46.4844 -38.0859 48.4375 -40.0879 48.4375 -43.3105 L 48.4375 -45.9473 C 48.4375 -47.5098 49.0723 -48.1934 50.6348 -48.1934 L 53.3203 -48.1934 C 56.4941 -48.1934 58.5449 -50.1953 58.5449 -53.3691 C 58.5449 -56.5918 56.543 -58.5449 53.3203 -58.5449 Z M 74.9023 -58.5449 L 69.5801 -58.5449 C 66.3574 -58.5449 64.3555 -56.5918 64.3555 -53.3691 C 64.3555 -50.1953 66.4062 -48.1934 69.5801 -48.1934 L 72.2656 -48.1934 C 73.8281 -48.1934 74.4629 -47.5098 74.4629 -45.9473 L 74.4629 -43.3105 C 74.4629 -40.0879 76.416 -38.0859 79.6875 -38.0859 C 82.9102 -38.0859 84.8633 -40.0879 84.8633 -43.3105 L 84.8633 -48.6328 C 84.8633 -54.7363 81.0059 -58.5449 74.9023 -58.5449 Z M 47.998 -11.7188 L 53.3203 -11.7188 C 56.543 -11.7188 58.5449 -13.6719 58.5449 -16.9434 C 58.5449 -20.1172 56.4941 -22.1191 53.3203 -22.1191 L 50.6348 -22.1191 C 49.0723 -22.1191 48.4375 -22.8027 48.4375 -24.3652 L 48.4375 -26.9531 C 48.4375 -30.2246 46.4844 -32.2266 43.2129 -32.2266 C 39.9902 -32.2266 38.0371 -30.2246 38.0371 -26.9531 L 38.0371 -21.6797 C 38.0371 -15.5762 41.8945 -11.7188 47.998 -11.7188 Z M 74.9023 -11.7188 C 81.0059 -11.7188 84.8633 -15.5762 84.8633 -21.6797 L 84.8633 -26.9531 C 84.8633 -30.2246 82.9102 -32.2266 79.6875 -32.2266 C 76.416 -32.2266 74.4629 -30.2246 74.4629 -26.9531 L 74.4629 -24.3652 C 74.4629 -22.8027 73.8281 -22.1191 72.2656 -22.1191 L 69.5801 -22.1191 C 66.4062 -22.1191 64.3555 -20.1172 64.3555 -16.9434 C 64.3555 -13.6719 66.3574 -11.7188 69.5801 -11.7188 Z"/>
  </g>
  <g id="Black-M" transform="matrix(1 0 0 1 2871 1126)">
   <path d="M 62.4023 18.5547 C 91.9922 18.5547 116.064 -5.56641 116.064 -35.1562 C 116.064 -64.7461 91.9922 -88.8184 62.4023 -88.8184 C 32.8125 -88.8184 8.74023 -64.7461 8.74023 -35.1562 C 8.74023 -5.56641 32.8125 18.5547 62.4023 18.5547 Z M 62.4023 0.244141 C 42.8223 0.244141 27.002 -15.5762 27.002 -35.1562 C 27.002 -54.6875 42.8223 -70.5566 62.4023 -70.5566 C 81.9824 -70.5566 97.8027 -54.6875 97.8027 -35.1562 C 97.8027 -15.5762 81.9824 0.244141 62.4023 0.244141 Z M 49.3652 -58.3496 C 43.2617 -58.3496 39.1602 -54.2969 39.1602 -48.1934 L 39.1602 -43.2129 C 39.1602 -39.6484 41.3086 -37.4512 44.873 -37.4512 C 48.4863 -37.4512 50.5859 -39.6484 50.5859 -43.2129 L 50.5859 -45.0195 C 50.5859 -46.3867 51.1719 -46.9238 52.4902 -46.9238 L 54.2969 -46.9238 C 57.8125 -46.9238 60.0586 -49.1211 60.0586 -52.6367 C 60.0586 -56.25 57.8613 -58.3496 54.2969 -58.3496 Z M 75.4395 -58.3496 L 70.5078 -58.3496 C 66.9434 -58.3496 64.7461 -56.25 64.7461 -52.6367 C 64.7461 -49.1211 66.9922 -46.9238 70.5078 -46.9238 L 72.3145 -46.9238 C 73.6328 -46.9238 74.2188 -46.3867 74.2188 -45.0195 L 74.2188 -43.2129 C 74.2188 -39.6484 76.3184 -37.4512 79.9316 -37.4512 C 83.4961 -37.4512 85.6445 -39.6484 85.6445 -43.2129 L 85.6445 -48.1934 C 85.6445 -54.2969 81.543 -58.3496 75.4395 -58.3496 Z M 49.3652 -11.9141 L 54.2969 -11.9141 C 57.8613 -11.9141 60.0586 -14.0625 60.0586 -17.627 C 60.0586 -21.1426 57.8125 -23.3398 54.2969 -23.3398 L 52.4902 -23.3398 C 51.1719 -23.3398 50.5859 -23.877 50.5859 -25.2441 L 50.5859 -27.0508 C 50.5859 -30.6152 48.4863 -32.8125 44.873 -32.8125 C 41.3086 -32.8125 39.1602 -30.6152 39.1602 -27.0508 L 39.1602 -22.0703 C 39.1602 -15.9668 43.2617 -11.9141 49.3652 -11.9141 Z M 75.4395 -11.9141 C 81.543 -11.9141 85.6445 -15.9668 85.6445 -22.0703 L 85.6445 -27.0508 C 85.6445 -30.6152 83.4961 -32.8125 79.9316 -32.8125 C 76.3184 -32.8125 74.2188 -30.6152 74.2188 -27.0508 L 74.2188 -25.2441 C 74.2188 -23.877 73.6328 -23.3398 72.3145 -23.3398 L 70.5078 -23.3398 C 66.9922 -23.3398 64.7461 -21.1426 64.7461 -17.627 C 64.7461 -14.0625 66.9434 -11.9141 70.5078 -11.9141 Z"/>
  </g>
  <g id="Ultralight-L" transform="matrix(1 0 0 1 487.641 1556)">
   <path d="M 72.0703 25.7324 C 105.566 25.7324 132.91 -1.61133 132.91 -35.1074 C 132.91 -68.5547 105.566 -95.8984 72.0703 -95.8984 C 38.623 -95.8984 11.2793 -68.5547 11.2793 -35.1074 C 11.2793 -1.61133 38.623 25.7324 72.0703 25.7324 Z M 72.0703 23.2422 C 39.9414 23.2422 13.7695 -2.97852 13.7695 -35.1074 C 13.7695 -67.2363 39.9414 -93.4082 72.0703 -93.4082 C 104.199 -93.4082 130.42 -67.2363 130.371 -35.1074 C 130.371 -2.97852 104.199 23.2422 72.0703 23.2422 Z M 51.1719 -65.1855 C 45.0684 -65.1855 41.8457 -61.9629 41.8457 -55.8105 L 41.8457 -46.2402 C 41.8457 -45.3613 42.3828 -44.7266 43.1641 -44.7266 C 43.9453 -44.7266 44.4824 -45.3613 44.4824 -46.2402 L 44.4824 -55.8594 C 44.4824 -60.2539 46.7285 -62.5 51.1719 -62.5 L 60.791 -62.5 C 61.6699 -62.5 62.3047 -63.0371 62.3047 -63.8672 C 62.3047 -64.6484 61.6699 -65.1855 60.791 -65.1855 Z M 92.6758 -65.1855 L 83.0566 -65.1855 C 82.1777 -65.1855 81.543 -64.6484 81.543 -63.8672 C 81.543 -63.0371 82.1777 -62.5 83.0566 -62.5 L 92.6758 -62.5 C 97.0703 -62.5 99.3164 -60.2539 99.3164 -55.8594 L 99.3164 -46.2402 C 99.3164 -45.3613 99.8535 -44.7266 100.684 -44.7266 C 101.465 -44.7266 102.002 -45.3613 102.002 -46.2402 L 102.002 -55.8105 C 102.002 -61.9629 98.7793 -65.1855 92.6758 -65.1855 Z M 51.1719 -5.0293 L 60.791 -5.0293 C 61.6699 -5.0293 62.3047 -5.56641 62.3047 -6.34766 C 62.3047 -7.17773 61.6699 -7.66602 60.791 -7.66602 L 51.1719 -7.66602 C 46.7285 -7.66602 44.4824 -9.91211 44.4824 -14.3066 L 44.4824 -23.9746 C 44.4824 -24.8535 43.9453 -25.4883 43.1641 -25.4883 C 42.3828 -25.4883 41.8457 -24.8535 41.8457 -23.9746 L 41.8457 -14.4043 C 41.8457 -8.25195 45.0684 -5.0293 51.1719 -5.0293 Z M 92.6758 -5.0293 C 98.7793 -5.0293 102.002 -8.25195 102.002 -14.4043 L 102.002 -23.9746 C 102.002 -24.8535 101.465 -25.4883 100.684 -25.4883 C 99.8535 -25.4883 99.3164 -24.8535 99.3164 -23.9746 L 99.3164 -14.3066 C 99.3164 -9.91211 97.0703 -7.66602 92.6758 -7.66602 L 83.0566 -7.66602 C 82.1777 -7.66602 81.543 -7.17773 81.543 -6.34766 C 81.543 -5.56641 82.1777 -5.0293 83.0566 -5.0293 Z"/>
  </g>
  <g id="Thin-L" transform="matrix(1 0 0 1 783.717 1556)">
   <path d="M 72.7051 26.3184 C 106.494 26.3184 134.131 -1.36719 134.131 -35.1074 C 134.131 -68.8965 106.445 -96.582 72.7051 -96.582 C 38.916 -96.582 11.2793 -68.8965 11.2793 -35.1074 C 11.2793 -1.36719 38.916 26.3184 72.7051 26.3184 Z M 72.7051 22.3145 C 41.0156 22.3145 15.2344 -3.41797 15.2344 -35.1074 C 15.2344 -66.8457 41.0156 -92.5781 72.7051 -92.5781 C 104.395 -92.5781 130.127 -66.8457 130.176 -35.1074 C 130.176 -3.41797 104.395 22.3145 72.7051 22.3145 Z M 52.0996 -65.3809 C 45.6543 -65.3809 42.2852 -62.0117 42.2852 -55.5664 L 42.2852 -46.1914 C 42.2852 -44.9707 43.0664 -44.1406 44.1895 -44.1406 C 45.3613 -44.1406 46.0938 -44.9707 46.0938 -46.1914 L 46.0938 -55.3223 C 46.0938 -59.4727 48.1934 -61.5234 52.2949 -61.5234 L 61.4746 -61.5234 C 62.6953 -61.5234 63.5254 -62.3047 63.5254 -63.4277 C 63.5254 -64.5996 62.6953 -65.3809 61.4746 -65.3809 Z M 92.9688 -65.3809 L 83.5938 -65.3809 C 82.373 -65.3809 81.543 -64.5996 81.543 -63.4277 C 81.543 -62.3047 82.373 -61.5234 83.5938 -61.5234 L 92.7734 -61.5234 C 96.875 -61.5234 98.9746 -59.4727 98.9746 -55.3223 L 98.9746 -46.1914 C 98.9746 -44.9707 99.707 -44.1406 100.879 -44.1406 C 102.002 -44.1406 102.783 -44.9707 102.783 -46.1914 L 102.783 -55.5664 C 102.783 -62.0117 99.4141 -65.3809 92.9688 -65.3809 Z M 52.0996 -4.88281 L 61.4746 -4.88281 C 62.6953 -4.88281 63.5254 -5.61523 63.5254 -6.78711 C 63.5254 -7.91016 62.6953 -8.69141 61.4746 -8.69141 L 52.2949 -8.69141 C 48.1934 -8.69141 46.0938 -10.791 46.0938 -14.8926 L 46.0938 -24.0234 C 46.0938 -25.293 45.3613 -26.123 44.1895 -26.123 C 43.0664 -26.123 42.2852 -25.2441 42.2852 -24.0234 L 42.2852 -14.6484 C 42.2852 -8.25195 45.6543 -4.88281 52.0996 -4.88281 Z M 92.9688 -4.88281 C 99.4141 -4.88281 102.783 -8.25195 102.783 -14.6484 L 102.783 -24.0234 C 102.783 -25.2441 102.002 -26.123 100.879 -26.123 C 99.707 -26.123 98.9746 -25.293 98.9746 -24.0234 L 98.9746 -14.8926 C 98.9746 -10.791 96.875 -8.69141 92.7734 -8.69141 L 83.5938 -8.69141 C 82.373 -8.69141 81.543 -7.91016 81.543 -6.78711 C 81.543 -5.61523 82.373 -4.88281 83.5938 -4.88281 Z"/>
  </g>
  <g id="Light-L" transform="matrix(1 0 0 1 1079.21 1556)">
   <path d="M 73.9258 27.4902 C 108.301 27.4902 136.572 -0.830078 136.572 -35.1562 C 136.572 -69.5312 108.252 -97.8516 73.877 -97.8516 C 39.5508 -97.8516 11.2793 -69.5312 11.2793 -35.1562 C 11.2793 -0.830078 39.5508 27.4902 73.9258 27.4902 Z M 73.9258 20.6055 C 43.0664 20.6055 18.1641 -4.3457 18.1641 -35.1562 C 18.1641 -66.0156 43.0664 -90.918 73.877 -90.918 C 104.736 -90.918 129.639 -66.0156 129.688 -35.1562 C 129.736 -4.3457 104.785 20.6055 73.9258 20.6055 Z M 53.9062 -65.7227 C 46.8262 -65.7227 43.1641 -62.0605 43.1641 -55.0293 L 43.1641 -46.0938 C 43.1641 -44.2383 44.3848 -42.9688 46.1914 -42.9688 C 48.0469 -42.9688 49.2188 -44.1895 49.2188 -46.0938 L 49.2188 -54.248 C 49.2188 -57.8613 51.0254 -59.6191 54.5898 -59.6191 L 62.8418 -59.6191 C 64.6973 -59.6191 65.9668 -60.8887 65.9668 -62.6465 C 65.9668 -64.502 64.6973 -65.7227 62.8418 -65.7227 Z M 93.5547 -65.7227 L 84.668 -65.7227 C 82.7637 -65.7227 81.4941 -64.502 81.4941 -62.6465 C 81.4941 -60.8887 82.7637 -59.6191 84.668 -59.6191 L 92.8711 -59.6191 C 96.4844 -59.6191 98.2422 -57.8613 98.2422 -54.248 L 98.2422 -46.0938 C 98.2422 -44.1895 99.4141 -42.9688 101.27 -42.9688 C 103.076 -42.9688 104.346 -44.2383 104.346 -46.0938 L 104.346 -55.0293 C 104.346 -62.0605 100.635 -65.7227 93.5547 -65.7227 Z M 53.9062 -4.54102 L 62.8418 -4.54102 C 64.6973 -4.54102 65.9668 -5.76172 65.9668 -7.61719 C 65.9668 -9.42383 64.6973 -10.6445 62.8418 -10.6445 L 54.5898 -10.6445 C 51.0254 -10.6445 49.2188 -12.4023 49.2188 -16.0156 L 49.2188 -24.1699 C 49.2188 -26.0742 48.0469 -27.3438 46.1914 -27.3438 C 44.3848 -27.3438 43.1641 -26.0254 43.1641 -24.1699 L 43.1641 -15.2344 C 43.1641 -8.20312 46.8262 -4.54102 53.9062 -4.54102 Z M 93.5547 -4.54102 C 100.635 -4.54102 104.346 -8.20312 104.346 -15.2344 L 104.346 -24.1699 C 104.346 -26.0254 103.076 -27.3438 101.27 -27.3438 C 99.4141 -27.3438 98.2422 -26.0742 98.2422 -24.1699 L 98.2422 -16.0156 C 98.2422 -12.4023 96.4844 -10.6445 92.8711 -10.6445 L 84.668 -10.6445 C 82.7637 -10.6445 81.4941 -9.42383 81.4941 -7.61719 C 81.4941 -5.76172 82.7637 -4.54102 84.668 -4.54102 Z"/>
  </g>
  <g id="Regular-L" transform="matrix(1 0 0 1 1374.99 1556)">
   <path d="M 74.8535 28.3691 C 109.668 28.3691 138.428 -0.390625 138.428 -35.2051 C 138.428 -70.0195 109.619 -98.7793 74.8047 -98.7793 C 39.9902 -98.7793 11.2793 -70.0195 11.2793 -35.2051 C 11.2793 -0.390625 40.0391 28.3691 74.8535 28.3691 Z M 74.8535 19.2871 C 44.6289 19.2871 20.4102 -5.0293 20.4102 -35.2051 C 20.4102 -65.3809 44.5801 -89.6973 74.8047 -89.6973 C 104.98 -89.6973 129.297 -65.3809 129.346 -35.2051 C 129.395 -5.0293 105.029 19.2871 74.8535 19.2871 Z M 55.2246 -66.0156 C 47.7051 -66.0156 43.7988 -62.1094 43.7988 -54.6387 L 43.7988 -46.0449 C 43.7988 -43.7012 45.3613 -42.0898 47.7051 -42.0898 C 50.0488 -42.0898 51.6113 -43.6523 51.6113 -46.0449 L 51.6113 -53.418 C 51.6113 -56.6895 53.125 -58.2031 56.2988 -58.2031 L 63.8184 -58.2031 C 66.2109 -58.2031 67.8223 -59.7656 67.8223 -62.0605 C 67.8223 -64.4043 66.2109 -66.0156 63.8184 -66.0156 Z M 94.043 -66.0156 L 85.4492 -66.0156 C 83.0566 -66.0156 81.4453 -64.4043 81.4453 -62.0605 C 81.4453 -59.7656 83.0566 -58.2031 85.4492 -58.2031 L 92.9688 -58.2031 C 96.1426 -58.2031 97.6562 -56.6895 97.6562 -53.418 L 97.6562 -46.0449 C 97.6562 -43.6523 99.2188 -42.0898 101.562 -42.0898 C 103.906 -42.0898 105.469 -43.7012 105.469 -46.0449 L 105.469 -54.6387 C 105.469 -62.1094 101.562 -66.0156 94.043 -66.0156 Z M 55.2246 -4.29688 L 63.8184 -4.29688 C 66.2109 -4.29688 67.8223 -5.9082 67.8223 -8.25195 C 67.8223 -10.5469 66.2109 -12.1094 63.8184 -12.1094 L 56.2988 -12.1094 C 53.125 -12.1094 51.6113 -13.6719 51.6113 -16.8945 L 51.6113 -24.2676 C 51.6113 -26.709 50.0488 -28.2715 47.7051 -28.2715 C 45.3613 -28.2715 43.7988 -26.6602 43.7988 -24.2676 L 43.7988 -15.6738 C 43.7988 -8.20312 47.7051 -4.29688 55.2246 -4.29688 Z M 94.043 -4.29688 C 101.562 -4.29688 105.469 -8.20312 105.469 -15.6738 L 105.469 -24.2676 C 105.469 -26.6602 103.906 -28.2715 101.562 -28.2715 C 99.2188 -28.2715 97.6562 -26.709 97.6562 -24.2676 L 97.6562 -16.8945 C 97.6562 -13.6719 96.1426 -12.1094 92.9688 -12.1094 L 85.4492 -12.1094 C 83.0566 -12.1094 81.4453 -10.5469 81.4453 -8.25195 C 81.4453 -5.9082 83.0566 -4.29688 85.4492 -4.29688 Z"/>
  </g>
  <g id="Medium-L" transform="matrix(1 0 0 1 1670.9 1556)">
   <path d="M 75.6348 29.1992 C 110.938 29.1992 140.039 0.0976562 140.039 -35.2051 C 140.039 -70.459 110.889 -99.6094 75.5859 -99.6094 C 40.332 -99.6094 11.2793 -70.459 11.2793 -35.2051 C 11.2793 0.0976562 40.3809 29.1992 75.6348 29.1992 Z M 75.6348 18.0664 C 46.1426 18.0664 22.4609 -5.71289 22.4609 -35.2051 C 22.4609 -64.6973 46.0938 -88.4766 75.5859 -88.4766 C 105.127 -88.4766 128.857 -64.6973 128.906 -35.2051 C 128.955 -5.71289 105.176 18.0664 75.6348 18.0664 Z M 56.4453 -65.918 C 48.8281 -65.918 44.7266 -61.8164 44.7266 -54.2969 L 44.7266 -45.9961 C 44.7266 -43.2617 46.4844 -41.5039 49.1699 -41.5039 C 51.8555 -41.5039 53.5645 -43.2129 53.5645 -45.9961 L 53.5645 -52.6367 C 53.5645 -55.6641 54.9805 -57.0801 57.9102 -57.0801 L 64.6973 -57.0801 C 67.4316 -57.0801 69.2383 -58.8379 69.2383 -61.4746 C 69.2383 -64.1602 67.4316 -65.918 64.6973 -65.918 Z M 94.4824 -65.918 L 86.2305 -65.918 C 83.4961 -65.918 81.6895 -64.1602 81.6895 -61.4746 C 81.6895 -58.8379 83.4961 -57.0801 86.2305 -57.0801 L 93.0176 -57.0801 C 95.9961 -57.0801 97.3633 -55.6641 97.3633 -52.6367 L 97.3633 -45.9961 C 97.3633 -43.2129 99.1211 -41.5039 101.807 -41.5039 C 104.443 -41.5039 106.25 -43.2617 106.25 -45.9961 L 106.25 -54.2969 C 106.25 -61.8164 102.1 -65.918 94.4824 -65.918 Z M 56.4453 -4.39453 L 64.6973 -4.39453 C 67.4316 -4.39453 69.2383 -6.15234 69.2383 -8.83789 C 69.2383 -11.4746 67.4316 -13.2324 64.6973 -13.2324 L 57.9102 -13.2324 C 54.9805 -13.2324 53.5645 -14.6484 53.5645 -17.627 L 53.5645 -24.3164 C 53.5645 -27.0508 51.8555 -28.8086 49.1699 -28.8086 C 46.4844 -28.8086 44.7266 -27.002 44.7266 -24.3164 L 44.7266 -16.0156 C 44.7266 -8.49609 48.8281 -4.39453 56.4453 -4.39453 Z M 94.4824 -4.39453 C 102.1 -4.39453 106.25 -8.49609 106.25 -16.0156 L 106.25 -24.3164 C 106.25 -27.002 104.443 -28.8086 101.807 -28.8086 C 99.1211 -28.8086 97.3633 -27.0508 97.3633 -24.3164 L 97.3633 -17.627 C 97.3633 -14.6484 95.9961 -13.2324 93.0176 -13.2324 L 86.2305 -13.2324 C 83.4961 -13.2324 81.6895 -11.4746 81.6895 -8.83789 C 81.6895 -6.15234 83.4961 -4.39453 86.2305 -4.39453 Z"/>
  </g>
  <g id="Semibold-L" transform="matrix(1 0 0 1 1967 1556)">
   <path d="M 76.2695 29.834 C 111.914 29.834 141.26 0.439453 141.26 -35.2051 C 141.26 -70.8008 111.865 -100.195 76.2207 -100.195 C 40.5762 -100.195 11.2793 -70.8008 11.2793 -35.2051 C 11.2793 0.439453 40.625 29.834 76.2695 29.834 Z M 76.2695 17.1387 C 47.3145 17.1387 24.0234 -6.20117 24.0234 -35.2051 C 24.0234 -64.1602 47.2656 -87.5 76.2207 -87.5 C 105.225 -87.5 128.516 -64.1602 128.564 -35.2051 C 128.613 -6.20117 105.273 17.1387 76.2695 17.1387 Z M 57.373 -65.8203 C 49.707 -65.8203 45.4102 -61.6211 45.4102 -54.0039 L 45.4102 -45.9473 C 45.4102 -42.9688 47.3145 -41.0156 50.2441 -41.0156 C 53.1738 -41.0156 55.0781 -42.9199 55.0781 -45.9473 L 55.0781 -52.0508 C 55.0781 -54.8828 56.3477 -56.2012 59.1309 -56.2012 L 65.3809 -56.2012 C 68.3594 -56.2012 70.3125 -58.1055 70.3125 -60.9863 C 70.3125 -63.916 68.3594 -65.8203 65.3809 -65.8203 Z M 94.873 -65.8203 L 86.8164 -65.8203 C 83.8379 -65.8203 81.9336 -63.916 81.9336 -60.9863 C 81.9336 -58.1055 83.8867 -56.2012 86.8164 -56.2012 L 93.0664 -56.2012 C 95.8496 -56.2012 97.168 -54.8828 97.168 -52.0508 L 97.168 -45.9473 C 97.168 -42.9199 99.0234 -41.0156 101.953 -41.0156 C 104.883 -41.0156 106.787 -42.9688 106.787 -45.9473 L 106.787 -54.0039 C 106.787 -61.6211 102.539 -65.8203 94.873 -65.8203 Z M 57.373 -4.44336 L 65.3809 -4.44336 C 68.3594 -4.44336 70.3125 -6.34766 70.3125 -9.27734 C 70.3125 -12.1582 68.3594 -14.1113 65.3809 -14.1113 L 59.1309 -14.1113 C 56.3477 -14.1113 55.0781 -15.4297 55.0781 -18.2617 L 55.0781 -24.3652 C 55.0781 -27.3438 53.1738 -29.248 50.2441 -29.248 C 47.3145 -29.248 45.4102 -27.3438 45.4102 -24.3652 L 45.4102 -16.3086 C 45.4102 -8.69141 49.707 -4.44336 57.373 -4.44336 Z M 94.873 -4.44336 C 102.539 -4.44336 106.787 -8.69141 106.787 -16.3086 L 106.787 -24.3652 C 106.787 -27.3438 104.883 -29.248 101.953 -29.248 C 99.0234 -29.248 97.168 -27.3438 97.168 -24.3652 L 97.168 -18.2617 C 97.168 -15.4297 95.8496 -14.1113 93.0664 -14.1113 L 86.8164 -14.1113 C 83.8867 -14.1113 81.9336 -12.1582 81.9336 -9.27734 C 81.9336 -6.34766 83.8379 -4.44336 86.8164 -4.44336 Z"/>
  </g>
  <g id="Bold-L" transform="matrix(1 0 0 1 2262.9 1556)">
   <path d="M 77.0996 30.6641 C 113.184 30.6641 142.92 0.927734 142.92 -35.1562 C 142.92 -71.2891 113.135 -101.025 77.0508 -101.025 C 40.918 -101.025 11.2793 -71.2891 11.2793 -35.1562 C 11.2793 0.927734 40.9668 30.6641 77.0996 30.6641 Z M 77.0996 15.8691 C 48.7793 15.8691 26.0742 -6.88477 26.0742 -35.1562 C 26.0742 -63.4766 48.7793 -86.2305 77.0508 -86.2305 C 105.322 -86.2305 128.125 -63.4766 128.125 -35.1562 C 128.174 -6.88477 105.371 15.8691 77.0996 15.8691 Z M 58.5449 -65.7227 C 50.8301 -65.7227 46.3379 -61.3281 46.3379 -53.6133 L 46.3379 -45.8496 C 46.3379 -42.5781 48.4375 -40.4297 51.709 -40.4297 C 54.9805 -40.4297 57.0312 -42.5293 57.0312 -45.8496 L 57.0312 -51.2695 C 57.0312 -53.8574 58.2031 -55.0781 60.791 -55.0781 L 66.3086 -55.0781 C 69.5801 -55.0781 71.7285 -57.1777 71.7285 -60.4004 C 71.7285 -63.6719 69.5801 -65.7227 66.3086 -65.7227 Z M 95.3125 -65.7227 L 87.5977 -65.7227 C 84.2773 -65.7227 82.1777 -63.6719 82.1777 -60.4004 C 82.1777 -57.1777 84.3262 -55.0781 87.5977 -55.0781 L 93.1152 -55.0781 C 95.6543 -55.0781 96.875 -53.8574 96.875 -51.2695 L 96.875 -45.8496 C 96.875 -42.5293 98.9258 -40.4297 102.197 -40.4297 C 105.469 -40.4297 107.568 -42.5781 107.568 -45.8496 L 107.568 -53.6133 C 107.568 -61.3281 103.076 -65.7227 95.3125 -65.7227 Z M 58.5449 -4.54102 L 66.3086 -4.54102 C 69.5801 -4.54102 71.7285 -6.64062 71.7285 -9.91211 C 71.7285 -13.1348 69.5801 -15.2344 66.3086 -15.2344 L 60.791 -15.2344 C 58.2031 -15.2344 57.0312 -16.4062 57.0312 -19.043 L 57.0312 -24.4141 C 57.0312 -27.7344 54.9805 -29.834 51.709 -29.834 C 48.4375 -29.834 46.3379 -27.7344 46.3379 -24.4141 L 46.3379 -16.6992 C 46.3379 -8.98438 50.8301 -4.54102 58.5449 -4.54102 Z M 95.3125 -4.54102 C 103.076 -4.54102 107.568 -8.98438 107.568 -16.6992 L 107.568 -24.4141 C 107.568 -27.7344 105.469 -29.834 102.197 -29.834 C 98.9258 -29.834 96.875 -27.7344 96.875 -24.4141 L 96.875 -19.043 C 96.875 -16.4062 95.6543 -15.2344 93.1152 -15.2344 L 87.5977 -15.2344 C 84.3262 -15.2344 82.1777 -13.1348 82.1777 -9.91211 C 82.1777 -6.64062 84.2773 -4.54102 87.5977 -4.54102 Z"/>
  </g>
  <g id="Heavy-L" transform="matrix(1 0 0 1 2558.42 1556)">
   <path d="M 78.2715 31.8359 C 115.039 31.8359 145.264 1.61133 145.264 -35.1562 C 145.264 -71.9727 115.039 -102.148 78.2227 -102.148 C 41.4551 -102.148 11.2793 -71.9727 11.2793 -35.1562 C 11.2793 1.61133 41.4551 31.8359 78.2715 31.8359 Z M 78.2715 14.0625 C 50.9766 14.0625 29.0527 -7.91016 29.0527 -35.1562 C 29.0527 -62.4512 50.9766 -84.4238 78.2227 -84.4238 C 105.518 -84.4238 127.49 -62.4512 127.49 -35.1562 C 127.539 -7.91016 105.518 14.0625 78.2715 14.0625 Z M 60.3027 -65.625 C 52.4414 -65.625 47.7051 -60.8887 47.7051 -53.0273 L 47.7051 -45.752 C 47.7051 -41.9922 50.0488 -39.5996 53.8086 -39.5996 C 57.5684 -39.5996 59.9121 -41.9434 59.9121 -45.752 L 59.9121 -50.1465 C 59.9121 -52.3926 60.8887 -53.418 63.1348 -53.418 L 67.5781 -53.418 C 71.3379 -53.418 73.7793 -55.8105 73.7793 -59.4727 C 73.7793 -63.2812 71.3867 -65.625 67.5781 -65.625 Z M 95.9961 -65.625 L 88.7207 -65.625 C 84.9609 -65.625 82.5684 -63.2812 82.5684 -59.4727 C 82.5684 -55.8105 85.0098 -53.418 88.7207 -53.418 L 93.1641 -53.418 C 95.4102 -53.418 96.4355 -52.3926 96.4355 -50.1465 L 96.4355 -45.752 C 96.4355 -41.9434 98.7305 -39.5996 102.539 -39.5996 C 106.299 -39.5996 108.643 -41.9922 108.643 -45.752 L 108.643 -53.0273 C 108.643 -60.8887 103.906 -65.625 95.9961 -65.625 Z M 60.3027 -4.6875 L 67.5781 -4.6875 C 71.3867 -4.6875 73.7793 -7.03125 73.7793 -10.791 C 73.7793 -14.502 71.3379 -16.8945 67.5781 -16.8945 L 63.1348 -16.8945 C 60.8887 -16.8945 59.9121 -17.8711 59.9121 -20.166 L 59.9121 -24.5117 C 59.9121 -28.3203 57.5684 -30.6641 53.8086 -30.6641 C 50.0488 -30.6641 47.7051 -28.2715 47.7051 -24.5117 L 47.7051 -17.2363 C 47.7051 -9.375 52.4414 -4.6875 60.3027 -4.6875 Z M 95.9961 -4.6875 C 103.906 -4.6875 108.643 -9.375 108.643 -17.2363 L 108.643 -24.5117 C 108.643 -28.2715 106.299 -30.6641 102.539 -30.6641 C 98.7305 -30.6641 96.4355 -28.3203 96.4355 -24.5117 L 96.4355 -20.166 C 96.4355 -17.8711 95.4102 -16.8945 93.1641 -16.8945 L 88.7207 -16.8945 C 85.0098 -16.8945 82.5684 -14.502 82.5684 -10.791 C 82.5684 -7.03125 84.9609 -4.6875 88.7207 -4.6875 Z"/>
  </g>
  <g id="Black-L" transform="matrix(1 0 0 1 2854.08 1556)">
   <path d="M 79.2969 32.9102 C 116.748 32.9102 147.363 2.24609 147.363 -35.1562 C 147.363 -72.5586 116.699 -103.223 79.2969 -103.223 C 41.8945 -103.223 11.2793 -72.5586 11.2793 -35.1562 C 11.2793 2.24609 41.8945 32.9102 79.2969 32.9102 Z M 79.2969 12.4512 C 52.9297 12.4512 31.7383 -8.78906 31.7383 -35.1562 C 31.7383 -61.5234 52.9297 -82.7637 79.2969 -82.7637 C 105.664 -82.7637 126.904 -61.5234 126.953 -35.1562 C 126.953 -8.78906 105.664 12.4512 79.2969 12.4512 Z M 61.8652 -65.4785 C 53.9062 -65.4785 48.9258 -60.498 48.9258 -52.5391 L 48.9258 -45.6543 C 48.9258 -41.4551 51.4648 -38.8184 55.7129 -38.8184 C 59.9121 -38.8184 62.4512 -41.4551 62.4512 -45.6543 L 62.4512 -49.1211 C 62.4512 -51.0742 63.2812 -51.9043 65.2832 -51.9043 L 68.75 -51.9043 C 72.9004 -51.9043 75.5859 -54.541 75.5859 -58.6914 C 75.5859 -62.8906 72.9492 -65.4785 68.75 -65.4785 Z M 96.6309 -65.4785 L 89.7461 -65.4785 C 85.5469 -65.4785 82.9102 -62.8906 82.9102 -58.6914 C 82.9102 -54.541 85.5957 -51.9043 89.7461 -51.9043 L 93.2617 -51.9043 C 95.2148 -51.9043 96.0449 -51.0742 96.0449 -49.1211 L 96.0449 -45.6543 C 96.0449 -41.4551 98.584 -38.8184 102.832 -38.8184 C 107.031 -38.8184 109.619 -41.4551 109.619 -45.6543 L 109.619 -52.5391 C 109.619 -60.498 104.639 -65.4785 96.6309 -65.4785 Z M 61.8652 -4.78516 L 68.75 -4.78516 C 72.9492 -4.78516 75.5859 -7.37305 75.5859 -11.5723 C 75.5859 -15.7227 72.9004 -18.3594 68.75 -18.3594 L 65.2832 -18.3594 C 63.2812 -18.3594 62.4512 -19.1895 62.4512 -21.1426 L 62.4512 -24.6094 C 62.4512 -28.8086 59.9121 -31.4453 55.7129 -31.4453 C 51.4648 -31.4453 48.9258 -28.8086 48.9258 -24.6094 L 48.9258 -17.7246 C 48.9258 -9.76562 53.9062 -4.78516 61.8652 -4.78516 Z M 96.6309 -4.78516 C 104.639 -4.78516 109.619 -9.76562 109.619 -17.7246 L 109.619 -24.6094 C 109.619 -28.8086 107.031 -31.4453 102.832 -31.4453 C 98.584 -31.4453 96.0449 -28.8086 96.0449 -24.6094 L 96.0449 -21.1426 C 96.0449 -19.1895 95.2148 -18.3594 93.2617 -18.3594 L 89.7461 -18.3594 C 85.5957 -18.3594 82.9102 -15.7227 82.9102 -11.5723 C 82.9102 -7.37305 85.5469 -4.78516 89.7461 -4.78516 Z"/>
  </g>
 </g>
</svg>
