<svg width="135" height="135" viewBox="0 0 135 135" fill="none" xmlns="http://www.w3.org/2000/svg">
<path d="M67.6778 105.355C89.0464 105.355 106.389 88.0463 106.389 66.6777C106.389 45.309 89.0464 28 67.6778 28C46.3428 28 29 45.309 29 66.6777C29 88.0463 46.3428 105.355 67.6778 105.355ZM67.6778 99.6591C49.4419 99.6591 34.7149 84.9135 34.7149 66.6777C34.7149 48.4419 49.4419 33.6963 67.6778 33.6963C85.9136 33.6963 100.659 48.4419 100.659 66.6777C100.659 84.9135 85.9136 99.6591 67.6778 99.6591ZM67.6441 52.1811C69.1563 52.1811 70.2374 51.0664 70.2374 49.5878C70.2374 48.1093 69.1563 46.9946 67.6441 46.9946C66.1656 46.9946 65.0508 48.1093 65.0508 49.5878C65.0508 51.0664 66.1656 52.1811 67.6441 52.1811ZM76.2227 54.476C77.7349 54.476 78.816 53.3613 78.816 51.8828C78.816 50.4043 77.7349 49.2895 76.2227 49.2895C74.7442 49.2895 73.6294 50.4043 73.6294 51.8828C73.6294 53.3613 74.7442 54.476 76.2227 54.476ZM82.4878 60.7412C84 60.7412 85.0811 59.6264 85.0811 58.1479C85.0811 56.6694 84 55.5546 82.4878 55.5546C81.0093 55.5546 79.8946 56.6694 79.8946 58.1479C79.8946 59.6264 81.0093 60.7412 82.4878 60.7412ZM84.7828 69.3198C86.295 69.3198 87.376 68.205 87.376 66.7265C87.376 65.248 86.295 64.1333 84.7828 64.1333C83.3042 64.1333 82.1895 65.248 82.1895 66.7265C82.1895 68.205 83.3042 69.3198 84.7828 69.3198ZM82.4878 77.8984C84 77.8984 85.0811 76.7837 85.0811 75.3051C85.0811 73.8266 84 72.7119 82.4878 72.7119C81.0093 72.7119 79.8946 73.8266 79.8946 75.3051C79.8946 76.7837 81.0093 77.8984 82.4878 77.8984ZM76.2227 84.1635C77.7349 84.1635 78.816 83.0488 78.816 81.5703C78.816 80.0918 77.7349 78.977 76.2227 78.977C74.7442 78.977 73.6294 80.0918 73.6294 81.5703C73.6294 83.0488 74.7442 84.1635 76.2227 84.1635ZM67.6441 86.4585C69.1563 86.4585 70.2374 85.3437 70.2374 83.8652C70.2374 82.3867 69.1563 81.2719 67.6441 81.2719C66.1656 81.2719 65.0508 82.3867 65.0508 83.8652C65.0508 85.3437 66.1656 86.4585 67.6441 86.4585ZM59.0655 84.1635C60.5777 84.1635 61.6587 83.0488 61.6587 81.5703C61.6587 80.0918 60.5777 78.977 59.0655 78.977C57.587 78.977 56.5059 80.0918 56.5059 81.5703C56.5059 83.0488 57.587 84.1635 59.0655 84.1635ZM52.8003 77.8984C54.3125 77.8984 55.3936 76.7837 55.3936 75.3051C55.3936 73.8266 54.3125 72.7119 52.8003 72.7119C51.3218 72.7119 50.2071 73.8266 50.2071 75.3051C50.2071 76.7837 51.3218 77.8984 52.8003 77.8984ZM50.5054 69.3198C52.0176 69.3198 53.0987 68.205 53.0987 66.7265C53.0987 65.248 52.0176 64.1333 50.5054 64.1333C49.0269 64.1333 47.9122 65.248 47.9122 66.7265C47.9122 68.205 49.0269 69.3198 50.5054 69.3198ZM52.8003 60.7412C54.3125 60.7412 55.3936 59.6264 55.3936 58.1479C55.3936 56.6694 54.3125 55.5546 52.8003 55.5546C51.3218 55.5546 50.2071 56.6694 50.2071 58.1479C50.2071 59.6264 51.3218 60.7412 52.8003 60.7412ZM59.0655 54.476C60.5777 54.476 61.6587 53.3613 61.6587 51.8828C61.6587 50.4043 60.5777 49.2895 59.0655 49.2895C57.587 49.2895 56.5059 50.4043 56.5059 51.8828C56.5059 53.3613 57.587 54.476 59.0655 54.476Z" fill="black"/>
</svg>
