<svg width="135" height="135" viewBox="0 0 135 135" fill="none" xmlns="http://www.w3.org/2000/svg">
<path d="M63.3886 108.982C77.4023 108.982 86.7285 99.6562 86.7285 85.5937V77.9277C86.7285 76.3652 85.4101 75.0957 83.8476 75.0957C82.2363 75.0957 80.9668 76.3652 80.9668 77.9277V85.5937C80.9668 96.1406 73.8867 103.221 63.3886 103.221C52.8418 103.221 45.7617 96.1406 45.7617 85.5937V50.3398C45.7617 39.8418 52.8418 32.7617 63.3886 32.7617C73.8867 32.7617 80.9668 39.8418 80.9668 50.3398V51.0722H75.2539C72.8125 51.0722 72.1289 52.7324 73.496 54.6855L81.9433 66.7461C83.0664 68.3574 84.7753 68.3574 85.8984 66.7461L94.3945 54.7343C95.8105 52.7324 95.1269 51.0722 92.6367 51.0722H86.7285V50.3398C86.7285 36.3261 77.4023 27 63.3886 27C49.2773 27 40 36.3261 40 50.3398V85.5937C40 99.6562 49.2773 108.982 63.3886 108.982Z" fill="black"/>
</svg>
