<?xml version="1.0" encoding="UTF-8"?>
<!--Generator: Apple Native CoreSVG 123-->
<!DOCTYPE svg
PUBLIC "-//W3C//DTD SVG 1.1//EN"
       "http://www.w3.org/Graphics/SVG/1.1/DTD/svg11.dtd">
<svg version="1.1" xmlns="http://www.w3.org/2000/svg" xmlns:xlink="http://www.w3.org/1999/xlink" width="3300" height="2200">
 <!--glyph: "uni100418.medium", point size: 100.000000, font version: "Version 15.0d4e20", template writer version: "2"-->
 <g id="Notes">
  <rect height="2200" id="artboard" style="fill:white;opacity:1" width="3300" x="0" y="0"/>
  <line id="" style="fill:none;stroke:black;opacity:1;stroke-width:0.5;" x1="263" x2="3036" y1="292" y2="292"/>
  <text style="stroke:none;fill:black;font-family:-apple-system,&quot;SF Pro Display&quot;,&quot;SF Pro Text&quot;,Helvetica,sans-serif;font-weight:bold;" transform="matrix(1 0 0 1 263 322)">Weight/Scale Variations</text>
  <text style="stroke:none;fill:black;font-family:-apple-system,&quot;SF Pro Display&quot;,&quot;SF Pro Text&quot;,Helvetica,sans-serif;text-anchor:middle;" transform="matrix(1 0 0 1 559.711 322)">Ultralight</text>
  <text style="stroke:none;fill:black;font-family:-apple-system,&quot;SF Pro Display&quot;,&quot;SF Pro Text&quot;,Helvetica,sans-serif;text-anchor:middle;" transform="matrix(1 0 0 1 856.422 322)">Thin</text>
  <text style="stroke:none;fill:black;font-family:-apple-system,&quot;SF Pro Display&quot;,&quot;SF Pro Text&quot;,Helvetica,sans-serif;text-anchor:middle;" transform="matrix(1 0 0 1 1153.13 322)">Light</text>
  <text style="stroke:none;fill:black;font-family:-apple-system,&quot;SF Pro Display&quot;,&quot;SF Pro Text&quot;,Helvetica,sans-serif;text-anchor:middle;" transform="matrix(1 0 0 1 1449.84 322)">Regular</text>
  <text style="stroke:none;fill:black;font-family:-apple-system,&quot;SF Pro Display&quot;,&quot;SF Pro Text&quot;,Helvetica,sans-serif;text-anchor:middle;" transform="matrix(1 0 0 1 1746.56 322)">Medium</text>
  <text style="stroke:none;fill:black;font-family:-apple-system,&quot;SF Pro Display&quot;,&quot;SF Pro Text&quot;,Helvetica,sans-serif;text-anchor:middle;" transform="matrix(1 0 0 1 2043.27 322)">Semibold</text>
  <text style="stroke:none;fill:black;font-family:-apple-system,&quot;SF Pro Display&quot;,&quot;SF Pro Text&quot;,Helvetica,sans-serif;text-anchor:middle;" transform="matrix(1 0 0 1 2339.98 322)">Bold</text>
  <text style="stroke:none;fill:black;font-family:-apple-system,&quot;SF Pro Display&quot;,&quot;SF Pro Text&quot;,Helvetica,sans-serif;text-anchor:middle;" transform="matrix(1 0 0 1 2636.69 322)">Heavy</text>
  <text style="stroke:none;fill:black;font-family:-apple-system,&quot;SF Pro Display&quot;,&quot;SF Pro Text&quot;,Helvetica,sans-serif;text-anchor:middle;" transform="matrix(1 0 0 1 2933.4 322)">Black</text>
  <line id="" style="fill:none;stroke:black;opacity:1;stroke-width:0.5;" x1="263" x2="3036" y1="1903" y2="1903"/>
  <g id="" transform="matrix(1 0 0 1 263 1933)">
   <path d="M 9.24805 0.830078 C 13.5547 0.830078 17.1387 -2.74414 17.1387 -7.05078 C 17.1387 -11.3574 13.5449 -14.9316 9.23828 -14.9316 C 4.94141 -14.9316 1.36719 -11.3574 1.36719 -7.05078 C 1.36719 -2.74414 4.95117 0.830078 9.24805 0.830078 Z M 9.24805 -0.654297 C 5.70312 -0.654297 2.87109 -3.49609 2.87109 -7.05078 C 2.87109 -10.6055 5.69336 -13.4473 9.23828 -13.4473 C 12.793 -13.4473 15.6348 -10.6055 15.6445 -7.05078 C 15.6543 -3.49609 12.8027 -0.654297 9.24805 -0.654297 Z M 9.22852 -3.42773 C 9.69727 -3.42773 9.9707 -3.74023 9.9707 -4.25781 L 9.9707 -6.31836 L 12.1973 -6.31836 C 12.6953 -6.31836 13.0371 -6.57227 13.0371 -7.04102 C 13.0371 -7.51953 12.7148 -7.7832 12.1973 -7.7832 L 9.9707 -7.7832 L 9.9707 -10.0098 C 9.9707 -10.5273 9.69727 -10.8496 9.22852 -10.8496 C 8.75977 -10.8496 8.50586 -10.5078 8.50586 -10.0098 L 8.50586 -7.7832 L 6.29883 -7.7832 C 5.78125 -7.7832 5.44922 -7.51953 5.44922 -7.04102 C 5.44922 -6.57227 5.80078 -6.31836 6.29883 -6.31836 L 8.50586 -6.31836 L 8.50586 -4.25781 C 8.50586 -3.75977 8.75977 -3.42773 9.22852 -3.42773 Z"/>
  </g>
  <g id="" transform="matrix(1 0 0 1 281.506 1933)">
   <path d="M 11.709 2.91016 C 17.1484 2.91016 21.6699 -1.60156 21.6699 -7.05078 C 21.6699 -12.4902 17.1387 -17.0117 11.6992 -17.0117 C 6.25 -17.0117 1.74805 -12.4902 1.74805 -7.05078 C 1.74805 -1.60156 6.25977 2.91016 11.709 2.91016 Z M 11.709 1.25 C 7.09961 1.25 3.41797 -2.44141 3.41797 -7.05078 C 3.41797 -11.6504 7.08984 -15.3516 11.6992 -15.3516 C 16.2988 -15.3516 20 -11.6504 20.0098 -7.05078 C 20.0195 -2.44141 16.3086 1.25 11.709 1.25 Z M 11.6797 -2.41211 C 12.207 -2.41211 12.5195 -2.77344 12.5195 -3.33984 L 12.5195 -6.23047 L 15.5762 -6.23047 C 16.123 -6.23047 16.5039 -6.51367 16.5039 -7.03125 C 16.5039 -7.55859 16.1426 -7.86133 15.5762 -7.86133 L 12.5195 -7.86133 L 12.5195 -10.9277 C 12.5195 -11.5039 12.207 -11.8555 11.6797 -11.8555 C 11.1621 -11.8555 10.8789 -11.4844 10.8789 -10.9277 L 10.8789 -7.86133 L 7.83203 -7.86133 C 7.25586 -7.86133 6.89453 -7.55859 6.89453 -7.03125 C 6.89453 -6.51367 7.28516 -6.23047 7.83203 -6.23047 L 10.8789 -6.23047 L 10.8789 -3.33984 C 10.8789 -2.79297 11.1621 -2.41211 11.6797 -2.41211 Z"/>
  </g>
  <g id="" transform="matrix(1 0 0 1 304.914 1933)">
   <path d="M 14.9707 5.67383 C 21.9336 5.67383 27.6855 -0.078125 27.6855 -7.04102 C 27.6855 -14.0039 21.9238 -19.7559 14.9609 -19.7559 C 7.99805 -19.7559 2.25586 -14.0039 2.25586 -7.04102 C 2.25586 -0.078125 8.00781 5.67383 14.9707 5.67383 Z M 14.9707 3.85742 C 8.92578 3.85742 4.08203 -1.00586 4.08203 -7.04102 C 4.08203 -13.0762 8.91602 -17.9395 14.9609 -17.9395 C 20.9961 -17.9395 25.8594 -13.0762 25.8691 -7.04102 C 25.8789 -1.00586 21.0059 3.85742 14.9707 3.85742 Z M 14.9414 -1.06445 C 15.5176 -1.06445 15.8594 -1.45508 15.8594 -2.06055 L 15.8594 -6.13281 L 20.0977 -6.13281 C 20.6934 -6.13281 21.1133 -6.46484 21.1133 -7.02148 C 21.1133 -7.59766 20.7227 -7.93945 20.0977 -7.93945 L 15.8594 -7.93945 L 15.8594 -12.1875 C 15.8594 -12.8027 15.5176 -13.1934 14.9414 -13.1934 C 14.3848 -13.1934 14.0625 -12.7832 14.0625 -12.1875 L 14.0625 -7.93945 L 9.82422 -7.93945 C 9.20898 -7.93945 8.80859 -7.59766 8.80859 -7.02148 C 8.80859 -6.46484 9.23828 -6.13281 9.82422 -6.13281 L 14.0625 -6.13281 L 14.0625 -2.06055 C 14.0625 -1.47461 14.3848 -1.06445 14.9414 -1.06445 Z"/>
  </g>
  <text style="stroke:none;fill:black;font-family:-apple-system,&quot;SF Pro Display&quot;,&quot;SF Pro Text&quot;,Helvetica,sans-serif;font-weight:bold;" transform="matrix(1 0 0 1 263 1953)">Design Variations</text>
  <text style="stroke:none;fill:black;font-family:-apple-system,&quot;SF Pro Display&quot;,&quot;SF Pro Text&quot;,Helvetica,sans-serif;" transform="matrix(1 0 0 1 263 1971)">Symbols are supported in up to nine weights and three scales.</text>
  <text style="stroke:none;fill:black;font-family:-apple-system,&quot;SF Pro Display&quot;,&quot;SF Pro Text&quot;,Helvetica,sans-serif;" transform="matrix(1 0 0 1 263 1989)">For optimal layout with text and other symbols, vertically align</text>
  <text style="stroke:none;fill:black;font-family:-apple-system,&quot;SF Pro Display&quot;,&quot;SF Pro Text&quot;,Helvetica,sans-serif;" transform="matrix(1 0 0 1 263 2007)">symbols with the adjacent text.</text>
  <rect height="14" id="" style="fill:#00AEEF;stroke:none;opacity:0.4;" width="3" x="776" y="1919"/>
  <g id="" transform="matrix(1 0 0 1 779 1933)">
   <path d="M 10.5273 0 L 12.373 0 L 7.17773 -14.0918 L 5.43945 -14.0918 L 0.244141 0 L 2.08984 0 L 3.50586 -4.0332 L 9.11133 -4.0332 Z M 6.2793 -11.9531 L 6.33789 -11.9531 L 8.59375 -5.52734 L 4.02344 -5.52734 Z"/>
  </g>
  <rect height="14" id="" style="fill:#00AEEF;stroke:none;opacity:0.4;" width="3" x="791.617" y="1919"/>
  <text style="stroke:none;fill:black;font-family:-apple-system,&quot;SF Pro Display&quot;,&quot;SF Pro Text&quot;,Helvetica,sans-serif;font-weight:bold;" transform="matrix(1 0 0 1 776 1953)">Side Bearings</text>
  <text style="stroke:none;fill:black;font-family:-apple-system,&quot;SF Pro Display&quot;,&quot;SF Pro Text&quot;,Helvetica,sans-serif;" transform="matrix(1 0 0 1 776 1971)">Horizontal padding on the left and right side of each symbol</text>
  <text style="stroke:none;fill:black;font-family:-apple-system,&quot;SF Pro Display&quot;,&quot;SF Pro Text&quot;,Helvetica,sans-serif;" transform="matrix(1 0 0 1 776 1989)">can be adjusted by modifying the width of the blue rectangles.</text>
  <text style="stroke:none;fill:black;font-family:-apple-system,&quot;SF Pro Display&quot;,&quot;SF Pro Text&quot;,Helvetica,sans-serif;" transform="matrix(1 0 0 1 776 2007)">Modifications are automatically applied proportionally to all</text>
  <text style="stroke:none;fill:black;font-family:-apple-system,&quot;SF Pro Display&quot;,&quot;SF Pro Text&quot;,Helvetica,sans-serif;" transform="matrix(1 0 0 1 776 2025)">scales and weights.</text>
  <g id="" transform="matrix(1 0 0 1 1289 1933)">
   <path d="M 2.96875 2.35352 L 3.80859 3.19336 C 4.84375 4.22852 6.12305 4.15039 7.19727 2.97852 L 16.1621 -6.82617 C 16.5527 -6.74805 16.9629 -6.8457 17.4902 -7.02148 C 18.1738 -7.25586 18.2715 -7.25586 18.3887 -7.13867 C 18.5352 -7.01172 18.4863 -6.89453 18.2422 -6.25 C 17.8809 -5.33203 17.8125 -4.79492 18.5547 -4.02344 L 19.4238 -3.13477 C 20.2734 -2.24609 21.3281 -2.26562 22.2168 -3.14453 L 25.0586 -5.97656 C 25.9473 -6.86523 25.957 -7.92969 25.0781 -8.7793 L 24.1797 -9.64844 C 23.4082 -10.4004 22.8711 -10.3516 21.9629 -9.98047 C 21.3184 -9.72656 21.2012 -9.6875 21.0645 -9.81445 C 20.9375 -9.93164 20.9473 -10.0391 21.1816 -10.7129 C 21.5332 -11.6895 21.5723 -12.2852 20.752 -13.0957 L 19.3359 -14.5117 C 15.1953 -18.6133 11.2305 -18.7402 7.65625 -15.4395 C 7.08008 -14.9023 6.99219 -14.1504 7.53906 -13.6133 L 7.79297 -13.3594 C 8.22266 -12.9297 8.86719 -12.8418 9.41406 -13.1152 C 11.0645 -13.9453 12.2559 -14.0234 13.457 -12.9785 L 13.0273 -11.416 C 12.8516 -10.8008 12.793 -10.3418 12.9199 -9.93164 L 3.18359 -1.04492 C 2.02148 0.0292969 1.93359 1.32812 2.96875 2.35352 Z M 8.96484 -14.4922 C 8.89648 -14.5703 8.86719 -14.6582 8.99414 -14.7559 C 11.709 -17.2852 15.0391 -16.8457 18.3496 -13.5254 L 19.6973 -12.168 C 20.0879 -11.7773 20.0977 -11.582 19.8828 -10.8691 C 19.6582 -10.127 19.502 -9.53125 20.1465 -8.88672 C 20.8105 -8.22266 21.2891 -8.41797 22.207 -8.63281 C 22.9004 -8.79883 23.0664 -8.79883 23.4473 -8.41797 L 24.0918 -7.77344 C 24.4043 -7.48047 24.4141 -7.32422 24.0723 -6.97266 L 21.2207 -4.13086 C 20.8887 -3.79883 20.7227 -3.79883 20.4297 -4.10156 L 19.7852 -4.75586 C 19.4141 -5.13672 19.4141 -5.30273 19.5801 -6.01562 C 19.7852 -6.88477 19.9805 -7.38281 19.3262 -8.04688 C 18.6719 -8.7207 18.0762 -8.57422 17.3438 -8.33008 C 16.5625 -8.06641 16.3281 -8.06641 15.8984 -8.49609 L 14.6094 -9.78516 C 14.1699 -10.2246 14.1309 -10.4395 14.2676 -10.9082 L 15.0293 -13.3984 C 13.3887 -15.2832 11.4941 -15.5566 9.20898 -14.4434 C 9.11133 -14.3945 9.04297 -14.4141 8.96484 -14.4922 Z M 3.96484 1.36719 C 3.52539 0.927734 3.54492 0.537109 4.14062 -0.00976562 L 13.7402 -8.81836 L 15 -7.55859 L 6.17188 2.02148 C 5.625 2.60742 5.24414 2.64648 4.79492 2.19727 Z"/>
  </g>
  <text style="stroke:none;fill:black;font-family:-apple-system,&quot;SF Pro Display&quot;,&quot;SF Pro Text&quot;,Helvetica,sans-serif;font-weight:bold;" transform="matrix(1 0 0 1 1289 1953)">Exporting</text>
  <text style="stroke:none;fill:black;font-family:-apple-system,&quot;SF Pro Display&quot;,&quot;SF Pro Text&quot;,Helvetica,sans-serif;" transform="matrix(1 0 0 1 1289 1971)">Symbols should be outlined when exporting to ensure the</text>
  <text style="stroke:none;fill:black;font-family:-apple-system,&quot;SF Pro Display&quot;,&quot;SF Pro Text&quot;,Helvetica,sans-serif;" transform="matrix(1 0 0 1 1289 1989)">design is preserved when submitting to Xcode.</text>
  <text id="template-version" style="stroke:none;fill:black;font-family:-apple-system,&quot;SF Pro Display&quot;,&quot;SF Pro Text&quot;,Helvetica,sans-serif;text-anchor:end;" transform="matrix(1 0 0 1 3036 1933)">Template v.0.1</text>
  <text style="stroke:none;fill:black;font-family:-apple-system,&quot;SF Pro Display&quot;,&quot;SF Pro Text&quot;,Helvetica,sans-serif;text-anchor:end;" transform="matrix(1 0 0 1 3036 1951)">Generated from cube</text>
  <text style="stroke:none;fill:black;font-family:-apple-system,&quot;SF Pro Display&quot;,&quot;SF Pro Text&quot;,Helvetica,sans-serif;text-anchor:end;" transform="matrix(1 0 0 1 3036 1969)">Typeset at 100 points</text>
  <text style="stroke:none;fill:black;font-family:-apple-system,&quot;SF Pro Display&quot;,&quot;SF Pro Text&quot;,Helvetica,sans-serif;" transform="matrix(1 0 0 1 263 726)">Small</text>
  <text style="stroke:none;fill:black;font-family:-apple-system,&quot;SF Pro Display&quot;,&quot;SF Pro Text&quot;,Helvetica,sans-serif;" transform="matrix(1 0 0 1 263 1156)">Medium</text>
  <text style="stroke:none;fill:black;font-family:-apple-system,&quot;SF Pro Display&quot;,&quot;SF Pro Text&quot;,Helvetica,sans-serif;" transform="matrix(1 0 0 1 263 1586)">Large</text>
 </g>
 <g id="Guides">
  <g id="H-reference" style="fill:#27AAE1;stroke:none;" transform="matrix(1 0 0 1 339 696)">
   <path d="M 54.9316 0 L 57.666 0 L 30.5664 -70.459 L 28.0762 -70.459 L 0.976562 0 L 3.66211 0 L 12.9395 -24.4629 L 45.7031 -24.4629 Z M 29.1992 -67.0898 L 29.4434 -67.0898 L 44.8242 -26.709 L 13.8184 -26.709 Z"/>
  </g>
  <line id="Baseline-S" style="fill:none;stroke:#27AAE1;opacity:1;stroke-width:0.577;" x1="263" x2="3036" y1="696" y2="696"/>
  <line id="Capline-S" style="fill:none;stroke:#27AAE1;opacity:1;stroke-width:0.577;" x1="263" x2="3036" y1="625.541" y2="625.541"/>
  <g id="H-reference" style="fill:#27AAE1;stroke:none;" transform="matrix(1 0 0 1 339 1126)">
   <path d="M 54.9316 0 L 57.666 0 L 30.5664 -70.459 L 28.0762 -70.459 L 0.976562 0 L 3.66211 0 L 12.9395 -24.4629 L 45.7031 -24.4629 Z M 29.1992 -67.0898 L 29.4434 -67.0898 L 44.8242 -26.709 L 13.8184 -26.709 Z"/>
  </g>
  <line id="Baseline-M" style="fill:none;stroke:#27AAE1;opacity:1;stroke-width:0.577;" x1="263" x2="3036" y1="1126" y2="1126"/>
  <line id="Capline-M" style="fill:none;stroke:#27AAE1;opacity:1;stroke-width:0.577;" x1="263" x2="3036" y1="1055.54" y2="1055.54"/>
  <g id="H-reference" style="fill:#27AAE1;stroke:none;" transform="matrix(1 0 0 1 339 1556)">
   <path d="M 54.9316 0 L 57.666 0 L 30.5664 -70.459 L 28.0762 -70.459 L 0.976562 0 L 3.66211 0 L 12.9395 -24.4629 L 45.7031 -24.4629 Z M 29.1992 -67.0898 L 29.4434 -67.0898 L 44.8242 -26.709 L 13.8184 -26.709 Z"/>
  </g>
  <line id="Baseline-L" style="fill:none;stroke:#27AAE1;opacity:1;stroke-width:0.577;" x1="263" x2="3036" y1="1556" y2="1556"/>
  <line id="Capline-L" style="fill:none;stroke:#27AAE1;opacity:1;stroke-width:0.577;" x1="263" x2="3036" y1="1485.54" y2="1485.54"/>
  <rect height="119.336" id="left-margin" style="fill:#00AEEF;stroke:none;opacity:0.4;" width="12.4512" x="1387.83" y="1030.79"/>
  <rect height="119.336" id="right-margin" style="fill:#00AEEF;stroke:none;opacity:0.4;" width="12.4512" x="1499.41" y="1030.79"/>
 </g>
 <g id="Symbols">
  <g id="Ultralight-S" transform="matrix(1 0 0 1 512.47 696)">
   <path d="M 13.3301 -13.623 L 44.7754 3.4668 C 46.4355 4.39453 47.998 4.44336 49.7559 3.4668 L 81.2012 -13.623 C 83.8379 -15.0879 84.7168 -16.6992 84.7168 -19.5801 L 84.7168 -53.4668 C 84.7168 -55.127 83.7891 -56.2988 82.3242 -57.0801 L 51.123 -74.3652 C 48.6816 -75.7324 45.8496 -75.7324 43.4082 -74.3652 L 12.1582 -57.0801 C 10.7422 -56.2988 9.76562 -55.127 9.76562 -53.4668 L 9.76562 -19.5801 C 9.76562 -16.6992 10.6445 -15.0879 13.3301 -13.623 Z M 47.2656 -36.3281 L 12.8418 -54.9805 L 44.9707 -72.7051 C 46.4355 -73.5352 48.0469 -73.5352 49.5117 -72.7051 L 81.6895 -54.9805 Z M 15.2344 -15.1367 C 12.5 -16.5527 12.1582 -17.5781 12.1582 -19.7754 L 12.1582 -52.7832 L 46.0938 -34.375 L 46.0938 1.51367 Z M 79.2969 -15.1367 L 48.3887 1.51367 L 48.3887 -34.375 L 82.373 -52.7832 L 82.373 -19.7754 C 82.373 -17.5781 81.9824 -16.5527 79.2969 -15.1367 Z"/>
  </g>
  <g id="Thin-S" transform="matrix(1 0 0 1 808.79 696)">
   <path d="M 13.8672 -12.8906 L 44.9219 4.19922 C 46.7285 5.22461 48.4375 5.27344 50.3418 4.19922 L 81.3965 -12.8906 C 84.2773 -14.502 85.498 -16.2109 85.498 -19.873 L 85.498 -52.7344 C 85.498 -55.127 84.3262 -56.6406 82.4219 -57.7148 L 52.3438 -74.4629 C 49.2676 -76.2207 45.9473 -76.2207 42.9199 -74.4629 L 12.8418 -57.7148 C 10.9375 -56.6406 9.76562 -55.127 9.76562 -52.7344 L 9.76562 -19.873 C 9.76562 -16.2109 10.9375 -14.502 13.8672 -12.8906 Z M 47.6074 -36.8652 L 14.6484 -54.8828 L 44.7754 -71.6797 C 46.6797 -72.7051 48.584 -72.7539 50.4395 -71.6797 L 80.5664 -54.8828 Z M 16.2109 -15.4297 C 13.6719 -16.8457 13.2324 -17.9199 13.2324 -20.0684 L 13.2324 -51.8066 L 45.8984 -33.8379 L 45.8984 0.78125 Z M 79.0039 -15.4297 L 49.3652 0.78125 L 49.3652 -33.8379 L 82.0312 -51.8066 L 82.0312 -20.0684 C 82.0312 -17.9199 81.543 -16.8457 79.0039 -15.4297 Z"/>
  </g>
  <g id="Light-S" transform="matrix(1 0 0 1 1104.79 696)">
   <path d="M 14.8926 -11.4258 L 45.2148 5.61523 C 47.3145 6.83594 49.2676 6.88477 51.4648 5.61523 L 81.7871 -11.4258 C 85.1562 -13.3789 86.9141 -15.332 86.9141 -20.4102 L 86.9141 -51.3672 C 86.9141 -55.127 85.4004 -57.3242 82.5684 -58.9355 L 54.7363 -74.6582 C 50.4395 -77.0996 46.1914 -77.0996 41.9434 -74.6582 L 14.1113 -58.9355 C 11.2793 -57.3242 9.76562 -55.127 9.76562 -51.3672 L 9.76562 -20.4102 C 9.76562 -15.332 11.5234 -13.3789 14.8926 -11.4258 Z M 48.3398 -37.8906 L 18.2129 -54.7363 L 44.4336 -69.6289 C 47.0703 -71.1426 49.5117 -71.1914 52.2461 -69.6289 L 78.4668 -54.7363 Z M 18.1641 -16.0645 C 15.918 -17.334 15.2832 -18.5059 15.2832 -20.6055 L 15.2832 -49.9512 L 45.5078 -32.8613 L 45.5078 -0.732422 Z M 78.5156 -16.0645 L 51.1719 -0.732422 L 51.1719 -32.8613 L 81.3965 -49.9512 L 81.3965 -20.6055 C 81.3965 -18.5059 80.7617 -17.334 78.5156 -16.0645 Z"/>
  </g>
  <g id="Regular-S" transform="matrix(1 0 0 1 1400.97 696)">
   <path d="M 15.6738 -10.3516 L 45.4102 6.68945 C 47.7051 8.05664 49.9512 8.10547 52.3438 6.68945 L 82.0801 -10.3516 C 85.8398 -12.5 87.9883 -14.6484 87.9883 -20.8496 L 87.9883 -50.3418 C 87.9883 -55.127 86.1816 -57.8125 82.666 -59.8633 L 56.543 -74.8047 C 51.3184 -77.832 46.3379 -77.7832 41.2598 -74.8047 L 15.0879 -59.8633 C 11.5723 -57.8125 9.76562 -55.127 9.76562 -50.3418 L 9.76562 -20.8496 C 9.76562 -14.6484 11.9141 -12.5 15.6738 -10.3516 Z M 48.877 -38.6719 L 20.8984 -54.6387 L 44.1895 -68.1152 C 47.4121 -69.9219 50.2441 -69.9707 53.5645 -68.1152 L 76.8555 -54.6387 Z M 19.6777 -16.5527 C 17.627 -17.7734 16.7969 -18.9453 16.7969 -21.0449 L 16.7969 -48.5352 L 45.2148 -32.1289 L 45.2148 -1.85547 Z M 78.0762 -16.5527 L 52.5391 -1.85547 L 52.5391 -32.1289 L 80.957 -48.5352 L 80.957 -21.0449 C 80.957 -18.9453 80.127 -17.7734 78.0762 -16.5527 Z"/>
  </g>
  <g id="Medium-S" transform="matrix(1 0 0 1 1697.34 696)">
   <path d="M 15.7227 -10.1562 L 44.9219 6.25 C 47.8027 7.86133 50.5371 7.91016 53.5156 6.25 L 82.7148 -10.1562 C 86.6211 -12.3535 88.6719 -14.6484 88.6719 -20.5078 L 88.6719 -51.123 C 88.6719 -55.8105 86.8652 -58.5938 83.1543 -60.6934 L 57.0312 -75.3418 C 51.8555 -78.2715 46.5332 -78.2227 41.4062 -75.3418 L 15.2832 -60.6934 C 11.5723 -58.5938 9.76562 -55.8105 9.76562 -51.123 L 9.76562 -20.5078 C 9.76562 -14.6484 11.8164 -12.3535 15.7227 -10.1562 Z M 49.2188 -39.9902 L 22.5586 -54.9805 L 44.9219 -67.627 C 47.8516 -69.2871 50.5371 -69.2871 53.5156 -67.627 L 75.8789 -54.9805 Z M 20.5566 -17.1875 C 18.6523 -18.3105 17.8711 -19.4336 17.8711 -21.3867 L 17.8711 -47.8516 L 44.9707 -32.5195 L 44.9707 -3.32031 Z M 77.8809 -17.1875 L 53.4668 -3.32031 L 53.4668 -32.5195 L 80.5664 -47.8516 L 80.5664 -21.3867 C 80.5664 -19.4336 79.834 -18.3105 77.8809 -17.1875 Z"/>
  </g>
  <g id="Semibold-S" transform="matrix(1 0 0 1 1993.78 696)">
   <path d="M 15.7715 -9.96094 L 44.5312 5.9082 C 47.9004 7.71484 51.0254 7.76367 54.4434 5.9082 L 83.2031 -9.96094 C 87.207 -12.207 89.209 -14.6484 89.209 -20.3125 L 89.209 -51.709 C 89.209 -56.3965 87.4023 -59.2285 83.5449 -61.3281 L 57.4219 -75.7812 C 52.2461 -78.6621 46.6797 -78.6133 41.5527 -75.7812 L 15.3809 -61.3281 C 11.5723 -59.2285 9.76562 -56.3965 9.76562 -51.709 L 9.76562 -20.3125 C 9.76562 -14.6484 11.7188 -12.207 15.7715 -9.96094 Z M 49.4629 -41.0156 L 23.8281 -55.2246 L 45.5078 -67.2852 C 48.1934 -68.75 50.7324 -68.7988 53.4668 -67.2852 L 75.1465 -55.2246 Z M 21.2402 -17.6758 C 19.3848 -18.75 18.7012 -19.8242 18.7012 -21.6797 L 18.7012 -47.3633 L 44.8242 -32.8125 L 44.8242 -4.44336 Z M 77.7344 -17.6758 L 54.1504 -4.44336 L 54.1504 -32.8125 L 80.2734 -47.3633 L 80.2734 -21.6797 C 80.2734 -19.8242 79.5898 -18.75 77.7344 -17.6758 Z"/>
  </g>
  <g id="Bold-S" transform="matrix(1 0 0 1 2290.15 696)">
   <path d="M 15.8203 -9.76562 L 44.043 5.46875 C 47.998 7.56836 51.6602 7.56836 55.6152 5.46875 L 83.8379 -9.76562 C 88.0371 -12.0117 89.8926 -14.5996 89.8926 -19.9707 L 89.8926 -52.4902 C 89.8926 -57.0801 88.1348 -60.0098 84.082 -62.1582 L 57.959 -76.3184 C 52.7832 -79.1016 46.8262 -79.1016 41.6992 -76.3184 L 15.5762 -62.1582 C 11.5234 -60.0098 9.76562 -57.0801 9.76562 -52.4902 L 9.76562 -19.9707 C 9.76562 -14.5996 11.6211 -12.0117 15.8203 -9.76562 Z M 49.8535 -42.3828 L 25.5371 -55.5664 L 46.2402 -66.7969 C 48.6328 -68.0664 50.9766 -68.1152 53.418 -66.7969 L 74.1699 -55.5664 Z M 22.1191 -18.3105 C 20.4102 -19.2871 19.7754 -20.3125 19.7754 -22.0215 L 19.7754 -46.6797 L 44.5801 -33.2031 L 44.5801 -5.95703 Z M 77.5391 -18.3105 L 55.0781 -5.95703 L 55.0781 -33.2031 L 79.8828 -46.6797 L 79.8828 -22.0215 C 79.8828 -20.3125 79.248 -19.2871 77.5391 -18.3105 Z"/>
  </g>
  <g id="Heavy-S" transform="matrix(1 0 0 1 2586.35 696)">
   <path d="M 15.918 -9.42383 L 43.3105 4.78516 C 48.0957 7.27539 52.5391 7.27539 57.373 4.78516 L 84.7168 -9.42383 C 89.209 -11.7676 90.918 -14.5996 90.918 -19.5312 L 90.918 -53.6133 C 90.918 -58.1543 89.1602 -61.1816 84.8633 -63.4277 L 58.6914 -77.0996 C 53.5645 -79.7852 47.0703 -79.7852 41.9434 -77.0996 L 15.8203 -63.4277 C 11.5234 -61.1816 9.76562 -58.1543 9.76562 -53.6133 L 9.76562 -19.5312 C 9.76562 -14.5996 11.4746 -11.7676 15.918 -9.42383 Z M 50.3418 -44.3359 L 27.9297 -56.0059 L 47.3633 -66.1133 C 49.3164 -67.0898 51.3672 -67.0898 53.3203 -66.1133 L 72.7051 -56.0059 Z M 23.4375 -19.2383 C 21.9238 -20.1172 21.3379 -21.0449 21.3379 -22.5586 L 21.3379 -45.752 L 44.2871 -33.7891 L 44.2871 -8.10547 Z M 77.2461 -19.2383 L 56.3965 -8.10547 L 56.3965 -33.7891 L 79.3457 -45.752 L 79.3457 -22.5586 C 79.3457 -21.0449 78.7598 -20.1172 77.2461 -19.2383 Z"/>
  </g>
  <g id="Black-S" transform="matrix(1 0 0 1 2882.62 696)">
   <path d="M 16.0156 -9.17969 L 42.6758 4.19922 C 48.2422 7.08008 53.3691 7.03125 58.9355 4.19922 L 85.5469 -9.17969 C 90.2344 -11.5234 91.7969 -14.5508 91.7969 -19.1406 L 91.7969 -54.6387 C 91.7969 -59.082 90.0879 -62.207 85.5469 -64.502 L 59.375 -77.7832 C 54.2969 -80.4199 47.3145 -80.4199 42.1875 -77.7832 L 16.0156 -64.502 C 11.4746 -62.207 9.76562 -59.082 9.76562 -54.6387 L 9.76562 -19.1406 C 9.76562 -14.5508 11.3281 -11.5234 16.0156 -9.17969 Z M 50.7812 -46.0449 L 30.127 -56.4453 L 48.3398 -65.5273 C 49.9023 -66.2109 51.709 -66.2109 53.2715 -65.5273 L 71.4355 -56.4453 Z M 24.6094 -20.0684 C 23.2422 -20.8008 22.7051 -21.6797 22.7051 -23.0469 L 22.7051 -44.873 L 43.9941 -34.2773 L 43.9941 -10.0586 Z M 76.9531 -20.0684 L 57.5684 -10.0586 L 57.5684 -34.2773 L 78.8574 -44.873 L 78.8574 -23.0469 C 78.8574 -21.6797 78.3691 -20.8008 76.9531 -20.0684 Z"/>
  </g>
  <g id="Ultralight-M" transform="matrix(1 0 0 1 499.53 1126)">
   <path d="M 16.7969 -7.95898 L 57.0801 13.916 C 59.1797 15.0391 61.084 15.0879 63.2812 13.916 L 103.564 -7.95898 C 106.836 -9.76562 107.861 -11.7676 107.861 -15.1855 L 107.861 -58.7402 C 107.861 -60.6445 106.689 -61.9629 105.078 -62.8906 L 64.7461 -85.1074 C 61.9141 -86.7676 58.4473 -86.7676 55.5664 -85.1074 L 15.2832 -62.8906 C 13.623 -61.9629 12.4512 -60.6445 12.4512 -58.7402 L 12.4512 -15.1855 C 12.4512 -11.7676 13.4766 -9.76562 16.7969 -7.95898 Z M 60.1562 -36.377 L 15.6738 -60.4492 L 57.4707 -83.4473 C 59.1797 -84.4238 61.1328 -84.4238 62.8418 -83.4473 L 104.688 -60.4492 Z M 19.043 -9.42383 C 15.5273 -11.2793 15.0879 -12.5977 15.0879 -15.4297 L 15.0879 -57.959 L 58.9355 -34.3262 L 58.9355 12.0117 Z M 101.318 -9.42383 L 61.4258 12.0117 L 61.4258 -34.3262 L 105.225 -57.959 L 105.225 -15.4297 C 105.225 -12.5977 104.785 -11.2793 101.318 -9.42383 Z"/>
  </g>
  <g id="Thin-M" transform="matrix(1 0 0 1 795.827 1126)">
   <path d="M 17.3828 -7.12891 L 57.2266 14.7461 C 59.5215 15.9668 61.5723 16.0156 63.916 14.7461 L 103.809 -7.12891 C 107.373 -9.08203 108.691 -11.2305 108.691 -15.4785 L 108.691 -57.959 C 108.691 -60.6445 107.324 -62.3535 105.127 -63.5742 L 66.1621 -85.2539 C 62.5488 -87.3047 58.5938 -87.2559 55.0293 -85.2539 L 16.0156 -63.5742 C 13.8672 -62.3535 12.4512 -60.6445 12.4512 -57.959 L 12.4512 -15.4785 C 12.4512 -11.2305 13.8184 -9.08203 17.3828 -7.12891 Z M 60.5957 -37.0117 L 17.7246 -60.3516 L 57.2754 -82.2754 C 59.4238 -83.5449 61.7188 -83.5449 63.916 -82.2754 L 103.467 -60.3516 Z M 20.166 -9.81445 C 16.8457 -11.6211 16.3086 -12.9395 16.3086 -15.7227 L 16.3086 -56.8848 L 58.6914 -33.7402 L 58.6914 11.1328 Z M 100.977 -9.81445 L 62.5 11.1328 L 62.5 -33.7402 L 104.883 -56.8848 L 104.883 -15.7227 C 104.883 -12.9395 104.346 -11.6211 100.977 -9.81445 Z"/>
  </g>
  <g id="Light-M" transform="matrix(1 0 0 1 1091.73 1126)">
   <path d="M 18.5547 -5.46875 L 57.5684 16.3086 C 60.1562 17.7734 62.5488 17.8223 65.2344 16.3086 L 104.248 -5.46875 C 108.35 -7.8125 110.352 -10.2051 110.352 -16.1133 L 110.352 -56.3965 C 110.352 -60.6445 108.545 -63.1348 105.322 -64.9414 L 68.8477 -85.498 C 63.8672 -88.3301 58.8379 -88.2812 53.9551 -85.498 L 17.4805 -64.9414 C 14.2578 -63.1348 12.4512 -60.6445 12.4512 -56.3965 L 12.4512 -16.1133 C 12.4512 -10.2051 14.4531 -7.8125 18.5547 -5.46875 Z M 61.377 -38.1836 L 21.7773 -60.2051 L 56.8848 -79.9805 C 59.9121 -81.7383 62.793 -81.7383 65.918 -79.9805 L 101.025 -60.2051 Z M 22.4121 -10.498 C 19.3848 -12.207 18.6035 -13.623 18.6035 -16.3574 L 18.6035 -54.7852 L 58.252 -32.6172 L 58.252 9.42383 Z M 100.391 -10.498 L 64.5508 9.42383 L 64.5508 -32.6172 L 104.15 -54.7852 L 104.15 -16.3574 C 104.15 -13.623 103.418 -12.207 100.391 -10.498 Z"/>
  </g>
  <g id="Regular-M" transform="matrix(1 0 0 1 1387.83 1126)">
   <path d="M 19.4824 -4.24805 L 57.8125 17.5293 C 60.6445 19.1406 63.2812 19.1895 66.2109 17.5293 L 104.541 -4.24805 C 109.082 -6.83594 111.572 -9.47266 111.572 -16.5527 L 111.572 -55.2246 C 111.572 -60.6445 109.424 -63.7207 105.42 -66.0156 L 70.8984 -85.6445 C 64.8926 -89.1113 59.0332 -89.0625 53.125 -85.6445 L 18.6035 -66.0156 C 14.5996 -63.7207 12.4512 -60.6445 12.4512 -55.2246 L 12.4512 -16.5527 C 12.4512 -9.47266 14.9414 -6.83594 19.4824 -4.24805 Z M 62.0117 -39.0625 L 24.8047 -60.1074 L 56.5918 -78.2715 C 60.3027 -80.3711 63.623 -80.4199 67.4316 -78.2715 L 99.2188 -60.1074 Z M 24.0723 -11.084 C 21.2891 -12.6465 20.3613 -14.1602 20.3613 -16.7969 L 20.3613 -53.2227 L 57.9102 -31.7871 L 57.9102 8.1543 Z M 99.9512 -11.084 L 66.1133 8.1543 L 66.1133 -31.7871 L 103.662 -53.2227 L 103.662 -16.7969 C 103.662 -14.1602 102.734 -12.6465 99.9512 -11.084 Z"/>
  </g>
  <g id="Medium-M" transform="matrix(1 0 0 1 1684.13 1126)">
   <path d="M 19.6289 -3.85742 L 57.3242 17.2363 C 60.791 19.1406 64.0137 19.1895 67.5293 17.2363 L 105.225 -3.85742 C 109.961 -6.54297 112.402 -9.32617 112.402 -16.3086 L 112.402 -55.9082 C 112.402 -61.3281 110.254 -64.5996 105.957 -66.9922 L 71.6309 -86.2305 C 65.5273 -89.6484 59.2285 -89.6484 53.2227 -86.2305 L 18.8965 -66.9922 C 14.5996 -64.5996 12.4512 -61.3281 12.4512 -55.9082 L 12.4512 -16.3086 C 12.4512 -9.32617 14.8926 -6.54297 19.6289 -3.85742 Z M 62.4512 -40.5273 L 26.8555 -60.4004 L 57.3242 -77.5879 C 60.791 -79.541 64.0137 -79.5898 67.5781 -77.5879 L 97.998 -60.4004 Z M 25.1465 -11.7676 C 22.5586 -13.2812 21.6797 -14.6973 21.6797 -17.2363 L 21.6797 -52.3438 L 57.666 -32.0801 L 57.666 6.49414 Z M 99.707 -11.7676 L 67.2363 6.49414 L 67.2363 -32.0801 L 103.174 -52.3438 L 103.174 -17.2363 C 103.174 -14.6973 102.295 -13.2812 99.707 -11.7676 Z"/>
  </g>
  <g id="Semibold-M" transform="matrix(1 0 0 1 1980.5 1126)">
   <path d="M 19.7754 -3.61328 L 56.9824 16.9922 C 60.8887 19.1406 64.5508 19.1406 68.5547 16.9922 L 105.762 -3.61328 C 110.693 -6.29883 113.037 -9.27734 113.037 -16.1133 L 113.037 -56.3965 C 113.037 -61.9141 110.889 -65.2344 106.396 -67.7246 L 72.2656 -86.6699 C 66.0645 -90.0879 59.4238 -90.0879 53.2715 -86.6699 L 19.1406 -67.7246 C 14.5996 -65.2344 12.4512 -61.9141 12.4512 -56.3965 L 12.4512 -16.1133 C 12.4512 -9.27734 14.8438 -6.29883 19.7754 -3.61328 Z M 62.7441 -41.6504 L 28.4668 -60.6445 L 57.8613 -77.0508 C 61.1816 -78.8574 64.3066 -78.9062 67.627 -77.0508 L 97.0703 -60.6445 Z M 26.0254 -12.3047 C 23.5352 -13.7207 22.6562 -15.1367 22.6562 -17.5781 L 22.6562 -51.6602 L 57.4707 -32.3242 L 57.4707 5.22461 Z M 99.5117 -12.3047 L 68.0664 5.22461 L 68.0664 -32.3242 L 102.832 -51.6602 L 102.832 -17.5781 C 102.832 -15.1367 102.002 -13.7207 99.5117 -12.3047 Z"/>
  </g>
  <g id="Bold-M" transform="matrix(1 0 0 1 2276.79 1126)">
   <path d="M 19.9219 -3.22266 L 56.4941 16.6504 C 61.0352 19.0918 65.2832 19.1406 69.873 16.6504 L 106.445 -3.22266 C 111.572 -6.00586 113.916 -9.13086 113.916 -15.8691 L 113.916 -57.0312 C 113.916 -62.6465 111.719 -66.1621 106.934 -68.75 L 73.0469 -87.2559 C 66.6992 -90.6738 59.6191 -90.6738 53.3691 -87.2559 L 19.4336 -68.75 C 14.6484 -66.1621 12.4512 -62.6465 12.4512 -57.0312 L 12.4512 -15.8691 C 12.4512 -9.13086 14.7949 -6.00586 19.9219 -3.22266 Z M 63.1836 -43.1641 L 30.5176 -60.9863 L 58.5938 -76.3672 C 61.6699 -78.0273 64.6484 -78.0762 67.7734 -76.3672 L 95.8496 -60.9863 Z M 27.1484 -13.0371 C 24.8047 -14.3555 23.9746 -15.7227 23.9746 -17.9688 L 23.9746 -50.7812 L 57.1777 -32.6172 L 57.1777 3.56445 Z M 99.2188 -13.0371 L 69.1895 3.56445 L 69.1895 -32.6172 L 102.393 -50.7812 L 102.393 -17.9688 C 102.393 -15.7227 101.562 -14.3555 99.2188 -13.0371 Z"/>
  </g>
  <g id="Heavy-M" transform="matrix(1 0 0 1 2572.87 1126)">
   <path d="M 20.166 -2.68555 L 55.7617 16.2109 C 61.2793 19.0918 66.3086 19.0918 71.8262 16.2109 L 107.471 -2.68555 C 112.891 -5.56641 115.137 -8.98438 115.137 -15.4785 L 115.137 -58.0078 C 115.137 -63.7207 112.939 -67.4316 107.715 -70.166 L 74.1699 -88.0859 C 67.6758 -91.5527 59.9121 -91.5039 53.4668 -88.0859 L 19.873 -70.166 C 14.6973 -67.4316 12.4512 -63.7207 12.4512 -58.0078 L 12.4512 -15.4785 C 12.4512 -8.98438 14.6973 -5.56641 20.166 -2.68555 Z M 63.8184 -45.3125 L 33.5449 -61.4258 L 59.668 -75.3418 C 62.4023 -76.8066 65.1855 -76.8066 67.9688 -75.3418 L 94.0918 -61.4258 Z M 28.7598 -14.1113 C 26.6602 -15.2832 25.8789 -16.5039 25.8789 -18.6035 L 25.8789 -49.5117 L 56.7871 -33.0566 L 56.7871 1.12305 Z M 98.8281 -14.1113 L 70.8496 1.12305 L 70.8496 -33.0566 L 101.758 -49.5117 L 101.758 -18.6035 C 101.758 -16.5039 100.977 -15.2832 98.8281 -14.1113 Z"/>
  </g>
  <g id="Black-M" transform="matrix(1 0 0 1 2869.04 1126)">
   <path d="M 20.3613 -2.19727 L 55.127 15.7715 C 61.4746 19.043 67.2852 19.043 73.584 15.7715 L 108.35 -2.19727 C 114.111 -5.22461 116.26 -8.83789 116.26 -15.1367 L 116.26 -58.8867 C 116.26 -64.6484 114.014 -68.6035 108.447 -71.4355 L 75.1465 -88.8184 C 68.5547 -92.2852 60.1562 -92.2852 53.5645 -88.8184 L 20.2637 -71.4355 C 14.6973 -68.6035 12.4512 -64.6484 12.4512 -58.8867 L 12.4512 -15.1367 C 12.4512 -8.83789 14.6484 -5.22461 20.3613 -2.19727 Z M 64.3555 -47.2168 L 36.2305 -61.8652 L 60.5957 -74.4629 C 63.0859 -75.6836 65.6738 -75.6836 68.1152 -74.4629 L 92.4805 -61.8652 Z M 30.2246 -15.0391 C 28.3203 -16.0645 27.5391 -17.2363 27.5391 -19.1895 L 27.5391 -48.3887 L 56.4453 -33.4473 L 56.4453 -1.07422 Z M 98.4863 -15.0391 L 72.2656 -1.07422 L 72.2656 -33.4473 L 101.172 -48.3887 L 101.172 -19.1895 C 101.172 -17.2363 100.439 -16.0645 98.4863 -15.0391 Z"/>
  </g>
  <g id="Ultralight-L" transform="matrix(1 0 0 1 482.245 1556)">
   <path d="M 21.3867 -0.439453 L 73.584 27.832 C 76.2207 29.1992 78.6133 29.2969 81.3477 27.832 L 133.545 -0.439453 C 137.646 -2.63672 138.818 -5.12695 138.818 -9.22852 L 138.818 -65.918 C 138.818 -68.0176 137.451 -69.5801 135.547 -70.6055 L 82.959 -99.5605 C 79.5898 -101.514 75.3418 -101.514 71.9727 -99.5605 L 19.3848 -70.6055 C 17.4805 -69.5801 16.0645 -68.0176 16.0645 -65.918 L 16.0645 -9.22852 C 16.0645 -5.12695 17.2852 -2.63672 21.3867 -0.439453 Z M 77.4414 -36.4746 L 19.3359 -67.8223 L 74.2676 -97.998 C 76.2695 -99.1211 78.6621 -99.1211 80.6641 -97.998 L 135.596 -67.8223 Z M 24.0723 -1.75781 C 19.4824 -4.24805 18.9941 -5.9082 18.9941 -9.52148 L 18.9941 -65.0391 L 76.123 -34.2773 L 76.123 26.0742 Z M 130.859 -1.75781 L 78.8086 26.0742 L 78.8086 -34.2773 L 135.938 -65.0391 L 135.938 -9.52148 C 135.938 -5.9082 135.449 -4.24805 130.859 -1.75781 Z"/>
  </g>
  <g id="Thin-L" transform="matrix(1 0 0 1 778.493 1556)">
   <path d="M 22.0703 0.537109 L 73.7793 28.7109 C 76.5625 30.2246 79.1992 30.3223 82.0801 28.7109 L 133.789 0.537109 C 138.232 -1.9043 139.746 -4.58984 139.746 -9.57031 L 139.746 -65.0391 C 139.746 -68.0176 138.135 -70.0195 135.645 -71.3867 L 84.5215 -99.6582 C 80.3223 -102.1 75.4883 -102.051 71.3379 -99.6582 L 20.2148 -71.3867 C 17.7246 -70.0195 16.0645 -68.0176 16.0645 -65.0391 L 16.0645 -9.57031 C 16.0645 -4.58984 17.627 -1.9043 22.0703 0.537109 Z M 77.9297 -37.1582 L 21.6309 -67.7246 L 74.0234 -96.6797 C 76.5625 -98.0957 79.2969 -98.0957 81.8359 -96.6797 L 134.229 -67.7246 Z M 25.3418 -2.19727 C 20.9473 -4.54102 20.3125 -6.29883 20.3125 -9.86328 L 20.3125 -63.8184 L 75.8789 -33.6426 L 75.8789 25.0977 Z M 130.518 -2.19727 L 79.9805 25.0977 L 79.9805 -33.6426 L 135.547 -63.8184 L 135.547 -9.86328 C 135.547 -6.29883 134.912 -4.54102 130.518 -2.19727 Z"/>
  </g>
  <g id="Light-L" transform="matrix(1 0 0 1 1074.3 1556)">
   <path d="M 23.3887 2.34375 L 74.1211 30.5176 C 77.2949 32.2754 80.2734 32.373 83.5449 30.5176 L 134.277 2.34375 C 139.307 -0.488281 141.553 -3.4668 141.553 -10.2539 L 141.553 -63.3301 C 141.553 -68.0176 139.453 -70.8496 135.791 -72.9004 L 87.5 -99.9512 C 81.7871 -103.223 75.7812 -103.223 70.1172 -99.9512 L 21.875 -72.9004 C 18.2129 -70.8496 16.0645 -68.0176 16.0645 -63.3301 L 16.0645 -10.2539 C 16.0645 -3.4668 18.3594 -0.488281 23.3887 2.34375 Z M 78.8086 -38.4766 L 26.123 -67.5293 L 73.584 -94.0918 C 77.0996 -96.0938 80.5176 -96.1426 84.082 -94.0918 L 131.543 -67.5293 Z M 27.832 -2.97852 C 23.7793 -5.22461 22.9004 -7.03125 22.9004 -10.5469 L 22.9004 -61.4746 L 75.3906 -32.4219 L 75.3906 23.2422 Z M 129.834 -2.97852 L 82.2754 23.2422 L 82.2754 -32.4219 L 134.766 -61.4746 L 134.766 -10.5469 C 134.766 -7.03125 133.887 -5.22461 129.834 -2.97852 Z"/>
  </g>
  <g id="Regular-L" transform="matrix(1 0 0 1 1370.33 1556)">
   <path d="M 24.3652 3.75977 L 74.4141 31.8848 C 77.832 33.7891 81.0547 33.8867 84.6191 31.8848 L 134.668 3.75977 C 140.137 0.634766 142.92 -2.58789 142.92 -10.7422 L 142.92 -62.0117 C 142.92 -68.0176 140.479 -71.4844 135.938 -74.0723 L 89.7949 -100.146 C 82.9102 -104.102 76.0254 -104.053 69.2383 -100.146 L 23.0957 -74.0723 C 18.5547 -71.4844 16.0645 -68.0176 16.0645 -62.0117 L 16.0645 -10.7422 C 16.0645 -2.58789 18.8965 0.634766 24.3652 3.75977 Z M 79.4922 -39.4531 L 29.541 -67.4316 L 73.2422 -92.1875 C 77.4902 -94.5801 81.4453 -94.6289 85.791 -92.1875 L 129.492 -67.4316 Z M 29.6875 -3.61328 C 25.9277 -5.71289 24.8535 -7.61719 24.8535 -11.084 L 24.8535 -59.7168 L 75 -31.4453 L 75 21.8262 Z M 129.346 -3.61328 L 84.0332 21.8262 L 84.0332 -31.4453 L 134.18 -59.7168 L 134.18 -11.084 C 134.18 -7.61719 133.105 -5.71289 129.346 -3.61328 Z"/>
  </g>
  <g id="Medium-L" transform="matrix(1 0 0 1 1666.53 1556)">
   <path d="M 24.707 4.3457 L 74.0234 31.8359 C 78.0762 34.082 81.8848 34.1309 86.0352 31.8359 L 135.352 4.3457 C 141.113 1.07422 143.945 -2.34375 143.945 -10.5957 L 143.945 -62.3535 C 143.945 -68.6523 141.406 -72.4121 136.475 -75.1953 L 90.918 -100.684 C 83.6914 -104.785 76.2695 -104.736 69.1406 -100.684 L 23.584 -75.1953 C 18.6523 -72.4121 16.0645 -68.6523 16.0645 -62.3535 L 16.0645 -10.5957 C 16.0645 -2.34375 18.9453 1.07422 24.707 4.3457 Z M 80.0293 -40.9668 L 32.0312 -67.6758 L 73.877 -91.2109 C 78.0273 -93.5547 81.9336 -93.6035 86.1816 -91.2109 L 128.027 -67.6758 Z M 31.0547 -4.3457 C 27.4414 -6.39648 26.416 -8.20312 26.416 -11.5723 L 26.416 -58.5938 L 74.707 -31.5918 L 74.707 20.0195 Z M 129.004 -4.3457 L 85.3516 20.0195 L 85.3516 -31.5918 L 133.643 -58.5938 L 133.643 -11.5723 C 133.643 -8.20312 132.568 -6.39648 129.004 -4.3457 Z"/>
  </g>
  <g id="Semibold-L" transform="matrix(1 0 0 1 1962.85 1556)">
   <path d="M 24.9512 4.78516 L 73.7305 31.7871 C 78.2715 34.2773 82.4707 34.3262 87.1094 31.7871 L 135.889 4.78516 C 141.846 1.46484 144.727 -2.14844 144.727 -10.498 L 144.727 -62.6465 C 144.727 -69.1895 142.139 -73.1445 136.865 -76.0254 L 91.748 -101.123 C 84.3262 -105.322 76.416 -105.273 69.043 -101.123 L 23.9746 -76.0254 C 18.7012 -73.1445 16.0645 -69.1895 16.0645 -62.6465 L 16.0645 -10.498 C 16.0645 -2.14844 18.9453 1.46484 24.9512 4.78516 Z M 80.4199 -42.1387 L 33.9355 -67.8711 L 74.3164 -90.4297 C 78.418 -92.7246 82.3242 -92.7734 86.5234 -90.4297 L 126.904 -67.8711 Z M 32.0801 -4.93164 C 28.6621 -6.88477 27.5879 -8.69141 27.5879 -11.9141 L 27.5879 -57.7637 L 74.4629 -31.6406 L 74.4629 18.6523 Z M 128.76 -4.93164 L 86.377 18.6523 L 86.377 -31.6406 L 133.252 -57.7637 L 133.252 -11.9141 C 133.252 -8.69141 132.178 -6.88477 128.76 -4.93164 Z"/>
  </g>
  <g id="Bold-L" transform="matrix(1 0 0 1 2259.05 1556)">
   <path d="M 25.293 5.37109 L 73.3398 31.7383 C 78.4668 34.5215 83.3008 34.5703 88.5254 31.7383 L 136.572 5.37109 C 142.871 1.9043 145.801 -1.9043 145.801 -10.3516 L 145.801 -62.9883 C 145.801 -69.8242 143.066 -74.0723 137.402 -77.1484 L 92.9199 -101.709 C 85.1562 -106.006 76.6602 -105.957 68.9941 -101.709 L 24.4629 -77.1484 C 18.7988 -74.0723 16.0645 -69.8242 16.0645 -62.9883 L 16.0645 -10.3516 C 16.0645 -1.9043 18.9941 1.9043 25.293 5.37109 Z M 80.957 -43.7012 L 36.4746 -68.1641 L 74.9512 -89.4531 C 78.9551 -91.6992 82.8125 -91.6992 86.9141 -89.4531 L 125.391 -68.1641 Z M 33.4473 -5.71289 C 30.1758 -7.51953 29.1504 -9.32617 29.1504 -12.4023 L 29.1504 -56.6406 L 74.1211 -31.7383 L 74.1211 16.8945 Z M 128.418 -5.71289 L 87.7441 16.8945 L 87.7441 -31.7383 L 132.715 -56.6406 L 132.715 -12.4023 C 132.715 -9.32617 131.689 -7.51953 128.418 -5.71289 Z"/>
  </g>
  <g id="Heavy-L" transform="matrix(1 0 0 1 2555 1556)">
   <path d="M 25.7812 6.25 L 72.7539 31.6895 C 78.8086 34.9121 84.4727 34.9609 90.625 31.6895 L 137.598 6.25 C 144.287 2.58789 147.266 -1.51367 147.266 -10.1562 L 147.266 -63.5254 C 147.266 -70.8008 144.434 -75.3906 138.135 -78.8086 L 94.5312 -102.49 C 86.3281 -106.982 77.002 -106.982 68.8477 -102.49 L 25.1953 -78.8086 C 18.8965 -75.3906 16.0645 -70.8008 16.0645 -63.5254 L 16.0645 -10.1562 C 16.0645 -1.51367 19.0918 2.58789 25.7812 6.25 Z M 81.6895 -45.8984 L 40.1367 -68.5547 L 75.8301 -88.0371 C 79.7363 -90.1367 83.5449 -90.1855 87.5488 -88.0371 L 123.242 -68.5547 Z M 35.4004 -6.83594 C 32.4707 -8.49609 31.3965 -10.2051 31.3965 -13.1348 L 31.3965 -54.9805 L 73.6816 -31.8848 L 73.6816 14.2578 Z M 127.93 -6.83594 L 89.6973 14.2578 L 89.6973 -31.8848 L 131.982 -54.9805 L 131.982 -13.1348 C 131.982 -10.2051 130.908 -8.49609 127.93 -6.83594 Z"/>
  </g>
  <g id="Black-L" transform="matrix(1 0 0 1 2851.05 1556)">
   <path d="M 26.2207 6.98242 L 72.2656 31.6406 C 79.1504 35.2539 85.5469 35.3027 92.4805 31.6406 L 138.477 6.98242 C 145.557 3.22266 148.633 -1.17188 148.633 -10.0098 L 148.633 -64.0137 C 148.633 -71.6797 145.703 -76.6113 138.818 -80.2246 L 95.9961 -103.223 C 87.4023 -107.91 77.2949 -107.861 68.7012 -103.223 L 25.8789 -80.2246 C 19.043 -76.6113 16.0645 -71.6797 16.0645 -64.0137 L 16.0645 -10.0098 C 16.0645 -1.17188 19.1406 3.22266 26.2207 6.98242 Z M 82.373 -47.9004 L 43.4082 -68.8965 L 76.6113 -86.7676 C 80.4688 -88.7695 84.2285 -88.8184 88.0859 -86.7676 L 121.289 -68.8965 Z M 37.207 -7.86133 C 34.4727 -9.375 33.3984 -11.0352 33.3984 -13.7695 L 33.3984 -53.5156 L 73.291 -32.0312 L 73.291 11.9629 Z M 127.539 -7.86133 L 91.4551 11.9629 L 91.4551 -32.0312 L 131.299 -53.5156 L 131.299 -13.7695 C 131.299 -11.0352 130.225 -9.375 127.539 -7.86133 Z"/>
  </g>
 </g>
</svg>
