<?xml version="1.0" encoding="UTF-8"?>
<!--Generator: Apple Native CoreSVG 123-->
<!DOCTYPE svg
PUBLIC "-//W3C//DTD SVG 1.1//EN"
       "http://www.w3.org/Graphics/SVG/1.1/DTD/svg11.dtd">
<svg version="1.1" xmlns="http://www.w3.org/2000/svg" xmlns:xlink="http://www.w3.org/1999/xlink" width="3300" height="2200">
 <!--glyph: "uni10037A.medium", point size: 100.000000, font version: "Version 15.0d4e20", template writer version: "2"-->
 <g id="Notes">
  <rect height="2200" id="artboard" style="fill:white;opacity:1" width="3300" x="0" y="0"/>
  <line id="" style="fill:none;stroke:black;opacity:1;stroke-width:0.5;" x1="263" x2="3036" y1="292" y2="292"/>
  <text style="stroke:none;fill:black;font-family:-apple-system,&quot;SF Pro Display&quot;,&quot;SF Pro Text&quot;,Helvetica,sans-serif;font-weight:bold;" transform="matrix(1 0 0 1 263 322)">Weight/Scale Variations</text>
  <text style="stroke:none;fill:black;font-family:-apple-system,&quot;SF Pro Display&quot;,&quot;SF Pro Text&quot;,Helvetica,sans-serif;text-anchor:middle;" transform="matrix(1 0 0 1 559.711 322)">Ultralight</text>
  <text style="stroke:none;fill:black;font-family:-apple-system,&quot;SF Pro Display&quot;,&quot;SF Pro Text&quot;,Helvetica,sans-serif;text-anchor:middle;" transform="matrix(1 0 0 1 856.422 322)">Thin</text>
  <text style="stroke:none;fill:black;font-family:-apple-system,&quot;SF Pro Display&quot;,&quot;SF Pro Text&quot;,Helvetica,sans-serif;text-anchor:middle;" transform="matrix(1 0 0 1 1153.13 322)">Light</text>
  <text style="stroke:none;fill:black;font-family:-apple-system,&quot;SF Pro Display&quot;,&quot;SF Pro Text&quot;,Helvetica,sans-serif;text-anchor:middle;" transform="matrix(1 0 0 1 1449.84 322)">Regular</text>
  <text style="stroke:none;fill:black;font-family:-apple-system,&quot;SF Pro Display&quot;,&quot;SF Pro Text&quot;,Helvetica,sans-serif;text-anchor:middle;" transform="matrix(1 0 0 1 1746.56 322)">Medium</text>
  <text style="stroke:none;fill:black;font-family:-apple-system,&quot;SF Pro Display&quot;,&quot;SF Pro Text&quot;,Helvetica,sans-serif;text-anchor:middle;" transform="matrix(1 0 0 1 2043.27 322)">Semibold</text>
  <text style="stroke:none;fill:black;font-family:-apple-system,&quot;SF Pro Display&quot;,&quot;SF Pro Text&quot;,Helvetica,sans-serif;text-anchor:middle;" transform="matrix(1 0 0 1 2339.98 322)">Bold</text>
  <text style="stroke:none;fill:black;font-family:-apple-system,&quot;SF Pro Display&quot;,&quot;SF Pro Text&quot;,Helvetica,sans-serif;text-anchor:middle;" transform="matrix(1 0 0 1 2636.69 322)">Heavy</text>
  <text style="stroke:none;fill:black;font-family:-apple-system,&quot;SF Pro Display&quot;,&quot;SF Pro Text&quot;,Helvetica,sans-serif;text-anchor:middle;" transform="matrix(1 0 0 1 2933.4 322)">Black</text>
  <line id="" style="fill:none;stroke:black;opacity:1;stroke-width:0.5;" x1="263" x2="3036" y1="1903" y2="1903"/>
  <g id="" transform="matrix(1 0 0 1 263 1933)">
   <path d="M 9.24805 0.830078 C 13.5547 0.830078 17.1387 -2.74414 17.1387 -7.05078 C 17.1387 -11.3574 13.5449 -14.9316 9.23828 -14.9316 C 4.94141 -14.9316 1.36719 -11.3574 1.36719 -7.05078 C 1.36719 -2.74414 4.95117 0.830078 9.24805 0.830078 Z M 9.24805 -0.654297 C 5.70312 -0.654297 2.87109 -3.49609 2.87109 -7.05078 C 2.87109 -10.6055 5.69336 -13.4473 9.23828 -13.4473 C 12.793 -13.4473 15.6348 -10.6055 15.6445 -7.05078 C 15.6543 -3.49609 12.8027 -0.654297 9.24805 -0.654297 Z M 9.22852 -3.42773 C 9.69727 -3.42773 9.9707 -3.74023 9.9707 -4.25781 L 9.9707 -6.31836 L 12.1973 -6.31836 C 12.6953 -6.31836 13.0371 -6.57227 13.0371 -7.04102 C 13.0371 -7.51953 12.7148 -7.7832 12.1973 -7.7832 L 9.9707 -7.7832 L 9.9707 -10.0098 C 9.9707 -10.5273 9.69727 -10.8496 9.22852 -10.8496 C 8.75977 -10.8496 8.50586 -10.5078 8.50586 -10.0098 L 8.50586 -7.7832 L 6.29883 -7.7832 C 5.78125 -7.7832 5.44922 -7.51953 5.44922 -7.04102 C 5.44922 -6.57227 5.80078 -6.31836 6.29883 -6.31836 L 8.50586 -6.31836 L 8.50586 -4.25781 C 8.50586 -3.75977 8.75977 -3.42773 9.22852 -3.42773 Z"/>
  </g>
  <g id="" transform="matrix(1 0 0 1 281.506 1933)">
   <path d="M 11.709 2.91016 C 17.1484 2.91016 21.6699 -1.60156 21.6699 -7.05078 C 21.6699 -12.4902 17.1387 -17.0117 11.6992 -17.0117 C 6.25 -17.0117 1.74805 -12.4902 1.74805 -7.05078 C 1.74805 -1.60156 6.25977 2.91016 11.709 2.91016 Z M 11.709 1.25 C 7.09961 1.25 3.41797 -2.44141 3.41797 -7.05078 C 3.41797 -11.6504 7.08984 -15.3516 11.6992 -15.3516 C 16.2988 -15.3516 20 -11.6504 20.0098 -7.05078 C 20.0195 -2.44141 16.3086 1.25 11.709 1.25 Z M 11.6797 -2.41211 C 12.207 -2.41211 12.5195 -2.77344 12.5195 -3.33984 L 12.5195 -6.23047 L 15.5762 -6.23047 C 16.123 -6.23047 16.5039 -6.51367 16.5039 -7.03125 C 16.5039 -7.55859 16.1426 -7.86133 15.5762 -7.86133 L 12.5195 -7.86133 L 12.5195 -10.9277 C 12.5195 -11.5039 12.207 -11.8555 11.6797 -11.8555 C 11.1621 -11.8555 10.8789 -11.4844 10.8789 -10.9277 L 10.8789 -7.86133 L 7.83203 -7.86133 C 7.25586 -7.86133 6.89453 -7.55859 6.89453 -7.03125 C 6.89453 -6.51367 7.28516 -6.23047 7.83203 -6.23047 L 10.8789 -6.23047 L 10.8789 -3.33984 C 10.8789 -2.79297 11.1621 -2.41211 11.6797 -2.41211 Z"/>
  </g>
  <g id="" transform="matrix(1 0 0 1 304.914 1933)">
   <path d="M 14.9707 5.67383 C 21.9336 5.67383 27.6855 -0.078125 27.6855 -7.04102 C 27.6855 -14.0039 21.9238 -19.7559 14.9609 -19.7559 C 7.99805 -19.7559 2.25586 -14.0039 2.25586 -7.04102 C 2.25586 -0.078125 8.00781 5.67383 14.9707 5.67383 Z M 14.9707 3.85742 C 8.92578 3.85742 4.08203 -1.00586 4.08203 -7.04102 C 4.08203 -13.0762 8.91602 -17.9395 14.9609 -17.9395 C 20.9961 -17.9395 25.8594 -13.0762 25.8691 -7.04102 C 25.8789 -1.00586 21.0059 3.85742 14.9707 3.85742 Z M 14.9414 -1.06445 C 15.5176 -1.06445 15.8594 -1.45508 15.8594 -2.06055 L 15.8594 -6.13281 L 20.0977 -6.13281 C 20.6934 -6.13281 21.1133 -6.46484 21.1133 -7.02148 C 21.1133 -7.59766 20.7227 -7.93945 20.0977 -7.93945 L 15.8594 -7.93945 L 15.8594 -12.1875 C 15.8594 -12.8027 15.5176 -13.1934 14.9414 -13.1934 C 14.3848 -13.1934 14.0625 -12.7832 14.0625 -12.1875 L 14.0625 -7.93945 L 9.82422 -7.93945 C 9.20898 -7.93945 8.80859 -7.59766 8.80859 -7.02148 C 8.80859 -6.46484 9.23828 -6.13281 9.82422 -6.13281 L 14.0625 -6.13281 L 14.0625 -2.06055 C 14.0625 -1.47461 14.3848 -1.06445 14.9414 -1.06445 Z"/>
  </g>
  <text style="stroke:none;fill:black;font-family:-apple-system,&quot;SF Pro Display&quot;,&quot;SF Pro Text&quot;,Helvetica,sans-serif;font-weight:bold;" transform="matrix(1 0 0 1 263 1953)">Design Variations</text>
  <text style="stroke:none;fill:black;font-family:-apple-system,&quot;SF Pro Display&quot;,&quot;SF Pro Text&quot;,Helvetica,sans-serif;" transform="matrix(1 0 0 1 263 1971)">Symbols are supported in up to nine weights and three scales.</text>
  <text style="stroke:none;fill:black;font-family:-apple-system,&quot;SF Pro Display&quot;,&quot;SF Pro Text&quot;,Helvetica,sans-serif;" transform="matrix(1 0 0 1 263 1989)">For optimal layout with text and other symbols, vertically align</text>
  <text style="stroke:none;fill:black;font-family:-apple-system,&quot;SF Pro Display&quot;,&quot;SF Pro Text&quot;,Helvetica,sans-serif;" transform="matrix(1 0 0 1 263 2007)">symbols with the adjacent text.</text>
  <rect height="14" id="" style="fill:#00AEEF;stroke:none;opacity:0.4;" width="3" x="776" y="1919"/>
  <g id="" transform="matrix(1 0 0 1 779 1933)">
   <path d="M 10.5273 0 L 12.373 0 L 7.17773 -14.0918 L 5.43945 -14.0918 L 0.244141 0 L 2.08984 0 L 3.50586 -4.0332 L 9.11133 -4.0332 Z M 6.2793 -11.9531 L 6.33789 -11.9531 L 8.59375 -5.52734 L 4.02344 -5.52734 Z"/>
  </g>
  <rect height="14" id="" style="fill:#00AEEF;stroke:none;opacity:0.4;" width="3" x="791.617" y="1919"/>
  <text style="stroke:none;fill:black;font-family:-apple-system,&quot;SF Pro Display&quot;,&quot;SF Pro Text&quot;,Helvetica,sans-serif;font-weight:bold;" transform="matrix(1 0 0 1 776 1953)">Side Bearings</text>
  <text style="stroke:none;fill:black;font-family:-apple-system,&quot;SF Pro Display&quot;,&quot;SF Pro Text&quot;,Helvetica,sans-serif;" transform="matrix(1 0 0 1 776 1971)">Horizontal padding on the left and right side of each symbol</text>
  <text style="stroke:none;fill:black;font-family:-apple-system,&quot;SF Pro Display&quot;,&quot;SF Pro Text&quot;,Helvetica,sans-serif;" transform="matrix(1 0 0 1 776 1989)">can be adjusted by modifying the width of the blue rectangles.</text>
  <text style="stroke:none;fill:black;font-family:-apple-system,&quot;SF Pro Display&quot;,&quot;SF Pro Text&quot;,Helvetica,sans-serif;" transform="matrix(1 0 0 1 776 2007)">Modifications are automatically applied proportionally to all</text>
  <text style="stroke:none;fill:black;font-family:-apple-system,&quot;SF Pro Display&quot;,&quot;SF Pro Text&quot;,Helvetica,sans-serif;" transform="matrix(1 0 0 1 776 2025)">scales and weights.</text>
  <g id="" transform="matrix(1 0 0 1 1289 1933)">
   <path d="M 2.96875 2.35352 L 3.80859 3.19336 C 4.84375 4.22852 6.12305 4.15039 7.19727 2.97852 L 16.1621 -6.82617 C 16.5527 -6.74805 16.9629 -6.8457 17.4902 -7.02148 C 18.1738 -7.25586 18.2715 -7.25586 18.3887 -7.13867 C 18.5352 -7.01172 18.4863 -6.89453 18.2422 -6.25 C 17.8809 -5.33203 17.8125 -4.79492 18.5547 -4.02344 L 19.4238 -3.13477 C 20.2734 -2.24609 21.3281 -2.26562 22.2168 -3.14453 L 25.0586 -5.97656 C 25.9473 -6.86523 25.957 -7.92969 25.0781 -8.7793 L 24.1797 -9.64844 C 23.4082 -10.4004 22.8711 -10.3516 21.9629 -9.98047 C 21.3184 -9.72656 21.2012 -9.6875 21.0645 -9.81445 C 20.9375 -9.93164 20.9473 -10.0391 21.1816 -10.7129 C 21.5332 -11.6895 21.5723 -12.2852 20.752 -13.0957 L 19.3359 -14.5117 C 15.1953 -18.6133 11.2305 -18.7402 7.65625 -15.4395 C 7.08008 -14.9023 6.99219 -14.1504 7.53906 -13.6133 L 7.79297 -13.3594 C 8.22266 -12.9297 8.86719 -12.8418 9.41406 -13.1152 C 11.0645 -13.9453 12.2559 -14.0234 13.457 -12.9785 L 13.0273 -11.416 C 12.8516 -10.8008 12.793 -10.3418 12.9199 -9.93164 L 3.18359 -1.04492 C 2.02148 0.0292969 1.93359 1.32812 2.96875 2.35352 Z M 8.96484 -14.4922 C 8.89648 -14.5703 8.86719 -14.6582 8.99414 -14.7559 C 11.709 -17.2852 15.0391 -16.8457 18.3496 -13.5254 L 19.6973 -12.168 C 20.0879 -11.7773 20.0977 -11.582 19.8828 -10.8691 C 19.6582 -10.127 19.502 -9.53125 20.1465 -8.88672 C 20.8105 -8.22266 21.2891 -8.41797 22.207 -8.63281 C 22.9004 -8.79883 23.0664 -8.79883 23.4473 -8.41797 L 24.0918 -7.77344 C 24.4043 -7.48047 24.4141 -7.32422 24.0723 -6.97266 L 21.2207 -4.13086 C 20.8887 -3.79883 20.7227 -3.79883 20.4297 -4.10156 L 19.7852 -4.75586 C 19.4141 -5.13672 19.4141 -5.30273 19.5801 -6.01562 C 19.7852 -6.88477 19.9805 -7.38281 19.3262 -8.04688 C 18.6719 -8.7207 18.0762 -8.57422 17.3438 -8.33008 C 16.5625 -8.06641 16.3281 -8.06641 15.8984 -8.49609 L 14.6094 -9.78516 C 14.1699 -10.2246 14.1309 -10.4395 14.2676 -10.9082 L 15.0293 -13.3984 C 13.3887 -15.2832 11.4941 -15.5566 9.20898 -14.4434 C 9.11133 -14.3945 9.04297 -14.4141 8.96484 -14.4922 Z M 3.96484 1.36719 C 3.52539 0.927734 3.54492 0.537109 4.14062 -0.00976562 L 13.7402 -8.81836 L 15 -7.55859 L 6.17188 2.02148 C 5.625 2.60742 5.24414 2.64648 4.79492 2.19727 Z"/>
  </g>
  <text style="stroke:none;fill:black;font-family:-apple-system,&quot;SF Pro Display&quot;,&quot;SF Pro Text&quot;,Helvetica,sans-serif;font-weight:bold;" transform="matrix(1 0 0 1 1289 1953)">Exporting</text>
  <text style="stroke:none;fill:black;font-family:-apple-system,&quot;SF Pro Display&quot;,&quot;SF Pro Text&quot;,Helvetica,sans-serif;" transform="matrix(1 0 0 1 1289 1971)">Symbols should be outlined when exporting to ensure the</text>
  <text style="stroke:none;fill:black;font-family:-apple-system,&quot;SF Pro Display&quot;,&quot;SF Pro Text&quot;,Helvetica,sans-serif;" transform="matrix(1 0 0 1 1289 1989)">design is preserved when submitting to Xcode.</text>
  <text id="template-version" style="stroke:none;fill:black;font-family:-apple-system,&quot;SF Pro Display&quot;,&quot;SF Pro Text&quot;,Helvetica,sans-serif;text-anchor:end;" transform="matrix(1 0 0 1 3036 1933)">Template v.0.1</text>
  <text style="stroke:none;fill:black;font-family:-apple-system,&quot;SF Pro Display&quot;,&quot;SF Pro Text&quot;,Helvetica,sans-serif;text-anchor:end;" transform="matrix(1 0 0 1 3036 1951)">Generated from dial</text>
  <text style="stroke:none;fill:black;font-family:-apple-system,&quot;SF Pro Display&quot;,&quot;SF Pro Text&quot;,Helvetica,sans-serif;text-anchor:end;" transform="matrix(1 0 0 1 3036 1969)">Typeset at 100 points</text>
  <text style="stroke:none;fill:black;font-family:-apple-system,&quot;SF Pro Display&quot;,&quot;SF Pro Text&quot;,Helvetica,sans-serif;" transform="matrix(1 0 0 1 263 726)">Small</text>
  <text style="stroke:none;fill:black;font-family:-apple-system,&quot;SF Pro Display&quot;,&quot;SF Pro Text&quot;,Helvetica,sans-serif;" transform="matrix(1 0 0 1 263 1156)">Medium</text>
  <text style="stroke:none;fill:black;font-family:-apple-system,&quot;SF Pro Display&quot;,&quot;SF Pro Text&quot;,Helvetica,sans-serif;" transform="matrix(1 0 0 1 263 1586)">Large</text>
 </g>
 <g id="Guides">
  <g id="H-reference" style="fill:#27AAE1;stroke:none;" transform="matrix(1 0 0 1 339 696)">
   <path d="M 54.9316 0 L 57.666 0 L 30.5664 -70.459 L 28.0762 -70.459 L 0.976562 0 L 3.66211 0 L 12.9395 -24.4629 L 45.7031 -24.4629 Z M 29.1992 -67.0898 L 29.4434 -67.0898 L 44.8242 -26.709 L 13.8184 -26.709 Z"/>
  </g>
  <line id="Baseline-S" style="fill:none;stroke:#27AAE1;opacity:1;stroke-width:0.577;" x1="263" x2="3036" y1="696" y2="696"/>
  <line id="Capline-S" style="fill:none;stroke:#27AAE1;opacity:1;stroke-width:0.577;" x1="263" x2="3036" y1="625.541" y2="625.541"/>
  <g id="H-reference" style="fill:#27AAE1;stroke:none;" transform="matrix(1 0 0 1 339 1126)">
   <path d="M 54.9316 0 L 57.666 0 L 30.5664 -70.459 L 28.0762 -70.459 L 0.976562 0 L 3.66211 0 L 12.9395 -24.4629 L 45.7031 -24.4629 Z M 29.1992 -67.0898 L 29.4434 -67.0898 L 44.8242 -26.709 L 13.8184 -26.709 Z"/>
  </g>
  <line id="Baseline-M" style="fill:none;stroke:#27AAE1;opacity:1;stroke-width:0.577;" x1="263" x2="3036" y1="1126" y2="1126"/>
  <line id="Capline-M" style="fill:none;stroke:#27AAE1;opacity:1;stroke-width:0.577;" x1="263" x2="3036" y1="1055.54" y2="1055.54"/>
  <g id="H-reference" style="fill:#27AAE1;stroke:none;" transform="matrix(1 0 0 1 339 1556)">
   <path d="M 54.9316 0 L 57.666 0 L 30.5664 -70.459 L 28.0762 -70.459 L 0.976562 0 L 3.66211 0 L 12.9395 -24.4629 L 45.7031 -24.4629 Z M 29.1992 -67.0898 L 29.4434 -67.0898 L 44.8242 -26.709 L 13.8184 -26.709 Z"/>
  </g>
  <line id="Baseline-L" style="fill:none;stroke:#27AAE1;opacity:1;stroke-width:0.577;" x1="263" x2="3036" y1="1556" y2="1556"/>
  <line id="Capline-L" style="fill:none;stroke:#27AAE1;opacity:1;stroke-width:0.577;" x1="263" x2="3036" y1="1485.54" y2="1485.54"/>
  <rect height="119.336" id="left-margin" style="fill:#00AEEF;stroke:none;opacity:0.4;" width="8.74023" x="1385.42" y="1030.79"/>
  <rect height="119.336" id="right-margin" style="fill:#00AEEF;stroke:none;opacity:0.4;" width="8.74023" x="1505.53" y="1030.79"/>
 </g>
 <g id="Symbols">
  <g id="Ultralight-S" transform="matrix(1 0 0 1 511.737 696)">
   <path d="M 47.9492 -70.3125 C 49.6582 -70.3125 51.0742 -71.7285 51.0742 -73.4375 C 51.0742 -75.1465 49.6582 -76.5137 47.9492 -76.5137 C 46.2402 -76.5137 44.8242 -75.1465 44.8242 -73.4375 C 44.8242 -71.7285 46.2402 -70.3125 47.9492 -70.3125 Z M 74.8047 -59.082 C 76.5137 -59.082 77.9297 -60.498 77.9297 -62.207 C 77.9297 -63.916 76.5137 -65.332 74.8047 -65.332 C 73.0957 -65.332 71.7285 -63.916 71.7285 -62.207 C 71.7285 -60.498 73.0957 -59.082 74.8047 -59.082 Z M 21.0938 -59.082 C 22.8027 -59.082 24.2188 -60.498 24.2188 -62.207 C 24.2188 -63.916 22.8027 -65.332 21.0938 -65.332 C 19.3848 -65.332 17.9688 -63.916 17.9688 -62.207 C 17.9688 -60.498 19.3848 -59.082 21.0938 -59.082 Z M 47.9492 -11.9141 C 60.8398 -11.9141 71.4355 -22.5098 71.4355 -35.4004 C 71.4355 -48.291 60.8398 -58.8867 47.9492 -58.8867 C 35.0586 -58.8867 24.5117 -48.291 24.5117 -35.4004 C 24.5117 -22.5098 35.0586 -11.9141 47.9492 -11.9141 Z M 47.9492 -56.6895 C 59.668 -56.6895 69.2383 -47.0703 69.2383 -35.4004 C 69.2383 -23.7305 59.668 -14.1113 47.9492 -14.1113 C 42.334 -14.1113 37.1582 -16.3574 33.3496 -19.9707 L 49.1211 -35.8887 C 49.5605 -36.3281 49.5117 -37.0117 49.1211 -37.4512 C 48.7305 -37.793 47.998 -37.8418 47.5586 -37.4512 L 31.8359 -21.582 C 28.6133 -25.293 26.6602 -30.127 26.6602 -35.4004 C 26.6602 -47.0703 36.2793 -56.6895 47.9492 -56.6895 Z M 85.9863 -32.3242 C 87.6953 -32.3242 89.1113 -33.7402 89.1113 -35.4492 C 89.1113 -37.1582 87.6953 -38.5742 85.9863 -38.5742 C 84.2773 -38.5742 82.8613 -37.1582 82.8613 -35.4492 C 82.8613 -33.7402 84.2773 -32.3242 85.9863 -32.3242 Z M 9.96094 -32.3242 C 11.6699 -32.3242 13.0859 -33.7402 13.0859 -35.4492 C 13.0859 -37.1582 11.6699 -38.5742 9.96094 -38.5742 C 8.25195 -38.5742 6.83594 -37.1582 6.83594 -35.4492 C 6.83594 -33.7402 8.25195 -32.3242 9.96094 -32.3242 Z M 21.0938 -5.51758 C 22.8027 -5.51758 24.2188 -6.93359 24.2188 -8.64258 C 24.2188 -10.3516 22.8027 -11.7676 21.0938 -11.7676 C 19.3848 -11.7676 17.9688 -10.3516 17.9688 -8.64258 C 17.9688 -6.93359 19.3848 -5.51758 21.0938 -5.51758 Z M 74.8047 -5.51758 C 76.5137 -5.51758 77.9297 -6.93359 77.9297 -8.64258 C 77.9297 -10.3516 76.5137 -11.7676 74.8047 -11.7676 C 73.0957 -11.7676 71.7285 -10.3516 71.7285 -8.64258 C 71.7285 -6.93359 73.0957 -5.51758 74.8047 -5.51758 Z"/>
  </g>
  <g id="Thin-S" transform="matrix(1 0 0 1 807.765 696)">
   <path d="M 48.6816 -70.2637 C 50.5859 -70.2637 52.1484 -71.8262 52.1484 -73.7305 C 52.1484 -75.6836 50.5859 -77.2461 48.6816 -77.2461 C 46.7285 -77.2461 45.166 -75.6836 45.166 -73.7305 C 45.166 -71.8262 46.7285 -70.2637 48.6816 -70.2637 Z M 75.7812 -58.9355 C 77.6855 -58.9355 79.248 -60.5469 79.248 -62.4512 C 79.248 -64.4043 77.6855 -65.9668 75.7812 -65.9668 C 73.8281 -65.9668 72.2656 -64.3555 72.2656 -62.4512 C 72.2656 -60.5469 73.8281 -58.9355 75.7812 -58.9355 Z M 21.5332 -58.9355 C 23.4863 -58.9355 25.0488 -60.498 25.0488 -62.4512 C 25.0488 -64.3555 23.4863 -65.918 21.5332 -65.918 C 19.6289 -65.918 18.0664 -64.3555 18.0664 -62.4512 C 18.0664 -60.498 19.6289 -58.9355 21.5332 -58.9355 Z M 48.6816 -11.5723 C 61.7676 -11.5723 72.5098 -22.2656 72.5098 -35.4004 C 72.5098 -48.5352 61.7676 -59.2285 48.6816 -59.2285 C 35.5469 -59.2285 24.8535 -48.5352 24.8535 -35.4004 C 24.8535 -22.2656 35.5469 -11.5723 48.6816 -11.5723 Z M 48.6816 -56.0547 C 60.0098 -56.0547 69.2871 -46.7285 69.2871 -35.4004 C 69.2871 -24.0723 60.0098 -14.7949 48.6816 -14.7949 C 43.3594 -14.7949 38.5254 -16.7969 34.8633 -20.1172 L 50.0488 -35.4004 C 50.6836 -35.9863 50.6348 -36.9629 50.0488 -37.5977 C 49.4629 -38.1348 48.4863 -38.1836 47.9004 -37.5977 L 32.7148 -22.3633 C 29.7852 -25.9277 28.0273 -30.4688 28.0273 -35.4004 C 28.0273 -46.7285 37.3047 -56.0547 48.6816 -56.0547 Z M 87.0117 -31.9336 C 88.916 -31.9336 90.4785 -33.5449 90.4785 -35.4492 C 90.4785 -37.4023 88.916 -38.9648 87.0117 -38.9648 C 85.0586 -38.9648 83.4961 -37.3535 83.4961 -35.4492 C 83.4961 -33.4961 85.0586 -31.9336 87.0117 -31.9336 Z M 10.3516 -31.9336 C 12.2559 -31.9336 13.8184 -33.5449 13.8184 -35.4492 C 13.8184 -37.4023 12.2559 -38.9648 10.3516 -38.9648 C 8.39844 -38.9648 6.83594 -37.3535 6.83594 -35.4492 C 6.83594 -33.4961 8.39844 -31.9336 10.3516 -31.9336 Z M 21.5332 -4.93164 C 23.4863 -4.93164 25.0488 -6.49414 25.0488 -8.39844 C 25.0488 -10.3516 23.4863 -11.9141 21.5332 -11.9141 C 19.6289 -11.9141 18.0664 -10.3516 18.0664 -8.39844 C 18.0664 -6.49414 19.6289 -4.93164 21.5332 -4.93164 Z M 75.7324 -4.93164 C 77.6855 -4.93164 79.248 -6.49414 79.248 -8.39844 C 79.248 -10.3516 77.6855 -11.9141 75.7324 -11.9141 C 73.8281 -11.9141 72.2656 -10.3027 72.2656 -8.39844 C 72.2656 -6.49414 73.8281 -4.93164 75.7324 -4.93164 Z"/>
  </g>
  <g id="Light-S" transform="matrix(1 0 0 1 1103.11 696)">
   <path d="M 50 -70.166 C 52.3926 -70.166 54.248 -72.0703 54.248 -74.3652 C 54.248 -76.7578 52.3438 -78.6133 50 -78.6133 C 47.6562 -78.6133 45.8008 -76.709 45.8008 -74.3652 C 45.8008 -72.0215 47.7051 -70.166 50 -70.166 Z M 77.5879 -58.6914 C 79.9316 -58.6914 81.7871 -60.5957 81.7871 -62.9395 C 81.7871 -65.2832 79.8828 -67.1387 77.5879 -67.1387 C 75.2441 -67.1387 73.3398 -65.2344 73.3398 -62.9395 C 73.3398 -60.5469 75.2441 -58.6914 77.5879 -58.6914 Z M 22.4121 -58.6426 C 24.7559 -58.6426 26.6602 -60.5469 26.6602 -62.8418 C 26.6602 -65.1855 24.7559 -67.0898 22.4121 -67.0898 C 20.0684 -67.0898 18.2129 -65.1855 18.2129 -62.8418 C 18.2129 -60.498 20.1172 -58.6426 22.4121 -58.6426 Z M 50 -10.8887 C 63.5254 -10.8887 74.5605 -21.875 74.5605 -35.4492 C 74.5605 -48.9746 63.5254 -59.9609 50 -59.9609 C 36.5234 -59.9609 25.4883 -48.9746 25.4883 -35.4492 C 25.4883 -21.875 36.5234 -10.8887 50 -10.8887 Z M 50 -54.834 C 60.6934 -54.834 69.3848 -46.0938 69.3848 -35.4492 C 69.3848 -24.7559 60.6934 -16.0645 50 -16.0645 C 45.4102 -16.0645 41.1621 -17.7246 37.793 -20.4102 L 51.8555 -34.4727 C 52.7832 -35.4492 52.7832 -36.8652 51.8555 -37.8906 C 50.9766 -38.7695 49.3652 -38.7695 48.4863 -37.8906 L 34.5215 -23.877 C 32.0801 -27.0996 30.6152 -31.1035 30.6152 -35.4492 C 30.6152 -46.0938 39.3555 -54.834 50 -54.834 Z M 88.9648 -31.2012 C 91.3086 -31.2012 93.2129 -33.1055 93.2129 -35.4492 C 93.2129 -37.793 91.3086 -39.6973 88.9648 -39.6973 C 86.6211 -39.6973 84.7168 -37.793 84.7168 -35.4492 C 84.7168 -33.1055 86.6211 -31.2012 88.9648 -31.2012 Z M 11.084 -31.2012 C 13.4277 -31.2012 15.2832 -33.1055 15.2832 -35.4492 C 15.2832 -37.793 13.3789 -39.6973 11.084 -39.6973 C 8.69141 -39.6973 6.83594 -37.793 6.83594 -35.4492 C 6.83594 -33.1055 8.74023 -31.2012 11.084 -31.2012 Z M 22.4121 -3.75977 C 24.7559 -3.75977 26.6602 -5.66406 26.6602 -8.00781 C 26.6602 -10.3516 24.7559 -12.207 22.4121 -12.207 C 20.0684 -12.207 18.2129 -10.3027 18.2129 -8.00781 C 18.2129 -5.66406 20.1172 -3.75977 22.4121 -3.75977 Z M 77.5391 -3.75977 C 79.8828 -3.75977 81.7871 -5.66406 81.7871 -7.95898 C 81.7871 -10.3027 79.8828 -12.207 77.5391 -12.207 C 75.1953 -12.207 73.3398 -10.3027 73.3398 -7.95898 C 73.3398 -5.61523 75.2441 -3.75977 77.5391 -3.75977 Z"/>
  </g>
  <g id="Regular-S" transform="matrix(1 0 0 1 1398.79 696)">
   <path d="M 51.0254 -70.0684 C 53.7109 -70.0684 55.8105 -72.2168 55.8105 -74.8535 C 55.8105 -77.5391 53.6621 -79.6387 51.0254 -79.6387 C 48.3398 -79.6387 46.2402 -77.4902 46.2402 -74.8535 C 46.2402 -72.168 48.3887 -70.0684 51.0254 -70.0684 Z M 78.9551 -58.4961 C 81.6406 -58.4961 83.7402 -60.6445 83.7402 -63.2812 C 83.7402 -65.9668 81.5918 -68.0664 78.9551 -68.0664 C 76.2695 -68.0664 74.1699 -65.918 74.1699 -63.2812 C 74.1699 -60.5957 76.3184 -58.4961 78.9551 -58.4961 Z M 23.0957 -58.3984 C 25.7324 -58.3984 27.8809 -60.5469 27.8809 -63.1836 C 27.8809 -65.8691 25.7324 -67.9688 23.0957 -67.9688 C 20.4102 -67.9688 18.3105 -65.8203 18.3105 -63.1836 C 18.3105 -60.498 20.459 -58.3984 23.0957 -58.3984 Z M 51.0254 -10.4004 C 64.8438 -10.4004 76.0742 -21.5332 76.0742 -35.4492 C 76.0742 -49.3164 64.8438 -60.498 51.0254 -60.498 C 37.207 -60.498 25.9766 -49.3164 25.9766 -35.4492 C 25.9766 -21.5332 37.207 -10.4004 51.0254 -10.4004 Z M 51.0254 -53.8574 C 61.1816 -53.8574 69.4824 -45.6055 69.4824 -35.4492 C 69.4824 -25.293 61.1816 -17.041 51.0254 -17.041 C 46.9238 -17.041 43.1641 -18.4082 40.0879 -20.6543 L 53.1738 -33.7891 C 54.3945 -35.0098 54.4434 -36.8164 53.1738 -38.0859 C 52.0996 -39.209 50.0977 -39.209 48.9258 -38.0859 L 35.8887 -25 C 33.8379 -27.9785 32.6172 -31.5918 32.6172 -35.4492 C 32.6172 -45.6055 40.8691 -53.8574 51.0254 -53.8574 Z M 90.4785 -30.6641 C 93.1152 -30.6641 95.2637 -32.8125 95.2637 -35.4492 C 95.2637 -38.1348 93.1152 -40.2344 90.4785 -40.2344 C 87.793 -40.2344 85.6934 -38.0859 85.6934 -35.4492 C 85.6934 -32.7637 87.8418 -30.6641 90.4785 -30.6641 Z M 11.6211 -30.6641 C 14.3066 -30.6641 16.4062 -32.8125 16.4062 -35.4492 C 16.4062 -38.1348 14.2578 -40.2344 11.6211 -40.2344 C 8.93555 -40.2344 6.83594 -38.0859 6.83594 -35.4492 C 6.83594 -32.7637 8.98438 -30.6641 11.6211 -30.6641 Z M 23.0957 -2.88086 C 25.7324 -2.88086 27.8809 -5.0293 27.8809 -7.66602 C 27.8809 -10.3516 25.7324 -12.4512 23.0957 -12.4512 C 20.4102 -12.4512 18.3105 -10.3027 18.3105 -7.66602 C 18.3105 -4.98047 20.459 -2.88086 23.0957 -2.88086 Z M 78.9062 -2.83203 C 81.5918 -2.83203 83.6914 -4.98047 83.6914 -7.61719 C 83.6914 -10.3027 81.543 -12.4023 78.9062 -12.4023 C 76.2207 -12.4023 74.1211 -10.2539 74.1211 -7.61719 C 74.1211 -4.93164 76.2695 -2.83203 78.9062 -2.83203 Z"/>
  </g>
  <g id="Medium-S" transform="matrix(1 0 0 1 1694.97 696)">
   <path d="M 51.6113 -69.9707 C 54.3945 -69.9707 56.6895 -72.3145 56.6895 -75.0977 C 56.6895 -77.9297 54.3945 -80.1758 51.6113 -80.1758 C 48.6816 -80.1758 46.4844 -77.9297 46.4844 -75.0977 C 46.4844 -72.3145 48.8281 -69.9707 51.6113 -69.9707 Z M 79.5898 -58.3496 C 82.373 -58.3496 84.7168 -60.6934 84.7168 -63.4277 C 84.7168 -66.3086 82.4707 -68.5547 79.5898 -68.5547 C 76.7578 -68.5547 74.5117 -66.2598 74.5117 -63.4277 C 74.5117 -60.6445 76.8555 -58.3496 79.5898 -58.3496 Z M 23.5352 -58.252 C 26.3672 -58.252 28.6133 -60.5957 28.6133 -63.3789 C 28.6133 -66.2109 26.3672 -68.457 23.5352 -68.457 C 20.6543 -68.457 18.457 -66.2109 18.457 -63.3789 C 18.457 -60.5957 20.8008 -58.252 23.5352 -58.252 Z M 51.6113 -9.7168 C 65.7227 -9.7168 77.2949 -21.2402 77.2949 -35.4492 C 77.2949 -49.6094 65.7227 -61.1328 51.6113 -61.1328 C 37.4512 -61.1328 25.8789 -49.6094 25.8789 -35.4492 C 25.8789 -21.2402 37.4512 -9.7168 51.6113 -9.7168 Z M 51.6113 -53.2715 C 61.377 -53.2715 69.4336 -45.2148 69.4336 -35.4492 C 69.4336 -25.6348 61.377 -17.627 51.6113 -17.627 C 47.8027 -17.627 44.2383 -18.8477 41.3086 -20.8984 L 54.1016 -33.3008 C 55.5176 -34.668 55.5664 -36.8164 54.1016 -38.2812 C 52.832 -39.5508 50.4883 -39.5996 49.2188 -38.2812 L 36.8652 -25.4883 C 34.9121 -28.3203 33.7402 -31.7383 33.7402 -35.4492 C 33.7402 -45.2148 41.7969 -53.2715 51.6113 -53.2715 Z M 91.2598 -30.3223 C 94.1406 -30.3223 96.3379 -32.5684 96.3379 -35.4492 C 96.3379 -38.2324 93.9941 -40.5273 91.2598 -40.5273 C 88.4277 -40.5273 86.1328 -38.2324 86.1328 -35.4492 C 86.1328 -32.5684 88.4277 -30.3223 91.2598 -30.3223 Z M 11.9141 -30.3223 C 14.6973 -30.3223 17.041 -32.666 17.041 -35.4492 C 17.041 -38.3301 14.7949 -40.5273 11.9141 -40.5273 C 9.08203 -40.5273 6.83594 -38.2324 6.83594 -35.4492 C 6.83594 -32.6172 9.13086 -30.3223 11.9141 -30.3223 Z M 23.5352 -2.39258 C 26.3672 -2.39258 28.6133 -4.63867 28.6133 -7.4707 C 28.6133 -10.3027 26.3184 -12.5488 23.5352 -12.5488 C 20.752 -12.5488 18.457 -10.2051 18.457 -7.4707 C 18.457 -4.58984 20.7031 -2.39258 23.5352 -2.39258 Z M 79.5898 -2.34375 C 82.4707 -2.34375 84.668 -4.58984 84.668 -7.42188 C 84.668 -10.2051 82.3242 -12.5488 79.5898 -12.5488 C 76.7578 -12.5488 74.4629 -10.2051 74.4629 -7.42188 C 74.4629 -4.58984 76.7578 -2.34375 79.5898 -2.34375 Z"/>
  </g>
  <g id="Semibold-S" transform="matrix(1 0 0 1 1991.26 696)">
   <path d="M 52.002 -69.9219 C 54.9316 -69.9219 57.3242 -72.3633 57.3242 -75.2441 C 57.3242 -78.2227 54.9805 -80.5664 52.002 -80.5664 C 48.9746 -80.5664 46.6797 -78.2715 46.6797 -75.2441 C 46.6797 -72.3633 49.1699 -69.9219 52.002 -69.9219 Z M 80.127 -58.252 C 82.959 -58.252 85.4492 -60.7422 85.4492 -63.5742 C 85.4492 -66.6016 83.1543 -68.8965 80.127 -68.8965 C 77.1484 -68.8965 74.7559 -66.5039 74.7559 -63.5742 C 74.7559 -60.6445 77.1973 -58.252 80.127 -58.252 Z M 23.877 -58.2031 C 26.8066 -58.2031 29.1992 -60.6445 29.1992 -63.5254 C 29.1992 -66.5039 26.8555 -68.8477 23.877 -68.8477 C 20.8496 -68.8477 18.5547 -66.5527 18.5547 -63.5254 C 18.5547 -60.6445 21.0449 -58.2031 23.877 -58.2031 Z M 52.002 -9.22852 C 66.4062 -9.22852 78.2227 -20.9473 78.2227 -35.4492 C 78.2227 -49.8535 66.4062 -61.6211 52.002 -61.6211 C 37.5977 -61.6211 25.8301 -49.8535 25.8301 -35.4492 C 25.8301 -20.9473 37.5977 -9.22852 52.002 -9.22852 Z M 52.002 -52.7832 C 61.5234 -52.7832 69.4336 -44.9707 69.4336 -35.4492 C 69.4336 -25.8789 61.5234 -18.0664 52.002 -18.0664 C 48.4375 -18.0664 45.0684 -19.1895 42.2852 -21.0938 L 54.7852 -32.959 C 56.3965 -34.4727 56.3965 -36.8164 54.7852 -38.4277 C 53.418 -39.8438 50.8301 -39.8926 49.4629 -38.4277 L 37.5977 -25.8301 C 35.7422 -28.5645 34.668 -31.8848 34.668 -35.4492 C 34.668 -44.9707 42.5293 -52.7832 52.002 -52.7832 Z M 91.8457 -30.0781 C 94.9219 -30.0781 97.168 -32.4219 97.168 -35.4492 C 97.168 -38.2812 94.6777 -40.7715 91.8457 -40.7715 C 88.916 -40.7715 86.5234 -38.3301 86.5234 -35.4492 C 86.5234 -32.4707 88.916 -30.0781 91.8457 -30.0781 Z M 12.1582 -30.0781 C 15.0391 -30.0781 17.4805 -32.5684 17.4805 -35.4492 C 17.4805 -38.4766 15.1855 -40.7715 12.1582 -40.7715 C 9.17969 -40.7715 6.83594 -38.3789 6.83594 -35.4492 C 6.83594 -32.5195 9.27734 -30.0781 12.1582 -30.0781 Z M 23.877 -2.00195 C 26.8555 -2.00195 29.1992 -4.39453 29.1992 -7.32422 C 29.1992 -10.2539 26.7578 -12.6465 23.877 -12.6465 C 20.9961 -12.6465 18.5547 -10.1562 18.5547 -7.32422 C 18.5547 -4.24805 20.8496 -2.00195 23.877 -2.00195 Z M 80.0781 -1.95312 C 83.1543 -1.95312 85.4004 -4.24805 85.4004 -7.27539 C 85.4004 -10.1562 82.9102 -12.6465 80.0781 -12.6465 C 77.1484 -12.6465 74.7559 -10.1562 74.7559 -7.27539 C 74.7559 -4.29688 77.1484 -1.95312 80.0781 -1.95312 Z"/>
  </g>
  <g id="Bold-S" transform="matrix(1 0 0 1 2287.41 696)">
   <path d="M 52.5879 -69.8242 C 55.6152 -69.8242 58.2031 -72.4609 58.2031 -75.4883 C 58.2031 -78.6133 55.7129 -81.1035 52.5879 -81.1035 C 49.3164 -81.1035 46.9238 -78.7109 46.9238 -75.4883 C 46.9238 -72.4609 49.6094 -69.8242 52.5879 -69.8242 Z M 80.7617 -58.1055 C 83.7402 -58.1055 86.4258 -60.7422 86.4258 -63.7207 C 86.4258 -66.9922 84.0332 -69.3848 80.7617 -69.3848 C 77.6367 -69.3848 75.0977 -66.8457 75.0977 -63.7207 C 75.0977 -60.6934 77.7344 -58.1055 80.7617 -58.1055 Z M 24.3652 -58.0566 C 27.3926 -58.0566 29.9805 -60.6934 29.9805 -63.7207 C 29.9805 -66.8457 27.4902 -69.3359 24.3652 -69.3359 C 21.0938 -69.3359 18.7012 -66.9434 18.7012 -63.7207 C 18.7012 -60.6934 21.3867 -58.0566 24.3652 -58.0566 Z M 52.5879 -8.59375 C 67.334 -8.59375 79.3945 -20.6543 79.3945 -35.4004 C 79.3945 -50.1953 67.334 -62.2559 52.5879 -62.2559 C 37.8418 -62.2559 25.7324 -50.1953 25.7324 -35.4004 C 25.7324 -20.6543 37.8418 -8.59375 52.5879 -8.59375 Z M 52.5879 -52.1484 C 61.7188 -52.1484 69.3848 -44.5801 69.3848 -35.4004 C 69.3848 -26.2695 61.7188 -18.6035 52.5879 -18.6035 C 49.2676 -18.6035 46.1914 -19.6289 43.5547 -21.3379 L 55.7129 -32.5195 C 57.5195 -34.1309 57.4707 -36.8164 55.7129 -38.5742 C 54.1992 -40.1855 51.2695 -40.2832 49.7559 -38.5742 L 38.5742 -26.2695 C 36.8164 -28.9062 35.791 -32.0801 35.791 -35.4004 C 35.791 -44.5801 43.457 -52.1484 52.5879 -52.1484 Z M 92.627 -29.7852 C 95.8984 -29.7852 98.291 -32.1777 98.291 -35.4004 C 98.291 -38.4277 95.6055 -41.0645 92.627 -41.0645 C 89.5996 -41.0645 87.0117 -38.4277 87.0117 -35.4004 C 87.0117 -32.2754 89.502 -29.7852 92.627 -29.7852 Z M 12.5 -29.7852 C 15.4785 -29.7852 18.1152 -32.4707 18.1152 -35.4004 C 18.1152 -38.6719 15.7227 -41.0645 12.5 -41.0645 C 9.32617 -41.0645 6.83594 -38.5254 6.83594 -35.4004 C 6.83594 -32.373 9.42383 -29.7852 12.5 -29.7852 Z M 24.3652 -1.46484 C 27.4902 -1.46484 29.9805 -4.00391 29.9805 -7.12891 C 29.9805 -10.1562 27.3926 -12.7441 24.3652 -12.7441 C 21.3867 -12.7441 18.7012 -10.1074 18.7012 -7.12891 C 18.7012 -3.85742 21.0938 -1.46484 24.3652 -1.46484 Z M 80.7617 -1.46484 C 84.0332 -1.46484 86.377 -3.85742 86.377 -7.08008 C 86.377 -10.1074 83.7402 -12.7441 80.7617 -12.7441 C 77.6855 -12.7441 75.0977 -10.1074 75.0977 -7.08008 C 75.0977 -3.95508 77.6367 -1.46484 80.7617 -1.46484 Z"/>
  </g>
  <g id="Heavy-S" transform="matrix(1 0 0 1 2583.32 696)">
   <path d="M 53.3691 -69.6777 C 56.6406 -69.6777 59.4727 -72.5586 59.4727 -75.7812 C 59.4727 -79.1992 56.7383 -81.8848 53.3691 -81.8848 C 49.8047 -81.8848 47.2656 -79.3457 47.2656 -75.7812 C 47.2656 -72.6562 50.2441 -69.6777 53.3691 -69.6777 Z M 81.7383 -57.8613 C 84.8633 -57.8613 87.793 -60.8398 87.793 -63.9648 C 87.793 -67.5781 85.3027 -70.0684 81.7383 -70.0684 C 78.3203 -70.0684 75.6348 -67.3828 75.6348 -63.9648 C 75.6348 -60.7422 78.4668 -57.8613 81.7383 -57.8613 Z M 25.0488 -57.8613 C 28.2715 -57.8613 31.1035 -60.7422 31.1035 -63.9648 C 31.1035 -67.3828 28.418 -70.0684 25.0488 -70.0684 C 21.4355 -70.0684 18.9453 -67.5781 18.9453 -63.9648 C 18.9453 -60.8398 21.875 -57.8613 25.0488 -57.8613 Z M 53.3691 -7.61719 C 68.6035 -7.61719 81.1523 -20.166 81.1523 -35.4004 C 81.1523 -50.6348 68.6035 -63.1836 53.3691 -63.1836 C 38.1348 -63.1836 25.5859 -50.6348 25.5859 -35.4004 C 25.5859 -20.166 38.1348 -7.61719 53.3691 -7.61719 Z M 53.3691 -51.2695 C 62.0117 -51.2695 69.3359 -44.043 69.3359 -35.4004 C 69.3359 -26.7578 62.0117 -19.4336 53.3691 -19.4336 C 50.5371 -19.4336 47.8027 -20.2637 45.459 -21.6797 L 57.0801 -31.8359 C 59.1797 -33.6914 59.082 -36.8164 57.0801 -38.8184 C 55.3223 -40.6738 51.9531 -40.8691 50.1953 -38.8184 L 39.9902 -27.002 C 38.4277 -29.4434 37.5 -32.3242 37.5 -35.4004 C 37.5 -44.043 44.8242 -51.2695 53.3691 -51.2695 Z M 93.7988 -29.2969 C 97.3633 -29.2969 99.9023 -31.8359 99.9023 -35.4004 C 99.9023 -38.5742 96.9727 -41.5039 93.7988 -41.5039 C 90.5762 -41.5039 87.6953 -38.623 87.6953 -35.4004 C 87.6953 -32.0312 90.4297 -29.2969 93.7988 -29.2969 Z M 12.9395 -29.2969 C 16.0645 -29.2969 19.043 -32.2754 19.043 -35.4004 C 19.043 -38.9648 16.5039 -41.5039 12.9395 -41.5039 C 9.57031 -41.5039 6.83594 -38.7695 6.83594 -35.4004 C 6.83594 -32.1777 9.66797 -29.2969 12.9395 -29.2969 Z M 25.0488 -0.732422 C 28.418 -0.732422 31.1035 -3.41797 31.1035 -6.83594 C 31.1035 -10.0586 28.2715 -12.9395 25.0488 -12.9395 C 21.875 -12.9395 18.9453 -9.96094 18.9453 -6.83594 C 18.9453 -3.22266 21.4355 -0.732422 25.0488 -0.732422 Z M 81.7383 -0.732422 C 85.3027 -0.732422 87.793 -3.22266 87.793 -6.83594 C 87.793 -9.96094 84.8633 -12.9395 81.7383 -12.9395 C 78.4668 -12.9395 75.6348 -10.0586 75.6348 -6.83594 C 75.6348 -3.41797 78.3203 -0.732422 81.7383 -0.732422 Z"/>
  </g>
  <g id="Black-S" transform="matrix(1 0 0 1 2879.3 696)">
   <path d="M 54.1016 -69.5801 C 57.5195 -69.5801 60.5957 -72.6562 60.5957 -76.0742 C 60.5957 -79.6875 57.7148 -82.5684 54.1016 -82.5684 C 50.2441 -82.5684 47.6074 -79.9316 47.6074 -76.0742 C 47.6074 -72.8027 50.7812 -69.5801 54.1016 -69.5801 Z M 25.6348 -57.7148 C 29.0527 -57.7148 32.1289 -60.791 32.1289 -64.209 C 32.1289 -67.8223 29.248 -70.752 25.6348 -70.752 C 21.7773 -70.752 19.1406 -68.1152 19.1406 -64.209 C 19.1406 -60.9375 22.3145 -57.7148 25.6348 -57.7148 Z M 82.5684 -57.7148 C 85.8887 -57.7148 89.0625 -60.8887 89.0625 -64.209 C 89.0625 -68.0664 86.4258 -70.7031 82.5684 -70.7031 C 78.9551 -70.7031 76.0742 -67.8223 76.0742 -64.209 C 76.0742 -60.791 79.1504 -57.7148 82.5684 -57.7148 Z M 54.1016 -6.73828 C 69.7754 -6.73828 82.7148 -19.7266 82.7148 -35.4004 C 82.7148 -51.0742 69.7754 -64.0137 54.1016 -64.0137 C 38.4277 -64.0137 25.4395 -51.0742 25.4395 -35.4004 C 25.4395 -19.7266 38.4277 -6.73828 54.1016 -6.73828 Z M 54.1016 -50.4883 C 62.2559 -50.4883 69.2871 -43.5547 69.2871 -35.4004 C 69.2871 -27.1973 62.2559 -20.166 54.1016 -20.166 C 51.6113 -20.166 49.2676 -20.8008 47.168 -21.9727 L 58.3008 -31.25 C 60.6934 -33.3008 60.5469 -36.8164 58.3008 -39.0625 C 56.2988 -41.1133 52.4902 -41.3574 50.5859 -39.0625 L 41.2109 -27.6367 C 39.8438 -29.9316 39.0137 -32.6172 39.0137 -35.4004 C 39.0137 -43.5547 46.0449 -50.4883 54.1016 -50.4883 Z M 94.8242 -28.9062 C 98.6816 -28.9062 101.367 -31.4941 101.367 -35.4004 C 101.367 -38.6719 98.1445 -41.8945 94.8242 -41.8945 C 91.4062 -41.8945 88.3301 -38.8184 88.3301 -35.4004 C 88.3301 -31.7871 91.2109 -28.9062 94.8242 -28.9062 Z M 13.3301 -28.9062 C 16.6504 -28.9062 19.8242 -32.0801 19.8242 -35.4004 C 19.8242 -39.2578 17.2363 -41.8945 13.3301 -41.8945 C 9.7168 -41.8945 6.83594 -39.0137 6.83594 -35.4004 C 6.83594 -31.9824 9.91211 -28.9062 13.3301 -28.9062 Z M 82.5684 -0.0488281 C 86.4258 -0.0488281 89.1113 -2.68555 89.1113 -6.5918 C 89.1113 -9.86328 85.8887 -13.0859 82.5684 -13.0859 C 79.1504 -13.0859 76.0742 -10.0098 76.0742 -6.5918 C 76.0742 -2.97852 78.9551 -0.0488281 82.5684 -0.0488281 Z M 25.6348 -0.0488281 C 29.248 -0.0488281 32.1289 -2.92969 32.1289 -6.54297 C 32.1289 -9.96094 29.0527 -13.0859 25.6348 -13.0859 C 22.3145 -13.0859 19.1406 -9.86328 19.1406 -6.54297 C 19.1406 -2.68555 21.7773 -0.0488281 25.6348 -0.0488281 Z"/>
  </g>
  <g id="Ultralight-M" transform="matrix(1 0 0 1 498.749 1126)">
   <path d="M 60.9375 -80.0293 C 63.0371 -80.0293 64.7949 -81.7383 64.7949 -83.8379 C 64.7949 -85.9375 63.0371 -87.6953 60.9375 -87.6953 C 58.8379 -87.6953 57.1289 -85.9375 57.1289 -83.8379 C 57.1289 -81.7383 58.8379 -80.0293 60.9375 -80.0293 Z M 26.7578 -65.7715 C 28.8574 -65.7715 30.5664 -67.4805 30.5664 -69.5801 C 30.5664 -71.6797 28.8574 -73.3887 26.7578 -73.3887 C 24.6582 -73.3887 22.9492 -71.6797 22.9492 -69.5801 C 22.9492 -67.4805 24.6582 -65.7715 26.7578 -65.7715 Z M 95.166 -65.7715 C 97.2656 -65.7715 98.9746 -67.4805 98.9746 -69.5801 C 98.9746 -71.6797 97.2656 -73.3887 95.166 -73.3887 C 93.0664 -73.3887 91.3086 -71.6797 91.3086 -69.5801 C 91.3086 -67.4805 93.0664 -65.7715 95.166 -65.7715 Z M 60.9375 -5.61523 C 77.3438 -5.61523 90.7715 -19.0918 90.7715 -35.4492 C 90.7715 -51.8066 77.3438 -65.2832 60.9375 -65.2832 C 44.5801 -65.2832 31.1523 -51.8066 31.1523 -35.4492 C 31.1523 -19.0918 44.5801 -5.61523 60.9375 -5.61523 Z M 60.9375 -62.8906 C 76.0254 -62.8906 88.3789 -50.4883 88.3789 -35.4492 C 88.3789 -20.4102 76.0254 -8.00781 60.9375 -8.00781 C 53.6133 -8.00781 46.9238 -10.9863 41.9922 -15.7227 L 62.3535 -36.2305 C 62.8418 -36.7188 62.793 -37.5 62.3535 -37.9883 C 61.8652 -38.4277 61.084 -38.4766 60.5957 -37.9883 L 40.2832 -17.5293 C 36.084 -22.3633 33.5449 -28.6133 33.5449 -35.4492 C 33.5449 -50.4883 45.8984 -62.8906 60.9375 -62.8906 Z M 109.326 -31.6895 C 111.426 -31.6895 113.184 -33.3984 113.184 -35.498 C 113.184 -37.5977 111.426 -39.3555 109.326 -39.3555 C 107.227 -39.3555 105.518 -37.5977 105.518 -35.498 C 105.518 -33.3984 107.227 -31.6895 109.326 -31.6895 Z M 12.5488 -31.6895 C 14.6484 -31.6895 16.4062 -33.3984 16.4062 -35.498 C 16.4062 -37.5977 14.6484 -39.3555 12.5488 -39.3555 C 10.4492 -39.3555 8.74023 -37.5977 8.74023 -35.498 C 8.74023 -33.3984 10.4492 -31.6895 12.5488 -31.6895 Z M 95.166 2.44141 C 97.2656 2.44141 98.9746 0.732422 98.9746 -1.36719 C 98.9746 -3.4668 97.2656 -5.22461 95.166 -5.22461 C 93.0664 -5.22461 91.3086 -3.4668 91.3086 -1.36719 C 91.3086 0.732422 93.0664 2.44141 95.166 2.44141 Z M 26.7578 2.44141 C 28.8574 2.44141 30.5664 0.732422 30.5664 -1.36719 C 30.5664 -3.4668 28.8574 -5.22461 26.7578 -5.22461 C 24.6582 -5.22461 22.9492 -3.4668 22.9492 -1.36719 C 22.9492 0.732422 24.6582 2.44141 26.7578 2.44141 Z"/>
  </g>
  <g id="Thin-M" transform="matrix(1 0 0 1 794.679 1126)">
   <path d="M 61.7188 -79.9805 C 64.0625 -79.9805 66.0156 -81.8848 66.0156 -84.2285 C 66.0156 -86.5723 64.0625 -88.4766 61.7188 -88.4766 C 59.375 -88.4766 57.4707 -86.5723 57.4707 -84.2285 C 57.4707 -81.8848 59.4238 -79.9805 61.7188 -79.9805 Z M 96.1914 -65.5762 C 98.5352 -65.5762 100.439 -67.5293 100.439 -69.873 C 100.439 -72.2168 98.5352 -74.1211 96.1914 -74.1211 C 93.8477 -74.1211 91.9434 -72.168 91.9434 -69.873 C 91.9434 -67.4805 93.8477 -65.5762 96.1914 -65.5762 Z M 27.2461 -65.5762 C 29.5898 -65.5762 31.543 -67.4805 31.543 -69.8242 C 31.543 -72.168 29.5898 -74.0723 27.2461 -74.0723 C 24.9023 -74.0723 22.998 -72.168 22.998 -69.8242 C 22.998 -67.4805 24.9512 -65.5762 27.2461 -65.5762 Z M 61.7188 -5.22461 C 78.3691 -5.22461 91.9434 -18.8477 91.9434 -35.4492 C 91.9434 -52.0996 78.3691 -65.6738 61.7188 -65.6738 C 45.1172 -65.6738 31.4941 -52.0996 31.4941 -35.4492 C 31.4941 -18.8477 45.1172 -5.22461 61.7188 -5.22461 Z M 61.7188 -62.1582 C 76.416 -62.1582 88.4277 -50.0977 88.4277 -35.4492 C 88.4277 -20.8008 76.416 -8.78906 61.7188 -8.78906 C 54.7852 -8.78906 48.4375 -11.4746 43.6523 -15.8691 L 63.3789 -35.6934 C 64.0625 -36.377 64.0625 -37.4512 63.3789 -38.1348 C 62.7441 -38.7695 61.6211 -38.8184 60.9375 -38.1348 L 41.2598 -18.3594 C 37.4023 -22.998 35.0586 -29.0039 35.0586 -35.4492 C 35.0586 -50.0977 47.0703 -62.1582 61.7188 -62.1582 Z M 110.498 -31.25 C 112.842 -31.25 114.746 -33.1543 114.746 -35.498 C 114.746 -37.8418 112.842 -39.7461 110.498 -39.7461 C 108.154 -39.7461 106.25 -37.8418 106.25 -35.498 C 106.25 -33.1543 108.154 -31.25 110.498 -31.25 Z M 12.9883 -31.25 C 15.332 -31.25 17.2363 -33.1543 17.2363 -35.498 C 17.2363 -37.8418 15.332 -39.7461 12.9883 -39.7461 C 10.6445 -39.7461 8.74023 -37.8418 8.74023 -35.498 C 8.74023 -33.1543 10.6445 -31.25 12.9883 -31.25 Z M 27.2461 3.125 C 29.5898 3.125 31.543 1.2207 31.543 -1.12305 C 31.543 -3.4668 29.5898 -5.37109 27.2461 -5.37109 C 24.9023 -5.37109 22.998 -3.4668 22.998 -1.12305 C 22.998 1.2207 24.9512 3.125 27.2461 3.125 Z M 96.1914 3.125 C 98.5352 3.125 100.439 1.2207 100.439 -1.12305 C 100.439 -3.4668 98.5352 -5.37109 96.1914 -5.37109 C 93.8477 -5.37109 91.9434 -3.4668 91.9434 -1.12305 C 91.9434 1.2207 93.8477 3.125 96.1914 3.125 Z"/>
  </g>
  <g id="Light-M" transform="matrix(1 0 0 1 1089.85 1126)">
   <path d="M 63.2812 -79.834 C 66.1133 -79.834 68.3594 -82.1289 68.3594 -84.9609 C 68.3594 -87.7441 66.0645 -90.0391 63.2812 -90.0391 C 60.4492 -90.0391 58.2031 -87.7441 58.2031 -84.9609 C 58.2031 -82.1289 60.498 -79.834 63.2812 -79.834 Z M 98.2422 -65.2832 C 101.074 -65.2832 103.369 -67.5781 103.369 -70.3613 C 103.369 -73.1934 101.074 -75.4395 98.2422 -75.4395 C 95.4102 -75.4395 93.1641 -73.1934 93.1641 -70.3613 C 93.1641 -67.5293 95.459 -65.2832 98.2422 -65.2832 Z M 28.2715 -65.2344 C 31.0547 -65.2344 33.3496 -67.5293 33.3496 -70.3125 C 33.3496 -73.1445 31.0547 -75.3906 28.2715 -75.3906 C 25.4395 -75.3906 23.1445 -73.0957 23.1445 -70.3125 C 23.1445 -67.4805 25.4395 -65.2344 28.2715 -65.2344 Z M 63.2812 -4.44336 C 80.3223 -4.44336 94.2871 -18.3594 94.2871 -35.498 C 94.2871 -52.5879 80.3223 -66.5039 63.2812 -66.5039 C 46.1914 -66.5039 32.2754 -52.5879 32.2754 -35.498 C 32.2754 -18.3594 46.1914 -4.44336 63.2812 -4.44336 Z M 63.2812 -60.7422 C 77.1484 -60.7422 88.5254 -49.3652 88.5254 -35.498 C 88.5254 -21.582 77.1484 -10.2539 63.2812 -10.2539 C 57.0801 -10.2539 51.416 -12.5 47.0215 -16.2109 L 65.4297 -34.668 C 66.5039 -35.7422 66.5039 -37.3535 65.4297 -38.4766 C 64.4531 -39.4531 62.6465 -39.502 61.6211 -38.4766 L 43.3105 -20.0684 C 39.9902 -24.3652 37.9883 -29.6875 37.9883 -35.498 C 37.9883 -49.3652 49.3652 -60.7422 63.2812 -60.7422 Z M 112.744 -30.4199 C 115.576 -30.4199 117.822 -32.7148 117.822 -35.498 C 117.822 -38.3301 115.527 -40.5762 112.744 -40.5762 C 109.912 -40.5762 107.617 -38.3301 107.617 -35.498 C 107.617 -32.666 109.912 -30.4199 112.744 -30.4199 Z M 13.8184 -30.4199 C 16.6504 -30.4199 18.8965 -32.7148 18.8965 -35.498 C 18.8965 -38.3301 16.6016 -40.5762 13.8184 -40.5762 C 10.9863 -40.5762 8.74023 -38.3301 8.74023 -35.498 C 8.74023 -32.666 11.0352 -30.4199 13.8184 -30.4199 Z M 28.2715 4.44336 C 31.0547 4.44336 33.3496 2.14844 33.3496 -0.634766 C 33.3496 -3.4668 31.0547 -5.71289 28.2715 -5.71289 C 25.4395 -5.71289 23.1445 -3.4668 23.1445 -0.634766 C 23.1445 2.19727 25.4395 4.44336 28.2715 4.44336 Z M 98.2422 4.49219 C 101.074 4.49219 103.32 2.19727 103.32 -0.634766 C 103.32 -3.4668 101.025 -5.71289 98.2422 -5.71289 C 95.4102 -5.71289 93.1641 -3.41797 93.1641 -0.634766 C 93.1641 2.19727 95.4102 4.49219 98.2422 4.49219 Z"/>
  </g>
  <g id="Regular-M" transform="matrix(1 0 0 1 1385.42 1126)">
   <path d="M 64.4531 -79.7852 C 67.627 -79.7852 70.166 -82.3242 70.166 -85.498 C 70.166 -88.6719 67.5781 -91.2109 64.4531 -91.2109 C 61.2305 -91.2109 58.6914 -88.623 58.6914 -85.498 C 58.6914 -82.2754 61.2793 -79.7852 64.4531 -79.7852 Z M 99.8047 -65.0391 C 103.027 -65.0391 105.518 -67.627 105.518 -70.752 C 105.518 -73.9746 102.979 -76.5137 99.8047 -76.5137 C 96.6309 -76.5137 94.0918 -73.9258 94.0918 -70.752 C 94.0918 -67.5781 96.6797 -65.0391 99.8047 -65.0391 Z M 29.0039 -64.9414 C 32.1777 -64.9414 34.7168 -67.5293 34.7168 -70.6543 C 34.7168 -73.877 32.1289 -76.416 29.0039 -76.416 C 25.7812 -76.416 23.291 -73.8281 23.291 -70.6543 C 23.291 -67.4805 25.8301 -64.9414 29.0039 -64.9414 Z M 64.4531 -3.90625 C 81.8359 -3.90625 96.0449 -17.9688 96.0449 -35.498 C 96.0449 -52.9785 81.8359 -67.0898 64.4531 -67.0898 C 47.0215 -67.0898 32.8125 -52.9785 32.8125 -35.498 C 32.8125 -17.9688 47.0215 -3.90625 64.4531 -3.90625 Z M 64.4531 -59.668 C 77.7344 -59.668 88.623 -48.8281 88.623 -35.498 C 88.623 -22.168 77.7344 -11.377 64.4531 -11.377 C 58.8379 -11.377 53.6621 -13.2812 49.5605 -16.4551 L 66.9434 -33.8379 C 68.3105 -35.2539 68.3594 -37.3047 66.9434 -38.7207 C 65.7227 -39.9902 63.4277 -39.9902 62.1582 -38.7207 L 44.8242 -21.3867 C 41.9434 -25.3418 40.2344 -30.2246 40.2344 -35.498 C 40.2344 -48.8281 51.123 -59.668 64.4531 -59.668 Z M 114.404 -29.7852 C 117.627 -29.7852 120.117 -32.373 120.117 -35.498 C 120.117 -38.7207 117.578 -41.2109 114.404 -41.2109 C 111.23 -41.2109 108.691 -38.6719 108.691 -35.498 C 108.691 -32.3242 111.279 -29.7852 114.404 -29.7852 Z M 14.4531 -29.7852 C 17.627 -29.7852 20.166 -32.373 20.166 -35.498 C 20.166 -38.7207 17.5781 -41.2109 14.4531 -41.2109 C 11.2305 -41.2109 8.74023 -38.6719 8.74023 -35.498 C 8.74023 -32.3242 11.2793 -29.7852 14.4531 -29.7852 Z M 29.0039 5.41992 C 32.1777 5.41992 34.7168 2.88086 34.7168 -0.292969 C 34.7168 -3.4668 32.1289 -6.00586 29.0039 -6.00586 C 25.7812 -6.00586 23.291 -3.41797 23.291 -0.292969 C 23.291 2.92969 25.8301 5.41992 29.0039 5.41992 Z M 99.7559 5.46875 C 102.979 5.46875 105.469 2.92969 105.469 -0.244141 C 105.469 -3.41797 102.93 -5.95703 99.7559 -5.95703 C 96.582 -5.95703 94.043 -3.36914 94.043 -0.244141 C 94.043 2.97852 96.6309 5.46875 99.7559 5.46875 Z"/>
  </g>
  <g id="Medium-M" transform="matrix(1 0 0 1 1681.42 1126)">
   <path d="M 65.1367 -79.6387 C 68.5059 -79.6387 71.2402 -82.4219 71.2402 -85.791 C 71.2402 -89.1602 68.5059 -91.8945 65.1367 -91.8945 C 61.6699 -91.8945 59.0332 -89.1602 59.0332 -85.791 C 59.0332 -82.4219 61.8164 -79.6387 65.1367 -79.6387 Z M 100.684 -64.8926 C 104.004 -64.8926 106.787 -67.6758 106.787 -70.9961 C 106.787 -74.4629 104.102 -77.0996 100.684 -77.0996 C 97.2656 -77.0996 94.5801 -74.3652 94.5801 -70.9961 C 94.5801 -67.627 97.3145 -64.8926 100.684 -64.8926 Z M 29.541 -64.7949 C 32.9102 -64.7949 35.6445 -67.5781 35.6445 -70.8984 C 35.6445 -74.3164 32.9102 -77.002 29.541 -77.002 C 26.123 -77.002 23.4375 -74.3164 23.4375 -70.8984 C 23.4375 -67.5781 26.2207 -64.7949 29.541 -64.7949 Z M 65.1367 -3.125 C 82.9102 -3.125 97.4609 -17.627 97.4609 -35.498 C 97.4609 -53.3203 82.9102 -67.8223 65.1367 -67.8223 C 47.3145 -67.8223 32.8125 -53.3203 32.8125 -35.498 C 32.8125 -17.627 47.3145 -3.125 65.1367 -3.125 Z M 65.1367 -58.9355 C 78.0273 -58.9355 88.5742 -48.3887 88.5742 -35.498 C 88.5742 -22.6074 78.0273 -12.0605 65.1367 -12.0605 C 59.9121 -12.0605 55.0293 -13.8184 51.123 -16.748 L 68.0664 -33.3008 C 69.6777 -34.8633 69.6777 -37.3047 68.0664 -38.9648 C 66.6504 -40.4297 63.9648 -40.4785 62.5 -38.9648 L 45.9961 -21.9727 C 43.3105 -25.8301 41.6992 -30.4688 41.6992 -35.498 C 41.6992 -48.3887 52.2949 -58.9355 65.1367 -58.9355 Z M 115.43 -29.3945 C 118.896 -29.3945 121.533 -32.0801 121.533 -35.498 C 121.533 -38.8672 118.75 -41.6016 115.43 -41.6016 C 112.061 -41.6016 109.326 -38.8184 109.326 -35.498 C 109.326 -32.0801 112.061 -29.3945 115.43 -29.3945 Z M 14.8438 -29.3945 C 18.1641 -29.3945 20.9473 -32.1777 20.9473 -35.498 C 20.9473 -38.9648 18.2617 -41.6016 14.8438 -41.6016 C 11.4258 -41.6016 8.74023 -38.8672 8.74023 -35.498 C 8.74023 -32.1289 11.5234 -29.3945 14.8438 -29.3945 Z M 29.541 6.05469 C 32.959 6.05469 35.6445 3.32031 35.6445 -0.0488281 C 35.6445 -3.41797 32.9102 -6.15234 29.541 -6.15234 C 26.2207 -6.15234 23.4375 -3.32031 23.4375 -0.0488281 C 23.4375 3.41797 26.123 6.05469 29.541 6.05469 Z M 100.635 6.10352 C 104.102 6.10352 106.738 3.41797 106.738 0 C 106.738 -3.32031 103.955 -6.10352 100.635 -6.10352 C 97.2656 -6.10352 94.5312 -3.32031 94.5312 0 C 94.5312 3.41797 97.2656 6.10352 100.635 6.10352 Z"/>
  </g>
  <g id="Semibold-M" transform="matrix(1 0 0 1 1977.59 1126)">
   <path d="M 65.6738 -79.5898 C 69.1895 -79.5898 72.0703 -82.5195 72.0703 -85.9863 C 72.0703 -89.5508 69.1895 -92.3828 65.6738 -92.3828 C 62.0117 -92.3828 59.2773 -89.5996 59.2773 -85.9863 C 59.2773 -82.5195 62.207 -79.5898 65.6738 -79.5898 Z M 101.318 -64.7461 C 104.785 -64.7461 107.715 -67.7246 107.715 -71.1426 C 107.715 -74.8047 104.932 -77.5879 101.318 -77.5879 C 97.7539 -77.5879 94.9219 -74.707 94.9219 -71.1426 C 94.9219 -67.627 97.8516 -64.7461 101.318 -64.7461 Z M 29.9805 -64.6973 C 33.4961 -64.6973 36.377 -67.627 36.377 -71.0938 C 36.377 -74.6582 33.4961 -77.4902 29.9805 -77.4902 C 26.3184 -77.4902 23.584 -74.707 23.584 -71.0938 C 23.584 -67.627 26.5625 -64.6973 29.9805 -64.6973 Z M 65.6738 -2.58789 C 83.7402 -2.58789 98.584 -17.334 98.584 -35.498 C 98.584 -53.6133 83.7402 -68.3594 65.6738 -68.3594 C 47.5586 -68.3594 32.7637 -53.6133 32.7637 -35.498 C 32.7637 -17.334 47.5586 -2.58789 65.6738 -2.58789 Z M 65.6738 -58.3496 C 78.2227 -58.3496 88.5742 -48.0469 88.5742 -35.498 C 88.5742 -22.9492 78.2227 -12.5977 65.6738 -12.5977 C 60.7422 -12.5977 56.1035 -14.209 52.3438 -16.9434 L 68.8965 -32.8613 C 70.752 -34.5703 70.7031 -37.3047 68.8965 -39.1113 C 67.334 -40.7227 64.4043 -40.8203 62.793 -39.1113 L 46.9238 -22.4609 C 44.3359 -26.1719 42.7734 -30.6641 42.7734 -35.498 C 42.7734 -48.0469 53.1738 -58.3496 65.6738 -58.3496 Z M 116.211 -29.1016 C 119.873 -29.1016 122.607 -31.8848 122.607 -35.498 C 122.607 -38.9648 119.629 -41.8945 116.211 -41.8945 C 112.695 -41.8945 109.766 -38.9648 109.766 -35.498 C 109.766 -31.9336 112.646 -29.1016 116.211 -29.1016 Z M 15.1367 -29.1016 C 18.6035 -29.1016 21.5332 -32.0312 21.5332 -35.498 C 21.5332 -39.1602 18.75 -41.8945 15.1367 -41.8945 C 11.5723 -41.8945 8.74023 -39.0137 8.74023 -35.498 C 8.74023 -31.9824 11.6699 -29.1016 15.1367 -29.1016 Z M 29.9805 6.54297 C 33.5449 6.54297 36.377 3.71094 36.377 0.146484 C 36.377 -3.36914 33.4473 -6.25 29.9805 -6.25 C 26.5137 -6.25 23.584 -3.27148 23.584 0.146484 C 23.584 3.80859 26.3672 6.54297 29.9805 6.54297 Z M 101.27 6.5918 C 104.932 6.5918 107.715 3.80859 107.715 0.195312 C 107.715 -3.27148 104.736 -6.20117 101.27 -6.20117 C 97.7539 -6.20117 94.873 -3.27148 94.873 0.195312 C 94.873 3.75977 97.7539 6.5918 101.27 6.5918 Z"/>
  </g>
  <g id="Bold-M" transform="matrix(1 0 0 1 2273.6 1126)">
   <path d="M 66.3574 -79.4922 C 70.0684 -79.4922 73.1934 -82.6172 73.1934 -86.2793 C 73.1934 -90.0879 70.1172 -93.0664 66.3574 -93.0664 C 62.4512 -93.0664 59.5703 -90.1855 59.5703 -86.2793 C 59.5703 -82.666 62.7441 -79.4922 66.3574 -79.4922 Z M 102.197 -64.5996 C 105.811 -64.5996 108.984 -67.7734 108.984 -71.3867 C 108.984 -75.293 106.055 -78.1738 102.197 -78.1738 C 98.3887 -78.1738 95.3613 -75.1465 95.3613 -71.3867 C 95.3613 -67.6758 98.4863 -64.5996 102.197 -64.5996 Z M 30.5664 -64.5508 C 34.2285 -64.5508 37.3535 -67.6758 37.3535 -71.3379 C 37.3535 -75.1465 34.3262 -78.125 30.5664 -78.125 C 26.6113 -78.125 23.7305 -75.2441 23.7305 -71.3379 C 23.7305 -67.7246 26.9531 -64.5508 30.5664 -64.5508 Z M 66.3574 -1.80664 C 84.8633 -1.80664 100 -16.9434 100 -35.4492 C 100 -53.9551 84.8633 -69.0918 66.3574 -69.0918 C 47.9004 -69.0918 32.7148 -53.9551 32.7148 -35.4492 C 32.7148 -16.9434 47.9004 -1.80664 66.3574 -1.80664 Z M 66.3574 -57.5684 C 78.4668 -57.5684 88.5742 -47.6074 88.5742 -35.4492 C 88.5742 -23.3398 78.4668 -13.3301 66.3574 -13.3301 C 61.8164 -13.3301 57.5195 -14.7461 53.9551 -17.2363 L 70.0684 -32.3242 C 72.1191 -34.1797 72.0703 -37.3047 70.0684 -39.3066 C 68.2617 -41.1621 64.9414 -41.2598 63.1836 -39.3066 L 48.0957 -23.0957 C 45.7031 -26.6602 44.2383 -30.9082 44.2383 -35.4492 C 44.2383 -47.6074 54.2969 -57.5684 66.3574 -57.5684 Z M 117.236 -28.6621 C 121.143 -28.6621 124.023 -31.5918 124.023 -35.498 C 124.023 -39.1113 120.801 -42.2852 117.236 -42.2852 C 113.525 -42.2852 110.4 -39.1602 110.4 -35.498 C 110.4 -31.6895 113.428 -28.6621 117.236 -28.6621 Z M 15.5273 -28.6621 C 19.1406 -28.6621 22.3145 -31.8848 22.3145 -35.498 C 22.3145 -39.4043 19.4336 -42.2852 15.5273 -42.2852 C 11.7188 -42.2852 8.74023 -39.2578 8.74023 -35.498 C 8.74023 -31.7871 11.8652 -28.6621 15.5273 -28.6621 Z M 30.5664 7.22656 C 34.3262 7.22656 37.3535 4.15039 37.3535 0.390625 C 37.3535 -3.27148 34.2285 -6.39648 30.5664 -6.39648 C 26.9043 -6.39648 23.7305 -3.17383 23.7305 0.390625 C 23.7305 4.3457 26.6602 7.22656 30.5664 7.22656 Z M 102.148 7.22656 C 106.055 7.22656 108.984 4.3457 108.984 0.439453 C 108.984 -3.17383 105.762 -6.39648 102.148 -6.39648 C 98.4863 -6.39648 95.3613 -3.22266 95.3613 0.439453 C 95.3613 4.19922 98.3887 7.22656 102.148 7.22656 Z"/>
  </g>
  <g id="Heavy-M" transform="matrix(1 0 0 1 2569.28 1126)">
   <path d="M 67.3828 -79.3457 C 71.3379 -79.3457 74.7559 -82.7637 74.7559 -86.7188 C 74.7559 -90.8203 71.4844 -94.0918 67.3828 -94.0918 C 63.0859 -94.0918 60.0098 -90.9668 60.0098 -86.7188 C 60.0098 -82.8613 63.5742 -79.3457 67.3828 -79.3457 Z M 103.418 -64.3066 C 107.275 -64.3066 110.791 -67.8711 110.791 -71.6797 C 110.791 -76.0254 107.715 -79.1016 103.418 -79.1016 C 99.3164 -79.1016 96.0449 -75.7812 96.0449 -71.6797 C 96.0449 -67.7246 99.4629 -64.3066 103.418 -64.3066 Z M 31.3477 -64.3066 C 35.3027 -64.3066 38.7207 -67.7246 38.7207 -71.6797 C 38.7207 -75.7812 35.4492 -79.0527 31.3477 -79.0527 C 27.0508 -79.0527 23.9746 -75.9766 23.9746 -71.6797 C 23.9746 -67.8223 27.4902 -64.3066 31.3477 -64.3066 Z M 67.3828 -0.732422 C 86.4258 -0.732422 102.1 -16.4062 102.1 -35.4492 C 102.1 -54.4922 86.4258 -70.166 67.3828 -70.166 C 48.3398 -70.166 32.666 -54.4922 32.666 -35.4492 C 32.666 -16.4062 48.3398 -0.732422 67.3828 -0.732422 Z M 67.3828 -56.4941 C 78.9062 -56.4941 88.5254 -46.9238 88.5254 -35.4492 C 88.5254 -23.9746 78.9062 -14.3555 67.3828 -14.3555 C 63.3789 -14.3555 59.5703 -15.5273 56.2988 -17.627 L 71.6797 -31.4941 C 74.1211 -33.6426 74.0234 -37.2559 71.6797 -39.5996 C 69.6289 -41.748 65.7227 -41.9434 63.6719 -39.5996 L 49.8047 -24.0234 C 47.6562 -27.3438 46.3867 -31.2988 46.3867 -35.4492 C 46.3867 -46.9238 56.0059 -56.4941 67.3828 -56.4941 Z M 118.701 -28.0762 C 122.998 -28.0762 126.074 -31.1523 126.074 -35.4492 C 126.074 -39.3066 122.559 -42.8223 118.701 -42.8223 C 114.746 -42.8223 111.328 -39.4043 111.328 -35.4492 C 111.328 -31.3477 114.6 -28.0762 118.701 -28.0762 Z M 16.1133 -28.0762 C 19.9707 -28.0762 23.4863 -31.5918 23.4863 -35.4492 C 23.4863 -39.7461 20.4102 -42.8223 16.1133 -42.8223 C 12.0117 -42.8223 8.74023 -39.5508 8.74023 -35.4492 C 8.74023 -31.4941 12.1582 -28.0762 16.1133 -28.0762 Z M 31.3477 8.1543 C 35.4492 8.1543 38.7207 4.88281 38.7207 0.78125 C 38.7207 -3.17383 35.3027 -6.5918 31.3477 -6.5918 C 27.4902 -6.5918 23.9746 -3.07617 23.9746 0.78125 C 23.9746 5.07812 27.0508 8.1543 31.3477 8.1543 Z M 103.418 8.1543 C 107.715 8.1543 110.791 5.07812 110.791 0.78125 C 110.791 -3.07617 107.275 -6.5918 103.418 -6.5918 C 99.4629 -6.5918 96.0449 -3.17383 96.0449 0.78125 C 96.0449 4.88281 99.3164 8.1543 103.418 8.1543 Z"/>
  </g>
  <g id="Black-M" transform="matrix(1 0 0 1 2865.09 1126)">
   <path d="M 68.3105 -79.1992 C 72.5098 -79.1992 76.2207 -82.8613 76.2207 -87.0605 C 76.2207 -91.4551 72.7051 -94.9707 68.3105 -94.9707 C 63.6719 -94.9707 60.4004 -91.6992 60.4004 -87.0605 C 60.4004 -83.0078 64.2578 -79.1992 68.3105 -79.1992 Z M 32.0801 -64.1113 C 36.2793 -64.1113 39.9902 -67.8223 39.9902 -71.9727 C 39.9902 -76.3672 36.4746 -79.8828 32.0801 -79.8828 C 27.4414 -79.8828 24.2188 -76.6113 24.2188 -71.9727 C 24.2188 -67.9199 28.0273 -64.1113 32.0801 -64.1113 Z M 104.541 -64.1113 C 108.594 -64.1113 112.451 -67.9199 112.451 -71.9727 C 112.451 -76.6113 109.18 -79.8828 104.541 -79.8828 C 100.146 -79.8828 96.6309 -76.3672 96.6309 -71.9727 C 96.6309 -67.8223 100.342 -64.1113 104.541 -64.1113 Z M 68.3105 0.244141 C 87.8906 0.244141 104.004 -15.918 104.004 -35.4492 C 104.004 -54.9805 87.8906 -71.1426 68.3105 -71.1426 C 48.7793 -71.1426 32.666 -54.9805 32.666 -35.4492 C 32.666 -15.918 48.7793 0.244141 68.3105 0.244141 Z M 68.3105 -55.5176 C 79.248 -55.5176 88.4766 -46.3867 88.4766 -35.4492 C 88.4766 -24.5117 79.248 -15.2832 68.3105 -15.2832 C 64.7949 -15.2832 61.377 -16.2598 58.4473 -17.9688 L 73.1445 -30.7617 C 75.9277 -33.1543 75.7812 -37.2559 73.1445 -39.8926 C 70.8496 -42.2852 66.4551 -42.5293 64.1602 -39.8926 L 51.3184 -24.9023 C 49.4141 -27.9785 48.2422 -31.6406 48.2422 -35.4492 C 48.2422 -46.3867 57.5195 -55.5176 68.3105 -55.5176 Z M 120.02 -27.5391 C 124.658 -27.5391 127.881 -30.8105 127.881 -35.4492 C 127.881 -39.502 124.072 -43.3594 120.02 -43.3594 C 115.82 -43.3594 112.109 -39.6484 112.109 -35.4492 C 112.109 -31.0547 115.625 -27.5391 120.02 -27.5391 Z M 16.6016 -27.5391 C 20.7031 -27.5391 24.5117 -31.3965 24.5117 -35.4492 C 24.5117 -40.0879 21.2402 -43.3594 16.6016 -43.3594 C 12.2559 -43.3594 8.74023 -39.8438 8.74023 -35.4492 C 8.74023 -31.25 12.4023 -27.5391 16.6016 -27.5391 Z M 104.541 8.98438 C 109.18 8.98438 112.451 5.76172 112.451 1.12305 C 112.451 -2.97852 108.594 -6.78711 104.541 -6.78711 C 100.342 -6.78711 96.6309 -3.07617 96.6309 1.12305 C 96.6309 5.46875 100.146 8.98438 104.541 8.98438 Z M 32.0801 8.98438 C 36.4746 8.98438 39.9902 5.46875 39.9902 1.12305 C 39.9902 -3.07617 36.2793 -6.78711 32.0801 -6.78711 C 28.0273 -6.78711 24.2188 -2.97852 24.2188 1.12305 C 24.2188 5.76172 27.4414 8.98438 32.0801 8.98438 Z"/>
  </g>
  <g id="Ultralight-L" transform="matrix(1 0 0 1 481.415 1556)">
   <path d="M 78.3203 -93.0176 C 80.9082 -93.0176 83.0566 -95.2148 83.0566 -97.8027 C 83.0566 -100.391 80.9082 -102.539 78.3203 -102.539 C 75.6836 -102.539 73.5352 -100.391 73.5352 -97.8027 C 73.5352 -95.2148 75.6836 -93.0176 78.3203 -93.0176 Z M 34.3262 -74.707 C 36.9141 -74.707 39.0625 -76.8555 39.0625 -79.4434 C 39.0625 -82.0312 36.9141 -84.2285 34.3262 -84.2285 C 31.6895 -84.2285 29.541 -82.0312 29.541 -79.4434 C 29.541 -76.8555 31.6895 -74.707 34.3262 -74.707 Z M 122.314 -74.6582 C 124.902 -74.6582 127.051 -76.8066 127.051 -79.4434 C 127.051 -82.0312 124.902 -84.1797 122.314 -84.1797 C 119.727 -84.1797 117.578 -82.0312 117.578 -79.4434 C 117.578 -76.8555 119.727 -74.6582 122.314 -74.6582 Z M 78.3203 2.7832 C 99.3164 2.7832 116.602 -14.502 116.602 -35.498 C 116.602 -56.543 99.3164 -73.8281 78.3203 -73.8281 C 57.2754 -73.8281 39.9902 -56.543 39.9902 -35.498 C 39.9902 -14.502 57.2754 2.7832 78.3203 2.7832 Z M 78.3203 -71.1914 C 97.9004 -71.1914 114.014 -55.0781 114.014 -35.498 C 114.014 -15.918 97.9004 0.195312 78.3203 0.195312 C 68.6523 0.195312 59.8633 -3.71094 53.418 -10.0098 L 80.0293 -36.7676 C 80.5664 -37.3047 80.4688 -38.1836 80.0293 -38.7207 C 79.4922 -39.1602 78.6133 -39.2578 78.0762 -38.7207 L 51.5137 -12.0117 C 45.9961 -18.3105 42.627 -26.5625 42.627 -35.498 C 42.627 -55.0781 58.6914 -71.1914 78.3203 -71.1914 Z M 140.625 -30.8594 C 143.213 -30.8594 145.361 -33.0078 145.361 -35.5957 C 145.361 -38.1836 143.213 -40.332 140.625 -40.332 C 137.988 -40.332 135.84 -38.1836 135.84 -35.5957 C 135.84 -33.0078 137.988 -30.8594 140.625 -30.8594 Z M 16.0156 -30.8594 C 18.6035 -30.8594 20.752 -33.0078 20.752 -35.5957 C 20.752 -38.1836 18.6035 -40.332 16.0156 -40.332 C 13.4277 -40.332 11.2793 -38.1836 11.2793 -35.5957 C 11.2793 -33.0078 13.4277 -30.8594 16.0156 -30.8594 Z M 122.314 13.0859 C 124.902 13.0859 127.1 10.9375 127.1 8.34961 C 127.1 5.76172 124.951 3.56445 122.314 3.56445 C 119.727 3.56445 117.578 5.71289 117.578 8.34961 C 117.578 10.9375 119.727 13.0859 122.314 13.0859 Z M 34.3262 13.0859 C 36.9141 13.0859 39.0625 10.9375 39.0625 8.34961 C 39.0625 5.76172 36.9141 3.61328 34.3262 3.61328 C 31.6895 3.61328 29.541 5.76172 29.541 8.34961 C 29.541 10.9375 31.6895 13.0859 34.3262 13.0859 Z"/>
  </g>
  <g id="Thin-L" transform="matrix(1 0 0 1 777.247 1556)">
   <path d="M 79.1992 -92.9688 C 82.0801 -92.9688 84.4238 -95.3613 84.4238 -98.1934 C 84.4238 -101.074 82.0312 -103.467 79.1992 -103.467 C 76.3184 -103.467 73.9746 -101.074 73.9746 -98.1934 C 73.9746 -95.3125 76.3184 -92.9688 79.1992 -92.9688 Z M 123.486 -74.5117 C 126.367 -74.5117 128.711 -76.8555 128.711 -79.7363 C 128.711 -82.6172 126.367 -84.9609 123.486 -84.9609 C 120.605 -84.9609 118.262 -82.6172 118.262 -79.7363 C 118.262 -76.8555 120.605 -74.5117 123.486 -74.5117 Z M 34.8633 -74.5117 C 37.7441 -74.5117 40.0879 -76.8555 40.0879 -79.7363 C 40.0879 -82.6172 37.7441 -84.9609 34.8633 -84.9609 C 31.9824 -84.9609 29.6387 -82.6172 29.6387 -79.7363 C 29.6387 -76.8555 31.9824 -74.5117 34.8633 -74.5117 Z M 79.1992 3.22266 C 100.488 3.22266 117.92 -14.209 117.92 -35.498 C 117.92 -56.7871 100.488 -74.2676 79.1992 -74.2676 C 57.9102 -74.2676 40.4297 -56.7871 40.4297 -35.498 C 40.4297 -14.209 57.9102 3.22266 79.1992 3.22266 Z M 79.1992 -70.4102 C 98.3398 -70.4102 114.062 -54.6875 114.062 -35.498 C 114.062 -16.3574 98.3398 -0.634766 79.1992 -0.634766 C 69.9707 -0.634766 61.5723 -4.24805 55.3223 -10.1562 L 81.1523 -36.1816 C 81.9336 -36.9141 81.8848 -38.1348 81.1523 -38.916 C 80.4199 -39.5996 79.1992 -39.6484 78.4668 -38.916 L 52.6367 -12.9395 C 47.4609 -19.043 44.2871 -26.9531 44.2871 -35.498 C 44.2871 -54.6875 60.0098 -70.4102 79.1992 -70.4102 Z M 141.895 -30.3711 C 144.775 -30.3711 147.119 -32.7148 147.119 -35.5957 C 147.119 -38.4766 144.727 -40.8203 141.895 -40.8203 C 139.014 -40.8203 136.67 -38.4766 136.67 -35.5957 C 136.67 -32.7148 139.014 -30.3711 141.895 -30.3711 Z M 16.5039 -30.3711 C 19.3848 -30.3711 21.7285 -32.7148 21.7285 -35.5957 C 21.7285 -38.4766 19.3848 -40.8203 16.5039 -40.8203 C 13.623 -40.8203 11.2793 -38.4766 11.2793 -35.5957 C 11.2793 -32.7148 13.623 -30.3711 16.5039 -30.3711 Z M 34.8633 13.8672 C 37.7441 13.8672 40.0879 11.4746 40.0879 8.64258 C 40.0879 5.76172 37.7441 3.36914 34.8633 3.36914 C 31.9824 3.36914 29.6387 5.76172 29.6387 8.64258 C 29.6387 11.4746 31.9824 13.8672 34.8633 13.8672 Z M 123.486 13.8672 C 126.367 13.8672 128.711 11.4746 128.711 8.64258 C 128.711 5.76172 126.367 3.41797 123.486 3.41797 C 120.605 3.41797 118.262 5.76172 118.262 8.64258 C 118.262 11.5234 120.605 13.8672 123.486 13.8672 Z"/>
  </g>
  <g id="Light-L" transform="matrix(1 0 0 1 1072.25 1556)">
   <path d="M 80.9082 -92.8711 C 84.3262 -92.8711 87.0605 -95.6543 87.0605 -99.0234 C 87.0605 -102.441 84.2773 -105.176 80.9082 -105.176 C 77.4902 -105.176 74.7559 -102.393 74.7559 -99.0234 C 74.7559 -95.6055 77.4902 -92.8711 80.9082 -92.8711 Z M 125.781 -74.1699 C 129.199 -74.1699 131.934 -76.9531 131.934 -80.3223 C 131.934 -83.7402 129.15 -86.4746 125.781 -86.4746 C 122.363 -86.4746 119.629 -83.6914 119.629 -80.3223 C 119.629 -76.9043 122.412 -74.1699 125.781 -74.1699 Z M 35.9863 -74.1211 C 39.4043 -74.1211 42.1387 -76.8555 42.1387 -80.2734 C 42.1387 -83.6914 39.3555 -86.4258 35.9863 -86.4258 C 32.5684 -86.4258 29.834 -83.6426 29.834 -80.2734 C 29.834 -76.8555 32.5684 -74.1211 35.9863 -74.1211 Z M 80.9082 4.10156 C 102.686 4.10156 120.508 -13.6719 120.508 -35.5469 C 120.508 -57.373 102.686 -75.1953 80.9082 -75.1953 C 59.082 -75.1953 41.2598 -57.373 41.2598 -35.5469 C 41.2598 -13.6719 59.082 4.10156 80.9082 4.10156 Z M 80.9082 -68.8477 C 99.2188 -68.8477 114.209 -53.8574 114.209 -35.5469 C 114.209 -17.2363 99.2188 -2.29492 80.9082 -2.29492 C 72.5586 -2.29492 64.8926 -5.37109 59.0332 -10.498 L 83.4473 -35.0098 C 84.6191 -36.1816 84.6191 -38.0371 83.4473 -39.2578 C 82.3242 -40.3809 80.3223 -40.4297 79.1992 -39.2578 L 54.8828 -14.8438 C 50.3418 -20.5566 47.6074 -27.7344 47.6074 -35.5469 C 47.6074 -53.8574 62.5977 -68.8477 80.9082 -68.8477 Z M 144.385 -29.4434 C 147.803 -29.4434 150.537 -32.2266 150.537 -35.5957 C 150.537 -39.0137 147.754 -41.748 144.385 -41.748 C 140.967 -41.748 138.232 -38.9648 138.232 -35.5957 C 138.232 -32.1777 140.967 -29.4434 144.385 -29.4434 Z M 17.4316 -29.4434 C 20.8496 -29.4434 23.584 -32.2266 23.584 -35.5957 C 23.584 -39.0137 20.8008 -41.748 17.4316 -41.748 C 14.0137 -41.748 11.2793 -38.9648 11.2793 -35.5957 C 11.2793 -32.1777 14.0137 -29.4434 17.4316 -29.4434 Z M 35.9863 15.332 C 39.4043 15.332 42.1387 12.5488 42.1387 9.17969 C 42.1387 5.76172 39.3555 2.97852 35.9863 2.97852 C 32.5684 2.97852 29.834 5.76172 29.834 9.17969 C 29.834 12.5977 32.5684 15.332 35.9863 15.332 Z M 125.781 15.332 C 129.15 15.332 131.934 12.5977 131.934 9.17969 C 131.934 5.76172 129.15 3.02734 125.781 3.02734 C 122.363 3.02734 119.58 5.81055 119.58 9.17969 C 119.58 12.5977 122.363 15.332 125.781 15.332 Z"/>
  </g>
  <g id="Regular-L" transform="matrix(1 0 0 1 1367.67 1556)">
   <path d="M 82.1777 -92.7734 C 85.9863 -92.7734 89.0625 -95.8496 89.0625 -99.6094 C 89.0625 -103.467 85.9375 -106.494 82.1777 -106.494 C 78.3691 -106.494 75.3418 -103.418 75.3418 -99.6094 C 75.3418 -95.8008 78.418 -92.7734 82.1777 -92.7734 Z M 127.539 -73.9258 C 131.348 -73.9258 134.375 -77.002 134.375 -80.7617 C 134.375 -84.5703 131.299 -87.6465 127.539 -87.6465 C 123.682 -87.6465 120.654 -84.5215 120.654 -80.7617 C 120.654 -76.9531 123.73 -73.9258 127.539 -73.9258 Z M 36.8164 -73.8281 C 40.625 -73.8281 43.6523 -76.9043 43.6523 -80.6641 C 43.6523 -84.4727 40.5762 -87.5488 36.8164 -87.5488 C 32.959 -87.5488 29.9316 -84.4238 29.9316 -80.6641 C 29.9316 -76.8555 33.0078 -73.8281 36.8164 -73.8281 Z M 82.1777 4.73633 C 104.395 4.73633 122.51 -13.2812 122.51 -35.5469 C 122.51 -57.8125 104.395 -75.8789 82.1777 -75.8789 C 60.0098 -75.8789 41.8945 -57.8125 41.8945 -35.5469 C 41.8945 -13.2812 60.0098 4.73633 82.1777 4.73633 Z M 82.1777 -67.6758 C 99.8535 -67.6758 114.307 -53.2227 114.307 -35.5469 C 114.307 -17.9199 99.8535 -3.51562 82.1777 -3.51562 C 74.5117 -3.51562 67.4316 -6.25 61.8652 -10.791 L 85.1074 -34.082 C 86.6699 -35.6445 86.6699 -37.9883 85.1074 -39.5508 C 83.7402 -40.9668 81.2012 -40.9668 79.7852 -39.5508 L 56.5918 -16.3086 C 52.4902 -21.6797 50.0977 -28.3203 50.0977 -35.5469 C 50.0977 -53.2227 64.5508 -67.6758 82.1777 -67.6758 Z M 146.24 -28.7109 C 150.098 -28.7109 153.125 -31.8359 153.125 -35.5957 C 153.125 -39.4043 150.049 -42.4316 146.24 -42.4316 C 142.432 -42.4316 139.404 -39.3555 139.404 -35.5957 C 139.404 -31.7871 142.48 -28.7109 146.24 -28.7109 Z M 18.1152 -28.7109 C 21.9238 -28.7109 25 -31.8359 25 -35.5957 C 25 -39.4043 21.875 -42.4316 18.1152 -42.4316 C 14.3066 -42.4316 11.2793 -39.3555 11.2793 -35.5957 C 11.2793 -31.7871 14.3555 -28.7109 18.1152 -28.7109 Z M 36.8164 16.4062 C 40.625 16.4062 43.6523 13.3301 43.6523 9.57031 C 43.6523 5.76172 40.5762 2.68555 36.8164 2.68555 C 32.959 2.68555 29.9316 5.81055 29.9316 9.57031 C 29.9316 13.3789 33.0078 16.4062 36.8164 16.4062 Z M 127.49 16.4551 C 131.299 16.4551 134.326 13.3789 134.326 9.61914 C 134.326 5.81055 131.25 2.73438 127.49 2.73438 C 123.633 2.73438 120.605 5.85938 120.605 9.61914 C 120.605 13.4277 123.682 16.4551 127.49 16.4551 Z"/>
  </g>
  <g id="Medium-L" transform="matrix(1 0 0 1 1663.5 1556)">
   <path d="M 83.0566 -92.6758 C 87.1094 -92.6758 90.4297 -95.9961 90.4297 -100 C 90.4297 -104.102 87.1094 -107.373 83.0566 -107.373 C 78.9062 -107.373 75.7324 -104.102 75.7324 -100 C 75.7324 -95.9473 79.0527 -92.6758 83.0566 -92.6758 Z M 128.613 -73.6816 C 132.666 -73.6816 135.986 -77.0508 135.986 -81.0547 C 135.986 -85.2051 132.715 -88.3789 128.613 -88.3789 C 124.512 -88.3789 121.289 -85.1074 121.289 -81.0547 C 121.289 -77.002 124.609 -73.6816 128.613 -73.6816 Z M 37.4512 -73.6328 C 41.5039 -73.6328 44.8242 -76.9531 44.8242 -80.957 C 44.8242 -85.0586 41.5039 -88.3301 37.4512 -88.3301 C 33.3496 -88.3301 30.127 -85.0586 30.127 -80.957 C 30.127 -76.9043 33.4473 -73.6328 37.4512 -73.6328 Z M 83.0566 5.51758 C 105.664 5.51758 124.17 -12.8418 124.17 -35.5469 C 124.17 -58.2031 105.664 -76.6602 83.0566 -76.6602 C 60.4492 -76.6602 41.9922 -58.2031 41.9922 -35.5469 C 41.9922 -12.8418 60.4492 5.51758 83.0566 5.51758 Z M 83.0566 -66.748 C 100.195 -66.748 114.258 -52.6855 114.258 -35.5469 C 114.258 -18.4082 100.195 -4.39453 83.0566 -4.39453 C 75.8301 -4.39453 69.1406 -6.88477 63.8184 -11.084 L 86.4746 -33.4473 C 88.2812 -35.2051 88.2812 -37.9395 86.4746 -39.7949 C 84.8633 -41.4551 81.8848 -41.5039 80.2246 -39.7949 L 57.959 -17.0898 C 54.1504 -22.2656 51.8555 -28.6621 51.8555 -35.5469 C 51.8555 -52.6855 65.9668 -66.748 83.0566 -66.748 Z M 147.51 -28.2227 C 151.66 -28.2227 154.883 -31.4941 154.883 -35.5957 C 154.883 -39.5996 151.514 -42.9199 147.51 -42.9199 C 143.457 -42.9199 140.186 -39.5996 140.186 -35.5957 C 140.186 -31.4941 143.457 -28.2227 147.51 -28.2227 Z M 18.6035 -28.2227 C 22.6562 -28.2227 25.9766 -31.5918 25.9766 -35.5957 C 25.9766 -39.6973 22.7051 -42.9199 18.6035 -42.9199 C 14.502 -42.9199 11.2793 -39.6484 11.2793 -35.5957 C 11.2793 -31.543 14.5996 -28.2227 18.6035 -28.2227 Z M 37.4512 17.2363 C 41.5527 17.2363 44.8242 13.916 44.8242 9.86328 C 44.8242 5.81055 41.5039 2.53906 37.4512 2.53906 C 33.4473 2.53906 30.127 5.85938 30.127 9.86328 C 30.127 14.0137 33.3984 17.2363 37.4512 17.2363 Z M 128.564 17.2363 C 132.715 17.2363 135.938 14.0137 135.938 9.91211 C 135.938 5.85938 132.568 2.53906 128.564 2.53906 C 124.512 2.53906 121.24 5.9082 121.24 9.91211 C 121.24 14.0137 124.512 17.2363 128.564 17.2363 Z"/>
  </g>
  <g id="Semibold-L" transform="matrix(1 0 0 1 1959.53 1556)">
   <path d="M 83.7402 -92.5781 C 87.9883 -92.5781 91.4551 -96.0938 91.4551 -100.293 C 91.4551 -104.59 87.9883 -108.008 83.7402 -108.008 C 79.3457 -108.008 76.0254 -104.639 76.0254 -100.293 C 76.0254 -96.0938 79.5898 -92.5781 83.7402 -92.5781 Z M 129.443 -73.5352 C 133.643 -73.5352 137.158 -77.0996 137.158 -81.25 C 137.158 -85.6445 133.789 -88.9648 129.443 -88.9648 C 125.146 -88.9648 121.729 -85.498 121.729 -81.25 C 121.729 -77.002 125.244 -73.5352 129.443 -73.5352 Z M 37.9883 -73.4375 C 42.2363 -73.4375 45.7031 -77.002 45.7031 -81.2012 C 45.7031 -85.498 42.2363 -88.916 37.9883 -88.916 C 33.5938 -88.916 30.2734 -85.498 30.2734 -81.2012 C 30.2734 -76.9531 33.7891 -73.4375 37.9883 -73.4375 Z M 83.7402 6.15234 C 106.689 6.15234 125.439 -12.5488 125.439 -35.5469 C 125.439 -58.5449 106.689 -77.2461 83.7402 -77.2461 C 60.791 -77.2461 42.041 -58.5449 42.041 -35.5469 C 42.041 -12.5488 60.791 6.15234 83.7402 6.15234 Z M 83.7402 -66.0645 C 100.488 -66.0645 114.258 -52.2949 114.258 -35.5469 C 114.258 -18.7988 100.488 -5.0293 83.7402 -5.0293 C 76.8555 -5.0293 70.459 -7.37305 65.2832 -11.3281 L 87.5 -32.9102 C 89.5508 -34.8633 89.502 -37.9395 87.5 -39.9902 C 85.6934 -41.7969 82.373 -41.8945 80.5664 -39.9902 L 59.0332 -17.7246 C 55.3711 -22.7539 53.2227 -28.9062 53.2227 -35.5469 C 53.2227 -52.2949 67.041 -66.0645 83.7402 -66.0645 Z M 148.486 -27.832 C 152.881 -27.832 156.201 -31.25 156.201 -35.5957 C 156.201 -39.7949 152.637 -43.3105 148.486 -43.3105 C 144.238 -43.3105 140.771 -39.7949 140.771 -35.5957 C 140.771 -31.2988 144.238 -27.832 148.486 -27.832 Z M 18.9941 -27.832 C 23.1934 -27.832 26.709 -31.3965 26.709 -35.5957 C 26.709 -39.9414 23.291 -43.3105 18.9941 -43.3105 C 14.6973 -43.3105 11.2793 -39.8438 11.2793 -35.5957 C 11.2793 -31.3477 14.7949 -27.832 18.9941 -27.832 Z M 37.9883 17.8223 C 42.2852 17.8223 45.7031 14.3555 45.7031 10.1074 C 45.7031 5.85938 42.1875 2.39258 37.9883 2.39258 C 33.7891 2.39258 30.2734 5.95703 30.2734 10.1074 C 30.2734 14.4531 33.6426 17.8223 37.9883 17.8223 Z M 129.395 17.8711 C 133.789 17.8711 137.158 14.4531 137.158 10.1562 C 137.158 5.95703 133.594 2.44141 129.395 2.44141 C 125.195 2.44141 121.68 5.95703 121.68 10.1562 C 121.68 14.4531 125.146 17.8711 129.395 17.8711 Z"/>
  </g>
  <g id="Bold-L" transform="matrix(1 0 0 1 2255.36 1556)">
   <path d="M 84.6191 -92.4316 C 89.1113 -92.4316 92.8223 -96.2402 92.8223 -100.684 C 92.8223 -105.225 89.1602 -108.887 84.6191 -108.887 C 79.9316 -108.887 76.416 -105.322 76.416 -100.684 C 76.416 -96.2402 80.2246 -92.4316 84.6191 -92.4316 Z M 130.566 -73.3398 C 135.01 -73.3398 138.77 -77.1484 138.77 -81.543 C 138.77 -86.2305 135.205 -89.7461 130.566 -89.7461 C 125.977 -89.7461 122.363 -86.084 122.363 -81.543 C 122.363 -77.0508 126.123 -73.3398 130.566 -73.3398 Z M 38.623 -73.2422 C 43.1152 -73.2422 46.875 -77.0508 46.875 -81.4941 C 46.875 -86.0352 43.1641 -89.6973 38.623 -89.6973 C 33.9355 -89.6973 30.4199 -86.1328 30.4199 -81.4941 C 30.4199 -77.0508 34.2285 -73.2422 38.623 -73.2422 Z M 84.6191 6.93359 C 107.959 6.93359 127.1 -12.1094 127.1 -35.5469 C 127.1 -58.9355 107.959 -78.0273 84.6191 -78.0273 C 61.2793 -78.0273 42.1387 -58.9355 42.1387 -35.5469 C 42.1387 -12.1094 61.2793 6.93359 84.6191 6.93359 Z M 84.6191 -65.1367 C 100.83 -65.1367 114.258 -51.7578 114.258 -35.5469 C 114.258 -19.3359 100.83 -5.9082 84.6191 -5.9082 C 78.1738 -5.9082 72.168 -8.05664 67.2852 -11.6211 L 88.8184 -32.2266 C 91.1621 -34.4238 91.1133 -37.8906 88.8184 -40.2344 C 86.8164 -42.2852 83.0078 -42.4316 81.0059 -40.2344 L 60.4492 -18.5547 C 57.0312 -23.3887 55.0293 -29.248 55.0293 -35.5469 C 55.0293 -51.7578 68.457 -65.1367 84.6191 -65.1367 Z M 149.756 -27.3438 C 154.443 -27.3438 157.959 -30.9082 157.959 -35.5469 C 157.959 -39.9902 154.15 -43.75 149.756 -43.75 C 145.264 -43.75 141.553 -39.9902 141.553 -35.5469 C 141.553 -31.0059 145.215 -27.3438 149.756 -27.3438 Z M 19.4824 -27.3438 C 23.877 -27.3438 27.6855 -31.1523 27.6855 -35.5469 C 27.6855 -40.2344 24.1211 -43.75 19.4824 -43.75 C 14.8926 -43.75 11.2793 -40.0879 11.2793 -35.5469 C 11.2793 -31.0547 15.0391 -27.3438 19.4824 -27.3438 Z M 38.623 18.6035 C 43.2129 18.6035 46.875 14.9414 46.875 10.4004 C 46.875 5.9082 43.0664 2.19727 38.623 2.19727 C 34.2285 2.19727 30.4199 6.00586 30.4199 10.4004 C 30.4199 15.0879 33.9844 18.6035 38.623 18.6035 Z M 130.518 18.6523 C 135.205 18.6523 138.721 15.0879 138.721 10.4492 C 138.721 6.00586 134.912 2.24609 130.518 2.24609 C 126.025 2.24609 122.314 6.00586 122.314 10.4492 C 122.314 14.9902 125.977 18.6523 130.518 18.6523 Z"/>
  </g>
  <g id="Heavy-L" transform="matrix(1 0 0 1 2550.8 1556)">
   <path d="M 85.8887 -92.2852 C 90.7227 -92.2852 94.8242 -96.3867 94.8242 -101.221 C 94.8242 -106.201 90.8203 -110.156 85.8887 -110.156 C 80.7617 -110.156 76.9531 -106.348 76.9531 -101.221 C 76.9531 -96.4844 81.2012 -92.2852 85.8887 -92.2852 Z M 132.178 -73.0469 C 136.914 -73.0469 141.064 -77.2461 141.064 -81.9824 C 141.064 -87.1094 137.256 -90.8691 132.178 -90.8691 C 127.197 -90.8691 123.242 -86.9141 123.242 -81.9824 C 123.242 -77.1484 127.344 -73.0469 132.178 -73.0469 Z M 39.5996 -72.998 C 44.4336 -72.998 48.5352 -77.0996 48.5352 -81.8848 C 48.5352 -86.8652 44.5312 -90.8203 39.5996 -90.8203 C 34.4727 -90.8203 30.6641 -87.0117 30.6641 -81.8848 C 30.6641 -77.1484 34.9121 -72.998 39.5996 -72.998 Z M 85.8887 8.10547 C 109.863 8.10547 129.541 -11.5234 129.541 -35.5469 C 129.541 -59.5703 109.863 -79.1992 85.8887 -79.1992 C 61.9141 -79.1992 42.2363 -59.5703 42.2363 -35.5469 C 42.2363 -11.5234 61.9141 8.10547 85.8887 8.10547 Z M 85.8887 -63.8184 C 101.367 -63.8184 114.258 -51.0254 114.258 -35.5469 C 114.258 -20.0684 101.367 -7.17773 85.8887 -7.17773 C 80.127 -7.17773 74.707 -9.0332 70.166 -12.1094 L 90.7715 -31.25 C 93.5547 -33.7891 93.457 -37.8906 90.7715 -40.5762 C 88.4277 -43.0176 83.9844 -43.2129 81.6406 -40.5762 L 62.5 -19.8242 C 59.4238 -24.3164 57.6172 -29.7363 57.6172 -35.5469 C 57.6172 -51.0254 70.5078 -63.8184 85.8887 -63.8184 Z M 151.611 -26.6113 C 156.787 -26.6113 160.547 -30.4199 160.547 -35.5469 C 160.547 -40.2832 156.348 -44.4824 151.611 -44.4824 C 146.777 -44.4824 142.676 -40.332 142.676 -35.5469 C 142.676 -30.5664 146.68 -26.6113 151.611 -26.6113 Z M 20.166 -26.6113 C 24.9512 -26.6113 29.1016 -30.8105 29.1016 -35.5469 C 29.1016 -40.6738 25.293 -44.4824 20.166 -44.4824 C 15.2344 -44.4824 11.2793 -40.4785 11.2793 -35.5469 C 11.2793 -30.7129 15.3809 -26.6113 20.166 -26.6113 Z M 39.5996 19.7754 C 44.5801 19.7754 48.5352 15.7715 48.5352 10.8398 C 48.5352 6.00586 44.4336 1.9043 39.5996 1.9043 C 34.8633 1.9043 30.6641 6.15234 30.6641 10.8398 C 30.6641 15.9668 34.4727 19.7754 39.5996 19.7754 Z M 132.129 19.7754 C 137.256 19.7754 141.064 15.9668 141.064 10.8887 C 141.064 6.15234 136.865 1.95312 132.129 1.95312 C 127.295 1.95312 123.193 6.05469 123.193 10.8887 C 123.193 15.8203 127.197 19.7754 132.129 19.7754 Z"/>
  </g>
  <g id="Black-L" transform="matrix(1 0 0 1 2846.36 1556)">
   <path d="M 87.0605 -92.1387 C 92.1875 -92.1387 96.6309 -96.582 96.6309 -101.709 C 96.6309 -107.031 92.334 -111.279 87.0605 -111.279 C 81.4941 -111.279 77.4902 -107.227 77.4902 -101.709 C 77.4902 -96.6797 82.0312 -92.1387 87.0605 -92.1387 Z M 133.594 -72.7539 C 138.623 -72.7539 143.164 -77.3438 143.164 -82.3242 C 143.164 -87.8906 139.111 -91.8945 133.594 -91.8945 C 128.271 -91.8945 124.023 -87.6465 124.023 -82.3242 C 124.023 -77.1973 128.467 -72.7539 133.594 -72.7539 Z M 40.4785 -72.7051 C 45.6055 -72.7051 50.0488 -77.1484 50.0488 -82.2754 C 50.0488 -87.5977 45.8008 -91.8457 40.4785 -91.8457 C 34.9121 -91.8457 30.9082 -87.8418 30.9082 -82.2754 C 30.9082 -77.2461 35.4492 -72.7051 40.4785 -72.7051 Z M 87.0605 9.13086 C 111.572 9.13086 131.738 -10.9375 131.738 -35.5469 C 131.738 -60.1074 111.572 -80.2246 87.0605 -80.2246 C 62.5 -80.2246 42.3828 -60.1074 42.3828 -35.5469 C 42.3828 -10.9375 62.5 9.13086 87.0605 9.13086 Z M 87.0605 -62.6465 C 101.855 -62.6465 114.258 -50.3418 114.258 -35.5469 C 114.258 -20.7031 101.855 -8.34961 87.0605 -8.34961 C 81.8848 -8.34961 77.002 -9.86328 72.8027 -12.5 L 92.5293 -30.4199 C 95.6543 -33.2031 95.6055 -37.8418 92.5293 -40.8691 C 89.8438 -43.6523 84.8145 -43.8477 82.1777 -40.8691 L 64.3066 -20.9473 C 61.5723 -25.1953 59.9609 -30.1758 59.9609 -35.5469 C 59.9609 -50.3418 72.3633 -62.6465 87.0605 -62.6465 Z M 153.271 -25.9766 C 158.838 -25.9766 162.842 -29.9805 162.842 -35.5469 C 162.842 -40.5762 158.301 -45.1172 153.271 -45.1172 C 148.145 -45.1172 143.701 -40.6738 143.701 -35.5469 C 143.701 -30.2246 147.998 -25.9766 153.271 -25.9766 Z M 20.8008 -25.9766 C 25.8301 -25.9766 30.3711 -30.5176 30.3711 -35.5469 C 30.3711 -41.0645 26.3672 -45.1172 20.8008 -45.1172 C 15.4785 -45.1172 11.2793 -40.8203 11.2793 -35.5469 C 11.2793 -30.3711 15.6738 -25.9766 20.8008 -25.9766 Z M 40.4785 20.8008 C 45.8008 20.8008 50.0488 16.5527 50.0488 11.2305 C 50.0488 6.10352 45.6055 1.66016 40.4785 1.66016 C 35.4492 1.66016 30.9082 6.25 30.9082 11.2305 C 30.9082 16.7969 34.9609 20.8008 40.4785 20.8008 Z M 133.594 20.8008 C 139.111 20.8008 143.115 16.7969 143.115 11.2793 C 143.115 6.25 138.574 1.70898 133.594 1.70898 C 128.418 1.70898 124.023 6.15234 124.023 11.2793 C 124.023 16.6016 128.271 20.8008 133.594 20.8008 Z"/>
  </g>
 </g>
</svg>
