<?xml version="1.0" encoding="UTF-8"?>
<!--Generator: Apple Native CoreSVG 123-->
<!DOCTYPE svg
PUBLIC "-//W3C//DTD SVG 1.1//EN"
       "http://www.w3.org/Graphics/SVG/1.1/DTD/svg11.dtd">
<svg version="1.1" xmlns="http://www.w3.org/2000/svg" xmlns:xlink="http://www.w3.org/1999/xlink" width="3300" height="2200">
 <!--glyph: "uni100415.medium", point size: 100.000000, font version: "Version 15.0d4e20", template writer version: "2"-->
 <g id="Notes">
  <rect height="2200" id="artboard" style="fill:white;opacity:1" width="3300" x="0" y="0"/>
  <line id="" style="fill:none;stroke:black;opacity:1;stroke-width:0.5;" x1="263" x2="3036" y1="292" y2="292"/>
  <text style="stroke:none;fill:black;font-family:-apple-system,&quot;SF Pro Display&quot;,&quot;SF Pro Text&quot;,Helvetica,sans-serif;font-weight:bold;" transform="matrix(1 0 0 1 263 322)">Weight/Scale Variations</text>
  <text style="stroke:none;fill:black;font-family:-apple-system,&quot;SF Pro Display&quot;,&quot;SF Pro Text&quot;,Helvetica,sans-serif;text-anchor:middle;" transform="matrix(1 0 0 1 559.711 322)">Ultralight</text>
  <text style="stroke:none;fill:black;font-family:-apple-system,&quot;SF Pro Display&quot;,&quot;SF Pro Text&quot;,Helvetica,sans-serif;text-anchor:middle;" transform="matrix(1 0 0 1 856.422 322)">Thin</text>
  <text style="stroke:none;fill:black;font-family:-apple-system,&quot;SF Pro Display&quot;,&quot;SF Pro Text&quot;,Helvetica,sans-serif;text-anchor:middle;" transform="matrix(1 0 0 1 1153.13 322)">Light</text>
  <text style="stroke:none;fill:black;font-family:-apple-system,&quot;SF Pro Display&quot;,&quot;SF Pro Text&quot;,Helvetica,sans-serif;text-anchor:middle;" transform="matrix(1 0 0 1 1449.84 322)">Regular</text>
  <text style="stroke:none;fill:black;font-family:-apple-system,&quot;SF Pro Display&quot;,&quot;SF Pro Text&quot;,Helvetica,sans-serif;text-anchor:middle;" transform="matrix(1 0 0 1 1746.56 322)">Medium</text>
  <text style="stroke:none;fill:black;font-family:-apple-system,&quot;SF Pro Display&quot;,&quot;SF Pro Text&quot;,Helvetica,sans-serif;text-anchor:middle;" transform="matrix(1 0 0 1 2043.27 322)">Semibold</text>
  <text style="stroke:none;fill:black;font-family:-apple-system,&quot;SF Pro Display&quot;,&quot;SF Pro Text&quot;,Helvetica,sans-serif;text-anchor:middle;" transform="matrix(1 0 0 1 2339.98 322)">Bold</text>
  <text style="stroke:none;fill:black;font-family:-apple-system,&quot;SF Pro Display&quot;,&quot;SF Pro Text&quot;,Helvetica,sans-serif;text-anchor:middle;" transform="matrix(1 0 0 1 2636.69 322)">Heavy</text>
  <text style="stroke:none;fill:black;font-family:-apple-system,&quot;SF Pro Display&quot;,&quot;SF Pro Text&quot;,Helvetica,sans-serif;text-anchor:middle;" transform="matrix(1 0 0 1 2933.4 322)">Black</text>
  <line id="" style="fill:none;stroke:black;opacity:1;stroke-width:0.5;" x1="263" x2="3036" y1="1903" y2="1903"/>
  <g id="" transform="matrix(1 0 0 1 263 1933)">
   <path d="M 9.24805 0.830078 C 13.5547 0.830078 17.1387 -2.74414 17.1387 -7.05078 C 17.1387 -11.3574 13.5449 -14.9316 9.23828 -14.9316 C 4.94141 -14.9316 1.36719 -11.3574 1.36719 -7.05078 C 1.36719 -2.74414 4.95117 0.830078 9.24805 0.830078 Z M 9.24805 -0.654297 C 5.70312 -0.654297 2.87109 -3.49609 2.87109 -7.05078 C 2.87109 -10.6055 5.69336 -13.4473 9.23828 -13.4473 C 12.793 -13.4473 15.6348 -10.6055 15.6445 -7.05078 C 15.6543 -3.49609 12.8027 -0.654297 9.24805 -0.654297 Z M 9.22852 -3.42773 C 9.69727 -3.42773 9.9707 -3.74023 9.9707 -4.25781 L 9.9707 -6.31836 L 12.1973 -6.31836 C 12.6953 -6.31836 13.0371 -6.57227 13.0371 -7.04102 C 13.0371 -7.51953 12.7148 -7.7832 12.1973 -7.7832 L 9.9707 -7.7832 L 9.9707 -10.0098 C 9.9707 -10.5273 9.69727 -10.8496 9.22852 -10.8496 C 8.75977 -10.8496 8.50586 -10.5078 8.50586 -10.0098 L 8.50586 -7.7832 L 6.29883 -7.7832 C 5.78125 -7.7832 5.44922 -7.51953 5.44922 -7.04102 C 5.44922 -6.57227 5.80078 -6.31836 6.29883 -6.31836 L 8.50586 -6.31836 L 8.50586 -4.25781 C 8.50586 -3.75977 8.75977 -3.42773 9.22852 -3.42773 Z"/>
  </g>
  <g id="" transform="matrix(1 0 0 1 281.506 1933)">
   <path d="M 11.709 2.91016 C 17.1484 2.91016 21.6699 -1.60156 21.6699 -7.05078 C 21.6699 -12.4902 17.1387 -17.0117 11.6992 -17.0117 C 6.25 -17.0117 1.74805 -12.4902 1.74805 -7.05078 C 1.74805 -1.60156 6.25977 2.91016 11.709 2.91016 Z M 11.709 1.25 C 7.09961 1.25 3.41797 -2.44141 3.41797 -7.05078 C 3.41797 -11.6504 7.08984 -15.3516 11.6992 -15.3516 C 16.2988 -15.3516 20 -11.6504 20.0098 -7.05078 C 20.0195 -2.44141 16.3086 1.25 11.709 1.25 Z M 11.6797 -2.41211 C 12.207 -2.41211 12.5195 -2.77344 12.5195 -3.33984 L 12.5195 -6.23047 L 15.5762 -6.23047 C 16.123 -6.23047 16.5039 -6.51367 16.5039 -7.03125 C 16.5039 -7.55859 16.1426 -7.86133 15.5762 -7.86133 L 12.5195 -7.86133 L 12.5195 -10.9277 C 12.5195 -11.5039 12.207 -11.8555 11.6797 -11.8555 C 11.1621 -11.8555 10.8789 -11.4844 10.8789 -10.9277 L 10.8789 -7.86133 L 7.83203 -7.86133 C 7.25586 -7.86133 6.89453 -7.55859 6.89453 -7.03125 C 6.89453 -6.51367 7.28516 -6.23047 7.83203 -6.23047 L 10.8789 -6.23047 L 10.8789 -3.33984 C 10.8789 -2.79297 11.1621 -2.41211 11.6797 -2.41211 Z"/>
  </g>
  <g id="" transform="matrix(1 0 0 1 304.914 1933)">
   <path d="M 14.9707 5.67383 C 21.9336 5.67383 27.6855 -0.078125 27.6855 -7.04102 C 27.6855 -14.0039 21.9238 -19.7559 14.9609 -19.7559 C 7.99805 -19.7559 2.25586 -14.0039 2.25586 -7.04102 C 2.25586 -0.078125 8.00781 5.67383 14.9707 5.67383 Z M 14.9707 3.85742 C 8.92578 3.85742 4.08203 -1.00586 4.08203 -7.04102 C 4.08203 -13.0762 8.91602 -17.9395 14.9609 -17.9395 C 20.9961 -17.9395 25.8594 -13.0762 25.8691 -7.04102 C 25.8789 -1.00586 21.0059 3.85742 14.9707 3.85742 Z M 14.9414 -1.06445 C 15.5176 -1.06445 15.8594 -1.45508 15.8594 -2.06055 L 15.8594 -6.13281 L 20.0977 -6.13281 C 20.6934 -6.13281 21.1133 -6.46484 21.1133 -7.02148 C 21.1133 -7.59766 20.7227 -7.93945 20.0977 -7.93945 L 15.8594 -7.93945 L 15.8594 -12.1875 C 15.8594 -12.8027 15.5176 -13.1934 14.9414 -13.1934 C 14.3848 -13.1934 14.0625 -12.7832 14.0625 -12.1875 L 14.0625 -7.93945 L 9.82422 -7.93945 C 9.20898 -7.93945 8.80859 -7.59766 8.80859 -7.02148 C 8.80859 -6.46484 9.23828 -6.13281 9.82422 -6.13281 L 14.0625 -6.13281 L 14.0625 -2.06055 C 14.0625 -1.47461 14.3848 -1.06445 14.9414 -1.06445 Z"/>
  </g>
  <text style="stroke:none;fill:black;font-family:-apple-system,&quot;SF Pro Display&quot;,&quot;SF Pro Text&quot;,Helvetica,sans-serif;font-weight:bold;" transform="matrix(1 0 0 1 263 1953)">Design Variations</text>
  <text style="stroke:none;fill:black;font-family:-apple-system,&quot;SF Pro Display&quot;,&quot;SF Pro Text&quot;,Helvetica,sans-serif;" transform="matrix(1 0 0 1 263 1971)">Symbols are supported in up to nine weights and three scales.</text>
  <text style="stroke:none;fill:black;font-family:-apple-system,&quot;SF Pro Display&quot;,&quot;SF Pro Text&quot;,Helvetica,sans-serif;" transform="matrix(1 0 0 1 263 1989)">For optimal layout with text and other symbols, vertically align</text>
  <text style="stroke:none;fill:black;font-family:-apple-system,&quot;SF Pro Display&quot;,&quot;SF Pro Text&quot;,Helvetica,sans-serif;" transform="matrix(1 0 0 1 263 2007)">symbols with the adjacent text.</text>
  <rect height="14" id="" style="fill:#00AEEF;stroke:none;opacity:0.4;" width="3" x="776" y="1919"/>
  <g id="" transform="matrix(1 0 0 1 779 1933)">
   <path d="M 10.5273 0 L 12.373 0 L 7.17773 -14.0918 L 5.43945 -14.0918 L 0.244141 0 L 2.08984 0 L 3.50586 -4.0332 L 9.11133 -4.0332 Z M 6.2793 -11.9531 L 6.33789 -11.9531 L 8.59375 -5.52734 L 4.02344 -5.52734 Z"/>
  </g>
  <rect height="14" id="" style="fill:#00AEEF;stroke:none;opacity:0.4;" width="3" x="791.617" y="1919"/>
  <text style="stroke:none;fill:black;font-family:-apple-system,&quot;SF Pro Display&quot;,&quot;SF Pro Text&quot;,Helvetica,sans-serif;font-weight:bold;" transform="matrix(1 0 0 1 776 1953)">Side Bearings</text>
  <text style="stroke:none;fill:black;font-family:-apple-system,&quot;SF Pro Display&quot;,&quot;SF Pro Text&quot;,Helvetica,sans-serif;" transform="matrix(1 0 0 1 776 1971)">Horizontal padding on the left and right side of each symbol</text>
  <text style="stroke:none;fill:black;font-family:-apple-system,&quot;SF Pro Display&quot;,&quot;SF Pro Text&quot;,Helvetica,sans-serif;" transform="matrix(1 0 0 1 776 1989)">can be adjusted by modifying the width of the blue rectangles.</text>
  <text style="stroke:none;fill:black;font-family:-apple-system,&quot;SF Pro Display&quot;,&quot;SF Pro Text&quot;,Helvetica,sans-serif;" transform="matrix(1 0 0 1 776 2007)">Modifications are automatically applied proportionally to all</text>
  <text style="stroke:none;fill:black;font-family:-apple-system,&quot;SF Pro Display&quot;,&quot;SF Pro Text&quot;,Helvetica,sans-serif;" transform="matrix(1 0 0 1 776 2025)">scales and weights.</text>
  <g id="" transform="matrix(1 0 0 1 1289 1933)">
   <path d="M 2.96875 2.35352 L 3.80859 3.19336 C 4.84375 4.22852 6.12305 4.15039 7.19727 2.97852 L 16.1621 -6.82617 C 16.5527 -6.74805 16.9629 -6.8457 17.4902 -7.02148 C 18.1738 -7.25586 18.2715 -7.25586 18.3887 -7.13867 C 18.5352 -7.01172 18.4863 -6.89453 18.2422 -6.25 C 17.8809 -5.33203 17.8125 -4.79492 18.5547 -4.02344 L 19.4238 -3.13477 C 20.2734 -2.24609 21.3281 -2.26562 22.2168 -3.14453 L 25.0586 -5.97656 C 25.9473 -6.86523 25.957 -7.92969 25.0781 -8.7793 L 24.1797 -9.64844 C 23.4082 -10.4004 22.8711 -10.3516 21.9629 -9.98047 C 21.3184 -9.72656 21.2012 -9.6875 21.0645 -9.81445 C 20.9375 -9.93164 20.9473 -10.0391 21.1816 -10.7129 C 21.5332 -11.6895 21.5723 -12.2852 20.752 -13.0957 L 19.3359 -14.5117 C 15.1953 -18.6133 11.2305 -18.7402 7.65625 -15.4395 C 7.08008 -14.9023 6.99219 -14.1504 7.53906 -13.6133 L 7.79297 -13.3594 C 8.22266 -12.9297 8.86719 -12.8418 9.41406 -13.1152 C 11.0645 -13.9453 12.2559 -14.0234 13.457 -12.9785 L 13.0273 -11.416 C 12.8516 -10.8008 12.793 -10.3418 12.9199 -9.93164 L 3.18359 -1.04492 C 2.02148 0.0292969 1.93359 1.32812 2.96875 2.35352 Z M 8.96484 -14.4922 C 8.89648 -14.5703 8.86719 -14.6582 8.99414 -14.7559 C 11.709 -17.2852 15.0391 -16.8457 18.3496 -13.5254 L 19.6973 -12.168 C 20.0879 -11.7773 20.0977 -11.582 19.8828 -10.8691 C 19.6582 -10.127 19.502 -9.53125 20.1465 -8.88672 C 20.8105 -8.22266 21.2891 -8.41797 22.207 -8.63281 C 22.9004 -8.79883 23.0664 -8.79883 23.4473 -8.41797 L 24.0918 -7.77344 C 24.4043 -7.48047 24.4141 -7.32422 24.0723 -6.97266 L 21.2207 -4.13086 C 20.8887 -3.79883 20.7227 -3.79883 20.4297 -4.10156 L 19.7852 -4.75586 C 19.4141 -5.13672 19.4141 -5.30273 19.5801 -6.01562 C 19.7852 -6.88477 19.9805 -7.38281 19.3262 -8.04688 C 18.6719 -8.7207 18.0762 -8.57422 17.3438 -8.33008 C 16.5625 -8.06641 16.3281 -8.06641 15.8984 -8.49609 L 14.6094 -9.78516 C 14.1699 -10.2246 14.1309 -10.4395 14.2676 -10.9082 L 15.0293 -13.3984 C 13.3887 -15.2832 11.4941 -15.5566 9.20898 -14.4434 C 9.11133 -14.3945 9.04297 -14.4141 8.96484 -14.4922 Z M 3.96484 1.36719 C 3.52539 0.927734 3.54492 0.537109 4.14062 -0.00976562 L 13.7402 -8.81836 L 15 -7.55859 L 6.17188 2.02148 C 5.625 2.60742 5.24414 2.64648 4.79492 2.19727 Z"/>
  </g>
  <text style="stroke:none;fill:black;font-family:-apple-system,&quot;SF Pro Display&quot;,&quot;SF Pro Text&quot;,Helvetica,sans-serif;font-weight:bold;" transform="matrix(1 0 0 1 1289 1953)">Exporting</text>
  <text style="stroke:none;fill:black;font-family:-apple-system,&quot;SF Pro Display&quot;,&quot;SF Pro Text&quot;,Helvetica,sans-serif;" transform="matrix(1 0 0 1 1289 1971)">Symbols should be outlined when exporting to ensure the</text>
  <text style="stroke:none;fill:black;font-family:-apple-system,&quot;SF Pro Display&quot;,&quot;SF Pro Text&quot;,Helvetica,sans-serif;" transform="matrix(1 0 0 1 1289 1989)">design is preserved when submitting to Xcode.</text>
  <text id="template-version" style="stroke:none;fill:black;font-family:-apple-system,&quot;SF Pro Display&quot;,&quot;SF Pro Text&quot;,Helvetica,sans-serif;text-anchor:end;" transform="matrix(1 0 0 1 3036 1933)">Template v.0.1</text>
  <text style="stroke:none;fill:black;font-family:-apple-system,&quot;SF Pro Display&quot;,&quot;SF Pro Text&quot;,Helvetica,sans-serif;text-anchor:end;" transform="matrix(1 0 0 1 3036 1951)">Generated from flowchart</text>
  <text style="stroke:none;fill:black;font-family:-apple-system,&quot;SF Pro Display&quot;,&quot;SF Pro Text&quot;,Helvetica,sans-serif;text-anchor:end;" transform="matrix(1 0 0 1 3036 1969)">Typeset at 100 points</text>
  <text style="stroke:none;fill:black;font-family:-apple-system,&quot;SF Pro Display&quot;,&quot;SF Pro Text&quot;,Helvetica,sans-serif;" transform="matrix(1 0 0 1 263 726)">Small</text>
  <text style="stroke:none;fill:black;font-family:-apple-system,&quot;SF Pro Display&quot;,&quot;SF Pro Text&quot;,Helvetica,sans-serif;" transform="matrix(1 0 0 1 263 1156)">Medium</text>
  <text style="stroke:none;fill:black;font-family:-apple-system,&quot;SF Pro Display&quot;,&quot;SF Pro Text&quot;,Helvetica,sans-serif;" transform="matrix(1 0 0 1 263 1586)">Large</text>
 </g>
 <g id="Guides">
  <g id="H-reference" style="fill:#27AAE1;stroke:none;" transform="matrix(1 0 0 1 339 696)">
   <path d="M 54.9316 0 L 57.666 0 L 30.5664 -70.459 L 28.0762 -70.459 L 0.976562 0 L 3.66211 0 L 12.9395 -24.4629 L 45.7031 -24.4629 Z M 29.1992 -67.0898 L 29.4434 -67.0898 L 44.8242 -26.709 L 13.8184 -26.709 Z"/>
  </g>
  <line id="Baseline-S" style="fill:none;stroke:#27AAE1;opacity:1;stroke-width:0.577;" x1="263" x2="3036" y1="696" y2="696"/>
  <line id="Capline-S" style="fill:none;stroke:#27AAE1;opacity:1;stroke-width:0.577;" x1="263" x2="3036" y1="625.541" y2="625.541"/>
  <g id="H-reference" style="fill:#27AAE1;stroke:none;" transform="matrix(1 0 0 1 339 1126)">
   <path d="M 54.9316 0 L 57.666 0 L 30.5664 -70.459 L 28.0762 -70.459 L 0.976562 0 L 3.66211 0 L 12.9395 -24.4629 L 45.7031 -24.4629 Z M 29.1992 -67.0898 L 29.4434 -67.0898 L 44.8242 -26.709 L 13.8184 -26.709 Z"/>
  </g>
  <line id="Baseline-M" style="fill:none;stroke:#27AAE1;opacity:1;stroke-width:0.577;" x1="263" x2="3036" y1="1126" y2="1126"/>
  <line id="Capline-M" style="fill:none;stroke:#27AAE1;opacity:1;stroke-width:0.577;" x1="263" x2="3036" y1="1055.54" y2="1055.54"/>
  <g id="H-reference" style="fill:#27AAE1;stroke:none;" transform="matrix(1 0 0 1 339 1556)">
   <path d="M 54.9316 0 L 57.666 0 L 30.5664 -70.459 L 28.0762 -70.459 L 0.976562 0 L 3.66211 0 L 12.9395 -24.4629 L 45.7031 -24.4629 Z M 29.1992 -67.0898 L 29.4434 -67.0898 L 44.8242 -26.709 L 13.8184 -26.709 Z"/>
  </g>
  <line id="Baseline-L" style="fill:none;stroke:#27AAE1;opacity:1;stroke-width:0.577;" x1="263" x2="3036" y1="1556" y2="1556"/>
  <line id="Capline-L" style="fill:none;stroke:#27AAE1;opacity:1;stroke-width:0.577;" x1="263" x2="3036" y1="1485.54" y2="1485.54"/>
  <rect height="119.336" id="left-margin" style="fill:#00AEEF;stroke:none;opacity:0.4;" width="12.4512" x="1384.88" y="1030.79"/>
  <rect height="119.336" id="right-margin" style="fill:#00AEEF;stroke:none;opacity:0.4;" width="12.5" x="1502.31" y="1030.79"/>
 </g>
 <g id="Symbols">
  <g id="Ultralight-S" transform="matrix(1 0 0 1 510.444 696)">
   <path d="M 14.9902 -10.8887 L 48.1445 -10.8887 L 48.1445 -2.53906 L 41.8457 -2.53906 C 40.4297 -2.53906 39.8438 -0.976562 40.7715 0.244141 L 47.7539 8.78906 C 48.6328 9.76562 50 9.7168 50.7812 8.78906 L 57.7637 0.244141 C 58.6914 -0.927734 58.1543 -2.53906 56.6895 -2.53906 L 50.3906 -2.53906 L 50.3906 -10.8887 L 83.5938 -10.8887 C 86.9629 -10.8887 88.7695 -12.4512 88.7695 -16.1133 L 88.7695 -33.8867 C 88.7695 -37.5488 86.9629 -39.1113 83.5938 -39.1113 L 50.3418 -39.1113 L 50.3418 -47.4609 L 83.5938 -47.4609 C 86.9629 -47.4609 88.7695 -48.9746 88.7695 -52.6367 L 88.7695 -70.459 C 88.7695 -74.0723 86.9629 -75.6348 83.5938 -75.6348 L 14.9902 -75.6348 C 11.5723 -75.6348 9.76562 -74.0723 9.76562 -70.459 L 9.76562 -52.6367 C 9.76562 -48.9746 11.5723 -47.4609 14.9902 -47.4609 L 48.1934 -47.4609 L 48.1934 -39.1113 L 14.9902 -39.1113 C 11.5723 -39.1113 9.76562 -37.5488 9.76562 -33.8867 L 9.76562 -16.1133 C 9.76562 -12.4512 11.5723 -10.8887 14.9902 -10.8887 Z M 15.0879 -49.6094 C 12.8418 -49.6094 11.9629 -50.5371 11.9629 -52.7832 L 11.9629 -70.3125 C 11.9629 -72.5586 12.8418 -73.4375 15.0879 -73.4375 L 83.4473 -73.4375 C 85.6934 -73.4375 86.6211 -72.5586 86.6211 -70.3125 L 86.6211 -52.7832 C 86.6211 -50.5371 85.6934 -49.6094 83.4473 -49.6094 Z M 15.0879 -13.0859 C 12.8418 -13.0859 11.9629 -13.9648 11.9629 -16.2109 L 11.9629 -33.7402 C 11.9629 -36.0352 12.8418 -36.9141 15.0879 -36.9141 L 83.4473 -36.9141 C 85.6934 -36.9141 86.6211 -36.0352 86.6211 -33.7402 L 86.6211 -16.2109 C 86.6211 -13.9648 85.6934 -13.0859 83.4473 -13.0859 Z"/>
  </g>
  <g id="Thin-S" transform="matrix(1 0 0 1 806.691 696)">
   <path d="M 15.9668 -10.6934 L 48.1445 -10.6934 L 48.1445 -2.97852 L 41.9434 -2.97852 C 40.0879 -2.97852 39.4043 -1.07422 40.5762 0.390625 L 48.0957 9.375 C 49.0234 10.498 50.5371 10.4492 51.416 9.375 L 58.8867 0.390625 C 60.0586 -1.07422 59.3262 -2.97852 57.5684 -2.97852 L 51.3184 -2.97852 L 51.3184 -10.6934 L 83.4473 -10.6934 C 87.5488 -10.6934 89.6973 -12.5977 89.6973 -16.8945 L 89.6973 -33.4473 C 89.6973 -37.7441 87.5488 -39.6484 83.4473 -39.6484 L 51.2695 -39.6484 L 51.2695 -47.3633 L 83.4473 -47.3633 C 87.5488 -47.3633 89.6973 -49.2676 89.6973 -53.5645 L 89.6973 -70.1172 C 89.6973 -74.4141 87.5488 -76.3184 83.4473 -76.3184 L 15.9668 -76.3184 C 11.9141 -76.3184 9.76562 -74.4141 9.76562 -70.1172 L 9.76562 -53.5645 C 9.76562 -49.2676 11.9141 -47.3633 15.9668 -47.3633 L 48.1445 -47.3633 L 48.1445 -39.6484 L 15.9668 -39.6484 C 11.9141 -39.6484 9.76562 -37.7441 9.76562 -33.4473 L 9.76562 -16.8945 C 9.76562 -12.5977 11.9141 -10.6934 15.9668 -10.6934 Z M 16.1621 -50.5371 C 13.916 -50.5371 12.9395 -51.5137 12.9395 -53.8086 L 12.9395 -69.873 C 12.9395 -72.168 13.916 -73.0957 16.1621 -73.0957 L 83.252 -73.0957 C 85.498 -73.0957 86.4746 -72.168 86.4746 -69.873 L 86.4746 -53.8086 C 86.4746 -51.5137 85.498 -50.5371 83.252 -50.5371 Z M 16.1621 -13.8672 C 13.916 -13.8672 12.9395 -14.8438 12.9395 -17.1387 L 12.9395 -33.2031 C 12.9395 -35.498 13.916 -36.4746 16.1621 -36.4746 L 83.252 -36.4746 C 85.498 -36.4746 86.4746 -35.498 86.4746 -33.2031 L 86.4746 -17.1387 C 86.4746 -14.8438 85.498 -13.8672 83.252 -13.8672 Z"/>
  </g>
  <g id="Light-S" transform="matrix(1 0 0 1 1102.55 696)">
   <path d="M 17.9199 -10.3516 L 48.0957 -10.3516 L 48.0957 -3.80859 L 42.0898 -3.80859 C 39.5508 -3.80859 38.5254 -1.26953 40.1367 0.634766 L 48.6328 10.5469 C 49.8047 11.8652 51.5625 11.8652 52.6367 10.5469 L 61.084 0.634766 C 62.6465 -1.2207 61.6699 -3.80859 59.2285 -3.80859 L 53.125 -3.80859 L 53.125 -10.3516 L 83.3008 -10.3516 C 88.6719 -10.3516 91.4062 -12.9395 91.4062 -18.4082 L 91.4062 -32.666 C 91.4062 -38.0859 88.6719 -40.7227 83.3008 -40.7227 L 53.0762 -40.7227 L 53.0762 -47.2168 L 83.3008 -47.2168 C 88.6719 -47.2168 91.4062 -49.8047 91.4062 -55.2734 L 91.4062 -69.5312 C 91.4062 -74.9512 88.6719 -77.5879 83.3008 -77.5879 L 17.9199 -77.5879 C 12.5 -77.5879 9.76562 -74.9512 9.76562 -69.5312 L 9.76562 -55.2734 C 9.76562 -49.8047 12.5 -47.2168 17.9199 -47.2168 L 48.1445 -47.2168 L 48.1445 -40.7227 L 17.9199 -40.7227 C 12.5 -40.7227 9.76562 -38.0859 9.76562 -32.666 L 9.76562 -18.4082 C 9.76562 -12.9395 12.5 -10.3516 17.9199 -10.3516 Z M 18.3105 -52.3438 C 16.0645 -52.3438 14.8926 -53.4668 14.8926 -55.8105 L 14.8926 -68.9941 C 14.8926 -71.3379 16.0645 -72.4609 18.3105 -72.4609 L 82.8613 -72.4609 C 85.1562 -72.4609 86.3281 -71.3379 86.3281 -68.9941 L 86.3281 -55.8105 C 86.3281 -53.4668 85.1562 -52.3438 82.8613 -52.3438 Z M 18.3105 -15.4297 C 16.0645 -15.4297 14.8926 -16.6016 14.8926 -18.9453 L 14.8926 -32.1289 C 14.8926 -34.4727 16.0645 -35.5957 18.3105 -35.5957 L 82.8613 -35.5957 C 85.1562 -35.5957 86.3281 -34.4727 86.3281 -32.1289 L 86.3281 -18.9453 C 86.3281 -16.6016 85.1562 -15.4297 82.8613 -15.4297 Z"/>
  </g>
  <g id="Regular-S" transform="matrix(1 0 0 1 1398.6 696)">
   <path d="M 19.3848 -10.0586 L 48.0957 -10.0586 L 48.0957 -4.49219 L 42.1875 -4.49219 C 39.1113 -4.49219 37.8418 -1.41602 39.8438 0.830078 L 49.0723 11.4746 C 50.3906 12.8906 52.3438 12.9395 53.6133 11.4746 L 62.7441 0.830078 C 64.6484 -1.36719 63.4766 -4.49219 60.4492 -4.49219 L 54.4434 -4.49219 L 54.4434 -10.0586 L 83.1543 -10.0586 C 89.5508 -10.0586 92.7246 -13.1836 92.7246 -19.5801 L 92.7246 -32.0312 C 92.7246 -38.3789 89.5508 -41.5039 83.1543 -41.5039 L 54.4434 -41.5039 L 54.4434 -47.0703 L 83.1543 -47.0703 C 89.5508 -47.0703 92.7246 -50.2441 92.7246 -56.5918 L 92.7246 -69.0918 C 92.7246 -75.3906 89.5508 -78.5645 83.1543 -78.5645 L 19.3848 -78.5645 C 12.9395 -78.5645 9.76562 -75.3906 9.76562 -69.0918 L 9.76562 -56.5918 C 9.76562 -50.2441 12.9395 -47.0703 19.3848 -47.0703 L 48.0957 -47.0703 L 48.0957 -41.5039 L 19.3848 -41.5039 C 12.9395 -41.5039 9.76562 -38.3789 9.76562 -32.0312 L 9.76562 -19.5801 C 9.76562 -13.1836 12.9395 -10.0586 19.3848 -10.0586 Z M 19.873 -53.6621 C 17.627 -53.6621 16.3574 -54.9316 16.3574 -57.3242 L 16.3574 -68.3105 C 16.3574 -70.752 17.627 -71.9727 19.873 -71.9727 L 82.5684 -71.9727 C 84.8633 -71.9727 86.1816 -70.752 86.1816 -68.3105 L 86.1816 -57.3242 C 86.1816 -54.9316 84.8633 -53.6621 82.5684 -53.6621 Z M 19.873 -16.6504 C 17.627 -16.6504 16.3574 -17.8711 16.3574 -20.2637 L 16.3574 -31.2988 C 16.3574 -33.7402 17.627 -34.9121 19.873 -34.9121 L 82.5684 -34.9121 C 84.8633 -34.9121 86.1816 -33.7402 86.1816 -31.2988 L 86.1816 -20.2637 C 86.1816 -17.8711 84.8633 -16.6504 82.5684 -16.6504 Z"/>
  </g>
  <g id="Medium-S" transform="matrix(1 0 0 1 1693.58 696)">
   <path d="M 20.0684 -9.08203 L 49.2188 -9.08203 L 49.2188 -3.61328 L 43.3594 -3.61328 C 40.0879 -3.61328 38.7695 -0.390625 40.918 2.00195 L 50.6836 13.2324 C 52.0508 14.7461 54.1504 14.7461 55.4199 13.2324 L 65.1367 2.00195 C 67.1875 -0.341797 65.918 -3.61328 62.7441 -3.61328 L 56.7871 -3.61328 L 56.7871 -9.08203 L 85.8887 -9.08203 C 92.8223 -9.08203 96.1914 -12.4023 96.1914 -19.3359 L 96.1914 -31.1523 C 96.1914 -38.0371 92.8223 -41.3574 85.8887 -41.3574 L 56.7871 -41.3574 L 56.7871 -46.6309 L 85.8887 -46.6309 C 92.8223 -46.6309 96.1914 -49.9512 96.1914 -56.8848 L 96.1914 -68.7012 C 96.1914 -75.5859 92.8223 -78.9062 85.8887 -78.9062 L 20.0684 -78.9062 C 13.1348 -78.9062 9.76562 -75.5859 9.76562 -68.7012 L 9.76562 -56.8848 C 9.76562 -49.9512 13.1348 -46.6309 20.0684 -46.6309 L 49.2188 -46.6309 L 49.2188 -41.3574 L 20.0684 -41.3574 C 13.1348 -41.3574 9.76562 -38.0371 9.76562 -31.1523 L 9.76562 -19.3359 C 9.76562 -12.4023 13.1348 -9.08203 20.0684 -9.08203 Z M 20.459 -54.1504 C 18.4082 -54.1504 17.2852 -55.2734 17.2852 -57.4219 L 17.2852 -68.1152 C 17.2852 -70.3125 18.4082 -71.3867 20.459 -71.3867 L 85.498 -71.3867 C 87.5488 -71.3867 88.6719 -70.3125 88.6719 -68.1152 L 88.6719 -57.4219 C 88.6719 -55.2734 87.5488 -54.1504 85.498 -54.1504 Z M 20.459 -16.6016 C 18.4082 -16.6016 17.2852 -17.7246 17.2852 -19.873 L 17.2852 -30.6152 C 17.2852 -32.7637 18.4082 -33.8379 20.459 -33.8379 L 85.498 -33.8379 C 87.5488 -33.8379 88.6719 -32.7637 88.6719 -30.6152 L 88.6719 -19.873 C 88.6719 -17.7246 87.5488 -16.6016 85.498 -16.6016 Z"/>
  </g>
  <g id="Semibold-S" transform="matrix(1 0 0 1 1988.95 696)">
   <path d="M 20.6543 -8.34961 L 50.0977 -8.34961 L 50.0977 -2.92969 L 44.2871 -2.92969 C 40.8691 -2.92969 39.502 0.390625 41.6992 2.92969 L 51.9531 14.5508 C 53.3203 16.1133 55.5176 16.1621 56.8848 14.5508 L 66.9922 2.92969 C 69.1406 0.439453 67.8223 -2.92969 64.502 -2.92969 L 58.5938 -2.92969 L 58.5938 -8.34961 L 87.9883 -8.34961 C 95.3613 -8.34961 98.877 -11.8164 98.877 -19.1895 L 98.877 -30.4688 C 98.877 -37.793 95.3613 -41.2598 87.9883 -41.2598 L 58.5938 -41.2598 L 58.5938 -46.2891 L 87.9883 -46.2891 C 95.3613 -46.2891 98.877 -49.7559 98.877 -57.1289 L 98.877 -68.4082 C 98.877 -75.7324 95.3613 -79.1992 87.9883 -79.1992 L 20.6543 -79.1992 C 13.2812 -79.1992 9.76562 -75.7324 9.76562 -68.4082 L 9.76562 -57.1289 C 9.76562 -49.7559 13.2812 -46.2891 20.6543 -46.2891 L 50.0977 -46.2891 L 50.0977 -41.2598 L 20.6543 -41.2598 C 13.2812 -41.2598 9.76562 -37.793 9.76562 -30.4688 L 9.76562 -19.1895 C 9.76562 -11.8164 13.2812 -8.34961 20.6543 -8.34961 Z M 20.8984 -54.541 C 18.9941 -54.541 18.0176 -55.5176 18.0176 -57.4707 L 18.0176 -68.0176 C 18.0176 -69.9707 18.9941 -70.9473 20.8984 -70.9473 L 87.6953 -70.9473 C 89.6484 -70.9473 90.625 -69.9707 90.625 -68.0176 L 90.625 -57.4707 C 90.625 -55.5176 89.6484 -54.541 87.6953 -54.541 Z M 20.8984 -16.6016 C 18.9941 -16.6016 18.0176 -17.5781 18.0176 -19.5312 L 18.0176 -30.0781 C 18.0176 -32.0801 18.9941 -33.0078 20.8984 -33.0078 L 87.6953 -33.0078 C 89.6484 -33.0078 90.625 -32.0801 90.625 -30.0781 L 90.625 -19.5312 C 90.625 -17.5781 89.6484 -16.6016 87.6953 -16.6016 Z"/>
  </g>
  <g id="Bold-S" transform="matrix(1 0 0 1 2283.9 696)">
   <path d="M 21.3867 -7.37305 L 51.2207 -7.37305 L 51.2207 -2.05078 L 45.5078 -2.05078 C 41.8945 -2.05078 40.4297 1.46484 42.7734 4.10156 L 53.5645 16.3574 C 55.0293 17.9688 57.3242 18.0176 58.7402 16.3574 L 69.4336 4.10156 C 71.7285 1.51367 70.3125 -2.05078 66.8457 -2.05078 L 60.9863 -2.05078 L 60.9863 -7.37305 L 90.7715 -7.37305 C 98.6816 -7.37305 102.393 -11.0352 102.393 -18.9453 L 102.393 -29.541 C 102.393 -37.4512 98.6816 -41.1133 90.7715 -41.1133 L 60.9863 -41.1133 L 60.9863 -45.8496 L 90.7715 -45.8496 C 98.6816 -45.8496 102.393 -49.5117 102.393 -57.4219 L 102.393 -68.0176 C 102.393 -75.8789 98.6816 -79.541 90.7715 -79.541 L 21.3867 -79.541 C 13.4766 -79.541 9.76562 -75.8789 9.76562 -68.0176 L 9.76562 -57.4219 C 9.76562 -49.5117 13.4766 -45.8496 21.3867 -45.8496 L 51.2207 -45.8496 L 51.2207 -41.1133 L 21.3867 -41.1133 C 13.4766 -41.1133 9.76562 -37.4512 9.76562 -29.541 L 9.76562 -18.9453 C 9.76562 -11.0352 13.4766 -7.37305 21.3867 -7.37305 Z M 21.4844 -55.0293 C 19.8242 -55.0293 18.9453 -55.8594 18.9453 -57.5684 L 18.9453 -67.8223 C 18.9453 -69.5312 19.8242 -70.3613 21.4844 -70.3613 L 90.6738 -70.3613 C 92.334 -70.3613 93.2129 -69.5312 93.2129 -67.8223 L 93.2129 -57.5684 C 93.2129 -55.8594 92.334 -55.0293 90.6738 -55.0293 Z M 21.4844 -16.6016 C 19.8242 -16.6016 18.9453 -17.4316 18.9453 -19.1406 L 18.9453 -29.3457 C 18.9453 -31.1035 19.8242 -31.8848 21.4844 -31.8848 L 90.6738 -31.8848 C 92.334 -31.8848 93.2129 -31.1035 93.2129 -29.3457 L 93.2129 -19.1406 C 93.2129 -17.4316 92.334 -16.6016 90.6738 -16.6016 Z"/>
  </g>
  <g id="Heavy-S" transform="matrix(1 0 0 1 2578.05 696)">
   <path d="M 22.4121 -5.95703 L 52.8809 -5.95703 L 52.8809 -0.78125 L 47.2656 -0.78125 C 43.3594 -0.78125 41.8457 2.97852 44.3359 5.81055 L 55.9082 18.9453 C 57.4707 20.6543 59.9609 20.6543 61.4258 18.9453 L 72.998 5.81055 C 75.4395 3.02734 73.877 -0.78125 70.166 -0.78125 L 64.4043 -0.78125 L 64.4043 -5.95703 L 94.8242 -5.95703 C 103.516 -5.95703 107.52 -9.91211 107.52 -18.6523 L 107.52 -28.2227 C 107.52 -36.9629 103.516 -40.918 94.8242 -40.918 L 64.4043 -40.918 L 64.4043 -45.166 L 94.8242 -45.166 C 103.516 -45.166 107.52 -49.1211 107.52 -57.8125 L 107.52 -67.4316 C 107.52 -76.123 103.516 -80.0781 94.8242 -80.0781 L 22.4121 -80.0781 C 13.7207 -80.0781 9.76562 -76.123 9.76562 -67.4316 L 9.76562 -57.8125 C 9.76562 -49.1211 13.7207 -45.166 22.4121 -45.166 L 52.8809 -45.166 L 52.8809 -40.918 L 22.4121 -40.918 C 13.7207 -40.918 9.76562 -36.9629 9.76562 -28.2227 L 9.76562 -18.6523 C 9.76562 -9.91211 13.7207 -5.95703 22.4121 -5.95703 Z M 22.3633 -55.7617 C 20.9473 -55.7617 20.3613 -56.3477 20.3613 -57.7637 L 20.3613 -67.5293 C 20.3613 -68.8965 20.9473 -69.5312 22.3633 -69.5312 L 94.9219 -69.5312 C 96.3379 -69.5312 96.9238 -68.8965 96.9238 -67.5293 L 96.9238 -57.7637 C 96.9238 -56.3477 96.3379 -55.7617 94.9219 -55.7617 Z M 22.3633 -16.5527 C 20.9473 -16.5527 20.3613 -17.1387 20.3613 -18.5547 L 20.3613 -28.3203 C 20.3613 -29.7363 20.9473 -30.3223 22.3633 -30.3223 L 94.9219 -30.3223 C 96.3379 -30.3223 96.9238 -29.7363 96.9238 -28.3203 L 96.9238 -18.5547 C 96.9238 -17.1387 96.3379 -16.5527 94.9219 -16.5527 Z"/>
  </g>
  <g id="Black-S" transform="matrix(1 0 0 1 2872.49 696)">
   <path d="M 23.3887 -4.6875 L 54.3457 -4.6875 L 54.3457 0.341797 L 48.877 0.341797 C 44.6777 0.341797 43.0664 4.3457 45.7031 7.37305 L 58.0078 21.2402 C 59.668 23.0469 62.3047 23.0469 63.8672 21.2402 L 76.123 7.37305 C 78.7598 4.39453 77.0996 0.341797 73.1934 0.341797 L 67.4805 0.341797 L 67.4805 -4.6875 L 98.4375 -4.6875 C 107.861 -4.6875 112.061 -8.93555 112.061 -18.3594 L 112.061 -27.0508 C 112.061 -36.4746 107.861 -40.7227 98.4375 -40.7227 L 67.4805 -40.7227 L 67.4805 -44.5801 L 98.4375 -44.5801 C 107.861 -44.5801 112.061 -48.7793 112.061 -58.2031 L 112.061 -66.9434 C 112.061 -76.3672 107.861 -80.5664 98.4375 -80.5664 L 23.3887 -80.5664 C 13.9648 -80.5664 9.76562 -76.3672 9.76562 -66.9434 L 9.76562 -58.2031 C 9.76562 -48.7793 13.9648 -44.5801 23.3887 -44.5801 L 54.3457 -44.5801 L 54.3457 -40.7227 L 23.3887 -40.7227 C 13.9648 -40.7227 9.76562 -36.4746 9.76562 -27.0508 L 9.76562 -18.3594 C 9.76562 -8.93555 13.9648 -4.6875 23.3887 -4.6875 Z M 23.0957 -56.3965 C 21.9727 -56.3965 21.582 -56.7871 21.582 -57.8613 L 21.582 -67.2852 C 21.582 -68.3594 21.9727 -68.75 23.0957 -68.75 L 98.7305 -68.75 C 99.8535 -68.75 100.244 -68.3594 100.244 -67.2852 L 100.244 -57.8613 C 100.244 -56.7871 99.8535 -56.3965 98.7305 -56.3965 Z M 23.0957 -16.5527 C 21.9727 -16.5527 21.582 -16.9434 21.582 -18.0176 L 21.582 -27.3926 C 21.582 -28.4668 21.9727 -28.9062 23.0957 -28.9062 L 98.7305 -28.9062 C 99.8535 -28.9062 100.244 -28.4668 100.244 -27.3926 L 100.244 -18.0176 C 100.244 -16.9434 99.8535 -16.5527 98.7305 -16.5527 Z"/>
  </g>
  <g id="Ultralight-M" transform="matrix(1 0 0 1 496.991 1126)">
   <path d="M 18.75 -4.24805 L 61.4746 -4.24805 L 61.4746 6.64062 L 53.418 6.64062 C 51.709 6.64062 51.0254 8.54492 52.0996 9.96094 L 60.8398 20.7031 C 61.9141 21.9727 63.5742 21.875 64.5508 20.7031 L 73.291 9.96094 C 74.4141 8.54492 73.7305 6.64062 72.0215 6.64062 L 63.9648 6.64062 L 63.9648 -4.24805 L 106.689 -4.24805 C 110.742 -4.24805 112.988 -6.05469 112.988 -10.498 L 112.988 -33.6914 C 112.988 -38.0859 110.742 -39.9414 106.689 -39.9414 L 63.916 -39.9414 L 63.916 -50.8301 L 106.689 -50.8301 C 110.742 -50.8301 112.988 -52.6855 112.988 -57.1289 L 112.988 -80.2734 C 112.988 -84.7168 110.742 -86.5723 106.689 -86.5723 L 18.75 -86.5723 C 14.6973 -86.5723 12.4512 -84.7168 12.4512 -80.2734 L 12.4512 -57.1289 C 12.4512 -52.6855 14.6973 -50.8301 18.75 -50.8301 L 61.5234 -50.8301 L 61.5234 -39.9414 L 18.75 -39.9414 C 14.6973 -39.9414 12.4512 -38.0859 12.4512 -33.6914 L 12.4512 -10.498 C 12.4512 -6.05469 14.6973 -4.24805 18.75 -4.24805 Z M 18.8477 -53.2715 C 15.9668 -53.2715 14.8438 -54.3457 14.8438 -57.2266 L 14.8438 -80.1758 C 14.8438 -83.0566 15.9668 -84.1309 18.8477 -84.1309 L 106.592 -84.1309 C 109.473 -84.1309 110.596 -83.0566 110.596 -80.1758 L 110.596 -57.2266 C 110.596 -54.3457 109.473 -53.2715 106.592 -53.2715 Z M 18.8477 -6.64062 C 15.9668 -6.64062 14.8438 -7.76367 14.8438 -10.6445 L 14.8438 -33.5449 C 14.8438 -36.4258 15.9668 -37.5488 18.8477 -37.5488 L 106.592 -37.5488 C 109.473 -37.5488 110.596 -36.4258 110.596 -33.5449 L 110.596 -10.6445 C 110.596 -7.76367 109.473 -6.64062 106.592 -6.64062 Z"/>
  </g>
  <g id="Thin-M" transform="matrix(1 0 0 1 793.19 1126)">
   <path d="M 19.873 -4.00391 L 61.4258 -4.00391 L 61.4258 6.15234 L 53.4668 6.15234 C 51.3672 6.15234 50.5371 8.44727 51.9043 10.1074 L 61.1816 21.3867 C 62.3535 22.7539 64.209 22.7051 65.2832 21.3867 L 74.5605 10.1074 C 75.9277 8.44727 75.0977 6.15234 72.998 6.15234 L 65.0391 6.15234 L 65.0391 -4.00391 L 106.592 -4.00391 C 111.426 -4.00391 113.965 -6.25 113.965 -11.377 L 113.965 -33.2031 C 113.965 -38.3301 111.426 -40.5762 106.592 -40.5762 L 64.9902 -40.5762 L 64.9902 -50.7812 L 106.592 -50.7812 C 111.426 -50.7812 113.965 -52.9785 113.965 -58.1055 L 113.965 -79.9316 C 113.965 -85.0586 111.426 -87.3047 106.592 -87.3047 L 19.873 -87.3047 C 15.0391 -87.3047 12.4512 -85.0586 12.4512 -79.9316 L 12.4512 -58.1055 C 12.4512 -52.9785 15.0391 -50.7812 19.873 -50.7812 L 61.4746 -50.7812 L 61.4746 -40.5762 L 19.873 -40.5762 C 15.0391 -40.5762 12.4512 -38.3301 12.4512 -33.2031 L 12.4512 -11.377 C 12.4512 -6.25 15.0391 -4.00391 19.873 -4.00391 Z M 20.0684 -54.2969 C 17.1875 -54.2969 15.9668 -55.4688 15.9668 -58.3984 L 15.9668 -79.6875 C 15.9668 -82.5684 17.1875 -83.7891 20.0684 -83.7891 L 106.348 -83.7891 C 109.229 -83.7891 110.449 -82.5684 110.449 -79.6875 L 110.449 -58.3984 C 110.449 -55.4688 109.229 -54.2969 106.348 -54.2969 Z M 20.0684 -7.56836 C 17.1875 -7.56836 15.9668 -8.74023 15.9668 -11.6699 L 15.9668 -32.959 C 15.9668 -35.8398 17.1875 -37.0605 20.0684 -37.0605 L 106.348 -37.0605 C 109.229 -37.0605 110.449 -35.8398 110.449 -32.959 L 110.449 -11.6699 C 110.449 -8.74023 109.229 -7.56836 106.348 -7.56836 Z"/>
  </g>
  <g id="Light-M" transform="matrix(1 0 0 1 1088.92 1126)">
   <path d="M 22.0215 -3.61328 L 61.4258 -3.61328 L 61.4258 5.22461 L 53.6133 5.22461 C 50.6836 5.22461 49.5117 8.20312 51.416 10.4492 L 61.8652 22.7539 C 63.2324 24.3164 65.3809 24.3164 66.6992 22.7539 L 77.0508 10.4492 C 78.9062 8.25195 77.7344 5.22461 74.9023 5.22461 L 67.041 5.22461 L 67.041 -3.61328 L 106.396 -3.61328 C 112.695 -3.61328 115.967 -6.64062 115.967 -13.1348 L 115.967 -32.2754 C 115.967 -38.7207 112.695 -41.748 106.396 -41.748 L 66.9922 -41.748 L 66.9922 -50.5859 L 106.396 -50.5859 C 112.695 -50.5859 115.967 -53.6133 115.967 -60.1074 L 115.967 -79.248 C 115.967 -85.6934 112.695 -88.7207 106.396 -88.7207 L 22.0215 -88.7207 C 15.7227 -88.7207 12.4512 -85.6934 12.4512 -79.248 L 12.4512 -60.1074 C 12.4512 -53.6133 15.7227 -50.5859 22.0215 -50.5859 L 61.4258 -50.5859 L 61.4258 -41.748 L 22.0215 -41.748 C 15.7227 -41.748 12.4512 -38.7207 12.4512 -32.2754 L 12.4512 -13.1348 C 12.4512 -6.64062 15.7227 -3.61328 22.0215 -3.61328 Z M 22.4609 -56.2988 C 19.5801 -56.2988 18.1641 -57.666 18.1641 -60.6445 L 18.1641 -78.6621 C 18.1641 -81.6895 19.5801 -83.0078 22.4609 -83.0078 L 105.908 -83.0078 C 108.838 -83.0078 110.254 -81.6895 110.254 -78.6621 L 110.254 -60.6445 C 110.254 -57.666 108.838 -56.2988 105.908 -56.2988 Z M 22.4609 -9.32617 C 19.5801 -9.32617 18.1641 -10.6934 18.1641 -13.6719 L 18.1641 -31.6895 C 18.1641 -34.7168 19.5801 -36.0352 22.4609 -36.0352 L 105.908 -36.0352 C 108.838 -36.0352 110.254 -34.7168 110.254 -31.6895 L 110.254 -13.6719 C 110.254 -10.6934 108.838 -9.32617 105.908 -9.32617 Z"/>
  </g>
  <g id="Regular-M" transform="matrix(1 0 0 1 1384.88 1126)">
   <path d="M 23.6816 -3.32031 L 61.4258 -3.32031 L 61.4258 4.49219 L 53.7598 4.49219 C 50.1953 4.49219 48.7793 8.00781 51.0742 10.6934 L 62.3535 23.7305 C 63.916 25.4883 66.2598 25.5371 67.7734 23.7305 L 78.9551 10.6934 C 81.1035 8.05664 79.7363 4.49219 76.3184 4.49219 L 68.5547 4.49219 L 68.5547 -3.32031 L 106.201 -3.32031 C 113.672 -3.32031 117.432 -6.93359 117.432 -14.4531 L 117.432 -31.5918 C 117.432 -39.0625 113.672 -42.6758 106.201 -42.6758 L 68.5547 -42.6758 L 68.5547 -50.4395 L 106.201 -50.4395 C 113.672 -50.4395 117.432 -54.1016 117.432 -61.5723 L 117.432 -78.7598 C 117.432 -86.2305 113.672 -89.8438 106.201 -89.8438 L 23.6816 -89.8438 C 16.2109 -89.8438 12.4512 -86.2305 12.4512 -78.7598 L 12.4512 -61.5723 C 12.4512 -54.1016 16.2109 -50.4395 23.6816 -50.4395 L 61.4258 -50.4395 L 61.4258 -42.6758 L 23.6816 -42.6758 C 16.2109 -42.6758 12.4512 -39.0625 12.4512 -31.5918 L 12.4512 -14.4531 C 12.4512 -6.93359 16.2109 -3.32031 23.6816 -3.32031 Z M 24.2676 -57.8125 C 21.3867 -57.8125 19.8242 -59.3262 19.8242 -62.3535 L 19.8242 -77.9297 C 19.8242 -81.0059 21.3867 -82.4707 24.2676 -82.4707 L 105.615 -82.4707 C 108.496 -82.4707 110.059 -81.0059 110.059 -77.9297 L 110.059 -62.3535 C 110.059 -59.3262 108.496 -57.8125 105.615 -57.8125 Z M 24.2676 -10.6445 C 21.3867 -10.6445 19.8242 -12.1582 19.8242 -15.1855 L 19.8242 -30.7617 C 19.8242 -33.8379 21.3867 -35.3027 24.2676 -35.3027 L 105.615 -35.3027 C 108.496 -35.3027 110.059 -33.8379 110.059 -30.7617 L 110.059 -15.1855 C 110.059 -12.1582 108.496 -10.6445 105.615 -10.6445 Z"/>
  </g>
  <g id="Medium-M" transform="matrix(1 0 0 1 1679.73 1126)">
   <path d="M 24.6582 -2.29492 L 62.5488 -2.29492 L 62.5488 5.27344 L 54.9805 5.27344 C 51.1719 5.27344 49.6582 9.08203 52.0996 11.9141 L 64.0625 25.6836 C 65.6738 27.4902 68.2129 27.5391 69.7754 25.6836 L 81.6406 11.9141 C 83.9844 9.13086 82.5195 5.27344 78.8086 5.27344 L 71.1426 5.27344 L 71.1426 -2.29492 L 109.033 -2.29492 C 117.188 -2.29492 121.191 -6.15234 121.191 -14.3555 L 121.191 -30.6152 C 121.191 -38.7207 117.188 -42.627 109.033 -42.627 L 71.1426 -42.627 L 71.1426 -49.9512 L 109.033 -49.9512 C 117.188 -49.9512 121.191 -53.8574 121.191 -62.0605 L 121.191 -78.2715 C 121.191 -86.4258 117.188 -90.332 109.033 -90.332 L 24.6582 -90.332 C 16.4551 -90.332 12.4512 -86.4258 12.4512 -78.2715 L 12.4512 -62.0605 C 12.4512 -53.8574 16.4551 -49.9512 24.6582 -49.9512 L 62.5488 -49.9512 L 62.5488 -42.627 L 24.6582 -42.627 C 16.4551 -42.627 12.4512 -38.7207 12.4512 -30.6152 L 12.4512 -14.3555 C 12.4512 -6.15234 16.4551 -2.29492 24.6582 -2.29492 Z M 25.0488 -58.4961 C 22.4121 -58.4961 20.9961 -59.8633 20.9961 -62.6465 L 20.9961 -77.6367 C 20.9961 -80.4688 22.4121 -81.7871 25.0488 -81.7871 L 108.545 -81.7871 C 111.23 -81.7871 112.646 -80.4688 112.646 -77.6367 L 112.646 -62.6465 C 112.646 -59.8633 111.23 -58.4961 108.545 -58.4961 Z M 25.0488 -10.791 C 22.4121 -10.791 20.9961 -12.1582 20.9961 -14.9414 L 20.9961 -29.9805 C 20.9961 -32.7637 22.4121 -34.1309 25.0488 -34.1309 L 108.545 -34.1309 C 111.23 -34.1309 112.646 -32.7637 112.646 -29.9805 L 112.646 -14.9414 C 112.646 -12.1582 111.23 -10.791 108.545 -10.791 Z"/>
  </g>
  <g id="Semibold-M" transform="matrix(1 0 0 1 1975 1126)">
   <path d="M 25.3418 -1.46484 L 63.4277 -1.46484 L 63.4277 5.9082 L 55.957 5.9082 C 51.9043 5.9082 50.3418 9.86328 52.9297 12.8418 L 65.3809 27.1484 C 67.041 29.0527 69.6777 29.0527 71.3379 27.1484 L 83.6914 12.8418 C 86.1816 9.91211 84.6191 5.9082 80.7129 5.9082 L 73.0957 5.9082 L 73.0957 -1.46484 L 111.182 -1.46484 C 119.873 -1.46484 124.072 -5.61523 124.072 -14.3066 L 124.072 -29.834 C 124.072 -38.5254 119.873 -42.627 111.182 -42.627 L 73.0957 -42.627 L 73.0957 -49.6094 L 111.182 -49.6094 C 119.873 -49.6094 124.072 -53.7109 124.072 -62.4023 L 124.072 -77.9297 C 124.072 -86.6211 119.873 -90.7227 111.182 -90.7227 L 25.3418 -90.7227 C 16.6504 -90.7227 12.4512 -86.6211 12.4512 -77.9297 L 12.4512 -62.4023 C 12.4512 -53.7109 16.6504 -49.6094 25.3418 -49.6094 L 63.4277 -49.6094 L 63.4277 -42.627 L 25.3418 -42.627 C 16.6504 -42.627 12.4512 -38.5254 12.4512 -29.834 L 12.4512 -14.3066 C 12.4512 -5.61523 16.6504 -1.46484 25.3418 -1.46484 Z M 25.6836 -59.0332 C 23.1934 -59.0332 21.875 -60.3027 21.875 -62.8906 L 21.875 -77.4414 C 21.875 -80.0781 23.1934 -81.2988 25.6836 -81.2988 L 110.791 -81.2988 C 113.33 -81.2988 114.6 -80.0781 114.6 -77.4414 L 114.6 -62.8906 C 114.6 -60.3027 113.33 -59.0332 110.791 -59.0332 Z M 25.6836 -10.9375 C 23.1934 -10.9375 21.875 -12.1582 21.875 -14.7949 L 21.875 -29.3457 C 21.875 -31.9336 23.1934 -33.2031 25.6836 -33.2031 L 110.791 -33.2031 C 113.33 -33.2031 114.6 -31.9336 114.6 -29.3457 L 114.6 -14.7949 C 114.6 -12.1582 113.33 -10.9375 110.791 -10.9375 Z"/>
  </g>
  <g id="Bold-M" transform="matrix(1 0 0 1 2269.84 1126)">
   <path d="M 26.2695 -0.439453 L 64.5996 -0.439453 L 64.5996 6.68945 L 57.2266 6.68945 C 52.8809 6.68945 51.1719 10.8887 53.9551 14.0625 L 67.0898 29.0527 C 68.8477 31.0547 71.6309 31.1035 73.3398 29.0527 L 86.377 14.0625 C 89.1113 10.9863 87.4023 6.68945 83.252 6.68945 L 75.7324 6.68945 L 75.7324 -0.439453 L 114.014 -0.439453 C 123.389 -0.439453 127.832 -4.83398 127.832 -14.2578 L 127.832 -28.8086 C 127.832 -38.1836 123.389 -42.5781 114.014 -42.5781 L 75.7324 -42.5781 L 75.7324 -49.1211 L 114.014 -49.1211 C 123.389 -49.1211 127.832 -53.5156 127.832 -62.8906 L 127.832 -77.4902 C 127.832 -86.8652 123.389 -91.2598 114.014 -91.2598 L 26.2695 -91.2598 C 16.8945 -91.2598 12.4512 -86.8652 12.4512 -77.4902 L 12.4512 -62.8906 C 12.4512 -53.5156 16.8945 -49.1211 26.2695 -49.1211 L 64.5996 -49.1211 L 64.5996 -42.5781 L 26.2695 -42.5781 C 16.8945 -42.5781 12.4512 -38.1836 12.4512 -28.8086 L 12.4512 -14.2578 C 12.4512 -4.83398 16.8945 -0.439453 26.2695 -0.439453 Z M 26.5137 -59.7168 C 24.2188 -59.7168 23.0469 -60.8398 23.0469 -63.1836 L 23.0469 -77.1484 C 23.0469 -79.541 24.2188 -80.6152 26.5137 -80.6152 L 113.77 -80.6152 C 116.064 -80.6152 117.236 -79.541 117.236 -77.1484 L 117.236 -63.1836 C 117.236 -60.8398 116.064 -59.7168 113.77 -59.7168 Z M 26.5137 -11.0352 C 24.2188 -11.0352 23.0469 -12.1582 23.0469 -14.5508 L 23.0469 -28.4668 C 23.0469 -30.8594 24.2188 -31.9824 26.5137 -31.9824 L 113.77 -31.9824 C 116.064 -31.9824 117.236 -30.8594 117.236 -28.4668 L 117.236 -14.5508 C 117.236 -12.1582 116.064 -11.0352 113.77 -11.0352 Z"/>
  </g>
  <g id="Heavy-M" transform="matrix(1 0 0 1 2563.81 1126)">
   <path d="M 27.6855 1.02539 L 66.2598 1.02539 L 66.2598 7.86133 L 59.0332 7.86133 C 54.3457 7.86133 52.4902 12.4512 55.5176 15.8691 L 69.5801 31.8848 C 71.4844 34.0332 74.4629 34.0332 76.3184 31.8848 L 90.332 15.8691 C 93.3105 12.5 91.4551 7.86133 86.9629 7.86133 L 79.4922 7.86133 L 79.4922 1.02539 L 118.115 1.02539 C 128.516 1.02539 133.301 -3.71094 133.301 -14.1113 L 133.301 -27.3438 C 133.301 -37.7441 128.516 -42.5293 118.115 -42.5293 L 79.4922 -42.5293 L 79.4922 -48.4375 L 118.115 -48.4375 C 128.516 -48.4375 133.301 -53.1738 133.301 -63.5742 L 133.301 -76.8066 C 133.301 -87.207 128.516 -91.9922 118.115 -91.9922 L 27.6855 -91.9922 C 17.2852 -91.9922 12.4512 -87.207 12.4512 -76.8066 L 12.4512 -63.5742 C 12.4512 -53.1738 17.2852 -48.4375 27.6855 -48.4375 L 66.2598 -48.4375 L 66.2598 -42.5293 L 27.6855 -42.5293 C 17.2852 -42.5293 12.4512 -37.7441 12.4512 -27.3438 L 12.4512 -14.1113 C 12.4512 -3.71094 17.2852 1.02539 27.6855 1.02539 Z M 27.6855 -60.7422 C 25.6836 -60.7422 24.7559 -61.6211 24.7559 -63.6719 L 24.7559 -76.7578 C 24.7559 -78.7598 25.6836 -79.6875 27.6855 -79.6875 L 118.066 -79.6875 C 120.068 -79.6875 120.996 -78.7598 120.996 -76.7578 L 120.996 -63.6719 C 120.996 -61.6211 120.068 -60.7422 118.066 -60.7422 Z M 27.6855 -11.2793 C 25.6836 -11.2793 24.7559 -12.1582 24.7559 -14.209 L 24.7559 -27.2949 C 24.7559 -29.2969 25.6836 -30.2246 27.6855 -30.2246 L 118.066 -30.2246 C 120.068 -30.2246 120.996 -29.2969 120.996 -27.2949 L 120.996 -14.209 C 120.996 -12.1582 120.068 -11.2793 118.066 -11.2793 Z"/>
  </g>
  <g id="Black-M" transform="matrix(1 0 0 1 2858.06 1126)">
   <path d="M 28.9062 2.39258 L 67.7734 2.39258 L 67.7734 8.93555 L 60.6934 8.93555 C 55.6152 8.93555 53.6133 13.8184 56.8359 17.4805 L 71.8262 34.4238 C 73.8281 36.6699 77.002 36.6699 78.9551 34.4238 L 93.8477 17.4805 C 97.0703 13.8672 95.0684 8.93555 90.2344 8.93555 L 82.9102 8.93555 L 82.9102 2.39258 L 121.777 2.39258 C 133.057 2.39258 138.184 -2.73438 138.184 -14.0137 L 138.184 -26.0254 C 138.184 -37.3535 133.057 -42.4805 121.777 -42.4805 L 82.9102 -42.4805 L 82.9102 -47.8027 L 121.777 -47.8027 C 133.057 -47.8027 138.184 -52.9297 138.184 -64.209 L 138.184 -76.2207 C 138.184 -87.5 133.057 -92.627 121.777 -92.627 L 28.9062 -92.627 C 17.5781 -92.627 12.4512 -87.5 12.4512 -76.2207 L 12.4512 -64.209 C 12.4512 -52.9297 17.5781 -47.8027 28.9062 -47.8027 L 67.7734 -47.8027 L 67.7734 -42.4805 L 28.9062 -42.4805 C 17.5781 -42.4805 12.4512 -37.3535 12.4512 -26.0254 L 12.4512 -14.0137 C 12.4512 -2.73438 17.5781 2.39258 28.9062 2.39258 Z M 28.7598 -61.6211 C 27.002 -61.6211 26.3184 -62.3535 26.3184 -64.0625 L 26.3184 -76.3672 C 26.3184 -78.0762 27.002 -78.8086 28.7598 -78.8086 L 121.924 -78.8086 C 123.633 -78.8086 124.365 -78.0762 124.365 -76.3672 L 124.365 -64.0625 C 124.365 -62.3535 123.633 -61.6211 121.924 -61.6211 Z M 28.7598 -11.4258 C 27.002 -11.4258 26.3184 -12.1582 26.3184 -13.8672 L 26.3184 -26.1719 C 26.3184 -27.9297 27.002 -28.6133 28.7598 -28.6133 L 121.924 -28.6133 C 123.633 -28.6133 124.365 -27.9297 124.365 -26.1719 L 124.365 -13.8672 C 124.365 -12.1582 123.633 -11.4258 121.924 -11.4258 Z"/>
  </g>
  <g id="Ultralight-L" transform="matrix(1 0 0 1 478.998 1556)">
   <path d="M 23.6816 -55.4199 L 137.744 -55.4199 C 142.627 -55.4199 145.361 -57.6172 145.361 -63.0371 L 145.361 -93.5059 C 145.361 -98.9258 142.627 -101.123 137.744 -101.123 L 23.6816 -101.123 C 18.7988 -101.123 16.0645 -98.9258 16.0645 -93.5059 L 16.0645 -63.0371 C 16.0645 -57.6172 18.7988 -55.4199 23.6816 -55.4199 Z M 23.7793 -58.0566 C 20.0684 -58.0566 18.7012 -59.4238 18.7012 -63.1348 L 18.7012 -93.457 C 18.7012 -97.1191 20.0684 -98.5352 23.7793 -98.5352 L 137.646 -98.5352 C 141.309 -98.5352 142.725 -97.1191 142.725 -93.457 L 142.725 -63.1348 C 142.725 -59.4238 141.309 -58.0566 137.646 -58.0566 Z M 79.3945 -41.0645 L 82.0312 -41.0645 L 82.0312 -55.2246 L 79.3945 -55.2246 Z M 23.6816 4.6875 L 79.2969 4.6875 L 79.2969 19.043 L 68.8965 19.043 C 66.8457 19.043 66.0645 21.3379 67.334 23.0469 L 78.3691 36.6699 C 79.6875 38.1836 81.7871 38.1348 83.0078 36.6699 L 94.043 23.0469 C 95.3613 21.3379 94.5801 19.043 92.5293 19.043 L 82.1289 19.043 L 82.1289 4.6875 L 137.744 4.6875 C 142.627 4.6875 145.361 2.49023 145.361 -2.92969 L 145.361 -33.4473 C 145.361 -38.8672 142.627 -41.0645 137.744 -41.0645 L 23.6816 -41.0645 C 18.7988 -41.0645 16.0645 -38.8672 16.0645 -33.4473 L 16.0645 -2.92969 C 16.0645 2.49023 18.7988 4.6875 23.6816 4.6875 Z M 23.7793 2.05078 C 20.0684 2.05078 18.7012 0.634766 18.7012 -3.02734 L 18.7012 -33.3496 C 18.7012 -37.0117 20.0684 -38.4277 23.7793 -38.4277 L 137.646 -38.4277 C 141.309 -38.4277 142.725 -37.0117 142.725 -33.3496 L 142.725 -3.02734 C 142.725 0.634766 141.309 2.05078 137.646 2.05078 Z"/>
  </g>
  <g id="Thin-L" transform="matrix(1 0 0 1 775.148 1556)">
   <path d="M 24.9512 4.88281 L 79.2969 4.88281 L 79.2969 18.5059 L 68.9453 18.5059 C 66.4551 18.5059 65.4785 21.1914 67.0898 23.1934 L 78.7598 37.4023 C 80.1758 39.1113 82.4707 39.0137 83.7891 37.4023 L 95.459 23.1934 C 97.0703 21.1914 96.0938 18.5059 93.6035 18.5059 L 83.252 18.5059 L 83.252 4.88281 L 137.598 4.88281 C 143.359 4.88281 146.484 2.24609 146.484 -3.95508 L 146.484 -32.9102 C 146.484 -39.1113 143.359 -41.748 137.598 -41.748 L 83.2031 -41.748 L 83.2031 -55.3223 L 137.598 -55.3223 C 143.359 -55.3223 146.484 -57.959 146.484 -64.1602 L 146.484 -93.1152 C 146.484 -99.3164 143.359 -101.953 137.598 -101.953 L 24.9512 -101.953 C 19.1895 -101.953 16.0645 -99.3164 16.0645 -93.1152 L 16.0645 -64.1602 C 16.0645 -57.959 19.1895 -55.3223 24.9512 -55.3223 L 79.3457 -55.3223 L 79.3457 -41.748 L 24.9512 -41.748 C 19.1895 -41.748 16.0645 -39.1113 16.0645 -32.9102 L 16.0645 -3.95508 C 16.0645 2.24609 19.1895 4.88281 24.9512 4.88281 Z M 25.1465 -59.1797 C 21.4355 -59.1797 19.9707 -60.6934 19.9707 -64.4043 L 19.9707 -92.8711 C 19.9707 -96.582 21.4355 -98.0957 25.1465 -98.0957 L 137.402 -98.0957 C 141.113 -98.0957 142.578 -96.582 142.578 -92.8711 L 142.578 -64.4043 C 142.578 -60.6934 141.113 -59.1797 137.402 -59.1797 Z M 25.1465 1.02539 C 21.4355 1.02539 19.9707 -0.439453 19.9707 -4.19922 L 19.9707 -32.666 C 19.9707 -36.377 21.4355 -37.8906 25.1465 -37.8906 L 137.402 -37.8906 C 141.113 -37.8906 142.578 -36.377 142.578 -32.666 L 142.578 -4.19922 C 142.578 -0.439453 141.113 1.02539 137.402 1.02539 Z"/>
  </g>
  <g id="Light-L" transform="matrix(1 0 0 1 1070.76 1556)">
   <path d="M 27.3926 5.37109 L 79.248 5.37109 L 79.248 17.4316 L 69.1406 17.4316 C 65.7227 17.4316 64.4043 20.9473 66.6016 23.5352 L 79.4922 38.916 C 81.1523 40.8203 83.7891 40.8203 85.3516 38.916 L 98.2422 23.5352 C 100.342 20.9473 99.0234 17.4316 95.7031 17.4316 L 85.498 17.4316 L 85.498 5.37109 L 137.354 5.37109 C 144.824 5.37109 148.682 1.85547 148.682 -5.85938 L 148.682 -31.8848 C 148.682 -39.5508 144.824 -43.0664 137.354 -43.0664 L 85.4492 -43.0664 L 85.4492 -55.127 L 137.354 -55.127 C 144.824 -55.127 148.682 -58.6426 148.682 -66.3574 L 148.682 -92.3828 C 148.682 -100.049 144.824 -103.564 137.354 -103.564 L 27.3926 -103.564 C 19.9219 -103.564 16.0645 -100.049 16.0645 -92.3828 L 16.0645 -66.3574 C 16.0645 -58.6426 19.9219 -55.127 27.3926 -55.127 L 79.2969 -55.127 L 79.2969 -43.0664 L 27.3926 -43.0664 C 19.9219 -43.0664 16.0645 -39.5508 16.0645 -31.8848 L 16.0645 -5.85938 C 16.0645 1.85547 19.9219 5.37109 27.3926 5.37109 Z M 27.832 -61.4258 C 24.1211 -61.4258 22.4121 -63.1348 22.4121 -66.9434 L 22.4121 -91.7969 C 22.4121 -95.6055 24.1211 -97.2656 27.832 -97.2656 L 136.914 -97.2656 C 140.625 -97.2656 142.334 -95.6055 142.334 -91.7969 L 142.334 -66.9434 C 142.334 -63.1348 140.625 -61.4258 136.914 -61.4258 Z M 27.832 -0.927734 C 24.1211 -0.927734 22.4121 -2.63672 22.4121 -6.44531 L 22.4121 -31.2988 C 22.4121 -35.1074 24.1211 -36.7676 27.832 -36.7676 L 136.914 -36.7676 C 140.625 -36.7676 142.334 -35.1074 142.334 -31.2988 L 142.334 -6.44531 C 142.334 -2.63672 140.625 -0.927734 136.914 -0.927734 Z"/>
  </g>
  <g id="Regular-L" transform="matrix(1 0 0 1 1366.64 1556)">
   <path d="M 29.248 5.71289 L 79.248 5.71289 L 79.248 16.6016 L 69.2871 16.6016 C 65.1855 16.6016 63.5742 20.7031 66.2109 23.8281 L 80.0293 40.0391 C 81.9336 42.1387 84.7656 42.1387 86.5723 40.0391 L 100.293 23.8281 C 102.832 20.752 101.27 16.6016 97.3145 16.6016 L 87.207 16.6016 L 87.207 5.71289 L 137.207 5.71289 C 145.898 5.71289 150.342 1.51367 150.342 -7.32422 L 150.342 -31.1035 C 150.342 -39.8926 145.898 -44.0918 137.207 -44.0918 L 87.207 -44.0918 L 87.207 -54.9805 L 137.207 -54.9805 C 145.898 -54.9805 150.342 -59.1797 150.342 -68.0176 L 150.342 -91.7969 C 150.342 -100.586 145.898 -104.785 137.207 -104.785 L 29.248 -104.785 C 20.5078 -104.785 16.0645 -100.586 16.0645 -91.7969 L 16.0645 -68.0176 C 16.0645 -59.1797 20.5078 -54.9805 29.248 -54.9805 L 79.2969 -54.9805 L 79.2969 -44.0918 L 29.248 -44.0918 C 20.5078 -44.0918 16.0645 -39.8926 16.0645 -31.1035 L 16.0645 -7.32422 C 16.0645 1.51367 20.5078 5.71289 29.248 5.71289 Z M 29.834 -63.1348 C 26.123 -63.1348 24.2188 -64.9902 24.2188 -68.8477 L 24.2188 -90.9668 C 24.2188 -94.8242 26.123 -96.6309 29.834 -96.6309 L 136.523 -96.6309 C 140.283 -96.6309 142.188 -94.8242 142.188 -90.9668 L 142.188 -68.8477 C 142.188 -64.9902 140.283 -63.1348 136.523 -63.1348 Z M 29.834 -2.44141 C 26.123 -2.44141 24.2188 -4.29688 24.2188 -8.10547 L 24.2188 -30.2734 C 24.2188 -34.1309 26.123 -35.9375 29.834 -35.9375 L 136.523 -35.9375 C 140.283 -35.9375 142.188 -34.1309 142.188 -30.2734 L 142.188 -8.10547 C 142.188 -4.29688 140.283 -2.44141 136.523 -2.44141 Z"/>
  </g>
  <g id="Medium-L" transform="matrix(1 0 0 1 1661.5 1556)">
   <path d="M 30.4199 6.73828 L 80.2734 6.73828 L 80.2734 17.1875 L 70.4102 17.1875 C 65.9668 17.1875 64.209 21.6309 67.0898 25 L 81.6895 41.9922 C 83.6914 44.2383 86.7188 44.2383 88.623 41.9922 L 103.174 25 C 105.908 21.6797 104.199 17.1875 99.8535 17.1875 L 89.8926 17.1875 L 89.8926 6.73828 L 139.697 6.73828 C 149.268 6.73828 154.053 2.14844 154.053 -7.51953 L 154.053 -30.0293 C 154.053 -39.6973 149.268 -44.2383 139.697 -44.2383 L 89.8438 -44.2383 L 89.8438 -54.4922 L 139.697 -54.4922 C 149.268 -54.4922 154.053 -59.082 154.053 -68.75 L 154.053 -91.2598 C 154.053 -100.928 149.268 -105.469 139.697 -105.469 L 30.4199 -105.469 C 20.8496 -105.469 16.0645 -100.928 16.0645 -91.2598 L 16.0645 -68.75 C 16.0645 -59.082 20.8496 -54.4922 30.4199 -54.4922 L 80.3223 -54.4922 L 80.3223 -44.2383 L 30.4199 -44.2383 C 20.8496 -44.2383 16.0645 -39.6973 16.0645 -30.0293 L 16.0645 -7.51953 C 16.0645 2.14844 20.8496 6.73828 30.4199 6.73828 Z M 30.957 -64.0625 C 27.4414 -64.0625 25.6348 -65.8203 25.6348 -69.4336 L 25.6348 -90.5273 C 25.6348 -94.2383 27.4414 -95.9473 30.957 -95.9473 L 139.16 -95.9473 C 142.725 -95.9473 144.482 -94.2383 144.482 -90.5273 L 144.482 -69.4336 C 144.482 -65.8203 142.725 -64.0625 139.16 -64.0625 Z M 30.957 -2.83203 C 27.4414 -2.83203 25.6348 -4.58984 25.6348 -8.20312 L 25.6348 -29.2969 C 25.6348 -33.0078 27.4414 -34.668 30.957 -34.668 L 139.16 -34.668 C 142.725 -34.668 144.482 -33.0078 144.482 -29.2969 L 144.482 -8.20312 C 144.482 -4.58984 142.725 -2.83203 139.16 -2.83203 Z"/>
  </g>
  <g id="Semibold-L" transform="matrix(1 0 0 1 1956.77 1556)">
   <path d="M 31.3477 7.4707 L 81.1035 7.4707 L 81.1035 17.627 L 71.3379 17.627 C 66.6016 17.627 64.6973 22.3633 67.7734 25.8789 L 83.0078 43.5059 C 85.0586 45.8008 88.2324 45.8496 90.1855 43.5059 L 105.322 25.8789 C 108.301 22.4121 106.445 17.627 101.855 17.627 L 91.9434 17.627 L 91.9434 7.4707 L 141.65 7.4707 C 151.904 7.4707 156.885 2.63672 156.885 -7.66602 L 156.885 -29.248 C 156.885 -39.502 151.904 -44.3848 141.65 -44.3848 L 91.8945 -44.3848 L 91.8945 -54.1504 L 141.65 -54.1504 C 151.904 -54.1504 156.885 -58.9844 156.885 -69.3359 L 156.885 -90.8691 C 156.885 -101.172 151.904 -106.006 141.65 -106.006 L 31.3477 -106.006 C 21.0938 -106.006 16.0645 -101.172 16.0645 -90.8691 L 16.0645 -69.3359 C 16.0645 -58.9844 21.0938 -54.1504 31.3477 -54.1504 L 81.1035 -54.1504 L 81.1035 -44.3848 L 31.3477 -44.3848 C 21.0938 -44.3848 16.0645 -39.502 16.0645 -29.248 L 16.0645 -7.66602 C 16.0645 2.63672 21.0938 7.4707 31.3477 7.4707 Z M 31.7871 -64.7949 C 28.418 -64.7949 26.709 -66.4551 26.709 -69.9219 L 26.709 -90.2344 C 26.709 -93.75 28.418 -95.3613 31.7871 -95.3613 L 141.162 -95.3613 C 144.58 -95.3613 146.289 -93.75 146.289 -90.2344 L 146.289 -69.9219 C 146.289 -66.4551 144.58 -64.7949 141.162 -64.7949 Z M 31.7871 -3.125 C 28.418 -3.125 26.709 -4.78516 26.709 -8.30078 L 26.709 -28.5645 C 26.709 -32.1289 28.418 -33.7402 31.7871 -33.7402 L 141.162 -33.7402 C 144.58 -33.7402 146.289 -32.1289 146.289 -28.5645 L 146.289 -8.30078 C 146.289 -4.78516 144.58 -3.125 141.162 -3.125 Z"/>
  </g>
  <g id="Bold-L" transform="matrix(1 0 0 1 2251.6 1556)">
   <path d="M 32.5195 8.49609 L 82.1289 8.49609 L 82.1289 18.2129 L 72.5098 18.2129 C 67.3828 18.2129 65.332 23.291 68.6523 27.0508 L 84.668 45.5078 C 86.8164 47.9004 90.1855 47.9492 92.2852 45.5078 L 108.203 27.0508 C 111.377 23.3398 109.424 18.2129 104.492 18.2129 L 94.6289 18.2129 L 94.6289 8.49609 L 144.189 8.49609 C 155.322 8.49609 160.645 3.27148 160.645 -7.86133 L 160.645 -28.1738 C 160.645 -39.3066 155.322 -44.5312 144.189 -44.5312 L 94.6289 -44.5312 L 94.6289 -53.7109 L 144.189 -53.7109 C 155.322 -53.7109 160.645 -58.8867 160.645 -70.0684 L 160.645 -90.3809 C 160.645 -101.465 155.322 -106.689 144.189 -106.689 L 32.5195 -106.689 C 21.4355 -106.689 16.0645 -101.465 16.0645 -90.3809 L 16.0645 -70.0684 C 16.0645 -58.8867 21.4355 -53.7109 32.5195 -53.7109 L 82.1777 -53.7109 L 82.1777 -44.5312 L 32.5195 -44.5312 C 21.4355 -44.5312 16.0645 -39.3066 16.0645 -28.1738 L 16.0645 -7.86133 C 16.0645 3.27148 21.4355 8.49609 32.5195 8.49609 Z M 32.9102 -65.7227 C 29.7363 -65.7227 28.125 -67.2852 28.125 -70.5566 L 28.125 -89.7949 C 28.125 -93.1152 29.7363 -94.6289 32.9102 -94.6289 L 143.799 -94.6289 C 147.021 -94.6289 148.633 -93.1152 148.633 -89.7949 L 148.633 -70.5566 C 148.633 -67.2852 147.021 -65.7227 143.799 -65.7227 Z M 32.9102 -3.56445 C 29.7363 -3.56445 28.125 -5.12695 28.125 -8.39844 L 28.125 -27.6367 C 28.125 -30.957 29.7363 -32.4707 32.9102 -32.4707 L 143.799 -32.4707 C 147.021 -32.4707 148.633 -30.957 148.633 -27.6367 L 148.633 -8.39844 C 148.633 -5.12695 147.021 -3.56445 143.799 -3.56445 Z"/>
  </g>
  <g id="Heavy-L" transform="matrix(1 0 0 1 2545.6 1556)">
   <path d="M 34.2773 9.96094 L 83.6914 9.96094 L 83.6914 19.0918 L 74.2188 19.0918 C 68.5547 19.0918 66.3086 24.6094 69.9219 28.7598 L 87.1094 48.3398 C 89.4043 50.9766 93.0664 50.9766 95.3125 48.3398 L 112.354 28.7598 C 115.918 24.707 113.672 19.0918 108.252 19.0918 L 98.5352 19.0918 L 98.5352 9.96094 L 147.949 9.96094 C 160.303 9.96094 166.113 4.19922 166.113 -8.1543 L 166.113 -26.6113 C 166.113 -38.9648 160.303 -44.7266 147.949 -44.7266 L 98.5352 -44.7266 L 98.5352 -53.0273 L 147.949 -53.0273 C 160.303 -53.0273 166.113 -58.7402 166.113 -71.1426 L 166.113 -89.5996 C 166.113 -101.953 160.303 -107.715 147.949 -107.715 L 34.2773 -107.715 C 21.9238 -107.715 16.0645 -101.953 16.0645 -89.5996 L 16.0645 -71.1426 C 16.0645 -58.7402 21.9238 -53.0273 34.2773 -53.0273 L 83.6914 -53.0273 L 83.6914 -44.7266 L 34.2773 -44.7266 C 21.9238 -44.7266 16.0645 -38.9648 16.0645 -26.6113 L 16.0645 -8.1543 C 16.0645 4.19922 21.9238 9.96094 34.2773 9.96094 Z M 34.5215 -67.0898 C 31.6406 -67.0898 30.1758 -68.5059 30.1758 -71.4844 L 30.1758 -89.209 C 30.1758 -92.2363 31.6406 -93.6035 34.5215 -93.6035 L 147.656 -93.6035 C 150.586 -93.6035 152.002 -92.2363 152.002 -89.209 L 152.002 -71.4844 C 152.002 -68.5059 150.586 -67.0898 147.656 -67.0898 Z M 34.5215 -4.15039 C 31.6406 -4.15039 30.1758 -5.56641 30.1758 -8.54492 L 30.1758 -26.2695 C 30.1758 -29.248 31.6406 -30.6152 34.5215 -30.6152 L 147.656 -30.6152 C 150.586 -30.6152 152.002 -29.248 152.002 -26.2695 L 152.002 -8.54492 C 152.002 -5.56641 150.586 -4.15039 147.656 -4.15039 Z"/>
  </g>
  <g id="Black-L" transform="matrix(1 0 0 1 2839.87 1556)">
   <path d="M 35.8398 11.2793 L 85.0586 11.2793 L 85.0586 19.8242 L 75.7324 19.8242 C 69.5801 19.8242 67.1387 25.8301 71.0938 30.3223 L 89.2578 50.9277 C 91.748 53.7109 95.6055 53.7109 97.998 50.9277 L 116.064 30.3223 C 119.971 25.8789 117.529 19.8242 111.621 19.8242 L 102.051 19.8242 L 102.051 11.2793 L 151.221 11.2793 C 164.746 11.2793 170.996 5.0293 170.996 -8.44727 L 170.996 -25.2441 C 170.996 -38.6719 164.746 -44.9219 151.221 -44.9219 L 102.051 -44.9219 L 102.051 -52.3926 L 151.221 -52.3926 C 164.746 -52.3926 170.996 -58.6426 170.996 -72.1191 L 170.996 -88.916 C 170.996 -102.344 164.746 -108.594 151.221 -108.594 L 35.8398 -108.594 C 22.3633 -108.594 16.0645 -102.344 16.0645 -88.916 L 16.0645 -72.1191 C 16.0645 -58.6426 22.3633 -52.3926 35.8398 -52.3926 L 85.0586 -52.3926 L 85.0586 -44.9219 L 35.8398 -44.9219 C 22.3633 -44.9219 16.0645 -38.6719 16.0645 -25.2441 L 16.0645 -8.44727 C 16.0645 5.0293 22.3633 11.2793 35.8398 11.2793 Z M 35.9375 -68.3105 C 33.3008 -68.3105 32.0312 -69.5801 32.0312 -72.3145 L 32.0312 -88.6719 C 32.0312 -91.4062 33.3008 -92.6758 35.9375 -92.6758 L 151.074 -92.6758 C 153.76 -92.6758 155.078 -91.4062 155.078 -88.6719 L 155.078 -72.3145 C 155.078 -69.5801 153.76 -68.3105 151.074 -68.3105 Z M 35.9375 -4.63867 C 33.3008 -4.63867 32.0312 -5.9082 32.0312 -8.64258 L 32.0312 -25 C 32.0312 -27.7344 33.3008 -29.0039 35.9375 -29.0039 L 151.074 -29.0039 C 153.76 -29.0039 155.078 -27.7344 155.078 -25 L 155.078 -8.64258 C 155.078 -5.9082 153.76 -4.63867 151.074 -4.63867 Z"/>
  </g>
 </g>
</svg>
