<?xml version="1.0" encoding="UTF-8"?>
<!--Generator: Apple Native CoreSVG 123-->
<!DOCTYPE svg
PUBLIC "-//W3C//DTD SVG 1.1//EN"
       "http://www.w3.org/Graphics/SVG/1.1/DTD/svg11.dtd">
<svg version="1.1" xmlns="http://www.w3.org/2000/svg" xmlns:xlink="http://www.w3.org/1999/xlink" width="3300" height="2200">
 <!--glyph: "uni10037D.medium", point size: 100.000000, font version: "Version 15.0d4e20", template writer version: "2"-->
 <g id="Notes">
  <rect height="2200" id="artboard" style="fill:white;opacity:1" width="3300" x="0" y="0"/>
  <line id="" style="fill:none;stroke:black;opacity:1;stroke-width:0.5;" x1="263" x2="3036" y1="292" y2="292"/>
  <text style="stroke:none;fill:black;font-family:-apple-system,&quot;SF Pro Display&quot;,&quot;SF Pro Text&quot;,Helvetica,sans-serif;font-weight:bold;" transform="matrix(1 0 0 1 263 322)">Weight/Scale Variations</text>
  <text style="stroke:none;fill:black;font-family:-apple-system,&quot;SF Pro Display&quot;,&quot;SF Pro Text&quot;,Helvetica,sans-serif;text-anchor:middle;" transform="matrix(1 0 0 1 559.711 322)">Ultralight</text>
  <text style="stroke:none;fill:black;font-family:-apple-system,&quot;SF Pro Display&quot;,&quot;SF Pro Text&quot;,Helvetica,sans-serif;text-anchor:middle;" transform="matrix(1 0 0 1 856.422 322)">Thin</text>
  <text style="stroke:none;fill:black;font-family:-apple-system,&quot;SF Pro Display&quot;,&quot;SF Pro Text&quot;,Helvetica,sans-serif;text-anchor:middle;" transform="matrix(1 0 0 1 1153.13 322)">Light</text>
  <text style="stroke:none;fill:black;font-family:-apple-system,&quot;SF Pro Display&quot;,&quot;SF Pro Text&quot;,Helvetica,sans-serif;text-anchor:middle;" transform="matrix(1 0 0 1 1449.84 322)">Regular</text>
  <text style="stroke:none;fill:black;font-family:-apple-system,&quot;SF Pro Display&quot;,&quot;SF Pro Text&quot;,Helvetica,sans-serif;text-anchor:middle;" transform="matrix(1 0 0 1 1746.56 322)">Medium</text>
  <text style="stroke:none;fill:black;font-family:-apple-system,&quot;SF Pro Display&quot;,&quot;SF Pro Text&quot;,Helvetica,sans-serif;text-anchor:middle;" transform="matrix(1 0 0 1 2043.27 322)">Semibold</text>
  <text style="stroke:none;fill:black;font-family:-apple-system,&quot;SF Pro Display&quot;,&quot;SF Pro Text&quot;,Helvetica,sans-serif;text-anchor:middle;" transform="matrix(1 0 0 1 2339.98 322)">Bold</text>
  <text style="stroke:none;fill:black;font-family:-apple-system,&quot;SF Pro Display&quot;,&quot;SF Pro Text&quot;,Helvetica,sans-serif;text-anchor:middle;" transform="matrix(1 0 0 1 2636.69 322)">Heavy</text>
  <text style="stroke:none;fill:black;font-family:-apple-system,&quot;SF Pro Display&quot;,&quot;SF Pro Text&quot;,Helvetica,sans-serif;text-anchor:middle;" transform="matrix(1 0 0 1 2933.4 322)">Black</text>
  <line id="" style="fill:none;stroke:black;opacity:1;stroke-width:0.5;" x1="263" x2="3036" y1="1903" y2="1903"/>
  <g id="" transform="matrix(1 0 0 1 263 1933)">
   <path d="M 9.24805 0.830078 C 13.5547 0.830078 17.1387 -2.74414 17.1387 -7.05078 C 17.1387 -11.3574 13.5449 -14.9316 9.23828 -14.9316 C 4.94141 -14.9316 1.36719 -11.3574 1.36719 -7.05078 C 1.36719 -2.74414 4.95117 0.830078 9.24805 0.830078 Z M 9.24805 -0.654297 C 5.70312 -0.654297 2.87109 -3.49609 2.87109 -7.05078 C 2.87109 -10.6055 5.69336 -13.4473 9.23828 -13.4473 C 12.793 -13.4473 15.6348 -10.6055 15.6445 -7.05078 C 15.6543 -3.49609 12.8027 -0.654297 9.24805 -0.654297 Z M 9.22852 -3.42773 C 9.69727 -3.42773 9.9707 -3.74023 9.9707 -4.25781 L 9.9707 -6.31836 L 12.1973 -6.31836 C 12.6953 -6.31836 13.0371 -6.57227 13.0371 -7.04102 C 13.0371 -7.51953 12.7148 -7.7832 12.1973 -7.7832 L 9.9707 -7.7832 L 9.9707 -10.0098 C 9.9707 -10.5273 9.69727 -10.8496 9.22852 -10.8496 C 8.75977 -10.8496 8.50586 -10.5078 8.50586 -10.0098 L 8.50586 -7.7832 L 6.29883 -7.7832 C 5.78125 -7.7832 5.44922 -7.51953 5.44922 -7.04102 C 5.44922 -6.57227 5.80078 -6.31836 6.29883 -6.31836 L 8.50586 -6.31836 L 8.50586 -4.25781 C 8.50586 -3.75977 8.75977 -3.42773 9.22852 -3.42773 Z"/>
  </g>
  <g id="" transform="matrix(1 0 0 1 281.506 1933)">
   <path d="M 11.709 2.91016 C 17.1484 2.91016 21.6699 -1.60156 21.6699 -7.05078 C 21.6699 -12.4902 17.1387 -17.0117 11.6992 -17.0117 C 6.25 -17.0117 1.74805 -12.4902 1.74805 -7.05078 C 1.74805 -1.60156 6.25977 2.91016 11.709 2.91016 Z M 11.709 1.25 C 7.09961 1.25 3.41797 -2.44141 3.41797 -7.05078 C 3.41797 -11.6504 7.08984 -15.3516 11.6992 -15.3516 C 16.2988 -15.3516 20 -11.6504 20.0098 -7.05078 C 20.0195 -2.44141 16.3086 1.25 11.709 1.25 Z M 11.6797 -2.41211 C 12.207 -2.41211 12.5195 -2.77344 12.5195 -3.33984 L 12.5195 -6.23047 L 15.5762 -6.23047 C 16.123 -6.23047 16.5039 -6.51367 16.5039 -7.03125 C 16.5039 -7.55859 16.1426 -7.86133 15.5762 -7.86133 L 12.5195 -7.86133 L 12.5195 -10.9277 C 12.5195 -11.5039 12.207 -11.8555 11.6797 -11.8555 C 11.1621 -11.8555 10.8789 -11.4844 10.8789 -10.9277 L 10.8789 -7.86133 L 7.83203 -7.86133 C 7.25586 -7.86133 6.89453 -7.55859 6.89453 -7.03125 C 6.89453 -6.51367 7.28516 -6.23047 7.83203 -6.23047 L 10.8789 -6.23047 L 10.8789 -3.33984 C 10.8789 -2.79297 11.1621 -2.41211 11.6797 -2.41211 Z"/>
  </g>
  <g id="" transform="matrix(1 0 0 1 304.914 1933)">
   <path d="M 14.9707 5.67383 C 21.9336 5.67383 27.6855 -0.078125 27.6855 -7.04102 C 27.6855 -14.0039 21.9238 -19.7559 14.9609 -19.7559 C 7.99805 -19.7559 2.25586 -14.0039 2.25586 -7.04102 C 2.25586 -0.078125 8.00781 5.67383 14.9707 5.67383 Z M 14.9707 3.85742 C 8.92578 3.85742 4.08203 -1.00586 4.08203 -7.04102 C 4.08203 -13.0762 8.91602 -17.9395 14.9609 -17.9395 C 20.9961 -17.9395 25.8594 -13.0762 25.8691 -7.04102 C 25.8789 -1.00586 21.0059 3.85742 14.9707 3.85742 Z M 14.9414 -1.06445 C 15.5176 -1.06445 15.8594 -1.45508 15.8594 -2.06055 L 15.8594 -6.13281 L 20.0977 -6.13281 C 20.6934 -6.13281 21.1133 -6.46484 21.1133 -7.02148 C 21.1133 -7.59766 20.7227 -7.93945 20.0977 -7.93945 L 15.8594 -7.93945 L 15.8594 -12.1875 C 15.8594 -12.8027 15.5176 -13.1934 14.9414 -13.1934 C 14.3848 -13.1934 14.0625 -12.7832 14.0625 -12.1875 L 14.0625 -7.93945 L 9.82422 -7.93945 C 9.20898 -7.93945 8.80859 -7.59766 8.80859 -7.02148 C 8.80859 -6.46484 9.23828 -6.13281 9.82422 -6.13281 L 14.0625 -6.13281 L 14.0625 -2.06055 C 14.0625 -1.47461 14.3848 -1.06445 14.9414 -1.06445 Z"/>
  </g>
  <text style="stroke:none;fill:black;font-family:-apple-system,&quot;SF Pro Display&quot;,&quot;SF Pro Text&quot;,Helvetica,sans-serif;font-weight:bold;" transform="matrix(1 0 0 1 263 1953)">Design Variations</text>
  <text style="stroke:none;fill:black;font-family:-apple-system,&quot;SF Pro Display&quot;,&quot;SF Pro Text&quot;,Helvetica,sans-serif;" transform="matrix(1 0 0 1 263 1971)">Symbols are supported in up to nine weights and three scales.</text>
  <text style="stroke:none;fill:black;font-family:-apple-system,&quot;SF Pro Display&quot;,&quot;SF Pro Text&quot;,Helvetica,sans-serif;" transform="matrix(1 0 0 1 263 1989)">For optimal layout with text and other symbols, vertically align</text>
  <text style="stroke:none;fill:black;font-family:-apple-system,&quot;SF Pro Display&quot;,&quot;SF Pro Text&quot;,Helvetica,sans-serif;" transform="matrix(1 0 0 1 263 2007)">symbols with the adjacent text.</text>
  <rect height="14" id="" style="fill:#00AEEF;stroke:none;opacity:0.4;" width="3" x="776" y="1919"/>
  <g id="" transform="matrix(1 0 0 1 779 1933)">
   <path d="M 10.5273 0 L 12.373 0 L 7.17773 -14.0918 L 5.43945 -14.0918 L 0.244141 0 L 2.08984 0 L 3.50586 -4.0332 L 9.11133 -4.0332 Z M 6.2793 -11.9531 L 6.33789 -11.9531 L 8.59375 -5.52734 L 4.02344 -5.52734 Z"/>
  </g>
  <rect height="14" id="" style="fill:#00AEEF;stroke:none;opacity:0.4;" width="3" x="791.617" y="1919"/>
  <text style="stroke:none;fill:black;font-family:-apple-system,&quot;SF Pro Display&quot;,&quot;SF Pro Text&quot;,Helvetica,sans-serif;font-weight:bold;" transform="matrix(1 0 0 1 776 1953)">Side Bearings</text>
  <text style="stroke:none;fill:black;font-family:-apple-system,&quot;SF Pro Display&quot;,&quot;SF Pro Text&quot;,Helvetica,sans-serif;" transform="matrix(1 0 0 1 776 1971)">Horizontal padding on the left and right side of each symbol</text>
  <text style="stroke:none;fill:black;font-family:-apple-system,&quot;SF Pro Display&quot;,&quot;SF Pro Text&quot;,Helvetica,sans-serif;" transform="matrix(1 0 0 1 776 1989)">can be adjusted by modifying the width of the blue rectangles.</text>
  <text style="stroke:none;fill:black;font-family:-apple-system,&quot;SF Pro Display&quot;,&quot;SF Pro Text&quot;,Helvetica,sans-serif;" transform="matrix(1 0 0 1 776 2007)">Modifications are automatically applied proportionally to all</text>
  <text style="stroke:none;fill:black;font-family:-apple-system,&quot;SF Pro Display&quot;,&quot;SF Pro Text&quot;,Helvetica,sans-serif;" transform="matrix(1 0 0 1 776 2025)">scales and weights.</text>
  <g id="" transform="matrix(1 0 0 1 1289 1933)">
   <path d="M 2.96875 2.35352 L 3.80859 3.19336 C 4.84375 4.22852 6.12305 4.15039 7.19727 2.97852 L 16.1621 -6.82617 C 16.5527 -6.74805 16.9629 -6.8457 17.4902 -7.02148 C 18.1738 -7.25586 18.2715 -7.25586 18.3887 -7.13867 C 18.5352 -7.01172 18.4863 -6.89453 18.2422 -6.25 C 17.8809 -5.33203 17.8125 -4.79492 18.5547 -4.02344 L 19.4238 -3.13477 C 20.2734 -2.24609 21.3281 -2.26562 22.2168 -3.14453 L 25.0586 -5.97656 C 25.9473 -6.86523 25.957 -7.92969 25.0781 -8.7793 L 24.1797 -9.64844 C 23.4082 -10.4004 22.8711 -10.3516 21.9629 -9.98047 C 21.3184 -9.72656 21.2012 -9.6875 21.0645 -9.81445 C 20.9375 -9.93164 20.9473 -10.0391 21.1816 -10.7129 C 21.5332 -11.6895 21.5723 -12.2852 20.752 -13.0957 L 19.3359 -14.5117 C 15.1953 -18.6133 11.2305 -18.7402 7.65625 -15.4395 C 7.08008 -14.9023 6.99219 -14.1504 7.53906 -13.6133 L 7.79297 -13.3594 C 8.22266 -12.9297 8.86719 -12.8418 9.41406 -13.1152 C 11.0645 -13.9453 12.2559 -14.0234 13.457 -12.9785 L 13.0273 -11.416 C 12.8516 -10.8008 12.793 -10.3418 12.9199 -9.93164 L 3.18359 -1.04492 C 2.02148 0.0292969 1.93359 1.32812 2.96875 2.35352 Z M 8.96484 -14.4922 C 8.89648 -14.5703 8.86719 -14.6582 8.99414 -14.7559 C 11.709 -17.2852 15.0391 -16.8457 18.3496 -13.5254 L 19.6973 -12.168 C 20.0879 -11.7773 20.0977 -11.582 19.8828 -10.8691 C 19.6582 -10.127 19.502 -9.53125 20.1465 -8.88672 C 20.8105 -8.22266 21.2891 -8.41797 22.207 -8.63281 C 22.9004 -8.79883 23.0664 -8.79883 23.4473 -8.41797 L 24.0918 -7.77344 C 24.4043 -7.48047 24.4141 -7.32422 24.0723 -6.97266 L 21.2207 -4.13086 C 20.8887 -3.79883 20.7227 -3.79883 20.4297 -4.10156 L 19.7852 -4.75586 C 19.4141 -5.13672 19.4141 -5.30273 19.5801 -6.01562 C 19.7852 -6.88477 19.9805 -7.38281 19.3262 -8.04688 C 18.6719 -8.7207 18.0762 -8.57422 17.3438 -8.33008 C 16.5625 -8.06641 16.3281 -8.06641 15.8984 -8.49609 L 14.6094 -9.78516 C 14.1699 -10.2246 14.1309 -10.4395 14.2676 -10.9082 L 15.0293 -13.3984 C 13.3887 -15.2832 11.4941 -15.5566 9.20898 -14.4434 C 9.11133 -14.3945 9.04297 -14.4141 8.96484 -14.4922 Z M 3.96484 1.36719 C 3.52539 0.927734 3.54492 0.537109 4.14062 -0.00976562 L 13.7402 -8.81836 L 15 -7.55859 L 6.17188 2.02148 C 5.625 2.60742 5.24414 2.64648 4.79492 2.19727 Z"/>
  </g>
  <text style="stroke:none;fill:black;font-family:-apple-system,&quot;SF Pro Display&quot;,&quot;SF Pro Text&quot;,Helvetica,sans-serif;font-weight:bold;" transform="matrix(1 0 0 1 1289 1953)">Exporting</text>
  <text style="stroke:none;fill:black;font-family:-apple-system,&quot;SF Pro Display&quot;,&quot;SF Pro Text&quot;,Helvetica,sans-serif;" transform="matrix(1 0 0 1 1289 1971)">Symbols should be outlined when exporting to ensure the</text>
  <text style="stroke:none;fill:black;font-family:-apple-system,&quot;SF Pro Display&quot;,&quot;SF Pro Text&quot;,Helvetica,sans-serif;" transform="matrix(1 0 0 1 1289 1989)">design is preserved when submitting to Xcode.</text>
  <text id="template-version" style="stroke:none;fill:black;font-family:-apple-system,&quot;SF Pro Display&quot;,&quot;SF Pro Text&quot;,Helvetica,sans-serif;text-anchor:end;" transform="matrix(1 0 0 1 3036 1933)">Template v.0.1</text>
  <text style="stroke:none;fill:black;font-family:-apple-system,&quot;SF Pro Display&quot;,&quot;SF Pro Text&quot;,Helvetica,sans-serif;text-anchor:end;" transform="matrix(1 0 0 1 3036 1951)">Generated from gauge</text>
  <text style="stroke:none;fill:black;font-family:-apple-system,&quot;SF Pro Display&quot;,&quot;SF Pro Text&quot;,Helvetica,sans-serif;text-anchor:end;" transform="matrix(1 0 0 1 3036 1969)">Typeset at 100 points</text>
  <text style="stroke:none;fill:black;font-family:-apple-system,&quot;SF Pro Display&quot;,&quot;SF Pro Text&quot;,Helvetica,sans-serif;" transform="matrix(1 0 0 1 263 726)">Small</text>
  <text style="stroke:none;fill:black;font-family:-apple-system,&quot;SF Pro Display&quot;,&quot;SF Pro Text&quot;,Helvetica,sans-serif;" transform="matrix(1 0 0 1 263 1156)">Medium</text>
  <text style="stroke:none;fill:black;font-family:-apple-system,&quot;SF Pro Display&quot;,&quot;SF Pro Text&quot;,Helvetica,sans-serif;" transform="matrix(1 0 0 1 263 1586)">Large</text>
 </g>
 <g id="Guides">
  <g id="H-reference" style="fill:#27AAE1;stroke:none;" transform="matrix(1 0 0 1 339 696)">
   <path d="M 54.9316 0 L 57.666 0 L 30.5664 -70.459 L 28.0762 -70.459 L 0.976562 0 L 3.66211 0 L 12.9395 -24.4629 L 45.7031 -24.4629 Z M 29.1992 -67.0898 L 29.4434 -67.0898 L 44.8242 -26.709 L 13.8184 -26.709 Z"/>
  </g>
  <line id="Baseline-S" style="fill:none;stroke:#27AAE1;opacity:1;stroke-width:0.577;" x1="263" x2="3036" y1="696" y2="696"/>
  <line id="Capline-S" style="fill:none;stroke:#27AAE1;opacity:1;stroke-width:0.577;" x1="263" x2="3036" y1="625.541" y2="625.541"/>
  <g id="H-reference" style="fill:#27AAE1;stroke:none;" transform="matrix(1 0 0 1 339 1126)">
   <path d="M 54.9316 0 L 57.666 0 L 30.5664 -70.459 L 28.0762 -70.459 L 0.976562 0 L 3.66211 0 L 12.9395 -24.4629 L 45.7031 -24.4629 Z M 29.1992 -67.0898 L 29.4434 -67.0898 L 44.8242 -26.709 L 13.8184 -26.709 Z"/>
  </g>
  <line id="Baseline-M" style="fill:none;stroke:#27AAE1;opacity:1;stroke-width:0.577;" x1="263" x2="3036" y1="1126" y2="1126"/>
  <line id="Capline-M" style="fill:none;stroke:#27AAE1;opacity:1;stroke-width:0.577;" x1="263" x2="3036" y1="1055.54" y2="1055.54"/>
  <g id="H-reference" style="fill:#27AAE1;stroke:none;" transform="matrix(1 0 0 1 339 1556)">
   <path d="M 54.9316 0 L 57.666 0 L 30.5664 -70.459 L 28.0762 -70.459 L 0.976562 0 L 3.66211 0 L 12.9395 -24.4629 L 45.7031 -24.4629 Z M 29.1992 -67.0898 L 29.4434 -67.0898 L 44.8242 -26.709 L 13.8184 -26.709 Z"/>
  </g>
  <line id="Baseline-L" style="fill:none;stroke:#27AAE1;opacity:1;stroke-width:0.577;" x1="263" x2="3036" y1="1556" y2="1556"/>
  <line id="Capline-L" style="fill:none;stroke:#27AAE1;opacity:1;stroke-width:0.577;" x1="263" x2="3036" y1="1485.54" y2="1485.54"/>
  <rect height="119.336" id="left-margin" style="fill:#00AEEF;stroke:none;opacity:0.4;" width="8.74023" x="1391.32" y="1030.79"/>
  <rect height="119.336" id="right-margin" style="fill:#00AEEF;stroke:none;opacity:0.4;" width="8.69141" x="1499.67" y="1030.79"/>
 </g>
 <g id="Symbols">
  <g id="Ultralight-S" transform="matrix(1 0 0 1 515.644 696)">
   <path d="M 44.043 2.05078 C 64.502 2.05078 81.2988 -14.6973 81.2988 -35.1562 C 81.2988 -55.6152 64.502 -72.3633 44.043 -72.3633 C 23.584 -72.3633 6.83594 -55.6152 6.83594 -35.1562 C 6.83594 -14.6973 23.584 2.05078 44.043 2.05078 Z M 44.043 -0.146484 C 24.7559 -0.146484 9.08203 -15.8691 9.08203 -35.1562 C 9.08203 -54.4434 24.7559 -70.166 44.043 -70.166 C 63.3789 -70.166 79.0527 -54.4434 79.0527 -35.1562 C 79.0527 -15.8691 63.3789 -0.146484 44.043 -0.146484 Z M 44.043 -52.9297 C 45.752 -52.9297 47.1191 -54.2969 47.1191 -55.957 C 47.1191 -57.666 45.752 -59.0332 44.043 -59.0332 C 42.3828 -59.0332 40.9668 -57.666 40.9668 -55.957 C 40.9668 -54.2969 42.3828 -52.9297 44.043 -52.9297 Z M 54.7363 -49.9023 C 56.3965 -49.9023 57.8125 -51.2695 57.8125 -52.9785 C 57.8125 -54.6387 56.3965 -56.0547 54.7363 -56.0547 C 53.0273 -56.0547 51.6602 -54.6387 51.6602 -52.9785 C 51.6602 -51.2695 53.0273 -49.9023 54.7363 -49.9023 Z M 33.4473 -49.8535 C 35.1562 -49.8535 36.5234 -51.2695 36.5234 -52.9297 C 36.5234 -54.6387 35.1562 -56.0059 33.4473 -56.0059 C 31.7871 -56.0059 30.3711 -54.6387 30.3711 -52.9297 C 30.3711 -51.2695 31.7871 -49.8535 33.4473 -49.8535 Z M 25.5371 -42.4316 C 27.1973 -42.4316 28.6133 -43.8477 28.6133 -45.5078 C 28.6133 -47.2168 27.1973 -48.584 25.5371 -48.584 C 23.8281 -48.584 22.4609 -47.2168 22.4609 -45.5078 C 22.4609 -43.8477 23.8281 -42.4316 25.5371 -42.4316 Z M 62.6465 -42.4316 C 64.3555 -42.4316 65.7227 -43.8477 65.7227 -45.5078 C 65.7227 -47.2168 64.3555 -48.584 62.6465 -48.584 C 60.9863 -48.584 59.5703 -47.2168 59.5703 -45.5078 C 59.5703 -43.8477 60.9863 -42.4316 62.6465 -42.4316 Z M 44.0918 -14.6484 C 46.5332 -14.6484 48.4375 -16.6504 48.4375 -19.0918 C 48.4375 -21.0938 47.1191 -22.7539 45.3613 -23.291 L 45.3613 -41.9434 C 45.3613 -42.6758 44.8242 -43.2129 44.0918 -43.2129 C 43.4082 -43.2129 42.8711 -42.6758 42.8711 -41.9434 L 42.8711 -23.291 C 41.0156 -22.7539 39.6973 -21.0938 39.6973 -19.0918 C 39.6973 -16.6504 41.6504 -14.6484 44.0918 -14.6484 Z"/>
  </g>
  <g id="Thin-S" transform="matrix(1 0 0 1 811.867 696)">
   <path d="M 44.5801 2.53906 C 65.2832 2.53906 82.2754 -14.4531 82.2754 -35.2051 C 82.2754 -55.9082 65.2344 -72.9004 44.5312 -72.9004 C 23.8281 -72.9004 6.83594 -55.9082 6.83594 -35.2051 C 6.83594 -14.4531 23.877 2.53906 44.5801 2.53906 Z M 44.5801 -0.878906 C 25.5859 -0.878906 10.2539 -16.2109 10.2539 -35.2051 C 10.2539 -54.1504 25.5859 -69.4824 44.5312 -69.4824 C 63.5254 -69.4824 78.8574 -54.1504 78.8574 -35.2051 C 78.8574 -16.2109 63.5254 -0.878906 44.5801 -0.878906 Z M 44.5312 -52.832 C 46.3379 -52.832 47.8027 -54.2969 47.8027 -56.1035 C 47.8027 -57.8613 46.3379 -59.3262 44.5312 -59.3262 C 42.7734 -59.3262 41.3086 -57.8613 41.3086 -56.1035 C 41.3086 -54.2969 42.7734 -52.832 44.5312 -52.832 Z M 55.3223 -49.707 C 57.1289 -49.707 58.5938 -51.1719 58.5938 -52.9785 C 58.5938 -54.7852 57.1289 -56.25 55.3223 -56.25 C 53.5156 -56.25 52.0508 -54.7852 52.0508 -52.9785 C 52.0508 -51.1719 53.5156 -49.707 55.3223 -49.707 Z M 33.6914 -49.6582 C 35.498 -49.6582 36.9629 -51.123 36.9629 -52.9297 C 36.9629 -54.7363 35.498 -56.2012 33.6914 -56.2012 C 31.8848 -56.2012 30.4199 -54.7363 30.4199 -52.9297 C 30.4199 -51.123 31.8848 -49.6582 33.6914 -49.6582 Z M 25.8789 -42.0898 C 27.6855 -42.0898 29.1504 -43.5547 29.1504 -45.3125 C 29.1504 -47.1191 27.6855 -48.584 25.8789 -48.584 C 24.0723 -48.584 22.6074 -47.1191 22.6074 -45.3125 C 22.6074 -43.5547 24.0723 -42.0898 25.8789 -42.0898 Z M 63.1348 -42.041 C 64.9414 -42.041 66.4062 -43.5059 66.4062 -45.3125 C 66.4062 -47.1191 64.9414 -48.584 63.1348 -48.584 C 61.3281 -48.584 59.8633 -47.1191 59.8633 -45.3125 C 59.8633 -43.5059 61.3281 -42.041 63.1348 -42.041 Z M 44.5801 -13.916 C 47.2656 -13.916 49.4141 -16.1133 49.4141 -18.7988 C 49.4141 -20.9473 48.0469 -22.7051 46.1914 -23.3887 L 46.1914 -41.8457 C 46.1914 -42.7734 45.5078 -43.457 44.5801 -43.457 C 43.7012 -43.457 42.9688 -42.7734 42.9688 -41.8457 L 42.9688 -23.3887 C 41.0645 -22.7051 39.6973 -20.9473 39.6973 -18.7988 C 39.6973 -16.1133 41.8945 -13.916 44.5801 -13.916 Z"/>
  </g>
  <g id="Light-S" transform="matrix(1 0 0 1 1107.6 696)">
   <path d="M 45.5078 3.4668 C 66.6992 3.4668 84.2285 -14.0625 84.2285 -35.2051 C 84.2285 -56.3965 66.6504 -73.9258 45.5078 -73.9258 C 24.3164 -73.9258 6.83594 -56.3965 6.83594 -35.2051 C 6.83594 -14.0625 24.3652 3.4668 45.5078 3.4668 Z M 45.5078 -2.24609 C 27.2461 -2.24609 12.5977 -16.9434 12.5977 -35.2051 C 12.5977 -53.5156 27.1973 -68.2129 45.5078 -68.2129 C 63.7695 -68.2129 78.4668 -53.5156 78.5156 -35.2051 C 78.5156 -16.9434 63.8184 -2.24609 45.5078 -2.24609 Z M 45.5078 -52.6367 C 47.5098 -52.6367 49.1211 -54.2969 49.1211 -56.25 C 49.1211 -58.3008 47.5098 -59.9121 45.5078 -59.9121 C 43.5059 -59.9121 41.8457 -58.3008 41.8457 -56.25 C 41.8457 -54.2969 43.5059 -52.6367 45.5078 -52.6367 Z M 56.4453 -49.3164 C 58.4473 -49.3164 60.0586 -50.9766 60.0586 -52.9785 C 60.0586 -54.9316 58.4473 -56.5918 56.4453 -56.5918 C 54.4434 -56.5918 52.832 -54.9316 52.832 -52.9785 C 52.832 -50.9766 54.4434 -49.3164 56.4453 -49.3164 Z M 34.1797 -49.3164 C 36.1816 -49.3164 37.793 -50.9766 37.793 -52.9785 C 37.793 -54.9316 36.1816 -56.5918 34.1797 -56.5918 C 32.1289 -56.5918 30.5176 -54.9316 30.5176 -52.9785 C 30.5176 -50.9766 32.1289 -49.3164 34.1797 -49.3164 Z M 26.5625 -41.3574 C 28.5645 -41.3574 30.1758 -42.9688 30.1758 -44.9707 C 30.1758 -46.9727 28.5645 -48.6328 26.5625 -48.6328 C 24.5605 -48.6328 22.9004 -46.9727 22.9004 -44.9707 C 22.9004 -42.9688 24.5605 -41.3574 26.5625 -41.3574 Z M 64.0625 -41.3086 C 66.0645 -41.3086 67.6758 -42.9688 67.6758 -44.9707 C 67.6758 -46.9727 66.0645 -48.584 64.0625 -48.584 C 62.0605 -48.584 60.4492 -46.9727 60.4492 -44.9707 C 60.4492 -42.9688 62.0605 -41.3086 64.0625 -41.3086 Z M 45.5078 -12.4512 C 48.7305 -12.4512 51.2695 -15.0879 51.2695 -18.3105 C 51.2695 -20.6543 49.8535 -22.7051 47.8027 -23.584 L 47.8027 -41.6016 C 47.8027 -42.9199 46.7773 -43.9453 45.5078 -43.9453 C 44.2871 -43.9453 43.2129 -42.9199 43.2129 -41.6016 L 43.2129 -23.584 C 41.1621 -22.7051 39.7461 -20.6543 39.7461 -18.3105 C 39.7461 -15.0879 42.2852 -12.4512 45.5078 -12.4512 Z"/>
  </g>
  <g id="Regular-S" transform="matrix(1 0 0 1 1403.58 696)">
   <path d="M 46.2402 4.15039 C 67.7734 4.15039 85.6934 -13.7207 85.6934 -35.2539 C 85.6934 -56.7871 67.7246 -74.6582 46.1914 -74.6582 C 24.707 -74.6582 6.83594 -56.7871 6.83594 -35.2539 C 6.83594 -13.7207 24.7559 4.15039 46.2402 4.15039 Z M 46.2402 -3.27148 C 28.5156 -3.27148 14.3555 -17.4805 14.3555 -35.2539 C 14.3555 -53.0273 28.4668 -67.2363 46.1914 -67.2363 C 63.9648 -67.2363 78.1738 -53.0273 78.2227 -35.2539 C 78.2715 -17.4805 64.0137 -3.27148 46.2402 -3.27148 Z M 46.1914 -52.4902 C 48.3887 -52.4902 50.0977 -54.2969 50.0977 -56.3965 C 50.0977 -58.5938 48.3887 -60.3027 46.1914 -60.3027 C 44.0918 -60.3027 42.2852 -58.5938 42.2852 -56.3965 C 42.2852 -54.2969 44.0918 -52.4902 46.1914 -52.4902 Z M 57.3242 -49.0234 C 59.4727 -49.0234 61.2305 -50.8301 61.2305 -52.9785 C 61.2305 -55.0781 59.4727 -56.8848 57.3242 -56.8848 C 55.127 -56.8848 53.418 -55.0781 53.418 -52.9785 C 53.418 -50.8301 55.127 -49.0234 57.3242 -49.0234 Z M 34.5215 -49.0234 C 36.6699 -49.0234 38.4277 -50.8301 38.4277 -52.9785 C 38.4277 -55.0781 36.6699 -56.8848 34.5215 -56.8848 C 32.3242 -56.8848 30.6152 -55.0781 30.6152 -52.9785 C 30.6152 -50.8301 32.3242 -49.0234 34.5215 -49.0234 Z M 27.0508 -40.8203 C 29.248 -40.8203 30.957 -42.5781 30.957 -44.7266 C 30.957 -46.875 29.248 -48.6328 27.0508 -48.6328 C 24.9023 -48.6328 23.1445 -46.875 23.1445 -44.7266 C 23.1445 -42.5781 24.9023 -40.8203 27.0508 -40.8203 Z M 64.7461 -40.7715 C 66.9434 -40.7715 68.6523 -42.5293 68.6523 -44.6777 C 68.6523 -46.8262 66.9434 -48.584 64.7461 -48.584 C 62.5977 -48.584 60.8398 -46.8262 60.8398 -44.6777 C 60.8398 -42.5293 62.5977 -40.7715 64.7461 -40.7715 Z M 46.1914 -11.377 C 49.8047 -11.377 52.6855 -14.3066 52.6855 -17.8711 C 52.6855 -20.459 51.1719 -22.6562 49.0234 -23.7305 L 49.0234 -41.4551 C 49.0234 -43.0664 47.7539 -44.3359 46.1914 -44.3359 C 44.6777 -44.3359 43.4082 -43.0664 43.4082 -41.4551 L 43.4082 -23.7305 C 41.2598 -22.6562 39.7461 -20.459 39.7461 -17.8711 C 39.7461 -14.3066 42.627 -11.377 46.1914 -11.377 Z"/>
  </g>
  <g id="Medium-S" transform="matrix(1 0 0 1 1699.7 696)">
   <path d="M 46.8262 4.78516 C 68.75 4.78516 86.8652 -13.3301 86.8652 -35.2539 C 86.8652 -57.1289 68.7012 -75.2441 46.8262 -75.2441 C 24.9023 -75.2441 6.83594 -57.1289 6.83594 -35.2539 C 6.83594 -13.3301 24.9512 4.78516 46.8262 4.78516 Z M 46.8262 -4.19922 C 29.6387 -4.19922 15.8691 -18.0176 15.8691 -35.2539 C 15.8691 -52.4414 29.5898 -66.2598 46.8262 -66.2598 C 64.0137 -66.2598 77.832 -52.4414 77.8809 -35.2539 C 77.8809 -18.0176 64.0625 -4.19922 46.8262 -4.19922 Z M 46.8262 -51.709 C 49.0723 -51.709 50.8789 -53.5645 50.8789 -55.7617 C 50.8789 -58.0566 49.0723 -59.8633 46.8262 -59.8633 C 44.5801 -59.8633 42.7246 -58.0566 42.7246 -55.7617 C 42.7246 -53.5645 44.5801 -51.709 46.8262 -51.709 Z M 58.1055 -47.9004 C 60.3516 -47.9004 62.207 -49.7559 62.207 -52.002 C 62.207 -54.248 60.4004 -56.1035 58.1055 -56.1035 C 55.8594 -56.1035 54.0039 -54.248 54.0039 -52.002 C 54.0039 -49.7559 55.8594 -47.9004 58.1055 -47.9004 Z M 35.0098 -47.9004 C 37.2559 -47.9004 39.1113 -49.7559 39.1113 -52.002 C 39.1113 -54.248 37.3047 -56.1035 35.0098 -56.1035 C 32.7637 -56.1035 30.9082 -54.248 30.9082 -52.002 C 30.9082 -49.7559 32.7637 -47.9004 35.0098 -47.9004 Z M 27.9297 -39.1602 C 30.2246 -39.1602 32.0312 -41.0156 32.0312 -43.2617 C 32.0312 -45.5078 30.2246 -47.3633 27.9297 -47.3633 C 25.6836 -47.3633 23.877 -45.5078 23.877 -43.2617 C 23.877 -41.0156 25.6836 -39.1602 27.9297 -39.1602 Z M 65.2344 -39.0625 C 67.4805 -39.0625 69.3359 -40.918 69.3359 -43.1641 C 69.3359 -45.459 67.4805 -47.2656 65.2344 -47.2656 C 62.9883 -47.2656 61.1328 -45.459 61.1328 -43.1641 C 61.1328 -40.918 62.9883 -39.0625 65.2344 -39.0625 Z M 46.8262 -11.5234 C 50.5371 -11.5234 53.5156 -14.5508 53.5156 -18.3105 C 53.5156 -20.9473 51.9531 -23.2422 49.707 -24.3164 L 49.707 -41.2109 C 49.707 -42.9199 48.4375 -44.2383 46.8262 -44.2383 C 45.2148 -44.2383 43.8965 -42.9199 43.8965 -41.2109 L 43.8965 -24.3164 C 41.6504 -23.2422 40.0879 -20.9473 40.0879 -18.3105 C 40.0879 -14.5508 43.0664 -11.5234 46.8262 -11.5234 Z"/>
  </g>
  <g id="Semibold-S" transform="matrix(1 0 0 1 1995.98 696)">
   <path d="M 47.3145 5.22461 C 69.4824 5.22461 87.7441 -13.0371 87.7441 -35.2539 C 87.7441 -57.4219 69.4336 -75.6836 47.2656 -75.6836 C 25.0977 -75.6836 6.83594 -57.4219 6.83594 -35.2539 C 6.83594 -13.0371 25.0977 5.22461 47.3145 5.22461 Z M 47.3145 -4.93164 C 30.4688 -4.93164 17.041 -18.4082 17.041 -35.2539 C 17.041 -52.0508 30.4688 -65.5273 47.2656 -65.5273 C 64.0625 -65.5273 77.5879 -52.0508 77.5879 -35.2539 C 77.6367 -18.4082 64.1113 -4.93164 47.3145 -4.93164 Z M 47.2656 -51.0742 C 49.6094 -51.0742 51.5137 -52.9785 51.5137 -55.2734 C 51.5137 -57.6172 49.6094 -59.5215 47.2656 -59.5215 C 44.9707 -59.5215 43.0176 -57.6172 43.0176 -55.2734 C 43.0176 -52.9785 44.9707 -51.0742 47.2656 -51.0742 Z M 58.7402 -47.0215 C 61.0352 -47.0215 62.9883 -48.9258 62.9883 -51.2695 C 62.9883 -53.5645 61.084 -55.4688 58.7402 -55.4688 C 56.3965 -55.4688 54.4922 -53.5645 54.4922 -51.2695 C 54.4922 -48.9258 56.3965 -47.0215 58.7402 -47.0215 Z M 35.4004 -47.0215 C 37.7441 -47.0215 39.6484 -48.9258 39.6484 -51.2695 C 39.6484 -53.5645 37.7441 -55.4688 35.4004 -55.4688 C 33.1055 -55.4688 31.1523 -53.5645 31.1523 -51.2695 C 31.1523 -48.9258 33.0566 -47.0215 35.4004 -47.0215 Z M 28.6133 -37.8906 C 30.957 -37.8906 32.8613 -39.7949 32.8613 -42.1387 C 32.8613 -44.4824 30.957 -46.3867 28.6133 -46.3867 C 26.3184 -46.3867 24.4141 -44.4824 24.4141 -42.1387 C 24.4141 -39.7949 26.3184 -37.8906 28.6133 -37.8906 Z M 65.5762 -37.793 C 67.9199 -37.793 69.8242 -39.6973 69.8242 -42.041 C 69.8242 -44.3359 67.9199 -46.2402 65.5762 -46.2402 C 63.2324 -46.2402 61.3281 -44.3359 61.3281 -42.041 C 61.3281 -39.6973 63.2324 -37.793 65.5762 -37.793 Z M 47.2656 -11.6699 C 51.0742 -11.6699 54.1504 -14.7949 54.1504 -18.6035 C 54.1504 -21.3379 52.5879 -23.7305 50.2441 -24.8047 L 50.2441 -41.0645 C 50.2441 -42.8223 48.9746 -44.1406 47.2656 -44.1406 C 45.5566 -44.1406 44.2871 -42.8223 44.2871 -41.0645 L 44.2871 -24.8047 C 41.9434 -23.7305 40.332 -21.3379 40.332 -18.6035 C 40.332 -14.7949 43.4082 -11.6699 47.2656 -11.6699 Z"/>
  </g>
  <g id="Bold-S" transform="matrix(1 0 0 1 2292.1 696)">
   <path d="M 47.9004 5.81055 C 70.4102 5.81055 88.916 -12.6465 88.916 -35.2051 C 88.916 -57.7637 70.4102 -76.2695 47.8516 -76.2695 C 25.293 -76.2695 6.83594 -57.7637 6.83594 -35.2051 C 6.83594 -12.6465 25.3418 5.81055 47.9004 5.81055 Z M 47.9004 -5.85938 C 31.6406 -5.85938 18.5547 -18.9453 18.5547 -35.2051 C 18.5547 -51.4648 31.5918 -64.5508 47.8516 -64.5508 C 64.1113 -64.5508 77.1973 -51.4648 77.2461 -35.2051 C 77.2461 -18.9453 64.1602 -5.85938 47.9004 -5.85938 Z M 47.8516 -50.2441 C 50.293 -50.2441 52.2949 -52.2461 52.2949 -54.6387 C 52.2949 -57.0801 50.3418 -59.082 47.8516 -59.082 C 45.459 -59.082 43.457 -57.0801 43.457 -54.6387 C 43.457 -52.2461 45.459 -50.2441 47.8516 -50.2441 Z M 59.5215 -45.8496 C 61.9629 -45.8496 63.9648 -47.8516 63.9648 -50.2441 C 63.9648 -52.7344 61.9629 -54.6875 59.5215 -54.6875 C 57.1289 -54.6875 55.127 -52.7344 55.127 -50.2441 C 55.127 -47.8516 57.1289 -45.8496 59.5215 -45.8496 Z M 35.8887 -45.8496 C 38.3301 -45.8496 40.332 -47.8516 40.332 -50.2441 C 40.332 -52.7344 38.3789 -54.6875 35.8887 -54.6875 C 33.4961 -54.6875 31.4941 -52.7344 31.4941 -50.2441 C 31.4941 -47.8516 33.4961 -45.8496 35.8887 -45.8496 Z M 29.541 -36.2305 C 31.9824 -36.2305 33.9844 -38.2324 33.9844 -40.6738 C 33.9844 -43.1152 31.9824 -45.1172 29.541 -45.1172 C 27.1484 -45.1172 25.0977 -43.1152 25.0977 -40.6738 C 25.0977 -38.2324 27.0996 -36.2305 29.541 -36.2305 Z M 66.0156 -36.084 C 68.457 -36.084 70.459 -38.0859 70.459 -40.5273 C 70.459 -42.9199 68.457 -44.9219 66.0156 -44.9219 C 63.623 -44.9219 61.6211 -42.9199 61.6211 -40.5273 C 61.6211 -38.0859 63.623 -36.084 66.0156 -36.084 Z M 47.8516 -11.8164 C 51.8066 -11.8164 55.0293 -15.0879 55.0293 -19.043 C 55.0293 -21.875 53.3691 -24.3164 50.9766 -25.4883 L 50.9766 -40.8203 C 50.9766 -42.6758 49.707 -44.0918 47.8516 -44.0918 C 46.0938 -44.0918 44.7266 -42.6758 44.7266 -40.8203 L 44.7266 -25.4883 C 42.334 -24.3164 40.6738 -21.875 40.6738 -19.043 C 40.6738 -15.0879 43.8965 -11.8164 47.8516 -11.8164 Z"/>
  </g>
  <g id="Heavy-S" transform="matrix(1 0 0 1 2587.96 696)">
   <path d="M 48.7305 6.68945 C 71.8262 6.68945 90.625 -12.1094 90.625 -35.2051 C 90.625 -58.3008 71.8262 -77.0996 48.7305 -77.0996 C 25.6348 -77.0996 6.83594 -58.3008 6.83594 -35.2051 C 6.83594 -12.1094 25.6348 6.68945 48.7305 6.68945 Z M 48.7305 -7.22656 C 33.3008 -7.22656 20.752 -19.7266 20.752 -35.2051 C 20.752 -50.6836 33.3008 -63.1836 48.7305 -63.1836 C 64.209 -63.1836 76.709 -50.6836 76.709 -35.2051 C 76.709 -19.7266 64.209 -7.22656 48.7305 -7.22656 Z M 48.7305 -49.0234 C 51.3184 -49.0234 53.4668 -51.1719 53.4668 -53.7109 C 53.4668 -56.2988 51.3672 -58.4473 48.7305 -58.4473 C 46.1914 -58.4473 44.043 -56.2988 44.043 -53.7109 C 44.043 -51.1719 46.1914 -49.0234 48.7305 -49.0234 Z M 60.6934 -44.1895 C 63.2324 -44.1895 65.4297 -46.2402 65.4297 -48.8281 C 65.4297 -51.4648 63.2812 -53.5156 60.6934 -53.5156 C 58.1543 -53.5156 56.0059 -51.4648 56.0059 -48.8281 C 56.0059 -46.2402 58.1543 -44.1895 60.6934 -44.1895 Z M 36.6699 -44.1895 C 39.209 -44.1895 41.3574 -46.2891 41.3574 -48.8281 C 41.3574 -51.4648 39.2578 -53.5156 36.6699 -53.5156 C 34.1309 -53.5156 31.9336 -51.4648 31.9336 -48.8281 C 31.9336 -46.2402 34.082 -44.1895 36.6699 -44.1895 Z M 48.7305 -12.1094 C 52.8809 -12.1094 56.25 -15.4785 56.25 -19.6289 C 56.25 -22.6074 54.4922 -25.1953 52.0508 -26.416 L 52.0508 -40.5273 C 52.0508 -42.4805 50.7324 -43.9453 48.7305 -43.9453 C 46.8262 -43.9453 45.459 -42.4805 45.459 -40.5273 L 45.459 -26.416 C 42.9199 -25.1953 41.1621 -22.6074 41.1621 -19.6289 C 41.1621 -15.4785 44.5801 -12.1094 48.7305 -12.1094 Z M 30.8594 -33.8379 C 33.3984 -33.8379 35.5469 -35.9863 35.5469 -38.5254 C 35.5469 -41.1133 33.3984 -43.2617 30.8594 -43.2617 C 28.3203 -43.2617 26.123 -41.1133 26.123 -38.5254 C 26.123 -35.9863 28.2715 -33.8379 30.8594 -33.8379 Z M 66.6992 -33.5938 C 69.2383 -33.5938 71.3867 -35.7422 71.3867 -38.2812 C 71.3867 -40.8691 69.2871 -43.0176 66.6992 -43.0176 C 64.1602 -43.0176 62.0117 -40.8691 62.0117 -38.2812 C 62.0117 -35.7422 64.1602 -33.5938 66.6992 -33.5938 Z"/>
  </g>
  <g id="Black-S" transform="matrix(1 0 0 1 2883.89 696)">
   <path d="M 49.5117 7.4707 C 73.0957 7.4707 92.1875 -11.6211 92.1875 -35.2051 C 92.1875 -58.7891 73.0957 -77.8809 49.5117 -77.8809 C 25.9277 -77.8809 6.83594 -58.7891 6.83594 -35.2051 C 6.83594 -11.6211 25.9277 7.4707 49.5117 7.4707 Z M 49.5117 -8.44727 C 34.7656 -8.44727 22.7539 -20.459 22.7539 -35.2051 C 22.7539 -49.9512 34.7656 -61.9141 49.5117 -61.9141 C 64.2578 -61.9141 76.2695 -49.9512 76.2207 -35.2051 C 76.2207 -20.459 64.2578 -8.44727 49.5117 -8.44727 Z M 49.5117 -47.9492 C 52.1973 -47.9492 54.4922 -50.1953 54.4922 -52.8809 C 54.4922 -55.5664 52.2949 -57.8613 49.5117 -57.8613 C 46.875 -57.8613 44.5801 -55.5664 44.5801 -52.8809 C 44.5801 -50.1953 46.8262 -47.9492 49.5117 -47.9492 Z M 37.3047 -42.6758 C 39.9902 -42.6758 42.2852 -44.9219 42.2852 -47.5586 C 42.2852 -50.3418 40.0879 -52.4902 37.3047 -52.4902 C 34.668 -52.4902 32.373 -50.3418 32.373 -47.5586 C 32.373 -44.873 34.6191 -42.6758 37.3047 -42.6758 Z M 61.7188 -42.6758 C 64.4043 -42.6758 66.748 -44.873 66.748 -47.5586 C 66.748 -50.3418 64.4531 -52.4902 61.7188 -52.4902 C 59.082 -52.4902 56.8359 -50.3418 56.8359 -47.5586 C 56.8359 -44.873 59.082 -42.6758 61.7188 -42.6758 Z M 49.5117 -12.3047 C 53.8086 -12.3047 57.373 -15.8691 57.373 -20.2148 C 57.373 -23.291 55.5176 -25.9766 52.9785 -27.2461 L 52.9785 -40.2344 C 52.9785 -42.334 51.6602 -43.8477 49.5117 -43.8477 C 47.4609 -43.8477 46.0938 -42.334 46.0938 -40.2344 L 46.0938 -27.2461 C 43.457 -25.9766 41.6016 -23.291 41.6016 -20.2148 C 41.6016 -15.8691 45.166 -12.3047 49.5117 -12.3047 Z M 32.0312 -31.6895 C 34.7168 -31.6895 36.9629 -33.9355 36.9629 -36.6211 C 36.9629 -39.3066 34.7168 -41.6016 32.0312 -41.6016 C 29.3945 -41.6016 27.0508 -39.3066 27.0508 -36.6211 C 27.0508 -33.9355 29.2969 -31.6895 32.0312 -31.6895 Z M 67.2852 -31.3965 C 69.9707 -31.3965 72.2168 -33.6426 72.2168 -36.3281 C 72.2168 -39.0137 70.0195 -41.3086 67.2852 -41.3086 C 64.6484 -41.3086 62.3535 -39.0137 62.3535 -36.3281 C 62.3535 -33.6426 64.6484 -31.3965 67.2852 -31.3965 Z"/>
  </g>
  <g id="Ultralight-M" transform="matrix(1 0 0 1 503.656 1126)">
   <path d="M 56.0547 12.207 C 82.0801 12.207 103.369 -9.08203 103.369 -35.1562 C 103.369 -61.1816 82.0801 -82.4707 56.0547 -82.4707 C 30.0293 -82.4707 8.74023 -61.1816 8.74023 -35.1562 C 8.74023 -9.08203 30.0293 12.207 56.0547 12.207 Z M 56.0547 9.81445 C 31.25 9.81445 11.1328 -10.3516 11.1328 -35.1562 C 11.1328 -59.9121 31.25 -80.0781 56.0547 -80.0781 C 80.8105 -80.0781 100.977 -59.9121 100.977 -35.1562 C 100.977 -10.3516 80.8105 9.81445 56.0547 9.81445 Z M 56.0547 -57.8125 C 58.1543 -57.8125 59.9121 -59.5703 59.9121 -61.6699 C 59.9121 -63.7695 58.1543 -65.5273 56.0547 -65.5273 C 53.9551 -65.5273 52.1973 -63.7695 52.1973 -61.6699 C 52.1973 -59.5703 53.9551 -57.8125 56.0547 -57.8125 Z M 69.6289 -54.0527 C 71.7285 -54.0527 73.4863 -55.7617 73.4863 -57.8613 C 73.4863 -60.0098 71.7285 -61.7188 69.6289 -61.7188 C 67.5293 -61.7188 65.7715 -60.0098 65.7715 -57.8613 C 65.7715 -55.7617 67.5293 -54.0527 69.6289 -54.0527 Z M 42.627 -53.9551 C 44.7266 -53.9551 46.4355 -55.7129 46.4355 -57.8125 C 46.4355 -59.9121 44.7266 -61.6699 42.627 -61.6699 C 40.4785 -61.6699 38.7695 -59.9121 38.7695 -57.8125 C 38.7695 -55.7129 40.4785 -53.9551 42.627 -53.9551 Z M 79.7852 -44.5801 C 81.8848 -44.5801 83.6426 -46.3379 83.6426 -48.4375 C 83.6426 -50.5371 81.8848 -52.2949 79.7852 -52.2949 C 77.6855 -52.2949 75.9277 -50.5371 75.9277 -48.4375 C 75.9277 -46.3379 77.6855 -44.5801 79.7852 -44.5801 Z M 32.4219 -44.5801 C 34.5703 -44.5801 36.2793 -46.3379 36.2793 -48.4375 C 36.2793 -50.5371 34.5703 -52.2949 32.4219 -52.2949 C 30.3223 -52.2949 28.6133 -50.5371 28.6133 -48.4375 C 28.6133 -46.3379 30.3223 -44.5801 32.4219 -44.5801 Z M 56.1035 -9.27734 C 59.082 -9.27734 61.4746 -11.6699 61.4746 -14.6973 C 61.4746 -17.2852 59.8145 -19.2871 57.5684 -19.9707 L 57.5684 -43.8965 C 57.5684 -44.7266 56.9824 -45.3125 56.1035 -45.3125 C 55.3223 -45.3125 54.6387 -44.7266 54.6387 -43.8965 L 54.6387 -19.9707 C 52.3438 -19.2871 50.6836 -17.2852 50.6836 -14.6973 C 50.6836 -11.6699 53.0762 -9.27734 56.1035 -9.27734 Z"/>
  </g>
  <g id="Thin-M" transform="matrix(1 0 0 1 799.806 1126)">
   <path d="M 56.5918 12.7441 C 82.9102 12.7441 104.492 -8.83789 104.492 -35.1562 C 104.492 -61.4746 82.9102 -83.0566 56.5918 -83.0566 C 30.3223 -83.0566 8.74023 -61.4746 8.74023 -35.1562 C 8.74023 -8.83789 30.3223 12.7441 56.5918 12.7441 Z M 56.5918 8.98438 C 32.2266 8.98438 12.4512 -10.791 12.4512 -35.1562 C 12.4512 -59.5215 32.2266 -79.2969 56.5918 -79.2969 C 80.957 -79.2969 100.781 -59.5215 100.781 -35.1562 C 100.781 -10.791 81.0059 8.98438 56.5918 8.98438 Z M 56.5918 -57.7148 C 58.8379 -57.7148 60.6445 -59.5703 60.6445 -61.7676 C 60.6445 -64.0137 58.8379 -65.8691 56.5918 -65.8691 C 54.3945 -65.8691 52.5391 -64.0137 52.5391 -61.7676 C 52.5391 -59.5703 54.3945 -57.7148 56.5918 -57.7148 Z M 70.2637 -53.8086 C 72.5098 -53.8086 74.3652 -55.6641 74.3652 -57.8613 C 74.3652 -60.1074 72.5098 -61.9629 70.2637 -61.9629 C 68.0664 -61.9629 66.2109 -60.1074 66.2109 -57.8613 C 66.2109 -55.6641 68.0664 -53.8086 70.2637 -53.8086 Z M 42.8711 -53.7598 C 45.1172 -53.7598 46.9238 -55.6152 46.9238 -57.8125 C 46.9238 -60.0586 45.1172 -61.9141 42.8711 -61.9141 C 40.625 -61.9141 38.8184 -60.0586 38.8184 -57.8125 C 38.8184 -55.6152 40.625 -53.7598 42.8711 -53.7598 Z M 32.8125 -44.1895 C 35.0586 -44.1895 36.9141 -45.9961 36.9141 -48.2422 C 36.9141 -50.4395 35.0586 -52.2949 32.8125 -52.2949 C 30.6152 -52.2949 28.7598 -50.4395 28.7598 -48.2422 C 28.7598 -45.9961 30.6152 -44.1895 32.8125 -44.1895 Z M 80.3223 -44.1406 C 82.5684 -44.1406 84.375 -45.9961 84.375 -48.1934 C 84.375 -50.4395 82.5684 -52.2949 80.3223 -52.2949 C 78.0762 -52.2949 76.2695 -50.4395 76.2695 -48.1934 C 76.2695 -45.9961 78.0762 -44.1406 80.3223 -44.1406 Z M 56.6406 -8.44727 C 59.9121 -8.44727 62.5488 -11.084 62.5488 -14.4043 C 62.5488 -17.0898 60.8398 -19.2871 58.4961 -20.0684 L 58.4961 -43.75 C 58.4961 -44.8242 57.7148 -45.6055 56.6406 -45.6055 C 55.6641 -45.6055 54.7852 -44.8242 54.7852 -43.75 L 54.7852 -20.0684 C 52.3926 -19.2871 50.6836 -17.0898 50.6836 -14.4043 C 50.6836 -11.084 53.3203 -8.44727 56.6406 -8.44727 Z"/>
  </g>
  <g id="Light-M" transform="matrix(1 0 0 1 1095.42 1126)">
   <path d="M 57.7148 13.7695 C 84.5215 13.7695 106.689 -8.39844 106.689 -35.2051 C 106.689 -62.0117 84.4727 -84.1797 57.666 -84.1797 C 30.8594 -84.1797 8.74023 -62.0117 8.74023 -35.2051 C 8.74023 -8.39844 30.8594 13.7695 57.7148 13.7695 Z M 57.7148 7.4707 C 34.082 7.4707 15.0879 -11.5723 15.0879 -35.2051 C 15.0879 -58.8379 34.0332 -77.832 57.666 -77.832 C 81.2988 -77.832 100.342 -58.8379 100.342 -35.2051 C 100.391 -11.5723 81.2988 7.4707 57.7148 7.4707 Z M 57.666 -57.5195 C 60.1562 -57.5195 62.1582 -59.5703 62.1582 -62.0117 C 62.1582 -64.502 60.1562 -66.5039 57.666 -66.5039 C 55.2246 -66.5039 53.1738 -64.502 53.1738 -62.0117 C 53.1738 -59.5703 55.2246 -57.5195 57.666 -57.5195 Z M 71.582 -53.3691 C 74.0723 -53.3691 76.0742 -55.4199 76.0742 -57.8613 C 76.0742 -60.3027 74.0723 -62.3535 71.582 -62.3535 C 69.0918 -62.3535 67.0898 -60.3027 67.0898 -57.8613 C 67.0898 -55.4199 69.0918 -53.3691 71.582 -53.3691 Z M 43.4082 -53.3691 C 45.8984 -53.3691 47.9004 -55.3711 47.9004 -57.8613 C 47.9004 -60.3027 45.8984 -62.3535 43.4082 -62.3535 C 40.918 -62.3535 38.916 -60.3027 38.916 -57.8613 C 38.916 -55.3711 40.918 -53.3691 43.4082 -53.3691 Z M 33.5938 -43.3594 C 36.084 -43.3594 38.0859 -45.3613 38.0859 -47.8516 C 38.0859 -50.293 36.084 -52.2949 33.5938 -52.2949 C 31.1035 -52.2949 29.1016 -50.293 29.1016 -47.8516 C 29.1016 -45.3613 31.1035 -43.3594 33.5938 -43.3594 Z M 81.3965 -43.3105 C 83.8379 -43.3105 85.8398 -45.3125 85.8398 -47.8027 C 85.8398 -50.293 83.8379 -52.2949 81.3965 -52.2949 C 78.9062 -52.2949 76.9043 -50.293 76.9043 -47.8027 C 76.9043 -45.3125 78.9062 -43.3105 81.3965 -43.3105 Z M 57.7148 -6.78711 C 61.5723 -6.78711 64.6484 -9.91211 64.6484 -13.8184 C 64.6484 -16.748 62.8418 -19.2383 60.3027 -20.2637 L 60.3027 -43.457 C 60.3027 -44.9707 59.1309 -46.1426 57.7148 -46.1426 C 56.2988 -46.1426 55.0781 -44.9707 55.0781 -43.457 L 55.0781 -20.2637 C 52.4902 -19.2383 50.6836 -16.748 50.6836 -13.8184 C 50.6836 -9.91211 53.8086 -6.78711 57.7148 -6.78711 Z"/>
  </g>
  <g id="Regular-M" transform="matrix(1 0 0 1 1391.32 1126)">
   <path d="M 58.5449 14.5508 C 85.7422 14.5508 108.35 -8.00781 108.35 -35.2539 C 108.35 -62.4512 85.6934 -85.0586 58.4961 -85.0586 C 31.25 -85.0586 8.74023 -62.4512 8.74023 -35.2539 C 8.74023 -8.00781 31.2988 14.5508 58.5449 14.5508 Z M 58.5449 6.25 C 35.498 6.25 17.0898 -12.207 17.0898 -35.2539 C 17.0898 -58.252 35.4492 -76.7578 58.4961 -76.7578 C 81.4941 -76.7578 100 -58.252 100.049 -35.2539 C 100.098 -12.207 81.543 6.25 58.5449 6.25 Z M 58.4961 -57.373 C 61.1328 -57.373 63.2812 -59.5703 63.2812 -62.1582 C 63.2812 -64.8438 61.1328 -66.9434 58.4961 -66.9434 C 55.8594 -66.9434 53.7109 -64.8438 53.7109 -62.1582 C 53.7109 -59.5703 55.8594 -57.373 58.4961 -57.373 Z M 72.5586 -53.0273 C 75.1953 -53.0273 77.3438 -55.2246 77.3438 -57.8613 C 77.3438 -60.498 75.1953 -62.6953 72.5586 -62.6953 C 69.9219 -62.6953 67.7734 -60.498 67.7734 -57.8613 C 67.7734 -55.2246 69.9219 -53.0273 72.5586 -53.0273 Z M 43.7988 -53.0273 C 46.4355 -53.0273 48.584 -55.2246 48.584 -57.8613 C 48.584 -60.498 46.4355 -62.6465 43.7988 -62.6465 C 41.1621 -62.6465 39.0137 -60.498 39.0137 -57.8613 C 39.0137 -55.2246 41.1621 -53.0273 43.7988 -53.0273 Z M 34.1797 -42.7246 C 36.8164 -42.7246 38.9648 -44.873 38.9648 -47.5098 C 38.9648 -50.1953 36.8164 -52.3438 34.1797 -52.3438 C 31.543 -52.3438 29.3945 -50.1953 29.3945 -47.5098 C 29.3945 -44.873 31.543 -42.7246 34.1797 -42.7246 Z M 82.1777 -42.6758 C 84.8145 -42.6758 86.9629 -44.8242 86.9629 -47.4609 C 86.9629 -50.1465 84.8145 -52.2949 82.1777 -52.2949 C 79.541 -52.2949 77.3926 -50.1465 77.3926 -47.4609 C 77.3926 -44.8242 79.541 -42.6758 82.1777 -42.6758 Z M 58.4961 -5.56641 C 62.793 -5.56641 66.2598 -9.0332 66.2598 -13.3789 C 66.2598 -16.5039 64.4043 -19.1895 61.7188 -20.4102 L 61.7188 -43.2617 C 61.7188 -45.1172 60.2539 -46.582 58.4961 -46.582 C 56.7383 -46.582 55.2734 -45.1172 55.2734 -43.2617 L 55.2734 -20.4102 C 52.5879 -19.1895 50.7324 -16.5039 50.7324 -13.3789 C 50.7324 -9.0332 54.1504 -5.56641 58.4961 -5.56641 Z"/>
  </g>
  <g id="Medium-M" transform="matrix(1 0 0 1 1687.33 1126)">
   <path d="M 59.2285 15.2832 C 86.8652 15.2832 109.717 -7.56836 109.717 -35.2051 C 109.717 -62.8906 86.8164 -85.7422 59.1797 -85.7422 C 31.543 -85.7422 8.74023 -62.8906 8.74023 -35.2051 C 8.74023 -7.56836 31.5918 15.2832 59.2285 15.2832 Z M 59.2285 5.17578 C 36.8164 5.17578 18.8477 -12.8418 18.8477 -35.2051 C 18.8477 -57.6172 36.7676 -75.6348 59.1797 -75.6348 C 81.5918 -75.6348 99.6094 -57.6172 99.6582 -35.2051 C 99.6582 -12.8418 81.6406 5.17578 59.2285 5.17578 Z M 59.1797 -56.543 C 61.9629 -56.543 64.209 -58.7891 64.209 -61.5234 C 64.209 -64.3066 61.9629 -66.5527 59.1797 -66.5527 C 56.4453 -66.5527 54.1504 -64.3066 54.1504 -61.5234 C 54.1504 -58.7891 56.4453 -56.543 59.1797 -56.543 Z M 73.4863 -51.8555 C 76.2695 -51.8555 78.5156 -54.1016 78.5156 -56.8848 C 78.5156 -59.6191 76.2695 -61.9141 73.4863 -61.9141 C 70.7031 -61.9141 68.457 -59.6191 68.457 -56.8848 C 68.457 -54.1016 70.7031 -51.8555 73.4863 -51.8555 Z M 44.3848 -51.8066 C 47.1191 -51.8066 49.3652 -54.1016 49.3652 -56.8848 C 49.3652 -59.6191 47.168 -61.9141 44.3848 -61.9141 C 41.6016 -61.9141 39.3555 -59.6191 39.3555 -56.8848 C 39.3555 -54.1016 41.6016 -51.8066 44.3848 -51.8066 Z M 35.1562 -40.9668 C 37.9395 -40.9668 40.1855 -43.2129 40.1855 -45.9961 C 40.1855 -48.7793 37.9395 -51.0254 35.1562 -51.0254 C 32.4219 -51.0254 30.127 -48.7793 30.127 -45.9961 C 30.127 -43.2129 32.373 -40.9668 35.1562 -40.9668 Z M 82.7148 -40.8691 C 85.498 -40.8691 87.7441 -43.1152 87.7441 -45.8984 C 87.7441 -48.6816 85.498 -50.9277 82.7148 -50.9277 C 79.9805 -50.9277 77.7344 -48.6816 77.7344 -45.8984 C 77.7344 -43.1152 79.9805 -40.8691 82.7148 -40.8691 Z M 59.1797 -5.56641 C 63.6719 -5.56641 67.334 -9.22852 67.334 -13.7695 C 67.334 -16.9922 65.3809 -19.8242 62.5977 -21.0938 L 62.5977 -43.0176 C 62.5977 -45.0195 61.084 -46.5332 59.1797 -46.5332 C 57.3242 -46.5332 55.8105 -45.0195 55.8105 -43.0176 L 55.8105 -21.0938 C 53.0273 -19.8242 51.0742 -16.9922 51.0742 -13.7695 C 51.0742 -9.22852 54.6875 -5.56641 59.1797 -5.56641 Z"/>
  </g>
  <g id="Semibold-M" transform="matrix(1 0 0 1 1983.5 1126)">
   <path d="M 59.7656 15.8203 C 87.7441 15.8203 110.791 -7.22656 110.791 -35.2051 C 110.791 -63.1836 87.6953 -86.2793 59.7168 -86.2793 C 31.7383 -86.2793 8.74023 -63.1836 8.74023 -35.2051 C 8.74023 -7.22656 31.7871 15.8203 59.7656 15.8203 Z M 59.7656 4.3457 C 37.8418 4.3457 20.2148 -13.2812 20.2148 -35.2051 C 20.2148 -57.1289 37.793 -74.8047 59.7168 -74.8047 C 81.6406 -74.8047 99.3164 -57.1289 99.3164 -35.2051 C 99.3652 -13.2812 81.6895 4.3457 59.7656 4.3457 Z M 59.7168 -55.8594 C 62.5977 -55.8594 64.9414 -58.2031 64.9414 -61.084 C 64.9414 -63.916 62.5977 -66.2598 59.7168 -66.2598 C 56.9336 -66.2598 54.541 -63.916 54.541 -61.084 C 54.541 -58.2031 56.8848 -55.8594 59.7168 -55.8594 Z M 74.1699 -50.9277 C 77.0508 -50.9277 79.3945 -53.2715 79.3945 -56.1035 C 79.3945 -58.9844 77.0996 -61.3281 74.1699 -61.3281 C 71.3379 -61.3281 68.9941 -58.9844 68.9941 -56.1035 C 68.9941 -53.2715 71.3379 -50.9277 74.1699 -50.9277 Z M 44.7754 -50.8789 C 47.6562 -50.8789 50 -53.2715 50 -56.1035 C 50 -58.9844 47.7051 -61.3281 44.7754 -61.3281 C 41.9434 -61.3281 39.5996 -58.9844 39.5996 -56.1035 C 39.5996 -53.2227 41.9434 -50.8789 44.7754 -50.8789 Z M 35.9375 -39.6484 C 38.7695 -39.6484 41.1133 -41.9922 41.1133 -44.8242 C 41.1133 -47.7051 38.7695 -50.0488 35.9375 -50.0488 C 33.0566 -50.0488 30.7129 -47.7051 30.7129 -44.8242 C 30.7129 -41.9922 33.0566 -39.6484 35.9375 -39.6484 Z M 83.1543 -39.502 C 86.0352 -39.502 88.3789 -41.8457 88.3789 -44.6777 C 88.3789 -47.5586 86.0352 -49.9023 83.1543 -49.9023 C 80.3223 -49.9023 77.9785 -47.5586 77.9785 -44.6777 C 77.9785 -41.8457 80.3223 -39.502 83.1543 -39.502 Z M 59.7168 -5.61523 C 64.3555 -5.61523 68.1152 -9.375 68.1152 -14.0137 C 68.1152 -17.3828 66.1133 -20.2637 63.2812 -21.582 L 63.2812 -42.8223 C 63.2812 -44.9219 61.7676 -46.4844 59.7168 -46.4844 C 57.7637 -46.4844 56.2012 -44.9219 56.2012 -42.8223 L 56.2012 -21.582 C 53.3203 -20.2637 51.3184 -17.3828 51.3184 -14.0137 C 51.3184 -9.375 55.0781 -5.61523 59.7168 -5.61523 Z"/>
  </g>
  <g id="Bold-M" transform="matrix(1 0 0 1 2279.5 1126)">
   <path d="M 60.4492 16.5039 C 88.8672 16.5039 112.207 -6.78711 112.207 -35.2051 C 112.207 -63.623 88.8672 -86.9629 60.4492 -86.9629 C 32.0312 -86.9629 8.74023 -63.623 8.74023 -35.2051 C 8.74023 -6.78711 32.0801 16.5039 60.4492 16.5039 Z M 60.4492 3.22266 C 39.1602 3.22266 22.0215 -13.916 22.0215 -35.2051 C 22.0215 -56.4941 39.1602 -73.6816 60.4492 -73.6816 C 81.7383 -73.6816 98.877 -56.4941 98.9258 -35.2051 C 98.9258 -13.916 81.7871 3.22266 60.4492 3.22266 Z M 60.4492 -54.9805 C 63.4277 -54.9805 65.8691 -57.4707 65.8691 -60.4004 C 65.8691 -63.4277 63.4766 -65.8691 60.4492 -65.8691 C 57.5195 -65.8691 55.0293 -63.4277 55.0293 -60.4004 C 55.0293 -57.4707 57.4707 -54.9805 60.4492 -54.9805 Z M 75.1465 -49.707 C 78.125 -49.707 80.5664 -52.0996 80.5664 -55.127 C 80.5664 -58.1055 78.125 -60.5469 75.1465 -60.5469 C 72.168 -60.5469 69.7266 -58.1055 69.7266 -55.127 C 69.7266 -52.0996 72.168 -49.707 75.1465 -49.707 Z M 45.3613 -49.6582 C 48.3398 -49.6582 50.7812 -52.1484 50.7812 -55.0781 C 50.7812 -58.1055 48.3887 -60.5469 45.3613 -60.5469 C 42.4316 -60.5469 39.9414 -58.1055 39.9414 -55.0781 C 39.9414 -52.0996 42.3828 -49.6582 45.3613 -49.6582 Z M 36.9141 -37.8418 C 39.8926 -37.8418 42.334 -40.2832 42.334 -43.3105 C 42.334 -46.2891 39.8926 -48.7305 36.9141 -48.7305 C 33.9355 -48.7305 31.4941 -46.2891 31.4941 -43.3105 C 31.4941 -40.2832 33.9355 -37.8418 36.9141 -37.8418 Z M 83.7402 -37.6953 C 86.7188 -37.6953 89.1602 -40.1367 89.1602 -43.1152 C 89.1602 -46.0938 86.7188 -48.5352 83.7402 -48.5352 C 80.7617 -48.5352 78.3203 -46.0938 78.3203 -43.1152 C 78.3203 -40.1367 80.7617 -37.6953 83.7402 -37.6953 Z M 60.4492 -5.61523 C 65.2832 -5.61523 69.1895 -9.57031 69.1895 -14.4043 C 69.1895 -17.8711 67.0898 -20.8984 64.1602 -22.2656 L 64.1602 -42.5781 C 64.1602 -44.7754 62.5977 -46.4355 60.4492 -46.4355 C 58.3496 -46.4355 56.7383 -44.7754 56.7383 -42.5781 L 56.7383 -22.2656 C 53.7598 -20.8984 51.6602 -17.8711 51.6602 -14.4043 C 51.6602 -9.57031 55.6152 -5.61523 60.4492 -5.61523 Z"/>
  </g>
  <g id="Heavy-M" transform="matrix(1 0 0 1 2575.19 1126)">
   <path d="M 61.4746 17.5781 C 90.5273 17.5781 114.258 -6.15234 114.258 -35.2051 C 114.258 -64.2578 90.5273 -87.9883 61.4746 -87.9883 C 32.4219 -87.9883 8.74023 -64.2578 8.74023 -35.2051 C 8.74023 -6.15234 32.4707 17.5781 61.4746 17.5781 Z M 61.4746 1.66016 C 41.1133 1.66016 24.6582 -14.8438 24.6582 -35.2051 C 24.6582 -55.5664 41.1133 -72.0703 61.4746 -72.0703 C 81.8359 -72.0703 98.3398 -55.5664 98.3398 -35.2051 C 98.3398 -14.8438 81.8848 1.66016 61.4746 1.66016 Z M 61.4746 -53.7109 C 64.6484 -53.7109 67.2363 -56.3477 67.2363 -59.4727 C 67.2363 -62.6465 64.6973 -65.2832 61.4746 -65.2832 C 58.3984 -65.2832 55.7129 -62.6465 55.7129 -59.4727 C 55.7129 -56.3477 58.3496 -53.7109 61.4746 -53.7109 Z M 76.4648 -47.9004 C 79.6387 -47.9004 82.3242 -50.4883 82.3242 -53.6621 C 82.3242 -56.8359 79.6875 -59.4238 76.4648 -59.4238 C 73.3887 -59.4238 70.752 -56.8359 70.752 -53.6621 C 70.752 -50.4883 73.3887 -47.9004 76.4648 -47.9004 Z M 46.1914 -47.9004 C 49.3652 -47.9004 51.9531 -50.5371 51.9531 -53.6133 C 51.9531 -56.8359 49.4141 -59.4238 46.1914 -59.4238 C 43.0664 -59.4238 40.4297 -56.8359 40.4297 -53.6133 C 40.4297 -50.4883 43.0176 -47.9004 46.1914 -47.9004 Z M 38.3301 -35.3027 C 41.5039 -35.3027 44.0918 -37.8906 44.0918 -41.0645 C 44.0918 -44.1895 41.5039 -46.8262 38.3301 -46.8262 C 35.2539 -46.8262 32.5684 -44.1895 32.5684 -41.0645 C 32.5684 -37.8906 35.2051 -35.3027 38.3301 -35.3027 Z M 84.5215 -35.0098 C 87.6953 -35.0098 90.2832 -37.6465 90.2832 -40.8203 C 90.2832 -43.9453 87.7441 -46.582 84.5215 -46.582 C 81.3965 -46.582 78.8086 -43.9453 78.8086 -40.8203 C 78.8086 -37.6465 81.3965 -35.0098 84.5215 -35.0098 Z M 61.4746 -5.66406 C 66.5527 -5.66406 70.7031 -9.81445 70.7031 -14.9414 C 70.7031 -18.6035 68.5547 -21.7773 65.4785 -23.2422 L 65.4785 -42.2363 C 65.4785 -44.6289 63.8672 -46.3867 61.4746 -46.3867 C 59.1797 -46.3867 57.4707 -44.6289 57.4707 -42.2363 L 57.4707 -23.2422 C 54.3457 -21.7773 52.1973 -18.6035 52.1973 -14.9414 C 52.1973 -9.81445 56.3477 -5.66406 61.4746 -5.66406 Z"/>
  </g>
  <g id="Black-M" transform="matrix(1 0 0 1 2871 1126)">
   <path d="M 62.4023 18.457 C 91.9922 18.457 116.064 -5.61523 116.064 -35.2051 C 116.064 -64.7949 91.9922 -88.8672 62.4023 -88.8672 C 32.8125 -88.8672 8.74023 -64.7949 8.74023 -35.2051 C 8.74023 -5.61523 32.8125 18.457 62.4023 18.457 Z M 62.4023 0.195312 C 42.8223 0.195312 27.002 -15.625 27.002 -35.2051 C 27.002 -54.7363 42.8223 -70.6055 62.4023 -70.6055 C 81.9824 -70.6055 97.8027 -54.7363 97.8027 -35.2051 C 97.8027 -15.625 81.9824 0.195312 62.4023 0.195312 Z M 62.4023 -52.5879 C 65.7227 -52.5879 68.457 -55.3711 68.457 -58.6914 C 68.457 -61.9629 65.7715 -64.7461 62.4023 -64.7461 C 59.1309 -64.7461 56.3477 -61.9629 56.3477 -58.6914 C 56.3477 -55.3711 59.082 -52.5879 62.4023 -52.5879 Z M 46.9238 -46.3379 C 50.2441 -46.3379 53.0273 -49.0723 53.0273 -52.3438 C 53.0273 -55.7129 50.293 -58.3984 46.9238 -58.3984 C 43.7012 -58.3984 40.8691 -55.7129 40.8691 -52.3438 C 40.8691 -49.0234 43.6035 -46.3379 46.9238 -46.3379 Z M 77.6855 -46.3379 C 81.0059 -46.3379 83.8379 -49.0234 83.8379 -52.3438 C 83.8379 -55.7129 81.0547 -58.3984 77.6855 -58.3984 C 74.4629 -58.3984 71.6797 -55.7129 71.6797 -52.3438 C 71.6797 -49.0234 74.4629 -46.3379 77.6855 -46.3379 Z M 62.4023 -5.66406 C 67.7246 -5.66406 72.0703 -10.0586 72.0703 -15.4297 C 72.0703 -19.2383 69.8242 -22.5586 66.6504 -24.1211 L 66.6504 -41.8945 C 66.6504 -44.4824 64.9902 -46.3379 62.4023 -46.3379 C 59.9121 -46.3379 58.1543 -44.4824 58.1543 -41.8945 L 58.1543 -24.1211 C 54.8828 -22.5586 52.6367 -19.2383 52.6367 -15.4297 C 52.6367 -10.0586 57.0312 -5.66406 62.4023 -5.66406 Z M 39.6484 -32.959 C 42.9688 -32.959 45.7031 -35.7422 45.7031 -39.0625 C 45.7031 -42.3828 42.9688 -45.1172 39.6484 -45.1172 C 36.377 -45.1172 33.5449 -42.3828 33.5449 -39.0625 C 33.5449 -35.7422 36.3281 -32.959 39.6484 -32.959 Z M 85.2539 -32.666 C 88.5742 -32.666 91.3086 -35.4004 91.3086 -38.7207 C 91.3086 -42.041 88.623 -44.8242 85.2539 -44.8242 C 81.9824 -44.8242 79.248 -42.041 79.248 -38.7207 C 79.248 -35.4004 81.9824 -32.666 85.2539 -32.666 Z"/>
  </g>
  <g id="Ultralight-L" transform="matrix(1 0 0 1 487.641 1556)">
   <path d="M 72.0703 25.7324 C 105.566 25.7324 132.91 -1.61133 132.91 -35.1074 C 132.91 -68.5547 105.566 -95.8984 72.0703 -95.8984 C 38.623 -95.8984 11.2793 -68.5547 11.2793 -35.1074 C 11.2793 -1.61133 38.623 25.7324 72.0703 25.7324 Z M 72.0703 23.2422 C 39.9414 23.2422 13.7695 -2.97852 13.7695 -35.1074 C 13.7695 -67.2363 39.9414 -93.4082 72.0703 -93.4082 C 104.199 -93.4082 130.42 -67.2363 130.371 -35.1074 C 130.371 -2.97852 104.199 23.2422 72.0703 23.2422 Z M 72.0703 -64.4531 C 74.7559 -64.4531 76.9531 -66.6504 76.9531 -69.2871 C 76.9531 -71.9727 74.7559 -74.1699 72.0703 -74.1699 C 69.3848 -74.1699 67.1875 -71.9727 67.1875 -69.2871 C 67.1875 -66.6504 69.3848 -64.4531 72.0703 -64.4531 Z M 89.5508 -59.6191 C 92.2363 -59.6191 94.4336 -61.8164 94.4336 -64.4531 C 94.4336 -67.1387 92.2363 -69.3359 89.5508 -69.3359 C 86.8652 -69.3359 84.668 -67.1387 84.668 -64.4531 C 84.668 -61.8164 86.8652 -59.6191 89.5508 -59.6191 Z M 54.8828 -59.5215 C 57.5195 -59.5215 59.7168 -61.7188 59.7168 -64.3555 C 59.7168 -67.041 57.5195 -69.2383 54.8828 -69.2383 C 52.1973 -69.2383 50 -67.041 50 -64.3555 C 50 -61.7188 52.1973 -59.5215 54.8828 -59.5215 Z M 102.734 -47.4609 C 105.42 -47.4609 107.617 -49.707 107.617 -52.3438 C 107.617 -55.0293 105.42 -57.2266 102.734 -57.2266 C 100.049 -57.2266 97.8516 -55.0293 97.8516 -52.3438 C 97.8516 -49.707 100.049 -47.4609 102.734 -47.4609 Z M 41.6992 -47.4609 C 44.3359 -47.4609 46.582 -49.6582 46.582 -52.3438 C 46.582 -55.0293 44.3359 -57.2266 41.6992 -57.2266 C 39.0137 -57.2266 36.8164 -55.0293 36.8164 -52.3438 C 36.8164 -49.6582 39.0137 -47.4609 41.6992 -47.4609 Z M 72.168 -2.09961 C 75.8789 -2.09961 78.8574 -5.12695 78.8574 -8.88672 C 78.8574 -12.1094 76.709 -14.6973 73.877 -15.5273 L 73.877 -46.4355 C 73.877 -47.4609 73.1934 -48.1445 72.168 -48.1445 C 71.2402 -48.1445 70.459 -47.4609 70.459 -46.4355 L 70.459 -15.5273 C 67.5293 -14.6973 65.3809 -12.1094 65.3809 -8.88672 C 65.3809 -5.12695 68.4082 -2.09961 72.168 -2.09961 Z"/>
  </g>
  <g id="Thin-L" transform="matrix(1 0 0 1 783.717 1556)">
   <path d="M 72.7051 26.3184 C 106.494 26.3184 134.131 -1.36719 134.131 -35.1074 C 134.131 -68.8965 106.445 -96.582 72.7051 -96.582 C 38.916 -96.582 11.2793 -68.8965 11.2793 -35.1074 C 11.2793 -1.36719 38.916 26.3184 72.7051 26.3184 Z M 72.7051 22.3145 C 41.0156 22.3145 15.2344 -3.41797 15.2344 -35.1074 C 15.2344 -66.8457 41.0156 -92.5781 72.7051 -92.5781 C 104.395 -92.5781 130.127 -66.8457 130.176 -35.1074 C 130.176 -3.41797 104.395 22.3145 72.7051 22.3145 Z M 72.7051 -64.3066 C 75.4883 -64.3066 77.7832 -66.6504 77.7832 -69.4336 C 77.7832 -72.2168 75.4883 -74.5605 72.7051 -74.5605 C 69.873 -74.5605 67.5781 -72.2168 67.5781 -69.4336 C 67.5781 -66.6504 69.873 -64.3066 72.7051 -64.3066 Z M 90.2832 -59.3262 C 93.1152 -59.3262 95.4102 -61.6699 95.4102 -64.4531 C 95.4102 -67.2852 93.1152 -69.5801 90.2832 -69.5801 C 87.5 -69.5801 85.2051 -67.2852 85.2051 -64.4531 C 85.2051 -61.6699 87.5 -59.3262 90.2832 -59.3262 Z M 55.1758 -59.2773 C 57.959 -59.2773 60.2539 -61.5723 60.2539 -64.4043 C 60.2539 -67.1875 57.959 -69.4824 55.1758 -69.4824 C 52.3438 -69.4824 50.0488 -67.1875 50.0488 -64.4043 C 50.0488 -61.5723 52.3438 -59.2773 55.1758 -59.2773 Z M 42.1387 -47.0215 C 44.9219 -47.0215 47.2168 -49.3164 47.2168 -52.0996 C 47.2168 -54.9316 44.9219 -57.2266 42.1387 -57.2266 C 39.3066 -57.2266 37.0117 -54.9316 37.0117 -52.0996 C 37.0117 -49.3164 39.3066 -47.0215 42.1387 -47.0215 Z M 103.32 -47.0215 C 106.152 -47.0215 108.447 -49.3164 108.447 -52.0996 C 108.447 -54.9316 106.152 -57.2266 103.32 -57.2266 C 100.537 -57.2266 98.2422 -54.9316 98.2422 -52.0996 C 98.2422 -49.3164 100.537 -47.0215 103.32 -47.0215 Z M 72.7539 -1.17188 C 76.8066 -1.17188 80.0781 -4.44336 80.0781 -8.54492 C 80.0781 -11.9141 77.8809 -14.6484 74.9023 -15.625 L 74.9023 -46.2891 C 74.9023 -47.5586 74.0234 -48.4375 72.7539 -48.4375 C 71.582 -48.4375 70.6055 -47.5586 70.6055 -46.2891 L 70.6055 -15.625 C 67.5781 -14.6484 65.3809 -11.9141 65.3809 -8.54492 C 65.3809 -4.44336 68.6523 -1.17188 72.7539 -1.17188 Z"/>
  </g>
  <g id="Light-L" transform="matrix(1 0 0 1 1079.21 1556)">
   <path d="M 73.9258 27.4902 C 108.301 27.4902 136.572 -0.830078 136.572 -35.1562 C 136.572 -69.5312 108.252 -97.8516 73.877 -97.8516 C 39.5508 -97.8516 11.2793 -69.5312 11.2793 -35.1562 C 11.2793 -0.830078 39.5508 27.4902 73.9258 27.4902 Z M 73.9258 20.6055 C 43.0664 20.6055 18.1641 -4.3457 18.1641 -35.1562 C 18.1641 -66.0156 43.0664 -90.918 73.877 -90.918 C 104.736 -90.918 129.639 -66.0156 129.688 -35.1562 C 129.736 -4.3457 104.785 20.6055 73.9258 20.6055 Z M 73.877 -64.1113 C 76.9531 -64.1113 79.4434 -66.6504 79.4434 -69.6777 C 79.4434 -72.7539 76.9531 -75.2441 73.877 -75.2441 C 70.8496 -75.2441 68.3105 -72.7539 68.3105 -69.6777 C 68.3105 -66.6504 70.8496 -64.1113 73.877 -64.1113 Z M 91.748 -58.8379 C 94.8242 -58.8379 97.3145 -61.377 97.3145 -64.4531 C 97.3145 -67.5293 94.8242 -70.0195 91.748 -70.0195 C 88.6719 -70.0195 86.1816 -67.5293 86.1816 -64.4531 C 86.1816 -61.377 88.6719 -58.8379 91.748 -58.8379 Z M 55.7617 -58.7891 C 58.8379 -58.7891 61.3281 -61.3281 61.3281 -64.4043 C 61.3281 -67.4805 58.8379 -69.9707 55.7617 -69.9707 C 52.6855 -69.9707 50.1953 -67.4805 50.1953 -64.4043 C 50.1953 -61.3281 52.6855 -58.7891 55.7617 -58.7891 Z M 42.9688 -46.0938 C 46.0449 -46.0938 48.5352 -48.584 48.5352 -51.6602 C 48.5352 -54.7363 46.0449 -57.2754 42.9688 -57.2754 C 39.8926 -57.2754 37.4023 -54.7363 37.4023 -51.6602 C 37.4023 -48.584 39.8926 -46.0938 42.9688 -46.0938 Z M 104.492 -46.0938 C 107.568 -46.0938 110.059 -48.584 110.059 -51.6602 C 110.059 -54.7363 107.568 -57.2266 104.492 -57.2266 C 101.416 -57.2266 98.9258 -54.7363 98.9258 -51.6602 C 98.9258 -48.584 101.416 -46.0938 104.492 -46.0938 Z M 73.9258 0.683594 C 78.6133 0.683594 82.4219 -3.17383 82.4219 -7.91016 C 82.4219 -11.5723 80.127 -14.5996 76.9531 -15.8691 L 76.9531 -45.9961 C 76.9531 -47.7539 75.6348 -49.0723 73.9258 -49.0723 C 72.3145 -49.0723 70.9473 -47.7539 70.9473 -45.9961 L 70.9473 -15.8691 C 67.7246 -14.5996 65.4297 -11.5723 65.4297 -7.91016 C 65.4297 -3.17383 69.1895 0.683594 73.9258 0.683594 Z"/>
  </g>
  <g id="Regular-L" transform="matrix(1 0 0 1 1374.99 1556)">
   <path d="M 74.8535 28.3691 C 109.668 28.3691 138.428 -0.390625 138.428 -35.2051 C 138.428 -70.0195 109.619 -98.7793 74.8047 -98.7793 C 39.9902 -98.7793 11.2793 -70.0195 11.2793 -35.2051 C 11.2793 -0.390625 40.0391 28.3691 74.8535 28.3691 Z M 74.8535 19.2871 C 44.6289 19.2871 20.4102 -5.0293 20.4102 -35.2051 C 20.4102 -65.3809 44.5801 -89.6973 74.8047 -89.6973 C 104.98 -89.6973 129.297 -65.3809 129.346 -35.2051 C 129.395 -5.0293 105.029 19.2871 74.8535 19.2871 Z M 74.8047 -63.916 C 78.0762 -63.916 80.7129 -66.6504 80.7129 -69.873 C 80.7129 -73.1445 78.0762 -75.7812 74.8047 -75.7812 C 71.582 -75.7812 68.8965 -73.1445 68.8965 -69.873 C 68.8965 -66.6504 71.582 -63.916 74.8047 -63.916 Z M 92.8223 -58.4961 C 96.0938 -58.4961 98.7305 -61.1816 98.7305 -64.4531 C 98.7305 -67.6758 96.0938 -70.4102 92.8223 -70.4102 C 89.5508 -70.4102 86.9141 -67.6758 86.9141 -64.4531 C 86.9141 -61.1816 89.5508 -58.4961 92.8223 -58.4961 Z M 56.2012 -58.4473 C 59.4727 -58.4473 62.1094 -61.1328 62.1094 -64.4531 C 62.1094 -67.6758 59.4727 -70.3613 56.2012 -70.3613 C 52.9297 -70.3613 50.2441 -67.6758 50.2441 -64.4531 C 50.2441 -61.1328 52.9297 -58.4473 56.2012 -58.4473 Z M 43.6035 -45.4102 C 46.9238 -45.4102 49.5605 -48.0957 49.5605 -51.3672 C 49.5605 -54.6387 46.9238 -57.2754 43.6035 -57.2754 C 40.332 -57.2754 37.6953 -54.6387 37.6953 -51.3672 C 37.6953 -48.0957 40.332 -45.4102 43.6035 -45.4102 Z M 105.371 -45.3613 C 108.691 -45.3613 111.328 -47.998 111.328 -51.3184 C 111.328 -54.5898 108.691 -57.2266 105.371 -57.2266 C 102.1 -57.2266 99.4629 -54.5898 99.4629 -51.3184 C 99.4629 -47.998 102.1 -45.3613 105.371 -45.3613 Z M 74.8535 2.05078 C 80.0293 2.05078 84.1797 -2.14844 84.1797 -7.37305 C 84.1797 -11.2793 81.8359 -14.5996 78.4668 -16.0156 L 78.4668 -45.752 C 78.4668 -47.9004 76.8555 -49.5117 74.8535 -49.5117 C 72.8516 -49.5117 71.1914 -47.9004 71.1914 -45.752 L 71.1914 -16.0156 C 67.8223 -14.5996 65.4297 -11.2793 65.4297 -7.37305 C 65.4297 -2.14844 69.6289 2.05078 74.8535 2.05078 Z"/>
  </g>
  <g id="Medium-L" transform="matrix(1 0 0 1 1670.9 1556)">
   <path d="M 75.6348 29.1992 C 110.938 29.1992 140.039 0.0488281 140.039 -35.2051 C 140.039 -70.459 110.889 -99.6094 75.5859 -99.6094 C 40.332 -99.6094 11.2793 -70.459 11.2793 -35.2051 C 11.2793 0.0488281 40.3809 29.1992 75.6348 29.1992 Z M 75.6348 18.0664 C 46.1426 18.0664 22.4609 -5.71289 22.4609 -35.2051 C 22.4609 -64.6973 46.0938 -88.4766 75.5859 -88.4766 C 105.127 -88.4766 128.857 -64.6973 128.906 -35.2051 C 128.955 -5.71289 105.176 18.0664 75.6348 18.0664 Z M 75.5859 -63.1348 C 79.0527 -63.1348 81.7871 -65.918 81.7871 -69.3359 C 81.7871 -72.7539 79.0527 -75.5371 75.5859 -75.5371 C 72.2168 -75.5371 69.4336 -72.7539 69.4336 -69.3359 C 69.4336 -65.918 72.2168 -63.1348 75.5859 -63.1348 Z M 93.8477 -57.3242 C 97.3145 -57.3242 100.098 -60.1074 100.098 -63.5254 C 100.098 -66.9434 97.3145 -69.7266 93.8477 -69.7266 C 90.4785 -69.7266 87.6953 -66.9434 87.6953 -63.5254 C 87.6953 -60.1074 90.4785 -57.3242 93.8477 -57.3242 Z M 56.7871 -57.2754 C 60.2051 -57.2754 62.9883 -60.1074 62.9883 -63.5254 C 62.9883 -66.8945 60.2051 -69.7266 56.7871 -69.7266 C 53.3691 -69.7266 50.5859 -66.8945 50.5859 -63.5254 C 50.5859 -60.1074 53.3691 -57.2754 56.7871 -57.2754 Z M 44.6289 -43.7012 C 48.0469 -43.7012 50.8301 -46.4844 50.8301 -49.9023 C 50.8301 -53.3203 48.0469 -56.1035 44.6289 -56.1035 C 41.2109 -56.1035 38.4277 -53.3203 38.4277 -49.9023 C 38.4277 -46.4844 41.2109 -43.7012 44.6289 -43.7012 Z M 106.055 -43.6035 C 109.473 -43.6035 112.256 -46.3867 112.256 -49.8047 C 112.256 -53.2227 109.473 -56.0059 106.055 -56.0059 C 102.637 -56.0059 99.8535 -53.2227 99.8535 -49.8047 C 99.8535 -46.3867 102.637 -43.6035 106.055 -43.6035 Z M 75.6348 2.29492 C 81.1035 2.29492 85.498 -2.14844 85.498 -7.66602 C 85.498 -11.6699 83.0566 -15.1367 79.5898 -16.6504 L 79.5898 -45.5078 C 79.5898 -47.8027 77.832 -49.5605 75.6348 -49.5605 C 73.4375 -49.5605 71.6797 -47.8027 71.6797 -45.5078 L 71.6797 -16.6504 C 68.2129 -15.1367 65.7715 -11.6699 65.7715 -7.66602 C 65.7715 -2.14844 70.166 2.29492 75.6348 2.29492 Z"/>
  </g>
  <g id="Semibold-L" transform="matrix(1 0 0 1 1967 1556)">
   <path d="M 76.2695 29.7852 C 111.914 29.7852 141.26 0.439453 141.26 -35.2051 C 141.26 -70.8496 111.865 -100.244 76.2207 -100.244 C 40.5762 -100.244 11.2793 -70.8496 11.2793 -35.2051 C 11.2793 0.439453 40.625 29.7852 76.2695 29.7852 Z M 76.2695 17.0898 C 47.3145 17.0898 24.0234 -6.25 24.0234 -35.2051 C 24.0234 -64.209 47.2656 -87.5 76.2207 -87.5 C 105.225 -87.5 128.516 -64.209 128.564 -35.2051 C 128.613 -6.25 105.273 17.0898 76.2695 17.0898 Z M 76.2207 -62.5 C 79.7852 -62.5 82.6172 -65.4297 82.6172 -68.8965 C 82.6172 -72.4609 79.7852 -75.293 76.2207 -75.293 C 72.7539 -75.293 69.8242 -72.4609 69.8242 -68.8965 C 69.8242 -65.4297 72.7539 -62.5 76.2207 -62.5 Z M 94.6777 -56.3965 C 98.1934 -56.3965 101.074 -59.3262 101.074 -62.8418 C 101.074 -66.3574 98.2422 -69.2383 94.6777 -69.2383 C 91.1621 -69.2383 88.2812 -66.3574 88.2812 -62.8418 C 88.2812 -59.3262 91.1621 -56.3965 94.6777 -56.3965 Z M 57.2266 -56.3965 C 60.791 -56.3965 63.6719 -59.3262 63.6719 -62.8418 C 63.6719 -66.3574 60.791 -69.2383 57.2266 -69.2383 C 53.7109 -69.2383 50.8301 -66.3574 50.8301 -62.8418 C 50.8301 -59.2773 53.7109 -56.3965 57.2266 -56.3965 Z M 45.4102 -42.3828 C 48.9746 -42.3828 51.8555 -45.2637 51.8555 -48.7793 C 51.8555 -52.2949 48.9746 -55.1758 45.4102 -55.1758 C 41.8945 -55.1758 39.0137 -52.2949 39.0137 -48.7793 C 39.0137 -45.2637 41.8945 -42.3828 45.4102 -42.3828 Z M 106.592 -42.2363 C 110.107 -42.2363 112.988 -45.1172 112.988 -48.6328 C 112.988 -52.1973 110.107 -55.0293 106.592 -55.0293 C 103.076 -55.0293 100.195 -52.1973 100.195 -48.6328 C 100.195 -45.1172 103.076 -42.2363 106.592 -42.2363 Z M 76.2695 2.44141 C 81.8848 2.44141 86.4746 -2.14844 86.4746 -7.8125 C 86.4746 -12.0117 83.9844 -15.5273 80.4199 -17.1387 L 80.4199 -45.3125 C 80.4199 -47.7539 78.6133 -49.6094 76.2695 -49.6094 C 73.9258 -49.6094 72.0703 -47.7539 72.0703 -45.3125 L 72.0703 -17.1387 C 68.5059 -15.5273 66.0156 -12.0117 66.0156 -7.8125 C 66.0156 -2.14844 70.5566 2.44141 76.2695 2.44141 Z"/>
  </g>
  <g id="Bold-L" transform="matrix(1 0 0 1 2262.9 1556)">
   <path d="M 77.0996 30.6152 C 113.184 30.6152 142.92 0.878906 142.92 -35.2051 C 142.92 -71.3379 113.135 -101.025 77.0508 -101.025 C 40.918 -101.025 11.2793 -71.3379 11.2793 -35.2051 C 11.2793 0.878906 40.9668 30.6152 77.0996 30.6152 Z M 77.0996 15.8691 C 48.7793 15.8691 26.0742 -6.93359 26.0742 -35.2051 C 26.0742 -63.4766 48.7793 -86.2793 77.0508 -86.2793 C 105.322 -86.2793 128.125 -63.4766 128.125 -35.2051 C 128.174 -6.93359 105.371 15.8691 77.0996 15.8691 Z M 77.0508 -61.6699 C 80.7129 -61.6699 83.7402 -64.6973 83.7402 -68.3594 C 83.7402 -72.0215 80.7617 -75.0488 77.0508 -75.0488 C 73.4375 -75.0488 70.3613 -72.0215 70.3613 -68.3594 C 70.3613 -64.6973 73.3887 -61.6699 77.0508 -61.6699 Z M 95.7031 -55.2246 C 99.4141 -55.2246 102.441 -58.252 102.441 -61.9141 C 102.441 -65.5762 99.4141 -68.6035 95.7031 -68.6035 C 92.0898 -68.6035 89.0625 -65.5762 89.0625 -61.9141 C 89.0625 -58.252 92.0898 -55.2246 95.7031 -55.2246 Z M 57.8613 -55.2246 C 61.5234 -55.2246 64.5508 -58.252 64.5508 -61.9141 C 64.5508 -65.5762 61.5723 -68.6035 57.8613 -68.6035 C 54.1992 -68.6035 51.1719 -65.5762 51.1719 -61.9141 C 51.1719 -58.2031 54.1504 -55.2246 57.8613 -55.2246 Z M 46.4355 -40.625 C 50.1465 -40.625 53.125 -43.6035 53.125 -47.3145 C 53.125 -50.9766 50.1465 -54.0039 46.4355 -54.0039 C 42.7734 -54.0039 39.7461 -50.9766 39.7461 -47.3145 C 39.7461 -43.6035 42.7734 -40.625 46.4355 -40.625 Z M 107.227 -40.4297 C 110.938 -40.4297 113.916 -43.457 113.916 -47.1191 C 113.916 -50.7812 110.938 -53.8086 107.227 -53.8086 C 103.613 -53.8086 100.586 -50.7812 100.586 -47.1191 C 100.586 -43.457 103.613 -40.4297 107.227 -40.4297 Z M 77.0508 2.68555 C 82.959 2.68555 87.7441 -2.14844 87.7441 -8.10547 C 87.7441 -12.4023 85.2051 -16.1133 81.543 -17.7734 L 81.543 -45.0195 C 81.543 -47.6562 79.6387 -49.6582 77.0508 -49.6582 C 74.5605 -49.6582 72.6074 -47.6562 72.6074 -45.0195 L 72.6074 -17.7734 C 68.8965 -16.1133 66.3086 -12.4023 66.3086 -8.10547 C 66.3086 -2.14844 71.0938 2.68555 77.0508 2.68555 Z"/>
  </g>
  <g id="Heavy-L" transform="matrix(1 0 0 1 2558.42 1556)">
   <path d="M 78.2715 31.7871 C 115.039 31.7871 145.264 1.61133 145.264 -35.2051 C 145.264 -72.0215 115.039 -102.197 78.2227 -102.197 C 41.4551 -102.197 11.2793 -72.0215 11.2793 -35.2051 C 11.2793 1.61133 41.4551 31.7871 78.2715 31.7871 Z M 78.2715 14.0137 C 50.9766 14.0137 29.0527 -7.95898 29.0527 -35.2051 C 29.0527 -62.5 50.9766 -84.4727 78.2227 -84.4727 C 105.518 -84.4727 127.49 -62.5 127.49 -35.2051 C 127.539 -7.95898 105.518 14.0137 78.2715 14.0137 Z M 78.2227 -60.4492 C 82.1289 -60.4492 85.3027 -63.6719 85.3027 -67.5781 C 85.3027 -71.4355 82.1777 -74.6582 78.2227 -74.6582 C 74.4141 -74.6582 71.1426 -71.4355 71.1426 -67.5781 C 71.1426 -63.6719 74.3652 -60.4492 78.2227 -60.4492 Z M 97.2656 -53.5156 C 101.172 -53.5156 104.395 -56.6895 104.395 -60.5957 C 104.395 -64.502 101.221 -67.6758 97.2656 -67.6758 C 93.4082 -67.6758 90.2344 -64.502 90.2344 -60.5957 C 90.2344 -56.6895 93.4082 -53.5156 97.2656 -53.5156 Z M 58.7402 -53.5156 C 62.5977 -53.5156 65.8203 -56.7383 65.8203 -60.5957 C 65.8203 -64.502 62.6465 -67.6758 58.7402 -67.6758 C 54.8828 -67.6758 51.6602 -64.502 51.6602 -60.5957 C 51.6602 -56.6895 54.834 -53.5156 58.7402 -53.5156 Z M 47.9492 -38.0859 C 51.8555 -38.0859 55.0293 -41.2598 55.0293 -45.166 C 55.0293 -49.0723 51.8555 -52.2461 47.9492 -52.2461 C 44.0918 -52.2461 40.8691 -49.0723 40.8691 -45.166 C 40.8691 -41.2598 44.043 -38.0859 47.9492 -38.0859 Z M 108.203 -37.8418 C 112.109 -37.8418 115.332 -41.0156 115.332 -44.9219 C 115.332 -48.8281 112.158 -52.002 108.203 -52.002 C 104.395 -52.002 101.172 -48.8281 101.172 -44.9219 C 101.172 -41.0156 104.395 -37.8418 108.203 -37.8418 Z M 78.2227 3.02734 C 84.5215 3.02734 89.6484 -2.09961 89.6484 -8.44727 C 89.6484 -12.9883 86.9629 -16.8945 83.1543 -18.7012 L 83.1543 -44.6289 C 83.1543 -47.5586 81.1035 -49.707 78.2227 -49.707 C 75.4395 -49.707 73.3398 -47.5586 73.3398 -44.6289 L 73.3398 -18.7012 C 69.4824 -16.8945 66.7969 -12.9883 66.7969 -8.44727 C 66.7969 -2.09961 71.9238 3.02734 78.2227 3.02734 Z"/>
  </g>
  <g id="Black-L" transform="matrix(1 0 0 1 2854.08 1556)">
   <path d="M 79.2969 32.8613 C 116.748 32.8613 147.363 2.19727 147.363 -35.2051 C 147.363 -72.6074 116.699 -103.271 79.2969 -103.271 C 41.8945 -103.271 11.2793 -72.6074 11.2793 -35.2051 C 11.2793 2.19727 41.8945 32.8613 79.2969 32.8613 Z M 79.2969 12.4023 C 52.9297 12.4023 31.7383 -8.83789 31.7383 -35.2051 C 31.7383 -61.5723 52.9297 -82.8125 79.2969 -82.8125 C 105.664 -82.8125 126.904 -61.5723 126.953 -35.2051 C 126.953 -8.83789 105.664 12.4023 79.2969 12.4023 Z M 79.2969 -59.375 C 83.3984 -59.375 86.7676 -62.793 86.7676 -66.8457 C 86.7676 -70.9473 83.4473 -74.2676 79.2969 -74.2676 C 75.293 -74.2676 71.8262 -70.9473 71.8262 -66.8457 C 71.8262 -62.793 75.2441 -59.375 79.2969 -59.375 Z M 59.5215 -51.9531 C 63.5742 -51.9531 66.9434 -55.3711 66.9434 -59.375 C 66.9434 -63.5254 63.6719 -66.8457 59.5215 -66.8457 C 55.4688 -66.8457 52.0508 -63.5254 52.0508 -59.375 C 52.0508 -55.2734 55.4199 -51.9531 59.5215 -51.9531 Z M 98.6328 -51.9531 C 102.734 -51.9531 106.152 -55.2734 106.152 -59.375 C 106.152 -63.5254 102.783 -66.8457 98.6328 -66.8457 C 94.5801 -66.8457 91.2598 -63.5254 91.2598 -59.375 C 91.2598 -55.2734 94.5801 -51.9531 98.6328 -51.9531 Z M 49.2676 -35.791 C 53.3691 -35.791 56.7383 -39.1602 56.7383 -43.2617 C 56.7383 -47.3633 53.3691 -50.6836 49.2676 -50.6836 C 45.2637 -50.6836 41.7969 -47.3633 41.7969 -43.2617 C 41.7969 -39.1602 45.166 -35.791 49.2676 -35.791 Z M 109.082 -35.498 C 113.184 -35.498 116.553 -38.8672 116.553 -42.9199 C 116.553 -47.0215 113.232 -50.3906 109.082 -50.3906 C 105.078 -50.3906 101.709 -47.0215 101.709 -42.9199 C 101.709 -38.8672 105.078 -35.498 109.082 -35.498 Z M 79.2969 3.32031 C 85.8887 3.32031 91.3086 -2.09961 91.3086 -8.78906 C 91.3086 -13.5254 88.5254 -17.627 84.5703 -19.5801 L 84.5703 -44.2871 C 84.5703 -47.4121 82.373 -49.8047 79.2969 -49.8047 C 76.2695 -49.8047 74.0234 -47.4121 74.0234 -44.2871 L 74.0234 -19.5801 C 70.0195 -17.627 67.2363 -13.5254 67.2363 -8.78906 C 67.2363 -2.09961 72.6074 3.32031 79.2969 3.32031 Z"/>
  </g>
 </g>
</svg>
