<?xml version="1.0" encoding="UTF-8"?>
<!--Generator: Apple Native CoreSVG 123-->
<!DOCTYPE svg
PUBLIC "-//W3C//DTD SVG 1.1//EN"
       "http://www.w3.org/Graphics/SVG/1.1/DTD/svg11.dtd">
<svg version="1.1" xmlns="http://www.w3.org/2000/svg" xmlns:xlink="http://www.w3.org/1999/xlink" width="3300" height="2200">
 <!--glyph: "uni1006EF.medium", point size: 100.000000, font version: "Version 15.0d4e20", template writer version: "2"-->
 <g id="Notes">
  <rect height="2200" id="artboard" style="fill:white;opacity:1" width="3300" x="0" y="0"/>
  <line id="" style="fill:none;stroke:black;opacity:1;stroke-width:0.5;" x1="263" x2="3036" y1="292" y2="292"/>
  <text style="stroke:none;fill:black;font-family:-apple-system,&quot;SF Pro Display&quot;,&quot;SF Pro Text&quot;,Helvetica,sans-serif;font-weight:bold;" transform="matrix(1 0 0 1 263 322)">Weight/Scale Variations</text>
  <text style="stroke:none;fill:black;font-family:-apple-system,&quot;SF Pro Display&quot;,&quot;SF Pro Text&quot;,Helvetica,sans-serif;text-anchor:middle;" transform="matrix(1 0 0 1 559.711 322)">Ultralight</text>
  <text style="stroke:none;fill:black;font-family:-apple-system,&quot;SF Pro Display&quot;,&quot;SF Pro Text&quot;,Helvetica,sans-serif;text-anchor:middle;" transform="matrix(1 0 0 1 856.422 322)">Thin</text>
  <text style="stroke:none;fill:black;font-family:-apple-system,&quot;SF Pro Display&quot;,&quot;SF Pro Text&quot;,Helvetica,sans-serif;text-anchor:middle;" transform="matrix(1 0 0 1 1153.13 322)">Light</text>
  <text style="stroke:none;fill:black;font-family:-apple-system,&quot;SF Pro Display&quot;,&quot;SF Pro Text&quot;,Helvetica,sans-serif;text-anchor:middle;" transform="matrix(1 0 0 1 1449.84 322)">Regular</text>
  <text style="stroke:none;fill:black;font-family:-apple-system,&quot;SF Pro Display&quot;,&quot;SF Pro Text&quot;,Helvetica,sans-serif;text-anchor:middle;" transform="matrix(1 0 0 1 1746.56 322)">Medium</text>
  <text style="stroke:none;fill:black;font-family:-apple-system,&quot;SF Pro Display&quot;,&quot;SF Pro Text&quot;,Helvetica,sans-serif;text-anchor:middle;" transform="matrix(1 0 0 1 2043.27 322)">Semibold</text>
  <text style="stroke:none;fill:black;font-family:-apple-system,&quot;SF Pro Display&quot;,&quot;SF Pro Text&quot;,Helvetica,sans-serif;text-anchor:middle;" transform="matrix(1 0 0 1 2339.98 322)">Bold</text>
  <text style="stroke:none;fill:black;font-family:-apple-system,&quot;SF Pro Display&quot;,&quot;SF Pro Text&quot;,Helvetica,sans-serif;text-anchor:middle;" transform="matrix(1 0 0 1 2636.69 322)">Heavy</text>
  <text style="stroke:none;fill:black;font-family:-apple-system,&quot;SF Pro Display&quot;,&quot;SF Pro Text&quot;,Helvetica,sans-serif;text-anchor:middle;" transform="matrix(1 0 0 1 2933.4 322)">Black</text>
  <line id="" style="fill:none;stroke:black;opacity:1;stroke-width:0.5;" x1="263" x2="3036" y1="1903" y2="1903"/>
  <g id="" transform="matrix(1 0 0 1 263 1933)">
   <path d="M 9.24805 0.830078 C 13.5547 0.830078 17.1387 -2.74414 17.1387 -7.05078 C 17.1387 -11.3574 13.5449 -14.9316 9.23828 -14.9316 C 4.94141 -14.9316 1.36719 -11.3574 1.36719 -7.05078 C 1.36719 -2.74414 4.95117 0.830078 9.24805 0.830078 Z M 9.24805 -0.654297 C 5.70312 -0.654297 2.87109 -3.49609 2.87109 -7.05078 C 2.87109 -10.6055 5.69336 -13.4473 9.23828 -13.4473 C 12.793 -13.4473 15.6348 -10.6055 15.6445 -7.05078 C 15.6543 -3.49609 12.8027 -0.654297 9.24805 -0.654297 Z M 9.22852 -3.42773 C 9.69727 -3.42773 9.9707 -3.74023 9.9707 -4.25781 L 9.9707 -6.31836 L 12.1973 -6.31836 C 12.6953 -6.31836 13.0371 -6.57227 13.0371 -7.04102 C 13.0371 -7.51953 12.7148 -7.7832 12.1973 -7.7832 L 9.9707 -7.7832 L 9.9707 -10.0098 C 9.9707 -10.5273 9.69727 -10.8496 9.22852 -10.8496 C 8.75977 -10.8496 8.50586 -10.5078 8.50586 -10.0098 L 8.50586 -7.7832 L 6.29883 -7.7832 C 5.78125 -7.7832 5.44922 -7.51953 5.44922 -7.04102 C 5.44922 -6.57227 5.80078 -6.31836 6.29883 -6.31836 L 8.50586 -6.31836 L 8.50586 -4.25781 C 8.50586 -3.75977 8.75977 -3.42773 9.22852 -3.42773 Z"/>
  </g>
  <g id="" transform="matrix(1 0 0 1 281.506 1933)">
   <path d="M 11.709 2.91016 C 17.1484 2.91016 21.6699 -1.60156 21.6699 -7.05078 C 21.6699 -12.4902 17.1387 -17.0117 11.6992 -17.0117 C 6.25 -17.0117 1.74805 -12.4902 1.74805 -7.05078 C 1.74805 -1.60156 6.25977 2.91016 11.709 2.91016 Z M 11.709 1.25 C 7.09961 1.25 3.41797 -2.44141 3.41797 -7.05078 C 3.41797 -11.6504 7.08984 -15.3516 11.6992 -15.3516 C 16.2988 -15.3516 20 -11.6504 20.0098 -7.05078 C 20.0195 -2.44141 16.3086 1.25 11.709 1.25 Z M 11.6797 -2.41211 C 12.207 -2.41211 12.5195 -2.77344 12.5195 -3.33984 L 12.5195 -6.23047 L 15.5762 -6.23047 C 16.123 -6.23047 16.5039 -6.51367 16.5039 -7.03125 C 16.5039 -7.55859 16.1426 -7.86133 15.5762 -7.86133 L 12.5195 -7.86133 L 12.5195 -10.9277 C 12.5195 -11.5039 12.207 -11.8555 11.6797 -11.8555 C 11.1621 -11.8555 10.8789 -11.4844 10.8789 -10.9277 L 10.8789 -7.86133 L 7.83203 -7.86133 C 7.25586 -7.86133 6.89453 -7.55859 6.89453 -7.03125 C 6.89453 -6.51367 7.28516 -6.23047 7.83203 -6.23047 L 10.8789 -6.23047 L 10.8789 -3.33984 C 10.8789 -2.79297 11.1621 -2.41211 11.6797 -2.41211 Z"/>
  </g>
  <g id="" transform="matrix(1 0 0 1 304.914 1933)">
   <path d="M 14.9707 5.67383 C 21.9336 5.67383 27.6855 -0.078125 27.6855 -7.04102 C 27.6855 -14.0039 21.9238 -19.7559 14.9609 -19.7559 C 7.99805 -19.7559 2.25586 -14.0039 2.25586 -7.04102 C 2.25586 -0.078125 8.00781 5.67383 14.9707 5.67383 Z M 14.9707 3.85742 C 8.92578 3.85742 4.08203 -1.00586 4.08203 -7.04102 C 4.08203 -13.0762 8.91602 -17.9395 14.9609 -17.9395 C 20.9961 -17.9395 25.8594 -13.0762 25.8691 -7.04102 C 25.8789 -1.00586 21.0059 3.85742 14.9707 3.85742 Z M 14.9414 -1.06445 C 15.5176 -1.06445 15.8594 -1.45508 15.8594 -2.06055 L 15.8594 -6.13281 L 20.0977 -6.13281 C 20.6934 -6.13281 21.1133 -6.46484 21.1133 -7.02148 C 21.1133 -7.59766 20.7227 -7.93945 20.0977 -7.93945 L 15.8594 -7.93945 L 15.8594 -12.1875 C 15.8594 -12.8027 15.5176 -13.1934 14.9414 -13.1934 C 14.3848 -13.1934 14.0625 -12.7832 14.0625 -12.1875 L 14.0625 -7.93945 L 9.82422 -7.93945 C 9.20898 -7.93945 8.80859 -7.59766 8.80859 -7.02148 C 8.80859 -6.46484 9.23828 -6.13281 9.82422 -6.13281 L 14.0625 -6.13281 L 14.0625 -2.06055 C 14.0625 -1.47461 14.3848 -1.06445 14.9414 -1.06445 Z"/>
  </g>
  <text style="stroke:none;fill:black;font-family:-apple-system,&quot;SF Pro Display&quot;,&quot;SF Pro Text&quot;,Helvetica,sans-serif;font-weight:bold;" transform="matrix(1 0 0 1 263 1953)">Design Variations</text>
  <text style="stroke:none;fill:black;font-family:-apple-system,&quot;SF Pro Display&quot;,&quot;SF Pro Text&quot;,Helvetica,sans-serif;" transform="matrix(1 0 0 1 263 1971)">Symbols are supported in up to nine weights and three scales.</text>
  <text style="stroke:none;fill:black;font-family:-apple-system,&quot;SF Pro Display&quot;,&quot;SF Pro Text&quot;,Helvetica,sans-serif;" transform="matrix(1 0 0 1 263 1989)">For optimal layout with text and other symbols, vertically align</text>
  <text style="stroke:none;fill:black;font-family:-apple-system,&quot;SF Pro Display&quot;,&quot;SF Pro Text&quot;,Helvetica,sans-serif;" transform="matrix(1 0 0 1 263 2007)">symbols with the adjacent text.</text>
  <rect height="14" id="" style="fill:#00AEEF;stroke:none;opacity:0.4;" width="3" x="776" y="1919"/>
  <g id="" transform="matrix(1 0 0 1 779 1933)">
   <path d="M 10.5273 0 L 12.373 0 L 7.17773 -14.0918 L 5.43945 -14.0918 L 0.244141 0 L 2.08984 0 L 3.50586 -4.0332 L 9.11133 -4.0332 Z M 6.2793 -11.9531 L 6.33789 -11.9531 L 8.59375 -5.52734 L 4.02344 -5.52734 Z"/>
  </g>
  <rect height="14" id="" style="fill:#00AEEF;stroke:none;opacity:0.4;" width="3" x="791.617" y="1919"/>
  <text style="stroke:none;fill:black;font-family:-apple-system,&quot;SF Pro Display&quot;,&quot;SF Pro Text&quot;,Helvetica,sans-serif;font-weight:bold;" transform="matrix(1 0 0 1 776 1953)">Side Bearings</text>
  <text style="stroke:none;fill:black;font-family:-apple-system,&quot;SF Pro Display&quot;,&quot;SF Pro Text&quot;,Helvetica,sans-serif;" transform="matrix(1 0 0 1 776 1971)">Horizontal padding on the left and right side of each symbol</text>
  <text style="stroke:none;fill:black;font-family:-apple-system,&quot;SF Pro Display&quot;,&quot;SF Pro Text&quot;,Helvetica,sans-serif;" transform="matrix(1 0 0 1 776 1989)">can be adjusted by modifying the width of the blue rectangles.</text>
  <text style="stroke:none;fill:black;font-family:-apple-system,&quot;SF Pro Display&quot;,&quot;SF Pro Text&quot;,Helvetica,sans-serif;" transform="matrix(1 0 0 1 776 2007)">Modifications are automatically applied proportionally to all</text>
  <text style="stroke:none;fill:black;font-family:-apple-system,&quot;SF Pro Display&quot;,&quot;SF Pro Text&quot;,Helvetica,sans-serif;" transform="matrix(1 0 0 1 776 2025)">scales and weights.</text>
  <g id="" transform="matrix(1 0 0 1 1289 1933)">
   <path d="M 2.96875 2.35352 L 3.80859 3.19336 C 4.84375 4.22852 6.12305 4.15039 7.19727 2.97852 L 16.1621 -6.82617 C 16.5527 -6.74805 16.9629 -6.8457 17.4902 -7.02148 C 18.1738 -7.25586 18.2715 -7.25586 18.3887 -7.13867 C 18.5352 -7.01172 18.4863 -6.89453 18.2422 -6.25 C 17.8809 -5.33203 17.8125 -4.79492 18.5547 -4.02344 L 19.4238 -3.13477 C 20.2734 -2.24609 21.3281 -2.26562 22.2168 -3.14453 L 25.0586 -5.97656 C 25.9473 -6.86523 25.957 -7.92969 25.0781 -8.7793 L 24.1797 -9.64844 C 23.4082 -10.4004 22.8711 -10.3516 21.9629 -9.98047 C 21.3184 -9.72656 21.2012 -9.6875 21.0645 -9.81445 C 20.9375 -9.93164 20.9473 -10.0391 21.1816 -10.7129 C 21.5332 -11.6895 21.5723 -12.2852 20.752 -13.0957 L 19.3359 -14.5117 C 15.1953 -18.6133 11.2305 -18.7402 7.65625 -15.4395 C 7.08008 -14.9023 6.99219 -14.1504 7.53906 -13.6133 L 7.79297 -13.3594 C 8.22266 -12.9297 8.86719 -12.8418 9.41406 -13.1152 C 11.0645 -13.9453 12.2559 -14.0234 13.457 -12.9785 L 13.0273 -11.416 C 12.8516 -10.8008 12.793 -10.3418 12.9199 -9.93164 L 3.18359 -1.04492 C 2.02148 0.0292969 1.93359 1.32812 2.96875 2.35352 Z M 8.96484 -14.4922 C 8.89648 -14.5703 8.86719 -14.6582 8.99414 -14.7559 C 11.709 -17.2852 15.0391 -16.8457 18.3496 -13.5254 L 19.6973 -12.168 C 20.0879 -11.7773 20.0977 -11.582 19.8828 -10.8691 C 19.6582 -10.127 19.502 -9.53125 20.1465 -8.88672 C 20.8105 -8.22266 21.2891 -8.41797 22.207 -8.63281 C 22.9004 -8.79883 23.0664 -8.79883 23.4473 -8.41797 L 24.0918 -7.77344 C 24.4043 -7.48047 24.4141 -7.32422 24.0723 -6.97266 L 21.2207 -4.13086 C 20.8887 -3.79883 20.7227 -3.79883 20.4297 -4.10156 L 19.7852 -4.75586 C 19.4141 -5.13672 19.4141 -5.30273 19.5801 -6.01562 C 19.7852 -6.88477 19.9805 -7.38281 19.3262 -8.04688 C 18.6719 -8.7207 18.0762 -8.57422 17.3438 -8.33008 C 16.5625 -8.06641 16.3281 -8.06641 15.8984 -8.49609 L 14.6094 -9.78516 C 14.1699 -10.2246 14.1309 -10.4395 14.2676 -10.9082 L 15.0293 -13.3984 C 13.3887 -15.2832 11.4941 -15.5566 9.20898 -14.4434 C 9.11133 -14.3945 9.04297 -14.4141 8.96484 -14.4922 Z M 3.96484 1.36719 C 3.52539 0.927734 3.54492 0.537109 4.14062 -0.00976562 L 13.7402 -8.81836 L 15 -7.55859 L 6.17188 2.02148 C 5.625 2.60742 5.24414 2.64648 4.79492 2.19727 Z"/>
  </g>
  <text style="stroke:none;fill:black;font-family:-apple-system,&quot;SF Pro Display&quot;,&quot;SF Pro Text&quot;,Helvetica,sans-serif;font-weight:bold;" transform="matrix(1 0 0 1 1289 1953)">Exporting</text>
  <text style="stroke:none;fill:black;font-family:-apple-system,&quot;SF Pro Display&quot;,&quot;SF Pro Text&quot;,Helvetica,sans-serif;" transform="matrix(1 0 0 1 1289 1971)">Symbols should be outlined when exporting to ensure the</text>
  <text style="stroke:none;fill:black;font-family:-apple-system,&quot;SF Pro Display&quot;,&quot;SF Pro Text&quot;,Helvetica,sans-serif;" transform="matrix(1 0 0 1 1289 1989)">design is preserved when submitting to Xcode.</text>
  <text id="template-version" style="stroke:none;fill:black;font-family:-apple-system,&quot;SF Pro Display&quot;,&quot;SF Pro Text&quot;,Helvetica,sans-serif;text-anchor:end;" transform="matrix(1 0 0 1 3036 1933)">Template v.0.1</text>
  <text style="stroke:none;fill:black;font-family:-apple-system,&quot;SF Pro Display&quot;,&quot;SF Pro Text&quot;,Helvetica,sans-serif;text-anchor:end;" transform="matrix(1 0 0 1 3036 1951)">Generated from rosette</text>
  <text style="stroke:none;fill:black;font-family:-apple-system,&quot;SF Pro Display&quot;,&quot;SF Pro Text&quot;,Helvetica,sans-serif;text-anchor:end;" transform="matrix(1 0 0 1 3036 1969)">Typeset at 100 points</text>
  <text style="stroke:none;fill:black;font-family:-apple-system,&quot;SF Pro Display&quot;,&quot;SF Pro Text&quot;,Helvetica,sans-serif;" transform="matrix(1 0 0 1 263 726)">Small</text>
  <text style="stroke:none;fill:black;font-family:-apple-system,&quot;SF Pro Display&quot;,&quot;SF Pro Text&quot;,Helvetica,sans-serif;" transform="matrix(1 0 0 1 263 1156)">Medium</text>
  <text style="stroke:none;fill:black;font-family:-apple-system,&quot;SF Pro Display&quot;,&quot;SF Pro Text&quot;,Helvetica,sans-serif;" transform="matrix(1 0 0 1 263 1586)">Large</text>
 </g>
 <g id="Guides">
  <g id="H-reference" style="fill:#27AAE1;stroke:none;" transform="matrix(1 0 0 1 339 696)">
   <path d="M 54.9316 0 L 57.666 0 L 30.5664 -70.459 L 28.0762 -70.459 L 0.976562 0 L 3.66211 0 L 12.9395 -24.4629 L 45.7031 -24.4629 Z M 29.1992 -67.0898 L 29.4434 -67.0898 L 44.8242 -26.709 L 13.8184 -26.709 Z"/>
  </g>
  <line id="Baseline-S" style="fill:none;stroke:#27AAE1;opacity:1;stroke-width:0.577;" x1="263" x2="3036" y1="696" y2="696"/>
  <line id="Capline-S" style="fill:none;stroke:#27AAE1;opacity:1;stroke-width:0.577;" x1="263" x2="3036" y1="625.541" y2="625.541"/>
  <g id="H-reference" style="fill:#27AAE1;stroke:none;" transform="matrix(1 0 0 1 339 1126)">
   <path d="M 54.9316 0 L 57.666 0 L 30.5664 -70.459 L 28.0762 -70.459 L 0.976562 0 L 3.66211 0 L 12.9395 -24.4629 L 45.7031 -24.4629 Z M 29.1992 -67.0898 L 29.4434 -67.0898 L 44.8242 -26.709 L 13.8184 -26.709 Z"/>
  </g>
  <line id="Baseline-M" style="fill:none;stroke:#27AAE1;opacity:1;stroke-width:0.577;" x1="263" x2="3036" y1="1126" y2="1126"/>
  <line id="Capline-M" style="fill:none;stroke:#27AAE1;opacity:1;stroke-width:0.577;" x1="263" x2="3036" y1="1055.54" y2="1055.54"/>
  <g id="H-reference" style="fill:#27AAE1;stroke:none;" transform="matrix(1 0 0 1 339 1556)">
   <path d="M 54.9316 0 L 57.666 0 L 30.5664 -70.459 L 28.0762 -70.459 L 0.976562 0 L 3.66211 0 L 12.9395 -24.4629 L 45.7031 -24.4629 Z M 29.1992 -67.0898 L 29.4434 -67.0898 L 44.8242 -26.709 L 13.8184 -26.709 Z"/>
  </g>
  <line id="Baseline-L" style="fill:none;stroke:#27AAE1;opacity:1;stroke-width:0.577;" x1="263" x2="3036" y1="1556" y2="1556"/>
  <line id="Capline-L" style="fill:none;stroke:#27AAE1;opacity:1;stroke-width:0.577;" x1="263" x2="3036" y1="1485.54" y2="1485.54"/>
  <rect height="119.336" id="left-margin" style="fill:#00AEEF;stroke:none;opacity:0.4;" width="8.74023" x="1402.29" y="1030.79"/>
  <rect height="119.336" id="right-margin" style="fill:#00AEEF;stroke:none;opacity:0.4;" width="8.74013" x="1488.66" y="1030.79"/>
 </g>
 <g id="Symbols">
  <g id="Ultralight-S" transform="matrix(1 0 0 1 524.286 696)">
   <path d="M 56.0059 2.49023 L 56.0059 -29.8828 C 60.9375 -35.0586 64.0137 -42.041 64.0137 -49.707 C 64.0137 -65.4297 51.1719 -78.3203 35.4004 -78.3203 C 19.6777 -78.3203 6.83594 -65.4297 6.83594 -49.707 C 6.83594 -41.9922 9.91211 -35.0098 14.8926 -29.834 L 14.8926 2.49023 C 14.8926 3.56445 15.5273 4.29688 16.4062 4.29688 C 17.4316 4.29688 18.0176 3.66211 18.6523 3.02734 L 32.373 -10.6445 C 33.7891 -12.0605 34.7168 -12.5 35.4492 -12.5 C 36.2305 -12.5 37.0605 -12.0605 38.5254 -10.6445 L 52.1973 3.02734 C 52.8809 3.75977 53.5156 4.29688 54.3945 4.29688 C 55.4199 4.29688 56.0059 3.56445 56.0059 2.49023 Z M 35.4004 -23.2422 C 20.8496 -23.2422 9.0332 -35.0586 9.0332 -49.707 C 9.0332 -64.3555 20.8496 -76.123 35.4004 -76.123 C 50 -76.123 61.8164 -64.3555 61.8164 -49.707 C 61.8164 -35.0586 50 -23.2422 35.4004 -23.2422 Z"/>
  </g>
  <g id="Thin-S" transform="matrix(1 0 0 1 820.485 696)">
   <path d="M 56.3965 2.58789 L 56.3965 -28.8574 C 61.7188 -34.1309 64.9902 -41.4551 65.0391 -49.4629 C 65.0391 -65.5273 51.9043 -78.6621 35.9375 -78.6621 C 19.9219 -78.6621 6.83594 -65.5273 6.83594 -49.4629 C 6.83594 -41.4062 10.1562 -34.082 15.4785 -28.7598 L 15.5273 2.58789 C 15.5273 3.95508 16.3086 4.78516 17.3828 4.78516 C 18.457 4.78516 19.1895 4.10156 19.9219 3.36914 L 33.3008 -9.96094 C 34.5215 -11.1328 35.3027 -11.5723 35.9863 -11.5723 C 36.6699 -11.5723 37.4023 -11.1328 38.623 -9.96094 L 51.9531 3.36914 C 52.7344 4.19922 53.4668 4.78516 54.4922 4.78516 C 55.6641 4.78516 56.3965 3.95508 56.3965 2.58789 Z M 35.9375 -23.584 C 21.6309 -23.584 10.1562 -35.1562 10.1562 -49.4629 C 10.1562 -63.8184 21.6309 -75.3418 35.9375 -75.3418 C 50.2441 -75.3418 61.7188 -63.8184 61.7188 -49.4629 C 61.7188 -35.1562 50.2441 -23.5352 35.9375 -23.584 Z"/>
  </g>
  <g id="Light-S" transform="matrix(1 0 0 1 1116.22 696)">
   <path d="M 57.2266 2.73438 L 57.2266 -26.9043 C 63.1836 -32.373 66.9922 -40.2832 66.9922 -49.0234 C 67.041 -65.6738 53.418 -79.1992 36.9141 -79.1992 C 20.4102 -79.1992 6.83594 -65.6738 6.83594 -49.0234 C 6.83594 -40.2344 10.6445 -32.3242 16.6992 -26.8066 L 16.6992 2.73438 C 16.6992 4.78516 17.7734 5.66406 19.2383 5.66406 C 20.5078 5.66406 21.4355 4.93164 22.4121 4.00391 L 35.1074 -8.64258 C 35.8887 -9.42383 36.4258 -9.66797 36.9629 -9.66797 C 37.4512 -9.66797 38.0371 -9.42383 38.8184 -8.64258 L 51.4648 4.00391 C 52.4902 4.98047 53.4668 5.66406 54.6387 5.66406 C 56.1523 5.66406 57.2266 4.78516 57.2266 2.73438 Z M 36.9629 -24.2188 C 23.1445 -24.2676 12.3047 -35.3027 12.3047 -49.0234 C 12.3047 -62.793 23.1445 -73.877 36.9629 -73.877 C 50.7324 -73.877 61.5234 -62.793 61.5723 -49.0234 C 61.5723 -35.3027 50.7324 -24.1699 36.9629 -24.2188 Z"/>
  </g>
  <g id="Regular-S" transform="matrix(1 0 0 1 1412.17 696)">
   <path d="M 57.8125 2.83203 L 57.8125 -25.4395 C 64.3066 -31.1035 68.457 -39.4531 68.5059 -48.6816 C 68.5547 -65.7715 54.541 -79.6387 37.6465 -79.6387 C 20.752 -79.6387 6.83594 -65.7715 6.83594 -48.6816 C 6.83594 -39.4043 11.0352 -31.0059 17.5781 -25.3418 L 17.627 2.83203 C 17.627 5.37109 18.9453 6.39648 20.6543 6.39648 C 22.0215 6.39648 23.1445 5.56641 24.2676 4.44336 L 36.4258 -7.66602 C 36.9141 -8.10547 37.3047 -8.25195 37.6953 -8.25195 C 38.0859 -8.25195 38.4766 -8.10547 38.9648 -7.66602 L 51.123 4.44336 C 52.2949 5.61523 53.418 6.39648 54.7852 6.39648 C 56.543 6.39648 57.8125 5.37109 57.8125 2.83203 Z M 37.6953 -24.707 C 24.3164 -24.7559 13.9648 -35.4004 13.9648 -48.6816 C 13.9648 -62.0605 24.3164 -72.7051 37.6953 -72.7051 C 51.0742 -72.7051 61.377 -62.0605 61.4258 -48.6816 C 61.4746 -35.4004 51.0742 -24.6582 37.6953 -24.707 Z"/>
  </g>
  <g id="Medium-S" transform="matrix(1 0 0 1 1707.74 696)">
   <path d="M 59.9609 2.97852 L 59.9609 -24.4629 C 66.6016 -30.3223 70.752 -38.8672 70.8008 -48.4375 C 70.8008 -66.2109 56.4453 -80.5176 38.8184 -80.5176 C 21.1426 -80.5176 6.83594 -66.2109 6.83594 -48.4375 C 6.83594 -38.623 11.2305 -29.8828 18.1152 -23.9746 L 18.1641 2.97852 C 18.1641 5.95703 19.873 7.27539 22.0215 7.27539 C 23.6328 7.27539 24.8047 6.44531 26.0742 5.22461 L 37.8418 -6.49414 C 38.2812 -6.88477 38.6719 -7.08008 39.0625 -7.08008 C 39.4531 -7.08008 39.8438 -6.88477 40.2832 -6.49414 L 52.0508 5.22461 C 53.3203 6.44531 54.541 7.27539 56.1035 7.27539 C 58.252 7.27539 59.9609 5.95703 59.9609 2.97852 Z M 38.8672 -25 C 25.7812 -25.0488 15.625 -35.4492 15.625 -48.4375 C 15.625 -61.4258 25.7812 -71.875 38.8672 -71.875 C 51.9043 -71.875 62.0117 -61.4258 62.0605 -48.4375 C 62.1094 -35.4492 51.9043 -25 38.8672 -25 Z"/>
  </g>
  <g id="Semibold-S" transform="matrix(1 0 0 1 2003.57 696)">
   <path d="M 61.6211 3.07617 L 61.6211 -23.6816 C 68.3105 -29.6875 72.5098 -38.4277 72.5586 -48.1934 C 72.5586 -66.5527 57.9102 -81.1523 39.6973 -81.1523 C 21.4355 -81.1523 6.83594 -66.5527 6.83594 -48.1934 C 6.83594 -38.0371 11.377 -29.0039 18.5547 -22.9492 L 18.5547 3.07617 C 18.5547 6.44531 20.6055 7.95898 23.0957 7.95898 C 24.8047 7.95898 26.0742 7.12891 27.4414 5.81055 L 38.9648 -5.61523 C 39.3555 -6.00586 39.6973 -6.15234 40.0879 -6.15234 C 40.4785 -6.15234 40.8203 -6.00586 41.2598 -5.61523 L 52.7832 5.81055 C 54.1016 7.12891 55.4199 7.95898 57.1289 7.95898 C 59.6191 7.95898 61.6211 6.44531 61.6211 3.07617 Z M 39.6973 -25.2441 C 26.9043 -25.2441 16.8945 -35.5469 16.8945 -48.1934 C 16.8945 -60.9375 26.9043 -71.2402 39.6973 -71.2402 C 52.4902 -71.2402 62.5 -60.9375 62.5488 -48.1934 C 62.5977 -35.5469 52.4902 -25.1953 39.6973 -25.2441 Z"/>
  </g>
  <g id="Bold-S" transform="matrix(1 0 0 1 2299.13 696)">
   <path d="M 63.8184 3.27148 L 63.8184 -22.7051 C 70.6055 -28.9062 74.8535 -37.8906 74.8535 -47.9492 C 74.8535 -66.9922 59.8145 -82.0312 40.8691 -82.0312 C 21.875 -82.0312 6.83594 -66.9922 6.83594 -47.9492 C 6.83594 -37.2559 11.5723 -27.832 19.0918 -21.6309 L 19.0918 3.27148 C 19.0918 7.03125 21.582 8.83789 24.4629 8.83789 C 26.3672 8.83789 27.7832 8.05664 29.2969 6.54297 L 40.3809 -4.49219 C 40.7227 -4.78516 41.0645 -4.98047 41.4551 -4.98047 C 41.8457 -4.98047 42.1875 -4.78516 42.5293 -4.49219 L 53.7109 6.54297 C 55.1758 8.00781 56.5918 8.83789 58.4961 8.83789 C 61.377 8.83789 63.8184 7.03125 63.8184 3.27148 Z M 40.8691 -25.5371 C 28.3691 -25.5371 18.5547 -35.5957 18.5547 -47.9492 C 18.5547 -60.3516 28.3691 -70.4102 40.8691 -70.4102 C 53.3203 -70.4102 63.1836 -60.3516 63.1836 -47.9492 C 63.1836 -35.5957 53.3203 -25.5371 40.8691 -25.5371 Z"/>
  </g>
  <g id="Heavy-S" transform="matrix(1 0 0 1 2594.16 696)">
   <path d="M 66.9922 3.51562 L 66.9922 -21.2891 C 73.9258 -27.7344 78.2227 -37.0605 78.2227 -47.5586 C 78.2227 -67.627 62.5977 -83.3008 42.5293 -83.3008 C 22.4609 -83.3008 6.83594 -67.627 6.83594 -47.5586 C 6.83594 -36.1816 11.8652 -26.1719 19.873 -19.6777 L 19.873 3.51562 C 19.873 7.91016 22.9492 10.1562 26.4648 10.1562 C 28.6621 10.1562 30.2246 9.375 31.9336 7.66602 L 42.4805 -2.7832 C 42.7246 -3.07617 43.0664 -3.27148 43.457 -3.27148 C 43.8477 -3.27148 44.1406 -3.07617 44.3848 -2.7832 L 55.0293 7.66602 C 56.6895 9.27734 58.252 10.1562 60.4492 10.1562 C 63.916 10.1562 66.9922 7.91016 66.9922 3.51562 Z M 42.5293 -25.9766 C 30.5176 -25.9766 20.9473 -35.7422 20.9961 -47.5586 C 20.9473 -59.4238 30.5176 -69.1895 42.5293 -69.1895 C 54.541 -69.1895 64.1113 -59.4238 64.1113 -47.5586 C 64.1113 -35.7422 54.541 -25.9766 42.5293 -25.9766 Z"/>
  </g>
  <g id="Black-S" transform="matrix(1 0 0 1 2889.36 696)">
   <path d="M 69.8242 3.71094 L 69.8242 -19.9707 C 76.9043 -26.709 81.25 -36.3281 81.25 -47.2168 C 81.2012 -68.2129 65.0879 -84.4238 44.043 -84.4238 C 22.998 -84.4238 6.83594 -68.2129 6.83594 -47.2168 C 6.83594 -35.1562 12.1094 -24.707 20.6055 -17.9688 L 20.6055 3.71094 C 20.6055 8.69141 24.2188 11.2793 28.2715 11.2793 C 30.7617 11.2793 32.4219 10.5469 34.2773 8.64258 L 44.3359 -1.31836 C 44.5312 -1.51367 44.873 -1.70898 45.2148 -1.70898 C 45.6055 -1.70898 45.8984 -1.51367 46.0449 -1.31836 L 56.25 8.64258 C 58.0566 10.4004 59.7168 11.2793 62.207 11.2793 C 66.2109 11.2793 69.8242 8.69141 69.8242 3.71094 Z M 44.043 -26.3672 C 32.4219 -26.3672 23.0957 -35.8398 23.1934 -47.2168 C 23.0957 -58.5938 32.4219 -68.0664 44.043 -68.0664 C 55.6152 -68.0664 64.9414 -58.5938 64.9414 -47.2168 C 64.8926 -35.8398 55.6152 -26.3672 44.043 -26.3672 Z"/>
  </g>
  <g id="Ultralight-M" transform="matrix(1 0 0 1 514.692 1126)">
   <path d="M 71.3379 12.8906 L 71.3379 -28.8086 C 77.4902 -35.3516 81.2988 -44.1406 81.2988 -53.8086 C 81.2988 -73.7793 64.9902 -90.1367 45.0195 -90.1367 C 25.0488 -90.1367 8.74023 -73.7793 8.74023 -53.8086 C 8.74023 -44.0918 12.5488 -35.3027 18.75 -28.7598 L 18.75 12.8906 C 18.75 14.1113 19.4824 15.0391 20.6055 15.0391 C 21.8262 15.0391 22.5586 14.2578 23.3398 13.5254 L 40.9668 -4.10156 C 42.8711 -6.00586 44.0918 -6.64062 45.0684 -6.64062 C 46.0938 -6.64062 47.2168 -6.00586 49.1211 -4.10156 L 66.6992 13.5254 C 67.5781 14.3555 68.3105 15.0391 69.4336 15.0391 C 70.6543 15.0391 71.3379 14.1113 71.3379 12.8906 Z M 45.0195 -19.7754 C 26.2695 -19.7754 11.1328 -35.0098 11.1328 -53.8086 C 11.1328 -72.5586 26.2695 -87.7441 45.0195 -87.7441 C 63.7207 -87.7441 78.9062 -72.5586 78.9062 -53.8086 C 78.9062 -35.0098 63.7207 -19.7754 45.0195 -19.7754 Z"/>
  </g>
  <g id="Thin-M" transform="matrix(1 0 0 1 810.841 1126)">
   <path d="M 71.7773 12.9883 L 71.7773 -27.6367 C 78.3691 -34.3262 82.4219 -43.457 82.4707 -53.5156 C 82.4707 -73.8281 65.8691 -90.4785 45.6055 -90.4785 C 25.293 -90.4785 8.74023 -73.8281 8.74023 -53.5156 C 8.74023 -43.457 12.8418 -34.2285 19.4336 -27.5391 L 19.4824 12.9883 C 19.4824 14.5996 20.3613 15.5762 21.6797 15.5762 C 22.998 15.5762 23.877 14.7461 24.7559 13.8672 L 42.041 -3.32031 C 43.6523 -4.98047 44.7266 -5.51758 45.6543 -5.51758 C 46.5332 -5.51758 47.5586 -4.98047 49.2188 -3.32031 L 66.4551 13.8672 C 67.4316 14.8438 68.3105 15.5762 69.5312 15.5762 C 70.9473 15.5762 71.7773 14.5996 71.7773 12.9883 Z M 45.6055 -20.166 C 27.1973 -20.166 12.3535 -35.1074 12.3535 -53.5156 C 12.3535 -71.9727 27.1973 -86.8652 45.6055 -86.8652 C 64.0137 -86.8652 78.8086 -71.9727 78.8086 -53.5156 C 78.8086 -35.1074 64.0137 -20.166 45.6055 -20.166 Z"/>
  </g>
  <g id="Light-M" transform="matrix(1 0 0 1 1106.43 1126)">
   <path d="M 72.7051 13.1348 L 72.7051 -25.3906 C 80.0293 -32.3242 84.668 -42.1875 84.668 -53.0273 C 84.7168 -74.0234 67.5293 -91.1133 46.6797 -91.1133 C 25.8301 -91.1133 8.74023 -74.0234 8.74023 -53.0273 C 8.74023 -42.1387 13.3789 -32.2266 20.8008 -25.293 L 20.8008 13.1348 C 20.8008 15.4785 22.0703 16.6016 23.7793 16.6016 C 25.3418 16.6016 26.416 15.6738 27.5391 14.5508 L 44.043 -1.85547 C 45.2148 -3.02734 46.0449 -3.41797 46.7773 -3.41797 C 47.4609 -3.41797 48.291 -3.02734 49.4629 -1.85547 L 65.918 14.5508 C 67.0898 15.7715 68.2617 16.6016 69.6777 16.6016 C 71.4844 16.6016 72.7051 15.4785 72.7051 13.1348 Z M 46.7285 -20.8984 C 28.9062 -20.9473 14.8438 -35.2539 14.8438 -53.0273 C 14.8438 -70.8496 28.9062 -85.1562 46.7285 -85.1562 C 64.5508 -85.1562 78.6133 -70.8496 78.6621 -53.0273 C 78.6621 -35.2539 64.5508 -20.8496 46.7285 -20.8984 Z"/>
  </g>
  <g id="Regular-M" transform="matrix(1 0 0 1 1402.29 1126)">
   <path d="M 73.3398 13.2812 L 73.3398 -23.7305 C 81.2988 -30.8594 86.3281 -41.2109 86.377 -52.6367 C 86.4258 -74.1211 68.8477 -91.6504 47.5586 -91.6504 C 26.2207 -91.6504 8.74023 -74.1211 8.74023 -52.6367 C 8.74023 -41.1621 13.8184 -30.7617 21.8262 -23.584 L 21.8262 13.2812 C 21.8262 16.1621 23.3887 17.3828 25.3906 17.3828 C 27.0508 17.3828 28.3691 16.4062 29.6875 15.0879 L 45.5566 -0.732422 C 46.3867 -1.51367 47.0215 -1.80664 47.6074 -1.80664 C 48.1934 -1.80664 48.7793 -1.51367 49.6582 -0.732422 L 65.5273 15.0879 C 66.8945 16.4551 68.2129 17.3828 69.8242 17.3828 C 71.875 17.3828 73.3398 16.1621 73.3398 13.2812 Z M 47.6074 -21.4844 C 30.2246 -21.5332 16.6992 -35.3516 16.6992 -52.6367 C 16.6992 -69.9707 30.2246 -83.8867 47.6074 -83.8867 C 64.9414 -83.8867 78.4668 -69.9707 78.5156 -52.6367 C 78.5645 -35.3516 64.9414 -21.4355 47.6074 -21.4844 Z"/>
  </g>
  <g id="Medium-M" transform="matrix(1 0 0 1 1697.73 1126)">
   <path d="M 75.6348 13.4277 L 75.6348 -22.5586 C 83.7891 -29.8828 88.916 -40.4785 88.916 -52.3438 C 88.9648 -74.5605 70.8984 -92.5781 48.8281 -92.5781 C 26.709 -92.5781 8.74023 -74.5605 8.74023 -52.3438 C 8.74023 -40.2344 14.0625 -29.3945 22.4609 -22.0215 L 22.5098 13.4277 C 22.5098 16.8457 24.5117 18.4082 26.9531 18.4082 C 28.8574 18.4082 30.2734 17.3828 31.7871 15.918 L 47.2168 0.585938 C 47.9492 -0.146484 48.5352 -0.390625 49.0723 -0.390625 C 49.6582 -0.390625 50.2441 -0.146484 50.9766 0.585938 L 66.4062 15.918 C 67.9199 17.4316 69.3848 18.4082 71.1914 18.4082 C 73.7305 18.4082 75.6348 16.8457 75.6348 13.4277 Z M 48.877 -21.8262 C 31.8848 -21.875 18.6035 -35.4492 18.6035 -52.3438 C 18.6035 -69.2383 31.8848 -82.8613 48.877 -82.8613 C 65.8203 -82.8613 79.1016 -69.2383 79.1504 -52.3438 C 79.1992 -35.4492 65.8203 -21.7773 48.877 -21.8262 Z"/>
  </g>
  <g id="Semibold-M" transform="matrix(1 0 0 1 1993.46 1126)">
   <path d="M 77.3926 13.5742 L 77.3926 -21.6309 C 85.6934 -29.1504 90.8691 -39.9902 90.8691 -52.0996 C 90.918 -74.9512 72.5098 -93.2617 49.8047 -93.2617 C 27.0508 -93.2617 8.74023 -74.9512 8.74023 -52.0996 C 8.74023 -39.5508 14.2578 -28.3691 22.998 -20.8496 L 23.0469 13.5742 C 23.0469 17.3828 25.3418 19.1406 28.1738 19.1406 C 30.2734 19.1406 31.7871 18.1641 33.3984 16.6016 L 48.4375 1.5625 C 49.1211 0.927734 49.6582 0.683594 50.2441 0.683594 C 50.7812 0.683594 51.3184 0.927734 52.002 1.5625 L 67.0898 16.6016 C 68.7012 18.1641 70.2637 19.1406 72.2656 19.1406 C 75.1465 19.1406 77.3926 17.3828 77.3926 13.5742 Z M 49.8535 -22.1191 C 33.1543 -22.168 20.0684 -35.5469 20.0684 -52.0996 C 20.0684 -68.7012 33.1543 -82.0801 49.8535 -82.0801 C 66.5039 -82.0801 79.5898 -68.7012 79.6387 -52.0996 C 79.6387 -35.5469 66.5039 -22.0703 49.8535 -22.1191 Z"/>
  </g>
  <g id="Bold-M" transform="matrix(1 0 0 1 2288.88 1126)">
   <path d="M 79.7363 13.7695 L 79.7363 -20.4102 C 88.1836 -28.125 93.457 -39.2578 93.457 -51.7578 C 93.457 -75.3906 74.6582 -94.2383 51.0742 -94.2383 C 27.4902 -94.2383 8.74023 -75.3906 8.74023 -51.7578 C 8.74023 -38.6719 14.502 -27.0508 23.6816 -19.2871 L 23.6816 13.7695 C 23.6816 18.1152 26.5137 20.166 29.7852 20.166 C 32.0801 20.166 33.7402 19.1895 35.498 17.4316 L 50.0977 2.88086 C 50.6836 2.34375 51.2207 2.09961 51.709 2.09961 C 52.2461 2.09961 52.7344 2.34375 53.3203 2.88086 L 68.0176 17.4316 C 69.7266 19.1406 71.4355 20.166 73.6816 20.166 C 77.002 20.166 79.7363 18.1152 79.7363 13.7695 Z M 51.123 -22.5098 C 34.8145 -22.5098 21.9727 -35.6445 22.0215 -51.7578 C 21.9727 -67.9688 34.8145 -81.0547 51.123 -81.0547 C 67.3828 -81.0547 80.2246 -67.9688 80.2246 -51.7578 C 80.2734 -35.6445 67.3828 -22.4609 51.123 -22.5098 Z"/>
  </g>
  <g id="Heavy-M" transform="matrix(1 0 0 1 2583.73 1126)">
   <path d="M 83.1055 14.0137 L 83.1055 -18.6523 C 91.7969 -26.709 97.168 -38.2812 97.168 -51.2695 C 97.2168 -76.0742 77.7344 -95.6055 52.9785 -95.6055 C 28.1738 -95.6055 8.74023 -76.0742 8.74023 -51.2695 C 8.74023 -37.3535 14.8926 -25.0977 24.6582 -16.9922 L 24.707 14.0137 C 24.707 19.1406 28.125 21.6309 32.1289 21.6309 C 34.7168 21.6309 36.5723 20.6543 38.5742 18.6523 L 52.4902 4.83398 C 52.9297 4.39453 53.418 4.15039 53.9062 4.15039 C 54.3945 4.15039 54.834 4.39453 55.2734 4.83398 L 69.3359 18.6523 C 71.2891 20.5566 73.0957 21.6309 75.6836 21.6309 C 79.6875 21.6309 83.1055 19.1406 83.1055 14.0137 Z M 52.9785 -23.0469 C 37.207 -23.0469 24.7559 -35.791 24.8047 -51.2695 C 24.7559 -66.8945 37.207 -79.5898 52.9785 -79.5898 C 68.7012 -79.5898 81.1523 -66.8945 81.1523 -51.2695 C 81.1523 -35.791 68.7012 -23.0469 52.9785 -23.0469 Z"/>
  </g>
  <g id="Black-M" transform="matrix(1 0 0 1 2878.79 1126)">
   <path d="M 86.1328 14.2578 L 86.1328 -17.0898 C 95.0195 -25.3906 100.537 -37.3535 100.537 -50.8789 C 100.537 -76.709 80.4688 -96.8262 54.6387 -96.8262 C 28.8086 -96.8262 8.74023 -76.709 8.74023 -50.8789 C 8.74023 -36.1816 15.2344 -23.3398 25.5371 -14.9902 L 25.5371 14.2578 C 25.5371 20.0195 29.5898 22.9492 34.2285 22.9492 C 37.1094 22.9492 39.1113 21.9238 41.3086 19.7266 L 54.6387 6.54297 C 54.9805 6.20117 55.4199 5.95703 55.8594 5.95703 C 56.3477 5.95703 56.6895 6.20117 57.0312 6.54297 L 70.5078 19.7266 C 72.6074 21.8262 74.6094 22.9492 77.5391 22.9492 C 82.0801 22.9492 86.1328 20.0195 86.1328 14.2578 Z M 54.6387 -23.5352 C 39.4043 -23.5352 27.2461 -35.8887 27.3438 -50.8789 C 27.2461 -65.918 39.4043 -78.2715 54.6387 -78.2715 C 69.873 -78.2715 81.9824 -65.918 81.9824 -50.8789 C 81.9824 -35.8887 69.873 -23.5352 54.6387 -23.5352 Z"/>
  </g>
  <g id="Ultralight-L" transform="matrix(1 0 0 1 501.874 1556)">
   <path d="M 91.8457 -27.1973 L 91.2109 -26.8066 C 99.3652 -35.2051 104.395 -46.6797 104.395 -59.2773 C 104.395 -84.9121 83.4961 -105.957 57.8125 -105.957 C 32.1777 -105.957 11.2793 -84.9121 11.2793 -59.2773 C 11.2793 -46.7285 16.3086 -35.2539 24.4141 -26.8555 L 23.9258 -27.1973 L 23.9258 26.8555 C 23.9258 28.2715 24.8047 29.4434 26.123 29.4434 C 27.6855 29.4434 28.5645 28.418 29.4434 27.4902 L 52.4414 4.58984 C 54.9805 2.05078 56.5918 1.2207 57.9102 1.2207 C 59.2773 1.2207 60.7422 2.05078 63.2812 4.58984 L 86.1816 27.4902 C 87.2559 28.5645 88.1348 29.4434 89.5508 29.4434 C 91.0645 29.4434 91.8457 28.2715 91.8457 26.8555 Z M 57.8125 -15.1367 C 33.5449 -15.1367 13.8184 -34.9121 13.8184 -59.2773 C 13.8184 -83.6914 33.5449 -103.369 57.8125 -103.369 C 82.1289 -103.369 101.855 -83.6914 101.855 -59.2773 C 101.855 -34.9121 82.1289 -15.1367 57.8125 -15.1367 Z"/>
  </g>
  <g id="Thin-L" transform="matrix(1 0 0 1 797.951 1556)">
   <path d="M 92.334 26.9531 L 92.334 -26.123 C 100.586 -34.668 105.664 -46.2891 105.713 -58.9844 C 105.713 -85.0098 84.4727 -106.299 58.4961 -106.299 C 32.4707 -106.299 11.2793 -85.0098 11.2793 -58.9844 C 11.2793 -46.2402 16.4062 -34.5703 24.6582 -26.0742 L 24.707 26.9531 C 24.707 28.7598 25.7812 30.0293 27.3438 30.0293 C 29.0039 30.0293 30.0293 28.9551 31.0547 27.9297 L 53.6133 5.46875 C 55.8594 3.17383 57.3242 2.44141 58.5449 2.44141 C 59.7656 2.44141 61.1816 3.17383 63.4277 5.46875 L 85.8887 27.9297 C 87.0605 29.1016 88.1348 30.0293 89.6484 30.0293 C 91.3574 30.0293 92.334 28.7598 92.334 26.9531 Z M 58.4961 -15.5273 C 34.5215 -15.5762 15.1855 -35.0098 15.1855 -58.9844 C 15.1855 -83.0078 34.5215 -102.393 58.4961 -102.393 C 82.4219 -102.393 101.758 -83.0078 101.758 -58.9844 C 101.758 -35.0098 82.4219 -15.5273 58.4961 -15.5273 Z"/>
  </g>
  <g id="Light-L" transform="matrix(1 0 0 1 1093.42 1556)">
   <path d="M 93.3594 27.0996 L 93.3594 -23.6328 C 102.49 -32.4707 108.154 -44.8242 108.203 -58.4473 C 108.203 -85.2051 86.3281 -107.031 59.7168 -107.031 C 33.0566 -107.031 11.2793 -85.2051 11.2793 -58.4473 C 11.2793 -44.7754 16.9922 -32.3242 26.1719 -23.4863 L 26.2207 27.0996 C 26.2207 29.7852 27.6855 31.1523 29.6875 31.1523 C 31.543 31.1523 32.8613 29.9805 34.1797 28.7109 L 55.8594 7.12891 C 57.6172 5.37109 58.7402 4.78516 59.8145 4.78516 C 60.791 4.78516 61.9629 5.37109 63.7207 7.12891 L 85.3027 28.7109 C 86.7188 30.127 88.0859 31.1523 89.8438 31.1523 C 91.9922 31.1523 93.3594 29.7852 93.3594 27.0996 Z M 59.7656 -16.3574 C 36.4746 -16.4062 17.9199 -35.1562 17.9199 -58.4473 C 17.9199 -81.7383 36.4746 -100.488 59.7656 -100.488 C 83.0078 -100.488 101.514 -81.7383 101.562 -58.4473 C 101.611 -35.1562 83.0078 -16.3574 59.7656 -16.3574 Z"/>
  </g>
  <g id="Regular-L" transform="matrix(1 0 0 1 1389.18 1556)">
   <path d="M 94.0918 27.2461 L 94.0918 -21.7285 C 103.857 -30.8105 110.059 -43.7012 110.059 -58.0078 C 110.107 -85.3027 87.7441 -107.617 60.6445 -107.617 C 33.4961 -107.617 11.2793 -85.3027 11.2793 -58.0078 C 11.2793 -43.6523 17.4805 -30.6641 27.2949 -21.582 L 27.3438 27.2461 C 27.3438 30.5176 29.1016 32.0312 31.4453 32.0312 C 33.4961 32.0312 35.0098 30.8105 36.5723 29.2969 L 57.5195 8.39844 C 58.9355 7.03125 59.8633 6.5918 60.7422 6.5918 C 61.5723 6.5918 62.5488 7.03125 63.916 8.39844 L 84.8633 29.2969 C 86.4746 30.9082 88.0371 32.0312 89.9902 32.0312 C 92.4316 32.0312 94.0918 30.5176 94.0918 27.2461 Z M 60.6934 -16.9922 C 37.9395 -17.041 20.0195 -35.3027 20.0195 -58.0078 C 20.0195 -80.8105 37.9395 -99.0723 60.6934 -99.0723 C 83.4473 -99.0723 101.367 -80.8105 101.416 -58.0078 C 101.465 -35.3027 83.4473 -16.9434 60.6934 -16.9922 Z"/>
  </g>
  <g id="Medium-L" transform="matrix(1 0 0 1 1684.57 1556)">
   <path d="M 96.3379 27.4414 L 96.3379 -20.3125 C 106.396 -29.5898 112.695 -42.8711 112.744 -57.666 C 112.793 -85.7422 89.9414 -108.545 62.0117 -108.545 C 34.0332 -108.545 11.2793 -85.7422 11.2793 -57.666 C 11.2793 -42.627 17.7734 -29.1504 28.125 -19.8242 L 28.1738 27.4414 C 28.1738 31.2988 30.3711 33.1055 33.2031 33.1055 C 35.498 33.1055 37.1582 31.8359 38.916 30.1758 L 59.3262 9.81445 C 60.5469 8.64258 61.4258 8.20312 62.2559 8.20312 C 63.0859 8.20312 63.9648 8.64258 65.1855 9.81445 L 85.5957 30.1758 C 87.4023 31.9336 89.1113 33.1055 91.2598 33.1055 C 94.1895 33.1055 96.3379 31.2988 96.3379 27.4414 Z M 62.0605 -17.4805 C 39.6973 -17.4805 22.1191 -35.4004 22.1191 -57.666 C 22.1191 -79.9316 39.6973 -97.8516 62.0605 -97.8516 C 84.3262 -97.8516 101.904 -79.9316 101.953 -57.666 C 102.002 -35.4004 84.3262 -17.4316 62.0605 -17.4805 Z"/>
  </g>
  <g id="Semibold-L" transform="matrix(1 0 0 1 1980.25 1556)">
   <path d="M 98.0469 27.5879 L 98.0469 -19.2383 C 108.35 -28.6621 114.746 -42.2363 114.795 -57.373 C 114.844 -86.1328 91.6016 -109.277 63.0371 -109.277 C 34.4238 -109.277 11.2793 -86.1328 11.2793 -57.373 C 11.2793 -41.8457 18.0176 -27.9785 28.7598 -18.457 L 28.8086 27.5879 C 28.8086 31.8848 31.3965 33.9355 34.5703 33.9355 C 37.0605 33.9355 38.8184 32.666 40.7227 30.8105 L 60.7422 10.8887 C 61.8164 9.81445 62.6465 9.42383 63.4277 9.42383 C 64.209 9.42383 65.0391 9.81445 66.1133 10.8887 L 86.1816 30.8105 C 88.0859 32.7148 89.8926 33.9355 92.2852 33.9355 C 95.5566 33.9355 98.0469 31.8848 98.0469 27.5879 Z M 63.0859 -17.8223 C 41.0645 -17.8223 23.7305 -35.498 23.7793 -57.373 C 23.7305 -79.2969 41.0645 -96.9727 63.0859 -96.9727 C 85.0098 -96.9727 102.344 -79.2969 102.393 -57.373 C 102.441 -35.498 85.0098 -17.7734 63.0859 -17.8223 Z"/>
  </g>
  <g id="Bold-L" transform="matrix(1 0 0 1 2275.6 1556)">
   <path d="M 100.342 27.7344 L 100.342 -17.7734 C 110.889 -27.4902 117.48 -41.4062 117.48 -56.9824 C 117.529 -86.5723 93.7988 -110.254 64.3555 -110.254 C 34.9121 -110.254 11.2793 -86.5723 11.2793 -56.9824 C 11.2793 -40.8203 18.3594 -26.416 29.5898 -16.6992 L 29.6387 27.7344 C 29.6387 32.666 32.666 35.0098 36.377 35.0098 C 39.0625 35.0098 41.0156 33.7402 43.0664 31.6895 L 62.5488 12.3047 C 63.4766 11.4258 64.2578 11.0352 64.9902 11.0352 C 65.7227 11.0352 66.4551 11.4258 67.3828 12.3047 L 86.9141 31.6895 C 88.9648 33.7402 90.9668 35.0098 93.6035 35.0098 C 97.3145 35.0098 100.342 32.666 100.342 27.7344 Z M 64.4043 -18.2617 C 42.8711 -18.3105 25.8789 -35.5957 25.9277 -56.9824 C 25.8789 -78.418 42.8711 -95.752 64.4043 -95.752 C 85.9375 -95.752 102.881 -78.418 102.93 -56.9824 C 102.979 -35.5957 85.9375 -18.2129 64.4043 -18.2617 Z"/>
  </g>
  <g id="Heavy-L" transform="matrix(1 0 0 1 2570.36 1556)">
   <path d="M 103.613 28.0273 L 103.613 -15.6738 C 114.551 -25.7324 121.387 -40.1855 121.387 -56.4453 C 121.436 -87.207 96.9727 -111.67 66.3574 -111.67 C 35.6445 -111.67 11.2793 -87.207 11.2793 -56.4453 C 11.2793 -39.3555 18.7988 -24.1699 30.8105 -14.1113 L 30.8105 28.0273 C 30.8105 33.8379 34.5703 36.5723 38.9648 36.5723 C 41.9922 36.5723 44.1895 35.3027 46.5332 32.959 L 65.2344 14.4043 C 65.918 13.7207 66.5527 13.3789 67.2363 13.3789 C 67.8711 13.3789 68.5059 13.7207 69.2383 14.4043 L 87.9883 32.959 C 90.2832 35.2539 92.4805 36.5723 95.459 36.5723 C 99.9023 36.5723 103.613 33.8379 103.613 28.0273 Z M 66.3574 -18.9453 C 45.459 -18.9453 29.0039 -35.791 29.0527 -56.4453 C 29.0039 -77.1973 45.459 -94.043 66.3574 -94.043 C 87.2559 -94.043 103.711 -77.1973 103.711 -56.4453 C 103.76 -35.791 87.2559 -18.8965 66.3574 -18.9453 Z"/>
  </g>
  <g id="Black-L" transform="matrix(1 0 0 1 2865.31 1556)">
   <path d="M 106.543 28.2715 L 106.543 -13.8184 C 117.871 -24.1699 124.902 -39.1113 124.902 -55.957 C 124.951 -87.793 99.8535 -112.891 68.0664 -112.891 C 36.2793 -112.891 11.2793 -87.793 11.2793 -55.957 C 11.2793 -38.0371 19.2383 -22.2168 31.8848 -11.8164 L 31.8848 28.2715 C 31.8848 34.8145 36.2793 37.9883 41.3086 37.9883 C 44.6289 37.9883 47.0215 36.6699 49.5605 34.1309 L 67.5781 16.2598 C 68.0664 15.8203 68.6523 15.5273 69.2383 15.5273 C 69.8242 15.5273 70.3613 15.8203 70.8496 16.2598 L 88.9648 34.1309 C 91.5039 36.5723 93.8965 37.9883 97.168 37.9883 C 102.197 37.9883 106.543 34.8145 106.543 28.2715 Z M 68.1152 -19.5312 C 47.8027 -19.5312 31.7871 -35.9375 31.8359 -55.957 C 31.7871 -76.0742 47.8027 -92.4805 68.1152 -92.4805 C 88.4277 -92.4805 104.395 -76.0742 104.443 -55.957 C 104.443 -35.9375 88.4277 -19.4824 68.1152 -19.5312 Z"/>
  </g>
 </g>
</svg>
