<?xml version="1.0" standalone="no"?><!DOCTYPE svg PUBLIC "-//W3C//DTD SVG 1.1//EN" "http://www.w3.org/Graphics/SVG/1.1/DTD/svg11.dtd"><svg class="icon" width="500px" height="500.00px" viewBox="0 0 1024 1024" version="1.1" xmlns="http://www.w3.org/2000/svg"><path d="M277.333333 469.333333H170.666667v-181.333333c0-29.866667 23.466667-53.333333 53.333333-53.333333s53.333333 23.466667 53.333333 53.333333V469.333333zM426.666667 469.333333h-106.666667V160C320 130.133333 343.466667 106.666667 373.333333 106.666667S426.666667 130.133333 426.666667 160V469.333333zM576 469.333333h-106.666667V117.333333C469.333333 87.466667 492.8 64 522.666667 64S576 87.466667 576 117.333333V469.333333zM725.333333 469.333333h-106.666666V181.333333C618.666667 151.466667 642.133333 128 672 128S725.333333 151.466667 725.333333 181.333333V469.333333zM684.8 917.333333l-106.666667-106.666666 213.333334-213.333334c29.866667-29.866667 76.8-29.866667 104.533333 0 29.866667 29.866667 29.866667 76.8 0 104.533334L684.8 917.333333z" fill="#FFCC80" /><path d="M618.666667 448c0 12.8-8.533333 21.333333-21.333334 21.333333s-21.333333-8.533333-21.333333-21.333333h-106.666667c0 12.8-8.533333 21.333333-21.333333 21.333333s-21.333333-8.533333-21.333333-21.333333h-106.666667c0 12.8-8.533333 21.333333-21.333333 21.333333s-21.333333-8.533333-21.333334-21.333333H170.666667v341.333333c0 93.866667 76.8 170.666667 170.666666 170.666667h238.933334c78.933333 0 145.066667-64 145.066666-145.066667V448h-106.666666z" fill="#FFCC80" /><path d="M328.810667 618.048l52.778666-52.778667 226.24 226.24-52.778666 52.778667z" fill="#F44336" /><path d="M554.517333 565.418667l52.8 52.778666-226.24 226.24-52.8-52.778666z" fill="#F44336" /></svg>