<svg width="135" height="135" viewBox="0 0 135 135" fill="none" xmlns="http://www.w3.org/2000/svg">
<path d="M33.7486 67.6777C33.7486 64.0698 34.3277 60.5747 35.4068 57.354L30.0928 55.1391C28.7627 59.1093 28 63.3203 28 67.6777C28 72.0351 28.7627 76.2461 30.1265 80.2163L35.4068 78.0166C34.3428 74.7959 33.7486 71.2856 33.7486 67.6777ZM51.8003 38.1884L49.668 33.0395C42.0122 36.8178 35.7691 43.061 31.9908 50.6831L37.1885 52.8828C40.3672 46.5424 45.4937 41.416 51.8003 38.1884ZM66.6441 34.6963C70.252 34.6963 73.7471 35.309 77.0166 36.373L79.1827 31.1264C75.2461 29.7626 71.0352 29 66.6441 29C62.2867 29 58.042 29.7626 54.1055 31.1264L56.3204 36.373C59.5411 35.2939 63.0362 34.6963 66.6441 34.6963ZM96.1333 52.8491L101.365 50.6831C97.5528 43.0459 91.2945 36.8027 83.6387 32.9907L81.4727 38.1884C87.7945 41.3823 92.9732 46.4936 96.1333 52.8491ZM99.6592 67.6777C99.6592 71.2856 99.0801 74.7959 98.0162 78.0502L103.229 80.2163C104.626 76.2797 105.389 72.0351 105.389 67.6777C105.389 63.3203 104.626 59.0908 103.229 55.1543L97.9976 57.3203C99.0953 60.5747 99.6592 64.0698 99.6592 67.6777ZM66.6778 106.355C81.6446 106.355 94.9815 97.5092 101.383 84.6875L96.1333 82.5214C94.7764 85.1831 93.0811 87.6494 91.0845 89.8598C87.4893 85.2231 78.5288 80.5854 66.6778 80.5854C54.8604 80.5854 45.9 85.2382 42.2559 89.8447C40.2745 87.6342 38.5826 85.1679 37.2222 82.5214L32.0059 84.6875C38.4078 97.5092 51.7447 106.355 66.6778 106.355ZM66.6778 74.0796C74.0357 74.1469 79.7706 67.8632 79.7706 59.6567C79.7706 51.9384 73.9903 45.5268 66.6778 45.5268C59.399 45.5268 53.5699 51.9384 53.6187 59.6567C53.6524 67.8632 59.3199 74.0122 66.6778 74.0796Z" fill="black"/>
</svg>
