<svg width="135" height="135" viewBox="0 0 135 135" fill="none" xmlns="http://www.w3.org/2000/svg">
<path d="M63.7188 108.103H71.4336C74.2657 108.103 76.4141 106.443 77.0489 103.66L78.7579 96.4335L80.2715 95.8476L86.5703 99.8027C88.9629 101.316 91.6973 100.926 93.6993 98.9238L99.0215 93.6015C101.072 91.5996 101.414 88.8652 99.9004 86.4726L95.9453 80.1738L96.4825 78.7089L103.758 77.0488C106.492 76.3652 108.201 74.2167 108.201 71.4335V63.8652C108.201 61.0332 106.492 58.8847 103.758 58.25L96.5801 56.4921L95.9942 54.9785L99.9004 48.6796C101.463 46.2871 101.072 43.6503 99.0703 41.5507L93.6993 36.2285C91.7461 34.2265 89.0118 33.8847 86.6192 35.3496L80.3203 39.2558L78.7579 38.6699L77.0489 31.3945C76.4141 28.6601 74.2657 27 71.4336 27H63.7188C60.8868 27 58.7871 28.6601 58.1524 31.3945L56.4434 38.6699L54.8321 39.2558L48.5332 35.3496C46.1407 33.8847 43.4063 34.2265 41.4532 36.2285L36.0821 41.5507C34.0801 43.6503 33.7383 46.2871 35.252 48.6796L39.2071 54.9785L38.6211 56.4921L31.4434 58.25C28.6601 58.8847 27 61.0332 27 63.8652V71.4335C27 74.2167 28.709 76.3652 31.4434 77.0488L38.67 78.7089L39.2071 80.1738L35.3008 86.4726C33.7383 88.8652 34.1289 91.5996 36.1309 93.6015L41.502 98.9238C43.5039 100.926 46.1895 101.316 48.5821 99.8027L54.9297 95.8476L56.4434 96.4335L58.1524 103.66C58.7871 106.443 60.8868 108.103 63.7188 108.103ZM64.3047 102.83C63.4746 102.83 63.084 102.488 62.9375 101.756L60.6914 92.3808C58.4942 91.7949 56.3946 90.916 54.7832 89.9882L46.5801 95.0664C45.9453 95.457 45.3594 95.4081 44.7735 94.8222L40.2325 90.2324C39.6465 89.6953 39.6465 89.1582 40.0371 88.5234L45.1153 80.3203C44.2852 78.7578 43.3575 76.6582 42.7715 74.4609L33.3477 72.2148C32.6153 72.0683 32.2735 71.6777 32.2735 70.8964V64.3535C32.2735 63.5234 32.6153 63.1328 33.3477 62.9863L42.7227 60.789C43.3086 58.4453 44.3829 56.2968 45.0664 54.832L39.9883 46.6777C39.5489 45.9941 39.5977 45.457 40.1348 44.871L44.7735 40.33C45.3594 39.7929 45.8477 39.6953 46.5801 40.1347L54.7344 45.1152C56.3457 44.2363 58.543 43.3574 60.7403 42.7226L62.9375 33.3476C63.084 32.6152 63.4746 32.2734 64.3047 32.2734H70.8965C71.7266 32.2734 72.1172 32.5664 72.2637 33.3476L74.5098 42.7714C76.7559 43.3574 78.7579 44.2851 80.418 45.164L88.6211 40.1347C89.3047 39.6953 89.8418 39.7929 90.4278 40.33L95.0176 44.871C95.5547 45.457 95.6036 45.9941 95.1641 46.6777L90.1348 54.832C90.8184 56.2968 91.8438 58.3964 92.4297 60.789L101.854 62.9863C102.586 63.1328 102.928 63.5234 102.928 64.3535V70.8964C102.928 71.6777 102.586 72.0683 101.854 72.2148L92.4297 74.4609C91.8438 76.6582 90.9161 78.7578 90.0371 80.3203L95.1153 88.5234C95.5547 89.1582 95.5059 89.6953 94.9688 90.2324L90.3789 94.8222C89.793 95.4081 89.2071 95.457 88.6211 95.0664L80.3692 89.9882C78.8067 90.916 76.7559 91.7949 74.5098 92.3808L72.2637 101.756C72.1172 102.537 71.7266 102.83 70.8965 102.83H64.3047ZM67.625 82.1757C75.6329 82.1757 82.1758 75.5839 82.1758 67.5273C82.1758 59.5683 75.6329 52.9765 67.625 52.9765C59.6172 52.9765 52.9766 59.5683 52.9766 67.5273C52.9766 75.5351 59.5684 82.1757 67.625 82.1757ZM67.625 76.9023C62.4981 76.9023 58.25 72.7031 58.25 67.5273C58.25 62.4492 62.4981 58.25 67.625 58.25C72.6543 58.25 76.9024 62.4492 76.9024 67.5273C76.9024 72.6542 72.6543 76.9023 67.625 76.9023Z" fill="black"/>
</svg>
