<svg width="135" height="135" viewBox="0 0 135 135" fill="none" xmlns="http://www.w3.org/2000/svg">
<path d="M67.6778 106.355C89.0464 106.355 106.389 89.0463 106.389 67.6777C106.389 46.309 89.0464 29 67.6778 29C46.3428 29 29 46.309 29 67.6777C29 89.0463 46.3428 106.355 67.6778 106.355ZM67.6778 100.659C49.4419 100.659 34.7149 85.9135 34.7149 67.6777C34.7149 49.4419 49.4419 34.6963 67.6778 34.6963C85.9136 34.6963 100.659 49.4419 100.659 67.6777C100.659 85.9135 85.9136 100.659 67.6778 100.659ZM49.9024 72.9702C52.8492 72.9702 55.274 70.5942 55.274 67.6474C55.274 64.7006 52.8155 62.291 49.9024 62.291C46.9707 62.291 44.5796 64.7006 44.5796 67.6474C44.5796 70.5942 46.9707 72.9702 49.9024 72.9702ZM67.6441 72.9702C70.6246 72.9702 73.0005 70.5942 73.0005 67.6474C73.0005 64.7006 70.6246 62.291 67.6441 62.291C64.6973 62.291 62.3213 64.7006 62.3213 67.6474C62.3213 70.5942 64.6973 72.9702 67.6441 72.9702ZM85.4195 72.9702C88.3511 72.9702 90.7422 70.5942 90.7422 67.6474C90.7422 64.7006 88.3511 62.291 85.4195 62.291C82.439 62.291 80.0479 64.7006 80.0479 67.6474C80.0479 70.5942 82.439 72.9702 85.4195 72.9702Z" fill="black"/>
</svg>
