<?xml version="1.0" standalone="no"?><!DOCTYPE svg PUBLIC "-//W3C//DTD SVG 1.1//EN" "http://www.w3.org/Graphics/SVG/1.1/DTD/svg11.dtd"><svg class="icon" width="500px" height="500.00px" viewBox="0 0 1024 1024" version="1.1" xmlns="http://www.w3.org/2000/svg"><path d="M618.666667 917.333333v-98.133333l55.466666 10.666667c61.866667 12.8 119.466667-32 123.733334-93.866667L810.666667 597.333333l61.866666-25.6c21.333333-8.533333 29.866667-34.133333 17.066667-55.466666L810.666667 384c-12.8-162.133333-104.533333-320-341.333334-320C226.133333 64 106.666667 243.2 106.666667 426.666667c0 78.933333 27.733333 147.2 70.4 204.8 38.4 53.333333 57.6 117.333333 57.6 181.333333v102.4h384z" fill="#FFB74D" /><path d="M618.666667 917.333333v-98.133333L469.333333 789.333333v128z" fill="#FF9800" /><path d="M714.666667 458.666667m-32 0a32 32 0 1 0 64 0 32 32 0 1 0-64 0Z" fill="#784719" /><path d="M456.533333 64C262.4 64 106.666667 219.733333 106.666667 413.866667c0 236.8 128 243.2 128 396.8l55.466666-19.2c44.8-14.933333 83.2-49.066667 100.266667-93.866667l59.733333-145.066667L576 490.666667v-128s149.333333-81.066667 149.333333-219.733334C661.333333 89.6 548.266667 64 456.533333 64z" fill="#FF5722" /><path d="M448 44.8c-12.8 0-21.333333 8.533333-21.333333 21.333333V362.666667c0 12.8 8.533333 21.333333 21.333333 21.333333s21.333333-8.533333 21.333333-21.333333V66.133333c0-12.8-8.533333-21.333333-21.333333-21.333333zM787.2 680.533333c-168.533333 0-219.733333-104.533333-221.866667-108.8-4.266667-10.666667-17.066667-14.933333-27.733333-10.666666-10.666667 4.266667-14.933333 17.066667-10.666667 27.733333 2.133333 6.4 64 134.4 260.266667 134.4 12.8 0 21.333333-8.533333 21.333333-21.333333s-10.666667-21.333333-21.333333-21.333334z" fill="#546E7A" /><path d="M789.333333 704m-42.666666 0a42.666667 42.666667 0 1 0 85.333333 0 42.666667 42.666667 0 1 0-85.333333 0Z" fill="#37474F" /><path d="M448 490.666667m-149.333333 0a149.333333 149.333333 0 1 0 298.666666 0 149.333333 149.333333 0 1 0-298.666666 0Z" fill="#37474F" /><path d="M448 490.666667m-85.333333 0a85.333333 85.333333 0 1 0 170.666666 0 85.333333 85.333333 0 1 0-170.666666 0Z" fill="#546E7A" /></svg>