<?xml version="1.0" standalone="no"?><!DOCTYPE svg PUBLIC "-//W3C//DTD SVG 1.1//EN" "http://www.w3.org/Graphics/SVG/1.1/DTD/svg11.dtd"><svg class="icon" width="200px" height="200.00px" viewBox="0 0 1024 1024" version="1.1" xmlns="http://www.w3.org/2000/svg"><path d="M682.666667 512m-192 0a192 192 0 1 0 384 0 192 192 0 1 0-384 0Z" fill="#B2EBF2" /><path d="M682.666667 256c-140.8 0-256 115.2-256 256s115.2 256 256 256 256-115.2 256-256-115.2-256-256-256z m0 426.666667c-93.866667 0-170.666667-76.8-170.666667-170.666667s76.8-170.666667 170.666667-170.666667 170.666667 76.8 170.666666 170.666667-76.8 170.666667-170.666666 170.666667z" fill="#4DD0E1" /><path d="M541.866667 469.333333L422.4 108.8l-132.266667 482.133333-46.933333-121.6H85.333333v85.333334h98.133334l123.733333 305.066666 123.733333-456.533333 51.2 151.466667H640v-85.333334z" fill="#3F51B5" /><path d="M682.666667 512m-85.333334 0a85.333333 85.333333 0 1 0 170.666667 0 85.333333 85.333333 0 1 0-170.666667 0Z" fill="#3F51B5" /></svg>