<?xml version="1.0" standalone="no"?><!DOCTYPE svg PUBLIC "-//W3C//DTD SVG 1.1//EN" "http://www.w3.org/Graphics/SVG/1.1/DTD/svg11.dtd"><svg class="icon" width="500px" height="500.00px" viewBox="0 0 1024 1024" version="1.1" xmlns="http://www.w3.org/2000/svg"><path d="M797.866667 524.8l-247.466667-46.933333-83.2-238.933334-81.066667 27.733334L469.333333 503.466667l-166.4 192 64 55.466666 166.4-192 247.466667 46.933334 17.066667-81.066667z" fill="#EF6C00" /><path d="M512 405.333333c-59.733333 0-106.666667 46.933333-106.666667 106.666667s46.933333 106.666667 106.666667 106.666667 106.666667-46.933333 106.666667-106.666667-46.933333-106.666667-106.666667-106.666667z m0 149.333334c-23.466667 0-42.666667-19.2-42.666667-42.666667s19.2-42.666667 42.666667-42.666667 42.666667 19.2 42.666667 42.666667-19.2 42.666667-42.666667 42.666667z" fill="#FF9800" /><path d="M868.266667 576c4.266667-21.333333 6.4-42.666667 6.4-64s-2.133333-42.666667-6.4-64l70.4-51.2c8.533333-6.4 12.8-19.2 6.4-29.866667L853.333333 209.066667c-6.4-10.666667-17.066667-14.933333-27.733333-8.533334L746.666667 234.666667c-32-27.733333-70.4-49.066667-110.933334-64l-8.533333-87.466667c-2.133333-10.666667-10.666667-19.2-21.333333-19.2h-183.466667c-10.666667 0-21.333333 8.533333-21.333333 19.2L388.266667 170.666667c-40.533333 14.933333-78.933333 36.266667-110.933334 64L198.4 198.4c-10.666667-4.266667-23.466667 0-27.733333 10.666667l-91.733334 157.866666c-6.4 10.666667-2.133333 23.466667 6.4 29.866667L155.733333 448c-4.266667 21.333333-6.4 42.666667-6.4 64s2.133333 42.666667 6.4 64L85.333333 627.2c-8.533333 6.4-12.8 19.2-6.4 29.866667L170.666667 814.933333c6.4 10.666667 17.066667 14.933333 27.733333 8.533334L277.333333 789.333333c32 27.733333 70.4 49.066667 110.933334 64l8.533333 87.466667c2.133333 10.666667 10.666667 19.2 21.333333 19.2h183.466667c10.666667 0 21.333333-8.533333 21.333333-19.2l8.533334-87.466667c40.533333-14.933333 78.933333-36.266667 110.933333-64l78.933333 36.266667c10.666667 4.266667 23.466667 0 27.733334-8.533333l91.733333-157.866667c6.4-10.666667 2.133333-23.466667-6.4-29.866667L868.266667 576zM512 746.666667c-130.133333 0-234.666667-104.533333-234.666667-234.666667s104.533333-234.666667 234.666667-234.666667 234.666667 104.533333 234.666667 234.666667-104.533333 234.666667-234.666667 234.666667z" fill="#FF9800" /></svg>