<?xml version="1.0" encoding="UTF-8"?>
<svg width="863px" height="896px" viewBox="0 0 863 896" version="1.1" xmlns="http://www.w3.org/2000/svg" xmlns:xlink="http://www.w3.org/1999/xlink">
    <!-- Generator: Sketch 49.1 (51147) - http://www.bohemiancoding.com/sketch -->
    <title>leaf</title>
    <desc>Created with Sketch.</desc>
    <defs></defs>
    <g id="Page-1" stroke="none" stroke-width="1" fill="none" fill-rule="evenodd">
        <g id="leaf" fill="#999999" fill-rule="nonzero">
            <path d="M739.254849,131.681728 C729.779034,122.03809 715.164174,119.578062 703.070742,125.611476 L596.225295,178.739487 C580.781558,186.415307 574.488225,205.1633 582.169161,220.612153 C589.844981,236.050774 608.587857,242.35434 624.041827,234.668287 L709.318026,192.266571 C752.14646,244.880882 866.912297,412.968135 747.205938,581.634579 C714.696523,627.436741 661.410923,658.065319 601.013345,665.665414 C583.897526,667.820497 571.768277,683.442289 573.92336,700.554016 C575.910621,716.348747 589.361981,727.893688 604.872233,727.893688 C606.173878,727.893688 607.48985,727.811824 608.811962,727.645025 C686.528998,717.864264 755.537698,677.82127 798.143052,617.790035 C971.780717,373.133895 741.59822,134.071148 739.254849,131.681728 Z" id="Shape"></path>
            <path d="M590.907173,601.074328 C713.359063,399.426725 412.367871,27.810009 399.496725,12.092026 C390.524376,1.132417 375.313953,-2.426642 362.427458,3.434856 C358.182784,5.361742 257.310375,51.611089 162.807025,138.402804 C34.148783,256.56397 -19.624934,392.873472 7.307462,532.60491 C26.868983,634.097442 117.86444,711.300778 244.774875,734.085714 C257.28377,736.330848 270.191754,737.905716 283.31668,738.914696 C284.181374,770.958506 288.700294,824.287086 307.200647,875.393044 C311.801432,888.101484 323.793557,896.006524 336.568512,896.006524 C340.101988,896.006524 343.690723,895.40175 347.198617,894.130804 C363.420067,888.259073 371.808108,870.350191 365.936377,854.133858 C350.654322,811.917361 346.70129,766.420144 345.838643,738.802133 C440.392134,731.338137 536.900142,690.006799 590.907173,601.074328 Z M255.811232,672.600361 C176.742409,658.401987 86.04678,611.063843 68.645458,520.780607 C21.322663,275.241355 287.67494,113.346128 366.692598,71.218658 C452.852933,182.77643 615.313025,440.531912 537.509008,568.652918 C479.058782,664.903052 353.912527,690.224764 255.811232,672.600361 Z" id="Shape"></path>
            <path d="M304.261711,544.612385 C287.012862,544.612385 273.028359,558.596888 273.028359,575.845737 L273.028359,608.385851 C273.028359,625.6347 287.012862,639.619203 304.261711,639.619203 C321.51056,639.619203 335.495063,625.6347 335.495063,608.385851 L335.495063,575.845737 C335.495062,558.596887 321.51056,544.612385 304.261711,544.612385 Z" id="Shape"></path>
            <path d="M208.524253,259.613422 C191.275404,259.613422 177.290901,273.597925 177.290901,290.846774 L177.290901,322.080126 C177.290901,339.328975 191.275404,353.313478 208.524253,353.313478 C225.773102,353.313478 239.757605,339.328975 239.757605,322.080126 L239.757605,290.846774 C239.756581,273.598948 225.772079,259.613422 208.524253,259.613422 Z" id="Shape"></path>
            <path d="M416.745575,259.613422 C399.496726,259.613422 385.512223,273.597925 385.512223,290.846774 L385.512223,322.080126 C385.512223,339.328975 399.496726,353.313478 416.745575,353.313478 C433.994424,353.313478 447.978927,339.328975 447.978927,322.080126 L447.978927,290.846774 C447.978926,273.598948 433.9934,259.613422 416.745575,259.613422 Z" id="Shape"></path>
            <path d="M389.661729,380.327738 C375.392747,370.928671 356.095239,374.933891 346.502767,389.081099 C346.370761,389.27962 332.888701,408.841142 312.326387,408.841142 C292.33303,408.841142 279.898837,390.733739 279.059726,389.473026 C269.888856,375.041339 250.774519,370.668751 236.226175,379.707615 C221.570384,388.81197 217.070906,408.068546 226.176285,422.719221 C237.385581,440.766249 268.151282,471.307846 312.327411,471.307846 C356.289669,471.307846 387.431946,440.994446 398.905255,423.085565 C408.119103,408.688669 403.940944,389.731922 389.661729,380.327738 Z" id="Shape"></path>
        </g>
    </g>
</svg>