<?xml version="1.0" encoding="UTF-8"?>
<svg width="896px" height="896px" viewBox="0 0 896 896" version="1.1" xmlns="http://www.w3.org/2000/svg" xmlns:xlink="http://www.w3.org/1999/xlink">
    <!-- Generator: Sketch 49.1 (51147) - http://www.bohemiancoding.com/sketch -->
    <title>lists</title>
    <desc>Created with Sketch.</desc>
    <defs></defs>
    <g id="Page-1" stroke="none" stroke-width="1" fill="none" fill-rule="evenodd">
        <g id="lists" fill="#999999" fill-rule="nonzero">
            <path d="M698.164596,77.112901 C683.858775,67.464147 664.449727,71.215587 654.795856,85.506058 C645.136869,99.801646 648.898542,119.215811 663.189013,128.874798 C769.549413,200.737499 833.053749,320.157332 833.053749,448.320294 C833.053749,660.730008 660.245985,833.537773 447.831154,833.537773 C235.42144,833.537773 62.613675,660.730009 62.613675,448.320294 C62.613675,320.151193 126.112895,200.732383 232.473294,128.874798 C246.768882,119.215811 250.530555,99.801646 240.871568,85.506058 C231.222814,71.215587 211.803532,67.464146 197.507945,77.112901 C73.924279,160.601384 0.144926,299.375008 0.144926,448.320295 C0.144926,695.176542 200.973884,896.0055 447.830131,896.0055 C694.686378,896.0055 895.520453,695.176542 895.520453,448.320295 C895.521476,299.375008 821.73803,160.606501 698.164596,77.112901 Z" id="Shape"></path>
            <path d="M336.357294,0.635089 C319.108445,0.635089 305.122919,14.620615 305.122919,31.869464 L305.122919,62.345569 C305.122919,79.594418 319.108445,93.579944 336.357294,93.579944 C353.606143,93.579944 367.591669,79.594418 367.591669,62.345569 L367.591669,31.868441 C367.590646,14.619592 353.60512,0.635089 336.357294,0.635089 Z" id="Shape"></path>
            <path d="M559.310132,0.635089 C542.061283,0.635089 528.075757,14.620615 528.075757,31.869464 L528.075757,62.345569 C528.075757,79.594418 542.061283,93.579944 559.310132,93.579944 C576.558981,93.579944 590.544507,79.594418 590.544507,62.345569 L590.544507,31.868441 C590.543484,14.619592 576.558981,0.635089 559.310132,0.635089 Z" id="Shape"></path>
            <path d="M361.353594,163.656977 C372.56289,181.704005 403.329614,212.246625 447.510859,212.246625 C491.469023,212.246625 522.611301,181.933225 534.085633,164.02332 C543.38851,149.494419 539.154069,130.176444 524.630284,120.873568 C510.09115,111.565575 490.778292,115.810249 481.480532,130.328917 C481.358759,130.527438 468.100803,149.778898 447.511883,149.778898 C427.503177,149.778898 415.06796,131.651029 414.233965,130.404642 C405.063095,115.977048 385.953875,111.605484 371.404507,120.644347 C356.747693,129.748702 352.249239,149.006302 361.353594,163.656977 Z" id="Shape"></path>
            <path d="M666.470757,541.14747 L385.365474,541.14747 C368.116625,541.14747 354.132122,555.132996 354.132122,572.381845 C354.132122,589.630694 368.117648,603.615197 385.365474,603.615197 L666.470757,603.615197 C683.719606,603.615197 697.705132,589.629671 697.705132,572.381845 C697.704109,555.132996 683.719606,541.14747 666.470757,541.14747 Z" id="Shape"></path>
            <path d="M250.018903,541.14747 L229.196668,541.14747 C211.947819,541.14747 197.962293,555.132996 197.962293,572.381845 C197.962293,589.630694 211.947819,603.615197 229.196668,603.615197 L250.018903,603.615197 C267.267752,603.615197 281.252255,589.629671 281.252255,572.381845 C281.252255,555.132996 267.267752,541.14747 250.018903,541.14747 Z" id="Shape"></path>
            <path d="M666.470757,364.155407 L385.365474,364.155407 C368.116625,364.155407 354.132122,378.140933 354.132122,395.389782 C354.132122,412.638631 368.117648,426.624157 385.365474,426.624157 L666.470757,426.624157 C683.719606,426.624157 697.705132,412.638631 697.705132,395.389782 C697.704109,378.140932 683.719606,364.155407 666.470757,364.155407 Z" id="Shape"></path>
            <path d="M250.018903,364.155407 L229.196668,364.155407 C211.947819,364.155407 197.962293,378.140933 197.962293,395.389782 C197.962293,412.638631 211.947819,426.624157 229.196668,426.624157 L250.018903,426.624157 C267.267752,426.624157 281.252255,412.638631 281.252255,395.389782 C281.252255,378.140932 267.267752,364.155407 250.018903,364.155407 Z" id="Shape"></path>
        </g>
    </g>
</svg>