<?xml version="1.0" standalone="no"?><!DOCTYPE svg PUBLIC "-//W3C//DTD SVG 1.1//EN" "http://www.w3.org/Graphics/SVG/1.1/DTD/svg11.dtd"><svg class="icon" width="500px" height="500.00px" viewBox="0 0 1024 1024" version="1.1" xmlns="http://www.w3.org/2000/svg"><path d="M853.333333 746.666667v106.666666H170.666667v-106.666666H85.333333v106.666666c0 46.933333 38.4 85.333333 85.333334 85.333334h682.666666c46.933333 0 85.333333-38.4 85.333334-85.333334v-106.666666h-85.333334z" fill="#90A4AE" /><path d="M512 499.2L362.666667 320h298.666666z" fill="#1565C0" /><path d="M469.333333 85.333333h85.333334v298.666667h-85.333334zM672 573.866667l-14.933333 23.466666 74.666666 40.533334 12.8-25.6c34.133333-64 55.466667-100.266667 74.666667-110.933334 19.2-10.666667 55.466667-10.666667 119.466667-10.666666v-85.333334c-164.266667 0-179.2 8.533333-266.666667 168.533334z" fill="#1565C0" /><path d="M819.2 661.333333l-192 85.333334L597.333333 533.333333zM352 573.866667l12.8 25.6-74.666667 40.533333-12.8-25.6c-34.133333-64-55.466667-100.266667-74.666666-110.933333C185.6 490.666667 149.333333 490.666667 85.333333 490.666667v-85.333334c164.266667 0 179.2 8.533333 266.666667 168.533334z" fill="#1565C0" /><path d="M426.666667 533.333333l-29.866667 213.333334-192-85.333334z" fill="#1565C0" /></svg>