<?xml version="1.0" standalone="no"?><!DOCTYPE svg PUBLIC "-//W3C//DTD SVG 1.1//EN" "http://www.w3.org/Graphics/SVG/1.1/DTD/svg11.dtd"><svg class="icon" width="500px" height="500.00px" viewBox="0 0 1024 1024" version="1.1" xmlns="http://www.w3.org/2000/svg"><path d="M469.333333 810.666667c-102.4 0-106.666667-149.333333-106.666666-149.333334v-128h213.333333v128s-4.266667 149.333333-106.666667 149.333334z" fill="#FF9800" /><path d="M661.333333 405.333333m-42.666666 0a42.666667 42.666667 0 1 0 85.333333 0 42.666667 42.666667 0 1 0-85.333333 0Z" fill="#FFA726" /><path d="M277.333333 405.333333m-42.666666 0a42.666667 42.666667 0 1 0 85.333333 0 42.666667 42.666667 0 1 0-85.333333 0Z" fill="#FFA726" /><path d="M661.333333 277.333333c0-162.133333-384-106.666667-384 0v149.333334c0 106.666667 85.333333 192 192 192s192-85.333333 192-192v-149.333334z" fill="#FFB74D" /><path d="M469.333333 85.333333c-130.133333 0-213.333333 104.533333-213.333333 234.666667v49.066667l42.666667 36.266666v-106.666666l256-85.333334 85.333333 85.333334v106.666666l42.666667-36.266666V320c0-85.333333-21.333333-170.666667-128-192l-21.333334-42.666667h-64z" fill="#424242" /><path d="M554.666667 405.333333m-21.333334 0a21.333333 21.333333 0 1 0 42.666667 0 21.333333 21.333333 0 1 0-42.666667 0Z" fill="#784719" /><path d="M384 405.333333m-21.333333 0a21.333333 21.333333 0 1 0 42.666666 0 21.333333 21.333333 0 1 0-42.666666 0Z" fill="#784719" /><path d="M576 661.333333s-38.4 42.666667-106.666667 42.666667-106.666667-42.666667-106.666666-42.666667S128 704 128 938.666667h682.666667c0-234.666667-234.666667-277.333333-234.666667-277.333334z" fill="#009688" /><path d="M874.602667 86.72l149.333333 149.333333-149.333333 149.312-149.333334-149.333333z" fill="#FF9800" /><path d="M768 128h213.333333v213.333333H768z" fill="#FF9800" /><path d="M874.666667 234.666667m-64 0a64 64 0 1 0 128 0 64 64 0 1 0-128 0Z" fill="#FFEB3B" /></svg>