<?xml version="1.0" encoding="UTF-8"?>
<svg width="867px" height="896px" viewBox="0 0 867 896" version="1.1" xmlns="http://www.w3.org/2000/svg" xmlns:xlink="http://www.w3.org/1999/xlink">
    <!-- Generator: Sketch 49.1 (51147) - http://www.bohemiancoding.com/sketch -->
    <title>setting</title>
    <desc>Created with Sketch.</desc>
    <defs></defs>
    <g id="Page-1" stroke="none" stroke-width="1" fill="none" fill-rule="evenodd">
        <g id="setting" fill="#999999" fill-rule="nonzero">
            <path d="M789.720448,448.593518 C789.00925,404.447065 811.285603,361.235914 855.949848,320.160404 C866.859315,310.12484 869.207803,293.807199 861.582125,281.097736 C811.274346,197.268492 801.117008,178.032382 799.287337,174.361783 C798.098255,171.261165 796.399567,168.32223 794.213785,165.668797 C786.34456,156.141816 773.614631,152.146829 761.689021,155.48076 C760.774185,155.744773 669.125859,180.735957 601.116929,138.795752 C565.317585,116.702571 541.953458,78.676513 531.674347,25.746 C528.827509,11.064626 515.97069,0.470337 501.01507,0.470337 L369.582645,0.470337 C354.311847,0.470337 341.282089,11.511811 338.770895,26.579995 C338.644005,27.352591 324.185712,105.183214 264.016331,143.524451 C224.648718,168.587266 172.79063,172.46048 109.885951,154.942502 C96.3384,151.191061 81.956855,156.924646 74.732313,168.96282 C13.210121,271.500148 6.57091,282.307284 5.863806,283.425758 C2.086783,289.343538 0.394234,296.440166 1.125898,303.526562 C2.04585,312.473328 6.829807,320.628055 14.165889,325.833614 C14.791129,326.270566 76.592684,370.864203 81.290682,437.074161 C84.488514,482.094517 60.722227,528.996733 10.653902,576.478141 C-0.021228,586.604779 -2.182451,602.80167 5.458576,615.36787 L75.867159,731.15292 C83.924672,744.380176 100.553398,749.688065 114.818286,743.648512 C115.525391,743.3538 185.831643,714.325673 248.035357,744.390409 C289.949979,764.643685 320.370826,807.904978 338.452646,872.975996 C342.209203,886.488754 354.516507,895.841773 368.548081,895.841773 L501.541048,895.841773 C516.436293,895.841773 529.277763,885.216785 532.195208,870.607042 C532.347681,869.81398 548.880216,790.153685 611.367385,751.985387 C650.257114,728.254916 700.259948,724.808421 760.012843,741.838283 C773.728216,745.72173 788.318516,739.866372 795.516452,727.583628 C850.582605,633.567371 858.80794,620.064846 859.875249,618.356948 C863.413842,612.957984 865.223047,606.542878 864.969267,599.994742 C864.62339,591.342688 860.709243,583.21866 854.150874,577.565917 C853.519496,577.026632 790.87883,521.025177 789.720448,448.593518 Z M800.43958,193.005398 C799.92588,195.087826 799.19524,197.244956 798.097232,199.454274 C799.133841,197.371846 799.898251,195.205507 800.43958,193.005398 Z M801.361579,185.922073 C801.345206,188.022921 801.091426,190.315127 800.522468,192.719896 C801.051517,190.477832 801.33702,188.198929 801.361579,185.922073 Z M753.443219,675.811496 C685.932639,661.181287 627.074113,668.968647 578.220452,699.043617 C517.435041,736.448528 489.353472,798.631776 477.823881,833.374045 L391.589868,833.374045 C367.422446,762.355572 328.120324,713.450745 274.538988,687.818971 C213.626687,658.69977 150.711775,668.267683 116.366549,677.519394 L71.543691,603.816788 C123.676025,548.202143 147.88438,490.532699 143.563981,432.122381 C138.740116,366.879448 98.776939,318.65512 72.651931,293.7458 C81.426782,279.206666 95.029591,256.543503 116.43204,220.877189 C187.140452,236.067146 247.991355,227.800879 297.58282,196.211416 C356.664427,158.561934 383.068797,97.579025 393.830908,62.939087 L476.303248,62.939087 C492.489905,120.90222 523.367147,164.225935 568.327128,191.961626 C634.892173,233.037137 713.932344,227.425326 753.493361,220.907888 C762.318354,236.839742 775.688872,259.329966 795.3824,292.180141 C749.253803,340.942728 726.356304,393.791377 727.251697,449.60045 C728.411103,521.422219 769.466148,578.013098 794.498264,605.922751 C786.293395,619.779342 773.564489,641.456037 753.443219,675.811496 Z" id="Shape"></path>
            <path d="M311.583696,373.121616 C294.334847,373.121616 280.350344,387.102025 280.350344,404.354968 L280.350344,434.825957 C280.350344,452.079923 294.33587,466.059309 311.583696,466.059309 C328.832545,466.059309 342.818071,452.0789 342.818071,434.825957 L342.818071,404.354968 C342.817048,387.102025 328.832546,373.121616 311.583696,373.121616 Z" id="Shape"></path>
            <path d="M555.363885,373.121616 C538.109919,373.121616 524.12951,387.102025 524.12951,404.354968 L524.12951,434.825957 C524.12951,452.079923 538.109919,466.059309 555.363885,466.059309 C572.617851,466.059309 586.597237,452.0789 586.597237,434.825957 L586.597237,404.354968 C586.59826,387.102025 572.617851,373.121616 555.363885,373.121616 Z" id="Shape"></path>
            <path d="M590.936055,508.885695 C576.244448,499.826365 557.008338,504.401567 547.949008,519.073732 C523.069364,559.417579 479.970777,583.50416 432.646959,583.50416 C387.092437,583.50416 344.521876,559.295805 318.773445,518.758554 C309.530943,504.198953 290.233435,499.867298 275.664625,509.140499 C261.105024,518.383001 256.793835,537.689719 266.04657,552.249319 C303.319475,610.934906 365.598914,645.970864 432.646959,645.970864 C501.799945,645.970864 564.785465,610.791644 601.124092,551.872743 C610.173189,537.181135 605.618453,517.944002 590.936055,508.885695 Z" id="Shape"></path>
            <path d="M348.701059,337.200498 C353.973133,337.200498 359.320931,335.85792 364.221544,333.041782 C387.611254,319.621121 410.2386,312.808972 431.473227,312.808972 C456.433712,312.808972 480.815005,319.651821 501.983117,332.60483 C516.69519,341.602761 535.926184,336.976394 544.925138,322.254088 C553.923069,307.542015 549.296702,288.316138 534.584629,279.307973 C503.594824,260.356342 467.942836,250.341244 431.473227,250.341244 C399.19201,250.341244 366.097264,259.938833 333.120198,278.871021 C318.164578,287.452467 312.993812,306.546337 321.580374,321.501957 C327.354891,331.568221 337.877549,337.200498 348.701059,337.200498 Z" id="Shape"></path>
        </g>
    </g>
</svg>