<svg width="135" height="135" viewBox="0 0 135 135" fill="none" xmlns="http://www.w3.org/2000/svg">
<path d="M64.8003 29.897V56.0167C64.8003 57.6807 66.0181 58.9136 67.6973 58.9136C69.2789 58.9136 70.5455 57.6807 70.5455 56.0167V29.897C70.5455 28.2329 69.2789 27 67.6973 27C66.0181 27 64.8003 28.2329 64.8003 29.897ZM41.5957 95.4986H93.7164C105.142 95.4986 113.312 88.44 113.312 77.4981C113.312 66.5562 105.142 59.4825 93.7164 59.4825H82.5396L77.773 64.9092H93.7164C101.795 64.9092 107.867 69.8878 107.867 77.4981C107.867 85.1085 101.795 90.087 93.7164 90.087H41.5957C33.4834 90.087 27.4268 85.1085 27.4268 77.4981C27.4268 69.8878 33.4834 64.9092 41.5957 64.9092H57.5054L52.7388 59.4825H41.5957C30.1856 59.4825 22 66.5562 22 77.4981C22 88.44 30.1856 95.4986 41.5957 95.4986ZM41.5957 108.053H93.7164C105.598 108.053 113.312 99.9923 113.312 87.5499V77.4981H107.867V87.5499C107.867 96.6422 102.267 102.626 93.7164 102.626H41.5957C33.0269 102.626 27.4268 96.6422 27.4268 87.5499V77.4981H22V87.5499C22 99.9923 29.7139 108.053 41.5957 108.053ZM77.6167 50.2037H57.6768C54.8272 50.2037 53.6314 53.0987 55.5059 55.2022L65.4239 66.5796C66.6954 68.0313 68.5342 68.0616 69.8545 66.5796L79.7725 55.2022C81.5948 53.1661 80.5523 50.2037 77.6167 50.2037Z" fill="black"/>
</svg>
