<?xml version="1.0" encoding="UTF-8"?>
<!--Generator: Apple Native CoreSVG 123-->
<!DOCTYPE svg
PUBLIC "-//W3C//DTD SVG 1.1//EN"
       "http://www.w3.org/Graphics/SVG/1.1/DTD/svg11.dtd">
<svg version="1.1" xmlns="http://www.w3.org/2000/svg" xmlns:xlink="http://www.w3.org/1999/xlink" width="3300" height="2200">
 <!--glyph: "uni10014C.medium", point size: 100.000000, font version: "Version 15.0d4e20", template writer version: "2"-->
 <g id="Notes">
  <rect height="2200" id="artboard" style="fill:white;opacity:1" width="3300" x="0" y="0"/>
  <line id="" style="fill:none;stroke:black;opacity:1;stroke-width:0.5;" x1="263" x2="3036" y1="292" y2="292"/>
  <text style="stroke:none;fill:black;font-family:-apple-system,&quot;SF Pro Display&quot;,&quot;SF Pro Text&quot;,Helvetica,sans-serif;font-weight:bold;" transform="matrix(1 0 0 1 263 322)">Weight/Scale Variations</text>
  <text style="stroke:none;fill:black;font-family:-apple-system,&quot;SF Pro Display&quot;,&quot;SF Pro Text&quot;,Helvetica,sans-serif;text-anchor:middle;" transform="matrix(1 0 0 1 559.711 322)">Ultralight</text>
  <text style="stroke:none;fill:black;font-family:-apple-system,&quot;SF Pro Display&quot;,&quot;SF Pro Text&quot;,Helvetica,sans-serif;text-anchor:middle;" transform="matrix(1 0 0 1 856.422 322)">Thin</text>
  <text style="stroke:none;fill:black;font-family:-apple-system,&quot;SF Pro Display&quot;,&quot;SF Pro Text&quot;,Helvetica,sans-serif;text-anchor:middle;" transform="matrix(1 0 0 1 1153.13 322)">Light</text>
  <text style="stroke:none;fill:black;font-family:-apple-system,&quot;SF Pro Display&quot;,&quot;SF Pro Text&quot;,Helvetica,sans-serif;text-anchor:middle;" transform="matrix(1 0 0 1 1449.84 322)">Regular</text>
  <text style="stroke:none;fill:black;font-family:-apple-system,&quot;SF Pro Display&quot;,&quot;SF Pro Text&quot;,Helvetica,sans-serif;text-anchor:middle;" transform="matrix(1 0 0 1 1746.56 322)">Medium</text>
  <text style="stroke:none;fill:black;font-family:-apple-system,&quot;SF Pro Display&quot;,&quot;SF Pro Text&quot;,Helvetica,sans-serif;text-anchor:middle;" transform="matrix(1 0 0 1 2043.27 322)">Semibold</text>
  <text style="stroke:none;fill:black;font-family:-apple-system,&quot;SF Pro Display&quot;,&quot;SF Pro Text&quot;,Helvetica,sans-serif;text-anchor:middle;" transform="matrix(1 0 0 1 2339.98 322)">Bold</text>
  <text style="stroke:none;fill:black;font-family:-apple-system,&quot;SF Pro Display&quot;,&quot;SF Pro Text&quot;,Helvetica,sans-serif;text-anchor:middle;" transform="matrix(1 0 0 1 2636.69 322)">Heavy</text>
  <text style="stroke:none;fill:black;font-family:-apple-system,&quot;SF Pro Display&quot;,&quot;SF Pro Text&quot;,Helvetica,sans-serif;text-anchor:middle;" transform="matrix(1 0 0 1 2933.4 322)">Black</text>
  <line id="" style="fill:none;stroke:black;opacity:1;stroke-width:0.5;" x1="263" x2="3036" y1="1903" y2="1903"/>
  <g id="" transform="matrix(1 0 0 1 263 1933)">
   <path d="M 9.24805 0.830078 C 13.5547 0.830078 17.1387 -2.74414 17.1387 -7.05078 C 17.1387 -11.3574 13.5449 -14.9316 9.23828 -14.9316 C 4.94141 -14.9316 1.36719 -11.3574 1.36719 -7.05078 C 1.36719 -2.74414 4.95117 0.830078 9.24805 0.830078 Z M 9.24805 -0.654297 C 5.70312 -0.654297 2.87109 -3.49609 2.87109 -7.05078 C 2.87109 -10.6055 5.69336 -13.4473 9.23828 -13.4473 C 12.793 -13.4473 15.6348 -10.6055 15.6445 -7.05078 C 15.6543 -3.49609 12.8027 -0.654297 9.24805 -0.654297 Z M 9.22852 -3.42773 C 9.69727 -3.42773 9.9707 -3.74023 9.9707 -4.25781 L 9.9707 -6.31836 L 12.1973 -6.31836 C 12.6953 -6.31836 13.0371 -6.57227 13.0371 -7.04102 C 13.0371 -7.51953 12.7148 -7.7832 12.1973 -7.7832 L 9.9707 -7.7832 L 9.9707 -10.0098 C 9.9707 -10.5273 9.69727 -10.8496 9.22852 -10.8496 C 8.75977 -10.8496 8.50586 -10.5078 8.50586 -10.0098 L 8.50586 -7.7832 L 6.29883 -7.7832 C 5.78125 -7.7832 5.44922 -7.51953 5.44922 -7.04102 C 5.44922 -6.57227 5.80078 -6.31836 6.29883 -6.31836 L 8.50586 -6.31836 L 8.50586 -4.25781 C 8.50586 -3.75977 8.75977 -3.42773 9.22852 -3.42773 Z"/>
  </g>
  <g id="" transform="matrix(1 0 0 1 281.506 1933)">
   <path d="M 11.709 2.91016 C 17.1484 2.91016 21.6699 -1.60156 21.6699 -7.05078 C 21.6699 -12.4902 17.1387 -17.0117 11.6992 -17.0117 C 6.25 -17.0117 1.74805 -12.4902 1.74805 -7.05078 C 1.74805 -1.60156 6.25977 2.91016 11.709 2.91016 Z M 11.709 1.25 C 7.09961 1.25 3.41797 -2.44141 3.41797 -7.05078 C 3.41797 -11.6504 7.08984 -15.3516 11.6992 -15.3516 C 16.2988 -15.3516 20 -11.6504 20.0098 -7.05078 C 20.0195 -2.44141 16.3086 1.25 11.709 1.25 Z M 11.6797 -2.41211 C 12.207 -2.41211 12.5195 -2.77344 12.5195 -3.33984 L 12.5195 -6.23047 L 15.5762 -6.23047 C 16.123 -6.23047 16.5039 -6.51367 16.5039 -7.03125 C 16.5039 -7.55859 16.1426 -7.86133 15.5762 -7.86133 L 12.5195 -7.86133 L 12.5195 -10.9277 C 12.5195 -11.5039 12.207 -11.8555 11.6797 -11.8555 C 11.1621 -11.8555 10.8789 -11.4844 10.8789 -10.9277 L 10.8789 -7.86133 L 7.83203 -7.86133 C 7.25586 -7.86133 6.89453 -7.55859 6.89453 -7.03125 C 6.89453 -6.51367 7.28516 -6.23047 7.83203 -6.23047 L 10.8789 -6.23047 L 10.8789 -3.33984 C 10.8789 -2.79297 11.1621 -2.41211 11.6797 -2.41211 Z"/>
  </g>
  <g id="" transform="matrix(1 0 0 1 304.914 1933)">
   <path d="M 14.9707 5.67383 C 21.9336 5.67383 27.6855 -0.078125 27.6855 -7.04102 C 27.6855 -14.0039 21.9238 -19.7559 14.9609 -19.7559 C 7.99805 -19.7559 2.25586 -14.0039 2.25586 -7.04102 C 2.25586 -0.078125 8.00781 5.67383 14.9707 5.67383 Z M 14.9707 3.85742 C 8.92578 3.85742 4.08203 -1.00586 4.08203 -7.04102 C 4.08203 -13.0762 8.91602 -17.9395 14.9609 -17.9395 C 20.9961 -17.9395 25.8594 -13.0762 25.8691 -7.04102 C 25.8789 -1.00586 21.0059 3.85742 14.9707 3.85742 Z M 14.9414 -1.06445 C 15.5176 -1.06445 15.8594 -1.45508 15.8594 -2.06055 L 15.8594 -6.13281 L 20.0977 -6.13281 C 20.6934 -6.13281 21.1133 -6.46484 21.1133 -7.02148 C 21.1133 -7.59766 20.7227 -7.93945 20.0977 -7.93945 L 15.8594 -7.93945 L 15.8594 -12.1875 C 15.8594 -12.8027 15.5176 -13.1934 14.9414 -13.1934 C 14.3848 -13.1934 14.0625 -12.7832 14.0625 -12.1875 L 14.0625 -7.93945 L 9.82422 -7.93945 C 9.20898 -7.93945 8.80859 -7.59766 8.80859 -7.02148 C 8.80859 -6.46484 9.23828 -6.13281 9.82422 -6.13281 L 14.0625 -6.13281 L 14.0625 -2.06055 C 14.0625 -1.47461 14.3848 -1.06445 14.9414 -1.06445 Z"/>
  </g>
  <text style="stroke:none;fill:black;font-family:-apple-system,&quot;SF Pro Display&quot;,&quot;SF Pro Text&quot;,Helvetica,sans-serif;font-weight:bold;" transform="matrix(1 0 0 1 263 1953)">Design Variations</text>
  <text style="stroke:none;fill:black;font-family:-apple-system,&quot;SF Pro Display&quot;,&quot;SF Pro Text&quot;,Helvetica,sans-serif;" transform="matrix(1 0 0 1 263 1971)">Symbols are supported in up to nine weights and three scales.</text>
  <text style="stroke:none;fill:black;font-family:-apple-system,&quot;SF Pro Display&quot;,&quot;SF Pro Text&quot;,Helvetica,sans-serif;" transform="matrix(1 0 0 1 263 1989)">For optimal layout with text and other symbols, vertically align</text>
  <text style="stroke:none;fill:black;font-family:-apple-system,&quot;SF Pro Display&quot;,&quot;SF Pro Text&quot;,Helvetica,sans-serif;" transform="matrix(1 0 0 1 263 2007)">symbols with the adjacent text.</text>
  <rect height="14" id="" style="fill:#00AEEF;stroke:none;opacity:0.4;" width="3" x="776" y="1919"/>
  <g id="" transform="matrix(1 0 0 1 779 1933)">
   <path d="M 10.5273 0 L 12.373 0 L 7.17773 -14.0918 L 5.43945 -14.0918 L 0.244141 0 L 2.08984 0 L 3.50586 -4.0332 L 9.11133 -4.0332 Z M 6.2793 -11.9531 L 6.33789 -11.9531 L 8.59375 -5.52734 L 4.02344 -5.52734 Z"/>
  </g>
  <rect height="14" id="" style="fill:#00AEEF;stroke:none;opacity:0.4;" width="3" x="791.617" y="1919"/>
  <text style="stroke:none;fill:black;font-family:-apple-system,&quot;SF Pro Display&quot;,&quot;SF Pro Text&quot;,Helvetica,sans-serif;font-weight:bold;" transform="matrix(1 0 0 1 776 1953)">Side Bearings</text>
  <text style="stroke:none;fill:black;font-family:-apple-system,&quot;SF Pro Display&quot;,&quot;SF Pro Text&quot;,Helvetica,sans-serif;" transform="matrix(1 0 0 1 776 1971)">Horizontal padding on the left and right side of each symbol</text>
  <text style="stroke:none;fill:black;font-family:-apple-system,&quot;SF Pro Display&quot;,&quot;SF Pro Text&quot;,Helvetica,sans-serif;" transform="matrix(1 0 0 1 776 1989)">can be adjusted by modifying the width of the blue rectangles.</text>
  <text style="stroke:none;fill:black;font-family:-apple-system,&quot;SF Pro Display&quot;,&quot;SF Pro Text&quot;,Helvetica,sans-serif;" transform="matrix(1 0 0 1 776 2007)">Modifications are automatically applied proportionally to all</text>
  <text style="stroke:none;fill:black;font-family:-apple-system,&quot;SF Pro Display&quot;,&quot;SF Pro Text&quot;,Helvetica,sans-serif;" transform="matrix(1 0 0 1 776 2025)">scales and weights.</text>
  <g id="" transform="matrix(1 0 0 1 1289 1933)">
   <path d="M 2.96875 2.35352 L 3.80859 3.19336 C 4.84375 4.22852 6.12305 4.15039 7.19727 2.97852 L 16.1621 -6.82617 C 16.5527 -6.74805 16.9629 -6.8457 17.4902 -7.02148 C 18.1738 -7.25586 18.2715 -7.25586 18.3887 -7.13867 C 18.5352 -7.01172 18.4863 -6.89453 18.2422 -6.25 C 17.8809 -5.33203 17.8125 -4.79492 18.5547 -4.02344 L 19.4238 -3.13477 C 20.2734 -2.24609 21.3281 -2.26562 22.2168 -3.14453 L 25.0586 -5.97656 C 25.9473 -6.86523 25.957 -7.92969 25.0781 -8.7793 L 24.1797 -9.64844 C 23.4082 -10.4004 22.8711 -10.3516 21.9629 -9.98047 C 21.3184 -9.72656 21.2012 -9.6875 21.0645 -9.81445 C 20.9375 -9.93164 20.9473 -10.0391 21.1816 -10.7129 C 21.5332 -11.6895 21.5723 -12.2852 20.752 -13.0957 L 19.3359 -14.5117 C 15.1953 -18.6133 11.2305 -18.7402 7.65625 -15.4395 C 7.08008 -14.9023 6.99219 -14.1504 7.53906 -13.6133 L 7.79297 -13.3594 C 8.22266 -12.9297 8.86719 -12.8418 9.41406 -13.1152 C 11.0645 -13.9453 12.2559 -14.0234 13.457 -12.9785 L 13.0273 -11.416 C 12.8516 -10.8008 12.793 -10.3418 12.9199 -9.93164 L 3.18359 -1.04492 C 2.02148 0.0292969 1.93359 1.32812 2.96875 2.35352 Z M 8.96484 -14.4922 C 8.89648 -14.5703 8.86719 -14.6582 8.99414 -14.7559 C 11.709 -17.2852 15.0391 -16.8457 18.3496 -13.5254 L 19.6973 -12.168 C 20.0879 -11.7773 20.0977 -11.582 19.8828 -10.8691 C 19.6582 -10.127 19.502 -9.53125 20.1465 -8.88672 C 20.8105 -8.22266 21.2891 -8.41797 22.207 -8.63281 C 22.9004 -8.79883 23.0664 -8.79883 23.4473 -8.41797 L 24.0918 -7.77344 C 24.4043 -7.48047 24.4141 -7.32422 24.0723 -6.97266 L 21.2207 -4.13086 C 20.8887 -3.79883 20.7227 -3.79883 20.4297 -4.10156 L 19.7852 -4.75586 C 19.4141 -5.13672 19.4141 -5.30273 19.5801 -6.01562 C 19.7852 -6.88477 19.9805 -7.38281 19.3262 -8.04688 C 18.6719 -8.7207 18.0762 -8.57422 17.3438 -8.33008 C 16.5625 -8.06641 16.3281 -8.06641 15.8984 -8.49609 L 14.6094 -9.78516 C 14.1699 -10.2246 14.1309 -10.4395 14.2676 -10.9082 L 15.0293 -13.3984 C 13.3887 -15.2832 11.4941 -15.5566 9.20898 -14.4434 C 9.11133 -14.3945 9.04297 -14.4141 8.96484 -14.4922 Z M 3.96484 1.36719 C 3.52539 0.927734 3.54492 0.537109 4.14062 -0.00976562 L 13.7402 -8.81836 L 15 -7.55859 L 6.17188 2.02148 C 5.625 2.60742 5.24414 2.64648 4.79492 2.19727 Z"/>
  </g>
  <text style="stroke:none;fill:black;font-family:-apple-system,&quot;SF Pro Display&quot;,&quot;SF Pro Text&quot;,Helvetica,sans-serif;font-weight:bold;" transform="matrix(1 0 0 1 1289 1953)">Exporting</text>
  <text style="stroke:none;fill:black;font-family:-apple-system,&quot;SF Pro Display&quot;,&quot;SF Pro Text&quot;,Helvetica,sans-serif;" transform="matrix(1 0 0 1 1289 1971)">Symbols should be outlined when exporting to ensure the</text>
  <text style="stroke:none;fill:black;font-family:-apple-system,&quot;SF Pro Display&quot;,&quot;SF Pro Text&quot;,Helvetica,sans-serif;" transform="matrix(1 0 0 1 1289 1989)">design is preserved when submitting to Xcode.</text>
  <text id="template-version" style="stroke:none;fill:black;font-family:-apple-system,&quot;SF Pro Display&quot;,&quot;SF Pro Text&quot;,Helvetica,sans-serif;text-anchor:end;" transform="matrix(1 0 0 1 3036 1933)">Template v.0.1</text>
  <text style="stroke:none;fill:black;font-family:-apple-system,&quot;SF Pro Display&quot;,&quot;SF Pro Text&quot;,Helvetica,sans-serif;text-anchor:end;" transform="matrix(1 0 0 1 3036 1951)">Generated from arrow.2.squarepath</text>
  <text style="stroke:none;fill:black;font-family:-apple-system,&quot;SF Pro Display&quot;,&quot;SF Pro Text&quot;,Helvetica,sans-serif;text-anchor:end;" transform="matrix(1 0 0 1 3036 1969)">Typeset at 100 points</text>
  <text style="stroke:none;fill:black;font-family:-apple-system,&quot;SF Pro Display&quot;,&quot;SF Pro Text&quot;,Helvetica,sans-serif;" transform="matrix(1 0 0 1 263 726)">Small</text>
  <text style="stroke:none;fill:black;font-family:-apple-system,&quot;SF Pro Display&quot;,&quot;SF Pro Text&quot;,Helvetica,sans-serif;" transform="matrix(1 0 0 1 263 1156)">Medium</text>
  <text style="stroke:none;fill:black;font-family:-apple-system,&quot;SF Pro Display&quot;,&quot;SF Pro Text&quot;,Helvetica,sans-serif;" transform="matrix(1 0 0 1 263 1586)">Large</text>
 </g>
 <g id="Guides">
  <g id="H-reference" style="fill:#27AAE1;stroke:none;" transform="matrix(1 0 0 1 339 696)">
   <path d="M 54.9316 0 L 57.666 0 L 30.5664 -70.459 L 28.0762 -70.459 L 0.976562 0 L 3.66211 0 L 12.9395 -24.4629 L 45.7031 -24.4629 Z M 29.1992 -67.0898 L 29.4434 -67.0898 L 44.8242 -26.709 L 13.8184 -26.709 Z"/>
  </g>
  <line id="Baseline-S" style="fill:none;stroke:#27AAE1;opacity:1;stroke-width:0.577;" x1="263" x2="3036" y1="696" y2="696"/>
  <line id="Capline-S" style="fill:none;stroke:#27AAE1;opacity:1;stroke-width:0.577;" x1="263" x2="3036" y1="625.541" y2="625.541"/>
  <g id="H-reference" style="fill:#27AAE1;stroke:none;" transform="matrix(1 0 0 1 339 1126)">
   <path d="M 54.9316 0 L 57.666 0 L 30.5664 -70.459 L 28.0762 -70.459 L 0.976562 0 L 3.66211 0 L 12.9395 -24.4629 L 45.7031 -24.4629 Z M 29.1992 -67.0898 L 29.4434 -67.0898 L 44.8242 -26.709 L 13.8184 -26.709 Z"/>
  </g>
  <line id="Baseline-M" style="fill:none;stroke:#27AAE1;opacity:1;stroke-width:0.577;" x1="263" x2="3036" y1="1126" y2="1126"/>
  <line id="Capline-M" style="fill:none;stroke:#27AAE1;opacity:1;stroke-width:0.577;" x1="263" x2="3036" y1="1055.54" y2="1055.54"/>
  <g id="H-reference" style="fill:#27AAE1;stroke:none;" transform="matrix(1 0 0 1 339 1556)">
   <path d="M 54.9316 0 L 57.666 0 L 30.5664 -70.459 L 28.0762 -70.459 L 0.976562 0 L 3.66211 0 L 12.9395 -24.4629 L 45.7031 -24.4629 Z M 29.1992 -67.0898 L 29.4434 -67.0898 L 44.8242 -26.709 L 13.8184 -26.709 Z"/>
  </g>
  <line id="Baseline-L" style="fill:none;stroke:#27AAE1;opacity:1;stroke-width:0.577;" x1="263" x2="3036" y1="1556" y2="1556"/>
  <line id="Capline-L" style="fill:none;stroke:#27AAE1;opacity:1;stroke-width:0.577;" x1="263" x2="3036" y1="1485.54" y2="1485.54"/>
  <rect height="119.336" id="left-margin" style="fill:#00AEEF;stroke:none;opacity:0.4;" width="12.4742" x="1386" y="1030.79"/>
  <rect height="119.336" id="right-margin" style="fill:#00AEEF;stroke:none;opacity:0.4;" width="12.4742" x="1501.21" y="1030.79"/>
 </g>
 <g id="Symbols">
  <g id="Ultralight-S" transform="matrix(1 0 0 1 511.445 696)">
   <path d="M 76.6113 -7.91016 C 77.4902 -6.83594 78.8086 -6.83594 79.7363 -7.91016 L 86.2793 -16.0645 C 87.1582 -17.1875 86.7676 -18.8477 85.1074 -18.8477 L 79.248 -18.8477 L 79.248 -58.7891 C 79.248 -65.2344 75.8301 -68.75 69.2871 -68.75 L 33.1543 -68.75 C 32.5195 -68.75 32.0312 -68.2617 32.0312 -67.6758 C 32.0801 -67.041 32.5195 -66.5527 33.1543 -66.5527 L 69.1895 -66.5527 C 74.1699 -66.5527 77.0508 -63.8672 77.0508 -58.6914 L 77.0508 -18.8477 L 71.1914 -18.8477 C 69.5312 -18.8477 69.1406 -17.1875 70.0195 -16.0645 Z M 27.2461 -1.5625 L 68.4082 -1.5625 C 69.043 -1.5625 69.5312 -2.05078 69.5312 -2.68555 C 69.5312 -3.27148 69.043 -3.75977 68.4082 -3.75977 L 27.3438 -3.75977 C 22.168 -3.75977 19.4336 -6.44531 19.4336 -11.6699 L 19.4336 -52.6367 L 25.293 -52.6367 C 26.9531 -52.6367 27.3438 -54.2969 26.4648 -55.3711 L 19.9219 -63.5742 C 18.9941 -64.6484 17.6758 -64.6484 16.7969 -63.5742 L 10.2051 -55.3711 C 9.32617 -54.2969 9.7168 -52.6367 11.377 -52.6367 L 17.2363 -52.6367 L 17.2363 -11.5234 C 17.2363 -5.0293 20.7031 -1.5625 27.2461 -1.5625 Z"/>
  </g>
  <g id="Thin-S" transform="matrix(1 0 0 1 807.667 696)">
   <path d="M 76.5625 -8.00781 C 77.7344 -6.54297 79.3457 -6.54297 80.5176 -8.00781 L 87.207 -16.4062 C 88.2324 -17.7246 87.6953 -19.6289 85.791 -19.6289 L 80.1758 -19.6289 L 80.1758 -58.6426 C 80.1758 -65.5273 76.6113 -69.2383 69.6777 -69.2383 L 34.9609 -69.2383 C 33.9355 -69.2383 33.2031 -68.5547 33.2031 -67.5781 C 33.252 -66.5527 33.9355 -65.918 34.9609 -65.918 L 69.5312 -65.918 C 74.2188 -65.918 76.9043 -63.3789 76.9043 -58.5449 L 76.9043 -19.6289 L 71.2891 -19.6289 C 69.3848 -19.6289 68.8477 -17.7246 69.873 -16.4062 Z M 27.832 -1.12305 L 66.5039 -1.12305 C 67.5781 -1.12305 68.2617 -1.75781 68.2617 -2.7832 C 68.2617 -3.75977 67.5781 -4.44336 66.5039 -4.44336 L 27.9297 -4.44336 C 23.1445 -4.44336 20.6055 -6.93359 20.6055 -11.8164 L 20.6055 -51.6113 L 26.1719 -51.6113 C 28.0762 -51.6113 28.6621 -53.5156 27.5879 -54.834 L 20.8984 -63.2324 C 19.7266 -64.6973 18.1641 -64.6973 16.9922 -63.2324 L 10.3027 -54.834 C 9.22852 -53.5156 9.81445 -51.6113 11.7188 -51.6113 L 17.2852 -51.6113 L 17.2852 -11.6211 C 17.2852 -4.6875 20.8984 -1.12305 27.832 -1.12305 Z"/>
  </g>
  <g id="Light-S" transform="matrix(1 0 0 1 1103.45 696)">
   <path d="M 76.5625 -8.1543 C 78.2227 -6.05469 80.3223 -6.05469 81.9824 -8.1543 L 88.9648 -17.041 C 90.3809 -18.7988 89.4043 -21.1914 87.0605 -21.1914 L 81.9824 -21.1914 L 81.9824 -58.4961 C 81.9824 -66.1621 78.125 -70.1172 70.5078 -70.1172 L 38.4766 -70.1172 C 36.5723 -70.1172 35.4492 -69.0918 35.498 -67.3828 C 35.498 -65.6738 36.5723 -64.6973 38.4766 -64.6973 L 70.2148 -64.6973 C 74.3164 -64.6973 76.5625 -62.4512 76.5625 -58.3984 L 76.5625 -21.1914 L 71.4844 -21.1914 C 69.1406 -21.1914 68.2129 -18.7988 69.5801 -17.041 Z M 29.0039 -0.292969 L 62.793 -0.292969 C 64.6973 -0.292969 65.8203 -1.26953 65.7715 -2.97852 C 65.7715 -4.6875 64.6973 -5.71289 62.793 -5.71289 L 29.1016 -5.71289 C 25.0488 -5.71289 22.8027 -7.86133 22.8027 -12.0605 L 22.8027 -49.5605 L 27.9297 -49.5605 C 30.2246 -49.5605 31.2012 -51.9531 29.7852 -53.7598 L 22.8516 -62.5977 C 21.1426 -64.7461 19.043 -64.7461 17.3828 -62.5977 L 10.4492 -53.7598 C 9.0332 -51.9531 9.96094 -49.5605 12.3047 -49.5605 L 17.3828 -49.5605 L 17.3828 -11.7676 C 17.3828 -4.15039 21.3379 -0.292969 29.0039 -0.292969 Z"/>
  </g>
  <g id="Regular-S" transform="matrix(1 0 0 1 1399.43 696)">
   <path d="M 76.5137 -8.30078 C 78.6133 -5.61523 81.0547 -5.61523 83.1543 -8.30078 L 90.2832 -17.4805 C 91.9434 -19.6289 90.7227 -22.4121 88.0371 -22.4121 L 83.3496 -22.4121 L 83.3496 -58.3496 C 83.3496 -66.6504 79.2969 -70.8008 71.0938 -70.8008 L 41.1133 -70.8008 C 38.623 -70.8008 37.1582 -69.5312 37.207 -67.2363 C 37.2559 -64.9902 38.623 -63.7207 41.1133 -63.7207 L 70.7031 -63.7207 C 74.4141 -63.7207 76.3184 -61.7676 76.3184 -58.252 L 76.3184 -22.4121 L 71.6309 -22.4121 C 68.9453 -22.4121 67.7246 -19.6289 69.3848 -17.4805 Z M 29.9316 0.390625 L 59.9609 0.390625 C 62.5 0.390625 63.9648 -0.878906 63.916 -3.125 C 63.8672 -5.37109 62.5 -6.68945 59.9609 -6.68945 L 30.0293 -6.68945 C 26.5137 -6.68945 24.5117 -8.54492 24.5117 -12.2559 L 24.5117 -48.0469 L 29.1992 -48.0469 C 31.8848 -48.0469 33.1055 -50.7812 31.4453 -52.9297 L 24.3164 -62.1582 C 22.2168 -64.7949 19.7754 -64.7949 17.6758 -62.1582 L 10.5469 -52.9297 C 8.88672 -50.7812 10.1074 -48.0469 12.7441 -48.0469 L 17.4805 -48.0469 L 17.4805 -11.9141 C 17.4805 -3.71094 21.6309 0.390625 29.9316 0.390625 Z"/>
  </g>
  <g id="Medium-S" transform="matrix(1 0 0 1 1694.82 696)">
   <path d="M 77.6367 -7.66602 C 79.7363 -5.0293 82.4219 -5.0293 84.5215 -7.66602 L 92.7734 -18.1152 C 94.6777 -20.5566 93.457 -23.584 90.4785 -23.584 L 85.4004 -23.584 L 85.4004 -58.3008 C 85.4004 -66.8945 80.957 -71.3867 72.4609 -71.3867 L 43.8965 -71.3867 C 41.0156 -71.3867 39.209 -69.6777 39.2578 -67.041 C 39.2578 -64.3555 41.0156 -62.6953 43.8965 -62.6953 L 71.6797 -62.6953 C 75 -62.6953 76.7578 -60.9375 76.7578 -57.666 L 76.7578 -23.584 L 71.6797 -23.584 C 68.75 -23.584 67.4805 -20.5566 69.3848 -18.1152 Z M 31.1523 0.976562 L 59.7656 0.976562 C 62.6465 0.976562 64.4531 -0.683594 64.4531 -3.36914 C 64.4043 -6.05469 62.6465 -7.71484 59.7656 -7.71484 L 31.7383 -7.71484 C 28.5156 -7.71484 26.709 -9.375 26.709 -12.793 L 26.709 -46.875 L 31.7871 -46.875 C 34.7168 -46.875 35.9863 -49.8535 34.0332 -52.2949 L 25.8301 -62.7441 C 23.6816 -65.3809 21.0449 -65.3809 18.9453 -62.7441 L 10.6934 -52.2949 C 8.78906 -49.8535 10.0098 -46.875 12.9883 -46.875 L 18.0664 -46.875 L 18.0664 -11.9629 C 18.0664 -3.4668 22.5586 0.976562 31.1523 0.976562 Z"/>
  </g>
  <g id="Semibold-S" transform="matrix(1 0 0 1 1990.53 696)">
   <path d="M 78.5156 -7.22656 C 80.6641 -4.54102 83.4473 -4.58984 85.5469 -7.22656 L 94.6289 -18.6035 C 96.7285 -21.2402 95.5078 -24.4629 92.334 -24.4629 L 86.9629 -24.4629 L 86.9629 -58.252 C 86.9629 -67.0898 82.2754 -71.8262 73.5352 -71.8262 L 46.0449 -71.8262 C 42.8711 -71.8262 40.7715 -69.8242 40.8203 -66.8457 C 40.8203 -63.8672 42.8711 -61.9141 46.0449 -61.9141 L 72.3633 -61.9141 C 75.4883 -61.9141 77.0508 -60.3516 77.0508 -57.2754 L 77.0508 -24.4629 L 71.7285 -24.4629 C 68.6035 -24.4629 67.2852 -21.2891 69.4336 -18.6035 Z M 32.0312 1.41602 L 59.6191 1.41602 C 62.793 1.41602 64.8926 -0.537109 64.8438 -3.56445 C 64.8438 -6.54297 62.793 -8.49609 59.6191 -8.49609 L 33.0078 -8.49609 C 30.0293 -8.49609 28.3691 -10.0098 28.3691 -13.1836 L 28.3691 -45.9473 L 33.7402 -45.9473 C 36.8652 -45.9473 38.1836 -49.1211 36.0352 -51.8066 L 26.9531 -63.1836 C 24.8047 -65.8691 22.0215 -65.8203 19.9219 -63.1836 L 10.8398 -51.8066 C 8.74023 -49.1211 9.96094 -45.9473 13.1348 -45.9473 L 18.5059 -45.9473 L 18.5059 -12.0605 C 18.5059 -3.32031 23.2422 1.41602 32.0312 1.41602 Z"/>
  </g>
  <g id="Bold-S" transform="matrix(1 0 0 1 2285.93 696)">
   <path d="M 79.6387 -6.5918 C 81.8359 -3.90625 84.7656 -3.95508 86.9141 -6.5918 L 97.1191 -19.2383 C 99.5117 -22.2168 98.2422 -25.6348 94.7754 -25.6348 L 89.0625 -25.6348 L 89.0625 -58.2031 C 89.0625 -67.2852 83.9844 -72.4121 74.9023 -72.4121 L 48.877 -72.4121 C 45.3125 -72.4121 42.8711 -70.0195 42.8711 -66.6016 C 42.8711 -63.1836 45.3125 -60.8398 48.877 -60.8398 L 73.3398 -60.8398 C 76.123 -60.8398 77.4902 -59.5703 77.4902 -56.7383 L 77.4902 -25.6348 L 71.8262 -25.6348 C 68.4082 -25.6348 67.041 -22.2168 69.4336 -19.2383 Z M 33.252 2.00195 L 59.4238 2.00195 C 62.9395 2.00195 65.4297 -0.341797 65.3809 -3.75977 C 65.3809 -7.22656 62.9395 -9.57031 59.4238 -9.57031 L 34.7656 -9.57031 C 32.0312 -9.57031 30.6152 -10.791 30.6152 -13.7207 L 30.6152 -44.7754 L 36.3281 -44.7754 C 39.7461 -44.7754 41.0645 -48.1445 38.6719 -51.123 L 28.4668 -63.7695 C 26.3184 -66.4551 23.3398 -66.4062 21.2402 -63.7695 L 10.9863 -51.123 C 8.64258 -48.1934 9.86328 -44.7754 13.3789 -44.7754 L 19.043 -44.7754 L 19.043 -12.1582 C 19.043 -3.07617 24.1699 2.00195 33.252 2.00195 Z"/>
  </g>
  <g id="Heavy-S" transform="matrix(1 0 0 1 2580.71 696)">
   <path d="M 81.2988 -5.71289 C 83.4961 -3.02734 86.7676 -3.125 88.8672 -5.71289 L 100.732 -20.166 C 103.467 -23.5352 102.197 -27.3438 98.291 -27.3438 L 92.0898 -27.3438 L 92.0898 -58.1055 C 92.0898 -67.627 86.4746 -73.2422 76.9531 -73.2422 L 52.9297 -73.2422 C 48.8281 -73.2422 45.8496 -70.3125 45.8496 -66.3086 C 45.8496 -62.2559 48.8281 -59.3262 52.9297 -59.3262 L 74.7559 -59.3262 C 77.0508 -59.3262 78.125 -58.3984 78.125 -55.9082 L 78.125 -27.3438 L 71.9238 -27.3438 C 68.1152 -27.3438 66.6992 -23.584 69.4824 -20.166 Z M 35.0586 2.83203 L 59.1309 2.83203 C 63.1836 2.83203 66.1621 -0.0976562 66.1621 -4.10156 C 66.1621 -8.1543 63.1836 -11.084 59.1309 -11.084 L 37.2559 -11.084 C 34.9609 -11.084 33.8379 -12.0117 33.8379 -14.502 L 33.8379 -43.0664 L 40.0879 -43.0664 C 43.8965 -43.0664 45.2637 -46.7773 42.4805 -50.1953 L 30.7129 -64.6484 C 28.4668 -67.3828 25.2441 -67.2852 23.0957 -64.6484 L 11.2793 -50.1953 C 8.49609 -46.8262 9.76562 -43.0664 13.6719 -43.0664 L 19.9219 -43.0664 L 19.9219 -12.3047 C 19.9219 -2.7832 25.5371 2.83203 35.0586 2.83203 Z"/>
  </g>
  <g id="Black-S" transform="matrix(1 0 0 1 2875.69 696)">
   <path d="M 82.7637 -4.93164 C 85.0098 -2.19727 88.5254 -2.34375 90.6738 -4.93164 L 103.955 -20.9961 C 107.031 -24.7559 105.762 -28.8574 101.465 -28.8574 L 94.7754 -28.8574 L 94.7754 -58.0566 C 94.7754 -67.9199 88.6719 -74.0234 78.7598 -74.0234 L 56.5918 -74.0234 C 52.002 -74.0234 48.5352 -70.5566 48.5352 -65.9668 C 48.5352 -61.377 52.002 -57.959 56.5918 -57.959 L 75.9766 -57.959 C 77.832 -57.959 78.7109 -57.373 78.7109 -55.2246 L 78.7109 -28.8574 L 72.0215 -28.8574 C 67.8223 -28.8574 66.3574 -24.8535 69.5312 -20.9961 Z M 36.6211 3.61328 L 58.8379 3.61328 C 63.4277 3.61328 66.8457 0.146484 66.8945 -4.44336 C 66.8945 -9.0332 63.4277 -12.4512 58.8379 -12.4512 L 39.4531 -12.4512 C 37.5488 -12.4512 36.7188 -13.0371 36.7188 -15.1855 L 36.7188 -41.5039 L 43.4082 -41.5039 C 47.6074 -41.5039 49.0234 -45.5566 45.8984 -49.3652 L 32.666 -65.4297 C 30.4199 -68.1641 26.9043 -68.0176 24.7559 -65.4297 L 11.4746 -49.3652 C 8.39844 -45.6055 9.66797 -41.5039 13.9648 -41.5039 L 20.6543 -41.5039 L 20.6543 -12.4023 C 20.6543 -2.49023 26.7578 3.61328 36.6211 3.61328 Z"/>
  </g>
  <g id="Ultralight-M" transform="matrix(1 0 0 1 498.31 1126)">
   <path d="M 97.8027 -0.341797 C 98.8281 0.927734 100.439 0.927734 101.465 -0.341797 L 109.814 -10.6934 C 110.84 -11.9629 110.4 -14.0137 108.398 -14.0137 L 100.83 -14.0137 L 100.83 -65.332 C 100.83 -73.3887 96.4844 -77.832 88.2812 -77.832 L 41.6504 -77.832 C 41.0156 -77.832 40.4785 -77.2949 40.4785 -76.6602 C 40.4785 -75.9766 41.0156 -75.4395 41.6504 -75.4395 L 88.1348 -75.4395 C 94.6777 -75.4395 98.4375 -71.9727 98.4375 -65.1855 L 98.4375 -14.0137 L 90.8691 -14.0137 C 88.8184 -14.0137 88.4277 -11.9629 89.4531 -10.6934 Z M 34.5215 7.56836 L 88.0371 7.56836 C 88.7207 7.56836 89.2578 7.03125 89.2578 6.39648 C 89.2578 5.71289 88.7207 5.17578 88.0371 5.17578 L 34.668 5.17578 C 27.8809 5.17578 24.3652 1.66016 24.3652 -5.07812 L 24.3652 -57.8613 L 31.9336 -57.8613 C 33.9844 -57.8613 34.4238 -59.9121 33.3496 -61.1816 L 25.0488 -71.4844 C 23.9746 -72.7539 22.4121 -72.7539 21.3379 -71.4844 L 13.0371 -61.1816 C 11.9629 -59.9121 12.4023 -57.8613 14.4531 -57.8613 L 21.9727 -57.8613 L 21.9727 -4.98047 C 21.9727 3.22266 26.3672 7.56836 34.5215 7.56836 Z"/>
  </g>
  <g id="Thin-M" transform="matrix(1 0 0 1 794.459 1126)">
   <path d="M 97.7539 -0.439453 C 99.1211 1.2207 100.977 1.2207 102.344 -0.439453 L 110.84 -11.0352 C 112.061 -12.5977 111.426 -14.8926 109.131 -14.8926 L 101.855 -14.8926 L 101.855 -65.1855 C 101.855 -73.7305 97.3633 -78.3691 88.7207 -78.3691 L 43.7012 -78.3691 C 42.5781 -78.3691 41.748 -77.6367 41.7969 -76.5625 C 41.7969 -75.4883 42.5781 -74.7559 43.7012 -74.7559 L 88.5254 -74.7559 C 94.7266 -74.7559 98.2422 -71.4355 98.2422 -65.0879 L 98.2422 -14.8926 L 90.9668 -14.8926 C 88.6719 -14.8926 88.0371 -12.5977 89.2578 -11.0352 Z M 35.2051 8.05664 L 85.8887 8.05664 C 87.0117 8.05664 87.793 7.32422 87.793 6.25 C 87.793 5.17578 87.0117 4.44336 85.8887 4.44336 L 35.3516 4.44336 C 29.0039 4.44336 25.6836 1.12305 25.6836 -5.22461 L 25.6836 -56.6895 L 32.959 -56.6895 C 35.2539 -56.6895 35.8887 -58.9844 34.6191 -60.5469 L 26.1719 -71.1426 C 24.8047 -72.8027 22.9004 -72.8027 21.582 -71.1426 L 13.0859 -60.5469 C 11.8652 -58.9844 12.5 -56.6895 14.7949 -56.6895 L 22.0703 -56.6895 L 22.0703 -5.0293 C 22.0703 3.56445 26.5625 8.05664 35.2051 8.05664 Z"/>
  </g>
  <g id="Light-M" transform="matrix(1 0 0 1 1090.1 1126)">
   <path d="M 97.7051 -0.634766 C 99.6582 1.80664 102.1 1.80664 104.053 -0.634766 L 112.793 -11.7188 C 114.453 -13.8184 113.379 -16.6992 110.596 -16.6992 L 103.906 -16.6992 L 103.906 -64.9902 C 103.906 -74.4629 99.0723 -79.3945 89.6484 -79.3945 L 47.6562 -79.3945 C 45.6055 -79.3945 44.3359 -78.2227 44.3359 -76.3672 C 44.3848 -74.4629 45.6055 -73.3398 47.6562 -73.3398 L 89.3066 -73.3398 C 94.8242 -73.3398 97.8516 -70.3613 97.8516 -64.8438 L 97.8516 -16.6992 L 91.1621 -16.6992 C 88.3789 -16.6992 87.3047 -13.8184 88.9648 -11.7188 Z M 36.5723 9.0332 L 81.6895 9.0332 C 83.7402 9.0332 85.0098 7.91016 85.0098 6.00586 C 84.9609 4.15039 83.7402 2.97852 81.6895 2.97852 L 36.6699 2.97852 C 31.1523 2.97852 28.2227 0.0976562 28.2227 -5.56641 L 28.2227 -54.3945 L 34.9121 -54.3945 C 37.6953 -54.3945 38.7695 -57.2266 37.1094 -59.3262 L 28.3203 -70.459 C 26.416 -72.9004 23.9746 -72.9004 22.0215 -70.459 L 13.2324 -59.3262 C 11.6211 -57.2266 12.6465 -54.3945 15.4785 -54.3945 L 22.168 -54.3945 L 22.168 -5.22461 C 22.168 4.19922 27.0508 9.0332 36.5723 9.0332 Z"/>
  </g>
  <g id="Regular-M" transform="matrix(1 0 0 1 1386 1126)">
   <path d="M 97.7051 -0.732422 C 100.049 2.24609 102.979 2.24609 105.322 -0.732422 L 114.307 -12.2559 C 116.26 -14.7461 114.893 -18.0176 111.719 -18.0176 L 105.42 -18.0176 L 105.42 -64.7949 C 105.42 -75 100.391 -80.127 90.332 -80.127 L 50.6348 -80.127 C 47.8516 -80.127 46.2402 -78.7109 46.2891 -76.2207 C 46.3379 -73.7305 47.8516 -72.2656 50.6348 -72.2656 L 89.8926 -72.2656 C 94.9219 -72.2656 97.5586 -69.5801 97.5586 -64.6973 L 97.5586 -18.0176 L 91.3086 -18.0176 C 88.1348 -18.0176 86.7676 -14.7461 88.7207 -12.2559 Z M 37.5488 9.76562 L 78.5156 9.76562 C 81.2988 9.76562 82.9102 8.34961 82.8613 5.85938 C 82.8125 3.32031 81.2988 1.9043 78.5156 1.9043 L 37.6953 1.9043 C 32.8125 1.9043 30.127 -0.683594 30.127 -5.76172 L 30.127 -52.6367 L 36.377 -52.6367 C 39.5508 -52.6367 40.918 -55.9082 38.9648 -58.3984 L 29.9805 -69.9219 C 27.6367 -72.9492 24.707 -72.9492 22.3633 -69.9219 L 13.3789 -58.3984 C 11.4258 -55.9082 12.793 -52.6367 15.9668 -52.6367 L 22.2656 -52.6367 L 22.2656 -5.37109 C 22.2656 4.73633 27.3926 9.76562 37.5488 9.76562 Z"/>
  </g>
  <g id="Medium-M" transform="matrix(1 0 0 1 1681.27 1126)">
   <path d="M 98.8281 -0.146484 C 101.318 2.92969 104.443 2.92969 106.885 -0.146484 L 116.992 -12.9883 C 119.238 -15.8203 117.822 -19.3848 114.307 -19.3848 L 107.715 -19.3848 L 107.715 -64.7461 C 107.715 -75.293 102.295 -80.8105 91.7969 -80.8105 L 53.8574 -80.8105 C 50.5859 -80.8105 48.584 -78.9551 48.584 -75.9766 C 48.6328 -72.9492 50.5859 -71.0938 53.8574 -71.0938 L 90.918 -71.0938 C 95.5566 -71.0938 97.998 -68.6523 97.998 -64.1113 L 97.998 -19.3848 L 91.4062 -19.3848 C 87.8906 -19.3848 86.4746 -15.8203 88.7207 -12.9883 Z M 38.916 10.4492 L 77.9297 10.4492 C 81.1523 10.4492 83.2031 8.59375 83.1543 5.56641 C 83.1543 2.58789 81.1523 0.732422 77.9297 0.732422 L 39.5508 0.732422 C 35.0586 0.732422 32.5684 -1.61133 32.5684 -6.34766 L 32.5684 -51.2207 L 39.1602 -51.2207 C 42.6758 -51.2207 44.0918 -54.7852 41.8457 -57.6172 L 31.7383 -70.459 C 29.248 -73.5352 26.123 -73.5352 23.6816 -70.459 L 13.5742 -57.6172 C 11.3281 -54.7852 12.7441 -51.2207 16.2598 -51.2207 L 22.8516 -51.2207 L 22.8516 -5.46875 C 22.8516 4.98047 28.3691 10.4492 38.916 10.4492 Z"/>
  </g>
  <g id="Semibold-M" transform="matrix(1 0 0 1 1976.88 1126)">
   <path d="M 99.707 0.292969 C 102.246 3.4668 105.566 3.41797 108.057 0.292969 L 119.092 -13.5254 C 121.533 -16.6016 120.068 -20.4102 116.309 -20.4102 L 109.473 -20.4102 L 109.473 -64.6973 C 109.473 -75.5371 103.711 -81.3477 92.9688 -81.3477 L 56.2988 -81.3477 C 52.6855 -81.3477 50.3418 -79.1504 50.3906 -75.7812 C 50.3906 -72.3633 52.6855 -70.166 56.2988 -70.166 L 91.748 -70.166 C 96.0449 -70.166 98.291 -67.9688 98.291 -63.6719 L 98.291 -20.4102 L 91.4551 -20.4102 C 87.7441 -20.4102 86.2305 -16.6504 88.7207 -13.5254 Z M 39.9414 10.9863 L 77.4902 10.9863 C 81.0547 10.9863 83.4473 8.74023 83.3984 5.37109 C 83.3496 2.00195 81.0547 -0.195312 77.4902 -0.195312 L 40.9668 -0.195312 C 36.7676 -0.195312 34.4727 -2.34375 34.4727 -6.78711 L 34.4727 -50.1465 L 41.3086 -50.1465 C 45.0684 -50.1465 46.582 -53.9062 44.0918 -57.0312 L 33.0566 -70.8496 C 30.5176 -74.0234 27.2461 -73.9746 24.7559 -70.8496 L 13.7207 -57.0312 C 11.2305 -53.9551 12.6953 -50.1465 16.4551 -50.1465 L 23.291 -50.1465 L 23.291 -5.56641 C 23.291 5.22461 29.1016 10.9863 39.9414 10.9863 Z"/>
  </g>
  <g id="Bold-M" transform="matrix(1 0 0 1 2272.13 1126)">
   <path d="M 100.879 0.927734 C 103.516 4.15039 107.031 4.10156 109.619 0.927734 L 121.777 -14.2578 C 124.561 -17.6758 123.047 -21.7773 118.945 -21.7773 L 111.768 -21.7773 L 111.768 -64.5996 C 111.768 -75.8301 105.615 -82.0312 94.4336 -82.0312 L 59.5215 -82.0312 C 55.4688 -82.0312 52.6855 -79.3945 52.7344 -75.4883 C 52.7344 -71.6309 55.4688 -68.9453 59.5215 -68.9453 L 92.7734 -68.9453 C 96.7285 -68.9453 98.7305 -67.0898 98.7305 -63.0859 L 98.7305 -21.7773 L 91.5527 -21.7773 C 87.5 -21.7773 85.8887 -17.7246 88.7207 -14.2578 Z M 41.3086 11.6699 L 76.9043 11.6699 C 80.957 11.6699 83.7402 9.0332 83.6914 5.12695 C 83.6914 1.2207 80.957 -1.41602 76.9043 -1.41602 L 42.8711 -1.41602 C 39.0137 -1.41602 36.9629 -3.27148 36.9629 -7.32422 L 36.9629 -48.7305 L 44.1406 -48.7305 C 48.1934 -48.7305 49.8047 -52.7832 46.9727 -56.25 L 34.8145 -71.4355 C 32.1777 -74.6582 28.6621 -74.6094 26.0742 -71.4355 L 13.916 -56.25 C 11.1328 -52.832 12.6465 -48.7305 16.748 -48.7305 L 23.9258 -48.7305 L 23.9258 -5.66406 C 23.9258 5.51758 30.127 11.6699 41.3086 11.6699 Z"/>
  </g>
  <g id="Heavy-M" transform="matrix(1 0 0 1 2566.72 1126)">
   <path d="M 102.539 1.80664 C 105.322 5.17578 109.18 5.07812 111.865 1.80664 L 125.732 -15.2832 C 128.955 -19.2383 127.393 -23.7305 122.754 -23.7305 L 115.137 -23.7305 L 115.137 -64.502 C 115.137 -76.2695 108.398 -83.0566 96.6309 -83.0566 L 64.209 -83.0566 C 59.4727 -83.0566 56.1035 -79.7852 56.1035 -75.1465 C 56.1523 -70.5078 59.4727 -67.2363 64.209 -67.2363 L 94.2871 -67.2363 C 97.6562 -67.2363 99.3164 -65.7715 99.3164 -62.2559 L 99.3164 -23.7305 L 91.6992 -23.7305 C 87.1582 -23.7305 85.4492 -19.2871 88.6719 -15.2832 Z M 43.3105 12.6465 L 76.0254 12.6465 C 80.7617 12.6465 84.1309 9.375 84.1309 4.73633 C 84.1309 0.0976562 80.7617 -3.17383 76.0254 -3.17383 L 45.6055 -3.17383 C 42.2852 -3.17383 40.625 -4.63867 40.625 -8.1543 L 40.625 -46.6797 L 48.2422 -46.6797 C 52.7832 -46.6797 54.4922 -51.123 51.2207 -55.127 L 37.3535 -72.2168 C 34.6191 -75.5859 30.7129 -75.4883 28.0762 -72.2168 L 14.1602 -55.127 C 10.9863 -51.1719 12.5488 -46.6797 17.1875 -46.6797 L 24.8047 -46.6797 L 24.8047 -5.81055 C 24.8047 5.9082 31.543 12.6465 43.3105 12.6465 Z"/>
  </g>
  <g id="Black-M" transform="matrix(1 0 0 1 2861.55 1126)">
   <path d="M 104.053 2.58789 C 106.934 6.10352 111.133 5.95703 113.867 2.58789 L 129.297 -16.2109 C 132.861 -20.6055 131.25 -25.4883 126.172 -25.4883 L 118.115 -25.4883 L 118.115 -64.4043 C 118.115 -76.6602 110.84 -83.9355 98.584 -83.9355 L 68.4082 -83.9355 C 63.0859 -83.9355 59.1797 -80.0781 59.1797 -74.8047 C 59.1797 -69.5312 63.0859 -65.6738 68.4082 -65.6738 L 95.6543 -65.6738 C 98.4863 -65.6738 99.8535 -64.5508 99.8535 -61.4746 L 99.8535 -25.4883 L 91.7969 -25.4883 C 86.8652 -25.4883 85.0586 -20.6543 88.6719 -16.2109 Z M 45.1172 13.5742 L 75.293 13.5742 C 80.6152 13.5742 84.5215 9.7168 84.5215 4.39453 C 84.5215 -0.878906 80.6152 -4.73633 75.293 -4.73633 L 48.0469 -4.73633 C 45.2148 -4.73633 43.8477 -5.81055 43.8477 -8.88672 L 43.8477 -44.8242 L 51.9043 -44.8242 C 56.8359 -44.8242 58.6426 -49.6582 54.9805 -54.1016 L 39.6484 -72.9004 C 36.7676 -76.416 32.5684 -76.2695 29.834 -72.9004 L 14.4043 -54.1016 C 10.8398 -49.707 12.4512 -44.8242 17.5293 -44.8242 L 25.5859 -44.8242 L 25.5859 -5.95703 C 25.5859 6.29883 32.8613 13.5742 45.1172 13.5742 Z"/>
  </g>
  <g id="Ultralight-L" transform="matrix(1 0 0 1 480.707 1556)">
   <path d="M 126.172 9.81445 C 127.393 11.2793 129.346 11.2793 130.518 9.81445 L 141.211 -3.36914 C 142.48 -4.93164 142.041 -7.42188 139.502 -7.42188 L 129.639 -7.42188 L 129.639 -74.0723 C 129.639 -84.2773 124.072 -89.9902 113.721 -89.9902 L 52.8809 -89.9902 C 52.2461 -89.9902 51.6602 -89.4043 51.6602 -88.7207 C 51.6602 -88.0859 52.2461 -87.4512 52.8809 -87.4512 L 113.574 -87.4512 C 122.119 -87.4512 127.1 -82.8613 127.1 -73.9258 L 127.1 -7.42188 L 117.188 -7.42188 C 114.697 -7.42188 114.258 -4.93164 115.479 -3.36914 Z M 44.2871 19.7754 L 114.551 19.7754 C 115.186 19.7754 115.771 19.1895 115.771 18.5059 C 115.771 17.8711 115.186 17.2363 114.551 17.2363 L 44.4336 17.2363 C 35.498 17.2363 30.9082 12.6465 30.9082 3.75977 L 30.9082 -64.9414 L 40.8203 -64.9414 C 43.3105 -64.9414 43.75 -67.4316 42.4805 -68.9941 L 31.7871 -82.1777 C 30.6152 -83.6426 28.6621 -83.6426 27.4414 -82.1777 L 16.748 -68.9941 C 15.5273 -67.4316 15.9668 -64.9414 18.457 -64.9414 L 28.3691 -64.9414 L 28.3691 3.85742 C 28.3691 14.2578 33.8867 19.7754 44.2871 19.7754 Z"/>
  </g>
  <g id="Thin-L" transform="matrix(1 0 0 1 776.808 1556)">
   <path d="M 126.172 9.7168 C 127.686 11.6211 129.98 11.6211 131.494 9.7168 L 142.383 -3.80859 C 143.848 -5.61523 143.164 -8.44727 140.381 -8.44727 L 130.811 -8.44727 L 130.811 -73.9746 C 130.811 -84.7168 125.098 -90.5762 114.209 -90.5762 L 55.127 -90.5762 C 53.9551 -90.5762 53.125 -89.7461 53.125 -88.623 C 53.125 -87.5 53.9551 -86.6699 55.127 -86.6699 L 114.014 -86.6699 C 122.168 -86.6699 126.855 -82.2266 126.855 -73.8281 L 126.855 -8.44727 L 117.334 -8.44727 C 114.502 -8.44727 113.818 -5.61523 115.283 -3.80859 Z M 45.0195 20.3613 L 112.158 20.3613 C 113.33 20.3613 114.16 19.4824 114.16 18.3594 C 114.16 17.2363 113.33 16.4062 112.158 16.4062 L 45.166 16.4062 C 36.7676 16.4062 32.373 12.0117 32.373 3.56445 L 32.373 -63.623 L 41.8945 -63.623 C 44.7266 -63.623 45.4102 -66.4551 43.8965 -68.2617 L 33.0566 -81.7871 C 31.4941 -83.6914 29.248 -83.6914 27.7344 -81.7871 L 16.8457 -68.2617 C 15.3809 -66.4551 16.0645 -63.623 18.8477 -63.623 L 28.418 -63.623 L 28.418 3.75977 C 28.418 14.6484 34.1309 20.3613 45.0195 20.3613 Z"/>
  </g>
  <g id="Light-L" transform="matrix(1 0 0 1 1072.32 1556)">
   <path d="M 126.123 9.52148 C 128.32 12.3047 131.201 12.3047 133.398 9.52148 L 144.58 -4.58984 C 146.533 -6.98242 145.361 -10.4492 141.992 -10.4492 L 133.057 -10.4492 L 133.057 -73.7305 C 133.057 -85.498 127.002 -91.6992 115.234 -91.6992 L 59.5703 -91.6992 C 57.3242 -91.6992 55.957 -90.4297 55.957 -88.3789 C 56.0059 -86.377 57.3242 -85.0586 59.5703 -85.0586 L 114.893 -85.0586 C 122.314 -85.0586 126.465 -81.0547 126.465 -73.584 L 126.465 -10.4492 L 117.529 -10.4492 C 114.16 -10.4492 113.037 -6.98242 114.941 -4.58984 Z M 46.5332 21.4355 L 107.471 21.4355 C 109.668 21.4355 111.084 20.1172 111.035 18.1152 C 111.035 16.0645 109.668 14.7949 107.471 14.7949 L 46.6797 14.7949 C 39.1602 14.7949 35.1562 10.8398 35.1562 3.22266 L 35.1562 -61.0352 L 44.0918 -61.0352 C 47.4609 -61.0352 48.584 -64.502 46.6797 -66.8945 L 35.498 -81.0059 C 33.3008 -83.7891 30.4199 -83.7891 28.2227 -81.0059 L 17.041 -66.8945 C 15.0879 -64.502 16.2598 -61.0352 19.6289 -61.0352 L 28.5645 -61.0352 L 28.5645 3.56445 C 28.5645 15.3809 34.668 21.4355 46.5332 21.4355 Z"/>
  </g>
  <g id="Regular-L" transform="matrix(1 0 0 1 1368.13 1556)">
   <path d="M 126.074 9.375 C 128.76 12.793 132.178 12.793 134.863 9.375 L 146.289 -5.17578 C 148.535 -8.05664 147.021 -11.9141 143.262 -11.9141 L 134.814 -11.9141 L 134.814 -73.5352 C 134.814 -86.1328 128.467 -92.5293 115.967 -92.5293 L 62.8906 -92.5293 C 59.9121 -92.5293 58.1055 -90.918 58.1543 -88.2324 C 58.2031 -85.498 59.9121 -83.8867 62.8906 -83.8867 L 115.527 -83.8867 C 122.412 -83.8867 126.123 -80.1758 126.123 -73.3887 L 126.123 -11.9141 L 117.676 -11.9141 C 113.916 -11.9141 112.402 -8.05664 114.648 -5.17578 Z M 47.6562 22.2168 L 103.906 22.2168 C 106.934 22.2168 108.74 20.6055 108.691 17.9199 C 108.643 15.1855 106.934 13.5742 103.906 13.5742 L 47.8027 13.5742 C 41.0156 13.5742 37.3047 9.96094 37.3047 2.97852 L 37.3047 -59.1309 L 45.752 -59.1309 C 49.5117 -59.1309 51.0254 -62.9883 48.7793 -65.8691 L 37.3535 -80.4199 C 34.668 -83.8379 31.25 -83.8379 28.5645 -80.4199 L 17.1387 -65.8691 C 14.8926 -62.9883 16.4062 -59.1309 20.166 -59.1309 L 28.6133 -59.1309 L 28.6133 3.41797 C 28.6133 15.918 35.0586 22.2168 47.6562 22.2168 Z"/>
  </g>
  <g id="Medium-L" transform="matrix(1 0 0 1 1663.35 1556)">
   <path d="M 127.1 9.91211 C 129.98 13.5254 133.691 13.4766 136.523 9.91211 L 149.023 -5.9082 C 151.611 -9.17969 150.049 -13.4277 145.85 -13.4277 L 137.207 -13.4277 L 137.207 -73.4375 C 137.207 -86.5234 130.469 -93.3105 117.48 -93.3105 L 66.4551 -93.3105 C 62.8418 -93.3105 60.5957 -91.2598 60.6445 -87.9395 C 60.6934 -84.668 62.8418 -82.6172 66.4551 -82.6172 L 116.602 -82.6172 C 122.998 -82.6172 126.465 -79.1992 126.465 -72.8027 L 126.465 -13.4277 L 117.822 -13.4277 C 113.672 -13.4277 112.012 -9.17969 114.6 -5.9082 Z M 49.0723 22.998 L 102.734 22.998 C 106.299 22.998 108.545 20.9473 108.496 17.627 C 108.496 14.3555 106.299 12.2559 102.734 12.2559 L 49.707 12.2559 C 43.3594 12.2559 39.9414 8.98438 39.9414 2.39258 L 39.9414 -57.4707 L 48.584 -57.4707 C 52.7344 -57.4707 54.3945 -61.7188 51.8066 -64.9902 L 39.2578 -80.8105 C 36.4258 -84.4238 32.7148 -84.375 29.8828 -80.8105 L 17.334 -64.9902 C 14.7461 -61.7188 16.3574 -57.4707 20.5566 -57.4707 L 29.1992 -57.4707 L 29.1992 3.27148 C 29.1992 16.2598 36.0352 22.998 49.0723 22.998 Z"/>
  </g>
  <g id="Semibold-L" transform="matrix(1 0 0 1 1958.94 1556)">
   <path d="M 127.93 10.3027 C 130.908 14.0625 134.814 14.0137 137.793 10.3027 L 151.172 -6.49414 C 154.004 -10.0586 152.344 -14.5996 147.852 -14.5996 L 139.014 -14.5996 L 139.014 -73.3887 C 139.014 -86.8164 131.982 -93.9453 118.652 -93.9453 L 69.1406 -93.9453 C 65.1367 -93.9453 62.5488 -91.5039 62.5977 -87.7441 C 62.5977 -84.0332 65.1367 -81.5918 69.1406 -81.5918 L 117.432 -81.5918 C 123.486 -81.5918 126.709 -78.4668 126.709 -72.3633 L 126.709 -14.5996 L 117.92 -14.5996 C 113.477 -14.5996 111.719 -10.1074 114.551 -6.49414 Z M 50.1953 23.584 L 101.807 23.584 C 105.859 23.584 108.447 21.1914 108.398 17.4316 C 108.35 13.6719 105.859 11.2793 101.807 11.2793 L 51.1719 11.2793 C 45.166 11.2793 41.9922 8.20312 41.9922 1.95312 L 41.9922 -56.2012 L 50.7812 -56.2012 C 55.2246 -56.2012 56.9824 -60.6934 54.1016 -64.3066 L 40.7715 -81.1035 C 37.7441 -84.8633 33.8379 -84.8145 30.8594 -81.1035 L 17.4805 -64.3066 C 14.6484 -60.7422 16.3574 -56.2012 20.8496 -56.2012 L 29.6387 -56.2012 L 29.6387 3.17383 C 29.6387 16.5527 36.7676 23.584 50.1953 23.584 Z"/>
  </g>
  <g id="Bold-L" transform="matrix(1 0 0 1 2254.14 1556)">
   <path d="M 128.955 10.8398 C 132.129 14.7949 136.377 14.7461 139.502 10.8398 L 153.955 -7.27539 C 157.129 -11.2305 155.371 -16.1133 150.488 -16.1133 L 141.455 -16.1133 L 141.455 -73.2422 C 141.455 -87.207 133.984 -94.7266 120.166 -94.7266 L 72.7051 -94.7266 C 68.1152 -94.7266 65.0879 -91.8457 65.1367 -87.5 C 65.1367 -83.1543 68.1152 -80.2734 72.7051 -80.2734 L 118.506 -80.2734 C 124.072 -80.2734 127.002 -77.4414 127.002 -71.8262 L 127.002 -16.1133 L 118.018 -16.1133 C 113.184 -16.1133 111.328 -11.2793 114.502 -7.27539 Z M 51.6602 24.3652 L 100.635 24.3652 C 105.225 24.3652 108.252 21.4844 108.252 17.1387 C 108.203 12.793 105.225 9.91211 100.635 9.91211 L 53.125 9.91211 C 47.6074 9.91211 44.6289 7.17773 44.6289 1.41602 L 44.6289 -54.541 L 53.6621 -54.541 C 58.4961 -54.541 60.3516 -59.375 57.1289 -63.3789 L 42.6758 -81.4941 C 39.502 -85.4492 35.3027 -85.4004 32.1777 -81.4941 L 17.7246 -63.3789 C 14.502 -59.4238 16.3086 -54.541 21.1914 -54.541 L 30.2246 -54.541 L 30.2246 3.07617 C 30.2246 16.8945 37.7441 24.3652 51.6602 24.3652 Z"/>
  </g>
  <g id="Heavy-L" transform="matrix(1 0 0 1 2548.68 1556)">
   <path d="M 130.518 11.5723 C 133.936 15.8203 138.574 15.7715 141.943 11.5723 L 158.008 -8.39844 C 161.67 -12.9395 159.717 -18.3105 154.297 -18.3105 L 144.971 -18.3105 L 144.971 -73.1445 C 144.971 -87.7441 136.914 -95.8496 122.363 -95.8496 L 77.8809 -95.8496 C 72.5098 -95.8496 68.7988 -92.334 68.7988 -87.1094 C 68.8477 -81.9336 72.5098 -78.3691 77.8809 -78.3691 L 120.068 -78.3691 C 125 -78.3691 127.49 -76.0254 127.49 -70.9961 L 127.49 -18.3105 L 118.164 -18.3105 C 112.793 -18.3105 110.742 -12.9883 114.453 -8.39844 Z M 21.7285 -52.1484 L 31.0059 -52.1484 L 31.0059 2.88086 C 31.0059 17.4316 39.1602 25.4883 53.7598 25.4883 L 98.9258 25.4883 C 104.346 25.4883 108.057 21.9727 108.008 16.748 C 107.959 11.5723 104.346 8.00781 98.9258 8.00781 L 55.9082 8.00781 C 51.0742 8.00781 48.5352 5.71289 48.5352 0.585938 L 48.5352 -52.1484 L 57.8613 -52.1484 C 63.1836 -52.1484 65.2832 -57.4707 61.5723 -62.1094 L 45.5078 -82.0801 C 42.0898 -86.3281 37.4512 -86.2305 34.082 -82.0801 L 17.9688 -62.1094 C 14.3066 -57.5195 16.2598 -52.1484 21.7285 -52.1484 Z"/>
  </g>
  <g id="Black-L" transform="matrix(1 0 0 1 2843.46 1556)">
   <path d="M 131.836 12.2559 C 135.498 16.7969 140.576 16.6504 144.092 12.2559 L 161.67 -9.375 C 165.771 -14.4531 163.672 -20.2637 157.715 -20.2637 L 148.145 -20.2637 L 148.145 -72.998 C 148.145 -88.2324 139.502 -96.875 124.316 -96.875 L 82.5195 -96.875 C 76.3672 -96.875 72.0703 -92.7246 72.1191 -86.7676 C 72.1191 -80.8105 76.3672 -76.6602 82.5195 -76.6602 L 121.436 -76.6602 C 125.781 -76.6602 127.881 -74.707 127.881 -70.2637 L 127.881 -20.2637 L 118.311 -20.2637 C 112.5 -20.2637 110.205 -14.502 114.355 -9.375 Z M 22.2168 -50 L 31.7871 -50 L 31.7871 2.68555 C 31.7871 17.8711 40.4297 26.5137 55.6641 26.5137 L 97.3633 26.5137 C 103.516 26.5137 107.812 22.3633 107.812 16.4062 C 107.764 10.4492 103.516 6.29883 97.3633 6.29883 L 58.3984 6.29883 C 54.1504 6.29883 52.002 4.39453 52.002 -0.146484 L 52.002 -50 L 61.5723 -50 C 67.4316 -50 69.6777 -55.8105 65.5273 -60.9375 L 48.0469 -82.5684 C 44.3848 -87.0605 39.3066 -86.9629 35.791 -82.5684 L 18.2617 -60.9375 C 14.1602 -55.8594 16.2598 -50 22.2168 -50 Z"/>
  </g>
 </g>
</svg>
