<?xml version="1.0" encoding="UTF-8"?>
<!--Generator: Apple Native CoreSVG 123-->
<!DOCTYPE svg
PUBLIC "-//W3C//DTD SVG 1.1//EN"
       "http://www.w3.org/Graphics/SVG/1.1/DTD/svg11.dtd">
<svg version="1.1" xmlns="http://www.w3.org/2000/svg" xmlns:xlink="http://www.w3.org/1999/xlink" width="3300" height="2200">
 <!--glyph: "uni100102.medium", point size: 100.000000, font version: "Version 15.0d4e20", template writer version: "2"-->
 <g id="Notes">
  <rect height="2200" id="artboard" style="fill:white;opacity:1" width="3300" x="0" y="0"/>
  <line id="" style="fill:none;stroke:black;opacity:1;stroke-width:0.5;" x1="263" x2="3036" y1="292" y2="292"/>
  <text style="stroke:none;fill:black;font-family:-apple-system,&quot;SF Pro Display&quot;,&quot;SF Pro Text&quot;,Helvetica,sans-serif;font-weight:bold;" transform="matrix(1 0 0 1 263 322)">Weight/Scale Variations</text>
  <text style="stroke:none;fill:black;font-family:-apple-system,&quot;SF Pro Display&quot;,&quot;SF Pro Text&quot;,Helvetica,sans-serif;text-anchor:middle;" transform="matrix(1 0 0 1 559.711 322)">Ultralight</text>
  <text style="stroke:none;fill:black;font-family:-apple-system,&quot;SF Pro Display&quot;,&quot;SF Pro Text&quot;,Helvetica,sans-serif;text-anchor:middle;" transform="matrix(1 0 0 1 856.422 322)">Thin</text>
  <text style="stroke:none;fill:black;font-family:-apple-system,&quot;SF Pro Display&quot;,&quot;SF Pro Text&quot;,Helvetica,sans-serif;text-anchor:middle;" transform="matrix(1 0 0 1 1153.13 322)">Light</text>
  <text style="stroke:none;fill:black;font-family:-apple-system,&quot;SF Pro Display&quot;,&quot;SF Pro Text&quot;,Helvetica,sans-serif;text-anchor:middle;" transform="matrix(1 0 0 1 1449.84 322)">Regular</text>
  <text style="stroke:none;fill:black;font-family:-apple-system,&quot;SF Pro Display&quot;,&quot;SF Pro Text&quot;,Helvetica,sans-serif;text-anchor:middle;" transform="matrix(1 0 0 1 1746.56 322)">Medium</text>
  <text style="stroke:none;fill:black;font-family:-apple-system,&quot;SF Pro Display&quot;,&quot;SF Pro Text&quot;,Helvetica,sans-serif;text-anchor:middle;" transform="matrix(1 0 0 1 2043.27 322)">Semibold</text>
  <text style="stroke:none;fill:black;font-family:-apple-system,&quot;SF Pro Display&quot;,&quot;SF Pro Text&quot;,Helvetica,sans-serif;text-anchor:middle;" transform="matrix(1 0 0 1 2339.98 322)">Bold</text>
  <text style="stroke:none;fill:black;font-family:-apple-system,&quot;SF Pro Display&quot;,&quot;SF Pro Text&quot;,Helvetica,sans-serif;text-anchor:middle;" transform="matrix(1 0 0 1 2636.69 322)">Heavy</text>
  <text style="stroke:none;fill:black;font-family:-apple-system,&quot;SF Pro Display&quot;,&quot;SF Pro Text&quot;,Helvetica,sans-serif;text-anchor:middle;" transform="matrix(1 0 0 1 2933.4 322)">Black</text>
  <line id="" style="fill:none;stroke:black;opacity:1;stroke-width:0.5;" x1="263" x2="3036" y1="1903" y2="1903"/>
  <g id="" transform="matrix(1 0 0 1 263 1933)">
   <path d="M 9.24805 0.830078 C 13.5547 0.830078 17.1387 -2.74414 17.1387 -7.05078 C 17.1387 -11.3574 13.5449 -14.9316 9.23828 -14.9316 C 4.94141 -14.9316 1.36719 -11.3574 1.36719 -7.05078 C 1.36719 -2.74414 4.95117 0.830078 9.24805 0.830078 Z M 9.24805 -0.654297 C 5.70312 -0.654297 2.87109 -3.49609 2.87109 -7.05078 C 2.87109 -10.6055 5.69336 -13.4473 9.23828 -13.4473 C 12.793 -13.4473 15.6348 -10.6055 15.6445 -7.05078 C 15.6543 -3.49609 12.8027 -0.654297 9.24805 -0.654297 Z M 9.22852 -3.42773 C 9.69727 -3.42773 9.9707 -3.74023 9.9707 -4.25781 L 9.9707 -6.31836 L 12.1973 -6.31836 C 12.6953 -6.31836 13.0371 -6.57227 13.0371 -7.04102 C 13.0371 -7.51953 12.7148 -7.7832 12.1973 -7.7832 L 9.9707 -7.7832 L 9.9707 -10.0098 C 9.9707 -10.5273 9.69727 -10.8496 9.22852 -10.8496 C 8.75977 -10.8496 8.50586 -10.5078 8.50586 -10.0098 L 8.50586 -7.7832 L 6.29883 -7.7832 C 5.78125 -7.7832 5.44922 -7.51953 5.44922 -7.04102 C 5.44922 -6.57227 5.80078 -6.31836 6.29883 -6.31836 L 8.50586 -6.31836 L 8.50586 -4.25781 C 8.50586 -3.75977 8.75977 -3.42773 9.22852 -3.42773 Z"/>
  </g>
  <g id="" transform="matrix(1 0 0 1 281.506 1933)">
   <path d="M 11.709 2.91016 C 17.1484 2.91016 21.6699 -1.60156 21.6699 -7.05078 C 21.6699 -12.4902 17.1387 -17.0117 11.6992 -17.0117 C 6.25 -17.0117 1.74805 -12.4902 1.74805 -7.05078 C 1.74805 -1.60156 6.25977 2.91016 11.709 2.91016 Z M 11.709 1.25 C 7.09961 1.25 3.41797 -2.44141 3.41797 -7.05078 C 3.41797 -11.6504 7.08984 -15.3516 11.6992 -15.3516 C 16.2988 -15.3516 20 -11.6504 20.0098 -7.05078 C 20.0195 -2.44141 16.3086 1.25 11.709 1.25 Z M 11.6797 -2.41211 C 12.207 -2.41211 12.5195 -2.77344 12.5195 -3.33984 L 12.5195 -6.23047 L 15.5762 -6.23047 C 16.123 -6.23047 16.5039 -6.51367 16.5039 -7.03125 C 16.5039 -7.55859 16.1426 -7.86133 15.5762 -7.86133 L 12.5195 -7.86133 L 12.5195 -10.9277 C 12.5195 -11.5039 12.207 -11.8555 11.6797 -11.8555 C 11.1621 -11.8555 10.8789 -11.4844 10.8789 -10.9277 L 10.8789 -7.86133 L 7.83203 -7.86133 C 7.25586 -7.86133 6.89453 -7.55859 6.89453 -7.03125 C 6.89453 -6.51367 7.28516 -6.23047 7.83203 -6.23047 L 10.8789 -6.23047 L 10.8789 -3.33984 C 10.8789 -2.79297 11.1621 -2.41211 11.6797 -2.41211 Z"/>
  </g>
  <g id="" transform="matrix(1 0 0 1 304.914 1933)">
   <path d="M 14.9707 5.67383 C 21.9336 5.67383 27.6855 -0.078125 27.6855 -7.04102 C 27.6855 -14.0039 21.9238 -19.7559 14.9609 -19.7559 C 7.99805 -19.7559 2.25586 -14.0039 2.25586 -7.04102 C 2.25586 -0.078125 8.00781 5.67383 14.9707 5.67383 Z M 14.9707 3.85742 C 8.92578 3.85742 4.08203 -1.00586 4.08203 -7.04102 C 4.08203 -13.0762 8.91602 -17.9395 14.9609 -17.9395 C 20.9961 -17.9395 25.8594 -13.0762 25.8691 -7.04102 C 25.8789 -1.00586 21.0059 3.85742 14.9707 3.85742 Z M 14.9414 -1.06445 C 15.5176 -1.06445 15.8594 -1.45508 15.8594 -2.06055 L 15.8594 -6.13281 L 20.0977 -6.13281 C 20.6934 -6.13281 21.1133 -6.46484 21.1133 -7.02148 C 21.1133 -7.59766 20.7227 -7.93945 20.0977 -7.93945 L 15.8594 -7.93945 L 15.8594 -12.1875 C 15.8594 -12.8027 15.5176 -13.1934 14.9414 -13.1934 C 14.3848 -13.1934 14.0625 -12.7832 14.0625 -12.1875 L 14.0625 -7.93945 L 9.82422 -7.93945 C 9.20898 -7.93945 8.80859 -7.59766 8.80859 -7.02148 C 8.80859 -6.46484 9.23828 -6.13281 9.82422 -6.13281 L 14.0625 -6.13281 L 14.0625 -2.06055 C 14.0625 -1.47461 14.3848 -1.06445 14.9414 -1.06445 Z"/>
  </g>
  <text style="stroke:none;fill:black;font-family:-apple-system,&quot;SF Pro Display&quot;,&quot;SF Pro Text&quot;,Helvetica,sans-serif;font-weight:bold;" transform="matrix(1 0 0 1 263 1953)">Design Variations</text>
  <text style="stroke:none;fill:black;font-family:-apple-system,&quot;SF Pro Display&quot;,&quot;SF Pro Text&quot;,Helvetica,sans-serif;" transform="matrix(1 0 0 1 263 1971)">Symbols are supported in up to nine weights and three scales.</text>
  <text style="stroke:none;fill:black;font-family:-apple-system,&quot;SF Pro Display&quot;,&quot;SF Pro Text&quot;,Helvetica,sans-serif;" transform="matrix(1 0 0 1 263 1989)">For optimal layout with text and other symbols, vertically align</text>
  <text style="stroke:none;fill:black;font-family:-apple-system,&quot;SF Pro Display&quot;,&quot;SF Pro Text&quot;,Helvetica,sans-serif;" transform="matrix(1 0 0 1 263 2007)">symbols with the adjacent text.</text>
  <rect height="14" id="" style="fill:#00AEEF;stroke:none;opacity:0.4;" width="3" x="776" y="1919"/>
  <g id="" transform="matrix(1 0 0 1 779 1933)">
   <path d="M 10.5273 0 L 12.373 0 L 7.17773 -14.0918 L 5.43945 -14.0918 L 0.244141 0 L 2.08984 0 L 3.50586 -4.0332 L 9.11133 -4.0332 Z M 6.2793 -11.9531 L 6.33789 -11.9531 L 8.59375 -5.52734 L 4.02344 -5.52734 Z"/>
  </g>
  <rect height="14" id="" style="fill:#00AEEF;stroke:none;opacity:0.4;" width="3" x="791.617" y="1919"/>
  <text style="stroke:none;fill:black;font-family:-apple-system,&quot;SF Pro Display&quot;,&quot;SF Pro Text&quot;,Helvetica,sans-serif;font-weight:bold;" transform="matrix(1 0 0 1 776 1953)">Side Bearings</text>
  <text style="stroke:none;fill:black;font-family:-apple-system,&quot;SF Pro Display&quot;,&quot;SF Pro Text&quot;,Helvetica,sans-serif;" transform="matrix(1 0 0 1 776 1971)">Horizontal padding on the left and right side of each symbol</text>
  <text style="stroke:none;fill:black;font-family:-apple-system,&quot;SF Pro Display&quot;,&quot;SF Pro Text&quot;,Helvetica,sans-serif;" transform="matrix(1 0 0 1 776 1989)">can be adjusted by modifying the width of the blue rectangles.</text>
  <text style="stroke:none;fill:black;font-family:-apple-system,&quot;SF Pro Display&quot;,&quot;SF Pro Text&quot;,Helvetica,sans-serif;" transform="matrix(1 0 0 1 776 2007)">Modifications are automatically applied proportionally to all</text>
  <text style="stroke:none;fill:black;font-family:-apple-system,&quot;SF Pro Display&quot;,&quot;SF Pro Text&quot;,Helvetica,sans-serif;" transform="matrix(1 0 0 1 776 2025)">scales and weights.</text>
  <g id="" transform="matrix(1 0 0 1 1289 1933)">
   <path d="M 2.96875 2.35352 L 3.80859 3.19336 C 4.84375 4.22852 6.12305 4.15039 7.19727 2.97852 L 16.1621 -6.82617 C 16.5527 -6.74805 16.9629 -6.8457 17.4902 -7.02148 C 18.1738 -7.25586 18.2715 -7.25586 18.3887 -7.13867 C 18.5352 -7.01172 18.4863 -6.89453 18.2422 -6.25 C 17.8809 -5.33203 17.8125 -4.79492 18.5547 -4.02344 L 19.4238 -3.13477 C 20.2734 -2.24609 21.3281 -2.26562 22.2168 -3.14453 L 25.0586 -5.97656 C 25.9473 -6.86523 25.957 -7.92969 25.0781 -8.7793 L 24.1797 -9.64844 C 23.4082 -10.4004 22.8711 -10.3516 21.9629 -9.98047 C 21.3184 -9.72656 21.2012 -9.6875 21.0645 -9.81445 C 20.9375 -9.93164 20.9473 -10.0391 21.1816 -10.7129 C 21.5332 -11.6895 21.5723 -12.2852 20.752 -13.0957 L 19.3359 -14.5117 C 15.1953 -18.6133 11.2305 -18.7402 7.65625 -15.4395 C 7.08008 -14.9023 6.99219 -14.1504 7.53906 -13.6133 L 7.79297 -13.3594 C 8.22266 -12.9297 8.86719 -12.8418 9.41406 -13.1152 C 11.0645 -13.9453 12.2559 -14.0234 13.457 -12.9785 L 13.0273 -11.416 C 12.8516 -10.8008 12.793 -10.3418 12.9199 -9.93164 L 3.18359 -1.04492 C 2.02148 0.0292969 1.93359 1.32812 2.96875 2.35352 Z M 8.96484 -14.4922 C 8.89648 -14.5703 8.86719 -14.6582 8.99414 -14.7559 C 11.709 -17.2852 15.0391 -16.8457 18.3496 -13.5254 L 19.6973 -12.168 C 20.0879 -11.7773 20.0977 -11.582 19.8828 -10.8691 C 19.6582 -10.127 19.502 -9.53125 20.1465 -8.88672 C 20.8105 -8.22266 21.2891 -8.41797 22.207 -8.63281 C 22.9004 -8.79883 23.0664 -8.79883 23.4473 -8.41797 L 24.0918 -7.77344 C 24.4043 -7.48047 24.4141 -7.32422 24.0723 -6.97266 L 21.2207 -4.13086 C 20.8887 -3.79883 20.7227 -3.79883 20.4297 -4.10156 L 19.7852 -4.75586 C 19.4141 -5.13672 19.4141 -5.30273 19.5801 -6.01562 C 19.7852 -6.88477 19.9805 -7.38281 19.3262 -8.04688 C 18.6719 -8.7207 18.0762 -8.57422 17.3438 -8.33008 C 16.5625 -8.06641 16.3281 -8.06641 15.8984 -8.49609 L 14.6094 -9.78516 C 14.1699 -10.2246 14.1309 -10.4395 14.2676 -10.9082 L 15.0293 -13.3984 C 13.3887 -15.2832 11.4941 -15.5566 9.20898 -14.4434 C 9.11133 -14.3945 9.04297 -14.4141 8.96484 -14.4922 Z M 3.96484 1.36719 C 3.52539 0.927734 3.54492 0.537109 4.14062 -0.00976562 L 13.7402 -8.81836 L 15 -7.55859 L 6.17188 2.02148 C 5.625 2.60742 5.24414 2.64648 4.79492 2.19727 Z"/>
  </g>
  <text style="stroke:none;fill:black;font-family:-apple-system,&quot;SF Pro Display&quot;,&quot;SF Pro Text&quot;,Helvetica,sans-serif;font-weight:bold;" transform="matrix(1 0 0 1 1289 1953)">Exporting</text>
  <text style="stroke:none;fill:black;font-family:-apple-system,&quot;SF Pro Display&quot;,&quot;SF Pro Text&quot;,Helvetica,sans-serif;" transform="matrix(1 0 0 1 1289 1971)">Symbols should be outlined when exporting to ensure the</text>
  <text style="stroke:none;fill:black;font-family:-apple-system,&quot;SF Pro Display&quot;,&quot;SF Pro Text&quot;,Helvetica,sans-serif;" transform="matrix(1 0 0 1 1289 1989)">design is preserved when submitting to Xcode.</text>
  <text id="template-version" style="stroke:none;fill:black;font-family:-apple-system,&quot;SF Pro Display&quot;,&quot;SF Pro Text&quot;,Helvetica,sans-serif;text-anchor:end;" transform="matrix(1 0 0 1 3036 1933)">Template v.0.1</text>
  <text style="stroke:none;fill:black;font-family:-apple-system,&quot;SF Pro Display&quot;,&quot;SF Pro Text&quot;,Helvetica,sans-serif;text-anchor:end;" transform="matrix(1 0 0 1 3036 1951)">Generated from chevron.left.square</text>
  <text style="stroke:none;fill:black;font-family:-apple-system,&quot;SF Pro Display&quot;,&quot;SF Pro Text&quot;,Helvetica,sans-serif;text-anchor:end;" transform="matrix(1 0 0 1 3036 1969)">Typeset at 100 points</text>
  <text style="stroke:none;fill:black;font-family:-apple-system,&quot;SF Pro Display&quot;,&quot;SF Pro Text&quot;,Helvetica,sans-serif;" transform="matrix(1 0 0 1 263 726)">Small</text>
  <text style="stroke:none;fill:black;font-family:-apple-system,&quot;SF Pro Display&quot;,&quot;SF Pro Text&quot;,Helvetica,sans-serif;" transform="matrix(1 0 0 1 263 1156)">Medium</text>
  <text style="stroke:none;fill:black;font-family:-apple-system,&quot;SF Pro Display&quot;,&quot;SF Pro Text&quot;,Helvetica,sans-serif;" transform="matrix(1 0 0 1 263 1586)">Large</text>
 </g>
 <g id="Guides">
  <g id="H-reference" style="fill:#27AAE1;stroke:none;" transform="matrix(1 0 0 1 339 696)">
   <path d="M 54.9316 0 L 57.666 0 L 30.5664 -70.459 L 28.0762 -70.459 L 0.976562 0 L 3.66211 0 L 12.9395 -24.4629 L 45.7031 -24.4629 Z M 29.1992 -67.0898 L 29.4434 -67.0898 L 44.8242 -26.709 L 13.8184 -26.709 Z"/>
  </g>
  <line id="Baseline-S" style="fill:none;stroke:#27AAE1;opacity:1;stroke-width:0.577;" x1="263" x2="3036" y1="696" y2="696"/>
  <line id="Capline-S" style="fill:none;stroke:#27AAE1;opacity:1;stroke-width:0.577;" x1="263" x2="3036" y1="625.541" y2="625.541"/>
  <g id="H-reference" style="fill:#27AAE1;stroke:none;" transform="matrix(1 0 0 1 339 1126)">
   <path d="M 54.9316 0 L 57.666 0 L 30.5664 -70.459 L 28.0762 -70.459 L 0.976562 0 L 3.66211 0 L 12.9395 -24.4629 L 45.7031 -24.4629 Z M 29.1992 -67.0898 L 29.4434 -67.0898 L 44.8242 -26.709 L 13.8184 -26.709 Z"/>
  </g>
  <line id="Baseline-M" style="fill:none;stroke:#27AAE1;opacity:1;stroke-width:0.577;" x1="263" x2="3036" y1="1126" y2="1126"/>
  <line id="Capline-M" style="fill:none;stroke:#27AAE1;opacity:1;stroke-width:0.577;" x1="263" x2="3036" y1="1055.54" y2="1055.54"/>
  <g id="H-reference" style="fill:#27AAE1;stroke:none;" transform="matrix(1 0 0 1 339 1556)">
   <path d="M 54.9316 0 L 57.666 0 L 30.5664 -70.459 L 28.0762 -70.459 L 0.976562 0 L 3.66211 0 L 12.9395 -24.4629 L 45.7031 -24.4629 Z M 29.1992 -67.0898 L 29.4434 -67.0898 L 44.8242 -26.709 L 13.8184 -26.709 Z"/>
  </g>
  <line id="Baseline-L" style="fill:none;stroke:#27AAE1;opacity:1;stroke-width:0.577;" x1="263" x2="3036" y1="1556" y2="1556"/>
  <line id="Capline-L" style="fill:none;stroke:#27AAE1;opacity:1;stroke-width:0.577;" x1="263" x2="3036" y1="1485.54" y2="1485.54"/>
  <rect height="119.336" id="left-margin" style="fill:#00AEEF;stroke:none;opacity:0.4;" width="12.4512" x="1392.42" y="1030.79"/>
  <rect height="119.336" id="right-margin" style="fill:#00AEEF;stroke:none;opacity:0.4;" width="12.5" x="1494.77" y="1030.79"/>
 </g>
 <g id="Symbols">
  <g id="Ultralight-S" transform="matrix(1 0 0 1 516.352 696)">
   <path d="M 19.7754 -1.5625 L 66.9922 -1.5625 C 73.5352 -1.5625 76.9531 -5.12695 76.9531 -11.5234 L 76.9531 -58.7891 C 76.9531 -65.2344 73.5352 -68.75 66.9922 -68.75 L 19.7754 -68.75 C 13.2324 -68.75 9.76562 -65.2832 9.76562 -58.7891 L 9.76562 -11.5234 C 9.76562 -5.0293 13.2324 -1.5625 19.7754 -1.5625 Z M 19.873 -3.75977 C 14.6484 -3.75977 11.9629 -6.44531 11.9629 -11.6699 L 11.9629 -58.6426 C 11.9629 -63.8672 14.6484 -66.5527 19.873 -66.5527 L 66.8945 -66.5527 C 71.875 -66.5527 74.7559 -63.8672 74.7559 -58.6426 L 74.7559 -11.6699 C 74.7559 -6.44531 71.875 -3.75977 66.8945 -3.75977 Z M 51.7578 -16.6016 C 52.1484 -16.9922 52.2461 -17.7734 51.709 -18.2617 L 34.3262 -35.2539 L 51.709 -52.2461 C 52.2461 -52.7344 52.1484 -53.5156 51.7578 -53.9062 C 51.2207 -54.4434 50.5859 -54.3945 50.0488 -53.9062 L 32.4219 -36.6211 C 31.4941 -35.791 31.543 -34.7168 32.4219 -33.8867 L 50.0488 -16.6016 C 50.5371 -16.1133 51.2207 -16.0645 51.7578 -16.6016 Z"/>
  </g>
  <g id="Thin-S" transform="matrix(1 0 0 1 812.599 696)">
   <path d="M 20.3125 -1.12305 L 67.334 -1.12305 C 74.2676 -1.12305 77.8809 -4.78516 77.8809 -11.6211 L 77.8809 -58.6914 C 77.8809 -65.5762 74.2676 -69.2383 67.334 -69.2383 L 20.3125 -69.2383 C 13.3789 -69.2383 9.76562 -65.625 9.76562 -58.6914 L 9.76562 -11.6211 C 9.76562 -4.6875 13.3789 -1.12305 20.3125 -1.12305 Z M 20.4102 -4.44336 C 15.625 -4.44336 13.0859 -6.93359 13.0859 -11.8164 L 13.0859 -58.5449 C 13.0859 -63.3789 15.625 -65.918 20.4102 -65.918 L 67.2363 -65.918 C 71.875 -65.918 74.5605 -63.3789 74.5605 -58.5449 L 74.5605 -11.8164 C 74.5605 -6.93359 71.875 -4.44336 67.2363 -4.44336 Z M 52.3438 -16.5039 C 52.9785 -17.0898 53.0273 -18.2129 52.3438 -18.8477 L 35.4004 -35.2539 L 52.3438 -51.6113 C 53.0273 -52.2461 52.9297 -53.3691 52.3438 -53.9551 C 51.6602 -54.6387 50.6836 -54.5898 49.9512 -53.9551 L 32.8125 -37.2559 C 31.5918 -36.084 31.5918 -34.375 32.8125 -33.2031 L 49.9512 -16.5527 C 50.6348 -15.918 51.709 -15.8691 52.3438 -16.5039 Z"/>
  </g>
  <g id="Light-S" transform="matrix(1 0 0 1 1108.46 696)">
   <path d="M 21.3867 -0.292969 L 67.9688 -0.292969 C 75.7324 -0.292969 79.5898 -4.15039 79.5898 -11.7676 L 79.5898 -58.5938 C 79.5898 -66.2109 75.7324 -70.1172 67.9688 -70.1172 L 21.3867 -70.1172 C 13.6719 -70.1172 9.76562 -66.2598 9.76562 -58.5938 L 9.76562 -11.7676 C 9.76562 -4.15039 13.6719 -0.292969 21.3867 -0.292969 Z M 21.4844 -5.71289 C 17.4316 -5.71289 15.1855 -7.86133 15.1855 -12.0605 L 15.1855 -58.3008 C 15.1855 -62.5 17.4316 -64.6973 21.4844 -64.6973 L 67.8711 -64.6973 C 71.875 -64.6973 74.1699 -62.5 74.1699 -58.3008 L 74.1699 -12.0605 C 74.1699 -7.86133 71.875 -5.71289 67.8711 -5.71289 Z M 53.5156 -16.3574 C 54.541 -17.334 54.541 -19.043 53.5156 -20.0195 L 37.5 -35.2051 L 53.5156 -50.3906 C 54.5898 -51.3672 54.4922 -53.0762 53.4668 -54.0527 C 52.4902 -55.0293 50.9277 -54.9316 49.8535 -53.9551 L 33.6426 -38.5254 C 31.6895 -36.7188 31.6895 -33.6914 33.6426 -31.8848 L 49.8535 -16.4551 C 50.8301 -15.5273 52.5879 -15.4297 53.5156 -16.3574 Z"/>
  </g>
  <g id="Regular-S" transform="matrix(1 0 0 1 1404.51 696)">
   <path d="M 22.2168 0.390625 L 68.457 0.390625 C 76.8066 0.390625 80.9082 -3.71094 80.9082 -11.9141 L 80.9082 -58.4961 C 80.9082 -66.6992 76.8066 -70.8008 68.457 -70.8008 L 22.2168 -70.8008 C 13.916 -70.8008 9.76562 -66.6992 9.76562 -58.4961 L 9.76562 -11.9141 C 9.76562 -3.71094 13.916 0.390625 22.2168 0.390625 Z M 22.3145 -6.68945 C 18.7988 -6.68945 16.7969 -8.54492 16.7969 -12.2559 L 16.7969 -58.1543 C 16.7969 -61.8164 18.7988 -63.7207 22.3145 -63.7207 L 68.3594 -63.7207 C 71.875 -63.7207 73.877 -61.8164 73.877 -58.1543 L 73.877 -12.2559 C 73.877 -8.54492 71.875 -6.68945 68.3594 -6.68945 Z M 54.3945 -16.2109 C 55.7617 -17.5293 55.7129 -19.6777 54.4434 -20.8984 L 39.0625 -35.2051 L 54.4434 -49.4629 C 55.7617 -50.6836 55.7129 -52.8809 54.3457 -54.1504 C 53.125 -55.3223 51.0742 -55.2246 49.7559 -54.0039 L 34.2285 -39.502 C 31.7871 -37.207 31.7871 -33.1543 34.2285 -30.9082 L 49.7559 -16.3574 C 50.9766 -15.2344 53.2715 -15.1367 54.3945 -16.2109 Z"/>
  </g>
  <g id="Medium-S" transform="matrix(1 0 0 1 1700.63 696)">
   <path d="M 22.8516 0.976562 L 68.9941 0.976562 C 77.6367 0.976562 82.0801 -3.4668 82.0801 -11.9629 L 82.0801 -58.3984 C 82.0801 -66.9434 77.6367 -71.3867 68.9941 -71.3867 L 22.8516 -71.3867 C 14.2578 -71.3867 9.76562 -66.9434 9.76562 -58.3984 L 9.76562 -11.9629 C 9.76562 -3.4668 14.2578 0.976562 22.8516 0.976562 Z M 23.4375 -7.71484 C 20.2148 -7.71484 18.4082 -9.375 18.4082 -12.793 L 18.4082 -57.6172 C 18.4082 -61.0352 20.2148 -62.6953 23.4375 -62.6953 L 68.4082 -62.6953 C 71.6309 -62.6953 73.4375 -61.0352 73.4375 -57.6172 L 73.4375 -12.793 C 73.4375 -9.375 71.6309 -7.71484 68.4082 -7.71484 Z M 54.7852 -16.7969 C 56.25 -18.2129 56.2012 -20.5078 54.7852 -21.8262 L 40.4297 -35.2051 L 54.7852 -48.584 C 56.2012 -49.9023 56.1523 -52.2461 54.6875 -53.6133 C 53.3691 -54.834 51.2207 -54.7852 49.8047 -53.4668 L 34.9609 -39.5996 C 32.4707 -37.2559 32.4707 -33.1055 34.9609 -30.8105 L 49.8047 -16.8945 C 51.0742 -15.7227 53.5645 -15.625 54.7852 -16.7969 Z"/>
  </g>
  <g id="Semibold-S" transform="matrix(1 0 0 1 1996.9 696)">
   <path d="M 23.3398 1.41602 L 69.3848 1.41602 C 78.2227 1.41602 82.959 -3.32031 82.959 -12.0605 L 82.959 -58.3496 C 82.959 -67.0898 78.2227 -71.8262 69.3848 -71.8262 L 23.3398 -71.8262 C 14.5508 -71.8262 9.76562 -67.0898 9.76562 -58.3496 L 9.76562 -12.0605 C 9.76562 -3.32031 14.5508 1.41602 23.3398 1.41602 Z M 24.3164 -8.49609 C 21.2891 -8.49609 19.6777 -10.0098 19.6777 -13.1836 L 19.6777 -57.2266 C 19.6777 -60.4004 21.2891 -61.9141 24.3164 -61.9141 L 68.457 -61.9141 C 71.4355 -61.9141 73.0469 -60.4004 73.0469 -57.2266 L 73.0469 -13.1836 C 73.0469 -10.0098 71.4355 -8.49609 68.457 -8.49609 Z M 55.0781 -17.2363 C 56.6406 -18.75 56.543 -21.1426 55.0781 -22.5098 L 41.4551 -35.2051 L 55.0781 -47.9004 C 56.5918 -49.3164 56.543 -51.7578 54.9805 -53.1738 C 53.6133 -54.4922 51.3184 -54.4434 49.8535 -53.0762 L 35.498 -39.6973 C 32.959 -37.3047 32.959 -33.0566 35.498 -30.7129 L 49.8535 -17.334 C 51.2207 -16.0645 53.8086 -16.0156 55.0781 -17.2363 Z"/>
  </g>
  <g id="Bold-S" transform="matrix(1 0 0 1 2293.01 696)">
   <path d="M 23.9746 2.00195 L 69.9219 2.00195 C 79.0527 2.00195 84.1797 -3.07617 84.1797 -12.1582 L 84.1797 -58.252 C 84.1797 -67.334 79.0527 -72.4121 69.9219 -72.4121 L 23.9746 -72.4121 C 14.8926 -72.4121 9.76562 -67.334 9.76562 -58.252 L 9.76562 -12.1582 C 9.76562 -3.07617 14.8926 2.00195 23.9746 2.00195 Z M 25.4395 -9.57031 C 22.7051 -9.57031 21.3379 -10.791 21.3379 -13.7207 L 21.3379 -56.6895 C 21.3379 -59.5703 22.7051 -60.8398 25.4395 -60.8398 L 68.457 -60.8398 C 71.1914 -60.8398 72.6074 -59.5703 72.6074 -56.6895 L 72.6074 -13.7207 C 72.6074 -10.791 71.1914 -9.57031 68.457 -9.57031 Z M 55.4688 -17.8223 C 57.1289 -19.4824 57.0312 -22.0215 55.4688 -23.4863 L 42.8223 -35.2539 L 55.4688 -46.9727 C 57.0312 -48.4863 57.0312 -51.123 55.3711 -52.6367 C 53.9062 -54.0039 51.4648 -54.0527 49.9023 -52.5391 L 36.2305 -39.7949 C 33.6426 -37.4023 33.6426 -33.0566 36.2305 -30.6152 L 49.9023 -17.8711 C 51.3184 -16.5527 54.1016 -16.5039 55.4688 -17.8223 Z"/>
  </g>
  <g id="Heavy-S" transform="matrix(1 0 0 1 2588.86 696)">
   <path d="M 24.9023 2.83203 L 70.7031 2.83203 C 80.2246 2.83203 85.8887 -2.7832 85.8887 -12.3047 L 85.8887 -58.1055 C 85.8887 -67.627 80.2246 -73.2422 70.7031 -73.2422 L 24.9023 -73.2422 C 15.3809 -73.2422 9.76562 -67.627 9.76562 -58.1055 L 9.76562 -12.3047 C 9.76562 -2.7832 15.3809 2.83203 24.9023 2.83203 Z M 27.0996 -11.084 C 24.8047 -11.084 23.6816 -12.0117 23.6816 -14.502 L 23.6816 -55.9082 C 23.6816 -58.3984 24.8047 -59.3262 27.0996 -59.3262 L 68.5547 -59.3262 C 70.8496 -59.3262 71.9238 -58.3984 71.9238 -55.9082 L 71.9238 -14.502 C 71.9238 -12.0117 70.8496 -11.084 68.5547 -11.084 Z M 56.0059 -18.6523 C 57.8613 -20.459 57.7148 -23.2422 56.0059 -24.8047 L 44.7754 -35.2539 L 56.0059 -45.7031 C 57.7148 -47.3145 57.7148 -50.1953 55.9082 -51.8555 C 54.2969 -53.3203 51.709 -53.418 49.9512 -51.7578 L 37.3047 -39.9902 C 34.6191 -37.4512 34.668 -32.959 37.3047 -30.4688 L 49.9512 -18.7012 C 51.5625 -17.2363 54.5898 -17.1875 56.0059 -18.6523 Z"/>
  </g>
  <g id="Black-S" transform="matrix(1 0 0 1 2884.82 696)">
   <path d="M 25.7324 3.61328 L 71.4355 3.61328 C 81.2988 3.61328 87.4023 -2.49023 87.4023 -12.4023 L 87.4023 -58.0078 C 87.4023 -67.9199 81.2988 -74.0234 71.4355 -74.0234 L 25.7324 -74.0234 C 15.8203 -74.0234 9.76562 -67.9199 9.76562 -58.0078 L 9.76562 -12.4023 C 9.76562 -2.49023 15.8203 3.61328 25.7324 3.61328 Z M 28.5645 -12.4512 C 26.6602 -12.4512 25.8301 -13.0371 25.8301 -15.1855 L 25.8301 -55.2246 C 25.8301 -57.373 26.6602 -57.959 28.5645 -57.959 L 68.6035 -57.959 C 70.5078 -57.959 71.3379 -57.373 71.3379 -55.2246 L 71.3379 -15.1855 C 71.3379 -13.0371 70.5078 -12.4512 68.6035 -12.4512 Z M 56.543 -19.3848 C 58.4961 -21.3867 58.3496 -24.3164 56.4453 -26.0254 L 46.5332 -35.2539 L 56.4453 -44.5312 C 58.3496 -46.2891 58.3496 -49.3164 56.3477 -51.1719 C 54.6387 -52.6855 51.8555 -52.832 50 -51.0742 L 38.2812 -40.1367 C 35.5469 -37.5488 35.5469 -32.9102 38.2812 -30.3223 L 50 -19.4336 C 51.709 -17.8711 54.9805 -17.8223 56.543 -19.3848 Z"/>
  </g>
  <g id="Ultralight-M" transform="matrix(1 0 0 1 504.535 1126)">
   <path d="M 25 7.56836 L 85.3516 7.56836 C 93.5547 7.56836 97.9004 3.125 97.9004 -4.98047 L 97.9004 -65.2832 C 97.9004 -73.3887 93.5547 -77.832 85.3516 -77.832 L 25 -77.832 C 16.7969 -77.832 12.4512 -73.4863 12.4512 -65.2832 L 12.4512 -4.98047 C 12.4512 3.22266 16.7969 7.56836 25 7.56836 Z M 25.1465 5.17578 C 18.3594 5.17578 14.8438 1.66016 14.8438 -5.07812 L 14.8438 -65.1855 C 14.8438 -71.9727 18.3594 -75.4395 25.1465 -75.4395 L 85.2051 -75.4395 C 91.748 -75.4395 95.5078 -71.9727 95.5078 -65.1855 L 95.5078 -5.07812 C 95.5078 1.66016 91.748 5.17578 85.2051 5.17578 Z M 65.8203 -11.4746 C 66.2598 -11.8652 66.3574 -12.793 65.7715 -13.3301 L 43.4082 -35.2539 L 65.7715 -57.1777 C 66.3574 -57.7637 66.2598 -58.6426 65.8203 -59.082 C 65.2344 -59.668 64.502 -59.6191 63.8672 -59.082 L 41.2109 -36.7676 C 40.1855 -35.791 40.2344 -34.7168 41.2109 -33.7402 L 63.8672 -11.4746 C 64.502 -10.8887 65.2344 -10.8398 65.8203 -11.4746 Z"/>
  </g>
  <g id="Thin-M" transform="matrix(1 0 0 1 800.734 1126)">
   <path d="M 25.6348 8.05664 L 85.7422 8.05664 C 94.3848 8.05664 98.9258 3.4668 98.9258 -5.0293 L 98.9258 -65.2344 C 98.9258 -73.7305 94.3848 -78.3691 85.7422 -78.3691 L 25.6348 -78.3691 C 16.9922 -78.3691 12.4512 -73.877 12.4512 -65.2344 L 12.4512 -5.0293 C 12.4512 3.56445 16.9922 8.05664 25.6348 8.05664 Z M 25.7324 4.44336 C 19.4336 4.44336 16.1133 1.12305 16.1133 -5.22461 L 16.1133 -65.0391 C 16.1133 -71.4355 19.4336 -74.7559 25.7324 -74.7559 L 85.5957 -74.7559 C 91.748 -74.7559 95.2637 -71.4355 95.2637 -65.0391 L 95.2637 -5.22461 C 95.2637 1.12305 91.748 4.44336 85.5957 4.44336 Z M 66.5039 -11.377 C 67.1387 -12.0117 67.2363 -13.2812 66.4551 -14.0137 L 44.6289 -35.2539 L 66.4551 -56.4941 C 67.2852 -57.2266 67.1387 -58.4961 66.5039 -59.1309 C 65.6738 -59.9121 64.6484 -59.8145 63.8184 -59.082 L 41.6992 -37.5 C 40.2832 -36.1816 40.332 -34.3262 41.6992 -33.0078 L 63.8184 -11.377 C 64.5996 -10.6934 65.7227 -10.5957 66.5039 -11.377 Z"/>
  </g>
  <g id="Light-M" transform="matrix(1 0 0 1 1096.47 1126)">
   <path d="M 26.8555 9.0332 L 86.4746 9.0332 C 96.0449 9.0332 100.879 4.15039 100.879 -5.22461 L 100.879 -65.0879 C 100.879 -74.5117 96.0449 -79.3945 86.4746 -79.3945 L 26.8555 -79.3945 C 17.334 -79.3945 12.4512 -74.5605 12.4512 -65.0879 L 12.4512 -5.22461 C 12.4512 4.19922 17.334 9.0332 26.8555 9.0332 Z M 27.002 2.97852 C 21.4844 2.97852 18.5059 0.0976562 18.5059 -5.56641 L 18.5059 -64.7949 C 18.5059 -70.4102 21.4844 -73.3398 27.002 -73.3398 L 86.377 -73.3398 C 91.748 -73.3398 94.8242 -70.4102 94.8242 -64.7949 L 94.8242 -5.56641 C 94.8242 0.0976562 91.748 2.97852 86.377 2.97852 Z M 67.8223 -11.1816 C 68.9453 -12.3047 68.9941 -14.209 67.8223 -15.332 L 46.9727 -35.2051 L 67.8223 -55.127 C 68.9941 -56.2012 68.9453 -58.1543 67.7734 -59.2285 C 66.6504 -60.3516 64.8926 -60.2539 63.6719 -59.1309 L 42.5781 -38.916 C 40.3809 -36.8652 40.4297 -33.5449 42.5781 -31.4941 L 63.6719 -11.2793 C 64.7949 -10.2539 66.748 -10.1562 67.8223 -11.1816 Z"/>
  </g>
  <g id="Regular-M" transform="matrix(1 0 0 1 1392.42 1126)">
   <path d="M 27.7832 9.76562 L 87.0605 9.76562 C 97.2656 9.76562 102.344 4.6875 102.344 -5.37109 L 102.344 -64.9902 C 102.344 -75.0488 97.2656 -80.127 87.0605 -80.127 L 27.7832 -80.127 C 17.627 -80.127 12.4512 -75.0977 12.4512 -64.9902 L 12.4512 -5.37109 C 12.4512 4.73633 17.627 9.76562 27.7832 9.76562 Z M 27.9297 1.9043 C 23.0469 1.9043 20.3125 -0.683594 20.3125 -5.76172 L 20.3125 -64.5996 C 20.3125 -69.6777 23.0469 -72.2656 27.9297 -72.2656 L 86.9141 -72.2656 C 91.748 -72.2656 94.4824 -69.6777 94.4824 -64.5996 L 94.4824 -5.76172 C 94.4824 -0.683594 91.748 1.9043 86.9141 1.9043 Z M 68.7988 -11.084 C 70.3125 -12.5 70.3125 -14.9414 68.8477 -16.3086 L 48.7793 -35.2051 L 68.8477 -54.0527 C 70.3613 -55.4688 70.2637 -57.9102 68.75 -59.3262 C 67.334 -60.6445 65.0879 -60.5469 63.5742 -59.1797 L 43.2617 -39.9902 C 40.4785 -37.4512 40.5273 -32.959 43.2617 -30.3711 L 63.5742 -11.2305 C 64.9414 -9.91211 67.4805 -9.81445 68.7988 -11.084 Z"/>
  </g>
  <g id="Medium-M" transform="matrix(1 0 0 1 1688.45 1126)">
   <path d="M 28.5645 10.4492 L 87.6465 10.4492 C 98.2422 10.4492 103.711 4.98047 103.711 -5.46875 L 103.711 -64.8926 C 103.711 -75.3418 98.2422 -80.8105 87.6465 -80.8105 L 28.5645 -80.8105 C 17.9688 -80.8105 12.4512 -75.3906 12.4512 -64.8926 L 12.4512 -5.46875 C 12.4512 4.98047 17.9688 10.4492 28.5645 10.4492 Z M 29.1504 0.732422 C 24.6582 0.732422 22.2168 -1.61133 22.2168 -6.34766 L 22.2168 -64.0137 C 22.2168 -68.75 24.6582 -71.0938 29.1504 -71.0938 L 87.0117 -71.0938 C 91.5039 -71.0938 93.9941 -68.75 93.9941 -64.0137 L 93.9941 -6.34766 C 93.9941 -1.61133 91.5039 0.732422 87.0117 0.732422 Z M 69.3359 -11.6211 C 70.9961 -13.2324 70.9473 -15.8691 69.3359 -17.3828 L 50.3418 -35.2051 L 69.3359 -53.0273 C 70.9961 -54.541 70.8984 -57.2266 69.2383 -58.7891 C 67.7246 -60.2051 65.2344 -60.1562 63.623 -58.6426 L 44.0918 -40.2344 C 41.2109 -37.5488 41.2109 -32.8125 44.0918 -30.127 L 63.623 -11.7676 C 65.0879 -10.3516 67.9199 -10.2539 69.3359 -11.6211 Z"/>
  </g>
  <g id="Semibold-M" transform="matrix(1 0 0 1 1984.65 1126)">
   <path d="M 29.1016 10.9863 L 88.1348 10.9863 C 98.9746 10.9863 104.785 5.17578 104.785 -5.56641 L 104.785 -64.8438 C 104.785 -75.5859 98.9746 -81.3477 88.1348 -81.3477 L 29.1016 -81.3477 C 18.3105 -81.3477 12.4512 -75.5859 12.4512 -64.8438 L 12.4512 -5.56641 C 12.4512 5.22461 18.3105 10.9863 29.1016 10.9863 Z M 30.127 -0.195312 C 25.9277 -0.195312 23.6328 -2.34375 23.6328 -6.78711 L 23.6328 -63.623 C 23.6328 -68.0664 25.9277 -70.166 30.127 -70.166 L 87.1094 -70.166 C 91.3086 -70.166 93.6035 -68.0664 93.6035 -63.623 L 93.6035 -6.78711 C 93.6035 -2.34375 91.3086 -0.195312 87.1094 -0.195312 Z M 69.7266 -12.0605 C 71.4844 -13.8184 71.4355 -16.6016 69.7266 -18.2129 L 51.5625 -35.2051 L 69.7266 -52.2461 C 71.4355 -53.8574 71.3867 -56.6895 69.6289 -58.3496 C 68.0176 -59.8633 65.3809 -59.8633 63.623 -58.2031 L 44.7266 -40.4297 C 41.748 -37.6465 41.748 -32.7637 44.7266 -29.9805 L 63.623 -12.1582 C 65.2344 -10.6934 68.2129 -10.5957 69.7266 -12.0605 Z"/>
  </g>
  <g id="Bold-M" transform="matrix(1 0 0 1 2280.65 1126)">
   <path d="M 29.8828 11.6699 L 88.7207 11.6699 C 100 11.6699 106.152 5.46875 106.152 -5.66406 L 106.152 -64.6973 C 106.152 -75.8789 100 -82.0312 88.7207 -82.0312 L 29.8828 -82.0312 C 18.6523 -82.0312 12.4512 -75.8789 12.4512 -64.6973 L 12.4512 -5.66406 C 12.4512 5.51758 18.6523 11.6699 29.8828 11.6699 Z M 31.3965 -1.41602 C 27.5879 -1.41602 25.5371 -3.27148 25.5371 -7.32422 L 25.5371 -63.0371 C 25.5371 -67.1387 27.5879 -68.9453 31.3965 -68.9453 L 87.207 -68.9453 C 91.0156 -68.9453 93.1152 -67.1387 93.1152 -63.0371 L 93.1152 -7.32422 C 93.1152 -3.27148 91.0156 -1.41602 87.207 -1.41602 Z M 70.2148 -12.6465 C 72.168 -14.5508 72.0703 -17.5293 70.2148 -19.2871 L 53.1738 -35.2539 L 70.2148 -51.1719 C 72.1191 -52.9297 72.0703 -56.0059 70.1172 -57.8125 C 68.3594 -59.4238 65.5762 -59.4238 63.6719 -57.666 L 45.5566 -40.6738 C 42.4316 -37.793 42.4316 -32.6172 45.5566 -29.7363 L 63.6719 -12.7441 C 65.3809 -11.1328 68.6523 -11.084 70.2148 -12.6465 Z"/>
  </g>
  <g id="Heavy-M" transform="matrix(1 0 0 1 2576.36 1126)">
   <path d="M 31.0059 12.6465 L 89.6484 12.6465 C 101.416 12.6465 108.154 5.9082 108.154 -5.81055 L 108.154 -64.5508 C 108.154 -76.2695 101.416 -83.0566 89.6484 -83.0566 L 31.0059 -83.0566 C 19.2383 -83.0566 12.4512 -76.3184 12.4512 -64.5508 L 12.4512 -5.81055 C 12.4512 5.9082 19.2383 12.6465 31.0059 12.6465 Z M 33.252 -3.17383 C 29.9805 -3.17383 28.2715 -4.63867 28.2715 -8.1543 L 28.2715 -62.207 C 28.2715 -65.7715 29.9805 -67.2363 33.252 -67.2363 L 87.3535 -67.2363 C 90.6738 -67.2363 92.334 -65.7715 92.334 -62.207 L 92.334 -8.1543 C 92.334 -4.63867 90.6738 -3.17383 87.3535 -3.17383 Z M 70.9961 -13.4766 C 73.1445 -15.625 72.998 -18.9453 70.9473 -20.8496 L 55.5176 -35.2539 L 70.9473 -49.6582 C 72.998 -51.6113 72.998 -55.0293 70.8496 -57.0312 C 68.8965 -58.7891 65.8203 -58.8379 63.7207 -56.8848 L 46.7773 -41.0645 C 43.457 -37.9883 43.5059 -32.4707 46.7773 -29.3945 L 63.7207 -13.5254 C 65.625 -11.8164 69.2383 -11.7188 70.9961 -13.4766 Z"/>
  </g>
  <g id="Black-M" transform="matrix(1 0 0 1 2872.19 1126)">
   <path d="M 31.9824 13.5742 L 90.4297 13.5742 C 102.686 13.5742 109.961 6.29883 109.961 -5.95703 L 109.961 -64.4043 C 109.961 -76.6602 102.686 -83.9355 90.4297 -83.9355 L 31.9824 -83.9355 C 19.7266 -83.9355 12.4512 -76.6602 12.4512 -64.4043 L 12.4512 -5.95703 C 12.4512 6.29883 19.7266 13.5742 31.9824 13.5742 Z M 34.9121 -4.73633 C 32.0801 -4.73633 30.7617 -5.81055 30.7617 -8.88672 L 30.7617 -61.4746 C 30.7617 -64.5508 32.0801 -65.6738 34.9121 -65.6738 L 87.5 -65.6738 C 90.332 -65.6738 91.6992 -64.5508 91.6992 -61.4746 L 91.6992 -8.88672 C 91.6992 -5.81055 90.332 -4.73633 87.5 -4.73633 Z M 71.6797 -14.209 C 74.0234 -16.6016 73.8281 -20.166 71.582 -22.2168 L 57.5684 -35.2539 L 71.582 -48.291 C 73.8281 -50.4395 73.8281 -54.1016 71.4844 -56.2988 C 69.3848 -58.2031 66.0156 -58.3008 63.7695 -56.2012 L 47.8516 -41.3574 C 44.3848 -38.1348 44.3848 -32.3242 47.8516 -29.1016 L 63.7695 -14.2578 C 65.8203 -12.4023 69.7754 -12.3535 71.6797 -14.209 Z"/>
  </g>
  <g id="Ultralight-L" transform="matrix(1 0 0 1 488.739 1556)">
   <path d="M 31.9824 19.7754 L 109.961 19.7754 C 120.361 19.7754 125.879 14.0625 125.879 3.85742 L 125.879 -74.0723 C 125.879 -84.2773 120.361 -89.9902 109.961 -89.9902 L 31.9824 -89.9902 C 21.6309 -89.9902 16.0645 -84.4727 16.0645 -74.0723 L 16.0645 3.85742 C 16.0645 14.2578 21.6309 19.7754 31.9824 19.7754 Z M 32.1289 17.2363 C 23.2422 17.2363 18.6523 12.6465 18.6523 3.75977 L 18.6523 -73.9258 C 18.6523 -82.8125 23.2422 -87.4512 32.1289 -87.4512 L 109.814 -87.4512 C 118.359 -87.4512 123.34 -82.8125 123.34 -73.9258 L 123.34 3.75977 C 123.34 12.6465 118.359 17.2363 109.814 17.2363 Z M 84.6191 -4.58984 C 85.0586 -5.0293 85.2539 -6.05469 84.5703 -6.68945 L 55.4688 -35.2539 L 84.5703 -63.8672 C 85.2539 -64.502 85.0586 -65.5273 84.668 -65.9668 C 83.9355 -66.6504 83.1543 -66.6016 82.4707 -65.9668 L 52.9785 -36.8652 C 51.8555 -35.791 51.9043 -34.7656 52.9785 -33.6914 L 82.4707 -4.58984 C 83.2031 -3.95508 83.9355 -3.85742 84.6191 -4.58984 Z"/>
  </g>
  <g id="Thin-L" transform="matrix(1 0 0 1 784.889 1556)">
   <path d="M 32.7148 20.3613 L 110.4 20.3613 C 121.289 20.3613 127.002 14.4531 127.002 3.75977 L 127.002 -73.9746 C 127.002 -84.7168 121.289 -90.5762 110.4 -90.5762 L 32.7148 -90.5762 C 21.8262 -90.5762 16.0645 -84.8633 16.0645 -73.9746 L 16.0645 3.75977 C 16.0645 14.6484 21.8262 20.3613 32.7148 20.3613 Z M 32.8613 16.4062 C 24.4141 16.4062 20.0195 12.0117 20.0195 3.56445 L 20.0195 -73.7793 C 20.0195 -82.2754 24.4141 -86.6699 32.8613 -86.6699 L 110.254 -86.6699 C 118.359 -86.6699 123.096 -82.2754 123.096 -73.7793 L 123.096 3.56445 C 123.096 12.0117 118.359 16.4062 110.254 16.4062 Z M 85.4004 -4.49219 C 86.084 -5.17578 86.2305 -6.5918 85.3027 -7.42188 L 56.8359 -35.2539 L 85.3027 -63.0859 C 86.2305 -63.916 86.084 -65.332 85.4004 -66.0156 C 84.4727 -66.9434 83.3008 -66.8457 82.373 -66.0156 L 53.5156 -37.6953 C 51.9043 -36.2305 52.002 -34.3262 53.5156 -32.8125 L 82.373 -4.54102 C 83.3008 -3.71094 84.5215 -3.61328 85.4004 -4.49219 Z"/>
  </g>
  <g id="Light-L" transform="matrix(1 0 0 1 1080.5 1556)">
   <path d="M 34.082 21.4355 L 111.23 21.4355 C 123.096 21.4355 129.199 15.2344 129.199 3.56445 L 129.199 -73.8281 C 129.199 -85.5469 123.096 -91.6992 111.23 -91.6992 L 34.082 -91.6992 C 22.2168 -91.6992 16.0645 -85.6445 16.0645 -73.8281 L 16.0645 3.56445 C 16.0645 15.3809 22.2168 21.4355 34.082 21.4355 Z M 34.2285 14.7949 C 26.709 14.7949 22.7051 10.8398 22.7051 3.22266 L 22.7051 -73.4863 C 22.7051 -81.1523 26.709 -85.0586 34.2285 -85.0586 L 111.084 -85.0586 C 118.359 -85.0586 122.607 -81.1523 122.607 -73.4863 L 122.607 3.22266 C 122.607 10.8398 118.359 14.7949 111.084 14.7949 Z M 86.8652 -4.29688 C 88.0859 -5.51758 88.1836 -7.66602 86.8164 -8.88672 L 59.4727 -35.2539 L 86.8164 -61.5723 C 88.1836 -62.793 88.0859 -64.9414 86.8164 -66.1621 C 85.5469 -67.4316 83.5938 -67.2852 82.2266 -66.0645 L 54.4922 -39.3066 C 52.0508 -37.0117 52.0996 -33.4473 54.4922 -31.1523 L 82.2266 -4.39453 C 83.4961 -3.22266 85.6445 -3.07617 86.8652 -4.29688 Z"/>
  </g>
  <g id="Regular-L" transform="matrix(1 0 0 1 1376.36 1556)">
   <path d="M 35.1074 22.2168 L 111.865 22.2168 C 124.512 22.2168 130.859 15.8691 130.859 3.41797 L 130.859 -73.7305 C 130.859 -86.1816 124.512 -92.5293 111.865 -92.5293 L 35.1074 -92.5293 C 22.5098 -92.5293 16.0645 -86.2305 16.0645 -73.7305 L 16.0645 3.41797 C 16.0645 15.918 22.5098 22.2168 35.1074 22.2168 Z M 35.2539 13.5742 C 28.4668 13.5742 24.7559 9.96094 24.7559 2.97852 L 24.7559 -73.291 C 24.7559 -80.2734 28.4668 -83.8867 35.2539 -83.8867 L 111.67 -83.8867 C 118.359 -83.8867 122.217 -80.2734 122.217 -73.291 L 122.217 2.97852 C 122.217 9.96094 118.359 13.5742 111.67 13.5742 Z M 87.9883 -4.15039 C 89.5996 -5.76172 89.6484 -8.44727 87.9883 -10.0098 L 61.4746 -35.2051 L 87.9883 -60.4004 C 89.6973 -61.9629 89.5508 -64.6973 87.9395 -66.2598 C 86.3281 -67.7734 83.8379 -67.6758 82.1289 -66.1133 L 55.2734 -40.4785 C 52.1484 -37.6465 52.1973 -32.7637 55.2734 -29.8828 L 82.1289 -4.29688 C 83.6914 -2.83203 86.4746 -2.68555 87.9883 -4.15039 Z"/>
  </g>
  <g id="Medium-L" transform="matrix(1 0 0 1 1672.31 1556)">
   <path d="M 35.9863 22.998 L 112.549 22.998 C 125.635 22.998 132.422 16.2109 132.422 3.27148 L 132.422 -73.6328 C 132.422 -86.5234 125.635 -93.3105 112.549 -93.3105 L 35.9863 -93.3105 C 22.9004 -93.3105 16.0645 -86.5723 16.0645 -73.6328 L 16.0645 3.27148 C 16.0645 16.2598 22.9004 22.998 35.9863 22.998 Z M 36.6211 12.2559 C 30.2734 12.2559 26.8066 8.98438 26.8066 2.39258 L 26.8066 -72.7051 C 26.8066 -79.2969 30.2734 -82.6172 36.6211 -82.6172 L 111.914 -82.6172 C 118.164 -82.6172 121.68 -79.2969 121.68 -72.7051 L 121.68 2.39258 C 121.68 8.98438 118.164 12.2559 111.914 12.2559 Z M 88.623 -4.63867 C 90.5273 -6.44531 90.4785 -9.47266 88.6719 -11.1816 L 63.2812 -35.2051 L 88.6719 -59.2285 C 90.5273 -60.9863 90.4297 -64.0137 88.5742 -65.7715 C 86.8164 -67.4316 84.0332 -67.334 82.1289 -65.625 L 56.1523 -40.918 C 52.832 -37.8418 52.8809 -32.5684 56.1523 -29.4434 L 82.1289 -4.78516 C 83.8379 -3.17383 87.0117 -3.07617 88.623 -4.63867 Z"/>
  </g>
  <g id="Semibold-L" transform="matrix(1 0 0 1 1968.41 1556)">
   <path d="M 36.6699 23.584 L 113.037 23.584 C 126.514 23.584 133.594 16.5039 133.594 3.17383 L 133.594 -73.5352 C 133.594 -86.8164 126.514 -93.9453 113.037 -93.9453 L 36.6699 -93.9453 C 23.2422 -93.9453 16.0645 -86.8652 16.0645 -73.5352 L 16.0645 3.17383 C 16.0645 16.5527 23.2422 23.584 36.6699 23.584 Z M 37.6465 11.2793 C 31.6406 11.2793 28.418 8.20312 28.418 1.95312 L 28.418 -72.3145 C 28.418 -78.5156 31.6406 -81.5918 37.6465 -81.5918 L 112.061 -81.5918 C 117.969 -81.5918 121.289 -78.5156 121.289 -72.3145 L 121.289 1.95312 C 121.289 8.20312 117.969 11.2793 112.061 11.2793 Z M 89.1602 -5.0293 C 91.2109 -7.03125 91.1133 -10.2051 89.1602 -12.0605 L 64.6484 -35.2051 L 89.1602 -58.3496 C 91.1621 -60.2051 91.1133 -63.4766 89.0625 -65.3809 C 87.1582 -67.1875 84.1797 -67.1387 82.1289 -65.2344 L 56.8359 -41.2598 C 53.3203 -38.0371 53.3691 -32.373 56.8359 -29.1016 L 82.1289 -5.17578 C 83.9844 -3.41797 87.4023 -3.32031 89.1602 -5.0293 Z"/>
  </g>
  <g id="Bold-L" transform="matrix(1 0 0 1 2264.34 1556)">
   <path d="M 37.5488 24.3652 L 113.721 24.3652 C 127.686 24.3652 135.205 16.8945 135.205 3.07617 L 135.205 -73.3887 C 135.205 -87.207 127.686 -94.7266 113.721 -94.7266 L 37.5488 -94.7266 C 23.6328 -94.7266 16.0645 -87.2559 16.0645 -73.3887 L 16.0645 3.07617 C 16.0645 16.8945 23.6328 24.3652 37.5488 24.3652 Z M 38.9648 9.91211 C 33.4473 9.91211 30.5176 7.17773 30.5176 1.41602 L 30.5176 -71.7285 C 30.5176 -77.5391 33.4473 -80.2734 38.9648 -80.2734 L 112.256 -80.2734 C 117.725 -80.2734 120.752 -77.5391 120.752 -71.7285 L 120.752 1.41602 C 120.752 7.17773 117.725 9.91211 112.256 9.91211 Z M 89.8438 -5.51758 C 92.0898 -7.71484 91.9922 -11.2305 89.8438 -13.2812 L 66.5039 -35.2539 L 89.8438 -57.1777 C 92.041 -59.2285 91.9434 -62.8418 89.6973 -64.8926 C 87.6465 -66.8457 84.375 -66.7969 82.1777 -64.7461 L 57.7148 -41.748 C 54.0039 -38.2324 54.0039 -32.1289 57.7148 -28.6621 L 82.1777 -5.66406 C 84.1797 -3.75977 87.9395 -3.66211 89.8438 -5.51758 Z"/>
  </g>
  <g id="Heavy-L" transform="matrix(1 0 0 1 2559.91 1556)">
   <path d="M 38.8184 25.4883 L 114.697 25.4883 C 129.346 25.4883 137.451 17.4316 137.451 2.88086 L 137.451 -73.2422 C 137.451 -87.793 129.346 -95.8496 114.697 -95.8496 L 38.8184 -95.8496 C 24.2188 -95.8496 16.0645 -87.793 16.0645 -73.2422 L 16.0645 2.88086 C 16.0645 17.4316 24.2188 25.4883 38.8184 25.4883 Z M 40.9668 8.00781 C 36.1328 8.00781 33.5938 5.71289 33.5938 0.585938 L 33.5938 -70.9473 C 33.5938 -76.0742 36.1328 -78.3691 40.9668 -78.3691 L 112.598 -78.3691 C 117.383 -78.3691 119.971 -76.0742 119.971 -70.9473 L 119.971 0.585938 C 119.971 5.71289 117.383 8.00781 112.598 8.00781 Z M 90.8203 -6.25 C 93.4082 -8.78906 93.2617 -12.6953 90.7715 -14.9902 L 69.1406 -35.2539 L 90.7715 -55.4688 C 93.2617 -57.7637 93.2129 -61.8164 90.6738 -64.209 C 88.3789 -66.3574 84.668 -66.3574 82.1777 -64.0625 L 59.0332 -42.3828 C 54.9805 -38.5742 54.9805 -31.8359 59.0332 -28.0273 L 82.1777 -6.34766 C 84.4238 -4.29688 88.7207 -4.15039 90.8203 -6.25 Z"/>
  </g>
  <g id="Black-L" transform="matrix(1 0 0 1 2855.62 1556)">
   <path d="M 39.9902 26.5137 L 115.576 26.5137 C 130.859 26.5137 139.502 17.8711 139.502 2.68555 L 139.502 -73.0957 C 139.502 -88.2812 130.859 -96.875 115.576 -96.875 L 39.9902 -96.875 C 24.7559 -96.875 16.0645 -88.2812 16.0645 -73.0957 L 16.0645 2.68555 C 16.0645 17.8711 24.7559 26.5137 39.9902 26.5137 Z M 42.7246 6.29883 C 38.4766 6.29883 36.3281 4.39453 36.3281 -0.146484 L 36.3281 -70.2148 C 36.3281 -74.7559 38.4766 -76.6602 42.7246 -76.6602 L 112.842 -76.6602 C 117.09 -76.6602 119.238 -74.7559 119.238 -70.2148 L 119.238 -0.146484 C 119.238 4.39453 117.09 6.29883 112.842 6.29883 Z M 91.6992 -6.88477 C 94.5801 -9.7168 94.3359 -14.0625 91.6504 -16.5527 L 71.5332 -35.2539 L 91.6504 -53.9551 C 94.3848 -56.4941 94.3359 -60.9375 91.5039 -63.5742 C 89.0137 -65.8691 84.9121 -65.9668 82.1777 -63.4277 L 60.2051 -42.9688 C 55.8594 -38.8672 55.8594 -31.543 60.2051 -27.4414 L 82.1777 -7.03125 C 84.668 -4.73633 89.4043 -4.63867 91.6992 -6.88477 Z"/>
  </g>
 </g>
</svg>
