<?xml version="1.0" encoding="UTF-8"?>
<!--Generator: Apple Native CoreSVG 123-->
<!DOCTYPE svg
PUBLIC "-//W3C//DTD SVG 1.1//EN"
       "http://www.w3.org/Graphics/SVG/1.1/DTD/svg11.dtd">
<svg version="1.1" xmlns="http://www.w3.org/2000/svg" xmlns:xlink="http://www.w3.org/1999/xlink" width="3300" height="2200">
 <!--glyph: "uni100361.medium", point size: 100.000000, font version: "Version 15.0d4e20", template writer version: "2"-->
 <g id="Notes">
  <rect height="2200" id="artboard" style="fill:white;opacity:1" width="3300" x="0" y="0"/>
  <line id="" style="fill:none;stroke:black;opacity:1;stroke-width:0.5;" x1="263" x2="3036" y1="292" y2="292"/>
  <text style="stroke:none;fill:black;font-family:-apple-system,&quot;SF Pro Display&quot;,&quot;SF Pro Text&quot;,Helvetica,sans-serif;font-weight:bold;" transform="matrix(1 0 0 1 263 322)">Weight/Scale Variations</text>
  <text style="stroke:none;fill:black;font-family:-apple-system,&quot;SF Pro Display&quot;,&quot;SF Pro Text&quot;,Helvetica,sans-serif;text-anchor:middle;" transform="matrix(1 0 0 1 559.711 322)">Ultralight</text>
  <text style="stroke:none;fill:black;font-family:-apple-system,&quot;SF Pro Display&quot;,&quot;SF Pro Text&quot;,Helvetica,sans-serif;text-anchor:middle;" transform="matrix(1 0 0 1 856.422 322)">Thin</text>
  <text style="stroke:none;fill:black;font-family:-apple-system,&quot;SF Pro Display&quot;,&quot;SF Pro Text&quot;,Helvetica,sans-serif;text-anchor:middle;" transform="matrix(1 0 0 1 1153.13 322)">Light</text>
  <text style="stroke:none;fill:black;font-family:-apple-system,&quot;SF Pro Display&quot;,&quot;SF Pro Text&quot;,Helvetica,sans-serif;text-anchor:middle;" transform="matrix(1 0 0 1 1449.84 322)">Regular</text>
  <text style="stroke:none;fill:black;font-family:-apple-system,&quot;SF Pro Display&quot;,&quot;SF Pro Text&quot;,Helvetica,sans-serif;text-anchor:middle;" transform="matrix(1 0 0 1 1746.56 322)">Medium</text>
  <text style="stroke:none;fill:black;font-family:-apple-system,&quot;SF Pro Display&quot;,&quot;SF Pro Text&quot;,Helvetica,sans-serif;text-anchor:middle;" transform="matrix(1 0 0 1 2043.27 322)">Semibold</text>
  <text style="stroke:none;fill:black;font-family:-apple-system,&quot;SF Pro Display&quot;,&quot;SF Pro Text&quot;,Helvetica,sans-serif;text-anchor:middle;" transform="matrix(1 0 0 1 2339.98 322)">Bold</text>
  <text style="stroke:none;fill:black;font-family:-apple-system,&quot;SF Pro Display&quot;,&quot;SF Pro Text&quot;,Helvetica,sans-serif;text-anchor:middle;" transform="matrix(1 0 0 1 2636.69 322)">Heavy</text>
  <text style="stroke:none;fill:black;font-family:-apple-system,&quot;SF Pro Display&quot;,&quot;SF Pro Text&quot;,Helvetica,sans-serif;text-anchor:middle;" transform="matrix(1 0 0 1 2933.4 322)">Black</text>
  <line id="" style="fill:none;stroke:black;opacity:1;stroke-width:0.5;" x1="263" x2="3036" y1="1903" y2="1903"/>
  <g id="" transform="matrix(1 0 0 1 263 1933)">
   <path d="M 9.24805 0.830078 C 13.5547 0.830078 17.1387 -2.74414 17.1387 -7.05078 C 17.1387 -11.3574 13.5449 -14.9316 9.23828 -14.9316 C 4.94141 -14.9316 1.36719 -11.3574 1.36719 -7.05078 C 1.36719 -2.74414 4.95117 0.830078 9.24805 0.830078 Z M 9.24805 -0.654297 C 5.70312 -0.654297 2.87109 -3.49609 2.87109 -7.05078 C 2.87109 -10.6055 5.69336 -13.4473 9.23828 -13.4473 C 12.793 -13.4473 15.6348 -10.6055 15.6445 -7.05078 C 15.6543 -3.49609 12.8027 -0.654297 9.24805 -0.654297 Z M 9.22852 -3.42773 C 9.69727 -3.42773 9.9707 -3.74023 9.9707 -4.25781 L 9.9707 -6.31836 L 12.1973 -6.31836 C 12.6953 -6.31836 13.0371 -6.57227 13.0371 -7.04102 C 13.0371 -7.51953 12.7148 -7.7832 12.1973 -7.7832 L 9.9707 -7.7832 L 9.9707 -10.0098 C 9.9707 -10.5273 9.69727 -10.8496 9.22852 -10.8496 C 8.75977 -10.8496 8.50586 -10.5078 8.50586 -10.0098 L 8.50586 -7.7832 L 6.29883 -7.7832 C 5.78125 -7.7832 5.44922 -7.51953 5.44922 -7.04102 C 5.44922 -6.57227 5.80078 -6.31836 6.29883 -6.31836 L 8.50586 -6.31836 L 8.50586 -4.25781 C 8.50586 -3.75977 8.75977 -3.42773 9.22852 -3.42773 Z"/>
  </g>
  <g id="" transform="matrix(1 0 0 1 281.506 1933)">
   <path d="M 11.709 2.91016 C 17.1484 2.91016 21.6699 -1.60156 21.6699 -7.05078 C 21.6699 -12.4902 17.1387 -17.0117 11.6992 -17.0117 C 6.25 -17.0117 1.74805 -12.4902 1.74805 -7.05078 C 1.74805 -1.60156 6.25977 2.91016 11.709 2.91016 Z M 11.709 1.25 C 7.09961 1.25 3.41797 -2.44141 3.41797 -7.05078 C 3.41797 -11.6504 7.08984 -15.3516 11.6992 -15.3516 C 16.2988 -15.3516 20 -11.6504 20.0098 -7.05078 C 20.0195 -2.44141 16.3086 1.25 11.709 1.25 Z M 11.6797 -2.41211 C 12.207 -2.41211 12.5195 -2.77344 12.5195 -3.33984 L 12.5195 -6.23047 L 15.5762 -6.23047 C 16.123 -6.23047 16.5039 -6.51367 16.5039 -7.03125 C 16.5039 -7.55859 16.1426 -7.86133 15.5762 -7.86133 L 12.5195 -7.86133 L 12.5195 -10.9277 C 12.5195 -11.5039 12.207 -11.8555 11.6797 -11.8555 C 11.1621 -11.8555 10.8789 -11.4844 10.8789 -10.9277 L 10.8789 -7.86133 L 7.83203 -7.86133 C 7.25586 -7.86133 6.89453 -7.55859 6.89453 -7.03125 C 6.89453 -6.51367 7.28516 -6.23047 7.83203 -6.23047 L 10.8789 -6.23047 L 10.8789 -3.33984 C 10.8789 -2.79297 11.1621 -2.41211 11.6797 -2.41211 Z"/>
  </g>
  <g id="" transform="matrix(1 0 0 1 304.914 1933)">
   <path d="M 14.9707 5.67383 C 21.9336 5.67383 27.6855 -0.078125 27.6855 -7.04102 C 27.6855 -14.0039 21.9238 -19.7559 14.9609 -19.7559 C 7.99805 -19.7559 2.25586 -14.0039 2.25586 -7.04102 C 2.25586 -0.078125 8.00781 5.67383 14.9707 5.67383 Z M 14.9707 3.85742 C 8.92578 3.85742 4.08203 -1.00586 4.08203 -7.04102 C 4.08203 -13.0762 8.91602 -17.9395 14.9609 -17.9395 C 20.9961 -17.9395 25.8594 -13.0762 25.8691 -7.04102 C 25.8789 -1.00586 21.0059 3.85742 14.9707 3.85742 Z M 14.9414 -1.06445 C 15.5176 -1.06445 15.8594 -1.45508 15.8594 -2.06055 L 15.8594 -6.13281 L 20.0977 -6.13281 C 20.6934 -6.13281 21.1133 -6.46484 21.1133 -7.02148 C 21.1133 -7.59766 20.7227 -7.93945 20.0977 -7.93945 L 15.8594 -7.93945 L 15.8594 -12.1875 C 15.8594 -12.8027 15.5176 -13.1934 14.9414 -13.1934 C 14.3848 -13.1934 14.0625 -12.7832 14.0625 -12.1875 L 14.0625 -7.93945 L 9.82422 -7.93945 C 9.20898 -7.93945 8.80859 -7.59766 8.80859 -7.02148 C 8.80859 -6.46484 9.23828 -6.13281 9.82422 -6.13281 L 14.0625 -6.13281 L 14.0625 -2.06055 C 14.0625 -1.47461 14.3848 -1.06445 14.9414 -1.06445 Z"/>
  </g>
  <text style="stroke:none;fill:black;font-family:-apple-system,&quot;SF Pro Display&quot;,&quot;SF Pro Text&quot;,Helvetica,sans-serif;font-weight:bold;" transform="matrix(1 0 0 1 263 1953)">Design Variations</text>
  <text style="stroke:none;fill:black;font-family:-apple-system,&quot;SF Pro Display&quot;,&quot;SF Pro Text&quot;,Helvetica,sans-serif;" transform="matrix(1 0 0 1 263 1971)">Symbols are supported in up to nine weights and three scales.</text>
  <text style="stroke:none;fill:black;font-family:-apple-system,&quot;SF Pro Display&quot;,&quot;SF Pro Text&quot;,Helvetica,sans-serif;" transform="matrix(1 0 0 1 263 1989)">For optimal layout with text and other symbols, vertically align</text>
  <text style="stroke:none;fill:black;font-family:-apple-system,&quot;SF Pro Display&quot;,&quot;SF Pro Text&quot;,Helvetica,sans-serif;" transform="matrix(1 0 0 1 263 2007)">symbols with the adjacent text.</text>
  <rect height="14" id="" style="fill:#00AEEF;stroke:none;opacity:0.4;" width="3" x="776" y="1919"/>
  <g id="" transform="matrix(1 0 0 1 779 1933)">
   <path d="M 10.5273 0 L 12.373 0 L 7.17773 -14.0918 L 5.43945 -14.0918 L 0.244141 0 L 2.08984 0 L 3.50586 -4.0332 L 9.11133 -4.0332 Z M 6.2793 -11.9531 L 6.33789 -11.9531 L 8.59375 -5.52734 L 4.02344 -5.52734 Z"/>
  </g>
  <rect height="14" id="" style="fill:#00AEEF;stroke:none;opacity:0.4;" width="3" x="791.617" y="1919"/>
  <text style="stroke:none;fill:black;font-family:-apple-system,&quot;SF Pro Display&quot;,&quot;SF Pro Text&quot;,Helvetica,sans-serif;font-weight:bold;" transform="matrix(1 0 0 1 776 1953)">Side Bearings</text>
  <text style="stroke:none;fill:black;font-family:-apple-system,&quot;SF Pro Display&quot;,&quot;SF Pro Text&quot;,Helvetica,sans-serif;" transform="matrix(1 0 0 1 776 1971)">Horizontal padding on the left and right side of each symbol</text>
  <text style="stroke:none;fill:black;font-family:-apple-system,&quot;SF Pro Display&quot;,&quot;SF Pro Text&quot;,Helvetica,sans-serif;" transform="matrix(1 0 0 1 776 1989)">can be adjusted by modifying the width of the blue rectangles.</text>
  <text style="stroke:none;fill:black;font-family:-apple-system,&quot;SF Pro Display&quot;,&quot;SF Pro Text&quot;,Helvetica,sans-serif;" transform="matrix(1 0 0 1 776 2007)">Modifications are automatically applied proportionally to all</text>
  <text style="stroke:none;fill:black;font-family:-apple-system,&quot;SF Pro Display&quot;,&quot;SF Pro Text&quot;,Helvetica,sans-serif;" transform="matrix(1 0 0 1 776 2025)">scales and weights.</text>
  <g id="" transform="matrix(1 0 0 1 1289 1933)">
   <path d="M 2.96875 2.35352 L 3.80859 3.19336 C 4.84375 4.22852 6.12305 4.15039 7.19727 2.97852 L 16.1621 -6.82617 C 16.5527 -6.74805 16.9629 -6.8457 17.4902 -7.02148 C 18.1738 -7.25586 18.2715 -7.25586 18.3887 -7.13867 C 18.5352 -7.01172 18.4863 -6.89453 18.2422 -6.25 C 17.8809 -5.33203 17.8125 -4.79492 18.5547 -4.02344 L 19.4238 -3.13477 C 20.2734 -2.24609 21.3281 -2.26562 22.2168 -3.14453 L 25.0586 -5.97656 C 25.9473 -6.86523 25.957 -7.92969 25.0781 -8.7793 L 24.1797 -9.64844 C 23.4082 -10.4004 22.8711 -10.3516 21.9629 -9.98047 C 21.3184 -9.72656 21.2012 -9.6875 21.0645 -9.81445 C 20.9375 -9.93164 20.9473 -10.0391 21.1816 -10.7129 C 21.5332 -11.6895 21.5723 -12.2852 20.752 -13.0957 L 19.3359 -14.5117 C 15.1953 -18.6133 11.2305 -18.7402 7.65625 -15.4395 C 7.08008 -14.9023 6.99219 -14.1504 7.53906 -13.6133 L 7.79297 -13.3594 C 8.22266 -12.9297 8.86719 -12.8418 9.41406 -13.1152 C 11.0645 -13.9453 12.2559 -14.0234 13.457 -12.9785 L 13.0273 -11.416 C 12.8516 -10.8008 12.793 -10.3418 12.9199 -9.93164 L 3.18359 -1.04492 C 2.02148 0.0292969 1.93359 1.32812 2.96875 2.35352 Z M 8.96484 -14.4922 C 8.89648 -14.5703 8.86719 -14.6582 8.99414 -14.7559 C 11.709 -17.2852 15.0391 -16.8457 18.3496 -13.5254 L 19.6973 -12.168 C 20.0879 -11.7773 20.0977 -11.582 19.8828 -10.8691 C 19.6582 -10.127 19.502 -9.53125 20.1465 -8.88672 C 20.8105 -8.22266 21.2891 -8.41797 22.207 -8.63281 C 22.9004 -8.79883 23.0664 -8.79883 23.4473 -8.41797 L 24.0918 -7.77344 C 24.4043 -7.48047 24.4141 -7.32422 24.0723 -6.97266 L 21.2207 -4.13086 C 20.8887 -3.79883 20.7227 -3.79883 20.4297 -4.10156 L 19.7852 -4.75586 C 19.4141 -5.13672 19.4141 -5.30273 19.5801 -6.01562 C 19.7852 -6.88477 19.9805 -7.38281 19.3262 -8.04688 C 18.6719 -8.7207 18.0762 -8.57422 17.3438 -8.33008 C 16.5625 -8.06641 16.3281 -8.06641 15.8984 -8.49609 L 14.6094 -9.78516 C 14.1699 -10.2246 14.1309 -10.4395 14.2676 -10.9082 L 15.0293 -13.3984 C 13.3887 -15.2832 11.4941 -15.5566 9.20898 -14.4434 C 9.11133 -14.3945 9.04297 -14.4141 8.96484 -14.4922 Z M 3.96484 1.36719 C 3.52539 0.927734 3.54492 0.537109 4.14062 -0.00976562 L 13.7402 -8.81836 L 15 -7.55859 L 6.17188 2.02148 C 5.625 2.60742 5.24414 2.64648 4.79492 2.19727 Z"/>
  </g>
  <text style="stroke:none;fill:black;font-family:-apple-system,&quot;SF Pro Display&quot;,&quot;SF Pro Text&quot;,Helvetica,sans-serif;font-weight:bold;" transform="matrix(1 0 0 1 1289 1953)">Exporting</text>
  <text style="stroke:none;fill:black;font-family:-apple-system,&quot;SF Pro Display&quot;,&quot;SF Pro Text&quot;,Helvetica,sans-serif;" transform="matrix(1 0 0 1 1289 1971)">Symbols should be outlined when exporting to ensure the</text>
  <text style="stroke:none;fill:black;font-family:-apple-system,&quot;SF Pro Display&quot;,&quot;SF Pro Text&quot;,Helvetica,sans-serif;" transform="matrix(1 0 0 1 1289 1989)">design is preserved when submitting to Xcode.</text>
  <text id="template-version" style="stroke:none;fill:black;font-family:-apple-system,&quot;SF Pro Display&quot;,&quot;SF Pro Text&quot;,Helvetica,sans-serif;text-anchor:end;" transform="matrix(1 0 0 1 3036 1933)">Template v.0.1</text>
  <text style="stroke:none;fill:black;font-family:-apple-system,&quot;SF Pro Display&quot;,&quot;SF Pro Text&quot;,Helvetica,sans-serif;text-anchor:end;" transform="matrix(1 0 0 1 3036 1951)">Generated from ellipsis.circle</text>
  <text style="stroke:none;fill:black;font-family:-apple-system,&quot;SF Pro Display&quot;,&quot;SF Pro Text&quot;,Helvetica,sans-serif;text-anchor:end;" transform="matrix(1 0 0 1 3036 1969)">Typeset at 100 points</text>
  <text style="stroke:none;fill:black;font-family:-apple-system,&quot;SF Pro Display&quot;,&quot;SF Pro Text&quot;,Helvetica,sans-serif;" transform="matrix(1 0 0 1 263 726)">Small</text>
  <text style="stroke:none;fill:black;font-family:-apple-system,&quot;SF Pro Display&quot;,&quot;SF Pro Text&quot;,Helvetica,sans-serif;" transform="matrix(1 0 0 1 263 1156)">Medium</text>
  <text style="stroke:none;fill:black;font-family:-apple-system,&quot;SF Pro Display&quot;,&quot;SF Pro Text&quot;,Helvetica,sans-serif;" transform="matrix(1 0 0 1 263 1586)">Large</text>
 </g>
 <g id="Guides">
  <g id="H-reference" style="fill:#27AAE1;stroke:none;" transform="matrix(1 0 0 1 339 696)">
   <path d="M 54.9316 0 L 57.666 0 L 30.5664 -70.459 L 28.0762 -70.459 L 0.976562 0 L 3.66211 0 L 12.9395 -24.4629 L 45.7031 -24.4629 Z M 29.1992 -67.0898 L 29.4434 -67.0898 L 44.8242 -26.709 L 13.8184 -26.709 Z"/>
  </g>
  <line id="Baseline-S" style="fill:none;stroke:#27AAE1;opacity:1;stroke-width:0.577;" x1="263" x2="3036" y1="696" y2="696"/>
  <line id="Capline-S" style="fill:none;stroke:#27AAE1;opacity:1;stroke-width:0.577;" x1="263" x2="3036" y1="625.541" y2="625.541"/>
  <g id="H-reference" style="fill:#27AAE1;stroke:none;" transform="matrix(1 0 0 1 339 1126)">
   <path d="M 54.9316 0 L 57.666 0 L 30.5664 -70.459 L 28.0762 -70.459 L 0.976562 0 L 3.66211 0 L 12.9395 -24.4629 L 45.7031 -24.4629 Z M 29.1992 -67.0898 L 29.4434 -67.0898 L 44.8242 -26.709 L 13.8184 -26.709 Z"/>
  </g>
  <line id="Baseline-M" style="fill:none;stroke:#27AAE1;opacity:1;stroke-width:0.577;" x1="263" x2="3036" y1="1126" y2="1126"/>
  <line id="Capline-M" style="fill:none;stroke:#27AAE1;opacity:1;stroke-width:0.577;" x1="263" x2="3036" y1="1055.54" y2="1055.54"/>
  <g id="H-reference" style="fill:#27AAE1;stroke:none;" transform="matrix(1 0 0 1 339 1556)">
   <path d="M 54.9316 0 L 57.666 0 L 30.5664 -70.459 L 28.0762 -70.459 L 0.976562 0 L 3.66211 0 L 12.9395 -24.4629 L 45.7031 -24.4629 Z M 29.1992 -67.0898 L 29.4434 -67.0898 L 44.8242 -26.709 L 13.8184 -26.709 Z"/>
  </g>
  <line id="Baseline-L" style="fill:none;stroke:#27AAE1;opacity:1;stroke-width:0.577;" x1="263" x2="3036" y1="1556" y2="1556"/>
  <line id="Capline-L" style="fill:none;stroke:#27AAE1;opacity:1;stroke-width:0.577;" x1="263" x2="3036" y1="1485.54" y2="1485.54"/>
  <rect height="119.336" id="left-margin" style="fill:#00AEEF;stroke:none;opacity:0.4;" width="8.74023" x="1391.32" y="1030.79"/>
  <rect height="119.336" id="right-margin" style="fill:#00AEEF;stroke:none;opacity:0.4;" width="8.69141" x="1499.67" y="1030.79"/>
 </g>
 <g id="Symbols">
  <g id="Ultralight-S" transform="matrix(1 0 0 1 515.644 696)">
   <path d="M 44.043 2.05078 C 64.502 2.05078 81.2988 -14.6973 81.2988 -35.1562 C 81.2988 -55.6152 64.502 -72.3633 44.043 -72.3633 C 23.584 -72.3633 6.83594 -55.6152 6.83594 -35.1562 C 6.83594 -14.6973 23.584 2.05078 44.043 2.05078 Z M 44.043 -0.146484 C 24.7559 -0.146484 9.08203 -15.8691 9.08203 -35.1562 C 9.08203 -54.4434 24.7559 -70.166 44.043 -70.166 C 63.3789 -70.166 79.0527 -54.4434 79.0527 -35.1562 C 79.0527 -15.8691 63.3789 -0.146484 44.043 -0.146484 Z M 30.9082 -35.2051 C 30.9082 -37.3535 29.1992 -38.8184 27.2461 -38.8184 C 25.1953 -38.8184 23.584 -37.4023 23.584 -35.2051 C 23.584 -33.252 25.3906 -31.5918 27.2461 -31.5918 C 29.1992 -31.5918 30.9082 -33.252 30.9082 -35.2051 Z M 47.7051 -35.2051 C 47.7051 -37.3535 45.9961 -38.8184 44.043 -38.8184 C 41.9922 -38.8184 40.3809 -37.4023 40.3809 -35.2051 C 40.3809 -33.252 42.1875 -31.5918 44.043 -31.5918 C 45.9961 -31.5918 47.7051 -33.252 47.7051 -35.2051 Z M 64.502 -35.2051 C 64.502 -37.3535 62.8418 -38.8184 60.8887 -38.8184 C 58.8379 -38.8184 57.2266 -37.4023 57.2266 -35.2051 C 57.2266 -33.252 58.9844 -31.5918 60.8887 -31.5918 C 62.8418 -31.5918 64.502 -33.252 64.502 -35.2051 Z"/>
  </g>
  <g id="Thin-S" transform="matrix(1 0 0 1 811.867 696)">
   <path d="M 44.5801 2.53906 C 65.2832 2.53906 82.2754 -14.4531 82.2754 -35.2051 C 82.2754 -55.9082 65.2344 -72.9004 44.5312 -72.9004 C 23.8281 -72.9004 6.83594 -55.9082 6.83594 -35.2051 C 6.83594 -14.4531 23.877 2.53906 44.5801 2.53906 Z M 44.5801 -0.878906 C 25.5859 -0.878906 10.2539 -16.2109 10.2539 -35.2051 C 10.2539 -54.1504 25.5859 -69.4824 44.5312 -69.4824 C 63.5254 -69.4824 78.8574 -54.1504 78.8574 -35.2051 C 78.8574 -16.2109 63.5254 -0.878906 44.5801 -0.878906 Z M 31.543 -35.2051 C 31.543 -37.5488 29.6875 -39.2578 27.4902 -39.2578 C 25.1953 -39.2578 23.3887 -37.5488 23.3887 -35.2051 C 23.3887 -33.0078 25.3418 -31.1523 27.4902 -31.1523 C 29.6875 -31.1523 31.543 -33.0078 31.543 -35.2051 Z M 48.6328 -35.2051 C 48.6328 -37.5488 46.7285 -39.2578 44.5312 -39.2578 C 42.2852 -39.2578 40.4785 -37.5488 40.4785 -35.2051 C 40.4785 -33.0078 42.4316 -31.1523 44.5312 -31.1523 C 46.7285 -31.1523 48.6328 -33.0078 48.6328 -35.2051 Z M 65.6738 -35.2051 C 65.6738 -37.5488 63.8184 -39.2578 61.6211 -39.2578 C 59.375 -39.2578 57.5195 -37.5488 57.5195 -35.2051 C 57.5195 -33.0078 59.5215 -31.1523 61.6211 -31.1523 C 63.8184 -31.1523 65.6738 -33.0078 65.6738 -35.2051 Z"/>
  </g>
  <g id="Light-S" transform="matrix(1 0 0 1 1107.6 696)">
   <path d="M 45.5078 3.4668 C 66.6992 3.4668 84.2285 -14.0625 84.2285 -35.2051 C 84.2285 -56.3965 66.6504 -73.9258 45.5078 -73.9258 C 24.3164 -73.9258 6.83594 -56.3965 6.83594 -35.2051 C 6.83594 -14.0625 24.3652 3.4668 45.5078 3.4668 Z M 45.5078 -2.24609 C 27.2461 -2.24609 12.5977 -16.9434 12.5977 -35.2051 C 12.5977 -53.5156 27.1973 -68.2129 45.5078 -68.2129 C 63.7695 -68.2129 78.4668 -53.5156 78.5156 -35.2051 C 78.5156 -16.9434 63.8184 -2.24609 45.5078 -2.24609 Z M 32.8125 -35.2051 C 32.8125 -37.8906 30.5664 -40.0879 27.9297 -40.0879 C 25.2441 -40.0879 23.0469 -37.8906 23.0469 -35.2051 C 23.0469 -32.5684 25.293 -30.3223 27.9297 -30.3223 C 30.5664 -30.3223 32.8125 -32.5684 32.8125 -35.2051 Z M 50.3906 -35.2051 C 50.3906 -37.8906 48.1445 -40.0879 45.5078 -40.0879 C 42.8223 -40.0879 40.625 -37.8906 40.625 -35.2051 C 40.625 -32.5684 42.9199 -30.3223 45.5078 -30.3223 C 48.1445 -30.3223 50.3906 -32.5684 50.3906 -35.2051 Z M 67.9688 -35.2051 C 67.9688 -37.8906 65.7227 -40.0879 63.0859 -40.0879 C 60.4004 -40.0879 58.1543 -37.8906 58.1543 -35.2051 C 58.1543 -32.5684 60.4492 -30.3223 63.0859 -30.3223 C 65.7227 -30.3223 67.9688 -32.5684 67.9688 -35.2051 Z"/>
  </g>
  <g id="Regular-S" transform="matrix(1 0 0 1 1403.58 696)">
   <path d="M 46.2402 4.15039 C 67.7734 4.15039 85.6934 -13.7207 85.6934 -35.2539 C 85.6934 -56.7871 67.7246 -74.6582 46.1914 -74.6582 C 24.707 -74.6582 6.83594 -56.7871 6.83594 -35.2539 C 6.83594 -13.7207 24.7559 4.15039 46.2402 4.15039 Z M 46.2402 -3.27148 C 28.5156 -3.27148 14.3555 -17.4805 14.3555 -35.2539 C 14.3555 -53.0273 28.4668 -67.2363 46.1914 -67.2363 C 63.9648 -67.2363 78.1738 -53.0273 78.2227 -35.2539 C 78.2715 -17.4805 64.0137 -3.27148 46.2402 -3.27148 Z M 33.7891 -35.2051 C 33.7891 -38.1348 31.25 -40.7227 28.2715 -40.7227 C 25.2441 -40.7227 22.7539 -38.1348 22.7539 -35.2051 C 22.7539 -32.2266 25.2441 -29.6875 28.2715 -29.6875 C 31.25 -29.6875 33.7891 -32.2266 33.7891 -35.2051 Z M 51.709 -35.2051 C 51.709 -38.1348 49.1699 -40.7227 46.1914 -40.7227 C 43.2617 -40.7227 40.7227 -38.1348 40.7227 -35.2051 C 40.7227 -32.2266 43.2617 -29.6875 46.1914 -29.6875 C 49.1699 -29.6875 51.709 -32.2266 51.709 -35.2051 Z M 69.6777 -35.2051 C 69.6777 -38.1348 67.1875 -40.7227 64.1602 -40.7227 C 61.1816 -40.7227 58.6426 -38.1348 58.6426 -35.2051 C 58.6426 -32.2266 61.1816 -29.6875 64.1602 -29.6875 C 67.1875 -29.6875 69.6777 -32.2266 69.6777 -35.2051 Z"/>
  </g>
  <g id="Medium-S" transform="matrix(1 0 0 1 1699.7 696)">
   <path d="M 46.8262 4.78516 C 68.75 4.78516 86.8652 -13.3301 86.8652 -35.2539 C 86.8652 -57.1289 68.7012 -75.2441 46.8262 -75.2441 C 24.9023 -75.2441 6.83594 -57.1289 6.83594 -35.2539 C 6.83594 -13.3301 24.9512 4.78516 46.8262 4.78516 Z M 46.8262 -4.19922 C 29.6387 -4.19922 15.8691 -18.0176 15.8691 -35.2539 C 15.8691 -52.4414 29.5898 -66.2598 46.8262 -66.2598 C 64.0137 -66.2598 77.832 -52.4414 77.8809 -35.2539 C 77.8809 -18.0176 64.0625 -4.19922 46.8262 -4.19922 Z M 34.7656 -35.2051 C 34.7656 -38.2812 32.0801 -40.9668 29.0039 -40.9668 C 25.8301 -40.9668 23.1934 -38.2812 23.1934 -35.2051 C 23.1934 -32.0801 25.8301 -29.4434 29.0039 -29.4434 C 32.0801 -29.4434 34.7656 -32.0801 34.7656 -35.2051 Z M 52.5879 -35.2051 C 52.5879 -38.2812 49.9512 -40.9668 46.8262 -40.9668 C 43.7012 -40.9668 41.0156 -38.2812 41.0156 -35.2051 C 41.0156 -32.0801 43.7012 -29.4434 46.8262 -29.4434 C 49.9512 -29.4434 52.5879 -32.0801 52.5879 -35.2051 Z M 70.4102 -35.2051 C 70.4102 -38.2812 67.7734 -40.9668 64.5996 -40.9668 C 61.5234 -40.9668 58.8379 -38.2812 58.8379 -35.2051 C 58.8379 -32.0801 61.5234 -29.4434 64.5996 -29.4434 C 67.7734 -29.4434 70.4102 -32.0801 70.4102 -35.2051 Z"/>
  </g>
  <g id="Semibold-S" transform="matrix(1 0 0 1 1995.98 696)">
   <path d="M 47.3145 5.22461 C 69.4824 5.22461 87.7441 -13.0371 87.7441 -35.2539 C 87.7441 -57.4219 69.4336 -75.6836 47.2656 -75.6836 C 25.0977 -75.6836 6.83594 -57.4219 6.83594 -35.2539 C 6.83594 -13.0371 25.0977 5.22461 47.3145 5.22461 Z M 47.3145 -4.93164 C 30.4688 -4.93164 17.041 -18.4082 17.041 -35.2539 C 17.041 -52.0508 30.4688 -65.5273 47.2656 -65.5273 C 64.0625 -65.5273 77.5879 -52.0508 77.5879 -35.2539 C 77.6367 -18.4082 64.1113 -4.93164 47.3145 -4.93164 Z M 35.5469 -35.2051 C 35.5469 -38.4277 32.7637 -41.1621 29.5898 -41.1621 C 26.2695 -41.1621 23.584 -38.4277 23.584 -35.2051 C 23.584 -31.9824 26.2695 -29.248 29.5898 -29.248 C 32.7637 -29.248 35.5469 -31.9824 35.5469 -35.2051 Z M 53.2227 -35.2051 C 53.2227 -38.4277 50.4883 -41.1621 47.2656 -41.1621 C 43.9941 -41.1621 41.3086 -38.4277 41.3086 -35.2051 C 41.3086 -31.9824 44.043 -29.248 47.2656 -29.248 C 50.4883 -29.248 53.2227 -31.9824 53.2227 -35.2051 Z M 70.9473 -35.2051 C 70.9473 -38.4277 68.2617 -41.1621 64.9414 -41.1621 C 61.7676 -41.1621 58.9844 -38.4277 58.9844 -35.2051 C 58.9844 -31.9824 61.7676 -29.248 64.9414 -29.248 C 68.2617 -29.248 70.9473 -31.9824 70.9473 -35.2051 Z"/>
  </g>
  <g id="Bold-S" transform="matrix(1 0 0 1 2292.1 696)">
   <path d="M 47.9004 5.81055 C 70.4102 5.81055 88.916 -12.6465 88.916 -35.2051 C 88.916 -57.7637 70.4102 -76.2695 47.8516 -76.2695 C 25.293 -76.2695 6.83594 -57.7637 6.83594 -35.2051 C 6.83594 -12.6465 25.3418 5.81055 47.9004 5.81055 Z M 47.9004 -5.85938 C 31.6406 -5.85938 18.5547 -18.9453 18.5547 -35.2051 C 18.5547 -51.4648 31.5918 -64.5508 47.8516 -64.5508 C 64.1113 -64.5508 77.1973 -51.4648 77.2461 -35.2051 C 77.2461 -18.9453 64.1602 -5.85938 47.9004 -5.85938 Z M 36.5723 -35.2051 C 36.5723 -38.5742 33.6426 -41.4551 30.3711 -41.4551 C 26.8555 -41.4551 24.0234 -38.5742 24.0234 -35.2051 C 24.0234 -31.7871 26.8555 -28.9551 30.3711 -28.9551 C 33.6426 -28.9551 36.5723 -31.7871 36.5723 -35.2051 Z M 54.1016 -35.2051 C 54.1016 -38.5742 51.2695 -41.4551 47.8516 -41.4551 C 44.4824 -41.4551 41.6016 -38.5742 41.6016 -35.2051 C 41.6016 -31.7871 44.4824 -28.9551 47.8516 -28.9551 C 51.2695 -28.9551 54.1016 -31.7871 54.1016 -35.2051 Z M 71.6797 -35.2051 C 71.6797 -38.5742 68.8477 -41.4551 65.3809 -41.4551 C 62.0605 -41.4551 59.1797 -38.5742 59.1797 -35.2051 C 59.1797 -31.7871 62.0605 -28.9551 65.3809 -28.9551 C 68.8477 -28.9551 71.6797 -31.7871 71.6797 -35.2051 Z"/>
  </g>
  <g id="Heavy-S" transform="matrix(1 0 0 1 2587.96 696)">
   <path d="M 48.7305 6.68945 C 71.8262 6.68945 90.625 -12.1094 90.625 -35.2051 C 90.625 -58.3008 71.8262 -77.0996 48.7305 -77.0996 C 25.6348 -77.0996 6.83594 -58.3008 6.83594 -35.2051 C 6.83594 -12.1094 25.6348 6.68945 48.7305 6.68945 Z M 48.7305 -7.22656 C 33.3008 -7.22656 20.752 -19.7266 20.752 -35.2051 C 20.752 -50.6836 33.3008 -63.1836 48.7305 -63.1836 C 64.209 -63.1836 76.709 -50.6836 76.709 -35.2051 C 76.709 -19.7266 64.209 -7.22656 48.7305 -7.22656 Z M 38.0371 -35.2051 C 38.0371 -38.7695 34.9609 -41.8457 31.4453 -41.8457 C 27.7344 -41.8457 24.707 -38.7695 24.707 -35.2051 C 24.707 -31.5918 27.7344 -28.5645 31.4453 -28.5645 C 34.9609 -28.5645 38.0371 -31.5918 38.0371 -35.2051 Z M 55.3711 -35.2051 C 55.3711 -38.7695 52.3926 -41.8457 48.7305 -41.8457 C 45.1172 -41.8457 42.0898 -38.7695 42.0898 -35.2051 C 42.0898 -31.5918 45.1172 -28.5645 48.7305 -28.5645 C 52.3926 -28.5645 55.3711 -31.5918 55.3711 -35.2051 Z M 72.7539 -35.2051 C 72.7539 -38.7695 69.7754 -41.8457 66.0156 -41.8457 C 62.5488 -41.8457 59.4238 -38.7695 59.4238 -35.2051 C 59.4238 -31.5918 62.5488 -28.5645 66.0156 -28.5645 C 69.7754 -28.5645 72.7539 -31.5918 72.7539 -35.2051 Z"/>
  </g>
  <g id="Black-S" transform="matrix(1 0 0 1 2883.89 696)">
   <path d="M 49.5117 7.4707 C 73.0957 7.4707 92.1875 -11.6211 92.1875 -35.2051 C 92.1875 -58.7891 73.0957 -77.8809 49.5117 -77.8809 C 25.9277 -77.8809 6.83594 -58.7891 6.83594 -35.2051 C 6.83594 -11.6211 25.9277 7.4707 49.5117 7.4707 Z M 49.5117 -8.44727 C 34.7656 -8.44727 22.7539 -20.459 22.7539 -35.2051 C 22.7539 -49.9512 34.7656 -61.9141 49.5117 -61.9141 C 64.2578 -61.9141 76.2695 -49.9512 76.2207 -35.2051 C 76.2207 -20.459 64.2578 -8.44727 49.5117 -8.44727 Z M 39.3555 -35.2051 C 39.3555 -39.0137 36.084 -42.1875 32.4219 -42.1875 C 28.4668 -42.1875 25.3418 -39.0137 25.3418 -35.2051 C 25.3418 -31.3477 28.4668 -28.2227 32.4219 -28.2227 C 36.084 -28.2227 39.3555 -31.3477 39.3555 -35.2051 Z M 56.4941 -35.2051 C 56.4941 -39.0137 53.3691 -42.1875 49.5117 -42.1875 C 45.7031 -42.1875 42.5293 -39.0137 42.5293 -35.2051 C 42.5293 -31.3477 45.7031 -28.2227 49.5117 -28.2227 C 53.3691 -28.2227 56.4941 -31.3477 56.4941 -35.2051 Z M 73.7305 -35.2051 C 73.7305 -39.0137 70.5566 -42.1875 66.6016 -42.1875 C 62.9395 -42.1875 59.668 -39.0137 59.668 -35.2051 C 59.668 -31.3477 62.9395 -28.2227 66.6016 -28.2227 C 70.5566 -28.2227 73.7305 -31.3477 73.7305 -35.2051 Z"/>
  </g>
  <g id="Ultralight-M" transform="matrix(1 0 0 1 503.656 1126)">
   <path d="M 56.0547 12.207 C 82.0801 12.207 103.369 -9.08203 103.369 -35.1562 C 103.369 -61.1816 82.0801 -82.4707 56.0547 -82.4707 C 30.0293 -82.4707 8.74023 -61.1816 8.74023 -35.1562 C 8.74023 -9.08203 30.0293 12.207 56.0547 12.207 Z M 56.0547 9.81445 C 31.25 9.81445 11.1328 -10.3516 11.1328 -35.1562 C 11.1328 -59.9121 31.25 -80.0781 56.0547 -80.0781 C 80.8105 -80.0781 100.977 -59.9121 100.977 -35.1562 C 100.977 -10.3516 80.8105 9.81445 56.0547 9.81445 Z M 39.209 -35.2051 C 39.209 -37.8418 37.1094 -39.6484 34.7168 -39.6484 C 32.1777 -39.6484 30.1758 -37.9395 30.1758 -35.2051 C 30.1758 -32.8125 32.4219 -30.7617 34.7168 -30.7617 C 37.1094 -30.7617 39.209 -32.8125 39.209 -35.2051 Z M 60.5469 -35.2051 C 60.5469 -37.8418 58.4473 -39.6484 56.0547 -39.6484 C 53.5156 -39.6484 51.5137 -37.9395 51.5137 -35.2051 C 51.5137 -32.8125 53.7598 -30.7617 56.0547 -30.7617 C 58.4473 -30.7617 60.5469 -32.8125 60.5469 -35.2051 Z M 81.9336 -35.2051 C 81.9336 -37.8418 79.7852 -39.6484 77.3926 -39.6484 C 74.8535 -39.6484 72.9004 -37.9395 72.9004 -35.2051 C 72.9004 -32.8125 75.0977 -30.7617 77.3926 -30.7617 C 79.7852 -30.7617 81.9336 -32.8125 81.9336 -35.2051 Z"/>
  </g>
  <g id="Thin-M" transform="matrix(1 0 0 1 799.806 1126)">
   <path d="M 56.5918 12.7441 C 82.9102 12.7441 104.492 -8.83789 104.492 -35.1562 C 104.492 -61.4746 82.9102 -83.0566 56.5918 -83.0566 C 30.3223 -83.0566 8.74023 -61.4746 8.74023 -35.1562 C 8.74023 -8.83789 30.3223 12.7441 56.5918 12.7441 Z M 56.5918 8.98438 C 32.2266 8.98438 12.4512 -10.791 12.4512 -35.1562 C 12.4512 -59.5215 32.2266 -79.2969 56.5918 -79.2969 C 80.957 -79.2969 100.781 -59.5215 100.781 -35.1562 C 100.781 -10.791 81.0059 8.98438 56.5918 8.98438 Z M 39.9414 -35.2051 C 39.9414 -38.0859 37.5977 -40.1367 34.9609 -40.1367 C 32.1777 -40.1367 29.9805 -38.1348 29.9805 -35.2051 C 29.9805 -32.5195 32.373 -30.2734 34.9609 -30.2734 C 37.5977 -30.2734 39.9414 -32.5195 39.9414 -35.2051 Z M 61.5723 -35.2051 C 61.5723 -38.0859 59.2773 -40.1367 56.5918 -40.1367 C 53.8086 -40.1367 51.6113 -38.1348 51.6113 -35.2051 C 51.6113 -32.5195 54.0527 -30.2734 56.5918 -30.2734 C 59.2773 -30.2734 61.5723 -32.5195 61.5723 -35.2051 Z M 83.2031 -35.2051 C 83.2031 -38.0859 80.9082 -40.1367 78.2227 -40.1367 C 75.4883 -40.1367 73.2422 -38.1348 73.2422 -35.2051 C 73.2422 -32.5195 75.6836 -30.2734 78.2227 -30.2734 C 80.9082 -30.2734 83.2031 -32.5195 83.2031 -35.2051 Z"/>
  </g>
  <g id="Light-M" transform="matrix(1 0 0 1 1095.42 1126)">
   <path d="M 57.7148 13.7695 C 84.5215 13.7695 106.689 -8.39844 106.689 -35.2051 C 106.689 -62.0117 84.4727 -84.1797 57.666 -84.1797 C 30.8594 -84.1797 8.74023 -62.0117 8.74023 -35.2051 C 8.74023 -8.39844 30.8594 13.7695 57.7148 13.7695 Z M 57.7148 7.4707 C 34.082 7.4707 15.0879 -11.5723 15.0879 -35.2051 C 15.0879 -58.8379 34.0332 -77.832 57.666 -77.832 C 81.2988 -77.832 100.342 -58.8379 100.342 -35.2051 C 100.391 -11.5723 81.2988 7.4707 57.7148 7.4707 Z M 41.3574 -35.2051 C 41.3574 -38.4766 38.623 -41.0645 35.4492 -41.0645 C 32.1777 -41.0645 29.541 -38.4766 29.541 -35.2051 C 29.541 -32.0312 32.3242 -29.3457 35.4492 -29.3457 C 38.623 -29.3457 41.3574 -32.0312 41.3574 -35.2051 Z M 63.5742 -35.2051 C 63.5742 -38.4766 60.8398 -41.0645 57.666 -41.0645 C 54.4434 -41.0645 51.7578 -38.4766 51.7578 -35.2051 C 51.7578 -32.0312 54.541 -29.3457 57.666 -29.3457 C 60.8398 -29.3457 63.5742 -32.0312 63.5742 -35.2051 Z M 85.791 -35.2051 C 85.791 -38.4766 83.1055 -41.0645 79.8828 -41.0645 C 76.6602 -41.0645 73.9746 -38.4766 73.9746 -35.2051 C 73.9746 -32.0312 76.7578 -29.3457 79.8828 -29.3457 C 83.1055 -29.3457 85.791 -32.0312 85.791 -35.2051 Z"/>
  </g>
  <g id="Regular-M" transform="matrix(1 0 0 1 1391.32 1126)">
   <path d="M 58.5449 14.5508 C 85.7422 14.5508 108.35 -8.00781 108.35 -35.2539 C 108.35 -62.4512 85.6934 -85.0586 58.4961 -85.0586 C 31.25 -85.0586 8.74023 -62.4512 8.74023 -35.2539 C 8.74023 -8.00781 31.2988 14.5508 58.5449 14.5508 Z M 58.5449 6.25 C 35.498 6.25 17.0898 -12.207 17.0898 -35.2539 C 17.0898 -58.252 35.4492 -76.7578 58.4961 -76.7578 C 81.4941 -76.7578 100 -58.252 100.049 -35.2539 C 100.098 -12.207 81.543 6.25 58.5449 6.25 Z M 42.4316 -35.2051 C 42.4316 -38.7695 39.4043 -41.7969 35.8398 -41.7969 C 32.2266 -41.7969 29.248 -38.7695 29.248 -35.2051 C 29.248 -31.6406 32.2754 -28.6133 35.8398 -28.6133 C 39.4043 -28.6133 42.4316 -31.6406 42.4316 -35.2051 Z M 65.0879 -35.2051 C 65.0879 -38.7695 62.0117 -41.7969 58.4961 -41.7969 C 54.8828 -41.7969 51.9043 -38.7695 51.9043 -35.2051 C 51.9043 -31.6406 54.9805 -28.6133 58.4961 -28.6133 C 62.0117 -28.6133 65.0879 -31.6406 65.0879 -35.2051 Z M 87.7441 -35.2051 C 87.7441 -38.7695 84.7168 -41.7969 81.1523 -41.7969 C 77.5391 -41.7969 74.5117 -38.7695 74.5117 -35.2051 C 74.5117 -31.6406 77.5879 -28.6133 81.1523 -28.6133 C 84.7168 -28.6133 87.7441 -31.6406 87.7441 -35.2051 Z"/>
  </g>
  <g id="Medium-M" transform="matrix(1 0 0 1 1687.33 1126)">
   <path d="M 59.2285 15.2832 C 86.8652 15.2832 109.717 -7.56836 109.717 -35.2051 C 109.717 -62.8906 86.8164 -85.7422 59.1797 -85.7422 C 31.543 -85.7422 8.74023 -62.8906 8.74023 -35.2051 C 8.74023 -7.56836 31.5918 15.2832 59.2285 15.2832 Z M 59.2285 5.17578 C 36.8164 5.17578 18.8477 -12.8418 18.8477 -35.2051 C 18.8477 -57.6172 36.7676 -75.6348 59.1797 -75.6348 C 81.5918 -75.6348 99.6094 -57.6172 99.6582 -35.2051 C 99.6582 -12.8418 81.6406 5.17578 59.2285 5.17578 Z M 43.6035 -35.2051 C 43.6035 -38.9648 40.3809 -42.1387 36.6699 -42.1387 C 32.8125 -42.1387 29.6875 -38.9648 29.6875 -35.2051 C 29.6875 -31.4453 32.8613 -28.2715 36.6699 -28.2715 C 40.3809 -28.2715 43.6035 -31.4453 43.6035 -35.2051 Z M 66.1621 -35.2051 C 66.1621 -38.9648 62.9395 -42.1387 59.1797 -42.1387 C 55.4199 -42.1387 52.2461 -38.9648 52.2461 -35.2051 C 52.2461 -31.4453 55.4688 -28.2715 59.1797 -28.2715 C 62.9395 -28.2715 66.1621 -31.4453 66.1621 -35.2051 Z M 88.7207 -35.2051 C 88.7207 -38.9648 85.5469 -42.1387 81.7383 -42.1387 C 77.9785 -42.1387 74.8047 -38.9648 74.8047 -35.2051 C 74.8047 -31.4453 78.0273 -28.2715 81.7383 -28.2715 C 85.5469 -28.2715 88.7207 -31.4453 88.7207 -35.2051 Z"/>
  </g>
  <g id="Semibold-M" transform="matrix(1 0 0 1 1983.5 1126)">
   <path d="M 59.7656 15.8203 C 87.7441 15.8203 110.791 -7.22656 110.791 -35.2051 C 110.791 -63.1836 87.6953 -86.2793 59.7168 -86.2793 C 31.7383 -86.2793 8.74023 -63.1836 8.74023 -35.2051 C 8.74023 -7.22656 31.7871 15.8203 59.7656 15.8203 Z M 59.7656 4.3457 C 37.8418 4.3457 20.2148 -13.2812 20.2148 -35.2051 C 20.2148 -57.1289 37.793 -74.8047 59.7168 -74.8047 C 81.6406 -74.8047 99.3164 -57.1289 99.3164 -35.2051 C 99.3652 -13.2812 81.6895 4.3457 59.7656 4.3457 Z M 44.4824 -35.2051 C 44.4824 -39.1113 41.1133 -42.4316 37.2559 -42.4316 C 33.252 -42.4316 30.0293 -39.1113 30.0293 -35.2051 C 30.0293 -31.2988 33.3008 -27.9785 37.2559 -27.9785 C 41.1133 -27.9785 44.4824 -31.2988 44.4824 -35.2051 Z M 66.9434 -35.2051 C 66.9434 -39.1113 63.623 -42.4316 59.7168 -42.4316 C 55.8105 -42.4316 52.4902 -39.1113 52.4902 -35.2051 C 52.4902 -31.2988 55.8105 -27.9785 59.7168 -27.9785 C 63.623 -27.9785 66.9434 -31.2988 66.9434 -35.2051 Z M 89.4531 -35.2051 C 89.4531 -39.1113 86.1816 -42.4316 82.1777 -42.4316 C 78.3203 -42.4316 75 -39.1113 75 -35.2051 C 75 -31.2988 78.3691 -27.9785 82.1777 -27.9785 C 86.1816 -27.9785 89.4531 -31.2988 89.4531 -35.2051 Z"/>
  </g>
  <g id="Bold-M" transform="matrix(1 0 0 1 2279.5 1126)">
   <path d="M 60.4492 16.5039 C 88.8672 16.5039 112.207 -6.78711 112.207 -35.2051 C 112.207 -63.623 88.8672 -86.9629 60.4492 -86.9629 C 32.0312 -86.9629 8.74023 -63.623 8.74023 -35.2051 C 8.74023 -6.78711 32.0801 16.5039 60.4492 16.5039 Z M 60.4492 3.22266 C 39.1602 3.22266 22.0215 -13.916 22.0215 -35.2051 C 22.0215 -56.4941 39.1602 -73.6816 60.4492 -73.6816 C 81.7383 -73.6816 98.877 -56.4941 98.9258 -35.2051 C 98.9258 -13.916 81.7871 3.22266 60.4492 3.22266 Z M 45.6543 -35.2051 C 45.6543 -39.3066 42.1387 -42.7734 38.0859 -42.7734 C 33.8867 -42.7734 30.4688 -39.3066 30.4688 -35.2051 C 30.4688 -31.0547 33.8867 -27.6367 38.0859 -27.6367 C 42.1387 -27.6367 45.6543 -31.0547 45.6543 -35.2051 Z M 68.0176 -35.2051 C 68.0176 -39.3066 64.5508 -42.7734 60.4492 -42.7734 C 56.2988 -42.7734 52.8809 -39.3066 52.8809 -35.2051 C 52.8809 -31.0547 56.3477 -27.6367 60.4492 -27.6367 C 64.5508 -27.6367 68.0176 -31.0547 68.0176 -35.2051 Z M 90.4297 -35.2051 C 90.4297 -39.3066 87.0117 -42.7734 82.7637 -42.7734 C 78.7598 -42.7734 75.2441 -39.3066 75.2441 -35.2051 C 75.2441 -31.0547 78.7598 -27.6367 82.7637 -27.6367 C 87.0117 -27.6367 90.4297 -31.0547 90.4297 -35.2051 Z"/>
  </g>
  <g id="Heavy-M" transform="matrix(1 0 0 1 2575.19 1126)">
   <path d="M 61.4746 17.5781 C 90.5273 17.5781 114.258 -6.15234 114.258 -35.2051 C 114.258 -64.2578 90.5273 -87.9883 61.4746 -87.9883 C 32.4219 -87.9883 8.74023 -64.2578 8.74023 -35.2051 C 8.74023 -6.15234 32.4707 17.5781 61.4746 17.5781 Z M 61.4746 1.66016 C 41.1133 1.66016 24.6582 -14.8438 24.6582 -35.2051 C 24.6582 -55.5664 41.1133 -72.0703 61.4746 -72.0703 C 81.8359 -72.0703 98.3398 -55.5664 98.3398 -35.2051 C 98.3398 -14.8438 81.8848 1.66016 61.4746 1.66016 Z M 47.3633 -35.2051 C 47.3633 -39.5996 43.5547 -43.3105 39.3066 -43.3105 C 34.7656 -43.3105 31.1035 -39.5996 31.1035 -35.2051 C 31.1035 -30.7617 34.7656 -27.0996 39.3066 -27.0996 C 43.5547 -27.0996 47.3633 -30.7617 47.3633 -35.2051 Z M 69.5801 -35.2051 C 69.5801 -39.5996 65.918 -43.3105 61.4746 -43.3105 C 57.0312 -43.3105 53.3691 -39.5996 53.3691 -35.2051 C 53.3691 -30.7617 57.0801 -27.0996 61.4746 -27.0996 C 65.918 -27.0996 69.5801 -30.7617 69.5801 -35.2051 Z M 91.8457 -35.2051 C 91.8457 -39.5996 88.1836 -43.3105 83.6426 -43.3105 C 79.3945 -43.3105 75.5859 -39.5996 75.5859 -35.2051 C 75.5859 -30.7617 79.3945 -27.0996 83.6426 -27.0996 C 88.1836 -27.0996 91.8457 -30.7617 91.8457 -35.2051 Z"/>
  </g>
  <g id="Black-M" transform="matrix(1 0 0 1 2871 1126)">
   <path d="M 62.4023 18.457 C 91.9922 18.457 116.064 -5.61523 116.064 -35.2051 C 116.064 -64.7949 91.9922 -88.8672 62.4023 -88.8672 C 32.8125 -88.8672 8.74023 -64.7949 8.74023 -35.2051 C 8.74023 -5.61523 32.8125 18.457 62.4023 18.457 Z M 62.4023 0.195312 C 42.8223 0.195312 27.002 -15.625 27.002 -35.2051 C 27.002 -54.7363 42.8223 -70.6055 62.4023 -70.6055 C 81.9824 -70.6055 97.8027 -54.7363 97.8027 -35.2051 C 97.8027 -15.625 81.9824 0.195312 62.4023 0.195312 Z M 48.877 -35.2051 C 48.877 -39.8438 44.873 -43.75 40.3809 -43.75 C 35.5469 -43.75 31.6406 -39.8438 31.6406 -35.2051 C 31.6406 -30.5176 35.5469 -26.6113 40.3809 -26.6113 C 44.873 -26.6113 48.877 -30.5176 48.877 -35.2051 Z M 70.9961 -35.2051 C 70.9961 -39.8438 67.0898 -43.75 62.4023 -43.75 C 57.7148 -43.75 53.8086 -39.8438 53.8086 -35.2051 C 53.8086 -30.5176 57.7148 -26.6113 62.4023 -26.6113 C 67.0898 -26.6113 70.9961 -30.5176 70.9961 -35.2051 Z M 93.1641 -35.2051 C 93.1641 -39.8438 89.2578 -43.75 84.4238 -43.75 C 79.9316 -43.75 75.9277 -39.8438 75.9277 -35.2051 C 75.9277 -30.5176 79.9316 -26.6113 84.4238 -26.6113 C 89.2578 -26.6113 93.1641 -30.5176 93.1641 -35.2051 Z"/>
  </g>
  <g id="Ultralight-L" transform="matrix(1 0 0 1 487.641 1556)">
   <path d="M 72.0703 25.7324 C 105.566 25.7324 132.91 -1.61133 132.91 -35.1074 C 132.91 -68.5547 105.566 -95.8984 72.0703 -95.8984 C 38.623 -95.8984 11.2793 -68.5547 11.2793 -35.1074 C 11.2793 -1.61133 38.623 25.7324 72.0703 25.7324 Z M 72.0703 23.2422 C 39.9414 23.2422 13.7695 -2.97852 13.7695 -35.1074 C 13.7695 -67.2363 39.9414 -93.4082 72.0703 -93.4082 C 104.199 -93.4082 130.42 -67.2363 130.371 -35.1074 C 130.371 -2.97852 104.199 23.2422 72.0703 23.2422 Z M 50.293 -35.2051 C 50.293 -38.5254 47.6562 -40.7227 44.6777 -40.7227 C 41.5039 -40.7227 39.0625 -38.623 39.0625 -35.2051 C 39.0625 -32.1777 41.8457 -29.6387 44.6777 -29.6387 C 47.6562 -29.6387 50.293 -32.1777 50.293 -35.2051 Z M 77.6855 -35.2051 C 77.6855 -38.5254 75.0977 -40.7227 72.0703 -40.7227 C 68.8965 -40.7227 66.4551 -38.623 66.4551 -35.2051 C 66.4551 -32.1777 69.2383 -29.6387 72.0703 -29.6387 C 75.0977 -29.6387 77.6855 -32.1777 77.6855 -35.2051 Z M 105.127 -35.2051 C 105.127 -38.5254 102.49 -40.7227 99.5117 -40.7227 C 96.3379 -40.7227 93.8965 -38.623 93.8965 -35.2051 C 93.8965 -32.1777 96.6797 -29.6387 99.5117 -29.6387 C 102.49 -29.6387 105.127 -32.1777 105.127 -35.2051 Z"/>
  </g>
  <g id="Thin-L" transform="matrix(1 0 0 1 783.717 1556)">
   <path d="M 72.7051 26.3184 C 106.494 26.3184 134.131 -1.36719 134.131 -35.1074 C 134.131 -68.8965 106.445 -96.582 72.7051 -96.582 C 38.916 -96.582 11.2793 -68.8965 11.2793 -35.1074 C 11.2793 -1.36719 38.916 26.3184 72.7051 26.3184 Z M 72.7051 22.3145 C 41.0156 22.3145 15.2344 -3.41797 15.2344 -35.1074 C 15.2344 -66.8457 41.0156 -92.5781 72.7051 -92.5781 C 104.395 -92.5781 130.127 -66.8457 130.176 -35.1074 C 130.176 -3.41797 104.395 22.3145 72.7051 22.3145 Z M 51.0742 -35.2051 C 51.0742 -38.7695 48.2422 -41.2598 44.9219 -41.2598 C 41.5039 -41.2598 38.8184 -38.8184 38.8184 -35.2051 C 38.8184 -31.8848 41.7969 -29.1016 44.9219 -29.1016 C 48.2422 -29.1016 51.0742 -31.8848 51.0742 -35.2051 Z M 78.8574 -35.2051 C 78.8574 -38.7695 75.9766 -41.2598 72.7051 -41.2598 C 69.2383 -41.2598 66.5527 -38.8184 66.5527 -35.2051 C 66.5527 -31.8848 69.5801 -29.1016 72.7051 -29.1016 C 75.9766 -29.1016 78.8574 -31.8848 78.8574 -35.2051 Z M 106.592 -35.2051 C 106.592 -38.7695 103.76 -41.2598 100.439 -41.2598 C 97.0215 -41.2598 94.2871 -38.8184 94.2871 -35.2051 C 94.2871 -31.8848 97.3145 -29.1016 100.439 -29.1016 C 103.76 -29.1016 106.592 -31.8848 106.592 -35.2051 Z"/>
  </g>
  <g id="Light-L" transform="matrix(1 0 0 1 1079.21 1556)">
   <path d="M 73.9258 27.4902 C 108.301 27.4902 136.572 -0.830078 136.572 -35.1562 C 136.572 -69.5312 108.252 -97.8516 73.877 -97.8516 C 39.5508 -97.8516 11.2793 -69.5312 11.2793 -35.1562 C 11.2793 -0.830078 39.5508 27.4902 73.9258 27.4902 Z M 73.9258 20.6055 C 43.0664 20.6055 18.1641 -4.3457 18.1641 -35.1562 C 18.1641 -66.0156 43.0664 -90.918 73.877 -90.918 C 104.736 -90.918 129.639 -66.0156 129.688 -35.1562 C 129.736 -4.3457 104.785 20.6055 73.9258 20.6055 Z M 52.6855 -35.2051 C 52.6855 -39.209 49.3652 -42.2852 45.5078 -42.2852 C 41.5039 -42.2852 38.3301 -39.2578 38.3301 -35.2051 C 38.3301 -31.3477 41.748 -28.0762 45.5078 -28.0762 C 49.3652 -28.0762 52.6855 -31.3477 52.6855 -35.2051 Z M 81.0547 -35.2051 C 81.0547 -39.209 77.7344 -42.2852 73.877 -42.2852 C 69.9707 -42.2852 66.748 -39.2578 66.748 -35.2051 C 66.748 -31.3477 70.166 -28.0762 73.877 -28.0762 C 77.7344 -28.0762 81.0547 -31.3477 81.0547 -35.2051 Z M 109.473 -35.2051 C 109.473 -39.209 106.152 -42.2852 102.295 -42.2852 C 98.3398 -42.2852 95.1172 -39.2578 95.1172 -35.2051 C 95.1172 -31.3477 98.5352 -28.0762 102.295 -28.0762 C 106.152 -28.0762 109.473 -31.3477 109.473 -35.2051 Z"/>
  </g>
  <g id="Regular-L" transform="matrix(1 0 0 1 1374.99 1556)">
   <path d="M 74.8535 28.3691 C 109.668 28.3691 138.428 -0.390625 138.428 -35.2051 C 138.428 -70.0195 109.619 -98.7793 74.8047 -98.7793 C 39.9902 -98.7793 11.2793 -70.0195 11.2793 -35.2051 C 11.2793 -0.390625 40.0391 28.3691 74.8535 28.3691 Z M 74.8535 19.2871 C 44.6289 19.2871 20.4102 -5.0293 20.4102 -35.2051 C 20.4102 -65.3809 44.5801 -89.6973 74.8047 -89.6973 C 104.98 -89.6973 129.297 -65.3809 129.346 -35.2051 C 129.395 -5.0293 105.029 19.2871 74.8535 19.2871 Z M 53.8574 -35.2051 C 53.8574 -39.5508 50.1953 -43.1152 45.9473 -43.1152 C 41.5527 -43.1152 37.9883 -39.5508 37.9883 -35.2051 C 37.9883 -30.9082 41.6504 -27.2949 45.9473 -27.2949 C 50.1953 -27.2949 53.8574 -30.9082 53.8574 -35.2051 Z M 82.7637 -35.2051 C 82.7637 -39.5508 79.0527 -43.1152 74.8047 -43.1152 C 70.459 -43.1152 66.8457 -39.5508 66.8457 -35.2051 C 66.8457 -30.9082 70.6055 -27.2949 74.8047 -27.2949 C 79.0527 -27.2949 82.7637 -30.9082 82.7637 -35.2051 Z M 111.621 -35.2051 C 111.621 -39.5508 108.008 -43.1152 103.662 -43.1152 C 99.3164 -43.1152 95.7031 -39.5508 95.7031 -35.2051 C 95.7031 -30.9082 99.4629 -27.2949 103.662 -27.2949 C 108.008 -27.2949 111.621 -30.9082 111.621 -35.2051 Z"/>
  </g>
  <g id="Medium-L" transform="matrix(1 0 0 1 1670.9 1556)">
   <path d="M 75.6348 29.1992 C 110.938 29.1992 140.039 0.0488281 140.039 -35.2051 C 140.039 -70.459 110.889 -99.6094 75.5859 -99.6094 C 40.332 -99.6094 11.2793 -70.459 11.2793 -35.2051 C 11.2793 0.0488281 40.3809 29.1992 75.6348 29.1992 Z M 75.6348 18.0664 C 46.1426 18.0664 22.4609 -5.71289 22.4609 -35.2051 C 22.4609 -64.6973 46.0938 -88.4766 75.5859 -88.4766 C 105.127 -88.4766 128.857 -64.6973 128.906 -35.2051 C 128.955 -5.71289 105.176 18.0664 75.6348 18.0664 Z M 55.1758 -35.2051 C 55.1758 -39.7949 51.2695 -43.5547 46.7285 -43.5547 C 42.0898 -43.5547 38.3301 -39.7949 38.3301 -35.2051 C 38.3301 -30.6641 42.1875 -26.8066 46.7285 -26.8066 C 51.2695 -26.8066 55.1758 -30.6641 55.1758 -35.2051 Z M 84.0332 -35.2051 C 84.0332 -39.7949 80.127 -43.5547 75.5859 -43.5547 C 70.9961 -43.5547 67.1875 -39.7949 67.1875 -35.2051 C 67.1875 -30.6641 71.1426 -26.8066 75.5859 -26.8066 C 80.127 -26.8066 84.0332 -30.6641 84.0332 -35.2051 Z M 112.891 -35.2051 C 112.891 -39.7949 109.082 -43.5547 104.443 -43.5547 C 99.9023 -43.5547 96.0449 -39.7949 96.0449 -35.2051 C 96.0449 -30.6641 100 -26.8066 104.443 -26.8066 C 109.082 -26.8066 112.891 -30.6641 112.891 -35.2051 Z"/>
  </g>
  <g id="Semibold-L" transform="matrix(1 0 0 1 1967 1556)">
   <path d="M 76.2695 29.7852 C 111.914 29.7852 141.26 0.439453 141.26 -35.2051 C 141.26 -70.8496 111.865 -100.244 76.2207 -100.244 C 40.5762 -100.244 11.2793 -70.8496 11.2793 -35.2051 C 11.2793 0.439453 40.625 29.7852 76.2695 29.7852 Z M 76.2695 17.0898 C 47.3145 17.0898 24.0234 -6.25 24.0234 -35.2051 C 24.0234 -64.209 47.2656 -87.5 76.2207 -87.5 C 105.225 -87.5 128.516 -64.209 128.564 -35.2051 C 128.613 -6.25 105.273 17.0898 76.2695 17.0898 Z M 56.1523 -35.2051 C 56.1523 -39.9414 52.0508 -43.9453 47.3633 -43.9453 C 42.5293 -43.9453 38.5742 -39.9902 38.5742 -35.2051 C 38.5742 -30.4688 42.627 -26.4648 47.3633 -26.4648 C 52.0508 -26.4648 56.1523 -30.4688 56.1523 -35.2051 Z M 85.0098 -35.2051 C 85.0098 -39.9414 80.957 -43.9453 76.2207 -43.9453 C 71.4355 -43.9453 67.4805 -39.9902 67.4805 -35.2051 C 67.4805 -30.4688 71.5332 -26.4648 76.2207 -26.4648 C 80.957 -26.4648 85.0098 -30.4688 85.0098 -35.2051 Z M 113.867 -35.2051 C 113.867 -39.9414 109.912 -43.9453 105.078 -43.9453 C 100.342 -43.9453 96.3379 -39.9902 96.3379 -35.2051 C 96.3379 -30.4688 100.439 -26.4648 105.078 -26.4648 C 109.912 -26.4648 113.867 -30.4688 113.867 -35.2051 Z"/>
  </g>
  <g id="Bold-L" transform="matrix(1 0 0 1 2262.9 1556)">
   <path d="M 77.0996 30.6152 C 113.184 30.6152 142.92 0.878906 142.92 -35.2051 C 142.92 -71.3379 113.135 -101.025 77.0508 -101.025 C 40.918 -101.025 11.2793 -71.3379 11.2793 -35.2051 C 11.2793 0.878906 40.9668 30.6152 77.0996 30.6152 Z M 77.0996 15.8691 C 48.7793 15.8691 26.0742 -6.93359 26.0742 -35.2051 C 26.0742 -63.4766 48.7793 -86.2793 77.0508 -86.2793 C 105.322 -86.2793 128.125 -63.4766 128.125 -35.2051 C 128.174 -6.93359 105.371 15.8691 77.0996 15.8691 Z M 57.4219 -35.2051 C 57.4219 -40.1855 53.125 -44.4336 48.1934 -44.4336 C 43.0664 -44.4336 38.916 -40.2344 38.916 -35.2051 C 38.916 -30.1758 43.1641 -25.9766 48.1934 -25.9766 C 53.125 -25.9766 57.4219 -30.1758 57.4219 -35.2051 Z M 86.2793 -35.2051 C 86.2793 -40.1855 82.0801 -44.4336 77.0508 -44.4336 C 72.0215 -44.4336 67.8223 -40.2344 67.8223 -35.2051 C 67.8223 -30.1758 72.0703 -25.9766 77.0508 -25.9766 C 82.0801 -25.9766 86.2793 -30.1758 86.2793 -35.2051 Z M 115.186 -35.2051 C 115.186 -40.1855 110.986 -44.4336 105.859 -44.4336 C 100.928 -44.4336 96.6797 -40.2344 96.6797 -35.2051 C 96.6797 -30.1758 100.977 -25.9766 105.859 -25.9766 C 110.986 -25.9766 115.186 -30.1758 115.186 -35.2051 Z"/>
  </g>
  <g id="Heavy-L" transform="matrix(1 0 0 1 2558.42 1556)">
   <path d="M 78.2715 31.7871 C 115.039 31.7871 145.264 1.61133 145.264 -35.2051 C 145.264 -72.0215 115.039 -102.197 78.2227 -102.197 C 41.4551 -102.197 11.2793 -72.0215 11.2793 -35.2051 C 11.2793 1.61133 41.4551 31.7871 78.2715 31.7871 Z M 78.2715 14.0137 C 50.9766 14.0137 29.0527 -7.95898 29.0527 -35.2051 C 29.0527 -62.5 50.9766 -84.4727 78.2227 -84.4727 C 105.518 -84.4727 127.49 -62.5 127.49 -35.2051 C 127.539 -7.95898 105.518 14.0137 78.2715 14.0137 Z M 59.2773 -35.2051 C 59.2773 -40.5273 54.6875 -45.1172 49.4141 -45.1172 C 43.8965 -45.1172 39.4043 -40.5273 39.4043 -35.2051 C 39.4043 -29.7852 43.8965 -25.293 49.4141 -25.293 C 54.6875 -25.293 59.2773 -29.7852 59.2773 -35.2051 Z M 88.1348 -35.2051 C 88.1348 -40.5273 83.6426 -45.1172 78.2227 -45.1172 C 72.8027 -45.1172 68.3105 -40.5273 68.3105 -35.2051 C 68.3105 -29.7852 72.8516 -25.293 78.2227 -25.293 C 83.6426 -25.293 88.1348 -29.7852 88.1348 -35.2051 Z M 117.041 -35.2051 C 117.041 -40.5273 112.549 -45.1172 107.031 -45.1172 C 101.758 -45.1172 97.168 -40.5273 97.168 -35.2051 C 97.168 -29.7852 101.807 -25.293 107.031 -25.293 C 112.549 -25.293 117.041 -29.7852 117.041 -35.2051 Z"/>
  </g>
  <g id="Black-L" transform="matrix(1 0 0 1 2854.08 1556)">
   <path d="M 79.2969 32.8613 C 116.748 32.8613 147.363 2.19727 147.363 -35.2051 C 147.363 -72.6074 116.699 -103.271 79.2969 -103.271 C 41.8945 -103.271 11.2793 -72.6074 11.2793 -35.2051 C 11.2793 2.19727 41.8945 32.8613 79.2969 32.8613 Z M 79.2969 12.4023 C 52.9297 12.4023 31.7383 -8.83789 31.7383 -35.2051 C 31.7383 -61.5723 52.9297 -82.8125 79.2969 -82.8125 C 105.664 -82.8125 126.904 -61.5723 126.953 -35.2051 C 126.953 -8.83789 105.664 12.4023 79.2969 12.4023 Z M 60.9863 -35.2051 C 60.9863 -40.8691 56.0547 -45.7031 50.4883 -45.7031 C 44.6289 -45.7031 39.8438 -40.8691 39.8438 -35.2051 C 39.8438 -29.4434 44.6289 -24.6582 50.4883 -24.6582 C 56.0547 -24.6582 60.9863 -29.4434 60.9863 -35.2051 Z M 89.8438 -35.2051 C 89.8438 -40.8691 85.0586 -45.7031 79.2969 -45.7031 C 73.5352 -45.7031 68.75 -40.8691 68.75 -35.2051 C 68.75 -29.4434 73.5352 -24.6582 79.2969 -24.6582 C 85.0586 -24.6582 89.8438 -29.4434 89.8438 -35.2051 Z M 118.75 -35.2051 C 118.75 -40.8691 113.965 -45.7031 108.105 -45.7031 C 102.539 -45.7031 97.6074 -40.8691 97.6074 -35.2051 C 97.6074 -29.4434 102.539 -24.6582 108.105 -24.6582 C 113.965 -24.6582 118.75 -29.4434 118.75 -35.2051 Z"/>
  </g>
 </g>
</svg>
