<?xml version="1.0" encoding="UTF-8"?>
<!--Generator: Apple Native CoreSVG 123-->
<!DOCTYPE svg
PUBLIC "-//W3C//DTD SVG 1.1//EN"
       "http://www.w3.org/Graphics/SVG/1.1/DTD/svg11.dtd">
<svg version="1.1" xmlns="http://www.w3.org/2000/svg" xmlns:xlink="http://www.w3.org/1999/xlink" width="3300" height="2200">
 <!--glyph: "uni100215.medium", point size: 100.000000, font version: "Version 15.0d4e20", template writer version: "2"-->
 <g id="Notes">
  <rect height="2200" id="artboard" style="fill:white;opacity:1" width="3300" x="0" y="0"/>
  <line id="" style="fill:none;stroke:black;opacity:1;stroke-width:0.5;" x1="263" x2="3036" y1="292" y2="292"/>
  <text style="stroke:none;fill:black;font-family:-apple-system,&quot;SF Pro Display&quot;,&quot;SF Pro Text&quot;,Helvetica,sans-serif;font-weight:bold;" transform="matrix(1 0 0 1 263 322)">Weight/Scale Variations</text>
  <text style="stroke:none;fill:black;font-family:-apple-system,&quot;SF Pro Display&quot;,&quot;SF Pro Text&quot;,Helvetica,sans-serif;text-anchor:middle;" transform="matrix(1 0 0 1 559.711 322)">Ultralight</text>
  <text style="stroke:none;fill:black;font-family:-apple-system,&quot;SF Pro Display&quot;,&quot;SF Pro Text&quot;,Helvetica,sans-serif;text-anchor:middle;" transform="matrix(1 0 0 1 856.422 322)">Thin</text>
  <text style="stroke:none;fill:black;font-family:-apple-system,&quot;SF Pro Display&quot;,&quot;SF Pro Text&quot;,Helvetica,sans-serif;text-anchor:middle;" transform="matrix(1 0 0 1 1153.13 322)">Light</text>
  <text style="stroke:none;fill:black;font-family:-apple-system,&quot;SF Pro Display&quot;,&quot;SF Pro Text&quot;,Helvetica,sans-serif;text-anchor:middle;" transform="matrix(1 0 0 1 1449.84 322)">Regular</text>
  <text style="stroke:none;fill:black;font-family:-apple-system,&quot;SF Pro Display&quot;,&quot;SF Pro Text&quot;,Helvetica,sans-serif;text-anchor:middle;" transform="matrix(1 0 0 1 1746.56 322)">Medium</text>
  <text style="stroke:none;fill:black;font-family:-apple-system,&quot;SF Pro Display&quot;,&quot;SF Pro Text&quot;,Helvetica,sans-serif;text-anchor:middle;" transform="matrix(1 0 0 1 2043.27 322)">Semibold</text>
  <text style="stroke:none;fill:black;font-family:-apple-system,&quot;SF Pro Display&quot;,&quot;SF Pro Text&quot;,Helvetica,sans-serif;text-anchor:middle;" transform="matrix(1 0 0 1 2339.98 322)">Bold</text>
  <text style="stroke:none;fill:black;font-family:-apple-system,&quot;SF Pro Display&quot;,&quot;SF Pro Text&quot;,Helvetica,sans-serif;text-anchor:middle;" transform="matrix(1 0 0 1 2636.69 322)">Heavy</text>
  <text style="stroke:none;fill:black;font-family:-apple-system,&quot;SF Pro Display&quot;,&quot;SF Pro Text&quot;,Helvetica,sans-serif;text-anchor:middle;" transform="matrix(1 0 0 1 2933.4 322)">Black</text>
  <line id="" style="fill:none;stroke:black;opacity:1;stroke-width:0.5;" x1="263" x2="3036" y1="1903" y2="1903"/>
  <g id="" transform="matrix(1 0 0 1 263 1933)">
   <path d="M 9.24805 0.830078 C 13.5547 0.830078 17.1387 -2.74414 17.1387 -7.05078 C 17.1387 -11.3574 13.5449 -14.9316 9.23828 -14.9316 C 4.94141 -14.9316 1.36719 -11.3574 1.36719 -7.05078 C 1.36719 -2.74414 4.95117 0.830078 9.24805 0.830078 Z M 9.24805 -0.654297 C 5.70312 -0.654297 2.87109 -3.49609 2.87109 -7.05078 C 2.87109 -10.6055 5.69336 -13.4473 9.23828 -13.4473 C 12.793 -13.4473 15.6348 -10.6055 15.6445 -7.05078 C 15.6543 -3.49609 12.8027 -0.654297 9.24805 -0.654297 Z M 9.22852 -3.42773 C 9.69727 -3.42773 9.9707 -3.74023 9.9707 -4.25781 L 9.9707 -6.31836 L 12.1973 -6.31836 C 12.6953 -6.31836 13.0371 -6.57227 13.0371 -7.04102 C 13.0371 -7.51953 12.7148 -7.7832 12.1973 -7.7832 L 9.9707 -7.7832 L 9.9707 -10.0098 C 9.9707 -10.5273 9.69727 -10.8496 9.22852 -10.8496 C 8.75977 -10.8496 8.50586 -10.5078 8.50586 -10.0098 L 8.50586 -7.7832 L 6.29883 -7.7832 C 5.78125 -7.7832 5.44922 -7.51953 5.44922 -7.04102 C 5.44922 -6.57227 5.80078 -6.31836 6.29883 -6.31836 L 8.50586 -6.31836 L 8.50586 -4.25781 C 8.50586 -3.75977 8.75977 -3.42773 9.22852 -3.42773 Z"/>
  </g>
  <g id="" transform="matrix(1 0 0 1 281.506 1933)">
   <path d="M 11.709 2.91016 C 17.1484 2.91016 21.6699 -1.60156 21.6699 -7.05078 C 21.6699 -12.4902 17.1387 -17.0117 11.6992 -17.0117 C 6.25 -17.0117 1.74805 -12.4902 1.74805 -7.05078 C 1.74805 -1.60156 6.25977 2.91016 11.709 2.91016 Z M 11.709 1.25 C 7.09961 1.25 3.41797 -2.44141 3.41797 -7.05078 C 3.41797 -11.6504 7.08984 -15.3516 11.6992 -15.3516 C 16.2988 -15.3516 20 -11.6504 20.0098 -7.05078 C 20.0195 -2.44141 16.3086 1.25 11.709 1.25 Z M 11.6797 -2.41211 C 12.207 -2.41211 12.5195 -2.77344 12.5195 -3.33984 L 12.5195 -6.23047 L 15.5762 -6.23047 C 16.123 -6.23047 16.5039 -6.51367 16.5039 -7.03125 C 16.5039 -7.55859 16.1426 -7.86133 15.5762 -7.86133 L 12.5195 -7.86133 L 12.5195 -10.9277 C 12.5195 -11.5039 12.207 -11.8555 11.6797 -11.8555 C 11.1621 -11.8555 10.8789 -11.4844 10.8789 -10.9277 L 10.8789 -7.86133 L 7.83203 -7.86133 C 7.25586 -7.86133 6.89453 -7.55859 6.89453 -7.03125 C 6.89453 -6.51367 7.28516 -6.23047 7.83203 -6.23047 L 10.8789 -6.23047 L 10.8789 -3.33984 C 10.8789 -2.79297 11.1621 -2.41211 11.6797 -2.41211 Z"/>
  </g>
  <g id="" transform="matrix(1 0 0 1 304.914 1933)">
   <path d="M 14.9707 5.67383 C 21.9336 5.67383 27.6855 -0.078125 27.6855 -7.04102 C 27.6855 -14.0039 21.9238 -19.7559 14.9609 -19.7559 C 7.99805 -19.7559 2.25586 -14.0039 2.25586 -7.04102 C 2.25586 -0.078125 8.00781 5.67383 14.9707 5.67383 Z M 14.9707 3.85742 C 8.92578 3.85742 4.08203 -1.00586 4.08203 -7.04102 C 4.08203 -13.0762 8.91602 -17.9395 14.9609 -17.9395 C 20.9961 -17.9395 25.8594 -13.0762 25.8691 -7.04102 C 25.8789 -1.00586 21.0059 3.85742 14.9707 3.85742 Z M 14.9414 -1.06445 C 15.5176 -1.06445 15.8594 -1.45508 15.8594 -2.06055 L 15.8594 -6.13281 L 20.0977 -6.13281 C 20.6934 -6.13281 21.1133 -6.46484 21.1133 -7.02148 C 21.1133 -7.59766 20.7227 -7.93945 20.0977 -7.93945 L 15.8594 -7.93945 L 15.8594 -12.1875 C 15.8594 -12.8027 15.5176 -13.1934 14.9414 -13.1934 C 14.3848 -13.1934 14.0625 -12.7832 14.0625 -12.1875 L 14.0625 -7.93945 L 9.82422 -7.93945 C 9.20898 -7.93945 8.80859 -7.59766 8.80859 -7.02148 C 8.80859 -6.46484 9.23828 -6.13281 9.82422 -6.13281 L 14.0625 -6.13281 L 14.0625 -2.06055 C 14.0625 -1.47461 14.3848 -1.06445 14.9414 -1.06445 Z"/>
  </g>
  <text style="stroke:none;fill:black;font-family:-apple-system,&quot;SF Pro Display&quot;,&quot;SF Pro Text&quot;,Helvetica,sans-serif;font-weight:bold;" transform="matrix(1 0 0 1 263 1953)">Design Variations</text>
  <text style="stroke:none;fill:black;font-family:-apple-system,&quot;SF Pro Display&quot;,&quot;SF Pro Text&quot;,Helvetica,sans-serif;" transform="matrix(1 0 0 1 263 1971)">Symbols are supported in up to nine weights and three scales.</text>
  <text style="stroke:none;fill:black;font-family:-apple-system,&quot;SF Pro Display&quot;,&quot;SF Pro Text&quot;,Helvetica,sans-serif;" transform="matrix(1 0 0 1 263 1989)">For optimal layout with text and other symbols, vertically align</text>
  <text style="stroke:none;fill:black;font-family:-apple-system,&quot;SF Pro Display&quot;,&quot;SF Pro Text&quot;,Helvetica,sans-serif;" transform="matrix(1 0 0 1 263 2007)">symbols with the adjacent text.</text>
  <rect height="14" id="" style="fill:#00AEEF;stroke:none;opacity:0.4;" width="3" x="776" y="1919"/>
  <g id="" transform="matrix(1 0 0 1 779 1933)">
   <path d="M 10.5273 0 L 12.373 0 L 7.17773 -14.0918 L 5.43945 -14.0918 L 0.244141 0 L 2.08984 0 L 3.50586 -4.0332 L 9.11133 -4.0332 Z M 6.2793 -11.9531 L 6.33789 -11.9531 L 8.59375 -5.52734 L 4.02344 -5.52734 Z"/>
  </g>
  <rect height="14" id="" style="fill:#00AEEF;stroke:none;opacity:0.4;" width="3" x="791.617" y="1919"/>
  <text style="stroke:none;fill:black;font-family:-apple-system,&quot;SF Pro Display&quot;,&quot;SF Pro Text&quot;,Helvetica,sans-serif;font-weight:bold;" transform="matrix(1 0 0 1 776 1953)">Side Bearings</text>
  <text style="stroke:none;fill:black;font-family:-apple-system,&quot;SF Pro Display&quot;,&quot;SF Pro Text&quot;,Helvetica,sans-serif;" transform="matrix(1 0 0 1 776 1971)">Horizontal padding on the left and right side of each symbol</text>
  <text style="stroke:none;fill:black;font-family:-apple-system,&quot;SF Pro Display&quot;,&quot;SF Pro Text&quot;,Helvetica,sans-serif;" transform="matrix(1 0 0 1 776 1989)">can be adjusted by modifying the width of the blue rectangles.</text>
  <text style="stroke:none;fill:black;font-family:-apple-system,&quot;SF Pro Display&quot;,&quot;SF Pro Text&quot;,Helvetica,sans-serif;" transform="matrix(1 0 0 1 776 2007)">Modifications are automatically applied proportionally to all</text>
  <text style="stroke:none;fill:black;font-family:-apple-system,&quot;SF Pro Display&quot;,&quot;SF Pro Text&quot;,Helvetica,sans-serif;" transform="matrix(1 0 0 1 776 2025)">scales and weights.</text>
  <g id="" transform="matrix(1 0 0 1 1289 1933)">
   <path d="M 2.96875 2.35352 L 3.80859 3.19336 C 4.84375 4.22852 6.12305 4.15039 7.19727 2.97852 L 16.1621 -6.82617 C 16.5527 -6.74805 16.9629 -6.8457 17.4902 -7.02148 C 18.1738 -7.25586 18.2715 -7.25586 18.3887 -7.13867 C 18.5352 -7.01172 18.4863 -6.89453 18.2422 -6.25 C 17.8809 -5.33203 17.8125 -4.79492 18.5547 -4.02344 L 19.4238 -3.13477 C 20.2734 -2.24609 21.3281 -2.26562 22.2168 -3.14453 L 25.0586 -5.97656 C 25.9473 -6.86523 25.957 -7.92969 25.0781 -8.7793 L 24.1797 -9.64844 C 23.4082 -10.4004 22.8711 -10.3516 21.9629 -9.98047 C 21.3184 -9.72656 21.2012 -9.6875 21.0645 -9.81445 C 20.9375 -9.93164 20.9473 -10.0391 21.1816 -10.7129 C 21.5332 -11.6895 21.5723 -12.2852 20.752 -13.0957 L 19.3359 -14.5117 C 15.1953 -18.6133 11.2305 -18.7402 7.65625 -15.4395 C 7.08008 -14.9023 6.99219 -14.1504 7.53906 -13.6133 L 7.79297 -13.3594 C 8.22266 -12.9297 8.86719 -12.8418 9.41406 -13.1152 C 11.0645 -13.9453 12.2559 -14.0234 13.457 -12.9785 L 13.0273 -11.416 C 12.8516 -10.8008 12.793 -10.3418 12.9199 -9.93164 L 3.18359 -1.04492 C 2.02148 0.0292969 1.93359 1.32812 2.96875 2.35352 Z M 8.96484 -14.4922 C 8.89648 -14.5703 8.86719 -14.6582 8.99414 -14.7559 C 11.709 -17.2852 15.0391 -16.8457 18.3496 -13.5254 L 19.6973 -12.168 C 20.0879 -11.7773 20.0977 -11.582 19.8828 -10.8691 C 19.6582 -10.127 19.502 -9.53125 20.1465 -8.88672 C 20.8105 -8.22266 21.2891 -8.41797 22.207 -8.63281 C 22.9004 -8.79883 23.0664 -8.79883 23.4473 -8.41797 L 24.0918 -7.77344 C 24.4043 -7.48047 24.4141 -7.32422 24.0723 -6.97266 L 21.2207 -4.13086 C 20.8887 -3.79883 20.7227 -3.79883 20.4297 -4.10156 L 19.7852 -4.75586 C 19.4141 -5.13672 19.4141 -5.30273 19.5801 -6.01562 C 19.7852 -6.88477 19.9805 -7.38281 19.3262 -8.04688 C 18.6719 -8.7207 18.0762 -8.57422 17.3438 -8.33008 C 16.5625 -8.06641 16.3281 -8.06641 15.8984 -8.49609 L 14.6094 -9.78516 C 14.1699 -10.2246 14.1309 -10.4395 14.2676 -10.9082 L 15.0293 -13.3984 C 13.3887 -15.2832 11.4941 -15.5566 9.20898 -14.4434 C 9.11133 -14.3945 9.04297 -14.4141 8.96484 -14.4922 Z M 3.96484 1.36719 C 3.52539 0.927734 3.54492 0.537109 4.14062 -0.00976562 L 13.7402 -8.81836 L 15 -7.55859 L 6.17188 2.02148 C 5.625 2.60742 5.24414 2.64648 4.79492 2.19727 Z"/>
  </g>
  <text style="stroke:none;fill:black;font-family:-apple-system,&quot;SF Pro Display&quot;,&quot;SF Pro Text&quot;,Helvetica,sans-serif;font-weight:bold;" transform="matrix(1 0 0 1 1289 1953)">Exporting</text>
  <text style="stroke:none;fill:black;font-family:-apple-system,&quot;SF Pro Display&quot;,&quot;SF Pro Text&quot;,Helvetica,sans-serif;" transform="matrix(1 0 0 1 1289 1971)">Symbols should be outlined when exporting to ensure the</text>
  <text style="stroke:none;fill:black;font-family:-apple-system,&quot;SF Pro Display&quot;,&quot;SF Pro Text&quot;,Helvetica,sans-serif;" transform="matrix(1 0 0 1 1289 1989)">design is preserved when submitting to Xcode.</text>
  <text id="template-version" style="stroke:none;fill:black;font-family:-apple-system,&quot;SF Pro Display&quot;,&quot;SF Pro Text&quot;,Helvetica,sans-serif;text-anchor:end;" transform="matrix(1 0 0 1 3036 1933)">Template v.0.1</text>
  <text style="stroke:none;fill:black;font-family:-apple-system,&quot;SF Pro Display&quot;,&quot;SF Pro Text&quot;,Helvetica,sans-serif;text-anchor:end;" transform="matrix(1 0 0 1 3036 1951)">Generated from folder</text>
  <text style="stroke:none;fill:black;font-family:-apple-system,&quot;SF Pro Display&quot;,&quot;SF Pro Text&quot;,Helvetica,sans-serif;text-anchor:end;" transform="matrix(1 0 0 1 3036 1969)">Typeset at 100 points</text>
  <text style="stroke:none;fill:black;font-family:-apple-system,&quot;SF Pro Display&quot;,&quot;SF Pro Text&quot;,Helvetica,sans-serif;" transform="matrix(1 0 0 1 263 726)">Small</text>
  <text style="stroke:none;fill:black;font-family:-apple-system,&quot;SF Pro Display&quot;,&quot;SF Pro Text&quot;,Helvetica,sans-serif;" transform="matrix(1 0 0 1 263 1156)">Medium</text>
  <text style="stroke:none;fill:black;font-family:-apple-system,&quot;SF Pro Display&quot;,&quot;SF Pro Text&quot;,Helvetica,sans-serif;" transform="matrix(1 0 0 1 263 1586)">Large</text>
 </g>
 <g id="Guides">
  <g id="H-reference" style="fill:#27AAE1;stroke:none;" transform="matrix(1 0 0 1 339 696)">
   <path d="M 54.9316 0 L 57.666 0 L 30.5664 -70.459 L 28.0762 -70.459 L 0.976562 0 L 3.66211 0 L 12.9395 -24.4629 L 45.7031 -24.4629 Z M 29.1992 -67.0898 L 29.4434 -67.0898 L 44.8242 -26.709 L 13.8184 -26.709 Z"/>
  </g>
  <line id="Baseline-S" style="fill:none;stroke:#27AAE1;opacity:1;stroke-width:0.577;" x1="263" x2="3036" y1="696" y2="696"/>
  <line id="Capline-S" style="fill:none;stroke:#27AAE1;opacity:1;stroke-width:0.577;" x1="263" x2="3036" y1="625.541" y2="625.541"/>
  <g id="H-reference" style="fill:#27AAE1;stroke:none;" transform="matrix(1 0 0 1 339 1126)">
   <path d="M 54.9316 0 L 57.666 0 L 30.5664 -70.459 L 28.0762 -70.459 L 0.976562 0 L 3.66211 0 L 12.9395 -24.4629 L 45.7031 -24.4629 Z M 29.1992 -67.0898 L 29.4434 -67.0898 L 44.8242 -26.709 L 13.8184 -26.709 Z"/>
  </g>
  <line id="Baseline-M" style="fill:none;stroke:#27AAE1;opacity:1;stroke-width:0.577;" x1="263" x2="3036" y1="1126" y2="1126"/>
  <line id="Capline-M" style="fill:none;stroke:#27AAE1;opacity:1;stroke-width:0.577;" x1="263" x2="3036" y1="1055.54" y2="1055.54"/>
  <g id="H-reference" style="fill:#27AAE1;stroke:none;" transform="matrix(1 0 0 1 339 1556)">
   <path d="M 54.9316 0 L 57.666 0 L 30.5664 -70.459 L 28.0762 -70.459 L 0.976562 0 L 3.66211 0 L 12.9395 -24.4629 L 45.7031 -24.4629 Z M 29.1992 -67.0898 L 29.4434 -67.0898 L 44.8242 -26.709 L 13.8184 -26.709 Z"/>
  </g>
  <line id="Baseline-L" style="fill:none;stroke:#27AAE1;opacity:1;stroke-width:0.577;" x1="263" x2="3036" y1="1556" y2="1556"/>
  <line id="Capline-L" style="fill:none;stroke:#27AAE1;opacity:1;stroke-width:0.577;" x1="263" x2="3036" y1="1485.54" y2="1485.54"/>
  <rect height="119.336" id="left-margin" style="fill:#00AEEF;stroke:none;opacity:0.4;" width="12.4512" x="1381.31" y="1030.79"/>
  <rect height="119.336" id="right-margin" style="fill:#00AEEF;stroke:none;opacity:0.4;" width="12.5" x="1505.87" y="1030.79"/>
 </g>
 <g id="Symbols">
  <g id="Ultralight-S" transform="matrix(1 0 0 1 507.612 696)">
   <path d="M 19.7754 -1.5625 L 84.5215 -1.5625 C 90.9668 -1.5625 94.4336 -5.12695 94.4336 -11.5234 L 94.4336 -51.9531 C 94.4336 -58.3984 90.9668 -61.9629 84.4238 -61.9629 L 46.4844 -61.9629 C 43.0664 -61.9629 41.5527 -62.3535 39.4531 -64.3555 L 37.4512 -66.2109 C 34.9609 -68.6035 33.5938 -69.043 29.6875 -69.043 L 18.3594 -69.043 C 12.5977 -69.043 9.76562 -66.2109 9.76562 -60.498 L 9.76562 -11.5234 C 9.76562 -5.0293 13.2324 -1.5625 19.7754 -1.5625 Z M 11.9629 -60.2539 C 11.9629 -64.7949 14.1602 -66.9434 18.6523 -66.9434 L 29.2969 -66.9434 C 32.5684 -66.9434 33.9355 -66.5039 36.2305 -64.3555 L 38.1836 -62.5 C 40.4785 -60.3516 42.1387 -59.7168 46.1426 -59.7168 L 84.3262 -59.7168 C 89.3555 -59.7168 92.2363 -57.0312 92.2363 -51.8555 L 92.2363 -47.1191 L 11.9629 -47.1191 Z M 19.873 -3.75977 C 14.6484 -3.75977 11.9629 -6.44531 11.9629 -11.6699 L 11.9629 -44.9219 L 92.2363 -44.9219 L 92.2363 -11.6699 C 92.2363 -6.44531 89.3555 -3.75977 84.3262 -3.75977 Z"/>
  </g>
  <g id="Thin-S" transform="matrix(1 0 0 1 803.883 696)">
   <path d="M 20.3125 -1.12305 L 85.1562 -1.12305 C 91.6992 -1.12305 95.3125 -4.78516 95.3125 -11.6211 L 95.3125 -52.002 C 95.3125 -58.8379 91.6992 -62.5 84.7656 -62.5 L 47.0215 -62.5 C 43.7988 -62.5 42.334 -62.9883 40.2344 -64.8926 L 38.1836 -66.748 C 35.6445 -69.0918 34.1309 -69.5801 30.2246 -69.5801 L 18.8965 -69.5801 C 12.8906 -69.5801 9.76562 -66.5039 9.76562 -60.2051 L 9.76562 -11.6211 C 9.76562 -4.6875 13.3789 -1.12305 20.3125 -1.12305 Z M 13.0859 -59.9121 C 13.0859 -64.2578 15.1855 -66.3574 19.4824 -66.3574 L 29.541 -66.3574 C 32.6172 -66.3574 34.0332 -65.8691 36.1816 -63.8184 L 38.2812 -61.9629 C 40.625 -59.8145 42.3828 -59.1797 46.3379 -59.1797 L 84.668 -59.1797 C 89.3066 -59.1797 91.9922 -56.6895 91.9922 -51.8066 L 91.9922 -47.8027 L 13.0859 -47.8027 Z M 20.4102 -4.44336 C 15.625 -4.44336 13.0859 -6.93359 13.0859 -11.8164 L 13.0859 -44.5801 L 91.9922 -44.5801 L 91.9922 -11.7676 C 91.9922 -6.93359 89.3066 -4.44336 84.668 -4.44336 Z"/>
  </g>
  <g id="Light-S" transform="matrix(1 0 0 1 1099.74 696)">
   <path d="M 21.3867 -0.292969 L 86.3281 -0.292969 C 93.1152 -0.292969 97.0215 -4.15039 97.0215 -11.7676 L 97.0215 -52.0996 C 97.0215 -59.668 93.1152 -63.5742 85.4004 -63.5742 L 48.0469 -63.5742 C 45.2637 -63.5742 43.75 -64.1602 41.7969 -65.8691 L 39.502 -67.7734 C 37.0117 -69.9707 35.1562 -70.6055 31.3477 -70.6055 L 19.9707 -70.6055 C 13.4277 -70.6055 9.76562 -66.9922 9.76562 -59.6191 L 9.76562 -11.7676 C 9.76562 -4.15039 13.6719 -0.292969 21.3867 -0.292969 Z M 15.1855 -59.3262 C 15.1855 -63.2324 17.2363 -65.2344 21.0449 -65.2344 L 29.9805 -65.2344 C 32.666 -65.2344 34.1797 -64.6484 36.1816 -62.8906 L 38.4277 -60.9375 C 40.8691 -58.8867 42.8711 -58.1543 46.6797 -58.1543 L 85.3027 -58.1543 C 89.3066 -58.1543 91.6016 -56.0059 91.6016 -51.8066 L 91.6016 -49.0723 L 15.1855 -49.0723 Z M 21.4844 -5.71289 C 17.4316 -5.71289 15.1855 -7.86133 15.1855 -12.0605 L 15.1855 -43.9453 L 91.6016 -43.9453 L 91.6016 -12.0117 C 91.6016 -7.86133 89.3066 -5.71289 85.3027 -5.71289 Z"/>
  </g>
  <g id="Regular-S" transform="matrix(1 0 0 1 1395.82 696)">
   <path d="M 22.2168 0.390625 L 87.2559 0.390625 C 94.1895 0.390625 98.291 -3.71094 98.291 -11.9141 L 98.291 -52.1484 C 98.291 -60.3516 94.1406 -64.4043 85.8398 -64.4043 L 48.7793 -64.4043 C 46.3867 -64.4043 44.8242 -65.0879 42.9688 -66.6016 L 40.5273 -68.5547 C 37.9883 -70.6543 35.8887 -71.3867 32.1777 -71.3867 L 20.752 -71.3867 C 13.8672 -71.3867 9.76562 -67.3828 9.76562 -59.2285 L 9.76562 -11.9141 C 9.76562 -3.71094 13.916 0.390625 22.2168 0.390625 Z M 16.7969 -58.8867 C 16.7969 -62.5 18.75 -64.3555 22.2656 -64.3555 L 30.3223 -64.3555 C 32.7148 -64.3555 34.2773 -63.6719 36.1328 -62.1582 L 38.5742 -60.2051 C 41.0645 -58.1543 43.2129 -57.373 46.9238 -57.373 L 85.7422 -57.373 C 89.2578 -57.373 91.2598 -55.4688 91.2598 -51.7578 L 91.2598 -50.0488 L 16.7969 -50.0488 Z M 22.3145 -6.68945 C 18.7988 -6.68945 16.7969 -8.54492 16.7969 -12.2559 L 16.7969 -43.457 L 91.2598 -43.457 L 91.2598 -12.207 C 91.2598 -8.54492 89.2578 -6.68945 85.7422 -6.68945 Z"/>
  </g>
  <g id="Medium-S" transform="matrix(1 0 0 1 1692.06 696)">
   <path d="M 22.8516 0.976562 L 87.207 0.976562 C 94.7754 0.976562 99.2188 -3.4668 99.2188 -11.9629 L 99.2188 -52.2949 C 99.2188 -60.8398 94.7266 -65.2344 86.1328 -65.2344 L 50.6348 -65.2344 C 47.9492 -65.2344 46.2891 -65.918 44.1406 -67.627 L 41.9434 -69.3848 C 39.209 -71.5332 37.1094 -72.3145 33.0566 -72.3145 L 21.7285 -72.3145 C 14.3066 -72.3145 9.76562 -67.8711 9.76562 -59.375 L 9.76562 -11.9629 C 9.76562 -3.4668 14.2578 0.976562 22.8516 0.976562 Z M 18.4082 -58.6426 C 18.4082 -61.9141 20.3125 -63.6719 23.4863 -63.6719 L 30.7129 -63.6719 C 33.3496 -63.6719 35.0098 -62.9883 37.1582 -61.2793 L 39.3555 -59.5215 C 42.1387 -57.373 44.2383 -56.5918 48.291 -56.5918 L 85.5469 -56.5918 C 88.7695 -56.5918 90.5762 -54.9316 90.5762 -51.5137 L 90.5762 -49.5605 L 18.4082 -49.5605 Z M 23.4375 -7.71484 C 20.2148 -7.71484 18.4082 -9.375 18.4082 -12.793 L 18.4082 -42.041 L 90.5762 -42.041 L 90.5762 -12.7441 C 90.5762 -9.375 88.7695 -7.71484 85.5469 -7.71484 Z"/>
  </g>
  <g id="Semibold-S" transform="matrix(1 0 0 1 1988.41 696)">
   <path d="M 23.3398 1.41602 L 87.1582 1.41602 C 95.166 1.41602 99.9512 -3.32031 99.9512 -12.0605 L 99.9512 -52.4414 C 99.9512 -61.1816 95.166 -65.918 86.377 -65.918 L 52.002 -65.918 C 49.1699 -65.918 47.4121 -66.6016 45.0684 -68.4082 L 43.0176 -70.0195 C 40.1367 -72.2656 38.0371 -73.0469 33.7402 -73.0469 L 22.5098 -73.0469 C 14.6484 -73.0469 9.76562 -68.2617 9.76562 -59.5215 L 9.76562 -12.0605 C 9.76562 -3.32031 14.5508 1.41602 23.3398 1.41602 Z M 19.6777 -58.4473 C 19.6777 -61.4746 21.4355 -63.1348 24.4629 -63.1348 L 31.0547 -63.1348 C 33.8379 -63.1348 35.5957 -62.4512 37.9395 -60.6445 L 39.9902 -59.0332 C 42.9199 -56.7871 45.0195 -56.0059 49.3164 -56.0059 L 85.4004 -56.0059 C 88.3789 -56.0059 90.0391 -54.4922 90.0391 -51.3184 L 90.0391 -49.2188 L 19.6777 -49.2188 Z M 24.3164 -8.49609 C 21.2891 -8.49609 19.6777 -10.0098 19.6777 -13.1836 L 19.6777 -40.9668 L 90.0391 -40.9668 L 90.0391 -13.1836 C 90.0391 -10.0098 88.3789 -8.49609 85.4004 -8.49609 Z"/>
  </g>
  <g id="Bold-S" transform="matrix(1 0 0 1 2284.66 696)">
   <path d="M 23.9746 2.00195 L 87.1582 2.00195 C 95.752 2.00195 100.879 -3.07617 100.879 -12.1582 L 100.879 -52.5879 C 100.879 -61.6699 95.752 -66.748 86.6211 -66.748 L 53.8574 -66.748 C 50.7812 -66.748 48.877 -67.4805 46.2891 -69.4336 L 44.4824 -70.8008 C 41.3574 -73.1934 39.2578 -73.9746 34.6191 -73.9746 L 23.4863 -73.9746 C 15.0879 -73.9746 9.76562 -68.7988 9.76562 -59.7168 L 9.76562 -12.1582 C 9.76562 -3.07617 14.8926 2.00195 23.9746 2.00195 Z M 21.3379 -58.1543 C 21.3379 -60.8398 22.998 -62.4512 25.7324 -62.4512 L 31.4453 -62.4512 C 34.5215 -62.4512 36.377 -61.7676 39.0137 -59.7656 L 40.8203 -58.3984 C 43.9453 -56.0059 46.0938 -55.2246 50.6836 -55.2246 L 85.1562 -55.2246 C 87.8906 -55.2246 89.3066 -53.9551 89.3066 -51.0254 L 89.3066 -48.7793 L 21.3379 -48.7793 Z M 25.4395 -9.57031 C 22.7051 -9.57031 21.3379 -10.791 21.3379 -13.7207 L 21.3379 -39.5508 L 89.3066 -39.5508 L 89.3066 -13.7207 C 89.3066 -10.791 87.8906 -9.57031 85.1562 -9.57031 Z"/>
  </g>
  <g id="Heavy-S" transform="matrix(1 0 0 1 2580.71 696)">
   <path d="M 24.9023 2.83203 L 87.0605 2.83203 C 96.582 2.83203 102.197 -2.7832 102.197 -12.3047 L 102.197 -52.8809 C 102.197 -62.3535 96.582 -68.0176 87.0605 -68.0176 L 56.543 -68.0176 C 53.125 -68.0176 51.0254 -68.7012 48.0469 -70.8984 L 46.5332 -72.0215 C 43.1152 -74.5605 41.0156 -75.3418 35.8887 -75.3418 L 24.9512 -75.3418 C 15.7715 -75.3418 9.76562 -69.5801 9.76562 -59.9609 L 9.76562 -12.3047 C 9.76562 -2.7832 15.3809 2.83203 24.9023 2.83203 Z M 23.6816 -57.8125 C 23.6816 -60.0098 25.2441 -61.4258 27.5391 -61.4258 L 32.0801 -61.4258 C 35.498 -61.4258 37.4512 -60.7422 40.5273 -58.4961 L 41.9922 -57.4219 C 45.5078 -54.834 47.6074 -54.0527 52.6855 -54.0527 L 84.8633 -54.0527 C 87.1582 -54.0527 88.2812 -53.1738 88.2812 -50.6836 L 88.2812 -48.0957 L 23.6816 -48.0957 Z M 27.0996 -11.084 C 24.8047 -11.084 23.6816 -12.0117 23.6816 -14.502 L 23.6816 -37.5 L 88.2812 -37.5 L 88.2812 -14.502 C 88.2812 -12.0117 87.1582 -11.084 84.8633 -11.084 Z"/>
  </g>
  <g id="Black-S" transform="matrix(1 0 0 1 2876.81 696)">
   <path d="M 25.7324 3.61328 L 87.0117 3.61328 C 97.3145 3.61328 103.418 -2.49023 103.418 -12.4023 L 103.418 -53.0762 C 103.418 -62.9883 97.3145 -69.0918 87.4512 -69.0918 L 58.8867 -69.0918 C 55.1758 -69.0918 52.9297 -69.873 49.6094 -72.2168 L 48.3887 -73.0469 C 44.6777 -75.7324 42.5781 -76.6113 37.0605 -76.6113 L 26.2695 -76.6113 C 16.3574 -76.6113 9.76562 -70.2637 9.76562 -60.2051 L 9.76562 -12.4023 C 9.76562 -2.49023 15.8203 3.61328 25.7324 3.61328 Z M 25.8301 -57.4707 C 25.8301 -59.2285 27.1973 -60.5469 29.1992 -60.5469 L 32.6172 -60.5469 C 36.3281 -60.5469 38.4766 -59.8633 41.8945 -57.373 L 43.0664 -56.543 C 46.875 -53.8086 48.9258 -53.0273 54.4434 -53.0273 L 84.5703 -53.0273 C 86.5234 -53.0273 87.3535 -52.4414 87.3535 -50.3418 L 87.3535 -47.5098 L 25.8301 -47.5098 Z M 28.5645 -12.4512 C 26.6602 -12.4512 25.8301 -13.0371 25.8301 -15.1855 L 25.8301 -35.6934 L 87.3535 -35.6934 L 87.3535 -15.1855 C 87.3535 -13.0371 86.5234 -12.4512 84.5703 -12.4512 Z"/>
  </g>
  <g id="Ultralight-M" transform="matrix(1 0 0 1 493.378 1126)">
   <path d="M 25 7.56836 L 107.617 7.56836 C 115.869 7.56836 120.215 3.125 120.215 -4.98047 L 120.215 -56.5918 C 120.215 -64.6484 115.869 -69.0918 107.666 -69.0918 L 59.1797 -69.0918 C 54.6387 -69.0918 52.7832 -69.6289 50.0488 -72.2168 L 47.5586 -74.6094 C 44.3848 -77.6855 42.7246 -78.2227 37.6465 -78.2227 L 23.1934 -78.2227 C 16.0156 -78.2227 12.4512 -74.707 12.4512 -67.5781 L 12.4512 -4.98047 C 12.4512 3.22266 16.7969 7.56836 25 7.56836 Z M 14.8438 -67.2852 C 14.8438 -73.1445 17.6758 -75.9277 23.4863 -75.9277 L 37.3047 -75.9277 C 41.5527 -75.9277 43.3105 -75.3906 46.2402 -72.5586 L 48.7305 -70.2148 C 51.6113 -67.4805 53.7109 -66.6992 58.8379 -66.6992 L 107.52 -66.6992 C 114.062 -66.6992 117.822 -63.2324 117.822 -56.4453 L 117.822 -50.1465 L 14.8438 -50.1465 Z M 25.1465 5.17578 C 18.3594 5.17578 14.8438 1.66016 14.8438 -5.07812 L 14.8438 -47.7539 L 117.822 -47.7539 L 117.822 -5.07812 C 117.822 1.66016 114.062 5.17578 107.52 5.17578 Z"/>
  </g>
  <g id="Thin-M" transform="matrix(1 0 0 1 789.601 1126)">
   <path d="M 25.6348 8.05664 L 108.35 8.05664 C 116.699 8.05664 121.191 3.4668 121.191 -5.0293 L 121.191 -56.6406 C 121.191 -65.1367 116.65 -69.7266 108.008 -69.7266 L 59.7656 -69.7266 C 55.5176 -69.7266 53.6133 -70.3125 50.9277 -72.8027 L 48.3398 -75.1953 C 45.166 -78.1738 43.3105 -78.8086 38.2812 -78.8086 L 23.8281 -78.8086 C 16.3086 -78.8086 12.4512 -75 12.4512 -67.2363 L 12.4512 -5.0293 C 12.4512 3.56445 16.9922 8.05664 25.6348 8.05664 Z M 16.1133 -66.8945 C 16.1133 -72.5586 18.8477 -75.293 24.4141 -75.293 L 37.5488 -75.293 C 41.6016 -75.293 43.4082 -74.6582 46.2402 -72.0215 L 48.8281 -69.6289 C 51.7578 -66.8945 53.9551 -66.1133 59.0332 -66.1133 L 107.91 -66.1133 C 114.014 -66.1133 117.578 -62.793 117.578 -56.4453 L 117.578 -50.8789 L 16.1133 -50.8789 Z M 25.7324 4.44336 C 19.4336 4.44336 16.1133 1.12305 16.1133 -5.22461 L 16.1133 -47.3633 L 117.578 -47.3633 L 117.578 -5.22461 C 117.578 1.12305 114.014 4.44336 107.91 4.44336 Z"/>
  </g>
  <g id="Light-M" transform="matrix(1 0 0 1 1085.34 1126)">
   <path d="M 26.8555 9.0332 L 109.717 9.0332 C 118.262 9.0332 123.145 4.15039 123.145 -5.22461 L 123.145 -56.6895 C 123.145 -66.1133 118.262 -70.9473 108.74 -70.9473 L 60.8887 -70.9473 C 57.1777 -70.9473 55.2246 -71.6797 52.6855 -73.9258 L 49.8535 -76.3672 C 46.6797 -79.1992 44.4336 -79.9805 39.5508 -79.9805 L 25 -79.9805 C 16.9434 -79.9805 12.4512 -75.5371 12.4512 -66.6016 L 12.4512 -5.22461 C 12.4512 4.19922 17.334 9.0332 26.8555 9.0332 Z M 18.5059 -66.2109 C 18.5059 -71.4355 21.1426 -73.9746 26.2207 -73.9746 L 38.0859 -73.9746 C 41.6504 -73.9746 43.5547 -73.291 46.1914 -70.8984 L 48.9746 -68.5059 C 52.0508 -65.8203 54.4922 -64.9414 59.4238 -64.9414 L 108.594 -64.9414 C 113.965 -64.9414 117.09 -62.0117 117.09 -56.3965 L 117.09 -52.3438 L 18.5059 -52.3438 Z M 27.002 2.97852 C 21.4844 2.97852 18.5059 0.0976562 18.5059 -5.56641 L 18.5059 -46.6309 L 117.09 -46.6309 L 117.09 -5.51758 C 117.09 0.0976562 113.965 2.97852 108.594 2.97852 Z"/>
  </g>
  <g id="Regular-M" transform="matrix(1 0 0 1 1381.31 1126)">
   <path d="M 27.7832 9.76562 L 110.742 9.76562 C 119.482 9.76562 124.561 4.6875 124.561 -5.37109 L 124.561 -56.7871 C 124.561 -66.8457 119.434 -71.875 109.277 -71.875 L 61.7676 -71.875 C 58.4473 -71.875 56.4453 -72.7051 54.0039 -74.7559 L 51.0254 -77.2461 C 47.8027 -79.9316 45.3125 -80.8594 40.4785 -80.8594 L 25.9277 -80.8594 C 17.3828 -80.8594 12.4512 -75.9766 12.4512 -66.1133 L 12.4512 -5.37109 C 12.4512 4.73633 17.627 9.76562 27.7832 9.76562 Z M 20.3125 -65.7227 C 20.3125 -70.5566 22.9004 -72.998 27.5391 -72.998 L 38.4766 -72.998 C 41.6992 -72.998 43.6523 -72.2168 46.1426 -70.0684 L 49.1211 -67.627 C 52.2949 -64.9902 54.8828 -64.0137 59.7168 -64.0137 L 109.131 -64.0137 C 113.965 -64.0137 116.699 -61.4258 116.699 -56.3477 L 116.699 -53.418 L 20.3125 -53.418 Z M 27.9297 1.9043 C 23.0469 1.9043 20.3125 -0.683594 20.3125 -5.76172 L 20.3125 -46.0449 L 116.699 -46.0449 L 116.699 -5.71289 C 116.699 -0.683594 113.965 1.9043 109.131 1.9043 Z"/>
  </g>
  <g id="Medium-M" transform="matrix(1 0 0 1 1677.49 1126)">
   <path d="M 28.5645 10.4492 L 110.791 10.4492 C 120.215 10.4492 125.684 4.98047 125.684 -5.46875 L 125.684 -56.9336 C 125.684 -67.3828 120.166 -72.8516 109.619 -72.8516 L 63.7207 -72.8516 C 60.2051 -72.8516 58.1055 -73.6816 55.3711 -75.9277 L 52.6367 -78.1738 C 49.1699 -80.957 46.6309 -81.9336 41.5039 -81.9336 L 27.0508 -81.9336 C 17.9199 -81.9336 12.4512 -76.5625 12.4512 -66.2598 L 12.4512 -5.46875 C 12.4512 4.98047 17.9688 10.4492 28.5645 10.4492 Z M 22.2168 -65.3809 C 22.2168 -69.873 24.6582 -72.2168 29.0039 -72.2168 L 38.916 -72.2168 C 42.3828 -72.2168 44.4336 -71.3867 47.2168 -69.1406 L 49.9512 -66.8457 C 53.3691 -64.1113 56.0059 -63.1348 61.1328 -63.1348 L 108.984 -63.1348 C 113.428 -63.1348 115.967 -60.791 115.967 -56.1035 L 115.967 -53.125 L 22.2168 -53.125 Z M 29.1504 0.732422 C 24.6582 0.732422 22.2168 -1.61133 22.2168 -6.34766 L 22.2168 -44.5801 L 115.967 -44.5801 L 115.967 -6.29883 C 115.967 -1.61133 113.428 0.732422 108.984 0.732422 Z"/>
  </g>
  <g id="Semibold-M" transform="matrix(1 0 0 1 1973.76 1126)">
   <path d="M 29.1016 10.9863 L 110.889 10.9863 C 120.752 10.9863 126.562 5.17578 126.562 -5.56641 L 126.562 -57.0801 C 126.562 -67.8223 120.703 -73.6328 109.863 -73.6328 L 65.2344 -73.6328 C 61.5723 -73.6328 59.375 -74.4629 56.4453 -76.7578 L 53.8086 -78.9062 C 50.1953 -81.7871 47.6562 -82.7148 42.2852 -82.7148 L 27.9297 -82.7148 C 18.3105 -82.7148 12.4512 -77.002 12.4512 -66.3574 L 12.4512 -5.56641 C 12.4512 5.22461 18.3105 10.9863 29.1016 10.9863 Z M 23.6328 -65.1367 C 23.6328 -69.3359 25.9766 -71.582 30.127 -71.582 L 39.3066 -71.582 C 42.9199 -71.582 45.0684 -70.752 47.998 -68.3594 L 50.6348 -66.2598 C 54.1992 -63.4277 56.8359 -62.4512 62.207 -62.4512 L 108.887 -62.4512 C 113.037 -62.4512 115.381 -60.3027 115.381 -55.8594 L 115.381 -52.832 L 23.6328 -52.832 Z M 30.127 -0.195312 C 25.9277 -0.195312 23.6328 -2.34375 23.6328 -6.78711 L 23.6328 -43.4082 L 115.381 -43.4082 L 115.381 -6.73828 C 115.381 -2.34375 113.037 -0.195312 108.887 -0.195312 Z"/>
  </g>
  <g id="Bold-M" transform="matrix(1 0 0 1 2269.91 1126)">
   <path d="M 29.8828 11.6699 L 110.938 11.6699 C 121.484 11.6699 127.686 5.46875 127.686 -5.66406 L 127.686 -57.2754 C 127.686 -68.4082 121.436 -74.6094 110.254 -74.6094 L 67.1875 -74.6094 C 63.3301 -74.6094 61.0352 -75.4883 57.8613 -77.9297 L 55.4199 -79.834 C 51.6113 -82.8125 48.9746 -83.7891 43.3105 -83.7891 L 29.0527 -83.7891 C 18.7988 -83.7891 12.4512 -77.5879 12.4512 -66.4551 L 12.4512 -5.66406 C 12.4512 5.51758 18.6523 11.6699 29.8828 11.6699 Z M 25.5371 -64.8438 C 25.5371 -68.6035 27.7832 -70.752 31.543 -70.752 L 39.7461 -70.752 C 43.6035 -70.752 45.8496 -69.873 49.0723 -67.3828 L 51.4648 -65.4785 C 55.3223 -62.5 57.959 -61.5234 63.6719 -61.5234 L 108.691 -61.5234 C 112.549 -61.5234 114.6 -59.668 114.6 -55.6152 L 114.6 -52.4902 L 25.5371 -52.4902 Z M 31.3965 -1.41602 C 27.5879 -1.41602 25.5371 -3.27148 25.5371 -7.32422 L 25.5371 -41.8945 L 114.6 -41.8945 L 114.6 -7.32422 C 114.6 -3.27148 112.549 -1.41602 108.691 -1.41602 Z"/>
  </g>
  <g id="Heavy-M" transform="matrix(1 0 0 1 2565.81 1126)">
   <path d="M 31.0059 12.6465 L 111.084 12.6465 C 122.51 12.6465 129.297 5.9082 129.297 -5.81055 L 129.297 -57.5195 C 129.297 -69.2871 122.51 -76.0254 110.742 -76.0254 L 70.0684 -76.0254 C 65.9668 -76.0254 63.4277 -76.9531 59.8633 -79.5898 L 57.7637 -81.2012 C 53.6133 -84.3262 50.9277 -85.3516 44.7754 -85.3516 L 30.7129 -85.3516 C 19.5801 -85.3516 12.4512 -78.4668 12.4512 -66.6504 L 12.4512 -5.81055 C 12.4512 5.9082 19.2383 12.6465 31.0059 12.6465 Z M 28.2715 -64.3555 C 28.2715 -67.5781 30.3711 -69.5312 33.6914 -69.5312 L 40.4297 -69.5312 C 44.5801 -69.5312 47.0215 -68.6523 50.6348 -65.9668 L 52.7344 -64.3555 C 56.9336 -61.1816 59.5703 -60.2051 65.7715 -60.2051 L 108.496 -60.2051 C 111.768 -60.2051 113.477 -58.7402 113.477 -55.2246 L 113.477 -52.002 L 28.2715 -52.002 Z M 33.252 -3.17383 C 29.9805 -3.17383 28.2715 -4.63867 28.2715 -8.1543 L 28.2715 -39.6973 L 113.477 -39.6973 L 113.477 -8.1543 C 113.477 -4.63867 111.768 -3.17383 108.496 -3.17383 Z"/>
  </g>
  <g id="Black-M" transform="matrix(1 0 0 1 2861.79 1126)">
   <path d="M 31.9824 13.5742 L 111.182 13.5742 C 123.486 13.5742 130.762 6.29883 130.762 -5.95703 L 130.762 -57.7637 C 130.762 -70.0195 123.486 -77.2949 111.23 -77.2949 L 72.6562 -77.2949 C 68.2617 -77.2949 65.5762 -78.2715 61.6699 -81.0547 L 59.8145 -82.4219 C 55.3711 -85.6934 52.6855 -86.7188 46.0938 -86.7188 L 32.1777 -86.7188 C 20.2637 -86.7188 12.4512 -79.1992 12.4512 -66.8457 L 12.4512 -5.95703 C 12.4512 6.29883 19.7266 13.5742 31.9824 13.5742 Z M 30.7617 -63.9648 C 30.7617 -66.6504 32.666 -68.457 35.5469 -68.457 L 41.0645 -68.457 C 45.459 -68.457 48.0469 -67.5781 52.002 -64.6973 L 53.8574 -63.3301 C 58.3496 -60.0098 61.0352 -59.0332 67.627 -59.0332 L 108.301 -59.0332 C 111.133 -59.0332 112.451 -57.959 112.451 -54.834 L 112.451 -51.5625 L 30.7617 -51.5625 Z M 34.9121 -4.73633 C 32.0801 -4.73633 30.7617 -5.81055 30.7617 -8.88672 L 30.7617 -37.7441 L 112.451 -37.7441 L 112.451 -8.88672 C 112.451 -5.81055 111.133 -4.73633 108.301 -4.73633 Z"/>
  </g>
  <g id="Ultralight-L" transform="matrix(1 0 0 1 474.335 1556)">
   <path d="M 31.9824 19.7754 L 138.574 19.7754 C 149.121 19.7754 154.688 14.0625 154.688 3.85742 L 154.688 -62.7441 C 154.688 -72.9492 149.17 -78.6621 138.77 -78.6621 L 76.0742 -78.6621 C 70.166 -78.6621 67.7246 -79.2969 64.1602 -82.7148 L 61.0352 -85.791 C 56.9336 -89.7461 54.834 -90.4297 48.291 -90.4297 L 29.6875 -90.4297 C 20.5078 -90.4297 16.0645 -86.0352 16.0645 -77.0996 L 16.0645 3.85742 C 16.0645 14.2578 21.6309 19.7754 31.9824 19.7754 Z M 18.6523 -76.709 C 18.6523 -84.375 22.2656 -88.0371 29.8828 -88.0371 L 48.0469 -88.0371 C 53.6133 -88.0371 55.8594 -87.3535 59.668 -83.6426 L 62.8418 -80.6152 C 66.5039 -77.0508 69.1895 -76.123 75.8301 -76.123 L 138.623 -76.123 C 147.168 -76.123 152.148 -71.5332 152.148 -62.6465 L 152.148 -54.1504 L 18.6523 -54.1504 Z M 32.1289 17.2363 C 23.2422 17.2363 18.6523 12.6465 18.6523 3.75977 L 18.6523 -51.5625 L 152.148 -51.5625 L 152.148 3.71094 C 152.148 12.6465 147.168 17.2363 138.623 17.2363 Z"/>
  </g>
  <g id="Thin-L" transform="matrix(1 0 0 1 770.485 1556)">
   <path d="M 32.7148 20.3613 L 139.355 20.3613 C 150.049 20.3613 155.762 14.4531 155.762 3.75977 L 155.762 -62.793 C 155.762 -73.5352 150.049 -79.3945 139.16 -79.3945 L 76.7578 -79.3945 C 71.0938 -79.3945 68.6523 -80.0781 65.1855 -83.3496 L 61.9141 -86.4258 C 57.7637 -90.332 55.5176 -91.1133 49.0234 -91.1133 L 30.3711 -91.1133 C 20.8496 -91.1133 16.0645 -86.3281 16.0645 -76.7578 L 16.0645 3.75977 C 16.0645 14.6484 21.8262 20.3613 32.7148 20.3613 Z M 20.0195 -76.3184 C 20.0195 -83.7402 23.584 -87.3047 30.9082 -87.3047 L 48.3398 -87.3047 C 53.6621 -87.3047 55.957 -86.5723 59.668 -83.0566 L 62.9395 -79.9805 C 66.6992 -76.4648 69.4824 -75.4395 76.0254 -75.4395 L 139.014 -75.4395 C 147.168 -75.4395 151.855 -71.0449 151.855 -62.5977 L 151.855 -54.9805 L 20.0195 -54.9805 Z M 32.8613 16.4062 C 24.4141 16.4062 20.0195 12.0117 20.0195 3.56445 L 20.0195 -51.123 L 151.855 -51.123 L 151.855 3.56445 C 151.855 12.0117 147.168 16.4062 139.014 16.4062 Z"/>
  </g>
  <g id="Light-L" transform="matrix(1 0 0 1 1066.12 1556)">
   <path d="M 34.082 21.4355 L 140.869 21.4355 C 151.855 21.4355 157.91 15.2344 157.91 3.56445 L 157.91 -62.8906 C 157.91 -74.6094 151.807 -80.7617 139.941 -80.7617 L 78.0273 -80.7617 C 72.9492 -80.7617 70.5078 -81.5918 67.1387 -84.6191 L 63.623 -87.7441 C 59.4727 -91.4551 56.7871 -92.3828 50.4395 -92.3828 L 31.6895 -92.3828 C 21.5332 -92.3828 16.0645 -86.9629 16.0645 -76.0254 L 16.0645 3.56445 C 16.0645 15.3809 22.2168 21.4355 34.082 21.4355 Z M 22.7051 -75.5859 C 22.7051 -82.4707 26.1719 -85.8887 32.9102 -85.8887 L 48.877 -85.8887 C 53.7109 -85.8887 56.1035 -85.0098 59.6191 -81.8359 L 63.1348 -78.7109 C 67.041 -75.2441 70.0684 -74.1211 76.4648 -74.1211 L 139.795 -74.1211 C 147.119 -74.1211 151.318 -70.166 151.318 -62.5488 L 151.318 -56.5918 L 22.7051 -56.5918 Z M 34.2285 14.7949 C 26.709 14.7949 22.7051 10.8398 22.7051 3.22266 L 22.7051 -50.293 L 151.318 -50.293 L 151.318 3.27148 C 151.318 10.8398 147.119 14.7949 139.795 14.7949 Z"/>
  </g>
  <g id="Regular-L" transform="matrix(1 0 0 1 1362.03 1556)">
   <path d="M 35.1074 22.2168 L 142.041 22.2168 C 153.174 22.2168 159.57 15.8691 159.57 3.41797 L 159.57 -62.9883 C 159.57 -75.3906 153.125 -81.7871 140.527 -81.7871 L 78.9551 -81.7871 C 74.3652 -81.7871 71.875 -82.7148 68.6035 -85.5469 L 64.8926 -88.7207 C 60.7422 -92.2852 57.7148 -93.3594 51.4648 -93.3594 L 32.7148 -93.3594 C 22.0703 -93.3594 16.0645 -87.4512 16.0645 -75.4883 L 16.0645 3.41797 C 16.0645 15.918 22.5098 22.2168 35.1074 22.2168 Z M 24.7559 -75 C 24.7559 -81.4941 28.125 -84.7656 34.4727 -84.7656 L 49.3164 -84.7656 C 53.8086 -84.7656 56.25 -83.8379 59.5703 -80.9082 L 63.2812 -77.7344 C 67.2852 -74.3164 70.5078 -73.1445 76.8066 -73.1445 L 140.381 -73.1445 C 147.07 -73.1445 150.928 -69.5312 150.928 -62.5 L 150.928 -57.8125 L 24.7559 -57.8125 Z M 35.2539 13.5742 C 28.4668 13.5742 24.7559 9.96094 24.7559 2.97852 L 24.7559 -49.6582 L 150.928 -49.6582 L 150.928 3.02734 C 150.928 9.96094 147.07 13.5742 140.381 13.5742 Z"/>
  </g>
  <g id="Medium-L" transform="matrix(1 0 0 1 1658.08 1556)">
   <path d="M 35.9863 22.998 L 142.334 22.998 C 154.102 22.998 160.889 16.2109 160.889 3.27148 L 160.889 -63.1348 C 160.889 -76.0742 154.053 -82.8613 140.967 -82.8613 L 80.957 -82.8613 C 76.2207 -82.8613 73.584 -83.8379 70.1172 -86.7676 L 66.6016 -89.7461 C 62.207 -93.4082 59.1309 -94.5312 52.5879 -94.5312 L 33.9355 -94.5312 C 22.6074 -94.5312 16.0645 -88.0859 16.0645 -75.4883 L 16.0645 3.27148 C 16.0645 16.2598 22.9004 22.998 35.9863 22.998 Z M 26.8066 -74.6094 C 26.8066 -80.7129 30.0781 -83.8379 36.0352 -83.8379 L 49.8047 -83.8379 C 54.3945 -83.8379 56.9824 -82.8613 60.5469 -79.834 L 64.0625 -76.8555 C 68.3105 -73.291 71.582 -72.1191 78.1738 -72.1191 L 140.332 -72.1191 C 146.582 -72.1191 150.146 -68.8477 150.146 -62.2559 L 150.146 -57.7637 L 26.8066 -57.7637 Z M 36.6211 12.2559 C 30.2734 12.2559 26.8066 8.98438 26.8066 2.39258 L 26.8066 -48.1934 L 150.146 -48.1934 L 150.146 2.44141 C 150.146 8.98438 146.582 12.2559 140.332 12.2559 Z"/>
  </g>
  <g id="Semibold-L" transform="matrix(1 0 0 1 1954.28 1556)">
   <path d="M 36.6699 23.584 L 142.529 23.584 C 154.785 23.584 161.865 16.5039 161.865 3.17383 L 161.865 -63.2812 C 161.865 -76.6113 154.736 -83.6914 141.309 -83.6914 L 82.4707 -83.6914 C 77.6855 -83.6914 74.9512 -84.7168 71.2891 -87.6953 L 67.8711 -90.5273 C 63.3789 -94.2383 60.2051 -95.4102 53.4668 -95.4102 L 34.8633 -95.4102 C 23.0469 -95.4102 16.0645 -88.5742 16.0645 -75.5371 L 16.0645 3.17383 C 16.0645 16.5527 23.2422 23.584 36.6699 23.584 Z M 28.418 -74.3164 C 28.418 -80.0781 31.5918 -83.1055 37.2559 -83.1055 L 50.1953 -83.1055 C 54.8828 -83.1055 57.5684 -82.0801 61.2793 -79.0039 L 64.6973 -76.1719 C 69.1406 -72.5586 72.4121 -71.3379 79.1992 -71.3379 L 140.332 -71.3379 C 146.24 -71.3379 149.561 -68.3105 149.561 -62.0605 L 149.561 -57.666 L 28.418 -57.666 Z M 37.6465 11.2793 C 31.6406 11.2793 28.418 8.20312 28.418 1.95312 L 28.418 -47.0703 L 149.561 -47.0703 L 149.561 2.00195 C 149.561 8.20312 146.24 11.2793 140.332 11.2793 Z"/>
  </g>
  <g id="Bold-L" transform="matrix(1 0 0 1 2250.33 1556)">
   <path d="M 37.5488 24.3652 L 142.822 24.3652 C 155.713 24.3652 163.184 16.8945 163.184 3.07617 L 163.184 -63.4766 C 163.184 -77.2949 155.664 -84.7656 141.748 -84.7656 L 84.4238 -84.7656 C 79.5898 -84.7656 76.709 -85.8398 72.8516 -88.916 L 69.5801 -91.6016 C 64.8438 -95.3613 61.6211 -96.582 54.5898 -96.582 L 36.084 -96.582 C 23.6328 -96.582 16.0645 -89.1602 16.0645 -75.5371 L 16.0645 3.07617 C 16.0645 16.8945 23.6328 24.3652 37.5488 24.3652 Z M 30.5176 -73.877 C 30.5176 -79.248 33.5449 -82.1289 38.8672 -82.1289 L 50.7324 -82.1289 C 55.5176 -82.1289 58.3008 -81.1035 62.207 -77.9785 L 65.5273 -75.293 C 70.166 -71.582 73.5352 -70.3613 80.5664 -70.3613 L 140.283 -70.3613 C 145.752 -70.3613 148.779 -67.5781 148.779 -61.8164 L 148.779 -57.6172 L 30.5176 -57.6172 Z M 38.9648 9.91211 C 33.4473 9.91211 30.5176 7.17773 30.5176 1.41602 L 30.5176 -45.5566 L 148.779 -45.5566 L 148.779 1.41602 C 148.779 7.17773 145.752 9.91211 140.283 9.91211 Z"/>
  </g>
  <g id="Heavy-L" transform="matrix(1 0 0 1 2546.09 1556)">
   <path d="M 38.8184 25.4883 L 143.213 25.4883 C 157.031 25.4883 165.137 17.4316 165.137 2.88086 L 165.137 -63.7207 C 165.137 -78.2715 156.982 -86.377 142.383 -86.377 L 87.3535 -86.377 C 82.3242 -86.377 79.2969 -87.5 75.0977 -90.6738 L 72.0703 -93.1152 C 67.041 -96.9727 63.6719 -98.2422 56.2012 -98.2422 L 37.8418 -98.2422 C 24.4629 -98.2422 16.0645 -90.0879 16.0645 -75.5859 L 16.0645 2.88086 C 16.0645 17.4316 24.2188 25.4883 38.8184 25.4883 Z M 33.5938 -73.3398 C 33.5938 -78.0762 36.4258 -80.7617 41.2109 -80.7617 L 51.4648 -80.7617 C 56.4453 -80.7617 59.375 -79.6875 63.623 -76.416 L 66.6992 -74.0234 C 71.7285 -70.1172 75.1465 -68.8477 82.5684 -68.8477 L 140.234 -68.8477 C 145.068 -68.8477 147.607 -66.5527 147.607 -61.4258 L 147.607 -57.4707 L 33.5938 -57.4707 Z M 40.9668 8.00781 C 36.1328 8.00781 33.5938 5.71289 33.5938 0.585938 L 33.5938 -43.3594 L 147.607 -43.3594 L 147.607 0.585938 C 147.607 5.71289 145.068 8.00781 140.234 8.00781 Z"/>
  </g>
  <g id="Black-L" transform="matrix(1 0 0 1 2841.94 1556)">
   <path d="M 39.9902 26.5137 L 143.604 26.5137 C 158.203 26.5137 166.846 17.8711 166.846 2.68555 L 166.846 -63.9648 C 166.846 -79.1504 158.154 -87.793 142.92 -87.793 L 89.9414 -87.793 C 84.7656 -87.793 81.543 -88.9648 77.0996 -92.2852 L 74.2676 -94.4336 C 68.9453 -98.3887 65.4785 -99.7559 57.666 -99.7559 L 39.4531 -99.7559 C 25.1953 -99.7559 16.0645 -90.918 16.0645 -75.5859 L 16.0645 2.68555 C 16.0645 17.8711 24.7559 26.5137 39.9902 26.5137 Z M 36.3281 -72.8027 C 36.3281 -77.002 39.0137 -79.4922 43.3105 -79.4922 L 52.0996 -79.4922 C 57.2754 -79.4922 60.3516 -78.3691 64.8926 -75 L 67.7246 -72.8516 C 73.0957 -68.8477 76.5625 -67.5293 84.375 -67.5293 L 140.234 -67.5293 C 144.434 -67.5293 146.582 -65.6738 146.582 -61.084 L 146.582 -57.373 L 36.3281 -57.373 Z M 42.7246 6.29883 C 38.4766 6.29883 36.3281 4.39453 36.3281 -0.146484 L 36.3281 -41.4551 L 146.582 -41.4551 L 146.582 -0.146484 C 146.582 4.39453 144.434 6.29883 140.234 6.29883 Z"/>
  </g>
 </g>
</svg>
