<?xml version="1.0" encoding="UTF-8"?>
<!--Generator: Apple Native CoreSVG 123-->
<!DOCTYPE svg
PUBLIC "-//W3C//DTD SVG 1.1//EN"
       "http://www.w3.org/Graphics/SVG/1.1/DTD/svg11.dtd">
<svg version="1.1" xmlns="http://www.w3.org/2000/svg" xmlns:xlink="http://www.w3.org/1999/xlink" width="3300" height="2200">
 <!--glyph: "uni10020F.medium", point size: 100.000000, font version: "Version 15.0d4e20", template writer version: "2"-->
 <g id="Notes">
  <rect height="2200" id="artboard" style="fill:white;opacity:1" width="3300" x="0" y="0"/>
  <line id="" style="fill:none;stroke:black;opacity:1;stroke-width:0.5;" x1="263" x2="3036" y1="292" y2="292"/>
  <text style="stroke:none;fill:black;font-family:-apple-system,&quot;SF Pro Display&quot;,&quot;SF Pro Text&quot;,Helvetica,sans-serif;font-weight:bold;" transform="matrix(1 0 0 1 263 322)">Weight/Scale Variations</text>
  <text style="stroke:none;fill:black;font-family:-apple-system,&quot;SF Pro Display&quot;,&quot;SF Pro Text&quot;,Helvetica,sans-serif;text-anchor:middle;" transform="matrix(1 0 0 1 559.711 322)">Ultralight</text>
  <text style="stroke:none;fill:black;font-family:-apple-system,&quot;SF Pro Display&quot;,&quot;SF Pro Text&quot;,Helvetica,sans-serif;text-anchor:middle;" transform="matrix(1 0 0 1 856.422 322)">Thin</text>
  <text style="stroke:none;fill:black;font-family:-apple-system,&quot;SF Pro Display&quot;,&quot;SF Pro Text&quot;,Helvetica,sans-serif;text-anchor:middle;" transform="matrix(1 0 0 1 1153.13 322)">Light</text>
  <text style="stroke:none;fill:black;font-family:-apple-system,&quot;SF Pro Display&quot;,&quot;SF Pro Text&quot;,Helvetica,sans-serif;text-anchor:middle;" transform="matrix(1 0 0 1 1449.84 322)">Regular</text>
  <text style="stroke:none;fill:black;font-family:-apple-system,&quot;SF Pro Display&quot;,&quot;SF Pro Text&quot;,Helvetica,sans-serif;text-anchor:middle;" transform="matrix(1 0 0 1 1746.56 322)">Medium</text>
  <text style="stroke:none;fill:black;font-family:-apple-system,&quot;SF Pro Display&quot;,&quot;SF Pro Text&quot;,Helvetica,sans-serif;text-anchor:middle;" transform="matrix(1 0 0 1 2043.27 322)">Semibold</text>
  <text style="stroke:none;fill:black;font-family:-apple-system,&quot;SF Pro Display&quot;,&quot;SF Pro Text&quot;,Helvetica,sans-serif;text-anchor:middle;" transform="matrix(1 0 0 1 2339.98 322)">Bold</text>
  <text style="stroke:none;fill:black;font-family:-apple-system,&quot;SF Pro Display&quot;,&quot;SF Pro Text&quot;,Helvetica,sans-serif;text-anchor:middle;" transform="matrix(1 0 0 1 2636.69 322)">Heavy</text>
  <text style="stroke:none;fill:black;font-family:-apple-system,&quot;SF Pro Display&quot;,&quot;SF Pro Text&quot;,Helvetica,sans-serif;text-anchor:middle;" transform="matrix(1 0 0 1 2933.4 322)">Black</text>
  <line id="" style="fill:none;stroke:black;opacity:1;stroke-width:0.5;" x1="263" x2="3036" y1="1903" y2="1903"/>
  <g id="" transform="matrix(1 0 0 1 263 1933)">
   <path d="M 9.24805 0.830078 C 13.5547 0.830078 17.1387 -2.74414 17.1387 -7.05078 C 17.1387 -11.3574 13.5449 -14.9316 9.23828 -14.9316 C 4.94141 -14.9316 1.36719 -11.3574 1.36719 -7.05078 C 1.36719 -2.74414 4.95117 0.830078 9.24805 0.830078 Z M 9.24805 -0.654297 C 5.70312 -0.654297 2.87109 -3.49609 2.87109 -7.05078 C 2.87109 -10.6055 5.69336 -13.4473 9.23828 -13.4473 C 12.793 -13.4473 15.6348 -10.6055 15.6445 -7.05078 C 15.6543 -3.49609 12.8027 -0.654297 9.24805 -0.654297 Z M 9.22852 -3.42773 C 9.69727 -3.42773 9.9707 -3.74023 9.9707 -4.25781 L 9.9707 -6.31836 L 12.1973 -6.31836 C 12.6953 -6.31836 13.0371 -6.57227 13.0371 -7.04102 C 13.0371 -7.51953 12.7148 -7.7832 12.1973 -7.7832 L 9.9707 -7.7832 L 9.9707 -10.0098 C 9.9707 -10.5273 9.69727 -10.8496 9.22852 -10.8496 C 8.75977 -10.8496 8.50586 -10.5078 8.50586 -10.0098 L 8.50586 -7.7832 L 6.29883 -7.7832 C 5.78125 -7.7832 5.44922 -7.51953 5.44922 -7.04102 C 5.44922 -6.57227 5.80078 -6.31836 6.29883 -6.31836 L 8.50586 -6.31836 L 8.50586 -4.25781 C 8.50586 -3.75977 8.75977 -3.42773 9.22852 -3.42773 Z"/>
  </g>
  <g id="" transform="matrix(1 0 0 1 281.506 1933)">
   <path d="M 11.709 2.91016 C 17.1484 2.91016 21.6699 -1.60156 21.6699 -7.05078 C 21.6699 -12.4902 17.1387 -17.0117 11.6992 -17.0117 C 6.25 -17.0117 1.74805 -12.4902 1.74805 -7.05078 C 1.74805 -1.60156 6.25977 2.91016 11.709 2.91016 Z M 11.709 1.25 C 7.09961 1.25 3.41797 -2.44141 3.41797 -7.05078 C 3.41797 -11.6504 7.08984 -15.3516 11.6992 -15.3516 C 16.2988 -15.3516 20 -11.6504 20.0098 -7.05078 C 20.0195 -2.44141 16.3086 1.25 11.709 1.25 Z M 11.6797 -2.41211 C 12.207 -2.41211 12.5195 -2.77344 12.5195 -3.33984 L 12.5195 -6.23047 L 15.5762 -6.23047 C 16.123 -6.23047 16.5039 -6.51367 16.5039 -7.03125 C 16.5039 -7.55859 16.1426 -7.86133 15.5762 -7.86133 L 12.5195 -7.86133 L 12.5195 -10.9277 C 12.5195 -11.5039 12.207 -11.8555 11.6797 -11.8555 C 11.1621 -11.8555 10.8789 -11.4844 10.8789 -10.9277 L 10.8789 -7.86133 L 7.83203 -7.86133 C 7.25586 -7.86133 6.89453 -7.55859 6.89453 -7.03125 C 6.89453 -6.51367 7.28516 -6.23047 7.83203 -6.23047 L 10.8789 -6.23047 L 10.8789 -3.33984 C 10.8789 -2.79297 11.1621 -2.41211 11.6797 -2.41211 Z"/>
  </g>
  <g id="" transform="matrix(1 0 0 1 304.914 1933)">
   <path d="M 14.9707 5.67383 C 21.9336 5.67383 27.6855 -0.078125 27.6855 -7.04102 C 27.6855 -14.0039 21.9238 -19.7559 14.9609 -19.7559 C 7.99805 -19.7559 2.25586 -14.0039 2.25586 -7.04102 C 2.25586 -0.078125 8.00781 5.67383 14.9707 5.67383 Z M 14.9707 3.85742 C 8.92578 3.85742 4.08203 -1.00586 4.08203 -7.04102 C 4.08203 -13.0762 8.91602 -17.9395 14.9609 -17.9395 C 20.9961 -17.9395 25.8594 -13.0762 25.8691 -7.04102 C 25.8789 -1.00586 21.0059 3.85742 14.9707 3.85742 Z M 14.9414 -1.06445 C 15.5176 -1.06445 15.8594 -1.45508 15.8594 -2.06055 L 15.8594 -6.13281 L 20.0977 -6.13281 C 20.6934 -6.13281 21.1133 -6.46484 21.1133 -7.02148 C 21.1133 -7.59766 20.7227 -7.93945 20.0977 -7.93945 L 15.8594 -7.93945 L 15.8594 -12.1875 C 15.8594 -12.8027 15.5176 -13.1934 14.9414 -13.1934 C 14.3848 -13.1934 14.0625 -12.7832 14.0625 -12.1875 L 14.0625 -7.93945 L 9.82422 -7.93945 C 9.20898 -7.93945 8.80859 -7.59766 8.80859 -7.02148 C 8.80859 -6.46484 9.23828 -6.13281 9.82422 -6.13281 L 14.0625 -6.13281 L 14.0625 -2.06055 C 14.0625 -1.47461 14.3848 -1.06445 14.9414 -1.06445 Z"/>
  </g>
  <text style="stroke:none;fill:black;font-family:-apple-system,&quot;SF Pro Display&quot;,&quot;SF Pro Text&quot;,Helvetica,sans-serif;font-weight:bold;" transform="matrix(1 0 0 1 263 1953)">Design Variations</text>
  <text style="stroke:none;fill:black;font-family:-apple-system,&quot;SF Pro Display&quot;,&quot;SF Pro Text&quot;,Helvetica,sans-serif;" transform="matrix(1 0 0 1 263 1971)">Symbols are supported in up to nine weights and three scales.</text>
  <text style="stroke:none;fill:black;font-family:-apple-system,&quot;SF Pro Display&quot;,&quot;SF Pro Text&quot;,Helvetica,sans-serif;" transform="matrix(1 0 0 1 263 1989)">For optimal layout with text and other symbols, vertically align</text>
  <text style="stroke:none;fill:black;font-family:-apple-system,&quot;SF Pro Display&quot;,&quot;SF Pro Text&quot;,Helvetica,sans-serif;" transform="matrix(1 0 0 1 263 2007)">symbols with the adjacent text.</text>
  <rect height="14" id="" style="fill:#00AEEF;stroke:none;opacity:0.4;" width="3" x="776" y="1919"/>
  <g id="" transform="matrix(1 0 0 1 779 1933)">
   <path d="M 10.5273 0 L 12.373 0 L 7.17773 -14.0918 L 5.43945 -14.0918 L 0.244141 0 L 2.08984 0 L 3.50586 -4.0332 L 9.11133 -4.0332 Z M 6.2793 -11.9531 L 6.33789 -11.9531 L 8.59375 -5.52734 L 4.02344 -5.52734 Z"/>
  </g>
  <rect height="14" id="" style="fill:#00AEEF;stroke:none;opacity:0.4;" width="3" x="791.617" y="1919"/>
  <text style="stroke:none;fill:black;font-family:-apple-system,&quot;SF Pro Display&quot;,&quot;SF Pro Text&quot;,Helvetica,sans-serif;font-weight:bold;" transform="matrix(1 0 0 1 776 1953)">Side Bearings</text>
  <text style="stroke:none;fill:black;font-family:-apple-system,&quot;SF Pro Display&quot;,&quot;SF Pro Text&quot;,Helvetica,sans-serif;" transform="matrix(1 0 0 1 776 1971)">Horizontal padding on the left and right side of each symbol</text>
  <text style="stroke:none;fill:black;font-family:-apple-system,&quot;SF Pro Display&quot;,&quot;SF Pro Text&quot;,Helvetica,sans-serif;" transform="matrix(1 0 0 1 776 1989)">can be adjusted by modifying the width of the blue rectangles.</text>
  <text style="stroke:none;fill:black;font-family:-apple-system,&quot;SF Pro Display&quot;,&quot;SF Pro Text&quot;,Helvetica,sans-serif;" transform="matrix(1 0 0 1 776 2007)">Modifications are automatically applied proportionally to all</text>
  <text style="stroke:none;fill:black;font-family:-apple-system,&quot;SF Pro Display&quot;,&quot;SF Pro Text&quot;,Helvetica,sans-serif;" transform="matrix(1 0 0 1 776 2025)">scales and weights.</text>
  <g id="" transform="matrix(1 0 0 1 1289 1933)">
   <path d="M 2.96875 2.35352 L 3.80859 3.19336 C 4.84375 4.22852 6.12305 4.15039 7.19727 2.97852 L 16.1621 -6.82617 C 16.5527 -6.74805 16.9629 -6.8457 17.4902 -7.02148 C 18.1738 -7.25586 18.2715 -7.25586 18.3887 -7.13867 C 18.5352 -7.01172 18.4863 -6.89453 18.2422 -6.25 C 17.8809 -5.33203 17.8125 -4.79492 18.5547 -4.02344 L 19.4238 -3.13477 C 20.2734 -2.24609 21.3281 -2.26562 22.2168 -3.14453 L 25.0586 -5.97656 C 25.9473 -6.86523 25.957 -7.92969 25.0781 -8.7793 L 24.1797 -9.64844 C 23.4082 -10.4004 22.8711 -10.3516 21.9629 -9.98047 C 21.3184 -9.72656 21.2012 -9.6875 21.0645 -9.81445 C 20.9375 -9.93164 20.9473 -10.0391 21.1816 -10.7129 C 21.5332 -11.6895 21.5723 -12.2852 20.752 -13.0957 L 19.3359 -14.5117 C 15.1953 -18.6133 11.2305 -18.7402 7.65625 -15.4395 C 7.08008 -14.9023 6.99219 -14.1504 7.53906 -13.6133 L 7.79297 -13.3594 C 8.22266 -12.9297 8.86719 -12.8418 9.41406 -13.1152 C 11.0645 -13.9453 12.2559 -14.0234 13.457 -12.9785 L 13.0273 -11.416 C 12.8516 -10.8008 12.793 -10.3418 12.9199 -9.93164 L 3.18359 -1.04492 C 2.02148 0.0292969 1.93359 1.32812 2.96875 2.35352 Z M 8.96484 -14.4922 C 8.89648 -14.5703 8.86719 -14.6582 8.99414 -14.7559 C 11.709 -17.2852 15.0391 -16.8457 18.3496 -13.5254 L 19.6973 -12.168 C 20.0879 -11.7773 20.0977 -11.582 19.8828 -10.8691 C 19.6582 -10.127 19.502 -9.53125 20.1465 -8.88672 C 20.8105 -8.22266 21.2891 -8.41797 22.207 -8.63281 C 22.9004 -8.79883 23.0664 -8.79883 23.4473 -8.41797 L 24.0918 -7.77344 C 24.4043 -7.48047 24.4141 -7.32422 24.0723 -6.97266 L 21.2207 -4.13086 C 20.8887 -3.79883 20.7227 -3.79883 20.4297 -4.10156 L 19.7852 -4.75586 C 19.4141 -5.13672 19.4141 -5.30273 19.5801 -6.01562 C 19.7852 -6.88477 19.9805 -7.38281 19.3262 -8.04688 C 18.6719 -8.7207 18.0762 -8.57422 17.3438 -8.33008 C 16.5625 -8.06641 16.3281 -8.06641 15.8984 -8.49609 L 14.6094 -9.78516 C 14.1699 -10.2246 14.1309 -10.4395 14.2676 -10.9082 L 15.0293 -13.3984 C 13.3887 -15.2832 11.4941 -15.5566 9.20898 -14.4434 C 9.11133 -14.3945 9.04297 -14.4141 8.96484 -14.4922 Z M 3.96484 1.36719 C 3.52539 0.927734 3.54492 0.537109 4.14062 -0.00976562 L 13.7402 -8.81836 L 15 -7.55859 L 6.17188 2.02148 C 5.625 2.60742 5.24414 2.64648 4.79492 2.19727 Z"/>
  </g>
  <text style="stroke:none;fill:black;font-family:-apple-system,&quot;SF Pro Display&quot;,&quot;SF Pro Text&quot;,Helvetica,sans-serif;font-weight:bold;" transform="matrix(1 0 0 1 1289 1953)">Exporting</text>
  <text style="stroke:none;fill:black;font-family:-apple-system,&quot;SF Pro Display&quot;,&quot;SF Pro Text&quot;,Helvetica,sans-serif;" transform="matrix(1 0 0 1 1289 1971)">Symbols should be outlined when exporting to ensure the</text>
  <text style="stroke:none;fill:black;font-family:-apple-system,&quot;SF Pro Display&quot;,&quot;SF Pro Text&quot;,Helvetica,sans-serif;" transform="matrix(1 0 0 1 1289 1989)">design is preserved when submitting to Xcode.</text>
  <text id="template-version" style="stroke:none;fill:black;font-family:-apple-system,&quot;SF Pro Display&quot;,&quot;SF Pro Text&quot;,Helvetica,sans-serif;text-anchor:end;" transform="matrix(1 0 0 1 3036 1933)">Template v.0.1</text>
  <text style="stroke:none;fill:black;font-family:-apple-system,&quot;SF Pro Display&quot;,&quot;SF Pro Text&quot;,Helvetica,sans-serif;text-anchor:end;" transform="matrix(1 0 0 1 3036 1951)">Generated from pencil.and.ellipsis.rectangle</text>
  <text style="stroke:none;fill:black;font-family:-apple-system,&quot;SF Pro Display&quot;,&quot;SF Pro Text&quot;,Helvetica,sans-serif;text-anchor:end;" transform="matrix(1 0 0 1 3036 1969)">Typeset at 100 points</text>
  <text style="stroke:none;fill:black;font-family:-apple-system,&quot;SF Pro Display&quot;,&quot;SF Pro Text&quot;,Helvetica,sans-serif;" transform="matrix(1 0 0 1 263 726)">Small</text>
  <text style="stroke:none;fill:black;font-family:-apple-system,&quot;SF Pro Display&quot;,&quot;SF Pro Text&quot;,Helvetica,sans-serif;" transform="matrix(1 0 0 1 263 1156)">Medium</text>
  <text style="stroke:none;fill:black;font-family:-apple-system,&quot;SF Pro Display&quot;,&quot;SF Pro Text&quot;,Helvetica,sans-serif;" transform="matrix(1 0 0 1 263 1586)">Large</text>
 </g>
 <g id="Guides">
  <g id="H-reference" style="fill:#27AAE1;stroke:none;" transform="matrix(1 0 0 1 339 696)">
   <path d="M 54.9316 0 L 57.666 0 L 30.5664 -70.459 L 28.0762 -70.459 L 0.976562 0 L 3.66211 0 L 12.9395 -24.4629 L 45.7031 -24.4629 Z M 29.1992 -67.0898 L 29.4434 -67.0898 L 44.8242 -26.709 L 13.8184 -26.709 Z"/>
  </g>
  <line id="Baseline-S" style="fill:none;stroke:#27AAE1;opacity:1;stroke-width:0.577;" x1="263" x2="3036" y1="696" y2="696"/>
  <line id="Capline-S" style="fill:none;stroke:#27AAE1;opacity:1;stroke-width:0.577;" x1="263" x2="3036" y1="625.541" y2="625.541"/>
  <g id="H-reference" style="fill:#27AAE1;stroke:none;" transform="matrix(1 0 0 1 339 1126)">
   <path d="M 54.9316 0 L 57.666 0 L 30.5664 -70.459 L 28.0762 -70.459 L 0.976562 0 L 3.66211 0 L 12.9395 -24.4629 L 45.7031 -24.4629 Z M 29.1992 -67.0898 L 29.4434 -67.0898 L 44.8242 -26.709 L 13.8184 -26.709 Z"/>
  </g>
  <line id="Baseline-M" style="fill:none;stroke:#27AAE1;opacity:1;stroke-width:0.577;" x1="263" x2="3036" y1="1126" y2="1126"/>
  <line id="Capline-M" style="fill:none;stroke:#27AAE1;opacity:1;stroke-width:0.577;" x1="263" x2="3036" y1="1055.54" y2="1055.54"/>
  <g id="H-reference" style="fill:#27AAE1;stroke:none;" transform="matrix(1 0 0 1 339 1556)">
   <path d="M 54.9316 0 L 57.666 0 L 30.5664 -70.459 L 28.0762 -70.459 L 0.976562 0 L 3.66211 0 L 12.9395 -24.4629 L 45.7031 -24.4629 Z M 29.1992 -67.0898 L 29.4434 -67.0898 L 44.8242 -26.709 L 13.8184 -26.709 Z"/>
  </g>
  <line id="Baseline-L" style="fill:none;stroke:#27AAE1;opacity:1;stroke-width:0.577;" x1="263" x2="3036" y1="1556" y2="1556"/>
  <line id="Capline-L" style="fill:none;stroke:#27AAE1;opacity:1;stroke-width:0.577;" x1="263" x2="3036" y1="1485.54" y2="1485.54"/>
  <rect height="119.336" id="left-margin" style="fill:#00AEEF;stroke:none;opacity:0.4;" width="12.4512" x="1367.2" y="1030.79"/>
  <rect height="119.336" id="right-margin" style="fill:#00AEEF;stroke:none;opacity:0.4;" width="11.2121" x="1521.27" y="1030.79"/>
 </g>
 <g id="Symbols">
  <g id="Ultralight-S" transform="matrix(1 0 0 1 502.68 696)">
   <path d="M 102.441 -58.0078 L 104.443 -60.0098 C 105.518 -61.084 105.566 -62.0605 104.59 -63.0859 L 104.443 -63.2324 C 103.516 -64.1113 102.393 -64.0137 101.416 -63.0371 L 99.4141 -61.0352 Z M 62.6953 -20.8008 L 67.627 -23.2422 L 100.293 -55.9082 L 97.3145 -58.9355 L 64.6484 -26.2695 L 62.1094 -21.3867 C 61.9141 -20.9961 62.3047 -20.6543 62.6953 -20.8008 Z M 69.7754 -46.3379 L 18.1641 -46.3379 C 12.9395 -46.3379 9.76562 -43.2129 9.76562 -37.9883 L 9.76562 -8.34961 C 9.76562 -3.17383 12.9395 0 18.1641 0 L 85.5957 0 C 90.8203 0 93.9941 -3.17383 93.9941 -8.34961 L 93.9941 -38.5742 L 91.7969 -36.377 L 91.7969 -8.34961 C 91.7969 -4.29688 89.5508 -2.09961 85.5469 -2.09961 L 18.2129 -2.09961 C 14.209 -2.09961 11.9629 -4.29688 11.9629 -8.34961 L 11.9629 -37.9395 C 11.9629 -41.9922 14.209 -44.2383 18.2129 -44.2383 L 67.6758 -44.2383 Z M 51.0254 -19.9707 C 52.7832 -19.9707 54.1992 -21.4355 54.1992 -23.1445 C 54.1992 -24.8535 52.7832 -26.2695 51.0254 -26.2695 C 49.3164 -26.2695 47.9004 -24.8535 47.9004 -23.1445 C 47.9004 -21.4355 49.3164 -19.9707 51.0254 -19.9707 Z M 38.5254 -19.9707 C 40.2344 -19.9707 41.6504 -21.4355 41.6504 -23.1445 C 41.6504 -24.8535 40.2344 -26.2695 38.5254 -26.2695 C 36.8164 -26.2695 35.3516 -24.8535 35.3516 -23.1445 C 35.3516 -21.4355 36.8164 -19.9707 38.5254 -19.9707 Z M 25.9766 -19.9707 C 27.6855 -19.9707 29.1016 -21.4355 29.1016 -23.1445 C 29.1016 -24.8535 27.6855 -26.2695 25.9766 -26.2695 C 24.2676 -26.2695 22.8516 -24.8535 22.8516 -23.1445 C 22.8516 -21.4355 24.2676 -19.9707 25.9766 -19.9707 Z"/>
  </g>
  <g id="Thin-S" transform="matrix(1 0 0 1 797.267 696)">
   <path d="M 106.445 -59.082 L 108.643 -61.2793 C 109.814 -62.4512 109.863 -63.6719 108.789 -64.7461 L 108.398 -65.0879 C 107.422 -66.0645 106.104 -65.9668 105.029 -64.8926 L 102.832 -62.6953 Z M 65.5762 -21.1914 L 71.1914 -23.877 L 104.102 -56.7871 L 100.537 -60.4004 L 67.627 -27.4902 L 64.8438 -21.9727 C 64.5996 -21.5332 65.0879 -20.9961 65.5762 -21.1914 Z M 74.707 -48.3887 L 18.9453 -48.3887 C 13.1836 -48.3887 9.76562 -45.0195 9.76562 -39.2578 L 9.76562 -9.13086 C 9.76562 -3.36914 13.1836 0 18.9453 0 L 88.916 0 C 94.6777 0 98.0469 -3.36914 98.0469 -9.13086 L 98.0469 -39.9902 L 94.7754 -36.7188 L 94.7754 -9.0332 C 94.7754 -5.22461 92.6758 -3.125 88.8672 -3.125 L 18.9941 -3.125 C 15.1855 -3.125 13.0859 -5.22461 13.0859 -9.0332 L 13.0859 -39.3066 C 13.0859 -43.1152 15.1855 -45.2148 18.9941 -45.2148 L 71.582 -45.2148 Z M 53.7109 -20.5078 C 55.7129 -20.5078 57.3242 -22.168 57.3242 -24.1699 C 57.3242 -26.123 55.7129 -27.7832 53.7109 -27.7832 C 51.709 -27.7832 50.0977 -26.123 50.0977 -24.1699 C 50.0977 -22.168 51.709 -20.5078 53.7109 -20.5078 Z M 40.3809 -20.5078 C 42.3828 -20.5078 44.043 -22.168 44.043 -24.1699 C 44.043 -26.123 42.3828 -27.7832 40.3809 -27.7832 C 38.3789 -27.7832 36.7676 -26.123 36.7676 -24.1699 C 36.7676 -22.168 38.3789 -20.5078 40.3809 -20.5078 Z M 27.0996 -20.5078 C 29.1016 -20.5078 30.7129 -22.168 30.7129 -24.1699 C 30.7129 -26.123 29.1016 -27.7832 27.0996 -27.7832 C 25.0977 -27.7832 23.4375 -26.123 23.4375 -24.1699 C 23.4375 -22.168 25.0977 -20.5078 27.0996 -20.5078 Z"/>
  </g>
  <g id="Light-S" transform="matrix(1 0 0 1 1089.8 696)">
   <path d="M 114.258 -61.1328 L 116.895 -63.7695 C 118.164 -65.0879 118.164 -66.7969 116.943 -68.0176 L 116.211 -68.75 C 115.039 -69.873 113.33 -69.7754 112.109 -68.5547 L 109.473 -65.9668 Z M 71.1914 -21.9727 L 78.2227 -25.0488 L 111.572 -58.4473 L 106.738 -63.1836 L 73.4375 -29.834 L 70.1172 -23.0957 C 69.8242 -22.4609 70.5566 -21.6797 71.1914 -21.9727 Z M 84.375 -52.2949 L 20.4102 -52.2949 C 13.5742 -52.2949 9.76562 -48.584 9.76562 -41.748 L 9.76562 -10.5469 C 9.76562 -3.71094 13.5742 0 20.4102 0 L 95.3125 0 C 102.148 0 105.957 -3.71094 105.957 -10.5469 L 105.957 -42.8223 L 100.537 -37.4023 L 100.537 -10.3027 C 100.537 -6.93359 98.6816 -5.07812 95.3125 -5.07812 L 20.4102 -5.07812 C 17.041 -5.07812 15.1855 -6.93359 15.1855 -10.3027 L 15.1855 -41.9922 C 15.1855 -45.3125 17.041 -47.168 20.4102 -47.168 L 79.248 -47.168 Z M 58.8867 -21.5332 C 61.377 -21.5332 63.4766 -23.6328 63.4766 -26.123 C 63.4766 -28.6133 61.377 -30.7129 58.8867 -30.7129 C 56.3477 -30.7129 54.2969 -28.6133 54.2969 -26.123 C 54.2969 -23.6328 56.3477 -21.5332 58.8867 -21.5332 Z M 44.043 -21.5332 C 46.582 -21.5332 48.6816 -23.6328 48.6816 -26.123 C 48.6816 -28.6133 46.582 -30.7129 44.043 -30.7129 C 41.5039 -30.7129 39.4531 -28.6133 39.4531 -26.123 C 39.4531 -23.6328 41.5039 -21.5332 44.043 -21.5332 Z M 29.1992 -21.5332 C 31.7383 -21.5332 33.8379 -23.6328 33.8379 -26.123 C 33.8379 -28.6133 31.7383 -30.7129 29.1992 -30.7129 C 26.709 -30.7129 24.6094 -28.6133 24.6094 -26.123 C 24.6094 -23.6328 26.709 -21.5332 29.1992 -21.5332 Z"/>
  </g>
  <g id="Regular-S" transform="matrix(1 0 0 1 1383.39 696)">
   <path d="M 120.215 -62.6465 L 123.145 -65.6738 C 124.463 -67.0898 124.463 -69.1406 123.145 -70.459 L 122.07 -71.5332 C 120.801 -72.8027 118.75 -72.6562 117.48 -71.3379 L 114.502 -68.4082 Z M 75.4883 -22.5586 L 83.4961 -25.9766 L 117.236 -59.668 L 111.475 -65.332 L 77.7832 -31.6406 L 74.1699 -23.9258 C 73.8281 -23.1934 74.6582 -22.2168 75.4883 -22.5586 Z M 91.6504 -55.2246 L 21.582 -55.2246 C 13.916 -55.2246 9.76562 -51.2695 9.76562 -43.6035 L 9.76562 -11.6211 C 9.76562 -3.95508 13.916 0 21.582 0 L 100.146 0 C 107.812 0 111.963 -3.95508 111.963 -11.6211 L 111.963 -44.9219 L 104.883 -37.8906 L 104.883 -11.2793 C 104.883 -8.25195 103.223 -6.5918 100.195 -6.5918 L 21.4844 -6.5918 C 18.5059 -6.5918 16.7969 -8.25195 16.7969 -11.2793 L 16.7969 -43.9941 C 16.7969 -46.9727 18.5059 -48.6816 21.4844 -48.6816 L 85.0586 -48.6816 Z M 62.793 -22.3145 C 65.7227 -22.3145 68.0664 -24.707 68.0664 -27.6367 C 68.0664 -30.5176 65.7227 -32.9102 62.793 -32.9102 C 59.8633 -32.9102 57.5195 -30.5176 57.5195 -27.6367 C 57.5195 -24.707 59.8633 -22.3145 62.793 -22.3145 Z M 46.8262 -22.3145 C 49.8047 -22.3145 52.1484 -24.707 52.1484 -27.6367 C 52.1484 -30.5176 49.8047 -32.9102 46.8262 -32.9102 C 43.8965 -32.9102 41.5039 -30.5176 41.5039 -27.6367 C 41.5039 -24.707 43.8965 -22.3145 46.8262 -22.3145 Z M 30.8105 -22.3145 C 33.7891 -22.3145 36.1816 -24.707 36.1816 -27.6367 C 36.1816 -30.5176 33.7891 -32.9102 30.8105 -32.9102 C 27.9297 -32.9102 25.5371 -30.5176 25.5371 -27.6367 C 25.5371 -24.707 27.9297 -22.3145 30.8105 -22.3145 Z"/>
  </g>
  <g id="Medium-S" transform="matrix(1 0 0 1 1678.22 696)">
   <path d="M 123.633 -62.7441 L 126.709 -65.918 C 128.223 -67.5293 128.32 -69.873 126.807 -71.3867 L 125.635 -72.6074 C 124.268 -73.9746 121.875 -73.7305 120.361 -72.2168 L 117.236 -69.1895 Z M 79.8828 -23.8281 L 88.1836 -27.2949 L 120.752 -59.8633 L 114.355 -66.2109 L 81.7871 -33.6426 L 78.1738 -25.5859 C 77.7832 -24.5605 78.9062 -23.4863 79.8828 -23.8281 Z M 94.9219 -56.6895 L 21.5332 -56.6895 C 13.9648 -56.6895 9.76562 -52.6855 9.76562 -45.1172 L 9.76562 -11.1328 C 9.76562 -3.61328 13.9648 0.439453 21.5332 0.439453 L 104.883 0.439453 C 112.5 0.439453 116.65 -3.61328 116.65 -11.1328 L 116.65 -46.0938 L 107.861 -37.3047 L 107.861 -12.0117 C 107.861 -9.22852 106.299 -7.61719 103.467 -7.61719 L 22.9492 -7.61719 C 20.1172 -7.61719 18.5547 -9.22852 18.5547 -12.0117 L 18.5547 -44.2383 C 18.5547 -47.0703 20.1172 -48.6328 22.9492 -48.6328 L 86.8652 -48.6328 Z M 65.7715 -22.3633 C 68.9453 -22.3633 71.582 -25 71.582 -28.125 C 71.582 -31.2988 68.9453 -33.8867 65.7715 -33.8867 C 62.5488 -33.8867 60.0098 -31.3477 60.0098 -28.125 C 60.0098 -25 62.6465 -22.3633 65.7715 -22.3633 Z M 49.2676 -22.3633 C 52.4902 -22.3633 55.0781 -25 55.0781 -28.125 C 55.0781 -31.2988 52.4902 -33.8867 49.2676 -33.8867 C 45.9961 -33.8867 43.457 -31.3477 43.457 -28.125 C 43.457 -25 46.0938 -22.3633 49.2676 -22.3633 Z M 32.7148 -22.3633 C 35.9375 -22.3633 38.5254 -25 38.5254 -28.125 C 38.5254 -31.2988 35.9375 -33.8867 32.7148 -33.8867 C 29.4922 -33.8867 26.9531 -31.3477 26.9531 -28.125 C 26.9531 -25 29.5898 -22.3633 32.7148 -22.3633 Z"/>
  </g>
  <g id="Semibold-S" transform="matrix(1 0 0 1 1973.49 696)">
   <path d="M 126.27 -62.793 L 129.443 -66.0645 C 131.104 -67.8711 131.299 -70.4102 129.59 -72.1191 L 128.369 -73.3887 C 126.904 -74.9023 124.316 -74.5605 122.607 -72.9004 L 119.336 -69.7266 Z M 83.252 -24.8535 L 91.7969 -28.3203 L 123.486 -59.9609 L 116.504 -66.8945 L 84.8633 -35.2051 L 81.2988 -26.8555 C 80.8105 -25.6348 82.1289 -24.4141 83.252 -24.8535 Z M 97.4609 -57.8125 L 21.4844 -57.8125 C 13.9648 -57.8125 9.76562 -53.7598 9.76562 -46.2402 L 9.76562 -10.791 C 9.76562 -3.32031 13.9648 0.78125 21.4844 0.78125 L 108.545 0.78125 C 116.064 0.78125 120.264 -3.32031 120.264 -10.791 L 120.264 -46.9727 L 110.156 -36.8652 L 110.156 -12.5977 C 110.156 -10.0098 108.643 -8.44727 105.957 -8.44727 L 24.0723 -8.44727 C 21.3867 -8.44727 19.873 -10.0098 19.873 -12.5977 L 19.873 -44.4336 C 19.873 -47.1191 21.3867 -48.584 24.0723 -48.584 L 88.1836 -48.584 Z M 68.0664 -22.3633 C 71.4844 -22.3633 74.2188 -25.2441 74.2188 -28.5156 C 74.2188 -31.8848 71.4844 -34.668 68.0664 -34.668 C 64.5996 -34.668 61.9629 -31.9824 61.9629 -28.5156 C 61.9629 -25.2441 64.7949 -22.3633 68.0664 -22.3633 Z M 51.1719 -22.3633 C 54.541 -22.3633 57.3242 -25.2441 57.3242 -28.5156 C 57.3242 -31.8848 54.541 -34.668 51.1719 -34.668 C 47.6562 -34.668 44.9707 -31.9824 44.9707 -28.5156 C 44.9707 -25.2441 47.8027 -22.3633 51.1719 -22.3633 Z M 34.1797 -22.3633 C 37.5977 -22.3633 40.3809 -25.2441 40.3809 -28.5156 C 40.3809 -31.8848 37.5977 -34.668 34.1797 -34.668 C 30.7129 -34.668 28.0273 -31.9824 28.0273 -28.5156 C 28.0273 -25.2441 30.8594 -22.3633 34.1797 -22.3633 Z"/>
  </g>
  <g id="Bold-S" transform="matrix(1 0 0 1 2268.3 696)">
   <path d="M 129.785 -62.8418 L 133.057 -66.3086 C 134.912 -68.3105 135.156 -71.1426 133.301 -73.0957 L 131.982 -74.4629 C 130.42 -76.123 127.441 -75.6836 125.537 -73.8281 L 122.119 -70.5078 Z M 87.6953 -26.1719 L 96.582 -29.6387 L 127.1 -60.1562 L 119.385 -67.7734 L 88.916 -37.2559 L 85.4004 -28.5156 C 84.8145 -27.002 86.377 -25.6836 87.6953 -26.1719 Z M 100.781 -59.3262 L 21.4355 -59.3262 C 14.0137 -59.3262 9.76562 -55.127 9.76562 -47.7539 L 9.76562 -10.3027 C 9.76562 -2.92969 14.0137 1.26953 21.4355 1.26953 L 113.379 1.26953 C 120.801 1.26953 125.049 -2.92969 125.049 -10.3027 L 125.049 -48.1445 L 113.184 -36.2793 L 113.184 -13.3789 C 113.184 -10.9863 111.768 -9.52148 109.277 -9.52148 L 25.5371 -9.52148 C 23.0469 -9.52148 21.6309 -10.9863 21.6309 -13.3789 L 21.6309 -44.6777 C 21.6309 -47.2168 23.0469 -48.5352 25.5371 -48.5352 L 89.9902 -48.5352 Z M 71.1426 -22.4121 C 74.8047 -22.4121 77.7344 -25.5371 77.7344 -29.0527 C 77.7344 -32.666 74.8047 -35.6445 71.1426 -35.6445 C 67.334 -35.6445 64.502 -32.8125 64.502 -29.0527 C 64.502 -25.5371 67.5781 -22.4121 71.1426 -22.4121 Z M 53.6133 -22.4121 C 57.3242 -22.4121 60.2539 -25.5371 60.2539 -29.0527 C 60.2539 -32.666 57.3242 -35.6445 53.6133 -35.6445 C 49.8047 -35.6445 46.9727 -32.8125 46.9727 -29.0527 C 46.9727 -25.5371 50.0488 -22.4121 53.6133 -22.4121 Z M 36.1328 -22.4121 C 39.7949 -22.4121 42.7734 -25.5371 42.7734 -29.0527 C 42.7734 -32.666 39.7949 -35.6445 36.1328 -35.6445 C 32.3242 -35.6445 29.4922 -32.8125 29.4922 -29.0527 C 29.4922 -25.5371 32.5684 -22.4121 36.1328 -22.4121 Z"/>
  </g>
  <g id="Heavy-S" transform="matrix(1 0 0 1 2562.25 696)">
   <path d="M 134.814 -62.9395 L 138.33 -66.6504 C 140.43 -68.9453 140.82 -72.2656 138.672 -74.4629 L 137.256 -76.0254 C 135.449 -77.8809 132.031 -77.2461 129.834 -75.1465 L 126.123 -71.582 Z M 94.1406 -28.0762 L 103.467 -31.543 L 132.275 -60.4004 L 123.584 -69.043 L 94.7754 -40.2344 L 91.3086 -30.957 C 90.625 -29.0527 92.5781 -27.4902 94.1406 -28.0762 Z M 105.566 -61.4746 L 21.3379 -61.4746 C 14.0625 -61.4746 9.76562 -57.1777 9.76562 -49.9512 L 9.76562 -9.57031 C 9.76562 -2.44141 14.0625 1.9043 21.3379 1.9043 L 120.361 1.9043 C 127.686 1.9043 131.934 -2.44141 131.934 -9.57031 L 131.934 -49.8047 L 117.529 -35.4004 L 117.529 -14.502 C 117.529 -12.4512 116.26 -11.084 114.014 -11.084 L 27.6367 -11.084 C 25.3906 -11.084 24.1699 -12.4512 24.1699 -14.502 L 24.1699 -45.0684 C 24.1699 -47.3633 25.3906 -48.4863 27.6367 -48.4863 L 92.627 -48.4863 Z M 75.5371 -22.4121 C 79.5898 -22.4121 82.8613 -25.9766 82.8613 -29.7852 C 82.8613 -33.8379 79.5898 -37.1094 75.5371 -37.1094 C 71.2891 -37.1094 68.1641 -34.0332 68.1641 -29.7852 C 68.1641 -25.9766 71.6309 -22.4121 75.5371 -22.4121 Z M 57.2266 -22.4121 C 61.2793 -22.4121 64.5508 -25.9766 64.5508 -29.7852 C 64.5508 -33.8379 61.2793 -37.1094 57.2266 -37.1094 C 52.9785 -37.1094 49.8535 -34.0332 49.8535 -29.7852 C 49.8535 -25.9766 53.3203 -22.4121 57.2266 -22.4121 Z M 38.916 -22.4121 C 42.9688 -22.4121 46.2402 -25.9766 46.2402 -29.7852 C 46.2402 -33.8379 42.9688 -37.1094 38.916 -37.1094 C 34.668 -37.1094 31.543 -34.0332 31.543 -29.7852 C 31.543 -25.9766 35.0098 -22.4121 38.916 -22.4121 Z"/>
  </g>
  <g id="Black-S" transform="matrix(1 0 0 1 2856.5 696)">
   <path d="M 139.355 -62.9883 L 143.018 -66.9434 C 145.361 -69.4824 145.85 -73.1934 143.506 -75.6836 L 141.943 -77.3926 C 139.99 -79.4922 136.133 -78.7109 133.643 -76.3184 L 129.736 -72.6074 Z M 99.9512 -29.7852 L 109.619 -33.3008 L 136.914 -60.5957 L 127.344 -70.2148 L 100.049 -42.9199 L 96.6309 -33.1055 C 95.8008 -30.8105 98.0957 -29.1016 99.9512 -29.7852 Z M 109.912 -63.3789 L 21.2891 -63.3789 C 14.1113 -63.3789 9.76562 -58.9844 9.76562 -51.9531 L 9.76562 -8.93555 C 9.76562 -1.95312 14.1113 2.49023 21.2891 2.49023 L 126.611 2.49023 C 133.789 2.49023 138.135 -1.95312 138.135 -8.93555 L 138.135 -51.3184 L 121.436 -34.6191 L 121.436 -15.4785 C 121.436 -13.7207 120.312 -12.4512 118.311 -12.4512 L 29.541 -12.4512 C 27.5391 -12.4512 26.4648 -13.7207 26.4648 -15.4785 L 26.4648 -45.4102 C 26.4648 -47.4609 27.5391 -48.4375 29.541 -48.4375 L 94.9219 -48.4375 Z M 79.4434 -22.4609 C 83.8867 -22.4609 87.4512 -26.3184 87.4512 -30.4199 C 87.4512 -34.8633 83.8867 -38.4277 79.4434 -38.4277 C 74.8047 -38.4277 71.4844 -35.1074 71.4844 -30.4199 C 71.4844 -26.3184 75.293 -22.4609 79.4434 -22.4609 Z M 60.4004 -22.4609 C 64.7949 -22.4609 68.3594 -26.3184 68.3594 -30.4199 C 68.3594 -34.8633 64.7949 -38.4277 60.4004 -38.4277 C 55.7617 -38.4277 52.4414 -35.1074 52.4414 -30.4199 C 52.4414 -26.3184 56.25 -22.4609 60.4004 -22.4609 Z M 41.4062 -22.4609 C 45.8008 -22.4609 49.3652 -26.3184 49.3652 -30.4199 C 49.3652 -34.8633 45.8008 -38.4277 41.4062 -38.4277 C 36.7188 -38.4277 33.3984 -35.1074 33.3984 -30.4199 C 33.3984 -26.3184 37.2559 -22.4609 41.4062 -22.4609 Z"/>
  </g>
  <g id="Ultralight-M" transform="matrix(1 0 0 1 487.738 1126)">
   <path d="M 129.199 -63.916 L 131.689 -66.3574 C 133.057 -67.7246 133.105 -68.8965 131.885 -70.1172 L 131.738 -70.2148 C 130.664 -71.3379 129.297 -71.2402 128.076 -69.9707 L 125.586 -67.5293 Z M 78.9062 -16.6504 L 84.9121 -19.6777 L 126.562 -61.2793 L 122.998 -64.9414 L 81.3477 -23.291 L 78.2227 -17.334 C 77.9785 -16.8945 78.4668 -16.4551 78.9062 -16.6504 Z M 87.1582 -48.6816 L 22.8516 -48.6816 C 16.4551 -48.6816 12.4512 -44.6777 12.4512 -38.2812 L 12.4512 -0.683594 C 12.4512 5.76172 16.4551 9.7168 22.8516 9.7168 L 108.008 9.7168 C 114.453 9.7168 118.408 5.76172 118.408 -0.683594 L 118.408 -38.916 L 116.016 -36.5234 L 116.016 -0.683594 C 116.016 4.58984 113.135 7.4707 107.91 7.4707 L 22.998 7.4707 C 17.7246 7.4707 14.8438 4.58984 14.8438 -0.683594 L 14.8438 -38.1836 C 14.8438 -43.457 17.7246 -46.3379 22.998 -46.3379 L 84.8145 -46.3379 Z M 64.1602 -15.5762 C 66.2109 -15.5762 67.9688 -17.2852 67.9688 -19.3848 C 67.9688 -21.4844 66.2109 -23.2422 64.1602 -23.2422 C 62.0605 -23.2422 60.3027 -21.4844 60.3027 -19.3848 C 60.3027 -17.2852 62.0605 -15.5762 64.1602 -15.5762 Z M 48.4375 -15.5762 C 50.5371 -15.5762 52.2461 -17.2852 52.2461 -19.3848 C 52.2461 -21.4844 50.5371 -23.2422 48.4375 -23.2422 C 46.3379 -23.2422 44.6289 -21.4844 44.6289 -19.3848 C 44.6289 -17.2852 46.3379 -15.5762 48.4375 -15.5762 Z M 32.7637 -15.5762 C 34.8145 -15.5762 36.5723 -17.2852 36.5723 -19.3848 C 36.5723 -21.4844 34.8145 -23.2422 32.7637 -23.2422 C 30.6641 -23.2422 28.9062 -21.4844 28.9062 -19.3848 C 28.9062 -17.2852 30.6641 -15.5762 32.7637 -15.5762 Z"/>
  </g>
  <g id="Thin-M" transform="matrix(1 0 0 1 782.033 1126)">
   <path d="M 133.74 -65.0879 L 136.426 -67.8223 C 137.891 -69.2383 137.939 -70.7031 136.621 -72.0215 L 136.279 -72.3633 C 135.059 -73.584 133.447 -73.4375 132.129 -72.1191 L 129.443 -69.3848 Z M 82.1289 -17.0898 L 88.9648 -20.3613 L 130.859 -62.2559 L 126.611 -66.5527 L 84.7168 -24.6582 L 81.2988 -17.9688 C 81.0059 -17.4316 81.5918 -16.8945 82.1289 -17.0898 Z M 92.7734 -50.9277 L 23.7305 -50.9277 C 16.6992 -50.9277 12.4512 -46.7773 12.4512 -39.6973 L 12.4512 -1.51367 C 12.4512 5.56641 16.6992 9.7168 23.7305 9.7168 L 111.719 9.7168 C 118.799 9.7168 122.998 5.56641 122.998 -1.51367 L 122.998 -40.5762 L 119.385 -36.9141 L 119.385 -1.41602 C 119.385 3.56445 116.65 6.29883 111.621 6.29883 L 23.8281 6.29883 C 18.8477 6.29883 16.1133 3.56445 16.1133 -1.41602 L 16.1133 -39.7461 C 16.1133 -44.7266 18.8477 -47.4609 23.8281 -47.4609 L 89.2578 -47.4609 Z M 67.1387 -16.1621 C 69.5312 -16.1621 71.4844 -18.1641 71.4844 -20.5566 C 71.4844 -22.9492 69.5312 -24.9023 67.1387 -24.9023 C 64.7461 -24.9023 62.7441 -22.9492 62.7441 -20.5566 C 62.7441 -18.1641 64.7461 -16.1621 67.1387 -16.1621 Z M 50.5859 -16.1621 C 52.9785 -16.1621 54.9316 -18.1641 54.9316 -20.5566 C 54.9316 -22.9492 52.9785 -24.9023 50.5859 -24.9023 C 48.1445 -24.9023 46.1914 -22.9492 46.1914 -20.5566 C 46.1914 -18.1641 48.1445 -16.1621 50.5859 -16.1621 Z M 33.9844 -16.1621 C 36.377 -16.1621 38.3789 -18.1641 38.3789 -20.5566 C 38.3789 -22.9492 36.377 -24.9023 33.9844 -24.9023 C 31.5918 -24.9023 29.5898 -22.9492 29.5898 -20.5566 C 29.5898 -18.1641 31.5918 -16.1621 33.9844 -16.1621 Z"/>
  </g>
  <g id="Light-M" transform="matrix(1 0 0 1 1074.06 1126)">
   <path d="M 142.578 -67.4316 L 145.752 -70.6543 C 147.314 -72.2168 147.363 -74.2188 145.85 -75.6836 L 145.068 -76.5137 C 143.652 -77.8809 141.602 -77.7344 140.137 -76.2695 L 136.963 -73.0957 Z M 88.5254 -17.9688 L 96.875 -21.7285 L 139.307 -64.1602 L 133.643 -69.7754 L 91.2598 -27.3438 L 87.3047 -19.2383 C 86.9629 -18.5547 87.793 -17.6758 88.5254 -17.9688 Z M 103.662 -55.3711 L 25.4395 -55.3711 C 17.1387 -55.3711 12.4512 -50.7812 12.4512 -42.4805 L 12.4512 -3.125 C 12.4512 5.17578 17.1387 9.7168 25.4395 9.7168 L 118.945 9.7168 C 127.246 9.7168 131.934 5.17578 131.934 -3.125 L 131.934 -43.75 L 125.879 -37.6953 L 125.879 -2.88086 C 125.879 1.61133 123.438 4.10156 118.945 4.10156 L 25.4395 4.10156 C 20.9961 4.10156 18.5059 1.61133 18.5059 -2.88086 L 18.5059 -42.7246 C 18.5059 -47.168 20.9961 -49.6582 25.4395 -49.6582 L 97.9492 -49.6582 Z M 72.998 -17.334 C 75.9766 -17.334 78.418 -19.7754 78.418 -22.8027 C 78.418 -25.7812 75.9766 -28.2227 72.998 -28.2227 C 70.0195 -28.2227 67.5293 -25.7812 67.5293 -22.8027 C 67.5293 -19.7754 70.0195 -17.334 72.998 -17.334 Z M 54.6875 -17.334 C 57.7148 -17.334 60.1562 -19.7754 60.1562 -22.8027 C 60.1562 -25.7812 57.7148 -28.2227 54.6875 -28.2227 C 51.6602 -28.2227 49.2188 -25.7812 49.2188 -22.8027 C 49.2188 -19.7754 51.6602 -17.334 54.6875 -17.334 Z M 36.377 -17.334 C 39.4043 -17.334 41.8457 -19.7754 41.8457 -22.8027 C 41.8457 -25.7812 39.4043 -28.2227 36.377 -28.2227 C 33.3984 -28.2227 30.957 -25.7812 30.957 -22.8027 C 30.957 -19.7754 33.3984 -17.334 36.377 -17.334 Z"/>
  </g>
  <g id="Regular-M" transform="matrix(1 0 0 1 1367.2 1126)">
   <path d="M 149.268 -69.1406 L 152.783 -72.8027 C 154.492 -74.5117 154.492 -76.8555 152.832 -78.4668 L 151.709 -79.6387 C 150.195 -81.1523 147.803 -80.957 146.191 -79.3945 L 142.627 -75.8789 Z M 93.3594 -18.6523 L 102.881 -22.7539 L 145.703 -65.5762 L 139.014 -72.168 L 96.2402 -29.3945 L 91.8457 -20.2148 C 91.4551 -19.3848 92.4316 -18.2617 93.3594 -18.6523 Z M 111.865 -58.6914 L 26.7578 -58.6914 C 17.5293 -58.6914 12.4512 -53.8574 12.4512 -44.6289 L 12.4512 -4.3457 C 12.4512 4.88281 17.5293 9.7168 26.7578 9.7168 L 124.414 9.7168 C 133.643 9.7168 138.721 4.88281 138.721 -4.3457 L 138.721 -46.1426 L 130.859 -38.2812 L 130.859 -3.95508 C 130.859 0.0976562 128.564 2.39258 124.512 2.39258 L 26.6602 2.39258 C 22.6074 2.39258 20.3125 0.0976562 20.3125 -3.95508 L 20.3125 -45.0195 C 20.3125 -49.0723 22.6074 -51.3672 26.6602 -51.3672 L 104.541 -51.3672 Z M 77.3926 -18.2129 C 80.8594 -18.2129 83.6426 -21.0449 83.6426 -24.4629 C 83.6426 -27.9297 80.8594 -30.7129 77.3926 -30.7129 C 73.9746 -30.7129 71.1426 -27.9297 71.1426 -24.4629 C 71.1426 -21.0449 73.9746 -18.2129 77.3926 -18.2129 Z M 57.8125 -18.2129 C 61.3281 -18.2129 64.1602 -21.0449 64.1602 -24.4629 C 64.1602 -27.9297 61.3281 -30.7129 57.8125 -30.7129 C 54.3457 -30.7129 51.5137 -27.9297 51.5137 -24.4629 C 51.5137 -21.0449 54.3457 -18.2129 57.8125 -18.2129 Z M 38.2324 -18.2129 C 41.6992 -18.2129 44.5312 -21.0449 44.5312 -24.4629 C 44.5312 -27.9297 41.6992 -30.7129 38.2324 -30.7129 C 34.7656 -30.7129 31.9336 -27.9297 31.9336 -24.4629 C 31.9336 -21.0449 34.7656 -18.2129 38.2324 -18.2129 Z"/>
  </g>
  <g id="Medium-M" transform="matrix(1 0 0 1 1661.57 1126)">
   <path d="M 153.613 -69.4336 L 157.275 -73.291 C 159.18 -75.1953 159.277 -77.9297 157.422 -79.7852 L 156.152 -81.1035 C 154.492 -82.7637 151.709 -82.4707 149.902 -80.6641 L 146.094 -76.9531 Z M 98.4375 -20.0684 L 108.398 -24.2188 L 150.049 -65.918 L 142.529 -73.3398 L 100.928 -31.6895 L 96.5332 -22.0215 C 95.9961 -20.8984 97.3145 -19.5801 98.4375 -20.0684 Z M 116.211 -60.5957 L 26.8555 -60.5957 C 17.627 -60.5957 12.4512 -55.6152 12.4512 -46.3867 L 12.4512 -4.00391 C 12.4512 5.22461 17.627 10.2051 26.8555 10.2051 L 129.932 10.2051 C 139.209 10.2051 144.336 5.22461 144.336 -4.00391 L 144.336 -47.6074 L 134.473 -37.7441 L 134.473 -4.88281 C 134.473 -1.07422 132.324 1.12305 128.467 1.12305 L 28.3203 1.12305 C 24.4629 1.12305 22.3145 -1.07422 22.3145 -4.88281 L 22.3145 -45.5078 C 22.3145 -49.3652 24.4629 -51.5137 28.3203 -51.5137 L 107.129 -51.5137 Z M 81.0059 -18.3594 C 84.7656 -18.3594 87.8418 -21.4844 87.8418 -25.1953 C 87.8418 -28.9551 84.7656 -32.0312 81.0059 -32.0312 C 77.1973 -32.0312 74.1699 -29.0039 74.1699 -25.1953 C 74.1699 -21.4844 77.2949 -18.3594 81.0059 -18.3594 Z M 60.6934 -18.3594 C 64.502 -18.3594 67.5781 -21.4844 67.5781 -25.1953 C 67.5781 -28.9551 64.502 -32.0312 60.6934 -32.0312 C 56.8359 -32.0312 53.8086 -29.0039 53.8086 -25.1953 C 53.8086 -21.4844 56.9336 -18.3594 60.6934 -18.3594 Z M 40.3809 -18.3594 C 44.1895 -18.3594 47.2656 -21.4844 47.2656 -25.1953 C 47.2656 -28.9551 44.1895 -32.0312 40.3809 -32.0312 C 36.5723 -32.0312 33.5449 -29.0039 33.5449 -25.1953 C 33.5449 -21.4844 36.6699 -18.3594 40.3809 -18.3594 Z"/>
  </g>
  <g id="Semibold-M" transform="matrix(1 0 0 1 1956.5 1126)">
   <path d="M 156.934 -69.6289 L 160.742 -73.6328 C 162.744 -75.7324 162.939 -78.7109 160.938 -80.7617 L 159.57 -82.1777 C 157.764 -83.9844 154.736 -83.6426 152.734 -81.6406 L 148.779 -77.832 Z M 102.344 -21.1426 L 112.646 -25.3906 L 153.418 -66.1621 L 145.264 -74.2676 L 104.492 -33.4473 L 100.098 -23.3887 C 99.5117 -22.0215 101.025 -20.6055 102.344 -21.1426 Z M 119.531 -62.0605 L 26.9043 -62.0605 C 17.6758 -62.0605 12.4512 -56.9824 12.4512 -47.7539 L 12.4512 -3.71094 C 12.4512 5.46875 17.6758 10.5469 26.9043 10.5469 L 134.18 10.5469 C 143.457 10.5469 148.633 5.46875 148.633 -3.71094 L 148.633 -48.7305 L 137.256 -37.3535 L 137.256 -5.56641 C 137.256 -2.00195 135.205 0.146484 131.543 0.146484 L 29.541 0.146484 C 25.8789 0.146484 23.8281 -2.00195 23.8281 -5.56641 L 23.8281 -45.9473 C 23.8281 -49.6094 25.8789 -51.6113 29.541 -51.6113 L 109.131 -51.6113 Z M 83.7402 -18.457 C 87.793 -18.457 91.0645 -21.8262 91.0645 -25.7324 C 91.0645 -29.7852 87.793 -33.0566 83.7402 -33.0566 C 79.6387 -33.0566 76.4648 -29.834 76.4648 -25.7324 C 76.4648 -21.8262 79.834 -18.457 83.7402 -18.457 Z M 62.8906 -18.457 C 66.9434 -18.457 70.2637 -21.8262 70.2637 -25.7324 C 70.2637 -29.7852 66.9434 -33.0566 62.8906 -33.0566 C 58.7891 -33.0566 55.5664 -29.834 55.5664 -25.7324 C 55.5664 -21.8262 58.9355 -18.457 62.8906 -18.457 Z M 42.041 -18.457 C 46.0938 -18.457 49.3652 -21.8262 49.3652 -25.7324 C 49.3652 -29.7852 46.0938 -33.0566 42.041 -33.0566 C 37.9395 -33.0566 34.7168 -29.834 34.7168 -25.7324 C 34.7168 -21.8262 38.0859 -18.457 42.041 -18.457 Z"/>
  </g>
  <g id="Bold-M" transform="matrix(1 0 0 1 2250.82 1126)">
   <path d="M 161.279 -69.9219 L 165.283 -74.1211 C 167.48 -76.4648 167.773 -79.834 165.576 -82.0801 L 164.062 -83.6426 C 162.109 -85.6445 158.691 -85.1562 156.445 -82.959 L 152.295 -78.9062 Z M 107.471 -22.5586 L 118.213 -26.8555 L 157.861 -66.5039 L 148.877 -75.4395 L 109.229 -35.8398 L 104.834 -25.2441 C 104.15 -23.5352 105.957 -21.9727 107.471 -22.5586 Z M 123.926 -63.9648 L 27.002 -63.9648 C 17.7246 -63.9648 12.4512 -58.7891 12.4512 -49.5605 L 12.4512 -3.36914 C 12.4512 5.81055 17.7246 11.0352 27.002 11.0352 L 139.795 11.0352 C 149.072 11.0352 154.346 5.81055 154.346 -3.36914 L 154.346 -50.1953 L 140.918 -36.7676 L 140.918 -6.49414 C 140.918 -3.17383 138.965 -1.17188 135.547 -1.17188 L 31.2012 -1.17188 C 27.7832 -1.17188 25.8789 -3.17383 25.8789 -6.49414 L 25.8789 -46.4844 C 25.8789 -49.9023 27.7832 -51.7578 31.2012 -51.7578 L 111.719 -51.7578 Z M 87.4023 -18.5547 C 91.748 -18.5547 95.2637 -22.2656 95.2637 -26.4648 C 95.2637 -30.8105 91.748 -34.375 87.4023 -34.375 C 82.9102 -34.375 79.4922 -30.957 79.4922 -26.4648 C 79.4922 -22.2656 83.1543 -18.5547 87.4023 -18.5547 Z M 65.8203 -18.5547 C 70.2148 -18.5547 73.7305 -22.2656 73.7305 -26.4648 C 73.7305 -30.8105 70.2148 -34.375 65.8203 -34.375 C 61.3281 -34.375 57.9102 -30.957 57.9102 -26.4648 C 57.9102 -22.2656 61.5723 -18.5547 65.8203 -18.5547 Z M 44.2383 -18.5547 C 48.584 -18.5547 52.1484 -22.2656 52.1484 -26.4648 C 52.1484 -30.8105 48.584 -34.375 44.2383 -34.375 C 39.7461 -34.375 36.3281 -30.957 36.3281 -26.4648 C 36.3281 -22.2656 39.9902 -18.5547 44.2383 -18.5547 Z"/>
  </g>
  <g id="Heavy-M" transform="matrix(1 0 0 1 2544.11 1126)">
   <path d="M 167.627 -70.3125 L 171.875 -74.8535 C 174.365 -77.4902 174.756 -81.3965 172.266 -83.9844 L 170.557 -85.791 C 168.457 -87.9883 164.453 -87.3535 161.865 -84.8633 L 157.373 -80.5176 Z M 114.893 -24.6094 L 126.318 -29.0039 L 164.307 -66.9922 L 154.053 -77.1973 L 116.113 -39.209 L 111.67 -27.8809 C 110.889 -25.7324 113.086 -23.9258 114.893 -24.6094 Z M 130.273 -66.748 L 27.1484 -66.748 C 17.8711 -66.748 12.4512 -61.377 12.4512 -52.1973 L 12.4512 -2.88086 C 12.4512 6.29883 17.8711 11.6699 27.1484 11.6699 L 147.9 11.6699 C 157.178 11.6699 162.598 6.29883 162.598 -2.88086 L 162.598 -52.3438 L 146.24 -35.9863 L 146.24 -7.8125 C 146.24 -4.93164 144.482 -3.07617 141.406 -3.07617 L 33.5938 -3.07617 C 30.5176 -3.07617 28.7598 -4.93164 28.7598 -7.8125 L 28.7598 -47.2656 C 28.7598 -50.3906 30.5176 -52.002 33.5938 -52.002 L 115.527 -52.002 Z M 92.6758 -18.75 C 97.5098 -18.75 101.416 -22.9492 101.416 -27.5391 C 101.416 -32.373 97.5098 -36.2793 92.6758 -36.2793 C 87.6465 -36.2793 83.8867 -32.5684 83.8867 -27.5391 C 83.8867 -22.9492 88.0371 -18.75 92.6758 -18.75 Z M 70.0195 -18.75 C 74.9023 -18.75 78.8086 -22.9492 78.8086 -27.5391 C 78.8086 -32.373 74.9023 -36.2793 70.0195 -36.2793 C 64.9902 -36.2793 61.2793 -32.5684 61.2793 -27.5391 C 61.2793 -22.9492 65.3809 -18.75 70.0195 -18.75 Z M 47.4121 -18.75 C 52.2461 -18.75 56.1523 -22.9492 56.1523 -27.5391 C 56.1523 -32.373 52.2461 -36.2793 47.4121 -36.2793 C 42.3828 -36.2793 38.623 -32.5684 38.623 -27.5391 C 38.623 -22.9492 42.7734 -18.75 47.4121 -18.75 Z"/>
  </g>
  <g id="Black-M" transform="matrix(1 0 0 1 2837.75 1126)">
   <path d="M 173.291 -70.6543 L 177.783 -75.4883 C 180.518 -78.418 181.055 -82.7637 178.271 -85.6934 L 176.416 -87.6953 C 174.072 -90.1367 169.629 -89.3066 166.699 -86.5234 L 161.963 -81.9824 Z M 121.533 -26.4648 L 133.545 -30.957 L 170.02 -67.4316 L 158.74 -78.7598 L 122.266 -42.2363 L 117.822 -30.2246 C 116.895 -27.7344 119.482 -25.6836 121.533 -26.4648 Z M 135.986 -69.2383 L 27.2949 -69.2383 C 17.9688 -69.2383 12.4512 -63.7207 12.4512 -54.541 L 12.4512 -2.39258 C 12.4512 6.73828 17.9688 12.3047 27.2949 12.3047 L 155.127 12.3047 C 164.453 12.3047 169.971 6.73828 169.971 -2.39258 L 169.971 -54.248 L 151.025 -35.3027 L 151.025 -8.98438 C 151.025 -6.49414 149.414 -4.73633 146.631 -4.73633 L 35.6934 -4.73633 C 32.959 -4.73633 31.3965 -6.49414 31.3965 -8.98438 L 31.3965 -47.9492 C 31.3965 -50.7812 32.959 -52.1973 35.6934 -52.1973 L 118.945 -52.1973 Z M 97.3633 -18.9453 C 102.637 -18.9453 106.885 -23.5352 106.885 -28.4668 C 106.885 -33.7402 102.637 -37.9883 97.3633 -37.9883 C 91.8457 -37.9883 87.8418 -33.9844 87.8418 -28.4668 C 87.8418 -23.5352 92.334 -18.9453 97.3633 -18.9453 Z M 73.7793 -18.9453 C 79.0527 -18.9453 83.3496 -23.5352 83.3496 -28.4668 C 83.3496 -33.7402 79.0527 -37.9883 73.7793 -37.9883 C 68.2617 -37.9883 64.2578 -33.9844 64.2578 -28.4668 C 64.2578 -23.5352 68.7988 -18.9453 73.7793 -18.9453 Z M 50.2441 -18.9453 C 55.5176 -18.9453 59.7656 -23.5352 59.7656 -28.4668 C 59.7656 -33.7402 55.5176 -37.9883 50.2441 -37.9883 C 44.7266 -37.9883 40.7227 -33.9844 40.7227 -28.4668 C 40.7227 -23.5352 45.2148 -18.9453 50.2441 -18.9453 Z"/>
  </g>
  <g id="Ultralight-L" transform="matrix(1 0 0 1 467.89 1556)">
   <path d="M 164.746 -71.6797 L 167.822 -74.8047 C 169.58 -76.5137 169.678 -77.8809 168.115 -79.4434 L 168.066 -79.4922 C 166.65 -80.8594 165.039 -80.7129 163.477 -79.1504 L 160.352 -76.0742 Z M 100.391 -11.084 L 107.812 -14.8926 L 161.426 -68.457 L 157.129 -72.8516 L 103.564 -19.2383 L 99.6094 -11.8164 C 99.2676 -11.3281 99.8535 -10.8398 100.391 -11.084 Z M 110.059 -51.5625 L 29.1016 -51.5625 C 21.0938 -51.5625 16.0645 -46.5332 16.0645 -38.5254 L 16.0645 9.7168 C 16.0645 17.7734 21.0938 22.8027 29.1016 22.8027 L 137.793 22.8027 C 145.801 22.8027 150.83 17.7734 150.83 9.7168 L 150.83 -39.3066 L 148.242 -36.7676 L 148.242 9.66797 C 148.242 16.6016 144.482 20.3613 137.598 20.3613 L 29.2969 20.3613 C 22.4121 20.3613 18.6523 16.6016 18.6523 9.66797 L 18.6523 -38.3789 C 18.6523 -45.2637 22.4121 -49.0723 29.2969 -49.0723 L 107.52 -49.0723 Z M 81.4453 -9.61914 C 84.0332 -9.61914 86.1328 -11.7188 86.1328 -14.3066 C 86.1328 -16.8945 84.0332 -18.9941 81.4453 -18.9941 C 78.9062 -18.9941 76.7578 -16.8945 76.7578 -14.3066 C 76.7578 -11.7188 78.9062 -9.61914 81.4453 -9.61914 Z M 61.5723 -9.61914 C 64.1602 -9.61914 66.2598 -11.7188 66.2598 -14.3066 C 66.2598 -16.8945 64.1602 -18.9941 61.5723 -18.9941 C 59.0332 -18.9941 56.8848 -16.8945 56.8848 -14.3066 C 56.8848 -11.7188 59.0332 -9.61914 61.5723 -9.61914 Z M 41.6992 -9.61914 C 44.2871 -9.61914 46.3867 -11.7188 46.3867 -14.3066 C 46.3867 -16.8945 44.2871 -18.9941 41.6992 -18.9941 C 39.1602 -18.9941 37.0117 -16.8945 37.0117 -14.3066 C 37.0117 -11.7188 39.1602 -9.61914 41.6992 -9.61914 Z"/>
  </g>
  <g id="Thin-L" transform="matrix(1 0 0 1 761.915 1556)">
   <path d="M 169.824 -73.0469 L 173.145 -76.416 C 174.951 -78.2227 175.049 -79.8828 173.389 -81.543 L 173.096 -81.8359 C 171.582 -83.3496 169.678 -83.2031 168.018 -81.543 L 164.648 -78.1738 Z M 104.004 -11.5723 L 112.354 -15.625 L 166.211 -69.5312 L 161.133 -74.6582 L 107.275 -20.8008 L 103.027 -12.5488 C 102.686 -11.9629 103.369 -11.2793 104.004 -11.5723 Z M 116.309 -54.1016 L 30.0781 -54.1016 C 21.3867 -54.1016 16.0645 -48.8281 16.0645 -40.1367 L 16.0645 8.78906 C 16.0645 17.5293 21.3867 22.8027 30.0781 22.8027 L 141.895 22.8027 C 150.635 22.8027 155.908 17.5293 155.908 8.78906 L 155.908 -41.1133 L 152.002 -37.207 L 152.002 8.83789 C 152.002 15.4785 148.389 19.0918 141.748 19.0918 L 30.2246 19.0918 C 23.6328 19.0918 20.0195 15.4785 20.0195 8.83789 L 20.0195 -40.0879 C 20.0195 -46.6797 23.6328 -50.3418 30.2246 -50.3418 L 112.5 -50.3418 Z M 84.8145 -10.3027 C 87.6953 -10.3027 90.0879 -12.6953 90.0879 -15.5762 C 90.0879 -18.5059 87.6953 -20.8984 84.8145 -20.8984 C 81.8848 -20.8984 79.4922 -18.5059 79.4922 -15.5762 C 79.4922 -12.6953 81.8848 -10.3027 84.8145 -10.3027 Z M 63.9648 -10.3027 C 66.8457 -10.3027 69.2383 -12.6953 69.2383 -15.5762 C 69.2383 -18.5059 66.8457 -20.8984 63.9648 -20.8984 C 61.0352 -20.8984 58.6426 -18.5059 58.6426 -15.5762 C 58.6426 -12.6953 61.0352 -10.3027 63.9648 -10.3027 Z M 43.1152 -10.3027 C 45.9961 -10.3027 48.3887 -12.6953 48.3887 -15.5762 C 48.3887 -18.5059 45.9961 -20.8984 43.1152 -20.8984 C 40.1855 -20.8984 37.793 -18.5059 37.793 -15.5762 C 37.793 -12.6953 40.1855 -10.3027 43.1152 -10.3027 Z"/>
  </g>
  <g id="Light-L" transform="matrix(1 0 0 1 1053.38 1556)">
   <path d="M 179.688 -75.6348 L 183.545 -79.541 C 185.498 -81.543 185.547 -83.7891 183.691 -85.6445 L 182.91 -86.4746 C 181.201 -88.1836 178.76 -87.9883 176.953 -86.1328 L 173.047 -82.2754 Z M 111.133 -12.5488 L 121.191 -17.1387 L 175.635 -71.6309 L 169.043 -78.2227 L 114.6 -23.7793 L 109.717 -13.9648 C 109.326 -13.1836 110.254 -12.1582 111.133 -12.5488 Z M 128.418 -59.0332 L 31.9824 -59.0332 C 21.9238 -59.0332 16.0645 -53.3203 16.0645 -43.2617 L 16.0645 6.98242 C 16.0645 17.0898 21.9238 22.8027 31.9824 22.8027 L 149.951 22.8027 C 160.059 22.8027 165.918 17.0898 165.918 6.98242 L 165.918 -44.6777 L 159.277 -38.0371 L 159.277 7.22656 C 159.277 13.2324 155.957 16.6016 149.951 16.6016 L 32.0312 16.6016 C 26.0254 16.6016 22.7051 13.2324 22.7051 7.22656 L 22.7051 -43.457 C 22.7051 -49.4629 26.0254 -52.7832 32.0312 -52.7832 L 122.168 -52.7832 Z M 91.3086 -11.5723 C 94.9219 -11.5723 97.8516 -14.502 97.8516 -18.0664 C 97.8516 -21.6309 94.9219 -24.5605 91.3086 -24.5605 C 87.7441 -24.5605 84.8145 -21.6309 84.8145 -18.0664 C 84.8145 -14.502 87.7441 -11.5723 91.3086 -11.5723 Z M 68.5547 -11.5723 C 72.168 -11.5723 75.0977 -14.502 75.0977 -18.0664 C 75.0977 -21.6309 72.168 -24.5605 68.5547 -24.5605 C 64.9902 -24.5605 62.0605 -21.6309 62.0605 -18.0664 C 62.0605 -14.502 64.9902 -11.5723 68.5547 -11.5723 Z M 45.8008 -11.5723 C 49.3652 -11.5723 52.2949 -14.502 52.2949 -18.0664 C 52.2949 -21.6309 49.3652 -24.5605 45.8008 -24.5605 C 42.2363 -24.5605 39.2578 -21.6309 39.2578 -18.0664 C 39.2578 -14.502 42.2363 -11.5723 45.8008 -11.5723 Z"/>
  </g>
  <g id="Regular-L" transform="matrix(1 0 0 1 1346.11 1556)">
   <path d="M 187.158 -77.5879 L 191.406 -81.9336 C 193.457 -84.0332 193.506 -86.7676 191.504 -88.7695 L 190.283 -89.9414 C 188.477 -91.7969 185.645 -91.6016 183.691 -89.6484 L 179.395 -85.4004 Z M 116.504 -13.2812 L 127.832 -18.3105 L 182.764 -73.1934 L 175 -80.9082 L 120.117 -26.0254 L 114.795 -15.0391 C 114.307 -14.1113 115.43 -12.8418 116.504 -13.2812 Z M 137.646 -62.793 L 33.4473 -62.793 C 22.3145 -62.793 16.0645 -56.7383 16.0645 -45.6055 L 16.0645 5.61523 C 16.0645 16.748 22.3145 22.8027 33.4473 22.8027 L 156.055 22.8027 C 167.188 22.8027 173.438 16.748 173.438 5.61523 L 173.438 -47.3145 L 164.795 -38.6719 L 164.795 6.00586 C 164.795 11.5723 161.67 14.6973 156.104 14.6973 L 33.3984 14.6973 C 27.832 14.6973 24.7559 11.5723 24.7559 6.00586 L 24.7559 -45.9961 C 24.7559 -51.5625 27.832 -54.6387 33.3984 -54.6387 L 129.492 -54.6387 Z M 96.2402 -12.5488 C 100.342 -12.5488 103.662 -15.918 103.662 -19.9707 C 103.662 -24.0234 100.342 -27.3926 96.2402 -27.3926 C 92.1875 -27.3926 88.8672 -24.0234 88.8672 -19.9707 C 88.8672 -15.918 92.1875 -12.5488 96.2402 -12.5488 Z M 72.0703 -12.5488 C 76.1719 -12.5488 79.541 -15.918 79.541 -19.9707 C 79.541 -24.0234 76.1719 -27.3926 72.0703 -27.3926 C 67.9688 -27.3926 64.5996 -24.0234 64.5996 -19.9707 C 64.5996 -15.918 67.9688 -12.5488 72.0703 -12.5488 Z M 47.8027 -12.5488 C 51.9531 -12.5488 55.2734 -15.918 55.2734 -19.9707 C 55.2734 -24.0234 51.9531 -27.3926 47.8027 -27.3926 C 43.75 -27.3926 40.4297 -24.0234 40.4297 -19.9707 C 40.4297 -15.918 43.75 -12.5488 47.8027 -12.5488 Z"/>
  </g>
  <g id="Medium-L" transform="matrix(1 0 0 1 1639.96 1556)">
   <path d="M 192.48 -78.1738 L 196.924 -82.8125 C 199.219 -85.1562 199.316 -88.2812 197.119 -90.5273 L 195.703 -91.9434 C 193.701 -93.9453 190.479 -93.6035 188.281 -91.4551 L 183.74 -86.9629 Z M 122.119 -14.6973 L 134.131 -19.873 L 188.037 -73.8281 L 179.297 -82.5195 L 125.391 -28.5645 L 119.971 -16.8945 C 119.434 -15.625 120.85 -14.209 122.119 -14.6973 Z M 143.262 -65.1855 L 33.7891 -65.1855 C 22.4609 -65.1855 16.0645 -58.9844 16.0645 -47.6562 L 16.0645 5.71289 C 16.0645 16.9922 22.4609 23.1934 33.7891 23.1934 L 162.256 23.1934 C 173.584 23.1934 179.932 16.9922 179.932 5.71289 L 179.932 -49.1699 L 169.092 -38.3301 L 169.092 4.98047 C 169.092 10.2051 166.162 13.1836 160.889 13.1836 L 35.1562 13.1836 C 29.8828 13.1836 26.9043 10.2051 26.9043 4.98047 L 26.9043 -46.9238 C 26.9043 -52.1973 29.8828 -55.127 35.1562 -55.127 L 133.203 -55.127 Z M 100.439 -12.8418 C 104.932 -12.8418 108.545 -16.5527 108.545 -20.9473 C 108.545 -25.4395 104.932 -29.0527 100.439 -29.0527 C 95.9473 -29.0527 92.334 -25.4883 92.334 -20.9473 C 92.334 -16.5527 96.0449 -12.8418 100.439 -12.8418 Z M 75.3418 -12.8418 C 79.834 -12.8418 83.4961 -16.5527 83.4961 -20.9473 C 83.4961 -25.4395 79.834 -29.0527 75.3418 -29.0527 C 70.8008 -29.0527 67.1875 -25.4883 67.1875 -20.9473 C 67.1875 -16.5527 70.8496 -12.8418 75.3418 -12.8418 Z M 50.1465 -12.8418 C 54.6875 -12.8418 58.3008 -16.5527 58.3008 -20.9473 C 58.3008 -25.4395 54.6875 -29.0527 50.1465 -29.0527 C 45.6543 -29.0527 42.041 -25.4883 42.041 -20.9473 C 42.041 -16.5527 45.752 -12.8418 50.1465 -12.8418 Z"/>
  </g>
  <g id="Semibold-L" transform="matrix(1 0 0 1 1934.48 1556)">
   <path d="M 196.533 -78.6621 L 201.172 -83.4961 C 203.613 -85.9863 203.76 -89.4531 201.416 -91.8457 L 199.854 -93.4082 C 197.754 -95.6055 194.189 -95.166 191.846 -92.8223 L 187.061 -88.1836 Z M 126.416 -15.7715 L 138.916 -21.0449 L 192.139 -74.2676 L 182.617 -83.6914 L 129.443 -30.4688 L 123.975 -18.3105 C 123.34 -16.7969 125 -15.2344 126.416 -15.7715 Z M 147.559 -67.041 L 34.082 -67.041 C 22.5586 -67.041 16.0645 -60.6934 16.0645 -49.2676 L 16.0645 5.76172 C 16.0645 17.1875 22.5586 23.5352 34.082 23.5352 L 166.943 23.5352 C 178.467 23.5352 184.961 17.1875 184.961 5.76172 L 184.961 -50.5371 L 172.412 -38.0371 L 172.412 4.15039 C 172.412 9.13086 169.58 12.0117 164.551 12.0117 L 36.4746 12.0117 C 31.4453 12.0117 28.6133 9.13086 28.6133 4.15039 L 28.6133 -47.6562 C 28.6133 -52.7344 31.4453 -55.5176 36.4746 -55.5176 L 136.035 -55.5176 Z M 103.662 -13.0859 C 108.398 -13.0859 112.305 -17.041 112.305 -21.7285 C 112.305 -26.5137 108.398 -30.3711 103.662 -30.3711 C 98.8281 -30.3711 95.0195 -26.5625 95.0195 -21.7285 C 95.0195 -17.041 98.9746 -13.0859 103.662 -13.0859 Z M 77.832 -13.0859 C 82.6172 -13.0859 86.5234 -17.041 86.5234 -21.7285 C 86.5234 -26.5137 82.6172 -30.3711 77.832 -30.3711 C 72.9492 -30.3711 69.1406 -26.5625 69.1406 -21.7285 C 69.1406 -17.041 73.0957 -13.0859 77.832 -13.0859 Z M 51.9531 -13.0859 C 56.7871 -13.0859 60.6445 -17.041 60.6445 -21.7285 C 60.6445 -26.5137 56.7871 -30.3711 51.9531 -30.3711 C 47.1191 -30.3711 43.3105 -26.5625 43.3105 -21.7285 C 43.3105 -17.041 47.2656 -13.0859 51.9531 -13.0859 Z"/>
  </g>
  <g id="Bold-L" transform="matrix(1 0 0 1 2228.31 1556)">
   <path d="M 201.904 -79.248 L 206.787 -84.375 C 209.424 -87.1094 209.668 -90.9668 207.08 -93.6035 L 205.322 -95.4102 C 203.027 -97.7539 199.121 -97.2168 196.484 -94.6777 L 191.406 -89.7461 Z M 132.129 -17.2363 L 145.264 -22.6074 L 197.51 -74.8535 L 187.012 -85.3027 L 134.814 -33.0566 L 129.248 -20.166 C 128.467 -18.3594 130.42 -16.6016 132.129 -17.2363 Z M 153.271 -69.4824 L 34.4238 -69.4824 C 22.7051 -69.4824 16.0645 -62.9883 16.0645 -51.3184 L 16.0645 5.81055 C 16.0645 17.4316 22.7051 23.9746 34.4238 23.9746 L 173.193 23.9746 C 184.912 23.9746 191.553 17.4316 191.553 5.81055 L 191.553 -52.3926 L 176.807 -37.6465 L 176.807 3.07617 C 176.807 7.76367 174.121 10.498 169.336 10.498 L 38.2324 10.498 C 33.4961 10.498 30.8105 7.76367 30.8105 3.07617 L 30.8105 -48.584 C 30.8105 -53.3691 33.4961 -56.0059 38.2324 -56.0059 L 139.795 -56.0059 Z M 107.861 -13.3789 C 113.037 -13.3789 117.236 -17.7246 117.236 -22.7539 C 117.236 -27.8809 113.037 -32.1289 107.861 -32.1289 C 102.588 -32.1289 98.5352 -28.0273 98.5352 -22.7539 C 98.5352 -17.7246 102.832 -13.3789 107.861 -13.3789 Z M 81.1523 -13.3789 C 86.3281 -13.3789 90.5273 -17.7246 90.5273 -22.7539 C 90.5273 -27.8809 86.3281 -32.1289 81.1523 -32.1289 C 75.8301 -32.1289 71.7285 -28.0273 71.7285 -22.7539 C 71.7285 -17.7246 76.0742 -13.3789 81.1523 -13.3789 Z M 54.3457 -13.3789 C 59.5215 -13.3789 63.7207 -17.7246 63.7207 -22.7539 C 63.7207 -27.8809 59.5215 -32.1289 54.3457 -32.1289 C 49.0723 -32.1289 44.9707 -28.0273 44.9707 -22.7539 C 44.9707 -17.7246 49.3164 -13.3789 54.3457 -13.3789 Z"/>
  </g>
  <g id="Heavy-L" transform="matrix(1 0 0 1 2520.82 1556)">
   <path d="M 209.668 -80.127 L 214.893 -85.6445 C 217.822 -88.7207 218.213 -93.1641 215.283 -96.1914 L 213.281 -98.291 C 210.742 -100.879 206.201 -100.195 203.223 -97.3145 L 197.803 -92.041 Z M 140.381 -19.3359 L 154.443 -24.9023 L 205.273 -75.7324 L 193.359 -87.5977 L 142.578 -36.7676 L 136.865 -22.9004 C 135.938 -20.6543 138.33 -18.5547 140.381 -19.3359 Z M 161.523 -72.998 L 34.9609 -72.998 C 22.9492 -72.998 16.0645 -66.2598 16.0645 -54.3457 L 16.0645 5.9082 C 16.0645 17.8223 22.9492 24.5605 34.9609 24.5605 L 182.227 24.5605 C 194.238 24.5605 201.074 17.8223 201.074 5.9082 L 201.074 -55.0781 L 183.154 -37.1094 L 183.154 1.5625 C 183.154 5.71289 180.664 8.25195 176.318 8.25195 L 40.7715 8.25195 C 36.4746 8.25195 34.0332 5.71289 34.0332 1.5625 L 34.0332 -50 C 34.0332 -54.3457 36.4746 -56.6895 40.7715 -56.6895 L 145.215 -56.6895 Z M 114.014 -13.8184 C 119.727 -13.8184 124.414 -18.7012 124.414 -24.2188 C 124.414 -29.9316 119.727 -34.6191 114.014 -34.6191 C 108.105 -34.6191 103.613 -30.127 103.613 -24.2188 C 103.613 -18.7012 108.447 -13.8184 114.014 -13.8184 Z M 85.9375 -13.8184 C 91.6992 -13.8184 96.3379 -18.7012 96.3379 -24.2188 C 96.3379 -29.9316 91.6992 -34.6191 85.9375 -34.6191 C 79.9805 -34.6191 75.4883 -30.127 75.4883 -24.2188 C 75.4883 -18.7012 80.3223 -13.8184 85.9375 -13.8184 Z M 57.7637 -13.8184 C 63.5254 -13.8184 68.2129 -18.7012 68.2129 -24.2188 C 68.2129 -29.9316 63.5254 -34.6191 57.7637 -34.6191 C 51.8555 -34.6191 47.3633 -30.127 47.3633 -24.2188 C 47.3633 -18.7012 52.2461 -13.8184 57.7637 -13.8184 Z"/>
  </g>
  <g id="Black-L" transform="matrix(1 0 0 1 2813.77 1556)">
   <path d="M 216.602 -80.9082 L 222.168 -86.8164 C 225.342 -90.1855 225.83 -95.166 222.656 -98.4863 L 220.361 -100.83 C 217.627 -103.711 212.549 -102.881 209.277 -99.707 L 203.467 -94.0918 Z M 147.754 -21.1914 L 162.646 -26.9531 L 212.207 -76.5137 L 199.023 -89.6484 L 149.512 -40.0879 L 143.652 -25.3418 C 142.627 -22.6562 145.41 -20.3125 147.754 -21.1914 Z M 168.945 -76.1719 L 35.4004 -76.1719 C 23.0957 -76.1719 16.0645 -69.2383 16.0645 -57.0801 L 16.0645 6.00586 C 16.0645 18.1152 23.0957 25.1465 35.4004 25.1465 L 190.332 25.1465 C 202.588 25.1465 209.619 18.1152 209.619 6.00586 L 209.619 -57.4219 L 188.818 -36.6211 L 188.818 0.195312 C 188.818 3.90625 186.523 6.29883 182.568 6.29883 L 43.0664 6.29883 C 39.1113 6.29883 36.9141 3.90625 36.9141 0.195312 L 36.9141 -51.2207 C 36.9141 -55.2246 39.1113 -57.3242 43.0664 -57.3242 L 150.098 -57.3242 Z M 119.482 -14.209 C 125.732 -14.209 130.811 -19.5801 130.811 -25.5371 C 130.811 -31.7871 125.732 -36.8652 119.482 -36.8652 C 113.037 -36.8652 108.154 -31.9824 108.154 -25.5371 C 108.154 -19.5801 113.477 -14.209 119.482 -14.209 Z M 90.1855 -14.209 C 96.4844 -14.209 101.514 -19.5801 101.514 -25.5371 C 101.514 -31.7871 96.4844 -36.8652 90.1855 -36.8652 C 83.6914 -36.8652 78.8574 -31.9824 78.8574 -25.5371 C 78.8574 -19.5801 84.1309 -14.209 90.1855 -14.209 Z M 60.8887 -14.209 C 67.1387 -14.209 72.2168 -19.5801 72.2168 -25.5371 C 72.2168 -31.7871 67.1387 -36.8652 60.8887 -36.8652 C 54.3945 -36.8652 49.5605 -31.9824 49.5605 -25.5371 C 49.5605 -19.5801 54.834 -14.209 60.8887 -14.209 Z"/>
  </g>
 </g>
</svg>
