<?xml version="1.0" encoding="UTF-8"?>
<!--Generator: Apple Native CoreSVG 123-->
<!DOCTYPE svg
PUBLIC "-//W3C//DTD SVG 1.1//EN"
       "http://www.w3.org/Graphics/SVG/1.1/DTD/svg11.dtd">
<svg version="1.1" xmlns="http://www.w3.org/2000/svg" xmlns:xlink="http://www.w3.org/1999/xlink" width="3300" height="2200">
 <!--glyph: "uni10017C.medium", point size: 100.000000, font version: "Version 15.0d4e20", template writer version: "2"-->
 <g id="Notes">
  <rect height="2200" id="artboard" style="fill:white;opacity:1" width="3300" x="0" y="0"/>
  <line id="" style="fill:none;stroke:black;opacity:1;stroke-width:0.5;" x1="263" x2="3036" y1="292" y2="292"/>
  <text style="stroke:none;fill:black;font-family:-apple-system,&quot;SF Pro Display&quot;,&quot;SF Pro Text&quot;,Helvetica,sans-serif;font-weight:bold;" transform="matrix(1 0 0 1 263 322)">Weight/Scale Variations</text>
  <text style="stroke:none;fill:black;font-family:-apple-system,&quot;SF Pro Display&quot;,&quot;SF Pro Text&quot;,Helvetica,sans-serif;text-anchor:middle;" transform="matrix(1 0 0 1 559.711 322)">Ultralight</text>
  <text style="stroke:none;fill:black;font-family:-apple-system,&quot;SF Pro Display&quot;,&quot;SF Pro Text&quot;,Helvetica,sans-serif;text-anchor:middle;" transform="matrix(1 0 0 1 856.422 322)">Thin</text>
  <text style="stroke:none;fill:black;font-family:-apple-system,&quot;SF Pro Display&quot;,&quot;SF Pro Text&quot;,Helvetica,sans-serif;text-anchor:middle;" transform="matrix(1 0 0 1 1153.13 322)">Light</text>
  <text style="stroke:none;fill:black;font-family:-apple-system,&quot;SF Pro Display&quot;,&quot;SF Pro Text&quot;,Helvetica,sans-serif;text-anchor:middle;" transform="matrix(1 0 0 1 1449.84 322)">Regular</text>
  <text style="stroke:none;fill:black;font-family:-apple-system,&quot;SF Pro Display&quot;,&quot;SF Pro Text&quot;,Helvetica,sans-serif;text-anchor:middle;" transform="matrix(1 0 0 1 1746.56 322)">Medium</text>
  <text style="stroke:none;fill:black;font-family:-apple-system,&quot;SF Pro Display&quot;,&quot;SF Pro Text&quot;,Helvetica,sans-serif;text-anchor:middle;" transform="matrix(1 0 0 1 2043.27 322)">Semibold</text>
  <text style="stroke:none;fill:black;font-family:-apple-system,&quot;SF Pro Display&quot;,&quot;SF Pro Text&quot;,Helvetica,sans-serif;text-anchor:middle;" transform="matrix(1 0 0 1 2339.98 322)">Bold</text>
  <text style="stroke:none;fill:black;font-family:-apple-system,&quot;SF Pro Display&quot;,&quot;SF Pro Text&quot;,Helvetica,sans-serif;text-anchor:middle;" transform="matrix(1 0 0 1 2636.69 322)">Heavy</text>
  <text style="stroke:none;fill:black;font-family:-apple-system,&quot;SF Pro Display&quot;,&quot;SF Pro Text&quot;,Helvetica,sans-serif;text-anchor:middle;" transform="matrix(1 0 0 1 2933.4 322)">Black</text>
  <line id="" style="fill:none;stroke:black;opacity:1;stroke-width:0.5;" x1="263" x2="3036" y1="1903" y2="1903"/>
  <g id="" transform="matrix(1 0 0 1 263 1933)">
   <path d="M 9.24805 0.830078 C 13.5547 0.830078 17.1387 -2.74414 17.1387 -7.05078 C 17.1387 -11.3574 13.5449 -14.9316 9.23828 -14.9316 C 4.94141 -14.9316 1.36719 -11.3574 1.36719 -7.05078 C 1.36719 -2.74414 4.95117 0.830078 9.24805 0.830078 Z M 9.24805 -0.654297 C 5.70312 -0.654297 2.87109 -3.49609 2.87109 -7.05078 C 2.87109 -10.6055 5.69336 -13.4473 9.23828 -13.4473 C 12.793 -13.4473 15.6348 -10.6055 15.6445 -7.05078 C 15.6543 -3.49609 12.8027 -0.654297 9.24805 -0.654297 Z M 9.22852 -3.42773 C 9.69727 -3.42773 9.9707 -3.74023 9.9707 -4.25781 L 9.9707 -6.31836 L 12.1973 -6.31836 C 12.6953 -6.31836 13.0371 -6.57227 13.0371 -7.04102 C 13.0371 -7.51953 12.7148 -7.7832 12.1973 -7.7832 L 9.9707 -7.7832 L 9.9707 -10.0098 C 9.9707 -10.5273 9.69727 -10.8496 9.22852 -10.8496 C 8.75977 -10.8496 8.50586 -10.5078 8.50586 -10.0098 L 8.50586 -7.7832 L 6.29883 -7.7832 C 5.78125 -7.7832 5.44922 -7.51953 5.44922 -7.04102 C 5.44922 -6.57227 5.80078 -6.31836 6.29883 -6.31836 L 8.50586 -6.31836 L 8.50586 -4.25781 C 8.50586 -3.75977 8.75977 -3.42773 9.22852 -3.42773 Z"/>
  </g>
  <g id="" transform="matrix(1 0 0 1 281.506 1933)">
   <path d="M 11.709 2.91016 C 17.1484 2.91016 21.6699 -1.60156 21.6699 -7.05078 C 21.6699 -12.4902 17.1387 -17.0117 11.6992 -17.0117 C 6.25 -17.0117 1.74805 -12.4902 1.74805 -7.05078 C 1.74805 -1.60156 6.25977 2.91016 11.709 2.91016 Z M 11.709 1.25 C 7.09961 1.25 3.41797 -2.44141 3.41797 -7.05078 C 3.41797 -11.6504 7.08984 -15.3516 11.6992 -15.3516 C 16.2988 -15.3516 20 -11.6504 20.0098 -7.05078 C 20.0195 -2.44141 16.3086 1.25 11.709 1.25 Z M 11.6797 -2.41211 C 12.207 -2.41211 12.5195 -2.77344 12.5195 -3.33984 L 12.5195 -6.23047 L 15.5762 -6.23047 C 16.123 -6.23047 16.5039 -6.51367 16.5039 -7.03125 C 16.5039 -7.55859 16.1426 -7.86133 15.5762 -7.86133 L 12.5195 -7.86133 L 12.5195 -10.9277 C 12.5195 -11.5039 12.207 -11.8555 11.6797 -11.8555 C 11.1621 -11.8555 10.8789 -11.4844 10.8789 -10.9277 L 10.8789 -7.86133 L 7.83203 -7.86133 C 7.25586 -7.86133 6.89453 -7.55859 6.89453 -7.03125 C 6.89453 -6.51367 7.28516 -6.23047 7.83203 -6.23047 L 10.8789 -6.23047 L 10.8789 -3.33984 C 10.8789 -2.79297 11.1621 -2.41211 11.6797 -2.41211 Z"/>
  </g>
  <g id="" transform="matrix(1 0 0 1 304.914 1933)">
   <path d="M 14.9707 5.67383 C 21.9336 5.67383 27.6855 -0.078125 27.6855 -7.04102 C 27.6855 -14.0039 21.9238 -19.7559 14.9609 -19.7559 C 7.99805 -19.7559 2.25586 -14.0039 2.25586 -7.04102 C 2.25586 -0.078125 8.00781 5.67383 14.9707 5.67383 Z M 14.9707 3.85742 C 8.92578 3.85742 4.08203 -1.00586 4.08203 -7.04102 C 4.08203 -13.0762 8.91602 -17.9395 14.9609 -17.9395 C 20.9961 -17.9395 25.8594 -13.0762 25.8691 -7.04102 C 25.8789 -1.00586 21.0059 3.85742 14.9707 3.85742 Z M 14.9414 -1.06445 C 15.5176 -1.06445 15.8594 -1.45508 15.8594 -2.06055 L 15.8594 -6.13281 L 20.0977 -6.13281 C 20.6934 -6.13281 21.1133 -6.46484 21.1133 -7.02148 C 21.1133 -7.59766 20.7227 -7.93945 20.0977 -7.93945 L 15.8594 -7.93945 L 15.8594 -12.1875 C 15.8594 -12.8027 15.5176 -13.1934 14.9414 -13.1934 C 14.3848 -13.1934 14.0625 -12.7832 14.0625 -12.1875 L 14.0625 -7.93945 L 9.82422 -7.93945 C 9.20898 -7.93945 8.80859 -7.59766 8.80859 -7.02148 C 8.80859 -6.46484 9.23828 -6.13281 9.82422 -6.13281 L 14.0625 -6.13281 L 14.0625 -2.06055 C 14.0625 -1.47461 14.3848 -1.06445 14.9414 -1.06445 Z"/>
  </g>
  <text style="stroke:none;fill:black;font-family:-apple-system,&quot;SF Pro Display&quot;,&quot;SF Pro Text&quot;,Helvetica,sans-serif;font-weight:bold;" transform="matrix(1 0 0 1 263 1953)">Design Variations</text>
  <text style="stroke:none;fill:black;font-family:-apple-system,&quot;SF Pro Display&quot;,&quot;SF Pro Text&quot;,Helvetica,sans-serif;" transform="matrix(1 0 0 1 263 1971)">Symbols are supported in up to nine weights and three scales.</text>
  <text style="stroke:none;fill:black;font-family:-apple-system,&quot;SF Pro Display&quot;,&quot;SF Pro Text&quot;,Helvetica,sans-serif;" transform="matrix(1 0 0 1 263 1989)">For optimal layout with text and other symbols, vertically align</text>
  <text style="stroke:none;fill:black;font-family:-apple-system,&quot;SF Pro Display&quot;,&quot;SF Pro Text&quot;,Helvetica,sans-serif;" transform="matrix(1 0 0 1 263 2007)">symbols with the adjacent text.</text>
  <rect height="14" id="" style="fill:#00AEEF;stroke:none;opacity:0.4;" width="3" x="776" y="1919"/>
  <g id="" transform="matrix(1 0 0 1 779 1933)">
   <path d="M 10.5273 0 L 12.373 0 L 7.17773 -14.0918 L 5.43945 -14.0918 L 0.244141 0 L 2.08984 0 L 3.50586 -4.0332 L 9.11133 -4.0332 Z M 6.2793 -11.9531 L 6.33789 -11.9531 L 8.59375 -5.52734 L 4.02344 -5.52734 Z"/>
  </g>
  <rect height="14" id="" style="fill:#00AEEF;stroke:none;opacity:0.4;" width="3" x="791.617" y="1919"/>
  <text style="stroke:none;fill:black;font-family:-apple-system,&quot;SF Pro Display&quot;,&quot;SF Pro Text&quot;,Helvetica,sans-serif;font-weight:bold;" transform="matrix(1 0 0 1 776 1953)">Side Bearings</text>
  <text style="stroke:none;fill:black;font-family:-apple-system,&quot;SF Pro Display&quot;,&quot;SF Pro Text&quot;,Helvetica,sans-serif;" transform="matrix(1 0 0 1 776 1971)">Horizontal padding on the left and right side of each symbol</text>
  <text style="stroke:none;fill:black;font-family:-apple-system,&quot;SF Pro Display&quot;,&quot;SF Pro Text&quot;,Helvetica,sans-serif;" transform="matrix(1 0 0 1 776 1989)">can be adjusted by modifying the width of the blue rectangles.</text>
  <text style="stroke:none;fill:black;font-family:-apple-system,&quot;SF Pro Display&quot;,&quot;SF Pro Text&quot;,Helvetica,sans-serif;" transform="matrix(1 0 0 1 776 2007)">Modifications are automatically applied proportionally to all</text>
  <text style="stroke:none;fill:black;font-family:-apple-system,&quot;SF Pro Display&quot;,&quot;SF Pro Text&quot;,Helvetica,sans-serif;" transform="matrix(1 0 0 1 776 2025)">scales and weights.</text>
  <g id="" transform="matrix(1 0 0 1 1289 1933)">
   <path d="M 2.96875 2.35352 L 3.80859 3.19336 C 4.84375 4.22852 6.12305 4.15039 7.19727 2.97852 L 16.1621 -6.82617 C 16.5527 -6.74805 16.9629 -6.8457 17.4902 -7.02148 C 18.1738 -7.25586 18.2715 -7.25586 18.3887 -7.13867 C 18.5352 -7.01172 18.4863 -6.89453 18.2422 -6.25 C 17.8809 -5.33203 17.8125 -4.79492 18.5547 -4.02344 L 19.4238 -3.13477 C 20.2734 -2.24609 21.3281 -2.26562 22.2168 -3.14453 L 25.0586 -5.97656 C 25.9473 -6.86523 25.957 -7.92969 25.0781 -8.7793 L 24.1797 -9.64844 C 23.4082 -10.4004 22.8711 -10.3516 21.9629 -9.98047 C 21.3184 -9.72656 21.2012 -9.6875 21.0645 -9.81445 C 20.9375 -9.93164 20.9473 -10.0391 21.1816 -10.7129 C 21.5332 -11.6895 21.5723 -12.2852 20.752 -13.0957 L 19.3359 -14.5117 C 15.1953 -18.6133 11.2305 -18.7402 7.65625 -15.4395 C 7.08008 -14.9023 6.99219 -14.1504 7.53906 -13.6133 L 7.79297 -13.3594 C 8.22266 -12.9297 8.86719 -12.8418 9.41406 -13.1152 C 11.0645 -13.9453 12.2559 -14.0234 13.457 -12.9785 L 13.0273 -11.416 C 12.8516 -10.8008 12.793 -10.3418 12.9199 -9.93164 L 3.18359 -1.04492 C 2.02148 0.0292969 1.93359 1.32812 2.96875 2.35352 Z M 8.96484 -14.4922 C 8.89648 -14.5703 8.86719 -14.6582 8.99414 -14.7559 C 11.709 -17.2852 15.0391 -16.8457 18.3496 -13.5254 L 19.6973 -12.168 C 20.0879 -11.7773 20.0977 -11.582 19.8828 -10.8691 C 19.6582 -10.127 19.502 -9.53125 20.1465 -8.88672 C 20.8105 -8.22266 21.2891 -8.41797 22.207 -8.63281 C 22.9004 -8.79883 23.0664 -8.79883 23.4473 -8.41797 L 24.0918 -7.77344 C 24.4043 -7.48047 24.4141 -7.32422 24.0723 -6.97266 L 21.2207 -4.13086 C 20.8887 -3.79883 20.7227 -3.79883 20.4297 -4.10156 L 19.7852 -4.75586 C 19.4141 -5.13672 19.4141 -5.30273 19.5801 -6.01562 C 19.7852 -6.88477 19.9805 -7.38281 19.3262 -8.04688 C 18.6719 -8.7207 18.0762 -8.57422 17.3438 -8.33008 C 16.5625 -8.06641 16.3281 -8.06641 15.8984 -8.49609 L 14.6094 -9.78516 C 14.1699 -10.2246 14.1309 -10.4395 14.2676 -10.9082 L 15.0293 -13.3984 C 13.3887 -15.2832 11.4941 -15.5566 9.20898 -14.4434 C 9.11133 -14.3945 9.04297 -14.4141 8.96484 -14.4922 Z M 3.96484 1.36719 C 3.52539 0.927734 3.54492 0.537109 4.14062 -0.00976562 L 13.7402 -8.81836 L 15 -7.55859 L 6.17188 2.02148 C 5.625 2.60742 5.24414 2.64648 4.79492 2.19727 Z"/>
  </g>
  <text style="stroke:none;fill:black;font-family:-apple-system,&quot;SF Pro Display&quot;,&quot;SF Pro Text&quot;,Helvetica,sans-serif;font-weight:bold;" transform="matrix(1 0 0 1 1289 1953)">Exporting</text>
  <text style="stroke:none;fill:black;font-family:-apple-system,&quot;SF Pro Display&quot;,&quot;SF Pro Text&quot;,Helvetica,sans-serif;" transform="matrix(1 0 0 1 1289 1971)">Symbols should be outlined when exporting to ensure the</text>
  <text style="stroke:none;fill:black;font-family:-apple-system,&quot;SF Pro Display&quot;,&quot;SF Pro Text&quot;,Helvetica,sans-serif;" transform="matrix(1 0 0 1 1289 1989)">design is preserved when submitting to Xcode.</text>
  <text id="template-version" style="stroke:none;fill:black;font-family:-apple-system,&quot;SF Pro Display&quot;,&quot;SF Pro Text&quot;,Helvetica,sans-serif;text-anchor:end;" transform="matrix(1 0 0 1 3036 1933)">Template v.0.1</text>
  <text style="stroke:none;fill:black;font-family:-apple-system,&quot;SF Pro Display&quot;,&quot;SF Pro Text&quot;,Helvetica,sans-serif;text-anchor:end;" transform="matrix(1 0 0 1 3036 1951)">Generated from plus</text>
  <text style="stroke:none;fill:black;font-family:-apple-system,&quot;SF Pro Display&quot;,&quot;SF Pro Text&quot;,Helvetica,sans-serif;text-anchor:end;" transform="matrix(1 0 0 1 3036 1969)">Typeset at 100 points</text>
  <text style="stroke:none;fill:black;font-family:-apple-system,&quot;SF Pro Display&quot;,&quot;SF Pro Text&quot;,Helvetica,sans-serif;" transform="matrix(1 0 0 1 263 726)">Small</text>
  <text style="stroke:none;fill:black;font-family:-apple-system,&quot;SF Pro Display&quot;,&quot;SF Pro Text&quot;,Helvetica,sans-serif;" transform="matrix(1 0 0 1 263 1156)">Medium</text>
  <text style="stroke:none;fill:black;font-family:-apple-system,&quot;SF Pro Display&quot;,&quot;SF Pro Text&quot;,Helvetica,sans-serif;" transform="matrix(1 0 0 1 263 1586)">Large</text>
 </g>
 <g id="Guides">
  <g id="H-reference" style="fill:#27AAE1;stroke:none;" transform="matrix(1 0 0 1 339 696)">
   <path d="M 54.9316 0 L 57.666 0 L 30.5664 -70.459 L 28.0762 -70.459 L 0.976562 0 L 3.66211 0 L 12.9395 -24.4629 L 45.7031 -24.4629 Z M 29.1992 -67.0898 L 29.4434 -67.0898 L 44.8242 -26.709 L 13.8184 -26.709 Z"/>
  </g>
  <line id="Baseline-S" style="fill:none;stroke:#27AAE1;opacity:1;stroke-width:0.577;" x1="263" x2="3036" y1="696" y2="696"/>
  <line id="Capline-S" style="fill:none;stroke:#27AAE1;opacity:1;stroke-width:0.577;" x1="263" x2="3036" y1="625.541" y2="625.541"/>
  <g id="H-reference" style="fill:#27AAE1;stroke:none;" transform="matrix(1 0 0 1 339 1126)">
   <path d="M 54.9316 0 L 57.666 0 L 30.5664 -70.459 L 28.0762 -70.459 L 0.976562 0 L 3.66211 0 L 12.9395 -24.4629 L 45.7031 -24.4629 Z M 29.1992 -67.0898 L 29.4434 -67.0898 L 44.8242 -26.709 L 13.8184 -26.709 Z"/>
  </g>
  <line id="Baseline-M" style="fill:none;stroke:#27AAE1;opacity:1;stroke-width:0.577;" x1="263" x2="3036" y1="1126" y2="1126"/>
  <line id="Capline-M" style="fill:none;stroke:#27AAE1;opacity:1;stroke-width:0.577;" x1="263" x2="3036" y1="1055.54" y2="1055.54"/>
  <g id="H-reference" style="fill:#27AAE1;stroke:none;" transform="matrix(1 0 0 1 339 1556)">
   <path d="M 54.9316 0 L 57.666 0 L 30.5664 -70.459 L 28.0762 -70.459 L 0.976562 0 L 3.66211 0 L 12.9395 -24.4629 L 45.7031 -24.4629 Z M 29.1992 -67.0898 L 29.4434 -67.0898 L 44.8242 -26.709 L 13.8184 -26.709 Z"/>
  </g>
  <line id="Baseline-L" style="fill:none;stroke:#27AAE1;opacity:1;stroke-width:0.577;" x1="263" x2="3036" y1="1556" y2="1556"/>
  <line id="Capline-L" style="fill:none;stroke:#27AAE1;opacity:1;stroke-width:0.577;" x1="263" x2="3036" y1="1485.54" y2="1485.54"/>
  <rect height="119.336" id="left-margin" style="fill:#00AEEF;stroke:none;opacity:0.4;" width="12.4512" x="1397.09" y="1030.79"/>
  <rect height="119.336" id="right-margin" style="fill:#00AEEF;stroke:none;opacity:0.4;" width="12.4512" x="1490.15" y="1030.79"/>
 </g>
 <g id="Symbols">
  <g id="Ultralight-S" transform="matrix(1 0 0 1 519.965 696)">
   <path d="M 39.7461 -4.19922 C 40.3809 -4.19922 40.8691 -4.73633 40.8691 -5.32227 L 40.8691 -34.0332 L 68.6035 -34.0332 C 69.2383 -34.0332 69.7266 -34.5215 69.7266 -35.1562 C 69.7266 -35.791 69.2383 -36.2793 68.6035 -36.2793 L 40.8691 -36.2793 L 40.8691 -64.9902 C 40.8691 -65.5762 40.3809 -66.1133 39.7461 -66.1133 C 39.1113 -66.1133 38.623 -65.5762 38.623 -64.9902 L 38.623 -36.2793 L 10.8887 -36.2793 C 10.2539 -36.2793 9.76562 -35.791 9.76562 -35.1562 C 9.76562 -34.5215 10.2539 -34.0332 10.8887 -34.0332 L 38.623 -34.0332 L 38.623 -5.32227 C 38.623 -4.73633 39.1113 -4.19922 39.7461 -4.19922 Z"/>
  </g>
  <g id="Thin-S" transform="matrix(1 0 0 1 816.237 696)">
   <path d="M 40.1855 -3.85742 C 41.1621 -3.85742 41.9434 -4.63867 41.9434 -5.61523 L 41.9434 -33.3984 L 68.8477 -33.3984 C 69.8242 -33.3984 70.6055 -34.1797 70.6055 -35.1562 C 70.6055 -36.1328 69.8242 -36.9141 68.8477 -36.9141 L 41.9434 -36.9141 L 41.9434 -64.7461 C 41.9434 -65.6738 41.1621 -66.4551 40.1855 -66.4551 C 39.209 -66.4551 38.4277 -65.6738 38.4277 -64.7461 L 38.4277 -36.9141 L 11.5234 -36.9141 C 10.5957 -36.9141 9.76562 -36.1328 9.76562 -35.1562 C 9.76562 -34.1797 10.5957 -33.3984 11.5234 -33.3984 L 38.4277 -33.3984 L 38.4277 -5.61523 C 38.4277 -4.63867 39.209 -3.85742 40.1855 -3.85742 Z"/>
  </g>
  <g id="Light-S" transform="matrix(1 0 0 1 1112.09 696)">
   <path d="M 41.0156 -3.22266 C 42.6758 -3.22266 44.043 -4.54102 44.043 -6.15234 L 44.043 -32.1777 L 69.3359 -32.1777 C 70.9473 -32.1777 72.3145 -33.5449 72.3145 -35.2051 C 72.3145 -36.8164 70.9473 -38.1836 69.3359 -38.1836 L 44.043 -38.1836 L 44.043 -64.2578 C 44.043 -65.8691 42.6758 -67.1875 41.0156 -67.1875 C 39.4043 -67.1875 38.0371 -65.8691 38.0371 -64.2578 L 38.0371 -38.1836 L 12.7441 -38.1836 C 11.1328 -38.1836 9.76562 -36.8164 9.76562 -35.2051 C 9.76562 -33.5449 11.1328 -32.1777 12.7441 -32.1777 L 38.0371 -32.1777 L 38.0371 -6.15234 C 38.0371 -4.54102 39.4043 -3.22266 41.0156 -3.22266 Z"/>
  </g>
  <g id="Regular-S" transform="matrix(1 0 0 1 1408.17 696)">
   <path d="M 41.6992 -2.73438 C 43.8477 -2.73438 45.6055 -4.44336 45.6055 -6.5918 L 45.6055 -31.25 L 69.6777 -31.25 C 71.7773 -31.25 73.584 -33.0566 73.584 -35.2051 C 73.584 -37.3535 71.7773 -39.1602 69.6777 -39.1602 L 45.6055 -39.1602 L 45.6055 -63.8672 C 45.6055 -66.0156 43.8477 -67.7246 41.6992 -67.7246 C 39.5508 -67.7246 37.7441 -66.0156 37.7441 -63.8672 L 37.7441 -39.1602 L 13.7207 -39.1602 C 11.5723 -39.1602 9.76562 -37.3535 9.76562 -35.2051 C 9.76562 -33.0566 11.5723 -31.25 13.7207 -31.25 L 37.7441 -31.25 L 37.7441 -6.5918 C 37.7441 -4.44336 39.5508 -2.73438 41.6992 -2.73438 Z"/>
  </g>
  <g id="Medium-S" transform="matrix(1 0 0 1 1704.37 696)">
   <path d="M 42.1875 -2.34375 C 44.9219 -2.34375 47.168 -4.63867 47.168 -7.22656 L 47.168 -30.2246 L 69.6289 -30.2246 C 72.2656 -30.2246 74.6094 -32.4707 74.6094 -35.2051 C 74.6094 -37.9395 72.2656 -40.1855 69.6289 -40.1855 L 47.168 -40.1855 L 47.168 -63.2324 C 47.168 -65.8691 44.9219 -68.0664 42.1875 -68.0664 C 39.4531 -68.0664 37.207 -65.8691 37.207 -63.2324 L 37.207 -40.1855 L 14.6973 -40.1855 C 12.1094 -40.1855 9.76562 -37.9395 9.76562 -35.2051 C 9.76562 -32.4707 12.1094 -30.2246 14.6973 -30.2246 L 37.207 -30.2246 L 37.207 -7.22656 C 37.207 -4.63867 39.4531 -2.34375 42.1875 -2.34375 Z"/>
  </g>
  <g id="Semibold-S" transform="matrix(1 0 0 1 2000.71 696)">
   <path d="M 42.5293 -2.05078 C 45.7031 -2.05078 48.3398 -4.78516 48.3398 -7.71484 L 48.3398 -29.3945 L 69.6289 -29.3945 C 72.6562 -29.3945 75.3418 -32.0312 75.3418 -35.2051 C 75.3418 -38.3789 72.6562 -41.0156 69.6289 -41.0156 L 48.3398 -41.0156 L 48.3398 -62.6953 C 48.3398 -65.7227 45.7031 -68.3594 42.5293 -68.3594 C 39.4043 -68.3594 36.7676 -65.7227 36.7676 -62.6953 L 36.7676 -41.0156 L 15.4785 -41.0156 C 12.5488 -41.0156 9.76562 -38.3789 9.76562 -35.2051 C 9.76562 -32.0312 12.5488 -29.3945 15.4785 -29.3945 L 36.7676 -29.3945 L 36.7676 -7.71484 C 36.7676 -4.78516 39.4043 -2.05078 42.5293 -2.05078 Z"/>
  </g>
  <g id="Bold-S" transform="matrix(1 0 0 1 2296.94 696)">
   <path d="M 43.0664 -1.66016 C 46.7773 -1.66016 49.9023 -4.93164 49.9023 -8.39844 L 49.9023 -28.3691 L 69.5801 -28.3691 C 73.1934 -28.3691 76.3184 -31.4941 76.3184 -35.2051 C 76.3184 -38.916 73.1934 -42.041 69.5801 -42.041 L 49.9023 -42.041 L 49.9023 -62.0117 C 49.9023 -65.5762 46.7773 -68.7012 43.0664 -68.7012 C 39.3066 -68.7012 36.1816 -65.5762 36.1816 -62.0117 L 36.1816 -42.041 L 16.5039 -42.041 C 13.0859 -42.041 9.76562 -38.916 9.76562 -35.2051 C 9.76562 -31.4941 13.0859 -28.3691 16.5039 -28.3691 L 36.1816 -28.3691 L 36.1816 -8.39844 C 36.1816 -4.93164 39.3066 -1.66016 43.0664 -1.66016 Z"/>
  </g>
  <g id="Heavy-S" transform="matrix(1 0 0 1 2592.91 696)">
   <path d="M 43.75 -1.12305 C 48.3398 -1.12305 52.1484 -5.22461 52.1484 -9.32617 L 52.1484 -26.8066 L 69.5801 -26.8066 C 73.9258 -26.8066 77.7832 -30.6641 77.7832 -35.2051 C 77.7832 -39.7461 73.9258 -43.6035 69.5801 -43.6035 L 52.1484 -43.6035 L 52.1484 -61.0352 C 52.1484 -65.3809 48.3398 -69.2383 43.75 -69.2383 C 39.209 -69.2383 35.3516 -65.3809 35.3516 -61.0352 L 35.3516 -43.6035 L 17.9688 -43.6035 C 13.8672 -43.6035 9.76562 -39.7461 9.76562 -35.2051 C 9.76562 -30.6641 13.8672 -26.8066 17.9688 -26.8066 L 35.3516 -26.8066 L 35.3516 -9.32617 C 35.3516 -5.22461 39.209 -1.12305 43.75 -1.12305 Z"/>
  </g>
  <g id="Black-S" transform="matrix(1 0 0 1 2888.99 696)">
   <path d="M 44.4336 -0.634766 C 49.707 -0.634766 54.1992 -5.41992 54.1992 -10.2051 L 54.1992 -25.4395 L 69.5312 -25.4395 C 74.6094 -25.4395 79.0527 -29.8828 79.0527 -35.2051 C 79.0527 -40.5273 74.6094 -44.9707 69.5312 -44.9707 L 54.1992 -44.9707 L 54.1992 -60.1562 C 54.1992 -65.1855 49.707 -69.6777 44.4336 -69.6777 C 39.1113 -69.6777 34.6191 -65.1855 34.6191 -60.1562 L 34.6191 -44.9707 L 19.2871 -44.9707 C 14.5508 -44.9707 9.76562 -40.5273 9.76562 -35.2051 C 9.76562 -29.8828 14.5508 -25.4395 19.2871 -25.4395 L 34.6191 -25.4395 L 34.6191 -10.2051 C 34.6191 -5.41992 39.1113 -0.634766 44.4336 -0.634766 Z"/>
  </g>
  <g id="Ultralight-M" transform="matrix(1 0 0 1 509.15 1126)">
   <path d="M 50.5859 4.19922 C 51.2207 4.19922 51.7578 3.66211 51.7578 3.02734 L 51.7578 -33.9355 L 87.5 -33.9355 C 88.1348 -33.9355 88.6719 -34.4727 88.6719 -35.1562 C 88.6719 -35.791 88.1348 -36.3281 87.5 -36.3281 L 51.7578 -36.3281 L 51.7578 -73.291 C 51.7578 -73.9746 51.2207 -74.5117 50.5859 -74.5117 C 49.9023 -74.5117 49.3652 -73.9746 49.3652 -73.291 L 49.3652 -36.3281 L 13.6719 -36.3281 C 12.9883 -36.3281 12.4512 -35.791 12.4512 -35.1562 C 12.4512 -34.4727 12.9883 -33.9355 13.6719 -33.9355 L 49.3652 -33.9355 L 49.3652 3.02734 C 49.3652 3.66211 49.9023 4.19922 50.5859 4.19922 Z"/>
  </g>
  <g id="Thin-M" transform="matrix(1 0 0 1 805.372 1126)">
   <path d="M 51.0742 4.58984 C 52.0996 4.58984 52.9785 3.75977 52.9785 2.73438 L 52.9785 -33.252 L 87.7441 -33.252 C 88.7695 -33.252 89.6484 -34.082 89.6484 -35.1562 C 89.6484 -36.1816 88.7695 -37.0605 87.7441 -37.0605 L 52.9785 -37.0605 L 52.9785 -72.998 C 52.9785 -74.0723 52.0996 -74.9023 51.0742 -74.9023 C 50 -74.9023 49.1699 -74.0723 49.1699 -72.998 L 49.1699 -37.0605 L 14.3555 -37.0605 C 13.3301 -37.0605 12.4512 -36.1816 12.4512 -35.1562 C 12.4512 -34.082 13.3301 -33.252 14.3555 -33.252 L 49.1699 -33.252 L 49.1699 2.73438 C 49.1699 3.75977 50 4.58984 51.0742 4.58984 Z"/>
  </g>
  <g id="Light-M" transform="matrix(1 0 0 1 1101.11 1126)">
   <path d="M 52.002 5.37109 C 53.8574 5.37109 55.3223 3.90625 55.3223 2.09961 L 55.3223 -31.8359 L 88.2812 -31.8359 C 90.0391 -31.8359 91.6016 -33.3496 91.6016 -35.1562 C 91.6016 -36.9629 90.0391 -38.4766 88.2812 -38.4766 L 55.3223 -38.4766 L 55.3223 -72.4609 C 55.3223 -74.2676 53.8574 -75.7324 52.002 -75.7324 C 50.1953 -75.7324 48.7305 -74.2676 48.7305 -72.4609 L 48.7305 -38.4766 L 15.7715 -38.4766 C 14.0137 -38.4766 12.4512 -36.9629 12.4512 -35.1562 C 12.4512 -33.3496 14.0137 -31.8359 15.7715 -31.8359 L 48.7305 -31.8359 L 48.7305 2.09961 C 48.7305 3.90625 50.1953 5.37109 52.002 5.37109 Z"/>
  </g>
  <g id="Regular-M" transform="matrix(1 0 0 1 1397.09 1126)">
   <path d="M 52.7344 5.9082 C 55.127 5.9082 57.1289 4.00391 57.1289 1.66016 L 57.1289 -30.8105 L 88.6719 -30.8105 C 91.0156 -30.8105 93.0664 -32.8125 93.0664 -35.2051 C 93.0664 -37.5977 91.0156 -39.5508 88.6719 -39.5508 L 57.1289 -39.5508 L 57.1289 -72.0703 C 57.1289 -74.4141 55.127 -76.3184 52.7344 -76.3184 C 50.3418 -76.3184 48.3887 -74.4141 48.3887 -72.0703 L 48.3887 -39.5508 L 16.8457 -39.5508 C 14.502 -39.5508 12.4512 -37.5977 12.4512 -35.2051 C 12.4512 -32.8125 14.502 -30.8105 16.8457 -30.8105 L 48.3887 -30.8105 L 48.3887 1.66016 C 48.3887 4.00391 50.3418 5.9082 52.7344 5.9082 Z"/>
  </g>
  <g id="Medium-M" transform="matrix(1 0 0 1 1693.21 1126)">
   <path d="M 53.3203 6.34766 C 56.3965 6.34766 58.9355 3.80859 58.9355 0.927734 L 58.9355 -29.6387 L 88.7207 -29.6387 C 91.6504 -29.6387 94.2383 -32.1289 94.2383 -35.2051 C 94.2383 -38.2324 91.6504 -40.7715 88.7207 -40.7715 L 58.9355 -40.7715 L 58.9355 -71.3379 C 58.9355 -74.2676 56.3965 -76.7578 53.3203 -76.7578 C 50.293 -76.7578 47.7539 -74.2676 47.7539 -71.3379 L 47.7539 -40.7715 L 17.9688 -40.7715 C 15.0879 -40.7715 12.4512 -38.2324 12.4512 -35.2051 C 12.4512 -32.1289 15.0879 -29.6387 17.9688 -29.6387 L 47.7539 -29.6387 L 47.7539 0.927734 C 47.7539 3.80859 50.293 6.34766 53.3203 6.34766 Z"/>
  </g>
  <g id="Semibold-M" transform="matrix(1 0 0 1 1989.46 1126)">
   <path d="M 53.8086 6.68945 C 57.3242 6.68945 60.3027 3.66211 60.3027 0.341797 L 60.3027 -28.7109 L 88.7207 -28.7109 C 92.1387 -28.7109 95.1172 -31.6406 95.1172 -35.2051 C 95.1172 -38.7207 92.1387 -41.6992 88.7207 -41.6992 L 60.3027 -41.6992 L 60.3027 -70.752 C 60.3027 -74.1699 57.3242 -77.0996 53.8086 -77.0996 C 50.2441 -77.0996 47.3145 -74.1699 47.3145 -70.752 L 47.3145 -41.6992 L 18.8965 -41.6992 C 15.5762 -41.6992 12.4512 -38.7207 12.4512 -35.2051 C 12.4512 -31.6406 15.5762 -28.7109 18.8965 -28.7109 L 47.3145 -28.7109 L 47.3145 0.341797 C 47.3145 3.66211 50.2441 6.68945 53.8086 6.68945 Z"/>
  </g>
  <g id="Bold-M" transform="matrix(1 0 0 1 2285.58 1126)">
   <path d="M 54.3945 7.17773 C 58.5938 7.17773 62.1094 3.51562 62.1094 -0.390625 L 62.1094 -27.4902 L 88.7207 -27.4902 C 92.7734 -27.4902 96.3379 -31.0059 96.3379 -35.2051 C 96.3379 -39.4043 92.7734 -42.9199 88.7207 -42.9199 L 62.1094 -42.9199 L 62.1094 -70.0195 C 62.1094 -74.0723 58.5938 -77.5391 54.3945 -77.5391 C 50.1953 -77.5391 46.6797 -74.0723 46.6797 -70.0195 L 46.6797 -42.9199 L 20.0684 -42.9199 C 16.1621 -42.9199 12.4512 -39.4043 12.4512 -35.2051 C 12.4512 -31.0059 16.1621 -27.4902 20.0684 -27.4902 L 46.6797 -27.4902 L 46.6797 -0.390625 C 46.6797 3.51562 50.1953 7.17773 54.3945 7.17773 Z"/>
  </g>
  <g id="Heavy-M" transform="matrix(1 0 0 1 2581.44 1126)">
   <path d="M 55.2734 7.8125 C 60.4004 7.8125 64.7461 3.27148 64.7461 -1.41602 L 64.7461 -25.7324 L 88.7695 -25.7324 C 93.7012 -25.7324 98.0469 -30.0293 98.0469 -35.2051 C 98.0469 -40.332 93.7012 -44.6777 88.7695 -44.6777 L 64.7461 -44.6777 L 64.7461 -68.9453 C 64.7461 -73.877 60.4004 -78.1738 55.2734 -78.1738 C 50.0977 -78.1738 45.8008 -73.877 45.8008 -68.9453 L 45.8008 -44.6777 L 21.7285 -44.6777 C 17.041 -44.6777 12.4512 -40.332 12.4512 -35.2051 C 12.4512 -30.0293 17.041 -25.7324 21.7285 -25.7324 L 45.8008 -25.7324 L 45.8008 -1.41602 C 45.8008 3.27148 50.0977 7.8125 55.2734 7.8125 Z"/>
  </g>
  <g id="Black-M" transform="matrix(1 0 0 1 2877.37 1126)">
   <path d="M 56.0547 8.39844 C 62.0117 8.39844 67.0898 3.02734 67.0898 -2.39258 L 67.0898 -24.1699 L 88.8184 -24.1699 C 94.5312 -24.1699 99.6094 -29.1992 99.6094 -35.2051 C 99.6094 -41.2109 94.5312 -46.2402 88.8184 -46.2402 L 67.0898 -46.2402 L 67.0898 -67.9688 C 67.0898 -73.6816 62.0117 -78.7598 56.0547 -78.7598 C 50.0488 -78.7598 44.9707 -73.6816 44.9707 -67.9688 L 44.9707 -46.2402 L 23.2422 -46.2402 C 17.8223 -46.2402 12.4512 -41.2109 12.4512 -35.2051 C 12.4512 -29.1992 17.8223 -24.1699 23.2422 -24.1699 L 44.9707 -24.1699 L 44.9707 -2.39258 C 44.9707 3.02734 50.0488 8.39844 56.0547 8.39844 Z"/>
  </g>
  <g id="Ultralight-L" transform="matrix(1 0 0 1 494.672 1556)">
   <path d="M 65.0391 15.5273 C 65.7227 15.5273 66.2598 14.9414 66.2598 14.2578 L 66.2598 -33.8867 L 112.744 -33.8867 C 113.428 -33.8867 113.965 -34.4238 113.965 -35.1074 C 113.965 -35.791 113.428 -36.3281 112.744 -36.3281 L 66.2598 -36.3281 L 66.2598 -84.4727 C 66.2598 -85.1562 65.7227 -85.6934 65.0391 -85.6934 C 64.3555 -85.6934 63.8184 -85.1562 63.8184 -84.4727 L 63.8184 -36.3281 L 17.2852 -36.3281 C 16.6504 -36.3281 16.0645 -35.791 16.0645 -35.1074 C 16.0645 -34.4238 16.6504 -33.8867 17.2852 -33.8867 L 63.8184 -33.8867 L 63.8184 14.2578 C 63.8184 14.9414 64.3555 15.5273 65.0391 15.5273 Z"/>
  </g>
  <g id="Thin-L" transform="matrix(1 0 0 1 790.846 1556)">
   <path d="M 65.5762 15.918 C 66.6992 15.918 67.627 15.0391 67.627 13.916 L 67.627 -33.1055 L 113.086 -33.1055 C 114.16 -33.1055 115.088 -33.9844 115.088 -35.1074 C 115.088 -36.2305 114.16 -37.1582 113.086 -37.1582 L 67.627 -37.1582 L 67.627 -84.1797 C 67.627 -85.2539 66.6992 -86.1816 65.5762 -86.1816 C 64.4531 -86.1816 63.5742 -85.2539 63.5742 -84.1797 L 63.5742 -37.1582 L 18.1152 -37.1582 C 16.9922 -37.1582 16.0645 -36.2305 16.0645 -35.1074 C 16.0645 -33.9844 16.9922 -33.1055 18.1152 -33.1055 L 63.5742 -33.1055 L 63.5742 13.916 C 63.5742 15.0391 64.4531 15.918 65.5762 15.918 Z"/>
  </g>
  <g id="Light-L" transform="matrix(1 0 0 1 1086.48 1556)">
   <path d="M 66.6504 16.748 C 68.6523 16.748 70.2637 15.1855 70.2637 13.2324 L 70.2637 -31.543 L 113.672 -31.543 C 115.576 -31.543 117.236 -33.1543 117.236 -35.1562 C 117.236 -37.1094 115.576 -38.7207 113.672 -38.7207 L 70.2637 -38.7207 L 70.2637 -83.5449 C 70.2637 -85.498 68.6523 -87.0605 66.6504 -87.0605 C 64.6973 -87.0605 63.0859 -85.498 63.0859 -83.5449 L 63.0859 -38.7207 L 19.6777 -38.7207 C 17.7246 -38.7207 16.0645 -37.1094 16.0645 -35.1562 C 16.0645 -33.1543 17.7246 -31.543 19.6777 -31.543 L 63.0859 -31.543 L 63.0859 13.2324 C 63.0859 15.1855 64.6973 16.748 66.6504 16.748 Z"/>
  </g>
  <g id="Regular-L" transform="matrix(1 0 0 1 1382.36 1556)">
   <path d="M 67.4805 17.3828 C 70.0684 17.3828 72.2656 15.2832 72.2656 12.7441 L 72.2656 -30.3711 L 114.111 -30.3711 C 116.65 -30.3711 118.848 -32.5684 118.848 -35.1562 C 118.848 -37.793 116.65 -39.9414 114.111 -39.9414 L 72.2656 -39.9414 L 72.2656 -83.1055 C 72.2656 -85.6445 70.0684 -87.7441 67.4805 -87.7441 C 64.8438 -87.7441 62.6953 -85.6445 62.6953 -83.1055 L 62.6953 -39.9414 L 20.8496 -39.9414 C 18.3105 -39.9414 16.0645 -37.793 16.0645 -35.1562 C 16.0645 -32.5684 18.3105 -30.3711 20.8496 -30.3711 L 62.6953 -30.3711 L 62.6953 12.7441 C 62.6953 15.2832 64.8438 17.3828 67.4805 17.3828 Z"/>
  </g>
  <g id="Medium-L" transform="matrix(1 0 0 1 1678.39 1556)">
   <path d="M 68.1641 17.9199 C 71.4844 17.9199 74.2676 15.1367 74.2676 11.9629 L 74.2676 -29.1016 L 114.209 -29.1016 C 117.432 -29.1016 120.264 -31.8359 120.264 -35.1562 C 120.264 -38.4766 117.432 -41.2598 114.209 -41.2598 L 74.2676 -41.2598 L 74.2676 -82.3242 C 74.2676 -85.5469 71.4844 -88.2812 68.1641 -88.2812 C 64.8438 -88.2812 62.0605 -85.5469 62.0605 -82.3242 L 62.0605 -41.2598 L 22.1191 -41.2598 C 18.9453 -41.2598 16.0645 -38.4766 16.0645 -35.1562 C 16.0645 -31.8359 18.9453 -29.1016 22.1191 -29.1016 L 62.0605 -29.1016 L 62.0605 11.9629 C 62.0605 15.1367 64.8438 17.9199 68.1641 17.9199 Z"/>
  </g>
  <g id="Semibold-L" transform="matrix(1 0 0 1 1974.59 1556)">
   <path d="M 68.7012 18.3105 C 72.5586 18.3105 75.7812 15.0391 75.7812 11.377 L 75.7812 -28.0762 L 114.258 -28.0762 C 118.018 -28.0762 121.289 -31.2988 121.289 -35.1562 C 121.289 -39.0137 118.018 -42.2363 114.258 -42.2363 L 75.7812 -42.2363 L 75.7812 -81.7383 C 75.7812 -85.498 72.5586 -88.6719 68.7012 -88.6719 C 64.8438 -88.6719 61.6211 -85.498 61.6211 -81.7383 L 61.6211 -42.2363 L 23.0957 -42.2363 C 19.4336 -42.2363 16.0645 -39.0137 16.0645 -35.1562 C 16.0645 -31.2988 19.4336 -28.0762 23.0957 -28.0762 L 61.6211 -28.0762 L 61.6211 11.377 C 61.6211 15.0391 64.8438 18.3105 68.7012 18.3105 Z"/>
  </g>
  <g id="Bold-L" transform="matrix(1 0 0 1 2270.59 1556)">
   <path d="M 69.3848 18.8477 C 73.9746 18.8477 77.7832 14.8926 77.7832 10.6445 L 77.7832 -26.7578 L 114.355 -26.7578 C 118.799 -26.7578 122.705 -30.5664 122.705 -35.1562 C 122.705 -39.7461 118.799 -43.6035 114.355 -43.6035 L 77.7832 -43.6035 L 77.7832 -80.957 C 77.7832 -85.4004 73.9746 -89.209 69.3848 -89.209 C 64.7949 -89.209 60.9863 -85.4004 60.9863 -80.957 L 60.9863 -43.6035 L 24.3652 -43.6035 C 20.1172 -43.6035 16.0645 -39.7461 16.0645 -35.1562 C 16.0645 -30.5664 20.1172 -26.7578 24.3652 -26.7578 L 60.9863 -26.7578 L 60.9863 10.6445 C 60.9863 14.8926 64.7949 18.8477 69.3848 18.8477 Z"/>
  </g>
  <g id="Heavy-L" transform="matrix(1 0 0 1 2566.3 1556)">
   <path d="M 70.4102 19.6289 C 76.0254 19.6289 80.7617 14.6973 80.7617 9.52148 L 80.7617 -24.8535 L 114.551 -24.8535 C 119.971 -24.8535 124.707 -29.541 124.707 -35.2051 C 124.707 -40.8203 119.971 -45.5078 114.551 -45.5078 L 80.7617 -45.5078 L 80.7617 -79.8828 C 80.7617 -85.3027 76.0254 -89.9902 70.4102 -89.9902 C 64.7461 -89.9902 60.0586 -85.3027 60.0586 -79.8828 L 60.0586 -45.5078 L 26.2695 -45.5078 C 21.0449 -45.5078 16.0645 -40.8203 16.0645 -35.2051 C 16.0645 -29.541 21.0449 -24.8535 26.2695 -24.8535 L 60.0586 -24.8535 L 60.0586 9.52148 C 60.0586 14.6973 64.7461 19.6289 70.4102 19.6289 Z"/>
  </g>
  <g id="Black-L" transform="matrix(1 0 0 1 2862.11 1556)">
   <path d="M 71.2891 20.3125 C 77.832 20.3125 83.3496 14.5508 83.3496 8.54492 L 83.3496 -23.0957 L 114.648 -23.0957 C 120.947 -23.0957 126.514 -28.6133 126.514 -35.2051 C 126.514 -41.748 120.947 -47.2656 114.648 -47.2656 L 83.3496 -47.2656 L 83.3496 -78.8574 C 83.3496 -85.1562 77.832 -90.6738 71.2891 -90.6738 C 64.7461 -90.6738 59.2285 -85.1562 59.2285 -78.8574 L 59.2285 -47.2656 L 27.9297 -47.2656 C 21.9238 -47.2656 16.0645 -41.748 16.0645 -35.2051 C 16.0645 -28.6133 21.9238 -23.0957 27.9297 -23.0957 L 59.2285 -23.0957 L 59.2285 8.54492 C 59.2285 14.5508 64.7461 20.3125 71.2891 20.3125 Z"/>
  </g>
 </g>
</svg>
