<?xml version="1.0" encoding="UTF-8"?>
<!--Generator: Apple Native CoreSVG 123-->
<!DOCTYPE svg
PUBLIC "-//W3C//DTD SVG 1.1//EN"
       "http://www.w3.org/Graphics/SVG/1.1/DTD/svg11.dtd">
<svg version="1.1" xmlns="http://www.w3.org/2000/svg" xmlns:xlink="http://www.w3.org/1999/xlink" width="3300" height="2200">
 <!--glyph: "uni1004E8.medium", point size: 100.000000, font version: "Version 15.0d4e20", template writer version: "2"-->
 <g id="Notes">
  <rect height="2200" id="artboard" style="fill:white;opacity:1" width="3300" x="0" y="0"/>
  <line id="" style="fill:none;stroke:black;opacity:1;stroke-width:0.5;" x1="263" x2="3036" y1="292" y2="292"/>
  <text style="stroke:none;fill:black;font-family:-apple-system,&quot;SF Pro Display&quot;,&quot;SF Pro Text&quot;,Helvetica,sans-serif;font-weight:bold;" transform="matrix(1 0 0 1 263 322)">Weight/Scale Variations</text>
  <text style="stroke:none;fill:black;font-family:-apple-system,&quot;SF Pro Display&quot;,&quot;SF Pro Text&quot;,Helvetica,sans-serif;text-anchor:middle;" transform="matrix(1 0 0 1 559.711 322)">Ultralight</text>
  <text style="stroke:none;fill:black;font-family:-apple-system,&quot;SF Pro Display&quot;,&quot;SF Pro Text&quot;,Helvetica,sans-serif;text-anchor:middle;" transform="matrix(1 0 0 1 856.422 322)">Thin</text>
  <text style="stroke:none;fill:black;font-family:-apple-system,&quot;SF Pro Display&quot;,&quot;SF Pro Text&quot;,Helvetica,sans-serif;text-anchor:middle;" transform="matrix(1 0 0 1 1153.13 322)">Light</text>
  <text style="stroke:none;fill:black;font-family:-apple-system,&quot;SF Pro Display&quot;,&quot;SF Pro Text&quot;,Helvetica,sans-serif;text-anchor:middle;" transform="matrix(1 0 0 1 1449.84 322)">Regular</text>
  <text style="stroke:none;fill:black;font-family:-apple-system,&quot;SF Pro Display&quot;,&quot;SF Pro Text&quot;,Helvetica,sans-serif;text-anchor:middle;" transform="matrix(1 0 0 1 1746.56 322)">Medium</text>
  <text style="stroke:none;fill:black;font-family:-apple-system,&quot;SF Pro Display&quot;,&quot;SF Pro Text&quot;,Helvetica,sans-serif;text-anchor:middle;" transform="matrix(1 0 0 1 2043.27 322)">Semibold</text>
  <text style="stroke:none;fill:black;font-family:-apple-system,&quot;SF Pro Display&quot;,&quot;SF Pro Text&quot;,Helvetica,sans-serif;text-anchor:middle;" transform="matrix(1 0 0 1 2339.98 322)">Bold</text>
  <text style="stroke:none;fill:black;font-family:-apple-system,&quot;SF Pro Display&quot;,&quot;SF Pro Text&quot;,Helvetica,sans-serif;text-anchor:middle;" transform="matrix(1 0 0 1 2636.69 322)">Heavy</text>
  <text style="stroke:none;fill:black;font-family:-apple-system,&quot;SF Pro Display&quot;,&quot;SF Pro Text&quot;,Helvetica,sans-serif;text-anchor:middle;" transform="matrix(1 0 0 1 2933.4 322)">Black</text>
  <line id="" style="fill:none;stroke:black;opacity:1;stroke-width:0.5;" x1="263" x2="3036" y1="1903" y2="1903"/>
  <g id="" transform="matrix(1 0 0 1 263 1933)">
   <path d="M 9.24805 0.830078 C 13.5547 0.830078 17.1387 -2.74414 17.1387 -7.05078 C 17.1387 -11.3574 13.5449 -14.9316 9.23828 -14.9316 C 4.94141 -14.9316 1.36719 -11.3574 1.36719 -7.05078 C 1.36719 -2.74414 4.95117 0.830078 9.24805 0.830078 Z M 9.24805 -0.654297 C 5.70312 -0.654297 2.87109 -3.49609 2.87109 -7.05078 C 2.87109 -10.6055 5.69336 -13.4473 9.23828 -13.4473 C 12.793 -13.4473 15.6348 -10.6055 15.6445 -7.05078 C 15.6543 -3.49609 12.8027 -0.654297 9.24805 -0.654297 Z M 9.22852 -3.42773 C 9.69727 -3.42773 9.9707 -3.74023 9.9707 -4.25781 L 9.9707 -6.31836 L 12.1973 -6.31836 C 12.6953 -6.31836 13.0371 -6.57227 13.0371 -7.04102 C 13.0371 -7.51953 12.7148 -7.7832 12.1973 -7.7832 L 9.9707 -7.7832 L 9.9707 -10.0098 C 9.9707 -10.5273 9.69727 -10.8496 9.22852 -10.8496 C 8.75977 -10.8496 8.50586 -10.5078 8.50586 -10.0098 L 8.50586 -7.7832 L 6.29883 -7.7832 C 5.78125 -7.7832 5.44922 -7.51953 5.44922 -7.04102 C 5.44922 -6.57227 5.80078 -6.31836 6.29883 -6.31836 L 8.50586 -6.31836 L 8.50586 -4.25781 C 8.50586 -3.75977 8.75977 -3.42773 9.22852 -3.42773 Z"/>
  </g>
  <g id="" transform="matrix(1 0 0 1 281.506 1933)">
   <path d="M 11.709 2.91016 C 17.1484 2.91016 21.6699 -1.60156 21.6699 -7.05078 C 21.6699 -12.4902 17.1387 -17.0117 11.6992 -17.0117 C 6.25 -17.0117 1.74805 -12.4902 1.74805 -7.05078 C 1.74805 -1.60156 6.25977 2.91016 11.709 2.91016 Z M 11.709 1.25 C 7.09961 1.25 3.41797 -2.44141 3.41797 -7.05078 C 3.41797 -11.6504 7.08984 -15.3516 11.6992 -15.3516 C 16.2988 -15.3516 20 -11.6504 20.0098 -7.05078 C 20.0195 -2.44141 16.3086 1.25 11.709 1.25 Z M 11.6797 -2.41211 C 12.207 -2.41211 12.5195 -2.77344 12.5195 -3.33984 L 12.5195 -6.23047 L 15.5762 -6.23047 C 16.123 -6.23047 16.5039 -6.51367 16.5039 -7.03125 C 16.5039 -7.55859 16.1426 -7.86133 15.5762 -7.86133 L 12.5195 -7.86133 L 12.5195 -10.9277 C 12.5195 -11.5039 12.207 -11.8555 11.6797 -11.8555 C 11.1621 -11.8555 10.8789 -11.4844 10.8789 -10.9277 L 10.8789 -7.86133 L 7.83203 -7.86133 C 7.25586 -7.86133 6.89453 -7.55859 6.89453 -7.03125 C 6.89453 -6.51367 7.28516 -6.23047 7.83203 -6.23047 L 10.8789 -6.23047 L 10.8789 -3.33984 C 10.8789 -2.79297 11.1621 -2.41211 11.6797 -2.41211 Z"/>
  </g>
  <g id="" transform="matrix(1 0 0 1 304.914 1933)">
   <path d="M 14.9707 5.67383 C 21.9336 5.67383 27.6855 -0.078125 27.6855 -7.04102 C 27.6855 -14.0039 21.9238 -19.7559 14.9609 -19.7559 C 7.99805 -19.7559 2.25586 -14.0039 2.25586 -7.04102 C 2.25586 -0.078125 8.00781 5.67383 14.9707 5.67383 Z M 14.9707 3.85742 C 8.92578 3.85742 4.08203 -1.00586 4.08203 -7.04102 C 4.08203 -13.0762 8.91602 -17.9395 14.9609 -17.9395 C 20.9961 -17.9395 25.8594 -13.0762 25.8691 -7.04102 C 25.8789 -1.00586 21.0059 3.85742 14.9707 3.85742 Z M 14.9414 -1.06445 C 15.5176 -1.06445 15.8594 -1.45508 15.8594 -2.06055 L 15.8594 -6.13281 L 20.0977 -6.13281 C 20.6934 -6.13281 21.1133 -6.46484 21.1133 -7.02148 C 21.1133 -7.59766 20.7227 -7.93945 20.0977 -7.93945 L 15.8594 -7.93945 L 15.8594 -12.1875 C 15.8594 -12.8027 15.5176 -13.1934 14.9414 -13.1934 C 14.3848 -13.1934 14.0625 -12.7832 14.0625 -12.1875 L 14.0625 -7.93945 L 9.82422 -7.93945 C 9.20898 -7.93945 8.80859 -7.59766 8.80859 -7.02148 C 8.80859 -6.46484 9.23828 -6.13281 9.82422 -6.13281 L 14.0625 -6.13281 L 14.0625 -2.06055 C 14.0625 -1.47461 14.3848 -1.06445 14.9414 -1.06445 Z"/>
  </g>
  <text style="stroke:none;fill:black;font-family:-apple-system,&quot;SF Pro Display&quot;,&quot;SF Pro Text&quot;,Helvetica,sans-serif;font-weight:bold;" transform="matrix(1 0 0 1 263 1953)">Design Variations</text>
  <text style="stroke:none;fill:black;font-family:-apple-system,&quot;SF Pro Display&quot;,&quot;SF Pro Text&quot;,Helvetica,sans-serif;" transform="matrix(1 0 0 1 263 1971)">Symbols are supported in up to nine weights and three scales.</text>
  <text style="stroke:none;fill:black;font-family:-apple-system,&quot;SF Pro Display&quot;,&quot;SF Pro Text&quot;,Helvetica,sans-serif;" transform="matrix(1 0 0 1 263 1989)">For optimal layout with text and other symbols, vertically align</text>
  <text style="stroke:none;fill:black;font-family:-apple-system,&quot;SF Pro Display&quot;,&quot;SF Pro Text&quot;,Helvetica,sans-serif;" transform="matrix(1 0 0 1 263 2007)">symbols with the adjacent text.</text>
  <rect height="14" id="" style="fill:#00AEEF;stroke:none;opacity:0.4;" width="3" x="776" y="1919"/>
  <g id="" transform="matrix(1 0 0 1 779 1933)">
   <path d="M 10.5273 0 L 12.373 0 L 7.17773 -14.0918 L 5.43945 -14.0918 L 0.244141 0 L 2.08984 0 L 3.50586 -4.0332 L 9.11133 -4.0332 Z M 6.2793 -11.9531 L 6.33789 -11.9531 L 8.59375 -5.52734 L 4.02344 -5.52734 Z"/>
  </g>
  <rect height="14" id="" style="fill:#00AEEF;stroke:none;opacity:0.4;" width="3" x="791.617" y="1919"/>
  <text style="stroke:none;fill:black;font-family:-apple-system,&quot;SF Pro Display&quot;,&quot;SF Pro Text&quot;,Helvetica,sans-serif;font-weight:bold;" transform="matrix(1 0 0 1 776 1953)">Side Bearings</text>
  <text style="stroke:none;fill:black;font-family:-apple-system,&quot;SF Pro Display&quot;,&quot;SF Pro Text&quot;,Helvetica,sans-serif;" transform="matrix(1 0 0 1 776 1971)">Horizontal padding on the left and right side of each symbol</text>
  <text style="stroke:none;fill:black;font-family:-apple-system,&quot;SF Pro Display&quot;,&quot;SF Pro Text&quot;,Helvetica,sans-serif;" transform="matrix(1 0 0 1 776 1989)">can be adjusted by modifying the width of the blue rectangles.</text>
  <text style="stroke:none;fill:black;font-family:-apple-system,&quot;SF Pro Display&quot;,&quot;SF Pro Text&quot;,Helvetica,sans-serif;" transform="matrix(1 0 0 1 776 2007)">Modifications are automatically applied proportionally to all</text>
  <text style="stroke:none;fill:black;font-family:-apple-system,&quot;SF Pro Display&quot;,&quot;SF Pro Text&quot;,Helvetica,sans-serif;" transform="matrix(1 0 0 1 776 2025)">scales and weights.</text>
  <g id="" transform="matrix(1 0 0 1 1289 1933)">
   <path d="M 2.96875 2.35352 L 3.80859 3.19336 C 4.84375 4.22852 6.12305 4.15039 7.19727 2.97852 L 16.1621 -6.82617 C 16.5527 -6.74805 16.9629 -6.8457 17.4902 -7.02148 C 18.1738 -7.25586 18.2715 -7.25586 18.3887 -7.13867 C 18.5352 -7.01172 18.4863 -6.89453 18.2422 -6.25 C 17.8809 -5.33203 17.8125 -4.79492 18.5547 -4.02344 L 19.4238 -3.13477 C 20.2734 -2.24609 21.3281 -2.26562 22.2168 -3.14453 L 25.0586 -5.97656 C 25.9473 -6.86523 25.957 -7.92969 25.0781 -8.7793 L 24.1797 -9.64844 C 23.4082 -10.4004 22.8711 -10.3516 21.9629 -9.98047 C 21.3184 -9.72656 21.2012 -9.6875 21.0645 -9.81445 C 20.9375 -9.93164 20.9473 -10.0391 21.1816 -10.7129 C 21.5332 -11.6895 21.5723 -12.2852 20.752 -13.0957 L 19.3359 -14.5117 C 15.1953 -18.6133 11.2305 -18.7402 7.65625 -15.4395 C 7.08008 -14.9023 6.99219 -14.1504 7.53906 -13.6133 L 7.79297 -13.3594 C 8.22266 -12.9297 8.86719 -12.8418 9.41406 -13.1152 C 11.0645 -13.9453 12.2559 -14.0234 13.457 -12.9785 L 13.0273 -11.416 C 12.8516 -10.8008 12.793 -10.3418 12.9199 -9.93164 L 3.18359 -1.04492 C 2.02148 0.0292969 1.93359 1.32812 2.96875 2.35352 Z M 8.96484 -14.4922 C 8.89648 -14.5703 8.86719 -14.6582 8.99414 -14.7559 C 11.709 -17.2852 15.0391 -16.8457 18.3496 -13.5254 L 19.6973 -12.168 C 20.0879 -11.7773 20.0977 -11.582 19.8828 -10.8691 C 19.6582 -10.127 19.502 -9.53125 20.1465 -8.88672 C 20.8105 -8.22266 21.2891 -8.41797 22.207 -8.63281 C 22.9004 -8.79883 23.0664 -8.79883 23.4473 -8.41797 L 24.0918 -7.77344 C 24.4043 -7.48047 24.4141 -7.32422 24.0723 -6.97266 L 21.2207 -4.13086 C 20.8887 -3.79883 20.7227 -3.79883 20.4297 -4.10156 L 19.7852 -4.75586 C 19.4141 -5.13672 19.4141 -5.30273 19.5801 -6.01562 C 19.7852 -6.88477 19.9805 -7.38281 19.3262 -8.04688 C 18.6719 -8.7207 18.0762 -8.57422 17.3438 -8.33008 C 16.5625 -8.06641 16.3281 -8.06641 15.8984 -8.49609 L 14.6094 -9.78516 C 14.1699 -10.2246 14.1309 -10.4395 14.2676 -10.9082 L 15.0293 -13.3984 C 13.3887 -15.2832 11.4941 -15.5566 9.20898 -14.4434 C 9.11133 -14.3945 9.04297 -14.4141 8.96484 -14.4922 Z M 3.96484 1.36719 C 3.52539 0.927734 3.54492 0.537109 4.14062 -0.00976562 L 13.7402 -8.81836 L 15 -7.55859 L 6.17188 2.02148 C 5.625 2.60742 5.24414 2.64648 4.79492 2.19727 Z"/>
  </g>
  <text style="stroke:none;fill:black;font-family:-apple-system,&quot;SF Pro Display&quot;,&quot;SF Pro Text&quot;,Helvetica,sans-serif;font-weight:bold;" transform="matrix(1 0 0 1 1289 1953)">Exporting</text>
  <text style="stroke:none;fill:black;font-family:-apple-system,&quot;SF Pro Display&quot;,&quot;SF Pro Text&quot;,Helvetica,sans-serif;" transform="matrix(1 0 0 1 1289 1971)">Symbols should be outlined when exporting to ensure the</text>
  <text style="stroke:none;fill:black;font-family:-apple-system,&quot;SF Pro Display&quot;,&quot;SF Pro Text&quot;,Helvetica,sans-serif;" transform="matrix(1 0 0 1 1289 1989)">design is preserved when submitting to Xcode.</text>
  <text id="template-version" style="stroke:none;fill:black;font-family:-apple-system,&quot;SF Pro Display&quot;,&quot;SF Pro Text&quot;,Helvetica,sans-serif;text-anchor:end;" transform="matrix(1 0 0 1 3036 1933)">Template v.0.1</text>
  <text style="stroke:none;fill:black;font-family:-apple-system,&quot;SF Pro Display&quot;,&quot;SF Pro Text&quot;,Helvetica,sans-serif;text-anchor:end;" transform="matrix(1 0 0 1 3036 1951)">Generated from scribble</text>
  <text style="stroke:none;fill:black;font-family:-apple-system,&quot;SF Pro Display&quot;,&quot;SF Pro Text&quot;,Helvetica,sans-serif;text-anchor:end;" transform="matrix(1 0 0 1 3036 1969)">Typeset at 100 points</text>
  <text style="stroke:none;fill:black;font-family:-apple-system,&quot;SF Pro Display&quot;,&quot;SF Pro Text&quot;,Helvetica,sans-serif;" transform="matrix(1 0 0 1 263 726)">Small</text>
  <text style="stroke:none;fill:black;font-family:-apple-system,&quot;SF Pro Display&quot;,&quot;SF Pro Text&quot;,Helvetica,sans-serif;" transform="matrix(1 0 0 1 263 1156)">Medium</text>
  <text style="stroke:none;fill:black;font-family:-apple-system,&quot;SF Pro Display&quot;,&quot;SF Pro Text&quot;,Helvetica,sans-serif;" transform="matrix(1 0 0 1 263 1586)">Large</text>
 </g>
 <g id="Guides">
  <g id="H-reference" style="fill:#27AAE1;stroke:none;" transform="matrix(1 0 0 1 339 696)">
   <path d="M 54.9316 0 L 57.666 0 L 30.5664 -70.459 L 28.0762 -70.459 L 0.976562 0 L 3.66211 0 L 12.9395 -24.4629 L 45.7031 -24.4629 Z M 29.1992 -67.0898 L 29.4434 -67.0898 L 44.8242 -26.709 L 13.8184 -26.709 Z"/>
  </g>
  <line id="Baseline-S" style="fill:none;stroke:#27AAE1;opacity:1;stroke-width:0.577;" x1="263" x2="3036" y1="696" y2="696"/>
  <line id="Capline-S" style="fill:none;stroke:#27AAE1;opacity:1;stroke-width:0.577;" x1="263" x2="3036" y1="625.541" y2="625.541"/>
  <g id="H-reference" style="fill:#27AAE1;stroke:none;" transform="matrix(1 0 0 1 339 1126)">
   <path d="M 54.9316 0 L 57.666 0 L 30.5664 -70.459 L 28.0762 -70.459 L 0.976562 0 L 3.66211 0 L 12.9395 -24.4629 L 45.7031 -24.4629 Z M 29.1992 -67.0898 L 29.4434 -67.0898 L 44.8242 -26.709 L 13.8184 -26.709 Z"/>
  </g>
  <line id="Baseline-M" style="fill:none;stroke:#27AAE1;opacity:1;stroke-width:0.577;" x1="263" x2="3036" y1="1126" y2="1126"/>
  <line id="Capline-M" style="fill:none;stroke:#27AAE1;opacity:1;stroke-width:0.577;" x1="263" x2="3036" y1="1055.54" y2="1055.54"/>
  <g id="H-reference" style="fill:#27AAE1;stroke:none;" transform="matrix(1 0 0 1 339 1556)">
   <path d="M 54.9316 0 L 57.666 0 L 30.5664 -70.459 L 28.0762 -70.459 L 0.976562 0 L 3.66211 0 L 12.9395 -24.4629 L 45.7031 -24.4629 Z M 29.1992 -67.0898 L 29.4434 -67.0898 L 44.8242 -26.709 L 13.8184 -26.709 Z"/>
  </g>
  <line id="Baseline-L" style="fill:none;stroke:#27AAE1;opacity:1;stroke-width:0.577;" x1="263" x2="3036" y1="1556" y2="1556"/>
  <line id="Capline-L" style="fill:none;stroke:#27AAE1;opacity:1;stroke-width:0.577;" x1="263" x2="3036" y1="1485.54" y2="1485.54"/>
  <rect height="119.336" id="left-margin" style="fill:#00AEEF;stroke:none;opacity:0.4;" width="9.95619" x="1389.25" y="1030.79"/>
  <rect height="119.336" id="right-margin" style="fill:#00AEEF;stroke:none;opacity:0.4;" width="10.0737" x="1500.37" y="1030.79"/>
 </g>
 <g id="Symbols">
  <g id="Ultralight-S" transform="matrix(1 0 0 1 512.128 696)">
   <path d="M 81.3965 -18.7988 C 86.5234 -23.9746 88.623 -29.0527 86.5234 -31.1523 C 84.1797 -33.4961 79.1992 -28.8574 74.1699 -23.9746 C 70.3613 -20.3125 64.0137 -14.5508 62.3535 -16.2109 C 60.791 -17.7734 65.0391 -22.168 70.1172 -28.0273 C 77.1973 -36.1816 83.7402 -43.1641 79.6875 -47.2168 C 76.0742 -50.8789 69.6289 -44.5312 60.9863 -36.6211 C 53.7109 -29.834 44.873 -22.0215 41.0156 -25.8789 C 37.9395 -29.0039 44.9707 -36.3281 52.1973 -44.7266 C 64.1602 -58.6426 75 -71.2891 68.9941 -77.2949 C 64.3555 -81.9336 58.0566 -77.3438 39.5996 -61.7676 C 25.6348 -49.9512 16.8945 -42.8223 8.44727 -38.916 C 7.86133 -38.623 7.71484 -38.0859 7.86133 -37.5 C 8.10547 -37.0117 8.64258 -36.7676 9.22852 -37.0605 C 17.9688 -40.8203 28.7598 -50.0977 40.8203 -60.1074 C 55.0781 -71.9238 63.5742 -79.6387 67.4316 -75.7812 C 72.168 -71.0449 61.377 -58.4961 50.6836 -46.1426 C 42.1387 -36.2793 35.0098 -28.8086 39.4531 -24.3164 C 44.5312 -19.2383 53.5645 -26.9531 62.4512 -35.1074 C 69.3848 -41.5039 75.9766 -47.8516 78.1738 -45.6543 C 80.8594 -42.9688 74.6094 -36.1816 68.5059 -29.2969 C 62.5 -22.5586 57.8125 -17.5781 60.791 -14.6484 C 63.6719 -11.7676 69.7754 -16.7969 75.3906 -22.3633 C 78.1738 -24.9512 84.0332 -30.5176 84.9609 -29.5898 C 85.9375 -28.6133 83.9844 -24.2676 79.9316 -20.2148 C 79.4434 -19.7266 79.4434 -19.1406 79.8828 -18.7012 C 80.3223 -18.2617 81.0059 -18.3105 81.3965 -18.7988 Z"/>
  </g>
  <g id="Thin-S" transform="matrix(1 0 0 1 808.888 696)">
   <path d="M 82.0312 -17.5293 C 86.7188 -22.4609 88.4766 -27.6367 86.2305 -29.8828 C 83.5938 -32.5195 78.7598 -28.2715 73.4863 -23.1934 C 69.1895 -19.1895 64.0625 -14.502 62.6465 -15.918 C 61.3281 -17.2363 64.7461 -20.8984 70.2637 -27.1973 C 77.7344 -35.791 83.4961 -42.4316 79.3457 -46.582 C 75.4395 -50.5371 68.8965 -44.4336 59.9121 -36.1816 C 52.7344 -29.4922 44.4336 -21.9238 40.8203 -25.4883 C 38.0859 -28.3203 43.7988 -34.5215 51.8555 -43.8477 C 64.502 -58.3984 74.4141 -70.752 68.457 -76.7578 C 63.5254 -81.6406 57.373 -76.9531 39.0137 -61.5723 C 25 -49.8047 16.5039 -43.3594 8.78906 -39.6973 C 7.91016 -39.2578 7.61719 -38.4277 7.91016 -37.5977 C 8.25195 -36.8164 9.17969 -36.5234 10.0586 -36.9629 C 18.1152 -40.5273 28.2715 -48.7305 40.8691 -59.1309 C 55.4199 -71.1914 62.7441 -77.8809 66.2109 -74.4141 C 70.459 -70.166 60.7422 -58.5938 49.6582 -45.8984 C 39.8438 -34.668 33.8379 -27.6367 38.4766 -22.9492 C 43.7988 -17.627 52.6367 -25.3418 61.9141 -33.8867 C 69.1895 -40.5273 75.1465 -46.2402 77.1484 -44.2383 C 79.4922 -41.8457 73.9258 -35.8398 67.3828 -28.3691 C 61.084 -21.2402 57.2754 -16.4551 60.2539 -13.4766 C 63.1836 -10.5957 68.8477 -14.7949 74.6582 -20.3613 C 78.0762 -23.4863 83.1055 -28.2715 83.8867 -27.4414 C 84.7656 -26.6113 83.0566 -22.9004 79.6387 -19.4336 C 78.9551 -18.75 79.0039 -17.8223 79.6387 -17.1875 C 80.3223 -16.5527 81.2988 -16.6504 82.0312 -17.5293 Z"/>
  </g>
  <g id="Light-S" transform="matrix(1 0 0 1 1105.65 696)">
   <path d="M 83.2031 -15.0879 C 87.0605 -19.5801 88.3301 -24.8535 85.6934 -27.4414 C 82.4707 -30.7129 77.9297 -27.0996 72.2168 -21.7773 C 66.9434 -16.9922 64.0625 -14.502 63.2324 -15.332 C 62.4023 -16.1133 64.209 -18.4082 70.5566 -25.6348 C 78.7598 -34.9609 83.1055 -40.9668 78.6621 -45.4102 C 74.1699 -49.9023 67.4805 -44.1895 57.8125 -35.3027 C 50.8301 -28.8086 43.5547 -21.6797 40.4785 -24.7559 C 38.2324 -27.002 41.6016 -31.0059 51.3184 -42.1875 C 65.0391 -58.0078 73.291 -69.7266 67.3828 -75.6348 C 61.9629 -81.0547 56.0059 -76.2207 37.8418 -61.1328 C 23.7305 -49.5117 15.7715 -44.3848 9.42383 -41.2109 C 8.00781 -40.4785 7.4707 -39.1113 8.00781 -37.793 C 8.59375 -36.4746 10.1074 -36.0352 11.6699 -36.8164 C 18.3594 -40.0391 27.2949 -46.1426 40.918 -57.3242 C 56.1035 -69.873 61.084 -74.5117 63.8184 -71.7773 C 67.1387 -68.4082 59.4727 -58.8379 47.6562 -45.5078 C 35.3516 -31.543 31.4941 -25.3906 36.5234 -20.3613 C 42.334 -14.502 50.8789 -22.2168 60.9863 -31.4941 C 68.8477 -38.7207 73.5352 -43.1152 75.0977 -41.4551 C 76.8066 -39.7461 72.6074 -35.1562 65.1855 -26.5625 C 58.3008 -18.6523 56.25 -14.3066 59.3262 -11.2793 C 62.207 -8.34961 67.041 -10.8398 73.1934 -16.4551 C 77.9297 -20.6543 81.2012 -23.9746 81.8359 -23.3398 C 82.4219 -22.7051 81.3477 -20.166 79.1016 -17.9199 C 78.0762 -16.8457 78.1738 -15.2832 79.248 -14.2578 C 80.2734 -13.2324 81.9336 -13.4766 83.2031 -15.0879 Z"/>
  </g>
  <g id="Regular-S" transform="matrix(1 0 0 1 1402.41 696)">
   <path d="M 84.1309 -13.2324 C 87.3535 -17.3828 88.1836 -22.8027 85.2539 -25.6348 C 81.5918 -29.2969 77.2949 -26.2207 71.2402 -20.7031 C 65.2344 -15.332 64.1113 -14.4531 63.623 -14.9414 C 63.2324 -15.2832 63.7695 -16.5039 70.752 -24.4141 C 79.4922 -34.375 82.7637 -39.8926 78.1738 -44.4824 C 73.1934 -49.4629 66.4551 -43.9941 56.25 -34.6191 C 49.3652 -28.3203 42.8711 -21.5332 40.2344 -24.2188 C 38.3789 -26.0254 39.9414 -28.3691 50.8789 -40.918 C 65.4785 -57.666 72.4121 -68.9941 66.6016 -74.8047 C 60.7422 -80.6641 55.0293 -75.6836 36.9141 -60.8398 C 22.7539 -49.3164 15.2344 -45.1172 9.86328 -42.3828 C 8.10547 -41.4062 7.32422 -39.6484 8.10547 -37.9395 C 8.83789 -36.2305 10.8398 -35.6445 12.8906 -36.7188 C 18.5547 -39.6484 26.6113 -44.1895 40.9668 -55.957 C 56.6406 -68.8477 59.8145 -71.9238 62.0117 -69.7754 C 64.6484 -67.1387 58.4961 -59.0332 46.1426 -45.166 C 31.9336 -29.1992 29.6875 -23.6816 35.0098 -18.3594 C 41.2109 -12.1582 49.5605 -19.873 60.2539 -29.6875 C 68.6035 -37.3047 72.2656 -40.7227 73.584 -39.4043 C 74.8047 -38.1348 71.6309 -34.6191 63.5254 -25.1953 C 56.25 -16.6992 55.4688 -12.6953 58.5938 -9.57031 C 61.5234 -6.64062 65.6738 -7.86133 72.1191 -13.5254 C 77.7832 -18.5059 79.7852 -20.7031 80.2734 -20.166 C 80.6641 -19.7754 80.0293 -18.1152 78.6621 -16.748 C 77.3438 -15.3809 77.5391 -13.3789 78.9062 -12.0117 C 80.2734 -10.7422 82.4219 -11.0352 84.1309 -13.2324 Z"/>
  </g>
  <g id="Medium-S" transform="matrix(1 0 0 1 1698.61 696)">
   <path d="M 84.8633 -12.5 C 88.4766 -16.8457 89.1602 -22.5098 86.1328 -25.5371 C 82.0801 -29.541 77.1973 -26.5137 71.3867 -21.0938 C 66.0156 -16.2109 64.8438 -15.0879 64.6484 -15.332 C 64.4531 -15.4297 65.5762 -17.0898 71.7773 -24.0234 C 80.5664 -33.7402 83.8867 -40.2832 79.0039 -44.9707 C 74.0234 -49.8047 67.2852 -45.0195 56.7871 -35.4492 C 48.9746 -28.2227 43.4082 -22.5098 41.2598 -24.707 C 39.6973 -26.1719 41.3086 -28.5156 52.3438 -41.0645 C 67.1875 -57.9102 73.6816 -69.3359 67.5781 -75.1465 C 61.377 -81.0547 54.834 -75.9766 36.6699 -61.1328 C 23.1445 -50.1465 15.4785 -45.7031 10.3516 -43.0176 C 8.20312 -41.8457 7.27539 -39.6973 8.1543 -37.6953 C 9.0332 -35.6934 11.4258 -35.0098 13.916 -36.3281 C 19.2383 -39.0137 27.6367 -44.043 41.4551 -55.3223 C 57.2754 -68.3105 60.3027 -70.9961 62.1582 -69.1406 C 64.4531 -66.8945 59.6191 -60.2051 46.582 -45.7031 C 31.5918 -29.1016 29.7852 -23.2422 35.0586 -18.0176 C 41.1133 -11.9629 49.2676 -18.3105 61.1328 -29.1992 C 70.5566 -37.7441 72.7539 -39.8926 73.6816 -38.916 C 74.6094 -37.9883 72.3633 -35.6934 63.623 -25.5371 C 56.25 -16.9434 55.2734 -12.5488 58.6914 -9.13086 C 61.9141 -5.9082 66.3574 -7.17773 72.998 -12.9883 C 78.0762 -17.4316 80.5664 -20.166 80.7129 -20.0195 C 80.957 -19.7754 80.3223 -18.6523 78.8086 -17.0898 C 77.2949 -15.5273 77.3926 -13.0371 79.0039 -11.4746 C 80.6641 -9.91211 83.0566 -10.3027 84.8633 -12.5 Z"/>
  </g>
  <g id="Semibold-S" transform="matrix(1 0 0 1 1994.95 696)">
   <path d="M 85.4004 -11.9629 C 89.3555 -16.4551 89.9414 -22.2656 86.7676 -25.4395 C 82.4707 -29.7363 77.1484 -26.709 71.4844 -21.3867 C 67.0898 -17.334 65.625 -15.8691 65.4297 -15.625 C 65.6738 -15.918 67.3828 -18.0664 72.5098 -23.7305 C 81.3477 -33.3008 84.7168 -40.5762 79.6387 -45.3613 C 74.6582 -50.0488 67.9199 -45.8496 57.2266 -36.0352 C 48.6816 -28.125 43.7988 -23.2422 42.041 -25.0488 C 40.7227 -26.3184 42.3828 -28.6621 53.5156 -41.2109 C 68.5059 -58.0566 74.6582 -69.5801 68.3594 -75.3906 C 61.8652 -81.3477 54.6387 -76.1719 36.4746 -61.377 C 23.4375 -50.7812 15.6738 -46.0938 10.7422 -43.5059 C 8.25195 -42.1875 7.17773 -39.7461 8.1543 -37.5488 C 9.17969 -35.2539 11.8652 -34.5215 14.7461 -35.9863 C 19.7754 -38.5742 28.418 -43.9453 41.7969 -54.8828 C 57.7637 -67.9199 60.6934 -70.2637 62.3047 -68.6523 C 64.3066 -66.6992 60.498 -61.084 46.875 -46.0938 C 31.3477 -29.0039 29.8828 -22.9492 35.0586 -17.7734 C 41.0156 -11.7676 49.0234 -17.0898 61.8652 -28.8086 C 72.0215 -38.1348 73.0957 -39.2578 73.7793 -38.5742 C 74.4629 -37.8906 72.9004 -36.5723 63.6719 -25.7812 C 56.25 -17.1387 55.127 -12.5 58.7891 -8.78906 C 62.207 -5.37109 66.9434 -6.64062 73.6816 -12.5977 C 78.1738 -16.5039 81.0547 -19.5801 81.0059 -19.8242 C 81.1523 -19.7754 80.5664 -19.0918 78.9551 -17.3828 C 77.2461 -15.625 77.2461 -12.793 79.0527 -11.0352 C 80.9082 -9.27734 83.4961 -9.76562 85.4004 -11.9629 Z"/>
  </g>
  <g id="Bold-S" transform="matrix(1 0 0 1 2291.15 696)">
   <path d="M 86.1328 -11.2305 C 90.4785 -15.918 90.9668 -21.9727 87.5977 -25.3418 C 83.6914 -29.248 78.9062 -27.7344 74.2676 -24.1211 C 82.6172 -33.1055 85.6934 -41.1133 80.4688 -45.8496 C 75.4883 -50.3906 68.75 -46.875 57.7637 -36.8164 C 48.2422 -28.0273 44.3359 -24.2676 43.0664 -25.5371 C 42.041 -26.5137 43.75 -28.8086 55.0293 -41.3574 C 70.2148 -58.252 75.9277 -69.9219 69.3848 -75.6836 C 62.5 -81.7383 54.4434 -76.4648 36.1816 -61.6699 C 23.8281 -51.6602 15.918 -46.6797 11.2305 -44.1406 C 8.34961 -42.6758 7.08008 -39.8438 8.20312 -37.3047 C 9.375 -34.668 12.4023 -33.8867 15.8203 -35.5469 C 20.459 -37.9395 29.4434 -43.75 42.2852 -54.248 C 58.4473 -67.3828 61.1816 -69.2871 62.5 -67.9688 C 64.1113 -66.4551 61.6699 -62.2559 47.2656 -46.6309 C 31.0059 -28.9551 29.9316 -22.5098 35.0586 -17.4316 C 40.918 -11.5234 48.7305 -15.4785 62.793 -28.3691 C 73.9746 -38.5742 73.5352 -38.4766 73.877 -38.0859 C 74.2676 -37.7441 73.6816 -37.6465 63.7695 -26.123 C 56.25 -17.3828 54.9316 -12.3535 58.9355 -8.34961 C 62.6465 -4.63867 67.627 -5.95703 74.6094 -12.0605 C 75.6836 -12.9883 76.7578 -13.9648 77.6855 -14.8926 C 77.4414 -13.3301 77.9297 -11.6699 79.1504 -10.498 C 81.2988 -8.44727 84.1309 -9.08203 86.1328 -11.2305 Z"/>
  </g>
  <g id="Heavy-S" transform="matrix(1 0 0 1 2587.13 696)">
   <path d="M 87.207 -10.2051 C 92.1387 -15.1367 92.4805 -21.5332 88.8672 -25.1953 C 85.8398 -28.1738 82.3242 -28.418 78.9062 -27.1484 C 84.8633 -34.8145 86.5234 -42.3828 81.6895 -46.582 C 76.6602 -50.9277 69.9707 -48.4375 58.5938 -37.9883 C 47.6562 -27.9297 45.0684 -25.6836 44.5312 -26.2207 C 43.9941 -26.7578 45.752 -29.1016 57.2266 -41.6504 C 72.7051 -58.5938 77.7832 -70.4102 70.8496 -76.1719 C 63.4277 -82.3242 54.1504 -76.9043 35.791 -62.1094 C 24.4141 -52.8809 16.2598 -47.4609 11.9629 -45.1172 C 8.49609 -43.3105 6.93359 -39.8926 8.30078 -36.9629 C 9.66797 -33.8379 13.2324 -32.959 17.3828 -34.9121 C 21.4355 -37.0117 30.957 -43.5547 43.0176 -53.3203 C 59.375 -66.6504 61.8652 -67.9199 62.793 -67.041 C 63.8184 -66.1133 63.2812 -63.916 47.8516 -47.4121 C 30.4688 -28.8086 30.0781 -21.875 35.0586 -16.8945 C 40.7715 -11.1816 48.3398 -13.1348 64.1602 -27.6367 C 65.3809 -28.7598 66.4551 -29.7852 67.3828 -30.6641 C 66.4062 -29.4922 65.2344 -28.125 63.8672 -26.5625 C 56.25 -17.7246 54.6387 -12.207 59.1309 -7.66602 C 63.2324 -3.56445 68.7012 -4.98047 75.9277 -11.2793 C 76.4648 -11.7676 77.0508 -12.3047 77.6367 -12.8418 C 77.832 -11.6699 78.3691 -10.5469 79.2969 -9.66797 C 81.8359 -7.22656 85.0098 -8.00781 87.207 -10.2051 Z"/>
  </g>
  <g id="Black-S" transform="matrix(1 0 0 1 2883.18 696)">
   <path d="M 88.1348 -9.27734 C 93.6523 -14.4531 93.7988 -21.1426 89.9414 -25.0488 C 87.3047 -27.6855 84.2773 -28.418 81.2988 -27.9785 C 86.4258 -35.4004 87.6465 -43.1641 82.7637 -47.2168 C 77.7344 -51.3672 71.0449 -49.8047 59.3262 -39.0137 C 47.2168 -27.8809 45.8008 -27.002 45.8496 -26.8555 C 45.752 -27.002 47.5586 -29.2969 59.2285 -41.8457 C 74.9512 -58.8867 79.4434 -70.8496 72.1191 -76.6113 C 64.209 -82.8613 53.9062 -77.2949 35.4492 -62.5 C 24.9023 -54.0039 16.5527 -48.1934 12.5977 -45.9473 C 8.59375 -43.9453 6.83594 -39.9902 8.34961 -36.6699 C 9.96094 -33.1055 13.9648 -32.0801 18.75 -34.3262 C 22.3633 -36.1816 32.3242 -43.3594 43.6523 -52.5391 C 60.2539 -65.9668 62.5 -66.6992 63.0371 -66.2109 C 63.5742 -65.7715 64.7949 -65.4297 48.3887 -48.0957 C 30.0293 -28.7109 30.2246 -21.3379 35.0586 -16.4551 C 40.1367 -11.4258 46.6309 -11.084 60.791 -22.998 C 55.8105 -16.1621 55.1758 -11.2793 59.3262 -7.08008 C 63.7695 -2.58789 69.6289 -4.10156 77.0996 -10.5957 C 77.3438 -10.791 77.5879 -11.0352 77.832 -11.2793 C 78.1738 -10.4004 78.7109 -9.61914 79.4434 -8.93555 C 82.3242 -6.10352 85.8398 -7.08008 88.1348 -9.27734 Z"/>
  </g>
  <g id="Ultralight-M" transform="matrix(1 0 0 1 498.969 1126)">
   <path d="M 103.662 -14.7461 C 110.352 -21.4355 113.135 -27.9297 110.547 -30.5176 C 107.666 -33.3496 101.27 -27.3438 94.9219 -21.1426 C 90.2344 -16.6016 81.6895 -8.83789 79.4922 -11.0352 C 77.3438 -13.1836 83.1055 -19.043 89.4043 -26.3672 C 98.3398 -36.6211 106.982 -45.6543 101.855 -50.7812 C 97.3633 -55.2734 89.1113 -47.168 78.2715 -37.1582 C 68.9453 -28.5156 57.4219 -18.457 52.4414 -23.4375 C 48.4375 -27.5391 57.8125 -37.3047 66.6992 -47.6562 C 81.7871 -65.1855 95.9473 -81.4453 88.2812 -89.1602 C 82.4707 -94.9219 74.3652 -89.1602 50.7812 -69.1895 C 32.959 -54.1016 21.7285 -44.7266 10.6934 -39.5996 C 10.0098 -39.3066 9.86328 -38.7207 10.0098 -38.1348 C 10.2539 -37.5977 10.8398 -37.2559 11.4746 -37.5488 C 22.8516 -42.4316 36.8652 -54.6875 52.0996 -67.334 C 70.166 -82.3242 81.4941 -92.5781 86.5723 -87.5 C 92.7734 -81.2988 78.5645 -64.8438 65.0879 -49.2188 C 54.6875 -37.207 45.166 -27.4414 50.7812 -21.7773 C 57.1777 -15.3809 68.7012 -25.2441 79.8828 -35.5469 C 88.623 -43.5547 97.3145 -52.002 100.195 -49.1211 C 103.711 -45.5078 95.459 -36.6211 87.8418 -27.9785 C 80.3223 -19.5312 74.0234 -13.1348 77.7832 -9.375 C 81.4453 -5.71289 89.4043 -12.5 96.5332 -19.5312 C 99.8047 -22.7051 107.666 -30.0293 108.838 -28.8574 C 110.156 -27.5391 107.52 -21.8262 102.1 -16.4062 C 101.562 -15.8203 101.562 -15.1855 102.051 -14.6973 C 102.539 -14.209 103.223 -14.3066 103.662 -14.7461 Z"/>
  </g>
  <g id="Thin-M" transform="matrix(1 0 0 1 795.729 1126)">
   <path d="M 104.346 -13.3301 C 110.596 -19.7754 113.037 -26.3184 110.205 -29.1016 C 107.031 -32.2754 100.781 -26.6602 94.1895 -20.2637 C 88.916 -15.332 81.7383 -8.83789 79.834 -10.6934 C 77.9785 -12.5488 82.8125 -17.5781 89.5996 -25.4395 C 98.9258 -36.1328 106.738 -44.8242 101.465 -50.0977 C 96.6309 -54.9316 88.3301 -47.0215 77.0508 -36.6699 C 67.8711 -28.125 56.9336 -18.3105 52.2461 -23.0469 C 48.5352 -26.7578 56.543 -35.2539 66.3574 -46.6797 C 82.1289 -64.9414 95.3125 -80.8594 87.6953 -88.5254 C 81.543 -94.6289 73.584 -88.7207 50.0977 -68.9453 C 32.2266 -53.9062 21.2891 -45.3125 11.0352 -40.4785 C 10.1074 -40.0391 9.76562 -39.1113 10.1074 -38.2324 C 10.4492 -37.4023 11.4258 -37.0117 12.4023 -37.5 C 22.998 -42.1387 36.3281 -53.2227 52.1484 -66.2598 C 70.5566 -81.543 80.5176 -90.625 85.1562 -85.9375 C 90.8691 -80.2734 77.8809 -64.9902 63.9648 -48.9746 C 52.0996 -35.4004 43.7988 -26.1719 49.6094 -20.2637 C 56.2988 -13.623 67.6758 -23.4375 79.3457 -34.1797 C 88.4277 -42.5293 96.3379 -50.1465 99.0234 -47.5098 C 102.148 -44.2871 94.7266 -36.1816 86.5723 -26.9531 C 78.7598 -18.0664 73.4375 -11.8652 77.1973 -8.10547 C 80.9082 -4.39453 88.3301 -10.2051 95.7031 -17.2852 C 99.707 -21.0449 106.592 -27.5391 107.666 -26.4648 C 108.838 -25.293 106.543 -20.2148 101.807 -15.4785 C 101.025 -14.7461 101.074 -13.7207 101.807 -12.9883 C 102.49 -12.3047 103.613 -12.4023 104.346 -13.3301 Z"/>
  </g>
  <g id="Light-M" transform="matrix(1 0 0 1 1092.49 1126)">
   <path d="M 105.713 -10.5469 C 110.986 -16.4551 112.793 -23.1934 109.619 -26.3184 C 105.713 -30.2246 99.8047 -25.3418 92.6758 -18.6523 C 86.377 -12.8418 81.7871 -8.78906 80.4688 -10.0586 C 79.1992 -11.2793 82.1777 -14.7949 89.9414 -23.6328 C 100.098 -35.2539 106.25 -43.2129 100.732 -48.7305 C 95.2148 -54.248 86.7188 -46.7285 74.6582 -35.6934 C 65.6738 -27.3438 55.957 -18.0664 51.8555 -22.2168 C 48.7305 -25.293 54.0527 -31.2988 65.7227 -44.7754 C 82.8125 -64.4531 93.9941 -79.6875 86.4746 -87.2559 C 79.7363 -93.9941 72.0703 -87.8906 48.7793 -68.5059 C 30.8105 -53.6133 20.459 -46.4844 11.7676 -42.2363 C 10.2051 -41.4062 9.57031 -39.8926 10.2051 -38.4277 C 10.8398 -36.9629 12.5 -36.4258 14.209 -37.3535 C 23.3398 -41.6016 35.2539 -50.2441 52.1973 -64.209 C 71.3379 -79.9805 78.6621 -86.7676 82.4707 -82.959 C 87.1094 -78.3203 76.416 -65.2832 61.6699 -48.5352 C 46.9727 -31.8359 41.1621 -23.584 47.4121 -17.334 C 54.6387 -10.1074 65.6738 -19.9219 78.2227 -31.4453 C 88.0371 -40.4297 94.5312 -46.582 96.7285 -44.3848 C 99.1699 -41.8945 93.2129 -35.4004 84.1309 -24.9023 C 75.5859 -15.1367 72.2168 -9.42383 76.123 -5.56641 C 79.834 -1.85547 86.3281 -5.76172 94.043 -12.8906 C 99.5117 -17.8223 104.443 -22.6562 105.322 -21.7773 C 106.201 -20.8496 104.541 -17.1387 101.172 -13.7695 C 100 -12.5488 100.146 -10.8398 101.318 -9.66797 C 102.49 -8.54492 104.346 -8.78906 105.713 -10.5469 Z"/>
  </g>
  <g id="Regular-M" transform="matrix(1 0 0 1 1389.25 1126)">
   <path d="M 106.738 -8.44727 C 111.279 -13.9648 112.646 -20.8008 109.131 -24.2676 C 104.736 -28.6133 99.1211 -24.3652 91.6016 -17.4316 C 84.4727 -10.9863 81.7871 -8.74023 80.957 -9.61914 C 80.127 -10.3516 81.6895 -12.6465 90.1855 -22.2656 C 100.928 -34.5703 105.859 -41.9434 100.146 -47.7051 C 94.0918 -53.7109 85.5469 -46.5332 72.9004 -34.9121 C 64.0137 -26.7578 55.2246 -17.8711 51.5137 -21.582 C 48.9258 -24.1699 52.1484 -28.3203 65.2344 -43.3594 C 83.3008 -64.1113 93.0176 -78.8574 85.5469 -86.3281 C 78.3691 -93.5059 70.9473 -87.2559 47.7539 -68.1641 C 29.7363 -53.3691 19.8242 -47.3145 12.3047 -43.5547 C 10.2539 -42.4316 9.47266 -40.5273 10.2539 -38.5742 C 11.1328 -36.6699 13.3301 -36.0352 15.5762 -37.207 C 23.5352 -41.1621 34.4238 -48.0469 52.2461 -62.6465 C 71.9238 -78.8574 77.2461 -83.8867 80.3711 -80.7129 C 84.2773 -76.8555 75.3418 -65.4785 59.9609 -48.1445 C 43.1641 -29.1504 39.1602 -21.6797 45.752 -15.0879 C 53.3691 -7.4707 64.1602 -17.2852 77.3926 -29.3945 C 87.7441 -38.8672 93.1152 -43.8965 94.9707 -41.9922 C 96.875 -40.0391 92.0898 -34.8145 82.2266 -23.3887 C 73.2422 -12.9395 71.3379 -7.61719 75.293 -3.66211 C 79.0039 0.0488281 84.7656 -2.39258 92.8223 -9.57031 C 99.4141 -15.3809 102.832 -18.9453 103.516 -18.2129 C 104.199 -17.5293 103.076 -14.8438 100.732 -12.4512 C 99.2188 -10.9375 99.4141 -8.69141 100.928 -7.12891 C 102.49 -5.71289 104.883 -6.05469 106.738 -8.44727 Z"/>
  </g>
  <g id="Medium-M" transform="matrix(1 0 0 1 1685.47 1126)">
   <path d="M 107.617 -7.4707 C 112.5 -13.1348 113.672 -20.2148 109.961 -23.877 C 105.127 -28.7109 98.9258 -24.5117 91.6016 -17.6758 C 85.0586 -11.6699 82.5684 -9.375 81.9824 -9.96094 C 81.4941 -10.4004 83.4473 -12.9883 91.2109 -21.7285 C 102.1 -33.8379 106.982 -42.1875 100.928 -48.0469 C 94.8242 -54.0039 86.2793 -47.5586 73.2422 -35.6445 C 63.4277 -26.6113 55.6641 -18.8477 52.5391 -21.9727 C 50.293 -24.2188 53.3203 -28.125 66.6992 -43.3594 C 85.1074 -64.2578 94.2383 -79.1016 86.4746 -86.5234 C 78.8574 -93.8477 70.6055 -87.4512 47.3633 -68.4082 C 29.9805 -54.1992 20.0195 -47.998 12.8418 -44.3359 C 10.4004 -43.0176 9.32617 -40.625 10.3516 -38.3789 C 11.3281 -36.084 14.0137 -35.3516 16.8457 -36.7676 C 24.2676 -40.4785 35.4004 -47.6074 52.7344 -61.8164 C 72.6562 -78.1738 77.5879 -82.5684 80.3223 -79.7852 C 83.7402 -76.416 76.3672 -66.6992 60.2051 -48.6328 C 42.334 -28.7598 39.0137 -21.0449 45.5566 -14.4531 C 53.125 -6.88477 63.7207 -15.332 78.2227 -28.6621 C 89.6973 -39.1602 93.4082 -42.7246 94.873 -41.2598 C 96.4355 -39.6973 92.7246 -35.8398 82.0801 -23.5352 C 72.9492 -12.9395 71.0449 -7.27539 75.3418 -2.97852 C 79.3457 1.02539 85.3027 -1.26953 93.6035 -8.64258 C 99.6582 -13.9648 103.467 -17.9688 103.76 -17.627 C 104.248 -17.1387 103.174 -15.1367 100.83 -12.6465 C 99.0723 -10.8398 99.1699 -8.05664 101.025 -6.29883 C 102.832 -4.54102 105.566 -4.98047 107.617 -7.4707 Z"/>
  </g>
  <g id="Semibold-M" transform="matrix(1 0 0 1 1981.79 1126)">
   <path d="M 108.252 -6.68945 C 113.428 -12.5 114.453 -19.7754 110.547 -23.6328 C 105.42 -28.7598 98.7793 -24.6094 91.6016 -17.8711 C 85.498 -12.207 83.1055 -9.86328 82.8125 -10.2051 C 82.5195 -10.4492 84.8145 -13.2812 92.041 -21.2402 C 103.027 -33.3008 107.812 -42.3828 101.514 -48.3398 C 95.3613 -54.1992 86.8164 -48.3887 73.5352 -36.1816 C 62.9395 -26.4648 56.0059 -19.5801 53.3203 -22.3145 C 51.3184 -24.2676 54.248 -27.9785 67.8223 -43.3594 C 86.4746 -64.4043 95.1172 -79.248 87.1582 -86.7188 C 79.248 -94.1406 70.3125 -87.6465 47.0703 -68.6035 C 30.2246 -54.834 20.1172 -48.5352 13.2812 -44.9707 C 10.4492 -43.5059 9.27734 -40.7227 10.4004 -38.1836 C 11.5234 -35.5957 14.5508 -34.8145 17.7734 -36.4258 C 24.8535 -39.9414 36.1328 -47.3145 53.125 -61.2305 C 73.2422 -77.6855 77.832 -81.543 80.3223 -79.1016 C 83.3496 -76.123 77.1484 -67.627 60.3516 -49.0234 C 41.748 -28.4668 38.916 -20.5078 45.4102 -14.0137 C 52.9297 -6.49414 63.3301 -13.8672 78.9062 -28.125 C 91.1621 -39.3555 93.6523 -41.8457 94.8242 -40.6738 C 96.0449 -39.4043 93.2129 -36.6699 81.9824 -23.6328 C 72.7539 -12.9395 70.8008 -6.98242 75.3418 -2.44141 C 79.541 1.80664 85.7422 -0.439453 94.1895 -7.91016 C 99.8535 -12.8906 103.955 -17.1875 103.955 -17.1387 C 104.248 -16.8457 103.32 -15.332 100.879 -12.8418 C 98.9258 -10.791 98.9746 -7.61719 101.025 -5.61523 C 103.125 -3.61328 106.104 -4.19922 108.252 -6.68945 Z"/>
  </g>
  <g id="Bold-M" transform="matrix(1 0 0 1 2277.99 1126)">
   <path d="M 109.131 -5.71289 C 114.648 -11.6699 115.479 -19.1895 111.377 -23.291 C 105.811 -28.8086 98.584 -24.7559 91.6504 -18.1641 C 87.6465 -14.3555 85.3516 -12.0605 84.4238 -11.1328 C 85.498 -12.3047 88.2324 -15.3809 93.0664 -20.6543 C 104.199 -32.5684 108.936 -42.6758 102.295 -48.7305 C 96.0938 -54.4922 87.5 -49.4629 73.877 -36.9141 C 62.3535 -26.3184 56.4453 -20.5566 54.2969 -22.7051 C 52.7344 -24.3164 55.4199 -27.832 69.3359 -43.3594 C 88.2812 -64.5996 96.2891 -79.4922 88.0859 -86.9141 C 79.7363 -94.4824 69.9707 -87.8418 46.6797 -68.8477 C 30.4688 -55.6641 20.3125 -49.1699 13.8184 -45.8008 C 10.5469 -44.0918 9.13086 -40.8691 10.4492 -37.9883 C 11.7676 -35.0098 15.2344 -34.082 19.043 -35.9863 C 25.5859 -39.209 37.1094 -46.875 53.6621 -60.4004 C 73.9746 -77.002 78.125 -80.2246 80.2734 -78.125 C 82.8125 -75.6836 78.2227 -68.8477 60.5469 -49.5117 C 40.918 -28.0273 38.7695 -19.8242 45.2148 -13.3789 C 52.6855 -5.9082 62.8418 -11.9141 79.7363 -27.3926 C 93.1641 -39.6484 93.9453 -40.7227 94.7266 -39.8926 C 95.6055 -39.0625 93.8477 -37.7441 81.8359 -23.7793 C 72.4609 -12.8906 70.5078 -6.64062 75.3906 -1.75781 C 79.8828 2.7832 86.2793 0.683594 94.9707 -6.98242 C 96.7773 -8.59375 98.5352 -10.2051 100 -11.6699 C 98.8281 -9.42383 99.1699 -6.5918 101.074 -4.73633 C 103.516 -2.44141 106.787 -3.125 109.131 -5.71289 Z"/>
  </g>
  <g id="Heavy-M" transform="matrix(1 0 0 1 2573.97 1126)">
   <path d="M 110.4 -4.29688 C 116.357 -10.4492 116.943 -18.3594 112.549 -22.7539 C 108.203 -27.0996 102.93 -26.416 97.9004 -23.4375 C 106.738 -33.8379 109.814 -43.6523 103.418 -49.3164 C 97.1191 -54.9316 88.5742 -50.9766 74.4141 -37.9883 C 61.4746 -26.0742 57.0801 -22.0215 55.8105 -23.3398 C 54.7363 -24.3652 57.1777 -27.5391 71.4844 -43.3594 C 90.918 -64.8438 98.0469 -79.8828 89.4531 -87.2559 C 80.4199 -94.9707 69.4824 -88.1836 46.0938 -69.2383 C 30.8594 -56.8848 20.5566 -50.1465 14.6484 -46.9727 C 10.7422 -44.9707 8.98438 -41.0645 10.5469 -37.6953 C 12.1094 -34.1309 16.2109 -33.0566 20.8984 -35.3027 C 26.6113 -38.1836 38.5254 -46.2891 54.3945 -59.1797 C 75.0488 -76.0254 78.6133 -78.3203 80.1758 -76.8066 C 82.0312 -75.0488 79.6875 -70.6055 60.8887 -50.2441 C 39.7461 -27.4414 38.5254 -18.8965 44.9219 -12.4512 C 52.2949 -5.12695 62.1582 -9.0332 80.957 -26.3184 C 95.9961 -40.0879 94.3848 -39.0137 94.6289 -38.8184 C 94.873 -38.5254 94.7754 -39.2578 81.6406 -24.0234 C 72.0703 -12.8906 70.0684 -6.15234 75.4395 -0.78125 C 80.3711 4.19922 87.0605 2.29492 96.0938 -5.61523 C 97.0703 -6.49414 98.0957 -7.4707 99.1211 -8.39844 C 99.0723 -6.64062 99.7559 -4.83398 101.172 -3.4668 C 104.053 -0.683594 107.812 -1.5625 110.4 -4.29688 Z"/>
  </g>
  <g id="Black-M" transform="matrix(1 0 0 1 2870.02 1126)">
   <path d="M 111.523 -3.02734 C 117.969 -9.32617 118.311 -17.5781 113.623 -22.3145 C 109.912 -26.0254 105.518 -26.5137 101.318 -25.1465 C 108.643 -34.8145 110.645 -44.4824 104.443 -49.8047 C 98.0469 -55.3223 89.502 -52.3438 74.8535 -38.916 C 60.6445 -25.8301 57.666 -23.291 57.0801 -23.877 C 56.543 -24.4629 58.7402 -27.2949 73.4375 -43.4082 C 93.2617 -65.0879 99.5605 -80.1758 90.625 -87.5488 C 81.0547 -95.459 69.043 -88.4766 45.6055 -69.5801 C 31.2012 -58.0078 20.8008 -51.0254 15.3809 -48.0469 C 10.8398 -45.7031 8.83789 -41.2598 10.5957 -37.4023 C 12.4512 -33.3008 17.0898 -32.1289 22.5098 -34.7168 C 27.5879 -37.3047 39.7949 -45.7031 55.0293 -58.1055 C 75.9766 -75.1465 79.0527 -76.6113 80.127 -75.5859 C 81.2988 -74.5117 81.0547 -72.168 61.1328 -50.9277 C 38.6719 -26.9043 38.3301 -18.0176 44.6777 -11.6699 C 51.9531 -4.39453 61.5234 -6.49414 82.0801 -25.3418 C 82.7148 -25.9277 83.3008 -26.4648 83.8867 -27.002 C 83.1543 -26.123 82.3242 -25.1953 81.4941 -24.2188 C 71.6797 -12.8418 69.6777 -5.71289 75.4883 0.146484 C 80.7617 5.46875 87.793 3.71094 97.1191 -4.39453 C 97.7051 -4.93164 98.3887 -5.56641 99.0723 -6.20117 C 99.3652 -4.78516 100.098 -3.41797 101.221 -2.34375 C 104.59 0.878906 108.691 -0.195312 111.523 -3.02734 Z"/>
  </g>
  <g id="Ultralight-L" transform="matrix(1 0 0 1 481.318 1556)">
   <path d="M 133.447 -9.42383 C 142.285 -18.1641 146.045 -26.4648 142.773 -29.7363 C 139.258 -33.252 130.859 -25.3418 122.803 -17.3828 C 116.992 -11.7676 105.42 -1.17188 102.441 -4.15039 C 99.5605 -7.08008 107.373 -14.9902 115.332 -24.1699 C 126.66 -37.207 138.135 -49.0723 131.641 -55.5664 C 125.928 -61.2793 115.332 -50.7324 101.514 -37.9395 C 89.4531 -26.709 74.3164 -13.623 67.7246 -20.2148 C 62.4023 -25.6348 75.1465 -38.7695 86.2305 -51.709 C 105.42 -74.0234 124.121 -95.1172 114.209 -105.078 C 106.787 -112.402 96.2891 -104.98 65.8203 -79.1504 C 42.8711 -59.668 28.2227 -47.2656 13.623 -40.4785 C 12.9395 -40.1855 12.7441 -39.5508 12.9395 -38.916 C 13.1836 -38.3301 13.7695 -37.9883 14.3555 -38.2812 C 29.4434 -44.6777 47.8027 -60.9863 67.2363 -77.0996 C 90.332 -96.3379 105.566 -110.059 112.305 -103.32 C 120.557 -95.0684 101.709 -73.3887 84.5215 -53.418 C 71.6797 -38.5742 58.8867 -25.7812 66.0156 -18.5547 C 74.1211 -10.4004 89.1113 -23.1445 103.32 -36.2793 C 114.453 -46.4355 125.977 -57.666 129.785 -53.8086 C 134.473 -49.0234 123.535 -37.1582 113.916 -26.3184 C 104.346 -15.625 95.8008 -7.22656 100.586 -2.44141 C 105.322 2.29492 115.82 -6.88477 124.951 -15.9668 C 128.809 -19.7754 139.404 -29.6387 140.967 -28.0273 C 142.725 -26.2695 139.209 -18.6035 131.885 -11.2793 C 131.299 -10.6934 131.25 -10.0098 131.787 -9.47266 C 132.275 -8.98438 133.057 -9.0332 133.447 -9.42383 Z"/>
  </g>
  <g id="Thin-L" transform="matrix(1 0 0 1 778.078 1556)">
   <path d="M 134.229 -7.8125 C 142.529 -16.3086 145.898 -24.707 142.383 -28.1738 C 138.525 -32.0801 130.322 -24.6094 121.973 -16.4551 C 115.527 -10.3516 105.42 -1.17188 102.783 -3.80859 C 100.244 -6.34766 107.031 -13.3789 115.479 -23.1445 C 127.344 -36.6699 137.842 -48.1445 131.201 -54.834 C 125.098 -60.8887 114.453 -50.5371 100.146 -37.4023 C 88.2324 -26.2695 73.7793 -13.4766 67.5293 -19.7266 C 62.5488 -24.7559 73.7305 -36.5234 85.8398 -50.6348 C 105.762 -73.7305 123.389 -94.4336 113.525 -104.395 C 105.762 -112.061 95.4102 -104.492 65.0879 -78.9062 C 42.041 -59.4727 27.7344 -47.9004 14.0625 -41.5039 C 12.9883 -40.9668 12.6465 -39.9902 12.9883 -39.0137 C 13.3789 -38.1348 14.4043 -37.6953 15.4297 -38.1836 C 29.5898 -44.3359 47.2168 -59.3262 67.2363 -75.9277 C 90.7715 -95.459 104.492 -107.861 110.742 -101.611 C 118.408 -93.9453 100.928 -73.5352 83.2031 -53.125 C 68.7988 -36.5723 57.373 -24.3164 64.7461 -16.8457 C 73.1934 -8.39844 87.9395 -21.1426 102.686 -34.7168 C 114.258 -45.2637 124.902 -55.6152 128.467 -52.0508 C 132.764 -47.6562 122.705 -36.7188 112.5 -25.1953 C 102.588 -13.9648 95.1172 -5.85938 99.9512 -0.976562 C 104.688 3.75977 114.648 -4.3457 124.023 -13.4766 C 128.711 -17.9199 138.184 -26.8066 139.648 -25.3418 C 141.26 -23.7305 138.037 -16.8457 131.543 -10.3027 C 130.713 -9.47266 130.713 -8.34961 131.494 -7.56836 C 132.275 -6.83594 133.447 -6.93359 134.229 -7.8125 Z"/>
  </g>
  <g id="Light-L" transform="matrix(1 0 0 1 1074.86 1556)">
   <path d="M 135.742 -4.73633 C 143.018 -12.5977 145.654 -21.1914 141.699 -25.0977 C 137.061 -29.7363 129.248 -23.1445 120.312 -14.6484 C 112.695 -7.56836 105.469 -1.12305 103.516 -3.07617 C 101.611 -4.98047 106.348 -10.2051 115.869 -21.1426 C 128.613 -35.6934 137.305 -46.2891 130.322 -53.3203 C 123.535 -60.1074 112.695 -50.2441 97.5098 -36.2793 C 85.791 -25.4395 72.6562 -13.1836 67.0898 -18.7988 C 62.793 -23.0957 70.9473 -32.0801 85.1074 -48.4863 C 106.543 -73.1934 121.924 -93.1641 112.158 -102.979 C 103.76 -111.328 93.75 -103.564 63.5742 -78.3691 C 40.4297 -59.082 26.8066 -49.1699 14.8438 -43.4082 C 13.0859 -42.5293 12.4512 -40.8691 13.0859 -39.2578 C 13.8184 -37.6953 15.625 -37.0605 17.4316 -38.0371 C 29.9316 -43.7012 45.9961 -56.0547 67.334 -73.6328 C 91.6504 -93.75 102.393 -103.613 107.715 -98.291 C 114.209 -91.7969 99.3164 -73.877 80.7129 -52.5879 C 63.1348 -32.5684 54.3945 -21.4844 62.2559 -13.5742 C 71.3379 -4.49219 85.7422 -17.2363 101.465 -31.6895 C 113.818 -42.9688 122.852 -51.6113 125.928 -48.5352 C 129.443 -44.9707 120.996 -35.8398 109.717 -22.9004 C 99.0723 -10.7422 93.7988 -3.125 98.7305 1.80664 C 103.516 6.5918 112.354 0.634766 122.168 -8.54492 C 128.516 -14.3066 135.791 -21.3867 137.012 -20.1172 C 138.33 -18.8477 135.84 -13.4277 130.859 -8.39844 C 129.541 -7.03125 129.688 -5.17578 130.957 -3.85742 C 132.275 -2.63672 134.277 -2.88086 135.742 -4.73633 Z"/>
  </g>
  <g id="Regular-L" transform="matrix(1 0 0 1 1371.62 1556)">
   <path d="M 136.865 -2.39258 C 143.359 -9.86328 145.459 -18.5547 141.211 -22.7539 C 135.986 -27.9785 128.467 -22.0215 119.092 -13.2812 C 110.547 -5.46875 105.518 -1.07422 104.053 -2.53906 C 102.637 -3.90625 105.811 -7.8125 116.162 -19.6289 C 129.541 -34.9121 136.914 -44.9219 129.688 -52.1484 C 122.314 -59.5215 111.377 -50 95.5078 -35.4492 C 83.9844 -24.7559 71.8262 -12.9395 66.748 -18.1152 C 62.9883 -21.875 68.8477 -28.7598 84.5703 -46.875 C 107.08 -72.8027 120.85 -92.1875 111.182 -101.953 C 102.246 -110.791 92.4316 -102.881 62.4512 -77.9785 C 39.2578 -58.8379 26.123 -50.1465 15.4297 -44.873 C 13.1836 -43.7012 12.3047 -41.5527 13.1836 -39.4043 C 14.1113 -37.3535 16.5527 -36.6211 18.9941 -37.8906 C 30.2246 -43.2129 45.1172 -53.5645 67.3828 -71.875 C 92.334 -92.4316 100.83 -100.391 105.42 -95.8008 C 111.035 -90.1367 98.0957 -74.1211 78.8086 -52.1973 C 58.8379 -29.5898 52.1484 -19.3359 60.4004 -11.084 C 69.9219 -1.5625 84.0332 -14.2578 100.537 -29.3945 C 113.477 -41.2109 121.289 -48.6328 123.975 -45.8984 C 126.904 -42.9199 119.775 -35.1562 107.666 -21.1914 C 96.4355 -8.25195 92.7734 -1.07422 97.8027 3.95508 C 102.588 8.74023 110.645 4.39453 120.801 -4.83398 C 128.369 -11.6211 134.033 -17.2363 135.059 -16.1621 C 136.084 -15.1367 134.18 -10.8398 130.322 -6.93359 C 128.662 -5.22461 128.857 -2.73438 130.566 -1.07422 C 132.227 0.537109 134.863 0.195312 136.865 -2.39258 Z"/>
  </g>
  <g id="Medium-L" transform="matrix(1 0 0 1 1667.89 1556)">
   <path d="M 137.891 -1.07422 C 144.531 -8.59375 146.387 -17.5293 141.846 -22.0215 C 136.133 -27.7344 128.174 -21.9727 118.896 -13.2812 C 110.693 -5.71289 106.201 -1.66016 105.127 -2.7832 C 104.053 -3.75977 107.324 -7.71484 117.139 -18.8477 C 130.811 -34.1309 137.842 -44.873 130.273 -52.2949 C 122.754 -59.668 111.768 -50.8789 95.459 -35.9863 C 83.1055 -24.5117 72.1191 -13.8184 67.5781 -18.3594 C 64.2578 -21.6797 69.5312 -27.9785 85.8398 -46.6309 C 108.838 -72.8516 121.729 -92.2363 111.816 -101.953 C 102.441 -111.035 91.8945 -102.93 61.8652 -78.125 C 39.2578 -59.5215 26.123 -50.9277 16.0156 -45.8984 C 13.3301 -44.4336 12.1582 -41.7969 13.2812 -39.2578 C 14.4043 -36.7188 17.334 -35.8887 20.4102 -37.4512 C 30.9082 -42.5293 45.8008 -52.7344 67.8711 -70.8008 C 93.1152 -91.6016 100.83 -98.584 104.932 -94.4824 C 110.01 -89.4531 98.8281 -75.2441 78.6133 -52.5879 C 57.3242 -28.6621 51.6113 -18.3105 59.8633 -10.0586 C 69.4336 -0.488281 83.3008 -11.9629 101.172 -28.3203 C 115.186 -41.1133 121.289 -47.0215 123.535 -44.7266 C 125.977 -42.2363 120.117 -36.0352 107.129 -20.9961 C 95.7031 -7.8125 92.334 -0.390625 97.7051 4.98047 C 102.734 10.0098 110.84 6.10352 121.24 -3.32031 C 128.564 -9.81445 134.277 -15.625 134.912 -14.8926 C 135.693 -14.1113 134.033 -10.5957 130.322 -6.83594 C 128.369 -4.83398 128.516 -1.75781 130.518 0.244141 C 132.568 2.19727 135.645 1.70898 137.891 -1.07422 Z"/>
  </g>
  <g id="Semibold-L" transform="matrix(1 0 0 1 1964.24 1556)">
   <path d="M 138.623 -0.0488281 C 145.41 -7.61719 147.07 -16.7969 142.334 -21.4355 C 136.23 -27.5391 127.93 -21.9238 118.701 -13.2324 C 110.791 -5.9082 106.738 -2.09961 105.908 -2.92969 C 105.176 -3.66211 108.496 -7.61719 117.92 -18.2129 C 131.738 -33.5449 138.574 -44.873 130.713 -52.3926 C 123.096 -59.7656 112.061 -51.6113 95.459 -36.377 C 82.4219 -24.3164 72.3145 -14.502 68.2617 -18.5547 C 65.2344 -21.5332 70.0684 -27.3926 86.7676 -46.3867 C 110.156 -72.9492 122.412 -92.2852 112.305 -101.953 C 102.539 -111.182 91.5039 -102.979 61.4746 -78.2715 C 39.3066 -60.0586 26.1719 -51.5137 16.5039 -46.6797 C 13.3789 -45.0195 12.0605 -41.9922 13.3301 -39.1113 C 14.5996 -36.2793 17.9199 -35.3027 21.4844 -37.1094 C 31.4453 -41.9434 46.3867 -52.0996 68.2129 -70.0195 C 93.75 -90.9668 100.83 -97.2168 104.59 -93.457 C 109.18 -88.916 99.4141 -76.123 78.5156 -52.8809 C 56.1523 -27.9785 51.2207 -17.5781 59.4727 -9.27734 C 69.043 0.292969 82.7637 -10.1562 101.611 -27.4902 C 116.504 -41.1133 121.289 -45.8008 123.193 -43.8477 C 125.293 -41.6992 120.361 -36.6699 106.738 -20.8984 C 95.1172 -7.4707 91.9922 0.146484 97.5586 5.71289 C 102.832 10.9863 110.986 7.37305 121.582 -2.14844 C 128.711 -8.49609 134.473 -14.3555 134.766 -13.916 C 135.449 -13.3301 133.887 -10.4492 130.322 -6.78711 C 128.125 -4.49219 128.223 -1.02539 130.518 1.2207 C 132.861 3.4668 136.182 2.88086 138.623 -0.0488281 Z"/>
  </g>
  <g id="Bold-L" transform="matrix(1 0 0 1 2260.51 1556)">
   <path d="M 139.648 1.26953 C 146.582 -6.29883 147.949 -15.7715 142.969 -20.7031 C 136.377 -27.2949 127.588 -21.8262 118.506 -13.2324 C 110.938 -6.15234 107.422 -2.68555 107.031 -3.17383 C 106.592 -3.4668 110.01 -7.51953 118.945 -17.3828 C 133.008 -32.7148 139.502 -44.873 131.348 -52.5391 C 123.486 -59.9609 112.5 -52.5391 95.4102 -36.8652 C 81.4941 -24.0234 72.5586 -15.332 69.1406 -18.7988 C 66.5527 -21.3379 70.8008 -26.6113 88.0371 -46.0938 C 111.914 -73.0469 123.291 -92.334 112.939 -101.953 C 102.734 -111.426 90.9668 -103.076 60.8887 -78.4668 C 39.3066 -60.791 26.1719 -52.3438 17.1387 -47.7051 C 13.5254 -45.8008 11.9629 -42.2363 13.3789 -38.9648 C 14.8926 -35.6445 18.7012 -34.5703 22.9004 -36.6699 C 32.1777 -41.2109 47.0703 -51.2695 68.7012 -68.9453 C 94.5312 -90.0879 100.83 -95.4102 104.15 -92.1387 C 108.105 -88.2324 100.098 -77.2949 78.3691 -53.2715 C 54.5898 -27.0508 50.6836 -16.5527 58.9844 -8.25195 C 68.5547 1.31836 81.9824 -7.8125 102.246 -26.3672 C 118.262 -41.0156 121.289 -44.1895 122.754 -42.6758 C 124.414 -41.0156 120.703 -37.5 106.25 -20.7031 C 94.3848 -6.98242 91.5039 0.830078 97.4609 6.73828 C 102.979 12.3047 111.182 9.08203 122.021 -0.585938 C 128.906 -6.64062 134.619 -12.5977 134.619 -12.6465 C 135.059 -12.2559 133.691 -10.2051 130.322 -6.73828 C 127.783 -4.10156 127.832 0 130.469 2.53906 C 133.203 5.12695 136.963 4.39453 139.648 1.26953 Z"/>
  </g>
  <g id="Heavy-L" transform="matrix(1 0 0 1 2556.56 1556)">
   <path d="M 141.113 3.22266 C 148.291 -4.44336 149.268 -14.2578 143.945 -19.6289 C 136.621 -26.9043 127.148 -21.7285 118.213 -13.2324 C 116.406 -11.4746 114.893 -10.0098 113.623 -8.78906 C 115.381 -10.6934 117.627 -13.1836 120.41 -16.2109 C 134.863 -31.543 140.869 -44.8242 132.178 -52.7344 C 124.121 -60.1562 113.086 -53.8574 95.3613 -37.5977 C 80.1758 -23.6328 72.9004 -16.6016 70.3613 -19.1895 C 68.457 -21.0938 71.8262 -25.4883 89.8926 -45.7031 C 114.502 -73.1445 124.561 -92.3828 113.916 -101.953 C 102.93 -111.768 90.1367 -103.174 60.0586 -78.7109 C 39.3555 -61.8652 26.2207 -53.4668 18.0664 -49.1699 C 13.6719 -46.875 11.7676 -42.5781 13.4766 -38.7207 C 15.2832 -34.7656 19.873 -33.4961 25 -36.0352 C 33.2031 -40.1855 48.1445 -50.0488 69.3848 -67.3828 C 95.7031 -88.8672 100.879 -92.7734 103.467 -90.2344 C 106.543 -87.207 101.172 -78.9551 78.125 -53.8086 C 52.3926 -25.7324 49.9023 -15.0879 58.2031 -6.73828 C 67.8223 2.88086 80.9082 -4.44336 103.125 -24.8047 C 120.752 -40.9668 121.289 -41.8457 122.168 -40.9668 C 123.096 -39.9902 121.24 -38.7207 105.518 -20.459 C 93.3105 -6.34766 90.8203 1.80664 97.2656 8.25195 C 103.125 14.1602 111.426 11.5723 122.705 1.61133 C 124.805 -0.195312 126.807 -2.05078 128.564 -3.75977 C 127.539 -0.976562 128.125 2.24609 130.42 4.44336 C 133.691 7.56836 138.037 6.64062 141.113 3.22266 Z"/>
  </g>
  <g id="Black-L" transform="matrix(1 0 0 1 2852.66 1556)">
   <path d="M 142.432 4.93164 C 149.805 -2.7832 150.488 -12.9395 144.775 -18.6523 C 139.014 -24.4141 132.129 -23.3887 125.439 -19.1895 C 137.354 -32.959 141.26 -45.5078 132.959 -52.9297 C 124.707 -60.4004 113.623 -55.0781 95.3125 -38.2812 C 79.0527 -23.291 73.2422 -17.7246 71.4844 -19.4824 C 70.1172 -20.8496 72.7051 -24.4629 91.5039 -45.3125 C 116.748 -73.291 125.732 -92.4805 114.746 -102.002 C 103.174 -112.061 89.4531 -103.271 59.3262 -78.9062 C 39.4043 -62.793 26.2695 -54.4922 18.8477 -50.4883 C 13.8184 -47.8516 11.5723 -42.9199 13.5742 -38.5254 C 15.625 -33.9355 20.8984 -32.5684 26.8555 -35.4492 C 34.1309 -39.209 49.0723 -48.9746 69.9707 -65.9668 C 96.7285 -87.7441 100.879 -90.4297 102.832 -88.5254 C 105.176 -86.3281 102.1 -80.4688 77.9297 -54.2969 C 50.3906 -24.5117 49.1699 -13.8184 57.5684 -5.41992 C 67.1875 4.24805 79.9316 -1.41602 103.906 -23.3887 C 122.998 -40.8691 121.289 -39.7461 121.582 -39.4043 C 121.924 -39.0625 121.68 -39.8438 104.834 -20.2148 C 92.334 -5.71289 90.2344 2.73438 97.0703 9.57031 C 103.32 15.8203 111.67 13.7695 123.291 3.61328 C 124.854 2.29492 126.367 0.878906 127.734 -0.439453 C 127.637 1.95312 128.516 4.3457 130.42 6.15234 C 134.131 9.7168 139.014 8.59375 142.432 4.93164 Z"/>
  </g>
 </g>
</svg>
