<?xml version="1.0" encoding="UTF-8"?>
<!--Generator: Apple Native CoreSVG 123-->
<!DOCTYPE svg
PUBLIC "-//W3C//DTD SVG 1.1//EN"
       "http://www.w3.org/Graphics/SVG/1.1/DTD/svg11.dtd">
<svg version="1.1" xmlns="http://www.w3.org/2000/svg" xmlns:xlink="http://www.w3.org/1999/xlink" width="3300" height="2200">
 <!--glyph: "uni100460.medium", point size: 100.000000, font version: "Version 15.0d4e20", template writer version: "2"-->
 <g id="Notes">
  <rect height="2200" id="artboard" style="fill:white;opacity:1" width="3300" x="0" y="0"/>
  <line id="" style="fill:none;stroke:black;opacity:1;stroke-width:0.5;" x1="263" x2="3036" y1="292" y2="292"/>
  <text style="stroke:none;fill:black;font-family:-apple-system,&quot;SF Pro Display&quot;,&quot;SF Pro Text&quot;,Helvetica,sans-serif;font-weight:bold;" transform="matrix(1 0 0 1 263 322)">Weight/Scale Variations</text>
  <text style="stroke:none;fill:black;font-family:-apple-system,&quot;SF Pro Display&quot;,&quot;SF Pro Text&quot;,Helvetica,sans-serif;text-anchor:middle;" transform="matrix(1 0 0 1 559.711 322)">Ultralight</text>
  <text style="stroke:none;fill:black;font-family:-apple-system,&quot;SF Pro Display&quot;,&quot;SF Pro Text&quot;,Helvetica,sans-serif;text-anchor:middle;" transform="matrix(1 0 0 1 856.422 322)">Thin</text>
  <text style="stroke:none;fill:black;font-family:-apple-system,&quot;SF Pro Display&quot;,&quot;SF Pro Text&quot;,Helvetica,sans-serif;text-anchor:middle;" transform="matrix(1 0 0 1 1153.13 322)">Light</text>
  <text style="stroke:none;fill:black;font-family:-apple-system,&quot;SF Pro Display&quot;,&quot;SF Pro Text&quot;,Helvetica,sans-serif;text-anchor:middle;" transform="matrix(1 0 0 1 1449.84 322)">Regular</text>
  <text style="stroke:none;fill:black;font-family:-apple-system,&quot;SF Pro Display&quot;,&quot;SF Pro Text&quot;,Helvetica,sans-serif;text-anchor:middle;" transform="matrix(1 0 0 1 1746.56 322)">Medium</text>
  <text style="stroke:none;fill:black;font-family:-apple-system,&quot;SF Pro Display&quot;,&quot;SF Pro Text&quot;,Helvetica,sans-serif;text-anchor:middle;" transform="matrix(1 0 0 1 2043.27 322)">Semibold</text>
  <text style="stroke:none;fill:black;font-family:-apple-system,&quot;SF Pro Display&quot;,&quot;SF Pro Text&quot;,Helvetica,sans-serif;text-anchor:middle;" transform="matrix(1 0 0 1 2339.98 322)">Bold</text>
  <text style="stroke:none;fill:black;font-family:-apple-system,&quot;SF Pro Display&quot;,&quot;SF Pro Text&quot;,Helvetica,sans-serif;text-anchor:middle;" transform="matrix(1 0 0 1 2636.69 322)">Heavy</text>
  <text style="stroke:none;fill:black;font-family:-apple-system,&quot;SF Pro Display&quot;,&quot;SF Pro Text&quot;,Helvetica,sans-serif;text-anchor:middle;" transform="matrix(1 0 0 1 2933.4 322)">Black</text>
  <line id="" style="fill:none;stroke:black;opacity:1;stroke-width:0.5;" x1="263" x2="3036" y1="1903" y2="1903"/>
  <g id="" transform="matrix(1 0 0 1 263 1933)">
   <path d="M 9.24805 0.830078 C 13.5547 0.830078 17.1387 -2.74414 17.1387 -7.05078 C 17.1387 -11.3574 13.5449 -14.9316 9.23828 -14.9316 C 4.94141 -14.9316 1.36719 -11.3574 1.36719 -7.05078 C 1.36719 -2.74414 4.95117 0.830078 9.24805 0.830078 Z M 9.24805 -0.654297 C 5.70312 -0.654297 2.87109 -3.49609 2.87109 -7.05078 C 2.87109 -10.6055 5.69336 -13.4473 9.23828 -13.4473 C 12.793 -13.4473 15.6348 -10.6055 15.6445 -7.05078 C 15.6543 -3.49609 12.8027 -0.654297 9.24805 -0.654297 Z M 9.22852 -3.42773 C 9.69727 -3.42773 9.9707 -3.74023 9.9707 -4.25781 L 9.9707 -6.31836 L 12.1973 -6.31836 C 12.6953 -6.31836 13.0371 -6.57227 13.0371 -7.04102 C 13.0371 -7.51953 12.7148 -7.7832 12.1973 -7.7832 L 9.9707 -7.7832 L 9.9707 -10.0098 C 9.9707 -10.5273 9.69727 -10.8496 9.22852 -10.8496 C 8.75977 -10.8496 8.50586 -10.5078 8.50586 -10.0098 L 8.50586 -7.7832 L 6.29883 -7.7832 C 5.78125 -7.7832 5.44922 -7.51953 5.44922 -7.04102 C 5.44922 -6.57227 5.80078 -6.31836 6.29883 -6.31836 L 8.50586 -6.31836 L 8.50586 -4.25781 C 8.50586 -3.75977 8.75977 -3.42773 9.22852 -3.42773 Z"/>
  </g>
  <g id="" transform="matrix(1 0 0 1 281.506 1933)">
   <path d="M 11.709 2.91016 C 17.1484 2.91016 21.6699 -1.60156 21.6699 -7.05078 C 21.6699 -12.4902 17.1387 -17.0117 11.6992 -17.0117 C 6.25 -17.0117 1.74805 -12.4902 1.74805 -7.05078 C 1.74805 -1.60156 6.25977 2.91016 11.709 2.91016 Z M 11.709 1.25 C 7.09961 1.25 3.41797 -2.44141 3.41797 -7.05078 C 3.41797 -11.6504 7.08984 -15.3516 11.6992 -15.3516 C 16.2988 -15.3516 20 -11.6504 20.0098 -7.05078 C 20.0195 -2.44141 16.3086 1.25 11.709 1.25 Z M 11.6797 -2.41211 C 12.207 -2.41211 12.5195 -2.77344 12.5195 -3.33984 L 12.5195 -6.23047 L 15.5762 -6.23047 C 16.123 -6.23047 16.5039 -6.51367 16.5039 -7.03125 C 16.5039 -7.55859 16.1426 -7.86133 15.5762 -7.86133 L 12.5195 -7.86133 L 12.5195 -10.9277 C 12.5195 -11.5039 12.207 -11.8555 11.6797 -11.8555 C 11.1621 -11.8555 10.8789 -11.4844 10.8789 -10.9277 L 10.8789 -7.86133 L 7.83203 -7.86133 C 7.25586 -7.86133 6.89453 -7.55859 6.89453 -7.03125 C 6.89453 -6.51367 7.28516 -6.23047 7.83203 -6.23047 L 10.8789 -6.23047 L 10.8789 -3.33984 C 10.8789 -2.79297 11.1621 -2.41211 11.6797 -2.41211 Z"/>
  </g>
  <g id="" transform="matrix(1 0 0 1 304.914 1933)">
   <path d="M 14.9707 5.67383 C 21.9336 5.67383 27.6855 -0.078125 27.6855 -7.04102 C 27.6855 -14.0039 21.9238 -19.7559 14.9609 -19.7559 C 7.99805 -19.7559 2.25586 -14.0039 2.25586 -7.04102 C 2.25586 -0.078125 8.00781 5.67383 14.9707 5.67383 Z M 14.9707 3.85742 C 8.92578 3.85742 4.08203 -1.00586 4.08203 -7.04102 C 4.08203 -13.0762 8.91602 -17.9395 14.9609 -17.9395 C 20.9961 -17.9395 25.8594 -13.0762 25.8691 -7.04102 C 25.8789 -1.00586 21.0059 3.85742 14.9707 3.85742 Z M 14.9414 -1.06445 C 15.5176 -1.06445 15.8594 -1.45508 15.8594 -2.06055 L 15.8594 -6.13281 L 20.0977 -6.13281 C 20.6934 -6.13281 21.1133 -6.46484 21.1133 -7.02148 C 21.1133 -7.59766 20.7227 -7.93945 20.0977 -7.93945 L 15.8594 -7.93945 L 15.8594 -12.1875 C 15.8594 -12.8027 15.5176 -13.1934 14.9414 -13.1934 C 14.3848 -13.1934 14.0625 -12.7832 14.0625 -12.1875 L 14.0625 -7.93945 L 9.82422 -7.93945 C 9.20898 -7.93945 8.80859 -7.59766 8.80859 -7.02148 C 8.80859 -6.46484 9.23828 -6.13281 9.82422 -6.13281 L 14.0625 -6.13281 L 14.0625 -2.06055 C 14.0625 -1.47461 14.3848 -1.06445 14.9414 -1.06445 Z"/>
  </g>
  <text style="stroke:none;fill:black;font-family:-apple-system,&quot;SF Pro Display&quot;,&quot;SF Pro Text&quot;,Helvetica,sans-serif;font-weight:bold;" transform="matrix(1 0 0 1 263 1953)">Design Variations</text>
  <text style="stroke:none;fill:black;font-family:-apple-system,&quot;SF Pro Display&quot;,&quot;SF Pro Text&quot;,Helvetica,sans-serif;" transform="matrix(1 0 0 1 263 1971)">Symbols are supported in up to nine weights and three scales.</text>
  <text style="stroke:none;fill:black;font-family:-apple-system,&quot;SF Pro Display&quot;,&quot;SF Pro Text&quot;,Helvetica,sans-serif;" transform="matrix(1 0 0 1 263 1989)">For optimal layout with text and other symbols, vertically align</text>
  <text style="stroke:none;fill:black;font-family:-apple-system,&quot;SF Pro Display&quot;,&quot;SF Pro Text&quot;,Helvetica,sans-serif;" transform="matrix(1 0 0 1 263 2007)">symbols with the adjacent text.</text>
  <rect height="14" id="" style="fill:#00AEEF;stroke:none;opacity:0.4;" width="3" x="776" y="1919"/>
  <g id="" transform="matrix(1 0 0 1 779 1933)">
   <path d="M 10.5273 0 L 12.373 0 L 7.17773 -14.0918 L 5.43945 -14.0918 L 0.244141 0 L 2.08984 0 L 3.50586 -4.0332 L 9.11133 -4.0332 Z M 6.2793 -11.9531 L 6.33789 -11.9531 L 8.59375 -5.52734 L 4.02344 -5.52734 Z"/>
  </g>
  <rect height="14" id="" style="fill:#00AEEF;stroke:none;opacity:0.4;" width="3" x="791.617" y="1919"/>
  <text style="stroke:none;fill:black;font-family:-apple-system,&quot;SF Pro Display&quot;,&quot;SF Pro Text&quot;,Helvetica,sans-serif;font-weight:bold;" transform="matrix(1 0 0 1 776 1953)">Side Bearings</text>
  <text style="stroke:none;fill:black;font-family:-apple-system,&quot;SF Pro Display&quot;,&quot;SF Pro Text&quot;,Helvetica,sans-serif;" transform="matrix(1 0 0 1 776 1971)">Horizontal padding on the left and right side of each symbol</text>
  <text style="stroke:none;fill:black;font-family:-apple-system,&quot;SF Pro Display&quot;,&quot;SF Pro Text&quot;,Helvetica,sans-serif;" transform="matrix(1 0 0 1 776 1989)">can be adjusted by modifying the width of the blue rectangles.</text>
  <text style="stroke:none;fill:black;font-family:-apple-system,&quot;SF Pro Display&quot;,&quot;SF Pro Text&quot;,Helvetica,sans-serif;" transform="matrix(1 0 0 1 776 2007)">Modifications are automatically applied proportionally to all</text>
  <text style="stroke:none;fill:black;font-family:-apple-system,&quot;SF Pro Display&quot;,&quot;SF Pro Text&quot;,Helvetica,sans-serif;" transform="matrix(1 0 0 1 776 2025)">scales and weights.</text>
  <g id="" transform="matrix(1 0 0 1 1289 1933)">
   <path d="M 2.96875 2.35352 L 3.80859 3.19336 C 4.84375 4.22852 6.12305 4.15039 7.19727 2.97852 L 16.1621 -6.82617 C 16.5527 -6.74805 16.9629 -6.8457 17.4902 -7.02148 C 18.1738 -7.25586 18.2715 -7.25586 18.3887 -7.13867 C 18.5352 -7.01172 18.4863 -6.89453 18.2422 -6.25 C 17.8809 -5.33203 17.8125 -4.79492 18.5547 -4.02344 L 19.4238 -3.13477 C 20.2734 -2.24609 21.3281 -2.26562 22.2168 -3.14453 L 25.0586 -5.97656 C 25.9473 -6.86523 25.957 -7.92969 25.0781 -8.7793 L 24.1797 -9.64844 C 23.4082 -10.4004 22.8711 -10.3516 21.9629 -9.98047 C 21.3184 -9.72656 21.2012 -9.6875 21.0645 -9.81445 C 20.9375 -9.93164 20.9473 -10.0391 21.1816 -10.7129 C 21.5332 -11.6895 21.5723 -12.2852 20.752 -13.0957 L 19.3359 -14.5117 C 15.1953 -18.6133 11.2305 -18.7402 7.65625 -15.4395 C 7.08008 -14.9023 6.99219 -14.1504 7.53906 -13.6133 L 7.79297 -13.3594 C 8.22266 -12.9297 8.86719 -12.8418 9.41406 -13.1152 C 11.0645 -13.9453 12.2559 -14.0234 13.457 -12.9785 L 13.0273 -11.416 C 12.8516 -10.8008 12.793 -10.3418 12.9199 -9.93164 L 3.18359 -1.04492 C 2.02148 0.0292969 1.93359 1.32812 2.96875 2.35352 Z M 8.96484 -14.4922 C 8.89648 -14.5703 8.86719 -14.6582 8.99414 -14.7559 C 11.709 -17.2852 15.0391 -16.8457 18.3496 -13.5254 L 19.6973 -12.168 C 20.0879 -11.7773 20.0977 -11.582 19.8828 -10.8691 C 19.6582 -10.127 19.502 -9.53125 20.1465 -8.88672 C 20.8105 -8.22266 21.2891 -8.41797 22.207 -8.63281 C 22.9004 -8.79883 23.0664 -8.79883 23.4473 -8.41797 L 24.0918 -7.77344 C 24.4043 -7.48047 24.4141 -7.32422 24.0723 -6.97266 L 21.2207 -4.13086 C 20.8887 -3.79883 20.7227 -3.79883 20.4297 -4.10156 L 19.7852 -4.75586 C 19.4141 -5.13672 19.4141 -5.30273 19.5801 -6.01562 C 19.7852 -6.88477 19.9805 -7.38281 19.3262 -8.04688 C 18.6719 -8.7207 18.0762 -8.57422 17.3438 -8.33008 C 16.5625 -8.06641 16.3281 -8.06641 15.8984 -8.49609 L 14.6094 -9.78516 C 14.1699 -10.2246 14.1309 -10.4395 14.2676 -10.9082 L 15.0293 -13.3984 C 13.3887 -15.2832 11.4941 -15.5566 9.20898 -14.4434 C 9.11133 -14.3945 9.04297 -14.4141 8.96484 -14.4922 Z M 3.96484 1.36719 C 3.52539 0.927734 3.54492 0.537109 4.14062 -0.00976562 L 13.7402 -8.81836 L 15 -7.55859 L 6.17188 2.02148 C 5.625 2.60742 5.24414 2.64648 4.79492 2.19727 Z"/>
  </g>
  <text style="stroke:none;fill:black;font-family:-apple-system,&quot;SF Pro Display&quot;,&quot;SF Pro Text&quot;,Helvetica,sans-serif;font-weight:bold;" transform="matrix(1 0 0 1 1289 1953)">Exporting</text>
  <text style="stroke:none;fill:black;font-family:-apple-system,&quot;SF Pro Display&quot;,&quot;SF Pro Text&quot;,Helvetica,sans-serif;" transform="matrix(1 0 0 1 1289 1971)">Symbols should be outlined when exporting to ensure the</text>
  <text style="stroke:none;fill:black;font-family:-apple-system,&quot;SF Pro Display&quot;,&quot;SF Pro Text&quot;,Helvetica,sans-serif;" transform="matrix(1 0 0 1 1289 1989)">design is preserved when submitting to Xcode.</text>
  <text id="template-version" style="stroke:none;fill:black;font-family:-apple-system,&quot;SF Pro Display&quot;,&quot;SF Pro Text&quot;,Helvetica,sans-serif;text-anchor:end;" transform="matrix(1 0 0 1 3036 1933)">Template v.0.1</text>
  <text style="stroke:none;fill:black;font-family:-apple-system,&quot;SF Pro Display&quot;,&quot;SF Pro Text&quot;,Helvetica,sans-serif;text-anchor:end;" transform="matrix(1 0 0 1 3036 1951)">Generated from selection.pin.in.out</text>
  <text style="stroke:none;fill:black;font-family:-apple-system,&quot;SF Pro Display&quot;,&quot;SF Pro Text&quot;,Helvetica,sans-serif;text-anchor:end;" transform="matrix(1 0 0 1 3036 1969)">Typeset at 100 points</text>
  <text style="stroke:none;fill:black;font-family:-apple-system,&quot;SF Pro Display&quot;,&quot;SF Pro Text&quot;,Helvetica,sans-serif;" transform="matrix(1 0 0 1 263 726)">Small</text>
  <text style="stroke:none;fill:black;font-family:-apple-system,&quot;SF Pro Display&quot;,&quot;SF Pro Text&quot;,Helvetica,sans-serif;" transform="matrix(1 0 0 1 263 1156)">Medium</text>
  <text style="stroke:none;fill:black;font-family:-apple-system,&quot;SF Pro Display&quot;,&quot;SF Pro Text&quot;,Helvetica,sans-serif;" transform="matrix(1 0 0 1 263 1586)">Large</text>
 </g>
 <g id="Guides">
  <g id="H-reference" style="fill:#27AAE1;stroke:none;" transform="matrix(1 0 0 1 339 696)">
   <path d="M 54.9316 0 L 57.666 0 L 30.5664 -70.459 L 28.0762 -70.459 L 0.976562 0 L 3.66211 0 L 12.9395 -24.4629 L 45.7031 -24.4629 Z M 29.1992 -67.0898 L 29.4434 -67.0898 L 44.8242 -26.709 L 13.8184 -26.709 Z"/>
  </g>
  <line id="Baseline-S" style="fill:none;stroke:#27AAE1;opacity:1;stroke-width:0.577;" x1="263" x2="3036" y1="696" y2="696"/>
  <line id="Capline-S" style="fill:none;stroke:#27AAE1;opacity:1;stroke-width:0.577;" x1="263" x2="3036" y1="625.541" y2="625.541"/>
  <g id="H-reference" style="fill:#27AAE1;stroke:none;" transform="matrix(1 0 0 1 339 1126)">
   <path d="M 54.9316 0 L 57.666 0 L 30.5664 -70.459 L 28.0762 -70.459 L 0.976562 0 L 3.66211 0 L 12.9395 -24.4629 L 45.7031 -24.4629 Z M 29.1992 -67.0898 L 29.4434 -67.0898 L 44.8242 -26.709 L 13.8184 -26.709 Z"/>
  </g>
  <line id="Baseline-M" style="fill:none;stroke:#27AAE1;opacity:1;stroke-width:0.577;" x1="263" x2="3036" y1="1126" y2="1126"/>
  <line id="Capline-M" style="fill:none;stroke:#27AAE1;opacity:1;stroke-width:0.577;" x1="263" x2="3036" y1="1055.54" y2="1055.54"/>
  <g id="H-reference" style="fill:#27AAE1;stroke:none;" transform="matrix(1 0 0 1 339 1556)">
   <path d="M 54.9316 0 L 57.666 0 L 30.5664 -70.459 L 28.0762 -70.459 L 0.976562 0 L 3.66211 0 L 12.9395 -24.4629 L 45.7031 -24.4629 Z M 29.1992 -67.0898 L 29.4434 -67.0898 L 44.8242 -26.709 L 13.8184 -26.709 Z"/>
  </g>
  <line id="Baseline-L" style="fill:none;stroke:#27AAE1;opacity:1;stroke-width:0.577;" x1="263" x2="3036" y1="1556" y2="1556"/>
  <line id="Capline-L" style="fill:none;stroke:#27AAE1;opacity:1;stroke-width:0.577;" x1="263" x2="3036" y1="1485.54" y2="1485.54"/>
  <rect height="119.336" id="left-margin" style="fill:#00AEEF;stroke:none;opacity:0.4;" width="12.4512" x="1397.5" y="1030.79"/>
  <rect height="119.336" id="right-margin" style="fill:#00AEEF;stroke:none;opacity:0.4;" width="12.5" x="1489.69" y="1030.79"/>
 </g>
 <g id="Symbols">
  <g id="Ultralight-S" transform="matrix(1 0 0 1 519.33 696)">
   <path d="M 21.875 -9.42383 L 64.4043 -9.42383 L 64.4043 4.19922 C 61.8652 4.6875 59.9121 6.98242 59.9121 9.61914 C 59.9121 12.6953 62.4023 15.1855 65.4297 15.1855 C 68.5059 15.1855 70.9961 12.6953 70.9961 9.61914 C 70.9961 6.98242 69.0918 4.73633 66.6016 4.19922 L 66.6016 -53.3691 C 66.6016 -58.252 64.0625 -60.791 59.1797 -60.791 L 16.6504 -60.791 L 16.6504 -74.4629 C 19.043 -75.0488 20.8496 -77.1973 20.8496 -79.834 C 20.8496 -82.8613 18.3594 -85.3516 15.2832 -85.3516 C 12.3047 -85.3516 9.76562 -82.8613 9.76562 -79.834 C 9.76562 -77.0508 11.8164 -74.7559 14.4531 -74.3652 L 14.4531 -16.8457 C 14.4531 -11.9629 16.9434 -9.42383 21.875 -9.42383 Z M 22.0215 -11.6211 C 18.457 -11.6211 16.6504 -13.3789 16.6504 -16.9434 L 16.6504 -58.5938 L 58.9844 -58.5938 C 62.5977 -58.5938 64.4043 -56.8359 64.4043 -53.2715 L 64.4043 -11.6211 Z"/>
  </g>
  <g id="Thin-S" transform="matrix(1 0 0 1 815.87 696)">
   <path d="M 22.6074 -8.78906 L 63.8672 -8.78906 L 63.8672 3.75977 C 61.4258 4.49219 59.6191 6.78711 59.6191 9.42383 C 59.6191 12.6465 62.2559 15.2832 65.4785 15.2832 C 68.7012 15.2832 71.3379 12.6465 71.3379 9.42383 C 71.3379 6.78711 69.5801 4.54102 67.1387 3.80859 L 67.1387 -52.6367 C 67.1387 -58.1055 64.3555 -60.9375 58.8379 -60.9375 L 17.4805 -60.9375 L 17.4805 -73.5352 C 19.8242 -74.3164 21.4844 -76.5137 21.4844 -79.1016 C 21.4844 -82.3242 18.8965 -84.9609 15.625 -84.9609 C 12.4512 -84.9609 9.76562 -82.3242 9.76562 -79.1016 C 9.76562 -76.3672 11.6699 -74.1211 14.1602 -73.4375 L 14.1602 -17.1875 C 14.1602 -11.6211 16.9922 -8.78906 22.6074 -8.78906 Z M 22.6562 -11.9629 C 19.1895 -11.9629 17.4805 -13.7207 17.4805 -17.1875 L 17.4805 -57.7148 L 58.6426 -57.7148 C 62.1094 -57.7148 63.8672 -55.957 63.8672 -52.5391 L 63.8672 -11.9629 Z"/>
  </g>
  <g id="Light-S" transform="matrix(1 0 0 1 1112.24 696)">
   <path d="M 24.0234 -7.56836 L 62.8418 -7.56836 L 62.8418 3.125 C 60.5957 4.15039 59.0332 6.39648 59.0332 8.98438 C 59.0332 12.5977 61.9629 15.4785 65.5273 15.4785 C 69.1406 15.4785 72.0215 12.5977 72.0215 8.98438 C 72.0215 6.44531 70.459 4.15039 68.2617 3.125 L 68.2617 -51.2207 C 68.2617 -57.8613 64.8438 -61.1816 58.2031 -61.1816 L 19.043 -61.1816 L 19.043 -71.9238 C 21.2402 -72.9492 22.7051 -75.1953 22.7051 -77.7832 C 22.7051 -81.2988 19.8242 -84.2285 16.2598 -84.2285 C 12.6953 -84.2285 9.76562 -81.2988 9.76562 -77.7832 C 9.76562 -75.0977 11.377 -72.8516 13.623 -71.8262 L 13.623 -17.8223 C 13.623 -10.9863 17.0898 -7.56836 24.0234 -7.56836 Z M 23.9258 -12.6953 C 20.7031 -12.6953 19.043 -14.4531 19.043 -17.627 L 19.043 -56.0547 L 57.959 -56.0547 C 61.1816 -56.0547 62.8418 -54.2969 62.8418 -51.123 L 62.8418 -12.6953 Z"/>
  </g>
  <g id="Regular-S" transform="matrix(1 0 0 1 1408.71 696)">
   <path d="M 25.0488 -6.64062 L 62.0605 -6.64062 L 62.0605 2.73438 C 60.0098 3.95508 58.6426 6.15234 58.6426 8.69141 C 58.6426 12.5488 61.7676 15.625 65.5762 15.625 C 69.4336 15.625 72.5098 12.5488 72.5098 8.69141 C 72.5098 6.15234 71.1426 3.90625 69.0918 2.68555 L 69.0918 -50.1953 C 69.0918 -57.666 65.2832 -61.377 57.7637 -61.377 L 20.2637 -61.377 L 20.2637 -70.752 C 22.3145 -71.9727 23.6816 -74.1699 23.6816 -76.7578 C 23.6816 -80.5664 20.5566 -83.6914 16.6992 -83.6914 C 12.8906 -83.6914 9.76562 -80.5664 9.76562 -76.7578 C 9.76562 -74.1699 11.1328 -71.9238 13.1836 -70.752 L 13.1836 -18.2617 C 13.1836 -10.5469 17.1875 -6.64062 25.0488 -6.64062 Z M 24.9023 -13.2324 C 21.8262 -13.2324 20.2637 -14.9902 20.2637 -17.9688 L 20.2637 -54.834 L 57.4219 -54.834 C 60.498 -54.834 62.0605 -53.0762 62.0605 -50.0977 L 62.0605 -13.2324 Z"/>
  </g>
  <g id="Medium-S" transform="matrix(1 0 0 1 1704.64 696)">
   <path d="M 25.4395 -6.25 L 62.1094 -6.25 L 62.1094 2.68555 C 60.0586 4.05273 58.6914 6.39648 58.6914 9.08203 C 58.6914 13.2812 62.1582 16.748 66.4062 16.748 C 70.6055 16.748 74.0723 13.2812 74.0723 9.08203 C 74.0723 6.39648 72.8027 4.10156 70.8008 2.73438 L 70.8008 -50.9277 C 70.8008 -58.6914 66.6504 -62.793 58.7891 -62.793 L 21.7285 -62.793 L 21.7285 -71.7285 C 23.7793 -73.1445 25.1465 -75.4883 25.1465 -78.125 C 25.1465 -82.4219 21.7773 -85.791 17.4805 -85.791 C 13.2324 -85.791 9.76562 -82.373 9.76562 -78.125 C 9.76562 -75.5371 11.084 -73.2422 13.0859 -71.8262 L 13.0859 -18.457 C 13.0859 -10.4492 17.334 -6.25 25.4395 -6.25 Z M 26.0254 -14.5508 C 23.1934 -14.5508 21.7285 -16.1133 21.7285 -18.8965 L 21.7285 -54.4922 L 57.8613 -54.4922 C 60.6445 -54.4922 62.1094 -52.9297 62.1094 -50.1465 L 62.1094 -14.5508 Z"/>
  </g>
  <g id="Semibold-S" transform="matrix(1 0 0 1 2000.74 696)">
   <path d="M 25.7324 -5.95703 L 62.1582 -5.95703 L 62.1582 2.68555 C 60.1074 4.19922 58.7402 6.5918 58.7402 9.375 C 58.7402 13.8184 62.5 17.627 67.041 17.627 C 71.4844 17.627 75.293 13.8184 75.293 9.375 C 75.293 6.5918 74.0234 4.24805 72.0703 2.73438 L 72.0703 -51.5137 C 72.0703 -59.5215 67.6758 -63.8672 59.6191 -63.8672 L 22.8516 -63.8672 L 22.8516 -72.5098 C 24.9512 -74.0723 26.3184 -76.5137 26.3184 -79.1504 C 26.3184 -83.8379 22.7051 -87.4512 18.0176 -87.4512 C 13.5254 -87.4512 9.76562 -83.7402 9.76562 -79.1504 C 9.76562 -76.5625 11.0352 -74.2188 12.9883 -72.7051 L 12.9883 -18.5547 C 12.9883 -10.3516 17.4316 -5.95703 25.7324 -5.95703 Z M 26.8555 -15.5762 C 24.2188 -15.5762 22.8516 -16.9434 22.8516 -19.6289 L 22.8516 -54.248 L 58.1543 -54.248 C 60.791 -54.248 62.1582 -52.832 62.1582 -50.1465 L 62.1582 -15.5762 Z"/>
  </g>
  <g id="Bold-S" transform="matrix(1 0 0 1 2296.67 696)">
   <path d="M 26.0742 -5.56641 L 62.2559 -5.56641 L 62.2559 2.68555 C 60.1562 4.3457 58.8379 6.88477 58.8379 9.7168 C 58.8379 14.502 62.9395 18.75 67.8711 18.75 C 72.6562 18.75 76.8555 14.502 76.8555 9.7168 C 76.8555 6.88477 75.6836 4.44336 73.7793 2.83203 L 73.7793 -52.2461 C 73.7793 -60.5957 69.0918 -65.2832 60.6934 -65.2832 L 24.3652 -65.2832 L 24.3652 -73.584 C 26.416 -75.293 27.7832 -77.832 27.7832 -80.5664 C 27.7832 -85.6934 23.9258 -89.5508 18.7988 -89.5508 C 13.8672 -89.5508 9.76562 -85.5469 9.76562 -80.5664 C 9.76562 -77.9785 10.9375 -75.5371 12.8418 -73.877 L 12.8418 -18.7012 C 12.8418 -10.2539 17.5781 -5.56641 26.0742 -5.56641 Z M 28.0273 -16.9434 C 25.5859 -16.9434 24.3652 -18.1152 24.3652 -20.6055 L 24.3652 -53.9062 L 58.5938 -53.9062 C 60.9863 -53.9062 62.2559 -52.7344 62.2559 -50.1953 L 62.2559 -16.9434 Z"/>
  </g>
  <g id="Heavy-S" transform="matrix(1 0 0 1 2592.23 696)">
   <path d="M 26.6113 -4.98047 L 62.3047 -4.98047 L 62.3047 2.73438 C 60.2539 4.58984 58.9355 7.27539 58.9355 10.2539 C 58.9355 15.5762 63.5254 20.4102 69.043 20.4102 C 74.3652 20.4102 79.1504 15.5762 79.1504 10.2539 C 79.1504 7.32422 78.0762 4.78516 76.2695 2.97852 L 76.2695 -53.3203 C 76.2695 -62.1582 71.0938 -67.334 62.2559 -67.334 L 26.5625 -67.334 L 26.5625 -75.1953 C 28.6133 -77.0508 29.9805 -79.7363 29.9805 -82.5684 C 29.9805 -88.4277 25.7324 -92.6758 19.873 -92.6758 C 14.3555 -92.6758 9.76562 -88.1836 9.76562 -82.5684 C 9.76562 -79.9805 10.8398 -77.4902 12.6465 -75.6836 L 12.6465 -18.9453 C 12.6465 -10.1562 17.8223 -4.98047 26.6113 -4.98047 Z M 29.6875 -18.8965 C 27.5879 -18.8965 26.5625 -19.7266 26.5625 -22.0215 L 26.5625 -53.418 L 59.2285 -53.418 C 61.2793 -53.418 62.3047 -52.5391 62.3047 -50.293 L 62.3047 -18.8965 Z"/>
  </g>
  <g id="Black-S" transform="matrix(1 0 0 1 2887.92 696)">
   <path d="M 27.0996 -4.44336 L 62.4023 -4.44336 L 62.4023 2.83203 C 60.3516 4.83398 59.0332 7.61719 59.0332 10.7422 C 59.0332 16.4551 64.1113 21.8262 70.1172 21.8262 C 75.9277 21.8262 81.2012 16.4551 81.2012 10.7422 C 81.2012 7.71484 80.2246 5.12695 78.4668 3.17383 L 78.4668 -54.2969 C 78.4668 -63.5254 72.9004 -69.1406 63.6719 -69.1406 L 28.5156 -69.1406 L 28.5156 -76.6113 C 30.5664 -78.6621 31.9336 -81.4941 31.9336 -84.375 C 31.9336 -90.8203 27.2949 -95.459 20.8496 -95.459 C 14.7949 -95.459 9.76562 -90.5273 9.76562 -84.375 C 9.76562 -81.7871 10.791 -79.2969 12.4512 -77.3438 L 12.4512 -19.1895 C 12.4512 -10.0098 18.0176 -4.44336 27.0996 -4.44336 Z M 31.1523 -20.6543 C 29.3945 -20.6543 28.5156 -21.1914 28.5156 -23.2422 L 28.5156 -52.9785 L 59.7656 -52.9785 C 61.5234 -52.9785 62.4023 -52.3926 62.4023 -50.3418 L 62.4023 -20.6543 Z"/>
  </g>
  <g id="Ultralight-M" transform="matrix(1 0 0 1 508.246 1126)">
   <path d="M 27.6855 -2.53906 L 82.373 -2.53906 L 82.373 15.2344 C 79.1016 15.8203 76.5625 18.7012 76.5625 22.1191 C 76.5625 25.9277 79.7363 29.0527 83.4961 29.0527 C 87.3535 29.0527 90.4785 25.9277 90.4785 22.1191 C 90.4785 18.75 88.0371 15.8691 84.7656 15.2832 L 84.7656 -3.41797 C 84.8145 -3.51562 84.8145 -3.61328 84.8145 -3.75977 C 84.8145 -3.85742 84.8145 -3.95508 84.7656 -4.05273 L 84.7656 -58.6426 C 84.7656 -64.6973 81.6895 -67.7734 75.6348 -67.7734 L 20.9473 -67.7734 L 20.9473 -85.6445 C 24.0234 -86.3281 26.3672 -89.0625 26.3672 -92.4316 C 26.3672 -96.1914 23.2422 -99.3652 19.4336 -99.3652 C 15.625 -99.3652 12.4512 -96.1914 12.4512 -92.4316 C 12.4512 -88.8672 15.1367 -85.9375 18.5547 -85.498 L 18.5547 -66.8945 C 18.5059 -66.7969 18.5059 -66.6992 18.5059 -66.6016 C 18.5059 -66.4551 18.5059 -66.3574 18.5547 -66.2598 L 18.5547 -11.6699 C 18.5547 -5.61523 21.6309 -2.53906 27.6855 -2.53906 Z M 27.8809 -4.93164 C 23.2422 -4.93164 20.9473 -7.17773 20.9473 -11.8164 L 20.9473 -65.3809 L 75.4395 -65.3809 C 80.0781 -65.3809 82.373 -63.1348 82.373 -58.4961 L 82.373 -4.93164 Z"/>
  </g>
  <g id="Thin-M" transform="matrix(1 0 0 1 804.762 1126)">
   <path d="M 28.4668 -1.80664 L 81.7871 -1.80664 L 81.7871 14.7949 C 78.6133 15.5762 76.2207 18.457 76.2207 21.875 C 76.2207 25.9277 79.541 29.1504 83.5449 29.1504 C 87.5977 29.1504 90.8691 25.9277 90.8691 21.875 C 90.8691 18.5059 88.5742 15.625 85.4004 14.7949 L 85.4004 -57.8125 C 85.4004 -64.5508 81.9824 -67.9199 75.293 -67.9199 L 21.8262 -67.9199 L 21.8262 -84.6191 C 24.9023 -85.498 27.0996 -88.2812 27.0996 -91.6504 C 27.0996 -95.6055 23.8281 -98.9258 19.7754 -98.9258 C 15.7715 -98.9258 12.4512 -95.6055 12.4512 -91.6504 C 12.4512 -88.1348 14.9414 -85.2051 18.2129 -84.4727 L 18.2129 -12.0117 C 18.2129 -5.27344 21.6797 -1.80664 28.4668 -1.80664 Z M 28.6133 -5.37109 C 24.1211 -5.37109 21.8262 -7.61719 21.8262 -12.0605 L 21.8262 -64.4043 L 75.0488 -64.4043 C 79.541 -64.4043 81.7871 -62.1582 81.7871 -57.7148 L 81.7871 -5.37109 Z"/>
  </g>
  <g id="Light-M" transform="matrix(1 0 0 1 1101.08 1126)">
   <path d="M 30.0781 -0.439453 L 80.6152 -0.439453 L 80.6152 13.9648 C 77.6855 15.1855 75.5859 18.0664 75.5859 21.3867 C 75.5859 25.8301 79.248 29.3945 83.5938 29.3945 C 88.0371 29.3945 91.6016 25.8301 91.6016 21.3867 C 91.6016 18.0664 89.5996 15.1855 86.6699 14.0137 L 86.6699 -56.25 C 86.6699 -64.209 82.5684 -68.2617 74.5605 -68.2617 L 23.6328 -68.2617 L 23.6328 -82.7148 C 26.5137 -83.9355 28.4668 -86.7676 28.4668 -90.0879 C 28.4668 -94.4824 24.9023 -98.0957 20.459 -98.0957 C 16.1133 -98.0957 12.4512 -94.4824 12.4512 -90.0879 C 12.4512 -86.6699 14.5996 -83.7891 17.627 -82.6172 L 17.627 -12.7441 C 17.627 -4.54102 21.7773 -0.439453 30.0781 -0.439453 Z M 30.0293 -6.15234 C 25.7812 -6.15234 23.6328 -8.39844 23.6328 -12.5488 L 23.6328 -62.5488 L 74.2676 -62.5488 C 78.4668 -62.5488 80.6152 -60.3027 80.6152 -56.1035 L 80.6152 -6.15234 Z"/>
  </g>
  <g id="Regular-M" transform="matrix(1 0 0 1 1397.5 1126)">
   <path d="M 31.25 0.585938 L 79.7363 0.585938 L 79.7363 13.4766 C 77.002 14.8926 75.0977 17.7734 75.0977 21.0449 C 75.0977 25.7812 79.0039 29.5898 83.6426 29.5898 C 88.4277 29.5898 92.1875 25.7812 92.1875 21.0449 C 92.1875 17.7734 90.332 14.8926 87.5977 13.4766 L 87.5977 -55.0781 C 87.5977 -64.0137 83.0078 -68.457 74.0234 -68.457 L 25 -68.457 L 25 -81.3965 C 27.7344 -82.8125 29.541 -85.6445 29.541 -88.916 C 29.541 -93.6035 25.7324 -97.4609 20.9961 -97.4609 C 16.3086 -97.4609 12.4512 -93.6035 12.4512 -88.916 C 12.4512 -85.5957 14.3555 -82.7148 17.1387 -81.2988 L 17.1387 -13.2812 C 17.1387 -4.05273 21.875 0.585938 31.25 0.585938 Z M 31.1035 -6.78711 C 27.0508 -6.78711 25 -9.0332 25 -12.9395 L 25 -61.084 L 73.6328 -61.084 C 77.6855 -61.084 79.7363 -58.8379 79.7363 -54.9316 L 79.7363 -6.78711 Z"/>
  </g>
  <g id="Medium-M" transform="matrix(1 0 0 1 1693.38 1126)">
   <path d="M 31.7871 1.12305 L 79.6875 1.12305 L 79.6875 13.3789 C 77.002 14.9902 75.1465 18.0176 75.1465 21.3867 C 75.1465 26.5137 79.3945 30.7617 84.5215 30.7617 C 89.6484 30.7617 93.8965 26.5137 93.8965 21.3867 C 93.8965 18.0176 92.1387 15.0391 89.4531 13.3789 L 89.4531 -55.6641 C 89.4531 -65.0391 84.4727 -69.9219 75.0488 -69.9219 L 26.709 -69.9219 L 26.709 -82.2266 C 29.3945 -83.8867 31.2012 -86.8652 31.2012 -90.1855 C 31.2012 -95.4102 27.0996 -99.5605 21.8262 -99.5605 C 16.6992 -99.5605 12.4512 -95.3613 12.4512 -90.1855 C 12.4512 -86.8652 14.2578 -83.8867 16.9434 -82.2266 L 16.9434 -13.4766 C 16.9434 -3.85742 22.0215 1.12305 31.7871 1.12305 Z M 32.373 -8.20312 C 28.6133 -8.20312 26.709 -10.2539 26.709 -13.9648 L 26.709 -60.5957 L 74.0234 -60.5957 C 77.7832 -60.5957 79.6875 -58.5938 79.6875 -54.834 L 79.6875 -8.20312 Z"/>
  </g>
  <g id="Semibold-M" transform="matrix(1 0 0 1 1989.46 1126)">
   <path d="M 32.1777 1.51367 L 79.6875 1.51367 L 79.6875 13.3301 C 76.9531 15.0879 75.1465 18.1641 75.1465 21.6309 C 75.1465 27.0508 79.6875 31.6406 85.1562 31.6406 C 90.5762 31.6406 95.166 27.0508 95.166 21.6309 C 95.166 18.1641 93.457 15.1367 90.8691 13.3789 L 90.8691 -56.1523 C 90.8691 -65.8691 85.5957 -71.0449 75.8301 -71.0449 L 27.9785 -71.0449 L 27.9785 -82.8613 C 30.6641 -84.7168 32.4707 -87.793 32.4707 -91.1621 C 32.4707 -96.7773 28.125 -101.172 22.4609 -101.172 C 16.9922 -101.172 12.4512 -96.6797 12.4512 -91.1621 C 12.4512 -87.8418 14.209 -84.8145 16.7969 -82.959 L 16.7969 -13.6719 C 16.7969 -3.75977 22.168 1.51367 32.1777 1.51367 Z M 33.3496 -9.32617 C 29.7852 -9.32617 27.9785 -11.1816 27.9785 -14.7461 L 27.9785 -60.2051 L 74.3164 -60.2051 C 77.8809 -60.2051 79.6875 -58.3496 79.6875 -54.7852 L 79.6875 -9.32617 Z"/>
  </g>
  <g id="Bold-M" transform="matrix(1 0 0 1 2285.31 1126)">
   <path d="M 32.7148 2.09961 L 79.6387 2.09961 L 79.6387 13.2324 C 76.9531 15.2344 75.1953 18.4082 75.1953 21.9727 C 75.1953 27.7832 80.0781 32.8125 86.0352 32.8125 C 91.8457 32.8125 96.8262 27.7832 96.8262 21.9727 C 96.8262 18.4082 95.2637 15.332 92.7246 13.3789 L 92.7246 -56.7871 C 92.7246 -66.9434 87.0605 -72.5098 76.9043 -72.5098 L 29.6875 -72.5098 L 29.6875 -83.7891 C 32.373 -85.791 34.1309 -89.0137 34.1309 -92.4316 C 34.1309 -98.584 29.4922 -103.271 23.291 -103.271 C 17.3828 -103.271 12.4512 -98.4375 12.4512 -92.4316 C 12.4512 -89.1113 14.1113 -86.0352 16.6016 -84.0332 L 16.6016 -13.916 C 16.6016 -3.61328 22.3145 2.09961 32.7148 2.09961 Z M 34.668 -10.7422 C 31.3477 -10.7422 29.6875 -12.4023 29.6875 -15.7715 L 29.6875 -59.7168 L 74.6582 -59.7168 C 77.9785 -59.7168 79.6387 -58.0566 79.6387 -54.6875 L 79.6387 -10.7422 Z"/>
  </g>
  <g id="Heavy-M" transform="matrix(1 0 0 1 2580.81 1126)">
   <path d="M 33.4473 2.88086 L 79.5898 2.88086 L 79.5898 13.2324 C 76.9043 15.4297 75.1953 18.75 75.1953 22.5098 C 75.1953 28.8574 80.6641 34.5215 87.2559 34.5215 C 93.6523 34.5215 99.3164 28.8574 99.3164 22.5098 C 99.3164 18.7988 97.8516 15.625 95.4102 13.4277 L 95.4102 -57.666 C 95.4102 -68.5059 89.209 -74.6582 78.3691 -74.6582 L 32.1289 -74.6582 L 32.1289 -85.2051 C 34.8145 -87.4512 36.5723 -90.7715 36.5723 -94.2871 C 36.5723 -101.221 31.4453 -106.348 24.5117 -106.348 C 17.9199 -106.348 12.4512 -100.977 12.4512 -94.2871 C 12.4512 -91.0156 13.9648 -87.8418 16.3086 -85.5957 L 16.3086 -14.209 C 16.3086 -3.36914 22.5586 2.88086 33.4473 2.88086 Z M 36.5234 -12.8906 C 33.6426 -12.8906 32.1289 -14.1602 32.1289 -17.2852 L 32.1289 -58.9355 L 75.1953 -58.9355 C 78.125 -58.9355 79.5898 -57.6172 79.5898 -54.541 L 79.5898 -12.8906 Z"/>
  </g>
  <g id="Black-M" transform="matrix(1 0 0 1 2876.42 1126)">
   <path d="M 34.1309 3.56445 L 79.541 3.56445 L 79.541 13.2324 C 76.9043 15.625 75.2441 19.0918 75.2441 22.9492 C 75.2441 29.7852 81.2012 36.084 88.3789 36.084 C 95.2637 36.084 101.465 29.7852 101.465 22.9492 C 101.465 19.1406 100.146 15.918 97.8027 13.5742 L 97.8027 -58.4961 C 97.8027 -69.873 91.1133 -76.5625 79.7363 -76.5625 L 34.3262 -76.5625 L 34.3262 -86.4746 C 37.0117 -88.916 38.7207 -92.3828 38.7207 -95.9473 C 38.7207 -103.564 33.2031 -109.082 25.5859 -109.082 C 18.4082 -109.082 12.4512 -103.271 12.4512 -95.9473 C 12.4512 -92.6758 13.8184 -89.5508 16.0645 -87.1582 L 16.0645 -14.5508 C 16.0645 -3.17383 22.7539 3.56445 34.1309 3.56445 Z M 38.2324 -14.7461 C 35.6445 -14.7461 34.3262 -15.7715 34.3262 -18.6035 L 34.3262 -58.3008 L 75.6348 -58.3008 C 78.2227 -58.3008 79.541 -57.2266 79.541 -54.3945 L 79.541 -14.7461 Z"/>
  </g>
  <g id="Ultralight-L" transform="matrix(1 0 0 1 493.378 1556)">
   <path d="M 35.3516 6.64062 L 106.543 6.64062 L 106.543 30.127 C 102.295 30.7129 98.9258 34.4727 98.9258 38.8672 C 98.9258 43.7012 102.93 47.6562 107.764 47.6562 C 112.598 47.6562 116.553 43.7012 116.553 38.8672 C 116.553 34.5215 113.33 30.8105 109.131 30.127 L 109.131 6.20117 C 109.277 5.95703 109.424 5.71289 109.424 5.32227 C 109.424 4.98047 109.277 4.6875 109.131 4.49219 L 109.131 -65.7715 C 109.131 -73.291 105.273 -77.1484 97.7539 -77.1484 L 26.6113 -77.1484 L 26.6113 -100.732 C 30.6641 -101.514 33.6914 -105.078 33.6914 -109.375 C 33.6914 -114.16 29.7852 -118.164 24.9023 -118.164 C 20.1172 -118.164 16.0645 -114.16 16.0645 -109.375 C 16.0645 -104.785 19.6289 -101.025 24.0723 -100.586 L 24.0723 -76.709 C 23.877 -76.5137 23.7305 -76.2207 23.7305 -75.8789 C 23.7305 -75.4883 23.877 -75.2441 24.0723 -75 L 24.0723 -4.6875 C 24.0723 2.83203 27.8809 6.64062 35.3516 6.64062 Z M 35.6445 4.05273 C 29.5898 4.05273 26.6113 1.12305 26.6113 -4.88281 L 26.6113 -74.5605 L 97.5098 -74.5605 C 103.564 -74.5605 106.543 -71.6797 106.543 -65.625 L 106.543 4.05273 Z"/>
  </g>
  <g id="Thin-L" transform="matrix(1 0 0 1 789.894 1556)">
   <path d="M 36.2305 7.42188 L 105.908 7.42188 L 105.908 29.5898 C 101.758 30.4688 98.584 34.2285 98.584 38.5742 C 98.584 43.7012 102.783 47.8027 107.764 47.8027 C 112.891 47.8027 116.992 43.7012 116.992 38.5742 C 116.992 34.2285 113.916 30.5176 109.814 29.5898 L 109.814 -64.8926 C 109.814 -73.1445 105.615 -77.3438 97.3633 -77.3438 L 27.6367 -77.3438 L 27.6367 -99.5605 C 31.5918 -100.586 34.5215 -104.199 34.5215 -108.496 C 34.5215 -113.525 30.4199 -117.676 25.293 -117.676 C 20.2637 -117.676 16.0645 -113.525 16.0645 -108.496 C 16.0645 -103.906 19.4336 -100.146 23.6816 -99.4141 L 23.6816 -5.07812 C 23.6816 3.22266 27.9297 7.42188 36.2305 7.42188 Z M 36.4258 3.56445 C 30.5664 3.56445 27.6367 0.683594 27.6367 -5.17578 L 27.6367 -73.4863 L 97.0703 -73.4863 C 102.93 -73.4863 105.908 -70.5566 105.908 -64.6973 L 105.908 3.56445 Z"/>
  </g>
  <g id="Light-L" transform="matrix(1 0 0 1 1086.17 1556)">
   <path d="M 38.0371 8.98438 L 104.59 8.98438 L 104.59 28.6133 C 100.684 29.9805 97.8516 33.7402 97.8516 38.0859 C 97.8516 43.6035 102.393 48.0469 107.861 48.0469 C 113.379 48.0469 117.871 43.6035 117.871 38.0859 C 117.871 33.7891 115.088 30.0293 111.23 28.6621 L 111.23 -63.1348 C 111.23 -72.8027 106.25 -77.6855 96.582 -77.6855 L 29.6387 -77.6855 L 29.6387 -97.4121 C 33.3984 -98.8281 36.084 -102.49 36.084 -106.787 C 36.084 -112.256 31.6406 -116.748 26.0742 -116.748 C 20.6055 -116.748 16.0645 -112.256 16.0645 -106.787 C 16.0645 -102.295 19.043 -98.5352 22.998 -97.2656 L 22.998 -5.85938 C 22.998 4.00391 28.0762 8.98438 38.0371 8.98438 Z M 38.0371 2.68555 C 32.4707 2.68555 29.6387 -0.244141 29.6387 -5.76172 L 29.6387 -71.3867 L 96.1914 -71.3867 C 101.758 -71.3867 104.59 -68.457 104.59 -62.9395 L 104.59 2.68555 Z"/>
  </g>
  <g id="Regular-L" transform="matrix(1 0 0 1 1382.56 1556)">
   <path d="M 39.3555 10.1562 L 103.613 10.1562 L 103.613 28.0273 C 99.9023 29.6875 97.3145 33.3984 97.3145 37.6953 C 97.3145 43.5547 102.1 48.291 107.91 48.291 C 113.77 48.291 118.506 43.5547 118.506 37.6953 C 118.506 33.3984 115.967 29.6875 112.256 28.0273 L 112.256 -61.7676 C 112.256 -72.5586 106.787 -77.9297 95.9473 -77.9297 L 31.1523 -77.9297 L 31.1523 -95.8496 C 34.7656 -97.5586 37.2559 -101.221 37.2559 -105.469 C 37.2559 -111.279 32.5684 -116.064 26.6602 -116.064 C 20.8984 -116.064 16.0645 -111.279 16.0645 -105.469 C 16.0645 -101.074 18.75 -97.3633 22.5098 -95.752 L 22.5098 -6.44531 C 22.5098 4.58984 28.1738 10.1562 39.3555 10.1562 Z M 39.2578 2.00195 C 33.8867 2.00195 31.1523 -0.927734 31.1523 -6.15234 L 31.1523 -69.7754 L 95.5078 -69.7754 C 100.879 -69.7754 103.613 -66.8945 103.613 -61.6211 L 103.613 2.00195 Z"/>
  </g>
  <g id="Medium-L" transform="matrix(1 0 0 1 1678.44 1556)">
   <path d="M 40.0391 10.8398 L 103.418 10.8398 L 103.418 27.7832 C 99.7559 29.6875 97.2656 33.5449 97.2656 37.9395 C 97.2656 44.1895 102.441 49.3652 108.691 49.3652 C 114.99 49.3652 120.166 44.1895 120.166 37.9395 C 120.166 33.5449 117.725 29.7363 114.16 27.832 L 114.16 -62.1094 C 114.16 -73.4375 108.203 -79.3457 96.7773 -79.3457 L 32.959 -79.3457 L 32.959 -96.3379 C 36.5234 -98.291 38.9648 -102.1 38.9648 -106.396 C 38.9648 -112.744 33.9355 -117.871 27.5391 -117.871 C 21.2891 -117.871 16.0645 -112.695 16.0645 -106.396 C 16.0645 -102.051 18.6035 -98.1934 22.2168 -96.2891 L 22.2168 -6.78711 C 22.2168 4.83398 28.3203 10.8398 40.0391 10.8398 Z M 40.625 0.537109 C 35.5469 0.537109 32.959 -2.14844 32.959 -7.17773 L 32.959 -69.043 L 95.752 -69.043 C 100.83 -69.043 103.418 -66.3574 103.418 -61.2793 L 103.418 0.537109 Z"/>
  </g>
  <g id="Semibold-L" transform="matrix(1 0 0 1 1974.52 1556)">
   <path d="M 40.625 11.377 L 103.223 11.377 L 103.223 27.6367 C 99.6582 29.7363 97.168 33.6426 97.168 38.0859 C 97.168 44.6777 102.686 50.1953 109.277 50.1953 C 115.918 50.1953 121.387 44.6777 121.387 38.0859 C 121.387 33.6426 119.092 29.7852 115.576 27.6855 L 115.576 -62.3535 C 115.576 -74.1699 109.277 -80.3711 97.4121 -80.3711 L 34.375 -80.3711 L 34.375 -96.7285 C 37.8906 -98.877 40.2832 -102.734 40.2832 -107.129 C 40.2832 -113.867 35.0098 -119.238 28.1738 -119.238 C 21.582 -119.238 16.0645 -113.77 16.0645 -107.129 C 16.0645 -102.734 18.5059 -98.877 22.0215 -96.7285 L 22.0215 -7.03125 C 22.0215 5.0293 28.4668 11.377 40.625 11.377 Z M 41.6992 -0.537109 C 36.8164 -0.537109 34.375 -3.07617 34.375 -7.95898 L 34.375 -68.457 L 95.8984 -68.457 C 100.781 -68.457 103.223 -65.918 103.223 -61.0352 L 103.223 -0.537109 Z"/>
  </g>
  <g id="Bold-L" transform="matrix(1 0 0 1 2270.4 1556)">
   <path d="M 41.3574 12.0605 L 103.027 12.0605 L 103.027 27.4902 C 99.4629 29.7852 97.1191 33.7891 97.1191 38.3301 C 97.1191 45.3613 102.979 51.3184 110.107 51.3184 C 117.139 51.3184 123.096 45.3613 123.096 38.3301 C 123.096 33.7891 120.898 29.8828 117.48 27.5879 L 117.48 -62.6953 C 117.48 -75.0977 110.693 -81.7871 98.291 -81.7871 L 36.1816 -81.7871 L 36.1816 -97.2656 C 39.6973 -99.6094 42.041 -103.613 42.041 -108.057 C 42.041 -115.332 36.4258 -121.045 29.0527 -121.045 C 21.9727 -121.045 16.0645 -115.186 16.0645 -108.057 C 16.0645 -103.711 18.3594 -99.7559 21.7285 -97.3633 L 21.7285 -7.32422 C 21.7285 5.27344 28.6133 12.0605 41.3574 12.0605 Z M 43.1152 -2.00195 C 38.5254 -2.00195 36.1816 -4.3457 36.1816 -8.98438 L 36.1816 -67.6758 L 96.0938 -67.6758 C 100.684 -67.6758 103.027 -65.332 103.027 -60.6934 L 103.027 -2.00195 Z"/>
  </g>
  <g id="Heavy-L" transform="matrix(1 0 0 1 2565.91 1556)">
   <path d="M 42.3828 13.0859 L 102.734 13.0859 L 102.734 27.2949 C 99.2676 29.8828 96.9727 34.0332 96.9727 38.7207 C 96.9727 46.2891 103.467 52.9297 111.23 52.9297 C 118.896 52.9297 125.488 46.2891 125.488 38.7207 C 125.488 34.0332 123.486 30.0293 120.215 27.4902 L 120.215 -63.1836 C 120.215 -76.4648 112.793 -83.7891 99.5117 -83.7891 L 38.8672 -83.7891 L 38.8672 -98.1445 C 42.2852 -100.781 44.5801 -104.932 44.5801 -109.375 C 44.5801 -117.48 38.4766 -123.633 30.3223 -123.633 C 22.5586 -123.633 16.0645 -117.285 16.0645 -109.375 C 16.0645 -105.127 18.1641 -101.123 21.3379 -98.4375 L 21.3379 -7.8125 C 21.3379 5.66406 28.8574 13.0859 42.3828 13.0859 Z M 45.166 -4.10156 C 40.9668 -4.10156 38.8672 -6.15234 38.8672 -10.4492 L 38.8672 -66.6016 L 96.4355 -66.6016 C 100.586 -66.6016 102.734 -64.5508 102.734 -60.2539 L 102.734 -4.10156 Z"/>
  </g>
  <g id="Black-L" transform="matrix(1 0 0 1 2861.53 1556)">
   <path d="M 43.3105 14.0137 L 102.441 14.0137 L 102.441 27.1973 C 99.0723 30.0293 96.875 34.2773 96.875 39.0137 C 96.875 47.1191 103.857 54.3945 112.256 54.3945 C 120.459 54.3945 127.637 47.1191 127.637 39.0137 C 127.637 34.3262 125.781 30.2246 122.656 27.4902 L 122.656 -63.5742 C 122.656 -77.6367 114.648 -85.5957 100.586 -85.5957 L 41.2109 -85.5957 L 41.2109 -98.9746 C 44.6289 -101.855 46.8262 -106.104 46.8262 -110.596 C 46.8262 -119.434 40.2832 -125.977 31.4453 -125.977 C 23.0469 -125.977 16.0645 -119.141 16.0645 -110.596 C 16.0645 -106.348 17.9688 -102.344 20.9961 -99.5117 L 20.9961 -8.20312 C 20.9961 6.00586 29.0527 14.0137 43.3105 14.0137 Z M 46.9727 -6.00586 C 43.1641 -6.00586 41.2109 -7.76367 41.2109 -11.7676 L 41.2109 -65.5762 L 96.6797 -65.5762 C 100.488 -65.5762 102.441 -63.8184 102.441 -59.8145 L 102.441 -6.00586 Z"/>
  </g>
 </g>
</svg>
