<?xml version="1.0" encoding="UTF-8"?>
<!--Generator: Apple Native CoreSVG 123-->
<!DOCTYPE svg
PUBLIC "-//W3C//DTD SVG 1.1//EN"
       "http://www.w3.org/Graphics/SVG/1.1/DTD/svg11.dtd">
<svg version="1.1" xmlns="http://www.w3.org/2000/svg" xmlns:xlink="http://www.w3.org/1999/xlink" width="3300" height="2200">
 <!--glyph: "uni10041C.medium", point size: 100.000000, font version: "Version 15.0d4e20", template writer version: "2"-->
 <g id="Notes">
  <rect height="2200" id="artboard" style="fill:white;opacity:1" width="3300" x="0" y="0"/>
  <line id="" style="fill:none;stroke:black;opacity:1;stroke-width:0.5;" x1="263" x2="3036" y1="292" y2="292"/>
  <text style="stroke:none;fill:black;font-family:-apple-system,&quot;SF Pro Display&quot;,&quot;SF Pro Text&quot;,Helvetica,sans-serif;font-weight:bold;" transform="matrix(1 0 0 1 263 322)">Weight/Scale Variations</text>
  <text style="stroke:none;fill:black;font-family:-apple-system,&quot;SF Pro Display&quot;,&quot;SF Pro Text&quot;,Helvetica,sans-serif;text-anchor:middle;" transform="matrix(1 0 0 1 559.711 322)">Ultralight</text>
  <text style="stroke:none;fill:black;font-family:-apple-system,&quot;SF Pro Display&quot;,&quot;SF Pro Text&quot;,Helvetica,sans-serif;text-anchor:middle;" transform="matrix(1 0 0 1 856.422 322)">Thin</text>
  <text style="stroke:none;fill:black;font-family:-apple-system,&quot;SF Pro Display&quot;,&quot;SF Pro Text&quot;,Helvetica,sans-serif;text-anchor:middle;" transform="matrix(1 0 0 1 1153.13 322)">Light</text>
  <text style="stroke:none;fill:black;font-family:-apple-system,&quot;SF Pro Display&quot;,&quot;SF Pro Text&quot;,Helvetica,sans-serif;text-anchor:middle;" transform="matrix(1 0 0 1 1449.84 322)">Regular</text>
  <text style="stroke:none;fill:black;font-family:-apple-system,&quot;SF Pro Display&quot;,&quot;SF Pro Text&quot;,Helvetica,sans-serif;text-anchor:middle;" transform="matrix(1 0 0 1 1746.56 322)">Medium</text>
  <text style="stroke:none;fill:black;font-family:-apple-system,&quot;SF Pro Display&quot;,&quot;SF Pro Text&quot;,Helvetica,sans-serif;text-anchor:middle;" transform="matrix(1 0 0 1 2043.27 322)">Semibold</text>
  <text style="stroke:none;fill:black;font-family:-apple-system,&quot;SF Pro Display&quot;,&quot;SF Pro Text&quot;,Helvetica,sans-serif;text-anchor:middle;" transform="matrix(1 0 0 1 2339.98 322)">Bold</text>
  <text style="stroke:none;fill:black;font-family:-apple-system,&quot;SF Pro Display&quot;,&quot;SF Pro Text&quot;,Helvetica,sans-serif;text-anchor:middle;" transform="matrix(1 0 0 1 2636.69 322)">Heavy</text>
  <text style="stroke:none;fill:black;font-family:-apple-system,&quot;SF Pro Display&quot;,&quot;SF Pro Text&quot;,Helvetica,sans-serif;text-anchor:middle;" transform="matrix(1 0 0 1 2933.4 322)">Black</text>
  <line id="" style="fill:none;stroke:black;opacity:1;stroke-width:0.5;" x1="263" x2="3036" y1="1903" y2="1903"/>
  <g id="" transform="matrix(1 0 0 1 263 1933)">
   <path d="M 9.24805 0.830078 C 13.5547 0.830078 17.1387 -2.74414 17.1387 -7.05078 C 17.1387 -11.3574 13.5449 -14.9316 9.23828 -14.9316 C 4.94141 -14.9316 1.36719 -11.3574 1.36719 -7.05078 C 1.36719 -2.74414 4.95117 0.830078 9.24805 0.830078 Z M 9.24805 -0.654297 C 5.70312 -0.654297 2.87109 -3.49609 2.87109 -7.05078 C 2.87109 -10.6055 5.69336 -13.4473 9.23828 -13.4473 C 12.793 -13.4473 15.6348 -10.6055 15.6445 -7.05078 C 15.6543 -3.49609 12.8027 -0.654297 9.24805 -0.654297 Z M 9.22852 -3.42773 C 9.69727 -3.42773 9.9707 -3.74023 9.9707 -4.25781 L 9.9707 -6.31836 L 12.1973 -6.31836 C 12.6953 -6.31836 13.0371 -6.57227 13.0371 -7.04102 C 13.0371 -7.51953 12.7148 -7.7832 12.1973 -7.7832 L 9.9707 -7.7832 L 9.9707 -10.0098 C 9.9707 -10.5273 9.69727 -10.8496 9.22852 -10.8496 C 8.75977 -10.8496 8.50586 -10.5078 8.50586 -10.0098 L 8.50586 -7.7832 L 6.29883 -7.7832 C 5.78125 -7.7832 5.44922 -7.51953 5.44922 -7.04102 C 5.44922 -6.57227 5.80078 -6.31836 6.29883 -6.31836 L 8.50586 -6.31836 L 8.50586 -4.25781 C 8.50586 -3.75977 8.75977 -3.42773 9.22852 -3.42773 Z"/>
  </g>
  <g id="" transform="matrix(1 0 0 1 281.506 1933)">
   <path d="M 11.709 2.91016 C 17.1484 2.91016 21.6699 -1.60156 21.6699 -7.05078 C 21.6699 -12.4902 17.1387 -17.0117 11.6992 -17.0117 C 6.25 -17.0117 1.74805 -12.4902 1.74805 -7.05078 C 1.74805 -1.60156 6.25977 2.91016 11.709 2.91016 Z M 11.709 1.25 C 7.09961 1.25 3.41797 -2.44141 3.41797 -7.05078 C 3.41797 -11.6504 7.08984 -15.3516 11.6992 -15.3516 C 16.2988 -15.3516 20 -11.6504 20.0098 -7.05078 C 20.0195 -2.44141 16.3086 1.25 11.709 1.25 Z M 11.6797 -2.41211 C 12.207 -2.41211 12.5195 -2.77344 12.5195 -3.33984 L 12.5195 -6.23047 L 15.5762 -6.23047 C 16.123 -6.23047 16.5039 -6.51367 16.5039 -7.03125 C 16.5039 -7.55859 16.1426 -7.86133 15.5762 -7.86133 L 12.5195 -7.86133 L 12.5195 -10.9277 C 12.5195 -11.5039 12.207 -11.8555 11.6797 -11.8555 C 11.1621 -11.8555 10.8789 -11.4844 10.8789 -10.9277 L 10.8789 -7.86133 L 7.83203 -7.86133 C 7.25586 -7.86133 6.89453 -7.55859 6.89453 -7.03125 C 6.89453 -6.51367 7.28516 -6.23047 7.83203 -6.23047 L 10.8789 -6.23047 L 10.8789 -3.33984 C 10.8789 -2.79297 11.1621 -2.41211 11.6797 -2.41211 Z"/>
  </g>
  <g id="" transform="matrix(1 0 0 1 304.914 1933)">
   <path d="M 14.9707 5.67383 C 21.9336 5.67383 27.6855 -0.078125 27.6855 -7.04102 C 27.6855 -14.0039 21.9238 -19.7559 14.9609 -19.7559 C 7.99805 -19.7559 2.25586 -14.0039 2.25586 -7.04102 C 2.25586 -0.078125 8.00781 5.67383 14.9707 5.67383 Z M 14.9707 3.85742 C 8.92578 3.85742 4.08203 -1.00586 4.08203 -7.04102 C 4.08203 -13.0762 8.91602 -17.9395 14.9609 -17.9395 C 20.9961 -17.9395 25.8594 -13.0762 25.8691 -7.04102 C 25.8789 -1.00586 21.0059 3.85742 14.9707 3.85742 Z M 14.9414 -1.06445 C 15.5176 -1.06445 15.8594 -1.45508 15.8594 -2.06055 L 15.8594 -6.13281 L 20.0977 -6.13281 C 20.6934 -6.13281 21.1133 -6.46484 21.1133 -7.02148 C 21.1133 -7.59766 20.7227 -7.93945 20.0977 -7.93945 L 15.8594 -7.93945 L 15.8594 -12.1875 C 15.8594 -12.8027 15.5176 -13.1934 14.9414 -13.1934 C 14.3848 -13.1934 14.0625 -12.7832 14.0625 -12.1875 L 14.0625 -7.93945 L 9.82422 -7.93945 C 9.20898 -7.93945 8.80859 -7.59766 8.80859 -7.02148 C 8.80859 -6.46484 9.23828 -6.13281 9.82422 -6.13281 L 14.0625 -6.13281 L 14.0625 -2.06055 C 14.0625 -1.47461 14.3848 -1.06445 14.9414 -1.06445 Z"/>
  </g>
  <text style="stroke:none;fill:black;font-family:-apple-system,&quot;SF Pro Display&quot;,&quot;SF Pro Text&quot;,Helvetica,sans-serif;font-weight:bold;" transform="matrix(1 0 0 1 263 1953)">Design Variations</text>
  <text style="stroke:none;fill:black;font-family:-apple-system,&quot;SF Pro Display&quot;,&quot;SF Pro Text&quot;,Helvetica,sans-serif;" transform="matrix(1 0 0 1 263 1971)">Symbols are supported in up to nine weights and three scales.</text>
  <text style="stroke:none;fill:black;font-family:-apple-system,&quot;SF Pro Display&quot;,&quot;SF Pro Text&quot;,Helvetica,sans-serif;" transform="matrix(1 0 0 1 263 1989)">For optimal layout with text and other symbols, vertically align</text>
  <text style="stroke:none;fill:black;font-family:-apple-system,&quot;SF Pro Display&quot;,&quot;SF Pro Text&quot;,Helvetica,sans-serif;" transform="matrix(1 0 0 1 263 2007)">symbols with the adjacent text.</text>
  <rect height="14" id="" style="fill:#00AEEF;stroke:none;opacity:0.4;" width="3" x="776" y="1919"/>
  <g id="" transform="matrix(1 0 0 1 779 1933)">
   <path d="M 10.5273 0 L 12.373 0 L 7.17773 -14.0918 L 5.43945 -14.0918 L 0.244141 0 L 2.08984 0 L 3.50586 -4.0332 L 9.11133 -4.0332 Z M 6.2793 -11.9531 L 6.33789 -11.9531 L 8.59375 -5.52734 L 4.02344 -5.52734 Z"/>
  </g>
  <rect height="14" id="" style="fill:#00AEEF;stroke:none;opacity:0.4;" width="3" x="791.617" y="1919"/>
  <text style="stroke:none;fill:black;font-family:-apple-system,&quot;SF Pro Display&quot;,&quot;SF Pro Text&quot;,Helvetica,sans-serif;font-weight:bold;" transform="matrix(1 0 0 1 776 1953)">Side Bearings</text>
  <text style="stroke:none;fill:black;font-family:-apple-system,&quot;SF Pro Display&quot;,&quot;SF Pro Text&quot;,Helvetica,sans-serif;" transform="matrix(1 0 0 1 776 1971)">Horizontal padding on the left and right side of each symbol</text>
  <text style="stroke:none;fill:black;font-family:-apple-system,&quot;SF Pro Display&quot;,&quot;SF Pro Text&quot;,Helvetica,sans-serif;" transform="matrix(1 0 0 1 776 1989)">can be adjusted by modifying the width of the blue rectangles.</text>
  <text style="stroke:none;fill:black;font-family:-apple-system,&quot;SF Pro Display&quot;,&quot;SF Pro Text&quot;,Helvetica,sans-serif;" transform="matrix(1 0 0 1 776 2007)">Modifications are automatically applied proportionally to all</text>
  <text style="stroke:none;fill:black;font-family:-apple-system,&quot;SF Pro Display&quot;,&quot;SF Pro Text&quot;,Helvetica,sans-serif;" transform="matrix(1 0 0 1 776 2025)">scales and weights.</text>
  <g id="" transform="matrix(1 0 0 1 1289 1933)">
   <path d="M 2.96875 2.35352 L 3.80859 3.19336 C 4.84375 4.22852 6.12305 4.15039 7.19727 2.97852 L 16.1621 -6.82617 C 16.5527 -6.74805 16.9629 -6.8457 17.4902 -7.02148 C 18.1738 -7.25586 18.2715 -7.25586 18.3887 -7.13867 C 18.5352 -7.01172 18.4863 -6.89453 18.2422 -6.25 C 17.8809 -5.33203 17.8125 -4.79492 18.5547 -4.02344 L 19.4238 -3.13477 C 20.2734 -2.24609 21.3281 -2.26562 22.2168 -3.14453 L 25.0586 -5.97656 C 25.9473 -6.86523 25.957 -7.92969 25.0781 -8.7793 L 24.1797 -9.64844 C 23.4082 -10.4004 22.8711 -10.3516 21.9629 -9.98047 C 21.3184 -9.72656 21.2012 -9.6875 21.0645 -9.81445 C 20.9375 -9.93164 20.9473 -10.0391 21.1816 -10.7129 C 21.5332 -11.6895 21.5723 -12.2852 20.752 -13.0957 L 19.3359 -14.5117 C 15.1953 -18.6133 11.2305 -18.7402 7.65625 -15.4395 C 7.08008 -14.9023 6.99219 -14.1504 7.53906 -13.6133 L 7.79297 -13.3594 C 8.22266 -12.9297 8.86719 -12.8418 9.41406 -13.1152 C 11.0645 -13.9453 12.2559 -14.0234 13.457 -12.9785 L 13.0273 -11.416 C 12.8516 -10.8008 12.793 -10.3418 12.9199 -9.93164 L 3.18359 -1.04492 C 2.02148 0.0292969 1.93359 1.32812 2.96875 2.35352 Z M 8.96484 -14.4922 C 8.89648 -14.5703 8.86719 -14.6582 8.99414 -14.7559 C 11.709 -17.2852 15.0391 -16.8457 18.3496 -13.5254 L 19.6973 -12.168 C 20.0879 -11.7773 20.0977 -11.582 19.8828 -10.8691 C 19.6582 -10.127 19.502 -9.53125 20.1465 -8.88672 C 20.8105 -8.22266 21.2891 -8.41797 22.207 -8.63281 C 22.9004 -8.79883 23.0664 -8.79883 23.4473 -8.41797 L 24.0918 -7.77344 C 24.4043 -7.48047 24.4141 -7.32422 24.0723 -6.97266 L 21.2207 -4.13086 C 20.8887 -3.79883 20.7227 -3.79883 20.4297 -4.10156 L 19.7852 -4.75586 C 19.4141 -5.13672 19.4141 -5.30273 19.5801 -6.01562 C 19.7852 -6.88477 19.9805 -7.38281 19.3262 -8.04688 C 18.6719 -8.7207 18.0762 -8.57422 17.3438 -8.33008 C 16.5625 -8.06641 16.3281 -8.06641 15.8984 -8.49609 L 14.6094 -9.78516 C 14.1699 -10.2246 14.1309 -10.4395 14.2676 -10.9082 L 15.0293 -13.3984 C 13.3887 -15.2832 11.4941 -15.5566 9.20898 -14.4434 C 9.11133 -14.3945 9.04297 -14.4141 8.96484 -14.4922 Z M 3.96484 1.36719 C 3.52539 0.927734 3.54492 0.537109 4.14062 -0.00976562 L 13.7402 -8.81836 L 15 -7.55859 L 6.17188 2.02148 C 5.625 2.60742 5.24414 2.64648 4.79492 2.19727 Z"/>
  </g>
  <text style="stroke:none;fill:black;font-family:-apple-system,&quot;SF Pro Display&quot;,&quot;SF Pro Text&quot;,Helvetica,sans-serif;font-weight:bold;" transform="matrix(1 0 0 1 1289 1953)">Exporting</text>
  <text style="stroke:none;fill:black;font-family:-apple-system,&quot;SF Pro Display&quot;,&quot;SF Pro Text&quot;,Helvetica,sans-serif;" transform="matrix(1 0 0 1 1289 1971)">Symbols should be outlined when exporting to ensure the</text>
  <text style="stroke:none;fill:black;font-family:-apple-system,&quot;SF Pro Display&quot;,&quot;SF Pro Text&quot;,Helvetica,sans-serif;" transform="matrix(1 0 0 1 1289 1989)">design is preserved when submitting to Xcode.</text>
  <text id="template-version" style="stroke:none;fill:black;font-family:-apple-system,&quot;SF Pro Display&quot;,&quot;SF Pro Text&quot;,Helvetica,sans-serif;text-anchor:end;" transform="matrix(1 0 0 1 3036 1933)">Template v.0.1</text>
  <text style="stroke:none;fill:black;font-family:-apple-system,&quot;SF Pro Display&quot;,&quot;SF Pro Text&quot;,Helvetica,sans-serif;text-anchor:end;" transform="matrix(1 0 0 1 3036 1951)">Generated from square.stack.3d.down.right</text>
  <text style="stroke:none;fill:black;font-family:-apple-system,&quot;SF Pro Display&quot;,&quot;SF Pro Text&quot;,Helvetica,sans-serif;text-anchor:end;" transform="matrix(1 0 0 1 3036 1969)">Typeset at 100 points</text>
  <text style="stroke:none;fill:black;font-family:-apple-system,&quot;SF Pro Display&quot;,&quot;SF Pro Text&quot;,Helvetica,sans-serif;" transform="matrix(1 0 0 1 263 726)">Small</text>
  <text style="stroke:none;fill:black;font-family:-apple-system,&quot;SF Pro Display&quot;,&quot;SF Pro Text&quot;,Helvetica,sans-serif;" transform="matrix(1 0 0 1 263 1156)">Medium</text>
  <text style="stroke:none;fill:black;font-family:-apple-system,&quot;SF Pro Display&quot;,&quot;SF Pro Text&quot;,Helvetica,sans-serif;" transform="matrix(1 0 0 1 263 1586)">Large</text>
 </g>
 <g id="Guides">
  <g id="H-reference" style="fill:#27AAE1;stroke:none;" transform="matrix(1 0 0 1 339 696)">
   <path d="M 54.9316 0 L 57.666 0 L 30.5664 -70.459 L 28.0762 -70.459 L 0.976562 0 L 3.66211 0 L 12.9395 -24.4629 L 45.7031 -24.4629 Z M 29.1992 -67.0898 L 29.4434 -67.0898 L 44.8242 -26.709 L 13.8184 -26.709 Z"/>
  </g>
  <line id="Baseline-S" style="fill:none;stroke:#27AAE1;opacity:1;stroke-width:0.577;" x1="263" x2="3036" y1="696" y2="696"/>
  <line id="Capline-S" style="fill:none;stroke:#27AAE1;opacity:1;stroke-width:0.577;" x1="263" x2="3036" y1="625.541" y2="625.541"/>
  <g id="H-reference" style="fill:#27AAE1;stroke:none;" transform="matrix(1 0 0 1 339 1126)">
   <path d="M 54.9316 0 L 57.666 0 L 30.5664 -70.459 L 28.0762 -70.459 L 0.976562 0 L 3.66211 0 L 12.9395 -24.4629 L 45.7031 -24.4629 Z M 29.1992 -67.0898 L 29.4434 -67.0898 L 44.8242 -26.709 L 13.8184 -26.709 Z"/>
  </g>
  <line id="Baseline-M" style="fill:none;stroke:#27AAE1;opacity:1;stroke-width:0.577;" x1="263" x2="3036" y1="1126" y2="1126"/>
  <line id="Capline-M" style="fill:none;stroke:#27AAE1;opacity:1;stroke-width:0.577;" x1="263" x2="3036" y1="1055.54" y2="1055.54"/>
  <g id="H-reference" style="fill:#27AAE1;stroke:none;" transform="matrix(1 0 0 1 339 1556)">
   <path d="M 54.9316 0 L 57.666 0 L 30.5664 -70.459 L 28.0762 -70.459 L 0.976562 0 L 3.66211 0 L 12.9395 -24.4629 L 45.7031 -24.4629 Z M 29.1992 -67.0898 L 29.4434 -67.0898 L 44.8242 -26.709 L 13.8184 -26.709 Z"/>
  </g>
  <line id="Baseline-L" style="fill:none;stroke:#27AAE1;opacity:1;stroke-width:0.577;" x1="263" x2="3036" y1="1556" y2="1556"/>
  <line id="Capline-L" style="fill:none;stroke:#27AAE1;opacity:1;stroke-width:0.577;" x1="263" x2="3036" y1="1485.54" y2="1485.54"/>
  <rect height="119.336" id="left-margin" style="fill:#00AEEF;stroke:none;opacity:0.4;" width="12.4512" x="1388.13" y="1030.79"/>
  <rect height="119.336" id="right-margin" style="fill:#00AEEF;stroke:none;opacity:0.4;" width="12.5" x="1499.06" y="1030.79"/>
 </g>
 <g id="Symbols">
  <g id="Ultralight-S" transform="matrix(1 0 0 1 513.569 696)">
   <path d="M 11.8164 -12.5 C 11.9141 -12.5 12.0605 -12.5 12.1582 -12.5 L 12.1582 -52.2949 C 12.1582 -53.6621 12.6953 -54.1016 13.8184 -54.7363 L 48.0469 -73.8281 C 47.9492 -74.7559 47.3633 -75.1953 46.582 -75.1953 C 46.0938 -75.1953 45.7031 -75.0488 45.166 -74.7559 L 12.207 -56.3477 C 10.5469 -55.4199 9.76562 -54.3945 9.76562 -52.7344 L 9.76562 -14.7949 C 9.76562 -13.1836 10.6934 -12.5488 11.8164 -12.5 Z M 27.3438 -4.15039 C 27.3926 -4.15039 27.4902 -4.15039 27.5879 -4.19922 L 27.5879 -43.2617 C 27.5879 -44.6289 28.125 -45.0684 29.248 -45.7031 L 64.7949 -64.7949 C 64.7461 -65.7715 64.1113 -66.2109 63.3301 -66.2109 C 62.793 -66.2109 62.3535 -66.0156 61.8164 -65.7227 L 27.6367 -47.2656 C 25.9766 -46.3867 25.1953 -45.3613 25.1953 -43.6523 L 25.1953 -6.44531 C 25.1953 -4.83398 26.123 -4.19922 27.3438 -4.15039 Z M 43.8965 4.83398 C 44.5312 4.83398 45.0195 4.73633 45.5078 4.44336 L 78.9551 -13.4277 C 81.5918 -14.8438 82.5195 -16.5039 82.5195 -19.3359 L 82.5195 -54.6875 C 82.5195 -55.957 81.4453 -57.0312 79.9316 -57.0312 C 79.3945 -57.0312 78.7598 -56.8848 78.125 -56.543 L 45.2148 -38.1348 C 42.5293 -36.6699 41.6992 -35.1074 41.6992 -32.2266 L 41.6992 2.63672 C 41.6992 3.95508 42.6758 4.83398 43.8965 4.83398 Z M 44.6289 2.14844 C 44.2383 2.14844 43.9941 1.9043 43.9941 1.46484 L 43.9941 -32.0312 C 43.9941 -34.2285 44.4336 -35.1074 47.1191 -36.6211 L 78.9551 -54.2969 C 79.1504 -54.4434 79.2969 -54.4922 79.4434 -54.4922 C 79.8828 -54.4922 80.127 -54.1992 80.127 -53.8086 L 80.127 -19.5312 C 80.127 -17.334 79.7363 -16.3086 77.0508 -14.8926 L 45.166 2.00195 C 44.9707 2.09961 44.8242 2.14844 44.6289 2.14844 Z"/>
  </g>
  <g id="Thin-S" transform="matrix(1 0 0 1 809.669 696)">
   <path d="M 12.3535 -12.207 C 12.5977 -12.207 12.9395 -12.2559 13.2324 -12.4023 L 13.2324 -51.709 C 13.2324 -53.2227 13.7695 -53.7598 15.1367 -54.541 L 48.7793 -73.4863 C 48.7305 -75 47.8027 -75.7324 46.6797 -75.7324 C 46.0449 -75.7324 45.5566 -75.5859 44.9219 -75.2441 L 12.9395 -57.1777 C 10.6445 -55.8594 9.76562 -54.7363 9.76562 -52.1973 L 9.76562 -15.0391 C 9.76562 -13.0859 10.8398 -12.207 12.3535 -12.207 Z M 27.8809 -3.4668 C 28.125 -3.4668 28.418 -3.51562 28.7109 -3.66211 L 28.7109 -42.7734 C 28.7109 -44.3359 29.2969 -44.873 30.6152 -45.6055 L 65.7227 -64.8926 C 65.6738 -66.3574 64.6973 -67.1387 63.5742 -67.1387 C 62.9395 -67.1387 62.4023 -66.9434 61.7676 -66.5527 L 28.418 -48.2422 C 26.123 -46.9238 25.2441 -45.8008 25.2441 -43.3105 L 25.2441 -6.29883 C 25.2441 -4.3457 26.3672 -3.51562 27.8809 -3.4668 Z M 45.0684 5.41992 C 45.8984 5.41992 46.6309 5.27344 47.3145 4.88281 L 79.6387 -12.6465 C 82.5195 -14.209 83.7402 -15.9668 83.7402 -19.3848 L 83.7402 -54.541 C 83.7402 -56.543 82.3242 -58.0078 80.2246 -58.0078 C 79.4434 -58.0078 78.5645 -57.7637 77.7832 -57.3242 L 45.752 -39.209 C 42.7246 -37.4512 41.8457 -35.8398 41.8457 -32.5195 L 41.8457 2.14844 C 41.8457 4.29688 43.3594 5.41992 45.0684 5.41992 Z M 46.0449 1.46484 C 45.5566 1.46484 45.2148 1.17188 45.2148 0.634766 L 45.2148 -32.2266 C 45.2148 -34.3262 45.7031 -35.2539 48.0957 -36.5723 L 78.9551 -53.9551 C 79.1504 -54.1016 79.3457 -54.1504 79.541 -54.1504 C 79.9805 -54.1504 80.2734 -53.8574 80.2734 -53.2715 L 80.2734 -19.5801 C 80.2734 -17.3828 79.834 -16.5527 77.2949 -15.1855 L 46.6309 1.31836 C 46.4355 1.41602 46.1914 1.46484 46.0449 1.46484 Z"/>
  </g>
  <g id="Light-S" transform="matrix(1 0 0 1 1105.18 696)">
   <path d="M 13.2812 -11.6211 C 13.8672 -11.6211 14.5996 -11.7676 15.2832 -12.1582 L 15.2832 -50.5371 C 15.2832 -52.3926 15.8203 -53.0762 17.627 -54.1016 L 50.1953 -72.8516 C 50.1465 -75.3906 48.584 -76.7578 46.7773 -76.7578 C 45.9473 -76.7578 45.2637 -76.6113 44.4336 -76.123 L 14.4043 -58.7402 C 10.8887 -56.6895 9.76562 -55.2734 9.76562 -51.2207 L 9.76562 -15.4297 C 9.76562 -12.8906 11.1816 -11.6699 13.2812 -11.6211 Z M 28.9062 -2.19727 C 29.4922 -2.19727 30.1758 -2.34375 30.8594 -2.73438 L 30.8594 -41.8945 C 30.8594 -43.8477 31.4941 -44.4824 33.2031 -45.459 L 67.4316 -64.9902 C 67.4316 -67.5293 65.8691 -68.8965 64.0625 -68.8965 C 63.2324 -68.8965 62.5 -68.7012 61.6699 -68.2129 L 29.9805 -50.0977 C 26.4648 -48.0469 25.3418 -46.6309 25.3418 -42.5781 L 25.3418 -6.00586 C 25.3418 -3.4668 26.7578 -2.19727 28.9062 -2.19727 Z M 47.3633 6.5918 C 48.6328 6.5918 49.8535 6.29883 50.8789 5.71289 L 81.0059 -11.084 C 84.3262 -12.9395 86.1328 -14.9414 86.1328 -19.3848 L 86.1328 -54.3945 C 86.1328 -57.666 83.9844 -59.8145 80.7129 -59.8145 C 79.4922 -59.8145 78.2227 -59.5215 77.0996 -58.8379 L 46.875 -41.2598 C 43.0664 -39.0137 42.0898 -37.3047 42.0898 -33.1055 L 42.0898 1.26953 C 42.0898 4.98047 44.6289 6.5918 47.3633 6.5918 Z M 48.6816 0.195312 C 48.0957 0.195312 47.5586 -0.244141 47.5586 -1.02539 L 47.5586 -32.666 C 47.5586 -34.5215 48.1445 -35.4004 50.0488 -36.5234 L 78.9062 -53.3203 C 79.1992 -53.4668 79.4434 -53.5645 79.6875 -53.5645 C 80.2246 -53.5645 80.6152 -53.125 80.6152 -52.3438 L 80.6152 -19.5801 C 80.6152 -17.4805 79.9805 -16.9434 77.6855 -15.6738 L 49.4629 -0.0488281 C 49.2188 0.0976562 48.9258 0.195312 48.6816 0.195312 Z"/>
  </g>
  <g id="Regular-S" transform="matrix(1 0 0 1 1400.99 696)">
   <path d="M 14.0137 -11.2305 C 14.8438 -11.2305 15.8203 -11.4258 16.7969 -12.0117 L 16.7969 -49.6094 C 16.7969 -51.7578 17.334 -52.5391 19.5312 -53.8086 L 51.2207 -72.4121 C 51.2207 -75.7324 49.2188 -77.5391 46.875 -77.5391 C 45.8984 -77.5391 45.0195 -77.3438 44.043 -76.8066 L 15.5273 -59.9609 C 11.0352 -57.3242 9.76562 -55.7129 9.76562 -50.4883 L 9.76562 -15.7715 C 9.76562 -12.7441 11.4258 -11.2305 14.0137 -11.2305 Z M 29.6875 -1.2207 C 30.5176 -1.2207 31.4941 -1.41602 32.4707 -2.00195 L 32.4707 -41.1621 C 32.4707 -43.457 33.1543 -44.1895 35.2051 -45.3613 L 68.75 -65.0879 C 68.75 -68.4082 66.748 -70.2148 64.4043 -70.2148 C 63.4277 -70.2148 62.5488 -70.0195 61.5723 -69.4824 L 31.2012 -51.5137 C 26.709 -48.877 25.4395 -47.3145 25.4395 -42.041 L 25.4395 -5.76172 C 25.4395 -2.73438 27.0996 -1.2207 29.6875 -1.2207 Z M 49.0723 7.51953 C 50.6836 7.51953 52.2461 7.08008 53.5645 6.34766 L 81.9824 -9.86328 C 85.6934 -11.9629 87.9395 -14.209 87.9395 -19.4336 L 87.9395 -54.248 C 87.9395 -58.4961 85.2051 -61.2305 81.1035 -61.2305 C 79.541 -61.2305 77.9297 -60.791 76.6113 -60.0098 L 47.7051 -42.7734 C 43.3105 -40.1855 42.2852 -38.3789 42.2852 -33.4961 L 42.2852 0.537109 C 42.2852 5.46875 45.6055 7.51953 49.0723 7.51953 Z M 50.7324 -0.78125 C 50 -0.78125 49.3652 -1.26953 49.3652 -2.29492 L 49.3652 -32.959 C 49.3652 -34.668 49.9512 -35.5469 51.5137 -36.4746 L 78.9062 -52.832 C 79.1992 -53.0273 79.541 -53.125 79.7852 -53.125 C 80.3711 -53.125 80.8594 -52.5879 80.8594 -51.6113 L 80.8594 -19.6289 C 80.8594 -17.5781 80.0781 -17.2852 78.0273 -16.1133 L 51.6113 -1.02539 C 51.3672 -0.878906 51.0254 -0.78125 50.7324 -0.78125 Z"/>
  </g>
  <g id="Medium-S" transform="matrix(1 0 0 1 1696.73 696)">
   <path d="M 14.9414 -10.9375 C 16.0156 -10.9375 17.2852 -11.2305 18.457 -11.9141 L 18.457 -48.0957 C 18.457 -51.2695 19.2871 -52.2949 22.2168 -54.0527 L 52.5879 -71.9238 C 52.5879 -75.7324 50.2441 -78.0273 47.3633 -78.0273 C 46.1914 -78.0273 45.0684 -77.7344 43.8965 -77.0508 L 15.9668 -60.498 C 11.2793 -57.7148 9.76562 -55.6641 9.76562 -50.2441 L 9.76562 -16.2109 C 9.76562 -12.8418 11.8164 -10.9375 14.9414 -10.9375 Z M 31.2988 -1.02539 C 32.373 -1.02539 33.6426 -1.31836 34.8145 -2.00195 L 34.8145 -39.2578 C 34.8145 -42.5293 35.7422 -43.5547 38.5742 -45.2637 L 70.6543 -64.1113 C 70.6543 -67.9199 68.2617 -70.2148 65.3809 -70.2148 C 64.2578 -70.2148 63.1348 -69.9219 61.9141 -69.2383 L 32.3242 -51.709 C 27.6367 -48.9258 26.123 -46.875 26.123 -41.4551 L 26.123 -6.25 C 26.123 -2.92969 28.1738 -1.02539 31.2988 -1.02539 Z M 50.6348 8.10547 C 52.3438 8.10547 54.0527 7.66602 55.5176 6.83594 L 83.5938 -9.22852 C 87.6465 -11.5723 89.8926 -14.1602 89.8926 -19.5312 L 89.8926 -53.418 C 89.8926 -57.959 86.9141 -60.8398 82.7148 -60.8398 C 81.1523 -60.8398 79.541 -60.4004 78.1738 -59.6191 L 49.5117 -42.6758 C 44.873 -39.9414 43.5547 -37.7441 43.5547 -32.5684 L 43.5547 1.07422 C 43.5547 5.81055 46.8262 8.10547 50.6348 8.10547 Z M 53.4668 -2.29492 C 52.832 -2.29492 52.2461 -2.73438 52.2461 -3.61328 L 52.2461 -30.957 C 52.2461 -33.5938 52.7832 -34.4238 55.1758 -35.8398 L 79.3945 -50.2441 C 79.6387 -50.4395 79.9805 -50.5371 80.2246 -50.5371 C 80.8105 -50.5371 81.2012 -50.0977 81.2012 -49.2188 L 81.2012 -20.8496 C 81.2012 -18.0176 80.5176 -17.627 77.7344 -16.0156 L 54.248 -2.53906 C 54.0039 -2.39258 53.7109 -2.29492 53.4668 -2.29492 Z"/>
  </g>
  <g id="Semibold-S" transform="matrix(1 0 0 1 1992.68 696)">
   <path d="M 15.625 -10.7422 C 16.9434 -10.7422 18.3594 -11.084 19.6777 -11.8652 L 19.6777 -46.9238 C 19.6777 -50.8789 20.752 -52.1484 24.3164 -54.248 L 53.6621 -71.582 C 53.6621 -75.7324 51.0254 -78.3691 47.7051 -78.3691 C 46.4355 -78.3691 45.1172 -78.0762 43.75 -77.2461 L 16.3086 -60.9375 C 11.4746 -58.0566 9.76562 -55.6152 9.76562 -50.0977 L 9.76562 -16.5039 C 9.76562 -12.9395 12.1094 -10.7422 15.625 -10.7422 Z M 32.5195 -0.878906 C 33.8379 -0.878906 35.2539 -1.2207 36.5723 -2.00195 L 36.5723 -37.793 C 36.5723 -41.8457 37.7441 -43.0664 41.2109 -45.1172 L 72.0703 -63.3789 C 72.0703 -67.5293 69.4336 -70.166 66.1621 -70.166 C 64.8926 -70.166 63.5742 -69.8242 62.207 -69.043 L 33.2031 -51.8066 C 28.3691 -48.9746 26.6602 -46.5332 26.6602 -40.9668 L 26.6602 -6.64062 C 26.6602 -3.07617 29.0039 -0.878906 32.5195 -0.878906 Z M 51.8555 8.54492 C 53.6133 8.54492 55.4199 8.1543 56.9824 7.22656 L 84.7656 -8.74023 C 89.1602 -11.2793 91.4062 -14.1113 91.4062 -19.6289 L 91.4062 -52.832 C 91.4062 -57.5684 88.1836 -60.5469 83.9355 -60.5469 C 82.373 -60.5469 80.7617 -60.1074 79.3945 -59.3262 L 50.8789 -42.627 C 46.0449 -39.7949 44.5312 -37.207 44.5312 -31.8848 L 44.5312 1.41602 C 44.5312 6.05469 47.7539 8.54492 51.8555 8.54492 Z M 55.5664 -3.4668 C 54.9805 -3.4668 54.4434 -3.85742 54.4434 -4.58984 L 54.4434 -29.4434 C 54.4434 -32.7637 54.9316 -33.5449 58.0078 -35.3516 L 79.7363 -48.291 C 80.0293 -48.4375 80.3223 -48.5352 80.5664 -48.5352 C 81.1035 -48.5352 81.4941 -48.1445 81.4941 -47.4121 L 81.4941 -21.8262 C 81.4941 -18.3105 80.9082 -17.8711 77.5391 -15.918 L 56.2988 -3.71094 C 56.0547 -3.56445 55.7617 -3.4668 55.5664 -3.4668 Z"/>
  </g>
  <g id="Bold-S" transform="matrix(1 0 0 1 2288.39 696)">
   <path d="M 16.5527 -10.498 C 18.1152 -10.498 19.7754 -10.8887 21.3379 -11.8164 L 21.3379 -45.3613 C 21.3379 -50.3418 22.7051 -51.9043 27.0508 -54.4922 L 55.0293 -71.0938 C 55.0293 -75.7324 52.0508 -78.8574 48.1934 -78.8574 C 46.7285 -78.8574 45.166 -78.4668 43.6035 -77.4902 L 16.748 -61.4746 C 11.6699 -58.4473 9.76562 -55.5664 9.76562 -49.8535 L 9.76562 -16.9434 C 9.76562 -13.0371 12.5 -10.498 16.5527 -10.498 Z M 34.1309 -0.683594 C 35.6934 -0.683594 37.4023 -1.12305 38.916 -2.05078 L 38.916 -35.8887 C 38.916 -40.918 40.3809 -42.4316 44.6289 -45.0195 L 73.9746 -62.4023 C 73.9746 -67.041 70.9961 -70.166 67.1875 -70.166 C 65.7227 -70.166 64.1113 -69.7266 62.5488 -68.7988 L 34.3262 -52.002 C 29.3457 -49.0234 27.3438 -46.0938 27.3438 -40.3809 L 27.3438 -7.17773 C 27.3438 -3.27148 30.127 -0.683594 34.1309 -0.683594 Z M 53.4668 9.13086 C 55.3223 9.13086 57.2266 8.74023 58.8867 7.76367 L 86.377 -8.10547 C 91.1621 -10.8887 93.4082 -14.0137 93.4082 -19.7754 L 93.4082 -52.0508 C 93.4082 -57.0801 89.8438 -60.1562 85.5469 -60.1562 C 83.9844 -60.1562 82.4219 -59.7168 81.0059 -58.9355 L 52.6855 -42.5293 C 47.6562 -39.5996 45.8496 -36.5234 45.8496 -30.957 L 45.8496 1.95312 C 45.8496 6.39648 48.9746 9.13086 53.4668 9.13086 Z M 58.3008 -5.0293 C 57.8125 -5.0293 57.373 -5.32227 57.373 -5.95703 L 57.373 -27.4414 C 57.373 -31.6406 57.8125 -32.373 61.7188 -34.7168 L 80.2246 -45.6543 C 80.4688 -45.8496 80.7617 -45.9473 81.0059 -45.9473 C 81.4941 -45.9473 81.8359 -45.6055 81.8359 -45.0195 L 81.8359 -23.0957 C 81.8359 -18.75 81.3965 -18.2617 77.2461 -15.8203 L 58.9355 -5.22461 C 58.6914 -5.07812 58.4961 -5.0293 58.3008 -5.0293 Z"/>
  </g>
  <g id="Heavy-S" transform="matrix(1 0 0 1 2583.66 696)">
   <path d="M 17.8711 -10.1074 C 19.8242 -10.1074 21.875 -10.6445 23.6816 -11.7188 L 23.6816 -43.1152 C 23.6816 -49.6094 25.5371 -51.5625 31.0059 -54.834 L 57.0312 -70.4102 C 57.0312 -75.7812 53.5156 -79.541 48.9258 -79.541 C 47.168 -79.541 45.2637 -79.0527 43.3594 -77.8809 L 17.3828 -62.3047 C 12.0117 -59.082 9.76562 -55.5176 9.76562 -49.5117 L 9.76562 -17.5781 C 9.76562 -13.1836 13.0859 -10.1074 17.8711 -10.1074 Z M 36.4746 -0.439453 C 38.4277 -0.439453 40.4785 -0.976562 42.334 -2.09961 L 42.334 -33.1055 C 42.334 -39.5508 44.1895 -41.5527 49.6094 -44.7754 L 76.7578 -60.9863 C 76.7578 -66.3086 73.2422 -70.1172 68.6523 -70.1172 C 66.8945 -70.1172 64.9902 -69.5801 63.0371 -68.457 L 36.0352 -52.2949 C 30.7129 -49.0723 28.3691 -45.459 28.3691 -39.502 L 28.3691 -7.91016 C 28.3691 -3.51562 31.6895 -0.439453 36.4746 -0.439453 Z M 55.7617 10.0098 C 57.8125 10.0098 59.8145 9.61914 61.7188 8.49609 L 88.6719 -7.12891 C 94.043 -10.3027 96.2891 -13.9648 96.2891 -19.9707 L 96.2891 -50.8789 C 96.2891 -56.2988 92.2852 -59.5703 87.8906 -59.5703 C 86.377 -59.5703 84.7656 -59.1797 83.3008 -58.3496 L 55.3711 -42.3828 C 49.9023 -39.3066 47.7051 -35.5957 47.7051 -29.5898 L 47.7051 2.63672 C 47.7051 6.88477 50.7812 10.0098 55.7617 10.0098 Z M 62.3535 -7.22656 C 61.9629 -7.22656 61.6211 -7.4707 61.6211 -7.86133 L 61.6211 -24.5117 C 61.6211 -30.0293 61.9629 -30.6641 67.1387 -33.7402 L 80.9082 -41.8945 C 81.1523 -42.041 81.3965 -42.1875 81.6895 -42.1875 C 82.0801 -42.1875 82.373 -41.9434 82.373 -41.5527 L 82.373 -24.9023 C 82.373 -19.3848 82.0801 -18.75 76.8555 -15.6738 L 62.8418 -7.42188 C 62.5977 -7.27539 62.5 -7.22656 62.3535 -7.22656 Z"/>
  </g>
  <g id="Black-S" transform="matrix(1 0 0 1 2879.05 696)">
   <path d="M 19.043 -9.76562 C 21.3379 -9.76562 23.7305 -10.4004 25.8301 -11.6699 L 25.8301 -41.1133 C 25.8301 -48.9258 28.0273 -51.2695 34.5215 -55.127 L 58.8379 -69.8242 C 58.8379 -75.7812 54.8828 -80.1758 49.5605 -80.1758 C 47.6074 -80.1758 45.3613 -79.541 43.1152 -78.2227 L 17.9688 -63.0371 C 12.3535 -59.6191 9.76562 -55.4199 9.76562 -49.2188 L 9.76562 -18.1152 C 9.76562 -13.3301 13.5742 -9.76562 19.043 -9.76562 Z M 38.5742 -0.195312 C 40.8691 -0.195312 43.2617 -0.830078 45.3613 -2.09961 L 45.3613 -30.5664 C 45.3613 -38.3789 47.6074 -40.7227 54.1016 -44.6289 L 79.248 -59.7168 C 79.248 -65.6738 75.2441 -70.0684 69.9219 -70.0684 C 67.9688 -70.0684 65.7227 -69.4336 63.5254 -68.1152 L 37.5 -52.4902 C 31.9336 -49.1699 29.2969 -44.9219 29.2969 -38.7207 L 29.2969 -8.59375 C 29.2969 -3.75977 33.1543 -0.195312 38.5742 -0.195312 Z M 57.8613 10.791 C 60.0098 10.791 62.1582 10.4004 64.209 9.17969 L 90.7227 -6.29883 C 96.6309 -9.76562 98.9258 -13.8672 98.9258 -20.1172 L 98.9258 -49.8535 C 98.9258 -55.6641 94.4824 -59.0332 89.9902 -59.0332 C 88.4766 -59.0332 86.8652 -58.6426 85.3516 -57.8125 L 57.7148 -42.2363 C 51.9531 -39.0137 49.3652 -34.7168 49.3652 -28.3691 L 49.3652 3.32031 C 49.3652 7.32422 52.3438 10.791 57.8613 10.791 Z M 65.918 -9.22852 C 65.625 -9.22852 65.4297 -9.375 65.4297 -9.61914 L 65.4297 -21.9238 C 65.4297 -28.6133 65.625 -29.1504 71.9727 -32.9102 L 81.543 -38.5254 C 81.7383 -38.623 81.9824 -38.8184 82.2754 -38.8184 C 82.6172 -38.8184 82.8613 -38.623 82.8613 -38.4277 L 82.8613 -26.5625 C 82.8613 -19.9707 82.7148 -19.1895 76.5137 -15.5273 L 66.3086 -9.375 C 66.0645 -9.22852 66.0156 -9.22852 65.918 -9.22852 Z"/>
  </g>
  <g id="Ultralight-M" transform="matrix(1 0 0 1 501.069 1126)">
   <path d="M 14.8926 -6.29883 C 14.9414 -6.29883 15.0879 -6.29883 15.0879 -6.29883 L 15.0879 -57.2754 C 15.0879 -58.9355 15.8203 -59.4727 17.1387 -60.2051 L 61.084 -84.5703 C 60.9375 -85.5957 60.3027 -86.084 59.4727 -86.084 C 58.8379 -86.084 58.3984 -85.8887 57.7148 -85.498 L 15.2832 -61.8652 C 13.3789 -60.8398 12.4512 -59.6191 12.4512 -57.7637 L 12.4512 -9.08203 C 12.4512 -7.08008 13.5742 -6.34766 14.8926 -6.29883 Z M 34.668 4.19922 C 34.7168 4.19922 34.7656 4.19922 34.8145 4.19922 L 34.8145 -45.6543 C 34.8145 -47.3145 35.498 -47.8516 36.8164 -48.584 L 82.373 -72.9492 C 82.3242 -73.9746 81.5918 -74.4629 80.7617 -74.4629 C 80.0781 -74.4629 79.5898 -74.1699 78.9062 -73.8281 L 34.9609 -50.2441 C 33.0566 -49.2188 32.1777 -47.998 32.1777 -46.1426 L 32.1777 1.41602 C 32.1777 3.41797 33.252 4.15039 34.668 4.19922 Z M 55.6152 15.6738 C 56.2988 15.6738 56.8359 15.5273 57.373 15.2344 L 100.537 -7.71484 C 103.809 -9.47266 104.834 -11.5234 104.834 -14.9414 L 104.834 -60.0586 C 104.834 -61.4258 103.613 -62.7441 101.953 -62.7441 C 101.318 -62.7441 100.586 -62.5488 99.8535 -62.1094 L 57.4707 -38.5254 C 54.1992 -36.7676 53.1738 -34.7656 53.1738 -31.2988 L 53.1738 13.2812 C 53.1738 14.6484 54.1992 15.6738 55.6152 15.6738 Z M 56.4453 12.7441 C 55.957 12.7441 55.6641 12.4023 55.6641 11.9141 L 55.6641 -31.0547 C 55.6641 -33.8867 56.25 -35.0586 59.7168 -37.0117 L 100.781 -59.7168 C 101.025 -59.8633 101.221 -59.9121 101.416 -59.9121 C 101.904 -59.9121 102.197 -59.6191 102.197 -59.1309 L 102.197 -15.1855 C 102.197 -12.4023 101.758 -10.9863 98.2422 -9.17969 L 57.0801 12.5488 C 56.8359 12.6465 56.6406 12.7441 56.4453 12.7441 Z"/>
  </g>
  <g id="Thin-M" transform="matrix(1 0 0 1 797.072 1126)">
   <path d="M 15.4785 -5.95703 C 15.7227 -5.95703 16.0156 -6.05469 16.3086 -6.15234 L 16.3086 -56.5918 C 16.3086 -58.4473 16.9922 -59.082 18.6035 -59.9609 L 61.8652 -84.2285 C 61.7676 -85.8398 60.7422 -86.6699 59.5215 -86.6699 C 58.7891 -86.6699 58.252 -86.4746 57.4707 -86.0352 L 16.1133 -62.793 C 13.5254 -61.3281 12.4512 -59.9609 12.4512 -57.1777 L 12.4512 -9.32617 C 12.4512 -6.98242 13.7695 -6.05469 15.4785 -5.95703 Z M 35.2539 4.93164 C 35.498 4.93164 35.791 4.88281 36.0352 4.78516 L 36.0352 -45.1172 C 36.0352 -47.0215 36.7676 -47.6562 38.3301 -48.5352 L 83.3984 -73.0469 C 83.3496 -74.6582 82.2754 -75.4395 81.0059 -75.4395 C 80.2246 -75.4395 79.6387 -75.1953 78.8574 -74.7559 L 35.8398 -51.3184 C 33.252 -49.8535 32.2266 -48.4863 32.2266 -45.7031 L 32.2266 1.61133 C 32.2266 3.90625 33.4961 4.88281 35.2539 4.93164 Z M 56.9336 16.3574 C 57.8613 16.3574 58.6426 16.1621 59.4238 15.7227 L 101.318 -6.83594 C 104.834 -8.74023 106.201 -10.9375 106.201 -14.9414 L 106.201 -59.9609 C 106.201 -62.1094 104.59 -63.7695 102.246 -63.7695 C 101.367 -63.7695 100.391 -63.5254 99.4629 -62.9883 L 58.1055 -39.6973 C 54.3945 -37.6465 53.3203 -35.5957 53.3203 -31.6406 L 53.3203 12.7441 C 53.3203 15.0391 54.9805 16.3574 56.9336 16.3574 Z M 58.0078 11.9629 C 57.4219 11.9629 57.0312 11.6211 57.0312 10.9863 L 57.0312 -31.2988 C 57.0312 -33.9844 57.6172 -35.1562 60.8398 -36.9629 L 100.781 -59.3262 C 101.025 -59.4727 101.27 -59.5703 101.465 -59.5703 C 102.002 -59.5703 102.393 -59.1797 102.393 -58.5449 L 102.393 -15.2344 C 102.393 -12.4512 101.855 -11.2305 98.5352 -9.47266 L 58.7402 11.7676 C 58.4473 11.9141 58.252 11.9629 58.0078 11.9629 Z"/>
  </g>
  <g id="Light-M" transform="matrix(1 0 0 1 1092.44 1126)">
   <path d="M 16.5527 -5.32227 C 17.1875 -5.32227 17.9199 -5.51758 18.6035 -5.9082 L 18.6035 -55.2246 C 18.6035 -57.5195 19.2871 -58.3008 21.4355 -59.5215 L 63.4766 -83.5449 C 63.3789 -86.3281 61.6699 -87.8418 59.668 -87.8418 C 58.6914 -87.8418 57.8613 -87.5977 56.8848 -87.0605 L 17.7734 -64.5996 C 13.7695 -62.2559 12.4512 -60.5957 12.4512 -56.0547 L 12.4512 -9.81445 C 12.4512 -6.78711 14.1113 -5.37109 16.5527 -5.32227 Z M 36.4746 6.39648 C 37.0605 6.39648 37.793 6.25 38.4766 5.85938 L 38.4766 -44.0918 C 38.4766 -46.4355 39.2578 -47.2168 41.3086 -48.3887 L 85.3516 -73.1445 C 85.3027 -75.9766 83.5938 -77.4414 81.543 -77.4414 C 80.5664 -77.4414 79.7363 -77.1973 78.7598 -76.6602 L 37.6465 -53.418 C 33.6426 -51.123 32.3242 -49.4629 32.3242 -44.9219 L 32.3242 1.95312 C 32.3242 4.98047 33.9844 6.39648 36.4746 6.39648 Z M 59.4727 17.6758 C 60.9375 17.6758 62.3047 17.334 63.4766 16.6504 L 102.832 -5.0293 C 106.885 -7.32422 108.936 -9.76562 108.936 -14.9902 L 108.936 -59.7656 C 108.936 -63.3789 106.494 -65.8691 102.783 -65.8691 C 101.416 -65.8691 100 -65.4785 98.7305 -64.7461 L 59.375 -42.041 C 54.7852 -39.4043 53.6133 -37.2559 53.6133 -32.2754 L 53.6133 11.7188 C 53.6133 15.7715 56.4453 17.6758 59.4727 17.6758 Z M 61.0352 10.498 C 60.3027 10.498 59.7168 10.0586 59.7168 9.13086 L 59.7168 -31.7383 C 59.7168 -34.2285 60.4004 -35.4004 63.0371 -36.9141 L 100.732 -58.5938 C 101.074 -58.7891 101.367 -58.8867 101.611 -58.8867 C 102.295 -58.8867 102.783 -58.3984 102.783 -57.4707 L 102.783 -15.2344 C 102.783 -12.5488 102.002 -11.7188 98.9746 -10.0586 L 61.9629 10.2539 C 61.6699 10.4004 61.3281 10.498 61.0352 10.498 Z"/>
  </g>
  <g id="Regular-M" transform="matrix(1 0 0 1 1388.13 1126)">
   <path d="M 17.3828 -4.88281 C 18.3105 -4.88281 19.3359 -5.12695 20.3613 -5.71289 L 20.3613 -54.1992 C 20.3613 -56.7871 21.0449 -57.666 23.584 -59.1797 L 64.6484 -83.0078 C 64.6484 -86.6699 62.4023 -88.7207 59.7656 -88.7207 C 58.6426 -88.7207 57.6172 -88.4766 56.4941 -87.793 L 19.043 -65.918 C 13.9648 -62.9883 12.4512 -61.084 12.4512 -55.2246 L 12.4512 -10.1562 C 12.4512 -6.64062 14.4043 -4.88281 17.3828 -4.88281 Z M 37.3535 7.51953 C 38.2324 7.51953 39.2578 7.27539 40.332 6.68945 L 40.332 -43.3105 C 40.332 -45.9961 41.1621 -46.875 43.5547 -48.2422 L 86.8652 -73.2422 C 86.8164 -76.9531 84.5703 -78.9551 81.9336 -78.9551 C 80.8105 -78.9551 79.7852 -78.7109 78.6621 -78.0273 L 38.9648 -55.0293 C 33.9355 -52.0508 32.4219 -50.1953 32.4219 -44.2871 L 32.4219 2.24609 C 32.4219 5.71289 34.375 7.51953 37.3535 7.51953 Z M 61.4258 18.7012 C 63.2324 18.7012 65.0391 18.2129 66.5039 17.3828 L 103.955 -3.71094 C 108.447 -6.20117 110.938 -8.93555 110.938 -15.0391 L 110.938 -59.5703 C 110.938 -64.3066 107.91 -67.4316 103.223 -67.4316 C 101.465 -67.4316 99.6582 -66.9434 98.1445 -66.0156 L 60.3027 -43.7988 C 55.0781 -40.7227 53.8574 -38.4766 53.8574 -32.7637 L 53.8574 10.9375 C 53.8574 16.3574 57.5684 18.7012 61.4258 18.7012 Z M 63.3301 9.375 C 62.5 9.375 61.7188 8.83789 61.7188 7.71484 L 61.7188 -32.1289 C 61.7188 -34.4238 62.5 -35.5469 64.6973 -36.8652 L 100.732 -58.0566 C 101.074 -58.252 101.465 -58.3496 101.758 -58.3496 C 102.49 -58.3496 103.027 -57.7637 103.027 -56.6406 L 103.027 -15.2832 C 103.027 -12.6465 102.1 -12.1094 99.3652 -10.5469 L 64.4043 9.13086 C 64.1113 9.27734 63.6719 9.375 63.3301 9.375 Z"/>
  </g>
  <g id="Medium-M" transform="matrix(1 0 0 1 1683.71 1126)">
   <path d="M 18.4082 -4.54102 C 19.6289 -4.54102 20.9473 -4.88281 22.2656 -5.61523 L 22.2656 -52.5391 C 22.2656 -56.1523 23.2422 -57.373 26.6113 -59.375 L 66.2109 -82.4707 C 66.1621 -86.7676 63.5254 -89.3066 60.2539 -89.3066 C 58.9355 -89.3066 57.666 -88.9648 56.25 -88.1348 L 19.6289 -66.6504 C 14.2578 -63.4766 12.4512 -61.084 12.4512 -54.8828 L 12.4512 -10.6445 C 12.4512 -6.73828 14.8438 -4.54102 18.4082 -4.54102 Z M 39.1113 7.8125 C 40.2832 7.8125 41.6504 7.51953 42.9199 6.78711 L 42.9199 -41.2598 C 42.9199 -45.0195 44.043 -46.1914 47.2656 -48.0957 L 88.9648 -72.2656 C 88.916 -76.5625 86.2793 -79.1016 83.0078 -79.1016 C 81.6895 -79.1016 80.3711 -78.8086 79.0039 -77.9785 L 40.2832 -55.4199 C 34.9121 -52.2461 33.1055 -49.8535 33.1055 -43.6035 L 33.1055 1.75781 C 33.1055 5.66406 35.498 7.8125 39.1113 7.8125 Z M 63.2812 19.4336 C 65.2344 19.4336 67.1875 18.9453 68.8477 17.9688 L 105.713 -2.88086 C 110.645 -5.66406 113.232 -8.74023 113.232 -15.1855 L 113.232 -58.7402 C 113.232 -63.916 109.766 -67.2363 104.932 -67.2363 C 103.125 -67.2363 101.27 -66.748 99.6582 -65.7715 L 62.2559 -43.8965 C 56.7383 -40.6738 55.1758 -37.9395 55.1758 -31.8359 L 55.1758 11.3281 C 55.1758 16.7969 58.9355 19.4336 63.2812 19.4336 Z M 66.4062 7.71484 C 65.625 7.71484 64.9414 7.22656 64.9414 6.20117 L 64.9414 -30.127 C 64.9414 -33.3496 65.625 -34.4238 68.7012 -36.1816 L 101.221 -55.3223 C 101.562 -55.5664 101.904 -55.6641 102.197 -55.6641 C 102.93 -55.6641 103.418 -55.127 103.418 -54.1016 L 103.418 -16.5527 C 103.418 -13.0859 102.637 -12.5 99.1211 -10.498 L 67.3828 7.42188 C 67.0898 7.61719 66.6992 7.71484 66.4062 7.71484 Z"/>
  </g>
  <g id="Semibold-M" transform="matrix(1 0 0 1 1979.55 1126)">
   <path d="M 19.1895 -4.29688 C 20.6055 -4.29688 22.2168 -4.6875 23.6816 -5.51758 L 23.6816 -51.2207 C 23.6816 -55.7129 24.9023 -57.1289 28.9551 -59.5215 L 67.3828 -82.0312 C 67.3828 -86.7676 64.3555 -89.7461 60.6445 -89.7461 C 59.1797 -89.7461 57.666 -89.3555 56.1035 -88.4277 L 20.1172 -67.2363 C 14.4531 -63.8672 12.4512 -61.084 12.4512 -54.6387 L 12.4512 -10.9863 C 12.4512 -6.78711 15.1855 -4.29688 19.1895 -4.29688 Z M 40.4297 8.05664 C 41.8457 8.05664 43.4082 7.66602 44.873 6.83594 L 44.873 -39.6973 C 44.873 -44.2871 46.2402 -45.6543 50.1465 -47.998 L 90.5762 -71.5332 C 90.5762 -76.2695 87.5488 -79.248 83.8379 -79.248 C 82.3242 -79.248 80.8594 -78.8574 79.248 -77.9297 L 41.3086 -55.6641 C 35.6934 -52.3438 33.6914 -49.5605 33.6914 -43.0664 L 33.6914 1.36719 C 33.6914 5.56641 36.377 8.05664 40.4297 8.05664 Z M 64.6973 19.9707 C 66.748 19.9707 68.7988 19.4824 70.6055 18.457 L 107.031 -2.24609 C 112.305 -5.27344 114.941 -8.64258 114.941 -15.2832 L 114.941 -58.1055 C 114.941 -63.623 111.23 -67.041 106.25 -67.041 C 104.395 -67.041 102.49 -66.5527 100.879 -65.625 L 63.7695 -43.9941 C 57.959 -40.625 56.2012 -37.5488 56.2012 -31.1523 L 56.2012 11.6699 C 56.2012 17.0898 59.9609 19.9707 64.6973 19.9707 Z M 68.75 6.44531 C 68.0176 6.44531 67.3828 5.95703 67.3828 5.0293 L 67.3828 -28.5645 C 67.3828 -32.4707 68.0176 -33.4961 71.7285 -35.6934 L 101.562 -53.2715 C 101.904 -53.4668 102.295 -53.6133 102.588 -53.6133 C 103.271 -53.6133 103.76 -53.0762 103.76 -52.1484 L 103.76 -17.5293 C 103.76 -13.4277 102.979 -12.793 98.9258 -10.4492 L 69.6777 6.15234 C 69.3848 6.34766 69.043 6.44531 68.75 6.44531 Z"/>
  </g>
  <g id="Bold-M" transform="matrix(1 0 0 1 2275.11 1126)">
   <path d="M 20.2148 -3.95508 C 21.9727 -3.95508 23.8281 -4.44336 25.5859 -5.46875 L 25.5859 -49.5117 C 25.5859 -55.0781 27.0996 -56.8359 31.9824 -59.7168 L 68.9453 -81.4941 C 68.9453 -86.8652 65.5273 -90.332 61.1816 -90.332 C 59.4727 -90.332 57.7148 -89.8926 55.8594 -88.7695 L 20.7031 -67.9688 C 14.6973 -64.4043 12.4512 -61.084 12.4512 -54.2969 L 12.4512 -11.4746 C 12.4512 -6.88477 15.625 -3.95508 20.2148 -3.95508 Z M 42.1875 8.39844 C 43.9453 8.39844 45.8008 7.91016 47.5098 6.88477 L 47.5098 -37.6465 C 47.5098 -43.2617 49.1699 -44.9707 53.9551 -47.8027 L 92.6758 -70.5566 C 92.6758 -75.8789 89.2578 -79.3945 84.9121 -79.3945 C 83.2031 -79.3945 81.4453 -78.9062 79.6387 -77.832 L 42.6758 -56.0547 C 36.6699 -52.4902 34.4238 -49.2188 34.4238 -42.3828 L 34.4238 0.878906 C 34.4238 5.46875 37.5488 8.39844 42.1875 8.39844 Z M 66.5527 20.7031 C 68.7988 20.7031 70.9961 20.2148 72.9492 19.0918 L 108.789 -1.41602 C 114.502 -4.73633 117.236 -8.44727 117.236 -15.3809 L 117.236 -57.2754 C 117.236 -63.1836 113.135 -66.8457 107.959 -66.8457 C 106.055 -66.8457 104.15 -66.3574 102.441 -65.3809 L 65.7227 -44.0918 C 59.6191 -40.5762 57.5684 -37.0117 57.5684 -30.2734 L 57.5684 12.0605 C 57.5684 17.4805 61.377 20.7031 66.5527 20.7031 Z M 71.875 4.73633 C 71.1914 4.73633 70.6543 4.29688 70.6543 3.51562 L 70.6543 -26.5625 C 70.6543 -31.3965 71.1914 -32.3242 75.7324 -35.0098 L 102.051 -50.5371 C 102.393 -50.7324 102.734 -50.8789 103.076 -50.8789 C 103.662 -50.8789 104.15 -50.4395 104.15 -49.6094 L 104.15 -18.8477 C 104.15 -13.8672 103.516 -13.1836 98.7305 -10.4004 L 72.7051 4.44336 C 72.3633 4.63867 72.1191 4.73633 71.875 4.73633 Z"/>
  </g>
  <g id="Heavy-M" transform="matrix(1 0 0 1 2570.16 1126)">
   <path d="M 21.7285 -3.51562 C 23.9258 -3.51562 26.2207 -4.10156 28.3203 -5.32227 L 28.3203 -47.0703 C 28.3203 -54.1992 30.3223 -56.3965 36.4258 -60.0098 L 71.1914 -80.7129 C 71.1914 -86.9141 67.1387 -91.2109 61.9141 -91.2109 C 59.9121 -91.2109 57.7637 -90.625 55.5664 -89.3066 L 21.582 -69.043 C 15.0879 -65.1367 12.4512 -61.1328 12.4512 -53.8086 L 12.4512 -12.207 C 12.4512 -6.98242 16.2598 -3.51562 21.7285 -3.51562 Z M 44.7266 8.83789 C 46.9238 8.83789 49.2676 8.25195 51.3184 7.03125 L 51.3184 -34.6191 C 51.3184 -41.7969 53.418 -43.9941 59.4238 -47.6074 L 95.8008 -69.1406 C 95.752 -75.3418 91.748 -79.5898 86.4746 -79.5898 C 84.4727 -79.5898 82.3242 -79.0039 80.127 -77.6855 L 44.5801 -56.5918 C 38.1348 -52.7344 35.498 -48.6816 35.498 -41.3574 L 35.498 0.146484 C 35.498 5.32227 39.2578 8.83789 44.7266 8.83789 Z M 69.2871 21.7773 C 71.7285 21.7773 74.1211 21.2891 76.3672 19.9707 L 111.377 -0.244141 C 117.725 -3.95508 120.557 -8.25195 120.557 -15.5762 L 120.557 -56.0547 C 120.557 -62.5977 115.869 -66.5039 110.449 -66.5039 C 108.496 -66.5039 106.494 -66.0156 104.688 -64.9902 L 68.6035 -44.2383 C 62.0117 -40.4785 59.5215 -36.2305 59.5215 -28.9551 L 59.5215 12.6953 C 59.5215 18.1152 63.3789 21.7773 69.2871 21.7773 Z M 76.3672 2.24609 C 75.7812 2.24609 75.3418 1.9043 75.3418 1.26953 L 75.3418 -23.6328 C 75.3418 -29.7363 75.7812 -30.6641 81.543 -34.0332 L 102.783 -46.582 C 103.076 -46.7773 103.418 -46.9238 103.76 -46.9238 C 104.297 -46.9238 104.736 -46.5332 104.736 -45.8984 L 104.736 -20.7031 C 104.736 -14.5508 104.248 -13.7695 98.3887 -10.3027 L 77.0996 2.00195 C 76.7578 2.19727 76.5625 2.24609 76.3672 2.24609 Z"/>
  </g>
  <g id="Black-M" transform="matrix(1 0 0 1 2865.41 1126)">
   <path d="M 23.0469 -3.07617 C 25.6348 -3.07617 28.3691 -3.75977 30.7617 -5.22461 L 30.7617 -44.8242 C 30.7617 -53.3691 33.1543 -56.0059 40.3809 -60.3027 L 73.2422 -80.0293 C 73.2422 -87.0117 68.6523 -91.9922 62.5977 -91.9922 C 60.3027 -91.9922 57.7637 -91.2598 55.2734 -89.7461 L 22.3633 -69.9707 C 15.4297 -65.7715 12.4512 -61.1328 12.4512 -53.3691 L 12.4512 -12.8418 C 12.4512 -7.08008 16.7969 -3.07617 23.0469 -3.07617 Z M 47.0215 9.27734 C 49.6094 9.27734 52.3438 8.54492 54.7363 7.12891 L 54.7363 -31.9336 C 54.7363 -40.4785 57.1777 -43.1152 64.3555 -47.4121 L 98.5352 -67.8711 C 98.5352 -74.8047 93.9453 -79.834 87.8906 -79.834 C 85.5957 -79.834 83.1055 -79.1016 80.5664 -77.5879 L 46.3379 -57.0801 C 39.4531 -52.9785 36.4258 -48.2422 36.4258 -40.4785 L 36.4258 -0.488281 C 36.4258 5.22461 40.7715 9.27734 47.0215 9.27734 Z M 71.6797 22.7051 C 74.3164 22.7051 76.9531 22.2168 79.3945 20.752 L 113.623 0.830078 C 120.605 -3.22266 123.535 -8.00781 123.535 -15.7715 L 123.535 -54.9805 C 123.535 -62.0605 118.311 -66.2598 112.646 -66.2598 C 110.645 -66.2598 108.594 -65.7227 106.738 -64.6973 L 71.1426 -44.3848 C 64.1602 -40.3809 61.2305 -35.5469 61.2305 -27.7832 L 61.2305 13.2324 C 61.2305 18.6523 65.1855 22.7051 71.6797 22.7051 Z M 80.3711 0.0488281 C 79.8828 0.0488281 79.541 -0.244141 79.541 -0.732422 L 79.541 -21.0449 C 79.541 -28.3203 79.8828 -29.1016 86.7676 -33.2031 L 103.418 -43.0176 C 103.711 -43.2129 104.004 -43.4082 104.395 -43.4082 C 104.883 -43.4082 105.273 -43.0664 105.273 -42.627 L 105.273 -22.4121 C 105.273 -15.1367 104.883 -14.3066 98.0469 -10.2539 L 81.0059 -0.195312 C 80.6641 0 80.5664 0.0488281 80.3711 0.0488281 Z"/>
  </g>
  <g id="Ultralight-L" transform="matrix(1 0 0 1 484.32 1556)">
   <path d="M 18.9941 1.95312 L 18.9941 -63.9648 C 18.9941 -66.0156 19.873 -66.6992 21.4844 -67.5781 L 78.4668 -99.0723 C 78.2715 -100.098 77.5879 -100.586 76.6602 -100.586 C 75.9277 -100.586 75.4395 -100.342 74.6094 -99.9023 L 19.3359 -69.1895 C 17.2363 -68.0664 16.0645 -66.5527 16.0645 -64.5508 L 16.0645 -1.36719 C 16.0645 1.02539 17.4316 1.85547 18.9941 1.95312 L 18.9941 2.05078 C 19.043 2.00195 18.9941 1.95312 18.9941 1.95312 Z M 44.4824 15.332 L 44.3848 15.2832 L 44.3848 -48.9258 C 44.3848 -50.9277 45.2148 -51.6113 46.875 -52.5391 L 105.859 -83.8867 C 105.762 -84.9121 104.98 -85.4004 104.102 -85.4004 C 103.271 -85.4004 102.686 -85.0586 101.855 -84.6191 L 44.7266 -54.1504 C 42.5781 -53.0273 41.4551 -51.5137 41.4551 -49.4629 L 41.4551 12.0117 C 41.4551 14.3555 42.7734 15.1855 44.3848 15.2832 L 44.3848 15.4297 C 44.3848 15.332 44.4336 15.332 44.4824 15.332 Z M 71.1914 30.127 C 71.9238 30.127 72.5098 30.0293 73.0957 29.6875 L 129.395 -0.146484 C 133.496 -2.29492 134.668 -4.88281 134.668 -9.0332 L 134.668 -67.334 C 134.668 -68.7988 133.301 -70.2637 131.396 -70.2637 C 130.762 -70.2637 129.932 -70.0195 129.053 -69.5312 L 73.877 -38.9648 C 69.873 -36.8164 68.5059 -34.2773 68.5059 -30.0293 L 68.5059 27.5879 C 68.5059 28.9551 69.6289 30.127 71.1914 30.127 Z M 72.168 27.002 C 71.582 27.002 71.2402 26.6113 71.2402 26.0254 L 71.2402 -29.7363 C 71.2402 -33.4473 71.9238 -34.9609 76.6113 -37.5488 L 130.029 -66.9922 C 130.371 -67.1387 130.566 -67.2363 130.811 -67.2363 C 131.396 -67.2363 131.787 -66.8457 131.787 -66.3086 L 131.787 -9.375 C 131.787 -5.71289 131.299 -3.85742 126.709 -1.51367 L 72.9492 26.7578 C 72.6074 26.9043 72.4121 27.002 72.168 27.002 Z"/>
  </g>
  <g id="Thin-L" transform="matrix(1 0 0 1 780.275 1556)">
   <path d="M 19.6289 2.29492 C 19.8242 2.29492 20.1172 2.29492 20.3125 2.19727 L 20.3125 -63.1836 C 20.3125 -65.4785 21.1914 -66.2598 23.0957 -67.2852 L 79.3457 -98.6816 C 79.1992 -100.391 78.125 -101.221 76.7578 -101.221 C 75.8789 -101.221 75.2441 -100.977 74.3164 -100.488 L 20.2637 -70.2148 C 17.3828 -68.6035 16.0645 -66.8945 16.0645 -63.8672 L 16.0645 -1.66016 C 16.0645 1.12305 17.627 2.24609 19.6289 2.29492 Z M 45.166 16.1621 C 45.3125 16.1621 45.5566 16.1133 45.752 16.0645 L 45.752 -48.291 C 45.752 -50.6348 46.6797 -51.3672 48.584 -52.4414 L 106.982 -83.9844 C 106.885 -85.6934 105.762 -86.5234 104.395 -86.5234 C 103.418 -86.5234 102.734 -86.1816 101.758 -85.6934 L 45.7031 -55.3711 C 42.8223 -53.7109 41.5527 -52.0508 41.5527 -49.0234 L 41.5527 12.207 C 41.5527 14.9902 43.0664 16.0645 45.166 16.1621 Z M 72.6562 30.9082 C 73.6816 30.9082 74.5605 30.7129 75.4395 30.2246 L 130.225 0.878906 C 134.668 -1.46484 136.23 -4.19922 136.23 -9.08203 L 136.23 -67.2363 C 136.23 -69.4824 134.375 -71.4355 131.738 -71.4355 C 130.762 -71.4355 129.688 -71.1426 128.613 -70.5078 L 74.6094 -40.2832 C 70.0684 -37.793 68.7012 -35.2051 68.7012 -30.3711 L 68.7012 27.002 C 68.7012 29.3945 70.459 30.9082 72.6562 30.9082 Z M 73.9258 26.123 C 73.2422 26.123 72.7539 25.6836 72.7539 25 L 72.7539 -30.0293 C 72.7539 -33.5938 73.5352 -35.1074 77.832 -37.5 L 130.029 -66.5527 C 130.371 -66.748 130.615 -66.8457 130.908 -66.8457 C 131.543 -66.8457 131.982 -66.4062 131.982 -65.6738 L 131.982 -9.375 C 131.982 -5.81055 131.348 -4.15039 126.953 -1.80664 L 74.7559 25.8789 C 74.4629 26.0742 74.1699 26.123 73.9258 26.123 Z"/>
  </g>
  <g id="Light-L" transform="matrix(1 0 0 1 1075.47 1556)">
   <path d="M 20.8496 3.02734 C 21.4355 3.02734 22.2168 2.88086 22.9004 2.49023 L 22.9004 -61.6699 C 22.9004 -64.4043 23.7793 -65.3809 26.3184 -66.7969 L 81.1035 -97.9004 C 81.0059 -100.928 79.1504 -102.539 76.9043 -102.539 C 75.7812 -102.539 74.8535 -102.246 73.6816 -101.611 L 22.1191 -72.2168 C 17.6758 -69.6289 16.0645 -67.627 16.0645 -62.6465 L 16.0645 -2.19727 C 16.0645 1.36719 18.0664 2.97852 20.8496 3.02734 Z M 46.4844 17.7734 C 47.0703 17.7734 47.7539 17.627 48.4863 17.2852 L 48.4863 -47.168 C 48.4863 -50 49.4629 -50.8789 51.8555 -52.2461 L 109.18 -84.1309 C 109.131 -87.1582 107.227 -88.7695 104.98 -88.7695 C 103.809 -88.7695 102.832 -88.4277 101.66 -87.7441 L 47.7051 -57.7148 C 43.2129 -55.127 41.6504 -53.125 41.6504 -48.0957 L 41.6504 12.5977 C 41.6504 16.1133 43.6035 17.7246 46.4844 17.7734 Z M 75.5371 32.4219 C 77.0996 32.4219 78.6133 32.0312 79.9316 31.2988 L 131.934 2.88086 C 136.914 0.0976562 139.209 -2.92969 139.209 -9.13086 L 139.209 -66.9434 C 139.209 -70.8984 136.475 -73.7305 132.373 -73.7305 C 130.859 -73.7305 129.199 -73.3398 127.734 -72.4609 L 75.9766 -42.8711 C 70.5078 -39.7461 69.043 -37.0117 69.043 -31.1035 L 69.043 25.8301 C 69.043 30.2246 72.1191 32.4219 75.5371 32.4219 Z M 77.2949 24.5117 C 76.416 24.5117 75.7324 23.9258 75.7324 22.9004 L 75.7324 -30.5176 C 75.7324 -33.8379 76.6113 -35.3516 80.2734 -37.4512 L 130.029 -65.7227 C 130.371 -65.9668 130.762 -66.0645 131.055 -66.0645 C 131.836 -66.0645 132.422 -65.4785 132.422 -64.4531 L 132.422 -9.42383 C 132.422 -5.9082 131.543 -4.6875 127.49 -2.49023 L 78.3691 24.2188 C 78.0273 24.4141 77.6367 24.5117 77.2949 24.5117 Z"/>
  </g>
  <g id="Regular-L" transform="matrix(1 0 0 1 1371.06 1556)">
   <path d="M 21.7773 3.56445 C 22.7051 3.56445 23.7793 3.32031 24.8535 2.73438 L 24.8535 -60.5469 C 24.8535 -63.623 25.7324 -64.6973 28.7109 -66.4062 L 82.4707 -97.3145 C 82.373 -101.318 79.9316 -103.516 77.002 -103.516 C 75.7324 -103.516 74.5605 -103.223 73.2422 -102.441 L 23.5352 -73.7305 C 17.8711 -70.459 16.0645 -68.2129 16.0645 -61.7188 L 16.0645 -2.58789 C 16.0645 1.51367 18.3594 3.51562 21.7773 3.56445 Z M 47.4609 19.043 C 48.3887 19.043 49.4629 18.7988 50.5371 18.1641 L 50.5371 -46.2891 C 50.5371 -49.5117 51.5625 -50.5371 54.3457 -52.1484 L 110.84 -84.2285 C 110.791 -88.2324 108.301 -90.4297 105.42 -90.4297 C 104.102 -90.4297 102.881 -90.0879 101.562 -89.3066 L 49.2188 -59.4727 C 43.5547 -56.2012 41.748 -53.9062 41.748 -47.4121 L 41.748 12.8906 C 41.748 16.9922 44.043 18.9941 47.4609 19.043 Z M 77.6855 33.5449 C 79.6875 33.5449 81.6406 33.0078 83.3008 32.0801 L 133.203 4.3457 C 138.672 1.31836 141.504 -2.00195 141.504 -9.13086 L 141.504 -66.7969 C 141.504 -71.9727 138.086 -75.4883 132.861 -75.4883 C 130.908 -75.4883 128.857 -74.9512 127.1 -73.9258 L 77.0508 -44.873 C 70.8496 -41.2109 69.2871 -38.4277 69.2871 -31.6406 L 69.2871 24.9512 C 69.2871 30.8594 73.3398 33.5449 77.6855 33.5449 Z M 79.834 23.2422 C 78.8574 23.2422 78.0273 22.6074 78.0273 21.3379 L 78.0273 -30.9082 C 78.0273 -34.0332 78.9062 -35.5469 82.1289 -37.3535 L 129.98 -65.1367 C 130.42 -65.3809 130.859 -65.5273 131.201 -65.5273 C 132.08 -65.5273 132.715 -64.7949 132.715 -63.5254 L 132.715 -9.47266 C 132.715 -6.00586 131.689 -5.07812 127.93 -2.97852 L 81.1035 22.9004 C 80.7129 23.1445 80.2246 23.2422 79.834 23.2422 Z"/>
  </g>
  <g id="Medium-L" transform="matrix(1 0 0 1 1666.53 1556)">
   <path d="M 22.8516 3.95508 C 24.1211 3.95508 25.5859 3.61328 26.9043 2.83203 L 26.9043 -58.8379 C 26.9043 -62.9395 28.0762 -64.3066 31.8848 -66.5039 L 84.082 -96.6797 C 84.0332 -101.465 81.1035 -104.248 77.4902 -104.248 C 75.9766 -104.248 74.5605 -103.857 72.9492 -102.93 L 24.3164 -74.6582 C 18.1641 -71.0449 16.0645 -68.3105 16.0645 -61.2305 L 16.0645 -3.07617 C 16.0645 1.46484 18.8477 3.90625 22.8516 3.95508 Z M 49.2188 19.5312 C 50.4883 19.5312 51.9043 19.1895 53.2715 18.4082 L 53.2715 -44.2871 C 53.2715 -48.4863 54.5898 -49.8535 58.252 -51.9531 L 113.086 -83.3496 C 113.037 -88.0859 110.059 -90.8691 106.445 -90.8691 C 104.932 -90.8691 103.467 -90.4785 101.855 -89.5508 L 50.6836 -60.1562 C 44.5312 -56.543 42.4316 -53.7598 42.4316 -46.6797 L 42.4316 12.5 C 42.4316 17.0898 45.166 19.5312 49.2188 19.5312 Z M 79.7363 34.375 C 81.9824 34.375 84.1797 33.8379 86.0352 32.7637 L 135.01 5.37109 C 140.967 2.00195 143.994 -1.66016 143.994 -9.27734 L 143.994 -65.9668 C 143.994 -71.8262 140.088 -75.6348 134.473 -75.6348 C 132.422 -75.6348 130.273 -75.0488 128.418 -73.9746 L 79.0039 -45.3125 C 72.4121 -41.4551 70.5566 -38.1836 70.5566 -30.9082 L 70.5566 25.1953 C 70.5566 31.3477 74.8535 34.375 79.7363 34.375 Z M 83.1055 21.4844 C 82.1777 21.4844 81.3477 20.8984 81.3477 19.6777 L 81.3477 -29.1504 C 81.3477 -33.0566 82.2266 -34.4727 86.084 -36.7676 L 130.42 -62.5488 C 130.859 -62.793 131.299 -62.9395 131.641 -62.9395 C 132.52 -62.9395 133.154 -62.2559 133.154 -61.0352 L 133.154 -10.6445 C 133.154 -6.44531 132.129 -5.51758 127.783 -3.02734 L 84.3262 21.1426 C 83.9355 21.3867 83.4961 21.4844 83.1055 21.4844 Z"/>
  </g>
  <g id="Semibold-L" transform="matrix(1 0 0 1 1962.29 1556)">
   <path d="M 23.7305 4.24805 C 25.2441 4.24805 26.9043 3.85742 28.5156 2.92969 L 28.5156 -57.4707 C 28.5156 -62.4023 29.8828 -63.9648 34.3262 -66.6016 L 85.3516 -96.2402 C 85.3027 -101.562 81.9824 -104.785 77.8809 -104.785 C 76.1719 -104.785 74.5117 -104.346 72.7051 -103.271 L 24.9512 -75.3906 C 18.3594 -71.5332 16.0645 -68.3594 16.0645 -60.8398 L 16.0645 -3.4668 C 16.0645 1.46484 19.1895 4.24805 23.7305 4.24805 Z M 50.5859 19.9219 C 52.0996 19.9219 53.7598 19.5312 55.3711 18.6035 L 55.3711 -42.7246 C 55.3711 -47.7539 56.8848 -49.3164 61.2305 -51.8555 L 114.795 -82.666 C 114.746 -87.9883 111.377 -91.2109 107.275 -91.2109 C 105.566 -91.2109 103.857 -90.7715 102.1 -89.6973 L 51.8066 -60.6445 C 45.2637 -56.7871 42.9688 -53.6133 42.9688 -46.0938 L 42.9688 12.207 C 42.9688 17.1387 46.0449 19.9219 50.5859 19.9219 Z M 81.3477 35.0586 C 83.7402 35.0586 86.084 34.5215 88.1836 33.3008 L 136.426 6.15234 C 142.725 2.58789 145.898 -1.41602 145.898 -9.375 L 145.898 -65.3809 C 145.898 -71.6797 141.602 -75.7324 135.742 -75.7324 C 133.594 -75.7324 131.348 -75.1465 129.395 -73.9746 L 80.5176 -45.6543 C 73.584 -41.6016 71.5332 -37.9883 71.5332 -30.3711 L 71.5332 25.3418 C 71.5332 31.7383 75.9766 35.0586 81.3477 35.0586 Z M 85.6445 20.166 C 84.668 20.166 83.8867 19.5312 83.8867 18.3594 L 83.8867 -27.832 C 83.8867 -32.3242 84.7168 -33.6914 89.1602 -36.2793 L 130.762 -60.5469 C 131.201 -60.791 131.641 -60.9863 131.982 -60.9863 C 132.861 -60.9863 133.496 -60.3027 133.496 -59.1309 L 133.496 -11.5723 C 133.496 -6.73828 132.52 -5.85938 127.686 -3.07617 L 86.7676 19.8242 C 86.4258 20.0195 85.9863 20.166 85.6445 20.166 Z"/>
  </g>
  <g id="Bold-L" transform="matrix(1 0 0 1 2257.73 1556)">
   <path d="M 24.8047 4.63867 C 26.6602 4.63867 28.7109 4.15039 30.6152 3.02734 L 30.6152 -55.7129 C 30.6152 -61.6699 32.2754 -63.5742 37.5977 -66.6992 L 87.0605 -95.6543 C 87.0117 -101.66 83.1543 -105.518 78.3691 -105.518 C 76.4648 -105.518 74.5117 -104.98 72.4609 -103.76 L 25.7812 -76.3672 C 18.6523 -72.1191 16.0645 -68.5059 16.0645 -60.4004 L 16.0645 -4.00391 C 16.0645 1.41602 19.6289 4.63867 24.8047 4.63867 Z M 52.3926 20.459 C 54.248 20.459 56.25 19.9219 58.1543 18.8477 L 58.1543 -40.6738 C 58.1543 -46.7285 59.9609 -48.6328 65.1367 -51.6602 L 117.041 -81.7871 C 116.992 -87.8418 113.135 -91.6504 108.35 -91.6504 C 106.396 -91.6504 104.443 -91.1621 102.393 -89.9414 L 53.3203 -61.3281 C 46.2402 -57.1289 43.6523 -53.4668 43.6523 -45.3613 L 43.6523 11.8164 C 43.6523 17.1875 47.168 20.4102 52.3926 20.459 Z M 83.4473 35.9375 C 86.084 35.9375 88.6719 35.3516 90.918 34.0332 L 138.281 7.17773 C 145.068 3.27148 148.389 -1.07422 148.389 -9.52148 L 148.389 -64.5996 C 148.389 -71.4844 143.652 -75.8301 137.402 -75.8301 C 135.156 -75.8301 132.764 -75.2441 130.713 -74.0234 L 82.5195 -46.0938 C 75.1465 -41.8457 72.8027 -37.7441 72.8027 -29.6387 L 72.8027 25.5859 C 72.8027 32.2266 77.4414 35.9375 83.4473 35.9375 Z M 88.916 18.3594 C 88.0371 18.3594 87.3047 17.7734 87.3047 16.6992 L 87.3047 -26.0254 C 87.3047 -31.3477 88.0859 -32.666 93.1641 -35.6445 L 131.201 -57.9102 C 131.641 -58.2031 132.08 -58.3496 132.471 -58.3496 C 133.301 -58.3496 133.887 -57.7637 133.887 -56.6406 L 133.887 -12.7441 C 133.887 -7.17773 133.008 -6.29883 127.539 -3.125 L 90.0391 18.0176 C 89.6484 18.2617 89.2578 18.3594 88.916 18.3594 Z"/>
  </g>
  <g id="Heavy-L" transform="matrix(1 0 0 1 2552.63 1556)">
   <path d="M 26.416 5.22461 C 28.8086 5.22461 31.2988 4.58984 33.6426 3.22266 L 33.6426 -53.125 C 33.6426 -60.6445 35.6934 -62.9883 42.2852 -66.8945 L 89.4531 -94.7754 C 89.4531 -101.855 84.9121 -106.543 79.1016 -106.543 C 76.8066 -106.543 74.4629 -105.908 72.0215 -104.492 L 26.9531 -77.7344 C 19.043 -73.0469 16.0645 -68.6523 16.0645 -59.668 L 16.0645 -4.73633 C 16.0645 1.31836 20.3125 5.22461 26.416 5.22461 Z M 54.9805 21.1914 C 57.3242 21.1914 59.8633 20.5566 62.1582 19.1895 L 62.1582 -37.6953 C 62.1582 -45.2637 64.4043 -47.6074 70.8008 -51.416 L 120.312 -80.5176 C 120.264 -87.6465 115.723 -92.334 109.912 -92.334 C 107.666 -92.334 105.273 -91.6992 102.832 -90.2344 L 55.4688 -62.3047 C 47.6562 -57.6172 44.6289 -53.1738 44.6289 -44.2383 L 44.6289 11.2305 C 44.6289 17.2852 48.8281 21.1914 54.9805 21.1914 Z M 86.5234 37.207 C 89.4531 37.207 92.334 36.5723 94.9707 35.0586 L 140.967 8.69141 C 148.486 4.3457 152.051 -0.634766 152.051 -9.66797 L 152.051 -63.4277 C 152.051 -71.2402 146.582 -76.0254 139.795 -76.0254 C 137.354 -76.0254 134.814 -75.3906 132.617 -74.0723 L 85.4492 -46.7773 C 77.4414 -42.1387 74.6582 -37.4023 74.6582 -28.5645 L 74.6582 25.9277 C 74.6582 32.959 79.6387 37.207 86.5234 37.207 Z M 93.75 15.7715 C 92.8711 15.7715 92.1875 15.2344 92.1875 14.209 L 92.1875 -23.4863 C 92.1875 -29.9316 92.8711 -31.1523 98.9746 -34.7656 L 131.836 -54.1504 C 132.275 -54.3945 132.715 -54.5898 133.154 -54.5898 C 133.936 -54.5898 134.521 -54.0039 134.521 -53.0273 L 134.521 -14.4531 C 134.521 -7.8125 133.691 -6.93359 127.295 -3.17383 L 94.7754 15.4297 C 94.3848 15.6738 94.043 15.7715 93.75 15.7715 Z"/>
  </g>
  <g id="Black-L" transform="matrix(1 0 0 1 2847.71 1556)">
   <path d="M 27.8809 5.76172 C 30.6641 5.76172 33.6426 4.98047 36.3281 3.36914 L 36.3281 -50.8301 C 36.3281 -59.7168 38.7695 -62.4512 46.4355 -67.041 L 91.6504 -93.9941 C 91.6504 -102.002 86.4258 -107.471 79.7363 -107.471 C 77.1484 -107.471 74.4141 -106.738 71.6309 -105.078 L 27.9785 -78.9551 C 19.4336 -73.8281 16.0645 -68.7988 16.0645 -59.082 L 16.0645 -5.41992 C 16.0645 1.26953 20.8984 5.76172 27.8809 5.76172 Z M 57.3242 21.875 C 60.1074 21.875 63.0859 21.0938 65.7715 19.4824 L 65.7715 -35.0098 C 65.7715 -43.9453 68.3594 -46.6797 75.8789 -51.2207 L 123.193 -79.3945 C 123.193 -87.4512 118.018 -92.9199 111.279 -92.9199 C 108.74 -92.9199 106.006 -92.1875 103.223 -90.5273 L 57.4219 -63.1348 C 48.9258 -58.0566 45.5078 -52.9785 45.5078 -43.2617 L 45.5078 10.6934 C 45.5078 17.3828 50.3418 21.875 57.3242 21.875 Z M 89.2578 38.3301 C 92.4316 38.3301 95.6543 37.6953 98.5352 35.9863 L 143.359 10.0098 C 151.514 5.27344 155.322 -0.195312 155.322 -9.86328 L 155.322 -62.4023 C 155.322 -70.9961 149.219 -76.1719 141.943 -76.1719 C 139.355 -76.1719 136.67 -75.4883 134.326 -74.1211 L 88.0371 -47.3633 C 79.4922 -42.4316 76.3184 -37.1094 76.3184 -27.6367 L 76.3184 26.2207 C 76.3184 33.5938 81.543 38.3301 89.2578 38.3301 Z M 97.998 13.4766 C 97.2168 13.4766 96.582 12.9395 96.582 12.0117 L 96.582 -21.1914 C 96.582 -28.6621 97.2168 -29.834 104.15 -33.9355 L 132.422 -50.7324 C 132.812 -51.0254 133.301 -51.2207 133.74 -51.2207 C 134.473 -51.2207 135.059 -50.6836 135.059 -49.7559 L 135.059 -16.0156 C 135.059 -8.39844 134.326 -7.51953 127.148 -3.22266 L 99.0234 13.1348 C 98.6328 13.3789 98.3398 13.4766 97.998 13.4766 Z"/>
  </g>
 </g>
</svg>
