<?xml version="1.0" encoding="UTF-8"?>
<!--Generator: Apple Native CoreSVG 123-->
<!DOCTYPE svg
PUBLIC "-//W3C//DTD SVG 1.1//EN"
       "http://www.w3.org/Graphics/SVG/1.1/DTD/svg11.dtd">
<svg version="1.1" xmlns="http://www.w3.org/2000/svg" xmlns:xlink="http://www.w3.org/1999/xlink" width="3300" height="2200">
 <!--glyph: "uni100223.medium", point size: 100.000000, font version: "Version 15.0d4e20", template writer version: "2"-->
 <g id="Notes">
  <rect height="2200" id="artboard" style="fill:white;opacity:1" width="3300" x="0" y="0"/>
  <line id="" style="fill:none;stroke:black;opacity:1;stroke-width:0.5;" x1="263" x2="3036" y1="292" y2="292"/>
  <text style="stroke:none;fill:black;font-family:-apple-system,&quot;SF Pro Display&quot;,&quot;SF Pro Text&quot;,Helvetica,sans-serif;font-weight:bold;" transform="matrix(1 0 0 1 263 322)">Weight/Scale Variations</text>
  <text style="stroke:none;fill:black;font-family:-apple-system,&quot;SF Pro Display&quot;,&quot;SF Pro Text&quot;,Helvetica,sans-serif;text-anchor:middle;" transform="matrix(1 0 0 1 559.711 322)">Ultralight</text>
  <text style="stroke:none;fill:black;font-family:-apple-system,&quot;SF Pro Display&quot;,&quot;SF Pro Text&quot;,Helvetica,sans-serif;text-anchor:middle;" transform="matrix(1 0 0 1 856.422 322)">Thin</text>
  <text style="stroke:none;fill:black;font-family:-apple-system,&quot;SF Pro Display&quot;,&quot;SF Pro Text&quot;,Helvetica,sans-serif;text-anchor:middle;" transform="matrix(1 0 0 1 1153.13 322)">Light</text>
  <text style="stroke:none;fill:black;font-family:-apple-system,&quot;SF Pro Display&quot;,&quot;SF Pro Text&quot;,Helvetica,sans-serif;text-anchor:middle;" transform="matrix(1 0 0 1 1449.84 322)">Regular</text>
  <text style="stroke:none;fill:black;font-family:-apple-system,&quot;SF Pro Display&quot;,&quot;SF Pro Text&quot;,Helvetica,sans-serif;text-anchor:middle;" transform="matrix(1 0 0 1 1746.56 322)">Medium</text>
  <text style="stroke:none;fill:black;font-family:-apple-system,&quot;SF Pro Display&quot;,&quot;SF Pro Text&quot;,Helvetica,sans-serif;text-anchor:middle;" transform="matrix(1 0 0 1 2043.27 322)">Semibold</text>
  <text style="stroke:none;fill:black;font-family:-apple-system,&quot;SF Pro Display&quot;,&quot;SF Pro Text&quot;,Helvetica,sans-serif;text-anchor:middle;" transform="matrix(1 0 0 1 2339.98 322)">Bold</text>
  <text style="stroke:none;fill:black;font-family:-apple-system,&quot;SF Pro Display&quot;,&quot;SF Pro Text&quot;,Helvetica,sans-serif;text-anchor:middle;" transform="matrix(1 0 0 1 2636.69 322)">Heavy</text>
  <text style="stroke:none;fill:black;font-family:-apple-system,&quot;SF Pro Display&quot;,&quot;SF Pro Text&quot;,Helvetica,sans-serif;text-anchor:middle;" transform="matrix(1 0 0 1 2933.4 322)">Black</text>
  <line id="" style="fill:none;stroke:black;opacity:1;stroke-width:0.5;" x1="263" x2="3036" y1="1903" y2="1903"/>
  <g id="" transform="matrix(1 0 0 1 263 1933)">
   <path d="M 9.24805 0.830078 C 13.5547 0.830078 17.1387 -2.74414 17.1387 -7.05078 C 17.1387 -11.3574 13.5449 -14.9316 9.23828 -14.9316 C 4.94141 -14.9316 1.36719 -11.3574 1.36719 -7.05078 C 1.36719 -2.74414 4.95117 0.830078 9.24805 0.830078 Z M 9.24805 -0.654297 C 5.70312 -0.654297 2.87109 -3.49609 2.87109 -7.05078 C 2.87109 -10.6055 5.69336 -13.4473 9.23828 -13.4473 C 12.793 -13.4473 15.6348 -10.6055 15.6445 -7.05078 C 15.6543 -3.49609 12.8027 -0.654297 9.24805 -0.654297 Z M 9.22852 -3.42773 C 9.69727 -3.42773 9.9707 -3.74023 9.9707 -4.25781 L 9.9707 -6.31836 L 12.1973 -6.31836 C 12.6953 -6.31836 13.0371 -6.57227 13.0371 -7.04102 C 13.0371 -7.51953 12.7148 -7.7832 12.1973 -7.7832 L 9.9707 -7.7832 L 9.9707 -10.0098 C 9.9707 -10.5273 9.69727 -10.8496 9.22852 -10.8496 C 8.75977 -10.8496 8.50586 -10.5078 8.50586 -10.0098 L 8.50586 -7.7832 L 6.29883 -7.7832 C 5.78125 -7.7832 5.44922 -7.51953 5.44922 -7.04102 C 5.44922 -6.57227 5.80078 -6.31836 6.29883 -6.31836 L 8.50586 -6.31836 L 8.50586 -4.25781 C 8.50586 -3.75977 8.75977 -3.42773 9.22852 -3.42773 Z"/>
  </g>
  <g id="" transform="matrix(1 0 0 1 281.506 1933)">
   <path d="M 11.709 2.91016 C 17.1484 2.91016 21.6699 -1.60156 21.6699 -7.05078 C 21.6699 -12.4902 17.1387 -17.0117 11.6992 -17.0117 C 6.25 -17.0117 1.74805 -12.4902 1.74805 -7.05078 C 1.74805 -1.60156 6.25977 2.91016 11.709 2.91016 Z M 11.709 1.25 C 7.09961 1.25 3.41797 -2.44141 3.41797 -7.05078 C 3.41797 -11.6504 7.08984 -15.3516 11.6992 -15.3516 C 16.2988 -15.3516 20 -11.6504 20.0098 -7.05078 C 20.0195 -2.44141 16.3086 1.25 11.709 1.25 Z M 11.6797 -2.41211 C 12.207 -2.41211 12.5195 -2.77344 12.5195 -3.33984 L 12.5195 -6.23047 L 15.5762 -6.23047 C 16.123 -6.23047 16.5039 -6.51367 16.5039 -7.03125 C 16.5039 -7.55859 16.1426 -7.86133 15.5762 -7.86133 L 12.5195 -7.86133 L 12.5195 -10.9277 C 12.5195 -11.5039 12.207 -11.8555 11.6797 -11.8555 C 11.1621 -11.8555 10.8789 -11.4844 10.8789 -10.9277 L 10.8789 -7.86133 L 7.83203 -7.86133 C 7.25586 -7.86133 6.89453 -7.55859 6.89453 -7.03125 C 6.89453 -6.51367 7.28516 -6.23047 7.83203 -6.23047 L 10.8789 -6.23047 L 10.8789 -3.33984 C 10.8789 -2.79297 11.1621 -2.41211 11.6797 -2.41211 Z"/>
  </g>
  <g id="" transform="matrix(1 0 0 1 304.914 1933)">
   <path d="M 14.9707 5.67383 C 21.9336 5.67383 27.6855 -0.078125 27.6855 -7.04102 C 27.6855 -14.0039 21.9238 -19.7559 14.9609 -19.7559 C 7.99805 -19.7559 2.25586 -14.0039 2.25586 -7.04102 C 2.25586 -0.078125 8.00781 5.67383 14.9707 5.67383 Z M 14.9707 3.85742 C 8.92578 3.85742 4.08203 -1.00586 4.08203 -7.04102 C 4.08203 -13.0762 8.91602 -17.9395 14.9609 -17.9395 C 20.9961 -17.9395 25.8594 -13.0762 25.8691 -7.04102 C 25.8789 -1.00586 21.0059 3.85742 14.9707 3.85742 Z M 14.9414 -1.06445 C 15.5176 -1.06445 15.8594 -1.45508 15.8594 -2.06055 L 15.8594 -6.13281 L 20.0977 -6.13281 C 20.6934 -6.13281 21.1133 -6.46484 21.1133 -7.02148 C 21.1133 -7.59766 20.7227 -7.93945 20.0977 -7.93945 L 15.8594 -7.93945 L 15.8594 -12.1875 C 15.8594 -12.8027 15.5176 -13.1934 14.9414 -13.1934 C 14.3848 -13.1934 14.0625 -12.7832 14.0625 -12.1875 L 14.0625 -7.93945 L 9.82422 -7.93945 C 9.20898 -7.93945 8.80859 -7.59766 8.80859 -7.02148 C 8.80859 -6.46484 9.23828 -6.13281 9.82422 -6.13281 L 14.0625 -6.13281 L 14.0625 -2.06055 C 14.0625 -1.47461 14.3848 -1.06445 14.9414 -1.06445 Z"/>
  </g>
  <text style="stroke:none;fill:black;font-family:-apple-system,&quot;SF Pro Display&quot;,&quot;SF Pro Text&quot;,Helvetica,sans-serif;font-weight:bold;" transform="matrix(1 0 0 1 263 1953)">Design Variations</text>
  <text style="stroke:none;fill:black;font-family:-apple-system,&quot;SF Pro Display&quot;,&quot;SF Pro Text&quot;,Helvetica,sans-serif;" transform="matrix(1 0 0 1 263 1971)">Symbols are supported in up to nine weights and three scales.</text>
  <text style="stroke:none;fill:black;font-family:-apple-system,&quot;SF Pro Display&quot;,&quot;SF Pro Text&quot;,Helvetica,sans-serif;" transform="matrix(1 0 0 1 263 1989)">For optimal layout with text and other symbols, vertically align</text>
  <text style="stroke:none;fill:black;font-family:-apple-system,&quot;SF Pro Display&quot;,&quot;SF Pro Text&quot;,Helvetica,sans-serif;" transform="matrix(1 0 0 1 263 2007)">symbols with the adjacent text.</text>
  <rect height="14" id="" style="fill:#00AEEF;stroke:none;opacity:0.4;" width="3" x="776" y="1919"/>
  <g id="" transform="matrix(1 0 0 1 779 1933)">
   <path d="M 10.5273 0 L 12.373 0 L 7.17773 -14.0918 L 5.43945 -14.0918 L 0.244141 0 L 2.08984 0 L 3.50586 -4.0332 L 9.11133 -4.0332 Z M 6.2793 -11.9531 L 6.33789 -11.9531 L 8.59375 -5.52734 L 4.02344 -5.52734 Z"/>
  </g>
  <rect height="14" id="" style="fill:#00AEEF;stroke:none;opacity:0.4;" width="3" x="791.617" y="1919"/>
  <text style="stroke:none;fill:black;font-family:-apple-system,&quot;SF Pro Display&quot;,&quot;SF Pro Text&quot;,Helvetica,sans-serif;font-weight:bold;" transform="matrix(1 0 0 1 776 1953)">Side Bearings</text>
  <text style="stroke:none;fill:black;font-family:-apple-system,&quot;SF Pro Display&quot;,&quot;SF Pro Text&quot;,Helvetica,sans-serif;" transform="matrix(1 0 0 1 776 1971)">Horizontal padding on the left and right side of each symbol</text>
  <text style="stroke:none;fill:black;font-family:-apple-system,&quot;SF Pro Display&quot;,&quot;SF Pro Text&quot;,Helvetica,sans-serif;" transform="matrix(1 0 0 1 776 1989)">can be adjusted by modifying the width of the blue rectangles.</text>
  <text style="stroke:none;fill:black;font-family:-apple-system,&quot;SF Pro Display&quot;,&quot;SF Pro Text&quot;,Helvetica,sans-serif;" transform="matrix(1 0 0 1 776 2007)">Modifications are automatically applied proportionally to all</text>
  <text style="stroke:none;fill:black;font-family:-apple-system,&quot;SF Pro Display&quot;,&quot;SF Pro Text&quot;,Helvetica,sans-serif;" transform="matrix(1 0 0 1 776 2025)">scales and weights.</text>
  <g id="" transform="matrix(1 0 0 1 1289 1933)">
   <path d="M 2.96875 2.35352 L 3.80859 3.19336 C 4.84375 4.22852 6.12305 4.15039 7.19727 2.97852 L 16.1621 -6.82617 C 16.5527 -6.74805 16.9629 -6.8457 17.4902 -7.02148 C 18.1738 -7.25586 18.2715 -7.25586 18.3887 -7.13867 C 18.5352 -7.01172 18.4863 -6.89453 18.2422 -6.25 C 17.8809 -5.33203 17.8125 -4.79492 18.5547 -4.02344 L 19.4238 -3.13477 C 20.2734 -2.24609 21.3281 -2.26562 22.2168 -3.14453 L 25.0586 -5.97656 C 25.9473 -6.86523 25.957 -7.92969 25.0781 -8.7793 L 24.1797 -9.64844 C 23.4082 -10.4004 22.8711 -10.3516 21.9629 -9.98047 C 21.3184 -9.72656 21.2012 -9.6875 21.0645 -9.81445 C 20.9375 -9.93164 20.9473 -10.0391 21.1816 -10.7129 C 21.5332 -11.6895 21.5723 -12.2852 20.752 -13.0957 L 19.3359 -14.5117 C 15.1953 -18.6133 11.2305 -18.7402 7.65625 -15.4395 C 7.08008 -14.9023 6.99219 -14.1504 7.53906 -13.6133 L 7.79297 -13.3594 C 8.22266 -12.9297 8.86719 -12.8418 9.41406 -13.1152 C 11.0645 -13.9453 12.2559 -14.0234 13.457 -12.9785 L 13.0273 -11.416 C 12.8516 -10.8008 12.793 -10.3418 12.9199 -9.93164 L 3.18359 -1.04492 C 2.02148 0.0292969 1.93359 1.32812 2.96875 2.35352 Z M 8.96484 -14.4922 C 8.89648 -14.5703 8.86719 -14.6582 8.99414 -14.7559 C 11.709 -17.2852 15.0391 -16.8457 18.3496 -13.5254 L 19.6973 -12.168 C 20.0879 -11.7773 20.0977 -11.582 19.8828 -10.8691 C 19.6582 -10.127 19.502 -9.53125 20.1465 -8.88672 C 20.8105 -8.22266 21.2891 -8.41797 22.207 -8.63281 C 22.9004 -8.79883 23.0664 -8.79883 23.4473 -8.41797 L 24.0918 -7.77344 C 24.4043 -7.48047 24.4141 -7.32422 24.0723 -6.97266 L 21.2207 -4.13086 C 20.8887 -3.79883 20.7227 -3.79883 20.4297 -4.10156 L 19.7852 -4.75586 C 19.4141 -5.13672 19.4141 -5.30273 19.5801 -6.01562 C 19.7852 -6.88477 19.9805 -7.38281 19.3262 -8.04688 C 18.6719 -8.7207 18.0762 -8.57422 17.3438 -8.33008 C 16.5625 -8.06641 16.3281 -8.06641 15.8984 -8.49609 L 14.6094 -9.78516 C 14.1699 -10.2246 14.1309 -10.4395 14.2676 -10.9082 L 15.0293 -13.3984 C 13.3887 -15.2832 11.4941 -15.5566 9.20898 -14.4434 C 9.11133 -14.3945 9.04297 -14.4141 8.96484 -14.4922 Z M 3.96484 1.36719 C 3.52539 0.927734 3.54492 0.537109 4.14062 -0.00976562 L 13.7402 -8.81836 L 15 -7.55859 L 6.17188 2.02148 C 5.625 2.60742 5.24414 2.64648 4.79492 2.19727 Z"/>
  </g>
  <text style="stroke:none;fill:black;font-family:-apple-system,&quot;SF Pro Display&quot;,&quot;SF Pro Text&quot;,Helvetica,sans-serif;font-weight:bold;" transform="matrix(1 0 0 1 1289 1953)">Exporting</text>
  <text style="stroke:none;fill:black;font-family:-apple-system,&quot;SF Pro Display&quot;,&quot;SF Pro Text&quot;,Helvetica,sans-serif;" transform="matrix(1 0 0 1 1289 1971)">Symbols should be outlined when exporting to ensure the</text>
  <text style="stroke:none;fill:black;font-family:-apple-system,&quot;SF Pro Display&quot;,&quot;SF Pro Text&quot;,Helvetica,sans-serif;" transform="matrix(1 0 0 1 1289 1989)">design is preserved when submitting to Xcode.</text>
  <text id="template-version" style="stroke:none;fill:black;font-family:-apple-system,&quot;SF Pro Display&quot;,&quot;SF Pro Text&quot;,Helvetica,sans-serif;text-anchor:end;" transform="matrix(1 0 0 1 3036 1933)">Template v.0.1</text>
  <text style="stroke:none;fill:black;font-family:-apple-system,&quot;SF Pro Display&quot;,&quot;SF Pro Text&quot;,Helvetica,sans-serif;text-anchor:end;" transform="matrix(1 0 0 1 3036 1951)">Generated from tray</text>
  <text style="stroke:none;fill:black;font-family:-apple-system,&quot;SF Pro Display&quot;,&quot;SF Pro Text&quot;,Helvetica,sans-serif;text-anchor:end;" transform="matrix(1 0 0 1 3036 1969)">Typeset at 100 points</text>
  <text style="stroke:none;fill:black;font-family:-apple-system,&quot;SF Pro Display&quot;,&quot;SF Pro Text&quot;,Helvetica,sans-serif;" transform="matrix(1 0 0 1 263 726)">Small</text>
  <text style="stroke:none;fill:black;font-family:-apple-system,&quot;SF Pro Display&quot;,&quot;SF Pro Text&quot;,Helvetica,sans-serif;" transform="matrix(1 0 0 1 263 1156)">Medium</text>
  <text style="stroke:none;fill:black;font-family:-apple-system,&quot;SF Pro Display&quot;,&quot;SF Pro Text&quot;,Helvetica,sans-serif;" transform="matrix(1 0 0 1 263 1586)">Large</text>
 </g>
 <g id="Guides">
  <g id="H-reference" style="fill:#27AAE1;stroke:none;" transform="matrix(1 0 0 1 339 696)">
   <path d="M 54.9316 0 L 57.666 0 L 30.5664 -70.459 L 28.0762 -70.459 L 0.976562 0 L 3.66211 0 L 12.9395 -24.4629 L 45.7031 -24.4629 Z M 29.1992 -67.0898 L 29.4434 -67.0898 L 44.8242 -26.709 L 13.8184 -26.709 Z"/>
  </g>
  <line id="Baseline-S" style="fill:none;stroke:#27AAE1;opacity:1;stroke-width:0.577;" x1="263" x2="3036" y1="696" y2="696"/>
  <line id="Capline-S" style="fill:none;stroke:#27AAE1;opacity:1;stroke-width:0.577;" x1="263" x2="3036" y1="625.541" y2="625.541"/>
  <g id="H-reference" style="fill:#27AAE1;stroke:none;" transform="matrix(1 0 0 1 339 1126)">
   <path d="M 54.9316 0 L 57.666 0 L 30.5664 -70.459 L 28.0762 -70.459 L 0.976562 0 L 3.66211 0 L 12.9395 -24.4629 L 45.7031 -24.4629 Z M 29.1992 -67.0898 L 29.4434 -67.0898 L 44.8242 -26.709 L 13.8184 -26.709 Z"/>
  </g>
  <line id="Baseline-M" style="fill:none;stroke:#27AAE1;opacity:1;stroke-width:0.577;" x1="263" x2="3036" y1="1126" y2="1126"/>
  <line id="Capline-M" style="fill:none;stroke:#27AAE1;opacity:1;stroke-width:0.577;" x1="263" x2="3036" y1="1055.54" y2="1055.54"/>
  <g id="H-reference" style="fill:#27AAE1;stroke:none;" transform="matrix(1 0 0 1 339 1556)">
   <path d="M 54.9316 0 L 57.666 0 L 30.5664 -70.459 L 28.0762 -70.459 L 0.976562 0 L 3.66211 0 L 12.9395 -24.4629 L 45.7031 -24.4629 Z M 29.1992 -67.0898 L 29.4434 -67.0898 L 44.8242 -26.709 L 13.8184 -26.709 Z"/>
  </g>
  <line id="Baseline-L" style="fill:none;stroke:#27AAE1;opacity:1;stroke-width:0.577;" x1="263" x2="3036" y1="1556" y2="1556"/>
  <line id="Capline-L" style="fill:none;stroke:#27AAE1;opacity:1;stroke-width:0.577;" x1="263" x2="3036" y1="1485.54" y2="1485.54"/>
  <rect height="119.336" id="left-margin" style="fill:#00AEEF;stroke:none;opacity:0.4;" width="12.4512" x="1379.8" y="1030.79"/>
  <rect height="119.336" id="right-margin" style="fill:#00AEEF;stroke:none;opacity:0.4;" width="12.4512" x="1507.44" y="1030.79"/>
 </g>
 <g id="Symbols">
  <g id="Ultralight-S" transform="matrix(1 0 0 1 505.707 696)">
   <path d="M 19.7754 -4.83398 L 88.2812 -4.83398 C 94.8242 -4.83398 98.2422 -8.39844 98.2422 -14.7949 L 98.2422 -35.4492 C 98.2422 -37.4512 97.9492 -38.3301 96.9727 -39.5996 L 80.6152 -60.7422 C 77.6855 -64.502 75.7812 -65.4785 70.8496 -65.4785 L 37.207 -65.4785 C 32.2266 -65.4785 30.3223 -64.502 27.3926 -60.7422 L 11.0352 -39.5996 C 10.0586 -38.3301 9.76562 -37.4512 9.76562 -35.4492 L 9.76562 -14.7949 C 9.76562 -8.30078 13.2324 -4.83398 19.7754 -4.83398 Z M 54.0039 -24.4629 C 47.9492 -24.4629 43.3105 -29.1504 43.3105 -35.4004 L 43.3105 -35.6934 C 43.3105 -36.6699 42.7734 -37.3535 41.748 -37.3535 L 13.0371 -37.3535 C 12.5 -37.3535 12.3535 -37.793 12.6953 -38.2324 L 29.6387 -60.1074 C 31.4941 -62.4512 33.4473 -63.4277 36.7676 -63.4277 L 71.2891 -63.4277 C 74.5605 -63.4277 76.5137 -62.4512 78.3691 -60.1074 L 95.4102 -38.2324 C 95.7031 -37.793 95.5566 -37.3535 95.0195 -37.3535 L 66.3086 -37.3535 C 65.2344 -37.3535 64.7461 -36.6699 64.7461 -35.6934 L 64.7461 -35.4004 C 64.7461 -29.1504 60.0586 -24.4629 54.0039 -24.4629 Z M 19.873 -7.03125 C 14.6484 -7.03125 11.9629 -9.7168 11.9629 -14.9414 L 11.9629 -35.2539 L 41.0156 -35.2539 C 41.1133 -27.5879 46.875 -22.4121 54.0039 -22.4121 C 61.1328 -22.4121 66.8945 -27.6855 66.9922 -35.2539 L 96.0449 -35.2539 L 96.0449 -14.9414 C 96.0449 -9.7168 93.1641 -7.03125 88.1836 -7.03125 Z"/>
  </g>
  <g id="Thin-S" transform="matrix(1 0 0 1 802.174 696)">
   <path d="M 20.3125 -4.19922 L 88.1836 -4.19922 C 95.1172 -4.19922 98.7305 -7.86133 98.7305 -14.6973 L 98.7305 -35.8887 C 98.7305 -38.2812 98.3887 -39.4043 97.2168 -40.918 L 81.7383 -60.6934 C 78.3691 -64.9902 76.416 -66.1621 70.9961 -66.1621 L 37.5488 -66.1621 C 32.0801 -66.1621 30.127 -64.9902 26.7578 -60.6934 L 11.2793 -40.918 C 10.1074 -39.4043 9.76562 -38.2812 9.76562 -35.8887 L 9.76562 -14.6973 C 9.76562 -7.76367 13.3789 -4.19922 20.3125 -4.19922 Z M 54.248 -25.1953 C 48.3887 -25.1953 44.043 -29.8828 44.043 -35.5957 L 44.043 -35.8398 C 44.043 -37.0117 43.4082 -37.8906 42.0898 -37.8906 L 14.3555 -37.8906 C 13.623 -37.8906 13.4766 -38.5254 13.8672 -39.0625 L 30.0781 -59.8145 C 31.9336 -62.207 33.9355 -63.1348 37.1094 -63.1348 L 71.4355 -63.1348 C 74.5605 -63.1348 76.5625 -62.207 78.4668 -59.8145 L 94.6777 -39.0625 C 95.0684 -38.5254 94.873 -37.8906 94.1406 -37.8906 L 66.4062 -37.8906 C 65.0879 -37.8906 64.4531 -37.0117 64.4531 -35.8398 L 64.4531 -35.5957 C 64.4531 -29.8828 60.1562 -25.1953 54.248 -25.1953 Z M 20.4102 -7.51953 C 15.625 -7.51953 13.0859 -10.0098 13.0859 -14.8438 L 13.0859 -34.8145 L 40.7715 -34.8145 C 41.1133 -27.2949 46.9727 -22.0703 54.248 -22.0703 C 61.5723 -22.0703 67.3828 -27.3926 67.7246 -34.8145 L 95.4102 -34.8145 L 95.4102 -14.8438 C 95.4102 -10.0098 92.7246 -7.51953 88.0859 -7.51953 Z"/>
  </g>
  <g id="Light-S" transform="matrix(1 0 0 1 1098.42 696)">
   <path d="M 21.3867 -2.97852 L 88.0371 -2.97852 C 95.752 -2.97852 99.6582 -6.83594 99.6582 -14.4531 L 99.6582 -36.7188 C 99.6582 -39.9414 99.2188 -41.5039 97.6562 -43.457 L 83.8379 -60.6934 C 79.6387 -65.8691 77.6855 -67.4316 71.2402 -67.4316 L 38.1836 -67.4316 C 31.7383 -67.4316 29.7852 -65.8691 25.5859 -60.6934 L 11.7676 -43.457 C 10.2051 -41.5039 9.76562 -39.9414 9.76562 -36.7188 L 9.76562 -14.4531 C 9.76562 -6.83594 13.6719 -2.97852 21.3867 -2.97852 Z M 54.7363 -26.5137 C 49.1699 -26.5137 45.5078 -31.2012 45.5078 -35.9863 L 45.5078 -36.1328 C 45.5078 -37.6465 44.6289 -38.9648 42.8223 -38.9648 L 16.9434 -38.9648 C 15.8203 -38.9648 15.5762 -39.9414 16.1621 -40.6738 L 30.8594 -59.3262 C 32.7637 -61.7188 34.8633 -62.6465 37.7441 -62.6465 L 71.6797 -62.6465 C 74.5605 -62.6465 76.6602 -61.7188 78.5645 -59.3262 L 93.2617 -40.6738 C 93.8477 -39.9414 93.6035 -38.9648 92.4805 -38.9648 L 66.6016 -38.9648 C 64.7949 -38.9648 63.9648 -37.6465 63.9648 -36.1328 L 63.9648 -35.9863 C 63.9648 -31.2012 60.2539 -26.5137 54.7363 -26.5137 Z M 21.4844 -8.39844 C 17.4316 -8.39844 15.1855 -10.5469 15.1855 -14.7461 L 15.1855 -34.0332 L 40.332 -34.0332 C 41.1133 -26.8066 47.0703 -21.5332 54.7363 -21.5332 C 62.3535 -21.5332 68.3105 -26.8066 69.0918 -34.0332 L 94.2383 -34.0332 L 94.2383 -14.7461 C 94.2383 -10.5469 91.9434 -8.39844 87.9395 -8.39844 Z"/>
  </g>
  <g id="Regular-S" transform="matrix(1 0 0 1 1394.79 696)">
   <path d="M 22.2168 -2.00195 L 87.8906 -2.00195 C 96.2402 -2.00195 100.342 -6.10352 100.342 -14.3066 L 100.342 -37.4023 C 100.342 -41.2109 99.8535 -43.0664 97.998 -45.3613 L 85.4492 -60.6445 C 80.6152 -66.5527 78.6621 -68.4082 71.4355 -68.4082 L 38.6719 -68.4082 C 31.4941 -68.4082 29.4922 -66.5527 24.6582 -60.6445 L 12.1582 -45.3613 C 10.3027 -43.0664 9.76562 -41.2109 9.76562 -37.4023 L 9.76562 -14.3066 C 9.76562 -6.10352 13.916 -2.00195 22.2168 -2.00195 Z M 55.0781 -27.5391 C 49.8047 -27.5391 46.582 -32.2266 46.582 -36.2793 L 46.582 -36.377 C 46.582 -38.0859 45.5566 -39.7949 43.3594 -39.7949 L 18.8965 -39.7949 C 17.4805 -39.7949 17.1875 -41.0156 17.9199 -41.9434 L 31.4941 -58.9355 C 33.3984 -61.3281 35.5469 -62.2559 38.2324 -62.2559 L 71.875 -62.2559 C 74.5605 -62.2559 76.7578 -61.3281 78.6621 -58.9355 L 92.2363 -41.9434 C 92.9199 -41.0156 92.627 -39.7949 91.2598 -39.7949 L 66.748 -39.7949 C 64.5996 -39.7949 63.5254 -38.0859 63.5254 -36.377 L 63.5254 -36.2793 C 63.5254 -32.2266 60.3516 -27.5391 55.0781 -27.5391 Z M 22.3145 -9.08203 C 18.7988 -9.08203 16.7969 -10.9863 16.7969 -14.6484 L 16.7969 -33.3984 L 39.9902 -33.3984 C 41.1133 -26.3672 47.168 -21.0938 55.0781 -21.0938 C 62.9883 -21.0938 68.9941 -26.416 70.1172 -33.3984 L 93.3105 -33.3984 L 93.3105 -14.6484 C 93.3105 -10.9863 91.3086 -9.08203 87.793 -9.08203 Z"/>
  </g>
  <g id="Medium-S" transform="matrix(1 0 0 1 1691.26 696)">
   <path d="M 22.8516 -1.17188 L 87.7441 -1.17188 C 96.3379 -1.17188 100.83 -5.61523 100.83 -14.1113 L 100.83 -37.1094 C 100.83 -41.8457 100.244 -43.9941 97.998 -46.7285 L 86.1328 -61.1816 C 81.1035 -67.2852 78.9551 -69.2383 71.7285 -69.2383 L 38.8672 -69.2383 C 31.5918 -69.2383 29.4922 -67.2852 24.4629 -61.1816 L 12.5977 -46.7285 C 10.3516 -43.9941 9.76562 -41.8457 9.76562 -37.1094 L 9.76562 -14.1113 C 9.76562 -5.56641 14.2578 -1.17188 22.8516 -1.17188 Z M 55.2734 -29.1992 C 50.3418 -29.1992 47.3633 -33.5449 47.3633 -37.3047 L 47.3633 -37.4023 C 47.3633 -39.0137 46.3867 -40.5273 44.2383 -40.5273 L 20.4102 -40.5273 C 19.043 -40.5273 18.75 -41.6992 19.4336 -42.5781 L 32.7148 -59.082 C 34.375 -61.1816 36.2793 -62.0605 38.7207 -62.0605 L 71.8262 -62.0605 C 74.2676 -62.0605 76.2207 -61.1816 77.8809 -59.082 L 91.1133 -42.5781 C 91.7969 -41.6992 91.5527 -40.5273 90.1855 -40.5273 L 66.3574 -40.5273 C 64.1602 -40.5273 63.1836 -39.0137 63.1836 -37.4023 L 63.1836 -37.3047 C 63.1836 -33.5449 60.2539 -29.1992 55.2734 -29.1992 Z M 23.291 -9.81445 C 20.0684 -9.81445 18.3105 -11.4746 18.3105 -14.8926 L 18.3105 -32.9102 L 40.0879 -32.9102 C 41.5039 -26.2695 47.4609 -21.2402 55.2734 -21.2402 C 63.0859 -21.2402 69.0918 -26.2695 70.5078 -32.9102 L 92.2852 -32.9102 L 92.2852 -14.8926 C 92.2852 -11.4746 90.4785 -9.81445 87.2559 -9.81445 Z"/>
  </g>
  <g id="Semibold-S" transform="matrix(1 0 0 1 1987.8 696)">
   <path d="M 23.3398 -0.488281 L 87.5977 -0.488281 C 96.4355 -0.488281 101.172 -5.22461 101.172 -13.9648 L 101.172 -36.9141 C 101.172 -42.2852 100.488 -44.6777 97.998 -47.7539 L 86.6211 -61.5723 C 81.4453 -67.8711 79.248 -69.9219 71.9238 -69.9219 L 39.0137 -69.9219 C 31.6895 -69.9219 29.4922 -67.8711 24.2676 -61.5723 L 12.9395 -47.7539 C 10.4492 -44.6777 9.76562 -42.2852 9.76562 -36.9141 L 9.76562 -13.9648 C 9.76562 -5.22461 14.5508 -0.488281 23.3398 -0.488281 Z M 55.4688 -30.4688 C 50.7324 -30.4688 47.998 -34.5703 47.998 -38.0859 L 47.998 -38.1836 C 47.998 -39.6973 47.0703 -41.0645 44.9219 -41.0645 L 21.5332 -41.0645 C 20.2148 -41.0645 19.9707 -42.2363 20.6543 -43.0664 L 33.6426 -59.1797 C 35.1562 -61.0352 36.8652 -61.9141 39.1113 -61.9141 L 71.7773 -61.9141 C 74.0723 -61.9141 75.7812 -61.0352 77.2949 -59.1797 L 90.2832 -43.0664 C 90.9668 -42.2363 90.6738 -41.0645 89.4043 -41.0645 L 66.0156 -41.0645 C 63.8672 -41.0645 62.9395 -39.6973 62.9395 -38.1836 L 62.9395 -38.0859 C 62.9395 -34.5703 60.2051 -30.4688 55.4688 -30.4688 Z M 24.0723 -10.4004 C 21.0449 -10.4004 19.4336 -11.9141 19.4336 -15.0879 L 19.4336 -32.5195 L 40.1367 -32.5195 C 41.7969 -26.1719 47.7051 -21.3867 55.4688 -21.3867 C 63.2324 -21.3867 69.0918 -26.1719 70.8008 -32.5195 L 91.5039 -32.5195 L 91.5039 -15.0879 C 91.5039 -11.9141 89.8438 -10.4004 86.8652 -10.4004 Z"/>
  </g>
  <g id="Bold-S" transform="matrix(1 0 0 1 2284.29 696)">
   <path d="M 23.9746 0.390625 L 87.4023 0.390625 C 96.5332 0.390625 101.611 -4.73633 101.611 -13.7695 L 101.611 -36.6699 C 101.611 -42.9688 100.879 -45.6055 97.998 -49.1211 L 87.3047 -62.0605 C 81.9336 -68.6523 79.5898 -70.8008 72.168 -70.8008 L 39.209 -70.8008 C 31.7871 -70.8008 29.4922 -68.6523 24.0723 -62.0605 L 13.3789 -49.1211 C 10.498 -45.5566 9.76562 -42.9688 9.76562 -36.6699 L 9.76562 -13.7695 C 9.76562 -4.6875 14.8926 0.390625 23.9746 0.390625 Z M 55.7129 -32.1289 C 51.2695 -32.1289 48.7793 -35.8887 48.7793 -39.1602 L 48.7793 -39.2578 C 48.7793 -40.625 47.9492 -41.7969 45.8008 -41.7969 L 23.0469 -41.7969 C 21.8262 -41.7969 21.5332 -42.8711 22.2168 -43.7012 L 34.8633 -59.2773 C 36.1328 -60.8887 37.5977 -61.7188 39.6484 -61.7188 L 71.7285 -61.7188 C 73.7793 -61.7188 75.2441 -60.8887 76.5137 -59.2773 L 89.1602 -43.7012 C 89.8438 -42.8711 89.5508 -41.7969 88.3301 -41.7969 L 65.5762 -41.7969 C 63.4277 -41.7969 62.5977 -40.625 62.5977 -39.2578 L 62.5977 -39.1602 C 62.5977 -35.8887 60.1074 -32.1289 55.7129 -32.1289 Z M 25.0488 -11.1816 C 22.3633 -11.1816 20.9473 -12.4512 20.9473 -15.332 L 20.9473 -32.0312 L 40.1855 -32.0312 C 42.1875 -26.0742 48.0469 -21.582 55.7129 -21.582 C 63.3301 -21.582 69.1895 -26.0742 71.1914 -32.0312 L 90.4297 -32.0312 L 90.4297 -15.332 C 90.4297 -12.4512 89.0137 -11.1816 86.3281 -11.1816 Z"/>
  </g>
  <g id="Heavy-S" transform="matrix(1 0 0 1 2580.66 696)">
   <path d="M 24.9023 1.61133 L 87.1094 1.61133 C 96.6309 1.61133 102.295 -4.00391 102.295 -13.5254 L 102.295 -36.2793 C 102.295 -43.8965 101.465 -46.9238 97.998 -51.123 L 88.2812 -62.8418 C 82.5684 -69.7754 80.0781 -72.0215 72.5586 -72.0215 L 39.4531 -72.0215 C 31.9824 -72.0215 29.4434 -69.7754 23.7305 -62.8418 L 14.0625 -51.123 C 10.6445 -46.875 9.76562 -43.8965 9.76562 -36.2793 L 9.76562 -13.5254 C 9.76562 -4.00391 15.3809 1.61133 24.9023 1.61133 Z M 56.0059 -34.5703 C 52.002 -34.5703 49.9023 -37.793 49.9023 -40.6738 L 49.9023 -40.7715 C 49.9023 -41.9434 49.1699 -42.8711 47.0703 -42.8711 L 25.2441 -42.8711 C 24.0723 -42.8711 23.8281 -43.8965 24.4629 -44.6777 L 36.6699 -59.4727 C 37.5977 -60.6445 38.6719 -61.4746 40.3809 -61.4746 L 71.6797 -61.4746 C 73.3887 -61.4746 74.4141 -60.6445 75.3906 -59.4727 L 87.5488 -44.6777 C 88.1836 -43.8965 87.9395 -42.8711 86.7676 -42.8711 L 64.9902 -42.8711 C 62.8418 -42.8711 62.1094 -41.9434 62.1094 -40.7715 L 62.1094 -40.6738 C 62.1094 -37.793 60.0098 -34.5703 56.0059 -34.5703 Z M 26.5137 -12.3047 C 24.2188 -12.3047 23.1445 -13.2324 23.1445 -15.7227 L 23.1445 -31.3477 L 40.2832 -31.3477 C 42.7734 -25.9277 48.4863 -21.875 56.0059 -21.875 C 63.5254 -21.875 69.2383 -25.9277 71.7285 -31.3477 L 88.916 -31.3477 L 88.916 -15.7227 C 88.916 -13.2324 87.793 -12.3047 85.498 -12.3047 Z"/>
  </g>
  <g id="Black-S" transform="matrix(1 0 0 1 2877.08 696)">
   <path d="M 25.7324 2.7832 L 86.9141 2.7832 C 96.7773 2.7832 102.881 -3.32031 102.881 -13.2812 L 102.881 -35.9375 C 102.881 -44.7266 101.953 -48.0957 97.998 -52.8809 L 89.1602 -63.5254 C 83.2031 -70.752 80.5176 -73.1934 72.9004 -73.1934 L 39.6973 -73.1934 C 32.1289 -73.1934 29.4434 -70.752 23.4375 -63.5254 L 14.6484 -52.8809 C 10.7422 -48.0469 9.76562 -44.7266 9.76562 -35.9375 L 9.76562 -13.2812 C 9.76562 -3.32031 15.8203 2.7832 25.7324 2.7832 Z M 56.2988 -36.7188 C 52.7344 -36.7188 50.9766 -39.5508 50.9766 -41.9922 L 50.9766 -42.0898 C 50.9766 -43.1152 50.3418 -43.7988 48.1934 -43.7988 L 27.2461 -43.7988 C 26.123 -43.7988 25.9277 -44.7754 26.5137 -45.5078 L 38.2812 -59.6191 C 38.916 -60.4004 39.6484 -61.2305 41.0156 -61.2305 L 71.6309 -61.2305 C 72.998 -61.2305 73.6816 -60.4004 74.3652 -59.6191 L 86.1328 -45.5078 C 86.7188 -44.7754 86.4746 -43.7988 85.4004 -43.7988 L 64.4043 -43.7988 C 62.3047 -43.7988 61.6699 -43.1152 61.6699 -42.0898 L 61.6699 -41.9922 C 61.6699 -39.5508 59.9121 -36.7188 56.2988 -36.7188 Z M 27.832 -13.2812 C 25.9277 -13.2812 25.0977 -13.916 25.0977 -16.0156 L 25.0977 -30.6641 L 40.3809 -30.6641 C 43.3105 -25.7812 48.9258 -22.1191 56.2988 -22.1191 C 63.7207 -22.1191 69.3359 -25.7812 72.2656 -30.6641 L 87.5488 -30.6641 L 87.5488 -16.0156 C 87.5488 -13.916 86.7188 -13.2812 84.8145 -13.2812 Z"/>
  </g>
  <g id="Ultralight-M" transform="matrix(1 0 0 1 490.863 1126)">
   <path d="M 25 3.32031 L 112.695 3.32031 C 120.898 3.32031 125.244 -1.17188 125.244 -9.22852 L 125.244 -35.3516 C 125.244 -37.7441 124.854 -38.7695 123.682 -40.332 L 102.49 -67.7734 C 98.9258 -72.4121 96.4844 -73.584 90.3809 -73.584 L 47.3145 -73.584 C 41.2109 -73.584 38.7695 -72.4121 35.2051 -67.7734 L 14.0137 -40.332 C 12.8418 -38.7695 12.4512 -37.7441 12.4512 -35.3516 L 12.4512 -9.22852 C 12.4512 -1.02539 16.7969 3.32031 25 3.32031 Z M 68.8477 -21.2402 C 61.0352 -21.2402 54.9805 -27.1973 54.9805 -35.3516 L 54.9805 -35.7422 C 54.9805 -36.9629 54.3457 -37.6953 53.125 -37.6953 L 16.1621 -37.6953 C 15.5273 -37.6953 15.332 -38.2324 15.7227 -38.7207 L 37.6465 -67.0898 C 40.0391 -70.0684 42.5293 -71.2891 46.7773 -71.2891 L 90.918 -71.2891 C 95.166 -71.2891 97.6562 -70.0684 100.049 -67.0898 L 122.021 -38.7207 C 122.412 -38.2324 122.217 -37.6953 121.631 -37.6953 L 84.5703 -37.6953 C 83.3496 -37.6953 82.7148 -36.9629 82.7148 -35.7422 L 82.7148 -35.3516 C 82.7148 -27.1973 76.6602 -21.2402 68.8477 -21.2402 Z M 25.1465 0.927734 C 18.3594 0.927734 14.8438 -2.58789 14.8438 -9.32617 L 14.8438 -35.4004 L 52.4414 -35.4004 C 52.4902 -25.5859 59.8145 -18.9453 68.8477 -18.9453 C 77.8809 -18.9453 85.2051 -25.6836 85.2539 -35.4004 L 122.852 -35.4004 L 122.852 -9.32617 C 122.852 -2.58789 119.092 0.927734 112.549 0.927734 Z"/>
  </g>
  <g id="Thin-M" transform="matrix(1 0 0 1 787.306 1126)">
   <path d="M 25.6348 4.05273 L 112.598 4.05273 C 121.24 4.05273 125.781 -0.585938 125.781 -9.08203 L 125.781 -35.8398 C 125.781 -38.6719 125.342 -39.9902 123.975 -41.7969 L 103.711 -67.7734 C 99.6582 -72.9492 97.2168 -74.3164 90.5273 -74.3164 L 47.7051 -74.3164 C 41.0156 -74.3164 38.5742 -72.9492 34.5215 -67.7734 L 14.2578 -41.7969 C 12.8906 -39.9902 12.4512 -38.6719 12.4512 -35.8398 L 12.4512 -9.08203 C 12.4512 -0.488281 16.9922 4.05273 25.6348 4.05273 Z M 69.0918 -22.0215 C 61.5234 -22.0215 55.8105 -28.0273 55.8105 -35.5957 L 55.8105 -35.9375 C 55.8105 -37.3535 55.0781 -38.3301 53.5645 -38.3301 L 17.627 -38.3301 C 16.7969 -38.3301 16.6016 -39.0625 17.041 -39.6973 L 38.1348 -66.7969 C 40.5273 -69.7754 43.0664 -70.9961 47.168 -70.9961 L 91.0645 -70.9961 C 95.166 -70.9961 97.7051 -69.7754 100.098 -66.7969 L 121.24 -39.6973 C 121.68 -39.0625 121.484 -38.3301 120.654 -38.3301 L 84.668 -38.3301 C 83.1543 -38.3301 82.4219 -37.3535 82.4219 -35.9375 L 82.4219 -35.5957 C 82.4219 -28.0273 76.709 -22.0215 69.0918 -22.0215 Z M 25.7324 0.390625 C 19.4336 0.390625 16.1133 -2.88086 16.1133 -9.27734 L 16.1133 -34.9609 L 52.1973 -34.9609 C 52.4902 -25.2441 59.9121 -18.6035 69.0918 -18.6035 C 78.3203 -18.6035 85.7422 -25.3418 86.0352 -34.9609 L 122.119 -34.9609 L 122.119 -9.27734 C 122.119 -2.88086 118.604 0.390625 112.451 0.390625 Z"/>
  </g>
  <g id="Light-M" transform="matrix(1 0 0 1 1083.48 1126)">
   <path d="M 26.8555 5.41992 L 112.402 5.41992 C 121.973 5.41992 126.807 0.585938 126.807 -8.83789 L 126.807 -36.8164 C 126.807 -40.5762 126.27 -42.334 124.463 -44.6777 L 106.152 -67.7246 C 101.123 -73.9746 98.6328 -75.7812 90.8203 -75.7812 L 48.4863 -75.7812 C 40.625 -75.7812 38.1348 -73.9746 33.1543 -67.7246 L 14.8438 -44.6777 C 12.9883 -42.334 12.4512 -40.5762 12.4512 -36.8164 L 12.4512 -8.83789 C 12.4512 0.634766 17.334 5.41992 26.8555 5.41992 Z M 69.6289 -23.5352 C 62.4512 -23.5352 57.4707 -29.541 57.4707 -36.0352 L 57.4707 -36.2793 C 57.4707 -38.0371 56.4453 -39.5508 54.3457 -39.5508 L 20.5566 -39.5508 C 19.2871 -39.5508 18.9941 -40.6738 19.6777 -41.5039 L 39.0625 -66.2109 C 41.4551 -69.2383 44.0918 -70.459 47.9004 -70.459 L 91.4062 -70.459 C 95.166 -70.459 97.8027 -69.2383 100.244 -66.2109 L 119.629 -41.5039 C 120.312 -40.6738 120.02 -39.5508 118.75 -39.5508 L 84.9121 -39.5508 C 82.8613 -39.5508 81.8359 -38.0371 81.8359 -36.2793 L 81.8359 -36.0352 C 81.8359 -29.541 76.8555 -23.5352 69.6289 -23.5352 Z M 27.002 -0.585938 C 21.4844 -0.585938 18.5059 -3.51562 18.5059 -9.13086 L 18.5059 -34.0332 L 51.6602 -34.0332 C 52.4902 -24.6582 60.0098 -17.9688 69.6289 -17.9688 C 79.248 -17.9688 86.8164 -24.707 87.5977 -34.0332 L 120.801 -34.0332 L 120.801 -9.13086 C 120.801 -3.51562 117.676 -0.585938 112.305 -0.585938 Z"/>
  </g>
  <g id="Regular-M" transform="matrix(1 0 0 1 1379.8 1126)">
   <path d="M 27.7832 6.49414 L 112.305 6.49414 C 122.51 6.49414 127.637 1.41602 127.637 -8.64258 L 127.637 -37.5488 C 127.637 -41.9434 127.002 -44.1406 124.854 -46.8262 L 107.959 -67.6758 C 102.246 -74.707 99.707 -76.8555 91.0645 -76.8555 L 49.0234 -76.8555 C 40.3809 -76.8555 37.8418 -74.707 32.1289 -67.6758 L 15.2344 -46.8262 C 13.0859 -44.1406 12.4512 -41.9434 12.4512 -37.5488 L 12.4512 -8.64258 C 12.4512 1.46484 17.627 6.49414 27.7832 6.49414 Z M 70.0195 -24.707 C 63.1348 -24.707 58.6914 -30.7129 58.6914 -36.377 L 58.6914 -36.5234 C 58.6914 -38.5742 57.4707 -40.4785 54.9805 -40.4785 L 22.7539 -40.4785 C 21.1426 -40.4785 20.8008 -41.8945 21.6309 -42.9199 L 39.7461 -65.7715 C 42.1875 -68.7988 44.9219 -70.0195 48.4863 -70.0195 L 91.6016 -70.0195 C 95.166 -70.0195 97.9004 -68.7988 100.342 -65.7715 L 118.457 -42.9199 C 119.287 -41.8945 118.945 -40.4785 117.334 -40.4785 L 85.1074 -40.4785 C 82.6172 -40.4785 81.3965 -38.5742 81.3965 -36.5234 L 81.3965 -36.377 C 81.3965 -30.7129 76.9531 -24.707 70.0195 -24.707 Z M 27.9297 -1.36719 C 23.0469 -1.36719 20.3125 -3.95508 20.3125 -9.0332 L 20.3125 -33.3496 L 51.2695 -33.3496 C 52.4902 -24.2188 60.1074 -17.4805 70.0195 -17.4805 C 79.9316 -17.4805 87.5977 -24.2676 88.7695 -33.3496 L 119.775 -33.3496 L 119.775 -9.0332 C 119.775 -3.95508 116.992 -1.36719 112.158 -1.36719 Z"/>
  </g>
  <g id="Medium-M" transform="matrix(1 0 0 1 1676.24 1126)">
   <path d="M 28.5645 7.51953 L 112.109 7.51953 C 122.656 7.51953 128.174 2.05078 128.174 -8.39844 L 128.174 -37.3535 C 128.174 -42.7734 127.49 -45.2637 124.902 -48.4863 L 108.838 -68.2129 C 102.832 -75.5859 100.195 -77.8809 91.3574 -77.8809 L 49.2676 -77.8809 C 40.4297 -77.8809 37.793 -75.5859 31.7871 -68.2129 L 15.7715 -48.4863 C 13.1836 -45.2637 12.4512 -42.7734 12.4512 -37.3535 L 12.4512 -8.39844 C 12.4512 2.05078 17.9688 7.51953 28.5645 7.51953 Z M 70.3125 -26.5625 C 63.7695 -26.5625 59.668 -32.1777 59.668 -37.4512 L 59.668 -37.6465 C 59.668 -39.5508 58.4961 -41.3574 55.9082 -41.3574 L 24.5605 -41.3574 C 22.9492 -41.3574 22.6562 -42.7246 23.4375 -43.75 L 41.0645 -65.8691 C 43.2617 -68.6035 45.752 -69.7754 49.0234 -69.7754 L 91.6016 -69.7754 C 94.873 -69.7754 97.3633 -68.6035 99.5605 -65.8691 L 117.188 -43.75 C 118.018 -42.7246 117.676 -41.3574 116.113 -41.3574 L 84.7168 -41.3574 C 82.1289 -41.3574 81.0059 -39.5508 81.0059 -37.6465 L 81.0059 -37.4512 C 81.0059 -32.1777 76.9043 -26.5625 70.3125 -26.5625 Z M 29.0527 -2.24609 C 24.5117 -2.24609 22.0703 -4.58984 22.0703 -9.27734 L 22.0703 -32.7637 L 51.3184 -32.7637 C 52.8809 -24.0723 60.4492 -17.5781 70.3125 -17.5781 C 80.1758 -17.5781 87.7441 -24.0723 89.3066 -32.7637 L 118.555 -32.7637 L 118.555 -9.27734 C 118.555 -4.58984 116.064 -2.24609 111.572 -2.24609 Z"/>
  </g>
  <g id="Semibold-M" transform="matrix(1 0 0 1 1972.73 1126)">
   <path d="M 29.1016 8.30078 L 111.914 8.30078 C 122.803 8.30078 128.613 2.49023 128.613 -8.25195 L 128.613 -37.207 C 128.613 -43.4082 127.832 -46.1426 124.902 -49.707 L 109.521 -68.6035 C 103.32 -76.2695 100.537 -78.6621 91.6016 -78.6621 L 49.4629 -78.6621 C 40.5273 -78.6621 37.7441 -76.2695 31.4941 -68.6035 L 16.1621 -49.707 C 13.2324 -46.1426 12.4512 -43.4082 12.4512 -37.207 L 12.4512 -8.25195 C 12.4512 2.53906 18.3105 8.30078 29.1016 8.30078 Z M 70.5078 -27.9297 C 64.209 -27.9297 60.3516 -33.3008 60.3516 -38.2812 L 60.3516 -38.4766 C 60.3516 -40.332 59.2773 -41.9922 56.6895 -41.9922 L 25.9277 -41.9922 C 24.3652 -41.9922 24.0234 -43.3594 24.8535 -44.3848 L 42.0898 -65.918 C 44.1406 -68.4082 46.3867 -69.5801 49.4629 -69.5801 L 91.5527 -69.5801 C 94.6777 -69.5801 96.9238 -68.4082 98.9258 -65.918 L 116.211 -44.3848 C 117.041 -43.3594 116.699 -41.9922 115.137 -41.9922 L 84.375 -41.9922 C 81.7871 -41.9922 80.6641 -40.332 80.6641 -38.4766 L 80.6641 -38.2812 C 80.6641 -33.3008 76.8555 -27.9297 70.5078 -27.9297 Z M 29.8828 -2.88086 C 25.6836 -2.88086 23.3887 -5.0293 23.3887 -9.47266 L 23.3887 -32.3242 L 51.3184 -32.3242 C 53.1738 -23.9258 60.7422 -17.7246 70.5078 -17.7246 C 80.3223 -17.7246 87.8906 -23.9258 89.6973 -32.3242 L 117.676 -32.3242 L 117.676 -9.47266 C 117.676 -5.0293 115.332 -2.88086 111.182 -2.88086 Z"/>
  </g>
  <g id="Bold-M" transform="matrix(1 0 0 1 2269.18 1126)">
   <path d="M 29.8828 9.27734 L 111.719 9.27734 C 122.949 9.27734 129.15 3.125 129.15 -8.00781 L 129.15 -37.0117 C 129.15 -44.2383 128.32 -47.3145 124.951 -51.3672 L 110.449 -69.1406 C 103.906 -77.1484 101.025 -79.6875 91.8945 -79.6875 L 49.7559 -79.6875 C 40.625 -79.6875 37.6953 -77.1484 31.1523 -69.1406 L 16.6504 -51.3672 C 13.3301 -47.2656 12.4512 -44.2383 12.4512 -37.0117 L 12.4512 -8.00781 C 12.4512 3.125 18.6523 9.27734 29.8828 9.27734 Z M 70.8008 -29.7852 C 64.8438 -29.7852 61.3281 -34.8145 61.3281 -39.4043 L 61.3281 -39.5508 C 61.3281 -41.3086 60.2539 -42.8223 57.666 -42.8223 L 27.7344 -42.8223 C 26.2207 -42.8223 25.8789 -44.1895 26.709 -45.2148 L 43.457 -65.9668 C 45.2637 -68.2129 47.2656 -69.3359 50.0488 -69.3359 L 91.5527 -69.3359 C 94.3848 -69.3359 96.3867 -68.2129 98.1445 -65.9668 L 114.941 -45.2148 C 115.723 -44.1895 115.43 -42.8223 113.867 -42.8223 L 83.9844 -42.8223 C 81.3477 -42.8223 80.2734 -41.3086 80.2734 -39.5508 L 80.2734 -39.4043 C 80.2734 -34.8145 76.7578 -29.7852 70.8008 -29.7852 Z M 31.0547 -3.75977 C 27.1973 -3.75977 25.1465 -5.61523 25.1465 -9.7168 L 25.1465 -31.6895 L 51.3672 -31.6895 C 53.6133 -23.7305 61.0352 -17.8223 70.8008 -17.8223 C 80.5664 -17.8223 88.0371 -23.7793 90.2344 -31.6895 L 116.455 -31.6895 L 116.455 -9.7168 C 116.455 -5.61523 114.404 -3.75977 110.596 -3.75977 Z"/>
  </g>
  <g id="Heavy-M" transform="matrix(1 0 0 1 2565.47 1126)">
   <path d="M 31.0059 10.791 L 111.426 10.791 C 123.193 10.791 129.98 4.00391 129.98 -7.71484 L 129.98 -36.7676 C 129.98 -45.4102 129.004 -48.9746 125.049 -53.8086 L 111.768 -69.9219 C 104.785 -78.418 101.709 -81.1523 92.334 -81.1523 L 50.0977 -81.1523 C 40.7227 -81.1523 37.6465 -78.418 30.6641 -69.9219 L 17.3828 -53.8086 C 13.4766 -48.9258 12.4512 -45.4102 12.4512 -36.7676 L 12.4512 -7.71484 C 12.4512 4.00391 19.2383 10.791 31.0059 10.791 Z M 71.1914 -32.4707 C 65.7715 -32.4707 62.7441 -36.9629 62.7441 -41.0156 L 62.7441 -41.1621 C 62.7441 -42.7734 61.7676 -44.0918 59.082 -44.0918 L 30.3711 -44.0918 C 28.8574 -44.0918 28.5645 -45.4102 29.3457 -46.4355 L 45.4102 -66.1133 C 46.875 -67.8711 48.4863 -68.9453 50.9277 -68.9453 L 91.5039 -68.9453 C 93.9453 -68.9453 95.5566 -67.8711 97.0215 -66.1133 L 113.086 -46.4355 C 113.867 -45.4102 113.574 -44.0918 112.061 -44.0918 L 83.3496 -44.0918 C 80.6641 -44.0918 79.6875 -42.7734 79.6875 -41.1621 L 79.6875 -41.0156 C 79.6875 -36.9629 76.6602 -32.4707 71.1914 -32.4707 Z M 32.666 -5.0293 C 29.3945 -5.0293 27.6855 -6.49414 27.6855 -10.0586 L 27.6855 -30.8594 L 51.416 -30.8594 C 54.1992 -23.4863 61.5723 -18.0176 71.1914 -18.0176 C 80.8594 -18.0176 88.2324 -23.4863 91.0156 -30.8594 L 114.746 -30.8594 L 114.746 -10.0586 C 114.746 -6.49414 113.037 -5.0293 109.766 -5.0293 Z"/>
  </g>
  <g id="Black-M" transform="matrix(1 0 0 1 2861.82 1126)">
   <path d="M 31.9824 12.1094 L 111.182 12.1094 C 123.389 12.1094 130.713 4.83398 130.713 -7.42188 L 130.713 -36.5234 C 130.713 -46.4844 129.639 -50.4395 125.098 -55.957 L 112.939 -70.6055 C 105.566 -79.541 102.295 -82.4707 92.7246 -82.4707 L 50.4395 -82.4707 C 40.8203 -82.4707 37.5977 -79.541 30.2246 -70.6055 L 18.0664 -55.957 C 13.5742 -50.3906 12.4512 -46.4844 12.4512 -36.5234 L 12.4512 -7.42188 C 12.4512 4.83398 19.7266 12.1094 31.9824 12.1094 Z M 71.582 -34.8633 C 66.5527 -34.8633 63.9648 -38.916 63.9648 -42.4316 L 63.9648 -42.5781 C 63.9648 -44.043 63.0371 -45.2148 60.3027 -45.2148 L 32.7148 -45.2148 C 31.25 -45.2148 30.9082 -46.4844 31.7383 -47.5098 L 47.168 -66.2109 C 48.291 -67.5781 49.5605 -68.6523 51.6602 -68.6523 L 91.5039 -68.6523 C 93.5547 -68.6523 94.8242 -67.5781 95.9961 -66.2109 L 111.426 -47.5098 C 112.207 -46.4844 111.914 -45.2148 110.449 -45.2148 L 82.8125 -45.2148 C 80.0781 -45.2148 79.1504 -44.043 79.1504 -42.5781 L 79.1504 -42.4316 C 79.1504 -38.916 76.5625 -34.8633 71.582 -34.8633 Z M 34.1797 -6.20117 C 31.3477 -6.20117 29.9805 -7.27539 29.9805 -10.3516 L 29.9805 -30.0781 L 51.416 -30.0781 C 54.6875 -23.291 62.0117 -18.2129 71.582 -18.2129 C 81.1523 -18.2129 88.4277 -23.291 91.748 -30.0781 L 113.184 -30.0781 L 113.184 -10.3516 C 113.184 -7.27539 111.816 -6.20117 108.984 -6.20117 Z"/>
  </g>
  <g id="Ultralight-L" transform="matrix(1 0 0 1 470.99 1556)">
   <path d="M 31.9824 14.209 L 145.459 14.209 C 155.811 14.209 161.377 8.49609 161.377 -1.70898 L 161.377 -35.1562 C 161.377 -38.0371 160.889 -39.2578 159.473 -41.1621 L 131.689 -77.2461 C 127.295 -83.0078 124.17 -84.4238 116.504 -84.4238 L 60.9375 -84.4238 C 53.2715 -84.4238 50.1465 -83.0078 45.752 -77.2461 L 17.9199 -41.1621 C 16.5527 -39.2578 16.0645 -38.0371 16.0645 -35.1562 L 16.0645 -1.70898 C 16.0645 8.64258 21.6309 14.209 31.9824 14.209 Z M 88.7207 -16.8457 C 78.5645 -16.8457 70.5566 -24.5605 70.5566 -35.3027 L 70.5566 -35.8398 C 70.5566 -37.3047 69.8242 -38.1348 68.3594 -38.1348 L 20.166 -38.1348 C 19.4824 -38.1348 19.2871 -38.7695 19.7266 -39.3555 L 48.3887 -76.4648 C 51.4648 -80.2734 54.6387 -81.9336 60.2051 -81.9336 L 117.236 -81.9336 C 122.803 -81.9336 125.977 -80.2734 129.053 -76.4648 L 157.812 -39.3555 C 158.252 -38.7695 158.008 -38.1348 157.324 -38.1348 L 109.082 -38.1348 C 107.617 -38.1348 106.885 -37.3047 106.885 -35.8398 L 106.885 -35.3027 C 106.885 -24.5605 98.877 -16.8457 88.7207 -16.8457 Z M 32.1289 11.6699 C 23.2422 11.6699 18.6523 7.03125 18.6523 -1.85547 L 18.6523 -35.6934 L 67.7734 -35.6934 C 67.7246 -22.9004 77.1484 -14.4043 88.7207 -14.4043 C 100.293 -14.4043 109.717 -23.0469 109.668 -35.6934 L 158.789 -35.6934 L 158.789 -1.85547 C 158.789 7.03125 153.857 11.6699 145.264 11.6699 Z"/>
  </g>
  <g id="Thin-L" transform="matrix(1 0 0 1 767.409 1556)">
   <path d="M 32.7148 14.9902 L 145.361 14.9902 C 156.25 14.9902 161.963 9.13086 161.963 -1.5625 L 161.963 -35.6934 C 161.963 -39.1113 161.426 -40.625 159.766 -42.7734 L 133.105 -77.2461 C 128.125 -83.5938 125 -85.2539 116.699 -85.2539 L 61.3281 -85.2539 C 53.0273 -85.2539 49.9023 -83.5938 44.9707 -77.2461 L 18.2617 -42.7734 C 16.6016 -40.625 16.0645 -39.1113 16.0645 -35.6934 L 16.0645 -1.5625 C 16.0645 9.27734 21.8262 14.9902 32.7148 14.9902 Z M 89.0137 -17.7246 C 79.1016 -17.7246 71.4844 -25.4395 71.4844 -35.5469 L 71.4844 -36.0352 C 71.4844 -37.7441 70.6055 -38.8672 68.8477 -38.8672 L 21.875 -38.8672 C 20.8984 -38.8672 20.6543 -39.6973 21.1914 -40.3809 L 48.9258 -76.123 C 52.002 -79.9805 55.2246 -81.5918 60.5957 -81.5918 L 117.432 -81.5918 C 122.803 -81.5918 126.074 -79.9805 129.102 -76.123 L 156.934 -40.3809 C 157.471 -39.6973 157.178 -38.8672 156.25 -38.8672 L 109.18 -38.8672 C 107.422 -38.8672 106.543 -37.7441 106.543 -36.0352 L 106.543 -35.5469 C 106.543 -25.4395 98.9746 -17.7246 89.0137 -17.7246 Z M 32.8613 11.084 C 24.4141 11.084 20.0195 6.68945 20.0195 -1.75781 L 20.0195 -35.1562 L 67.4805 -35.1562 C 67.7246 -22.5586 77.2461 -14.0137 89.0137 -14.0137 C 100.781 -14.0137 110.303 -22.7051 110.547 -35.1562 L 158.008 -35.1562 L 158.008 -1.75781 C 158.008 6.68945 153.32 11.084 145.166 11.084 Z"/>
  </g>
  <g id="Light-L" transform="matrix(1 0 0 1 1063.53 1556)">
   <path d="M 34.082 16.5527 L 145.166 16.5527 C 157.031 16.5527 163.135 10.4004 163.135 -1.26953 L 163.135 -36.7676 C 163.135 -41.2109 162.5 -43.2617 160.352 -45.9961 L 135.791 -77.1973 C 129.785 -84.7168 126.562 -86.8652 117.041 -86.8652 L 62.1582 -86.8652 C 52.6367 -86.8652 49.4141 -84.7168 43.457 -77.1973 L 18.8477 -45.9961 C 16.6992 -43.2617 16.0645 -41.2109 16.0645 -36.7676 L 16.0645 -1.26953 C 16.0645 10.498 22.2168 16.5527 34.082 16.5527 Z M 89.5996 -19.4336 C 80.127 -19.4336 73.3398 -27.1484 73.3398 -36.0352 L 73.3398 -36.4258 C 73.3398 -38.5254 72.168 -40.2344 69.7266 -40.2344 L 25.0977 -40.2344 C 23.6816 -40.2344 23.3398 -41.4551 24.1211 -42.4316 L 49.9512 -75.4883 C 53.0273 -79.3945 56.3965 -80.957 61.4258 -80.957 L 117.773 -80.957 C 122.803 -80.957 126.172 -79.3945 129.248 -75.4883 L 155.176 -42.4316 C 155.908 -41.4551 155.566 -40.2344 154.15 -40.2344 L 109.473 -40.2344 C 107.08 -40.2344 105.859 -38.5254 105.859 -36.4258 L 105.859 -36.0352 C 105.859 -27.1484 99.1211 -19.4336 89.5996 -19.4336 Z M 34.2285 9.96094 C 26.709 9.96094 22.7051 6.00586 22.7051 -1.61133 L 22.7051 -34.1309 L 66.9434 -34.1309 C 67.7246 -21.875 77.3926 -13.2812 89.5996 -13.2812 C 101.807 -13.2812 111.475 -21.9727 112.305 -34.1309 L 156.494 -34.1309 L 156.494 -1.61133 C 156.494 6.00586 152.295 9.96094 144.971 9.96094 Z"/>
  </g>
  <g id="Regular-L" transform="matrix(1 0 0 1 1359.81 1556)">
   <path d="M 35.1074 17.7734 L 145.02 17.7734 C 157.666 17.7734 164.014 11.377 164.014 -1.07422 L 164.014 -37.5977 C 164.014 -42.7734 163.281 -45.2637 160.791 -48.4375 L 137.793 -77.1484 C 131.006 -85.5469 127.783 -88.0859 117.285 -88.0859 L 62.793 -88.0859 C 52.2949 -88.0859 49.0723 -85.5469 42.2852 -77.1484 L 19.3359 -48.4375 C 16.7969 -45.2637 16.0645 -42.7734 16.0645 -37.5977 L 16.0645 -1.07422 C 16.0645 11.4258 22.5098 17.7734 35.1074 17.7734 Z M 90.0391 -20.7031 C 80.9082 -20.7031 74.707 -28.418 74.707 -36.4258 L 74.707 -36.7188 C 74.707 -39.1113 73.3398 -41.2598 70.4102 -41.2598 L 27.5391 -41.2598 C 25.7812 -41.2598 25.3906 -42.8223 26.3184 -43.9941 L 50.7324 -75 C 53.8574 -78.9062 57.2754 -80.4688 62.0605 -80.4688 L 118.018 -80.4688 C 122.803 -80.4688 126.27 -78.9062 129.395 -75 L 153.809 -43.9941 C 154.736 -42.8223 154.346 -41.2598 152.588 -41.2598 L 109.668 -41.2598 C 106.787 -41.2598 105.371 -39.1113 105.371 -36.7188 L 105.371 -36.4258 C 105.371 -28.418 99.2188 -20.7031 90.0391 -20.7031 Z M 35.2539 9.08203 C 28.4668 9.08203 24.7559 5.46875 24.7559 -1.51367 L 24.7559 -33.3496 L 66.5039 -33.3496 C 67.7246 -21.3867 77.4902 -12.6953 90.0391 -12.6953 C 102.588 -12.6953 112.402 -21.4355 113.623 -33.3496 L 155.371 -33.3496 L 155.371 -1.51367 C 155.371 5.46875 151.514 9.08203 144.824 9.08203 Z"/>
  </g>
  <g id="Medium-L" transform="matrix(1 0 0 1 1656.17 1556)">
   <path d="M 35.9863 18.8965 L 144.775 18.8965 C 157.91 18.8965 164.697 12.1094 164.697 -0.830078 L 164.697 -37.5977 C 164.697 -43.7988 163.867 -46.6797 160.889 -50.3418 L 139.014 -77.6367 C 131.787 -86.5234 128.418 -89.209 117.627 -89.209 L 63.1348 -89.209 C 52.3438 -89.209 48.9746 -86.5234 41.748 -77.6367 L 19.873 -50.3418 C 16.8945 -46.6797 16.0645 -43.7988 16.0645 -37.5977 L 16.0645 -0.830078 C 16.0645 12.1582 22.9004 18.8965 35.9863 18.8965 Z M 90.3809 -22.6074 C 81.5918 -22.6074 75.8301 -30.0293 75.8301 -37.5 L 75.8301 -37.7441 C 75.8301 -40.0879 74.4629 -42.2363 71.4355 -42.2363 L 29.6387 -42.2363 C 27.832 -42.2363 27.3926 -43.8477 28.3691 -45.0195 L 52.0996 -75 C 54.9805 -78.6133 58.252 -80.1758 62.6953 -80.1758 L 118.066 -80.1758 C 122.559 -80.1758 125.781 -78.6133 128.662 -75 L 152.441 -45.0195 C 153.369 -43.8477 152.979 -42.2363 151.123 -42.2363 L 109.326 -42.2363 C 106.299 -42.2363 104.932 -40.0879 104.932 -37.7441 L 104.932 -37.5 C 104.932 -30.0293 99.1699 -22.6074 90.3809 -22.6074 Z M 36.4746 8.1543 C 30.127 8.1543 26.709 4.83398 26.709 -1.70898 L 26.709 -32.666 L 66.4551 -32.666 C 68.0664 -21.1426 77.832 -12.7441 90.3809 -12.7441 C 102.93 -12.7441 112.695 -21.1914 114.307 -32.666 L 154.053 -32.666 L 154.053 -1.70898 C 154.053 4.83398 150.537 8.1543 144.287 8.1543 Z"/>
  </g>
  <g id="Semibold-L" transform="matrix(1 0 0 1 1952.62 1556)">
   <path d="M 36.6699 19.7754 L 144.629 19.7754 C 158.105 19.7754 165.186 12.6465 165.186 -0.634766 L 165.186 -37.5977 C 165.186 -44.5801 164.307 -47.7539 160.986 -51.8555 L 139.893 -77.9785 C 132.373 -87.2559 128.906 -90.0879 117.871 -90.0879 L 63.4277 -90.0879 C 52.3438 -90.0879 48.877 -87.2559 41.3574 -77.9785 L 20.3125 -51.8555 C 16.9922 -47.7051 16.0645 -44.5801 16.0645 -37.5977 L 16.0645 -0.634766 C 16.0645 12.6953 23.2422 19.7754 36.6699 19.7754 Z M 90.625 -24.0723 C 82.1289 -24.0723 76.709 -31.25 76.709 -38.3301 L 76.709 -38.5742 C 76.709 -40.8691 75.293 -42.9688 72.2168 -42.9688 L 31.25 -42.9688 C 29.3945 -42.9688 28.9551 -44.5801 29.9316 -45.8496 L 53.125 -74.9512 C 55.8594 -78.418 58.9355 -79.9316 63.2324 -79.9316 L 118.066 -79.9316 C 122.314 -79.9316 125.391 -78.418 128.125 -74.9512 L 151.367 -45.8496 C 152.344 -44.5801 151.904 -42.9688 150.049 -42.9688 L 109.082 -42.9688 C 105.957 -42.9688 104.59 -40.8691 104.59 -38.5742 L 104.59 -38.3301 C 104.59 -31.25 99.1211 -24.0723 90.625 -24.0723 Z M 37.4023 7.42188 C 31.3965 7.42188 28.1738 4.3457 28.1738 -1.85547 L 28.1738 -32.1777 L 66.4062 -32.1777 C 68.3594 -20.9473 78.0762 -12.7441 90.625 -12.7441 C 103.223 -12.7441 112.891 -20.9961 114.893 -32.1777 L 153.076 -32.1777 L 153.076 -1.85547 C 153.076 4.3457 149.756 7.42188 143.896 7.42188 Z"/>
  </g>
  <g id="Bold-L" transform="matrix(1 0 0 1 2249.01 1556)">
   <path d="M 37.5488 20.8984 L 144.434 20.8984 C 158.35 20.8984 165.869 13.3789 165.869 -0.390625 L 165.869 -37.5488 C 165.869 -45.6543 164.893 -49.1699 161.084 -53.8086 L 141.113 -78.4668 C 133.154 -88.1836 129.59 -91.2598 118.213 -91.2598 L 63.7695 -91.2598 C 52.3926 -91.2598 48.7793 -88.1836 40.8203 -78.4668 L 20.8496 -53.8086 C 17.0898 -49.1211 16.0645 -45.6543 16.0645 -37.5488 L 16.0645 -0.390625 C 16.0645 13.4277 23.6328 20.8984 37.5488 20.8984 Z M 90.9668 -26.0254 C 82.8613 -26.0254 77.832 -32.8613 77.832 -39.4043 L 77.832 -39.5996 C 77.832 -41.8945 76.4648 -43.9453 73.2422 -43.9453 L 33.3496 -43.9453 C 31.4453 -43.9453 31.0059 -45.6055 32.0312 -46.875 L 54.4922 -74.9512 C 57.0312 -78.125 59.8633 -79.5898 63.8672 -79.5898 L 118.115 -79.5898 C 122.07 -79.5898 124.902 -78.125 127.441 -74.9512 L 149.951 -46.875 C 150.928 -45.6055 150.537 -43.9453 148.584 -43.9453 L 108.74 -43.9453 C 105.518 -43.9453 104.102 -41.8945 104.102 -39.5996 L 104.102 -39.4043 C 104.102 -32.8613 99.1211 -26.0254 90.9668 -26.0254 Z M 38.623 6.44531 C 33.1055 6.44531 30.1758 3.71094 30.1758 -2.05078 L 30.1758 -31.4941 L 66.3574 -31.4941 C 68.75 -20.7031 78.418 -12.793 90.9668 -12.793 C 103.564 -12.793 113.232 -20.752 115.625 -31.4941 L 151.758 -31.4941 L 151.758 -2.05078 C 151.758 3.71094 148.779 6.44531 143.311 6.44531 Z"/>
  </g>
  <g id="Heavy-L" transform="matrix(1 0 0 1 2545.23 1556)">
   <path d="M 38.8184 22.5586 L 144.092 22.5586 C 158.74 22.5586 166.846 14.4531 166.846 -0.0488281 L 166.846 -37.5488 C 166.846 -47.168 165.723 -51.2207 161.279 -56.6406 L 142.871 -79.1504 C 134.277 -89.5996 130.518 -92.9199 118.652 -92.9199 L 64.2578 -92.9199 C 52.3926 -92.9199 48.6328 -89.5996 40.0879 -79.1504 L 21.6797 -56.6406 C 17.2363 -51.1719 16.0645 -47.168 16.0645 -37.5488 L 16.0645 -0.0488281 C 16.0645 14.502 24.2188 22.5586 38.8184 22.5586 Z M 91.4551 -28.8086 C 83.8867 -28.8086 79.4922 -35.1562 79.4922 -40.9668 L 79.4922 -41.1621 C 79.4922 -43.4082 78.125 -45.3613 74.707 -45.3613 L 36.4258 -45.3613 C 34.4238 -45.3613 34.0332 -47.0703 35.0586 -48.3887 L 56.4941 -74.9023 C 58.7402 -77.6855 61.2305 -79.1504 64.7949 -79.1504 L 118.115 -79.1504 C 121.68 -79.1504 124.219 -77.6855 126.416 -74.9023 L 147.9 -48.3887 C 148.926 -47.0703 148.535 -45.3613 146.533 -45.3613 L 108.252 -45.3613 C 104.834 -45.3613 103.467 -43.4082 103.467 -41.1621 L 103.467 -40.9668 C 103.467 -35.1562 99.0234 -28.8086 91.4551 -28.8086 Z M 40.4297 5.07812 C 35.5957 5.07812 33.0566 2.7832 33.0566 -2.34375 L 33.0566 -30.4688 L 66.2598 -30.4688 C 69.2871 -20.3613 78.9062 -12.793 91.4551 -12.793 C 104.053 -12.793 113.672 -20.3613 116.65 -30.4688 L 149.902 -30.4688 L 149.902 -2.34375 C 149.902 2.7832 147.314 5.07812 142.529 5.07812 Z"/>
  </g>
  <g id="Black-L" transform="matrix(1 0 0 1 2841.51 1556)">
   <path d="M 39.9902 24.0723 L 143.799 24.0723 C 159.082 24.0723 167.725 15.4297 167.725 0.244141 L 167.725 -37.5 C 167.725 -48.4863 166.504 -53.0762 161.426 -59.1797 L 144.434 -79.7852 C 135.303 -90.8203 131.396 -94.4336 119.092 -94.4336 L 64.7461 -94.4336 C 52.4414 -94.4336 48.4863 -90.8203 39.3555 -79.7852 L 22.3633 -59.1797 C 17.3828 -52.9785 16.0645 -48.4863 16.0645 -37.5 L 16.0645 0.244141 C 16.0645 15.4297 24.7559 24.0723 39.9902 24.0723 Z M 91.8945 -31.2988 C 84.8145 -31.2988 80.957 -37.2559 80.957 -42.334 L 80.957 -42.5293 C 80.957 -44.7266 79.5898 -46.6309 76.0254 -46.6309 L 39.1602 -46.6309 C 37.1094 -46.6309 36.6699 -48.3887 37.7441 -49.7559 L 58.3008 -74.9023 C 60.2539 -77.2949 62.4512 -78.7109 65.625 -78.7109 L 118.164 -78.7109 C 121.338 -78.7109 123.535 -77.2949 125.537 -74.9023 L 146.045 -49.7559 C 147.119 -48.3887 146.729 -46.6309 144.629 -46.6309 L 107.812 -46.6309 C 104.199 -46.6309 102.832 -44.7266 102.832 -42.5293 L 102.832 -42.334 C 102.832 -37.2559 98.9746 -31.2988 91.8945 -31.2988 Z M 41.9922 3.80859 C 37.793 3.80859 35.6445 1.95312 35.6445 -2.63672 L 35.6445 -29.5898 L 66.2109 -29.5898 C 69.7754 -20.0195 79.2969 -12.8418 91.8945 -12.8418 C 104.492 -12.8418 114.062 -20.0195 117.627 -29.5898 L 148.193 -29.5898 L 148.193 -2.63672 C 148.193 1.95312 145.996 3.80859 141.797 3.80859 Z"/>
  </g>
 </g>
</svg>
