<?xml version="1.0" encoding="UTF-8"?>
<!--Generator: Apple Native CoreSVG 123-->
<!DOCTYPE svg
PUBLIC "-//W3C//DTD SVG 1.1//EN"
       "http://www.w3.org/Graphics/SVG/1.1/DTD/svg11.dtd">
<svg version="1.1" xmlns="http://www.w3.org/2000/svg" xmlns:xlink="http://www.w3.org/1999/xlink" width="3300" height="2200">
 <!--glyph: "uni100371.medium", point size: 100.000000, font version: "Version 15.0d4e20", template writer version: "2"-->
 <g id="Notes">
  <rect height="2200" id="artboard" style="fill:white;opacity:1" width="3300" x="0" y="0"/>
  <line id="" style="fill:none;stroke:black;opacity:1;stroke-width:0.5;" x1="263" x2="3036" y1="292" y2="292"/>
  <text style="stroke:none;fill:black;font-family:-apple-system,&quot;SF Pro Display&quot;,&quot;SF Pro Text&quot;,Helvetica,sans-serif;font-weight:bold;" transform="matrix(1 0 0 1 263 322)">Weight/Scale Variations</text>
  <text style="stroke:none;fill:black;font-family:-apple-system,&quot;SF Pro Display&quot;,&quot;SF Pro Text&quot;,Helvetica,sans-serif;text-anchor:middle;" transform="matrix(1 0 0 1 559.711 322)">Ultralight</text>
  <text style="stroke:none;fill:black;font-family:-apple-system,&quot;SF Pro Display&quot;,&quot;SF Pro Text&quot;,Helvetica,sans-serif;text-anchor:middle;" transform="matrix(1 0 0 1 856.422 322)">Thin</text>
  <text style="stroke:none;fill:black;font-family:-apple-system,&quot;SF Pro Display&quot;,&quot;SF Pro Text&quot;,Helvetica,sans-serif;text-anchor:middle;" transform="matrix(1 0 0 1 1153.13 322)">Light</text>
  <text style="stroke:none;fill:black;font-family:-apple-system,&quot;SF Pro Display&quot;,&quot;SF Pro Text&quot;,Helvetica,sans-serif;text-anchor:middle;" transform="matrix(1 0 0 1 1449.84 322)">Regular</text>
  <text style="stroke:none;fill:black;font-family:-apple-system,&quot;SF Pro Display&quot;,&quot;SF Pro Text&quot;,Helvetica,sans-serif;text-anchor:middle;" transform="matrix(1 0 0 1 1746.56 322)">Medium</text>
  <text style="stroke:none;fill:black;font-family:-apple-system,&quot;SF Pro Display&quot;,&quot;SF Pro Text&quot;,Helvetica,sans-serif;text-anchor:middle;" transform="matrix(1 0 0 1 2043.27 322)">Semibold</text>
  <text style="stroke:none;fill:black;font-family:-apple-system,&quot;SF Pro Display&quot;,&quot;SF Pro Text&quot;,Helvetica,sans-serif;text-anchor:middle;" transform="matrix(1 0 0 1 2339.98 322)">Bold</text>
  <text style="stroke:none;fill:black;font-family:-apple-system,&quot;SF Pro Display&quot;,&quot;SF Pro Text&quot;,Helvetica,sans-serif;text-anchor:middle;" transform="matrix(1 0 0 1 2636.69 322)">Heavy</text>
  <text style="stroke:none;fill:black;font-family:-apple-system,&quot;SF Pro Display&quot;,&quot;SF Pro Text&quot;,Helvetica,sans-serif;text-anchor:middle;" transform="matrix(1 0 0 1 2933.4 322)">Black</text>
  <line id="" style="fill:none;stroke:black;opacity:1;stroke-width:0.5;" x1="263" x2="3036" y1="1903" y2="1903"/>
  <g id="" transform="matrix(1 0 0 1 263 1933)">
   <path d="M 9.24805 0.830078 C 13.5547 0.830078 17.1387 -2.74414 17.1387 -7.05078 C 17.1387 -11.3574 13.5449 -14.9316 9.23828 -14.9316 C 4.94141 -14.9316 1.36719 -11.3574 1.36719 -7.05078 C 1.36719 -2.74414 4.95117 0.830078 9.24805 0.830078 Z M 9.24805 -0.654297 C 5.70312 -0.654297 2.87109 -3.49609 2.87109 -7.05078 C 2.87109 -10.6055 5.69336 -13.4473 9.23828 -13.4473 C 12.793 -13.4473 15.6348 -10.6055 15.6445 -7.05078 C 15.6543 -3.49609 12.8027 -0.654297 9.24805 -0.654297 Z M 9.22852 -3.42773 C 9.69727 -3.42773 9.9707 -3.74023 9.9707 -4.25781 L 9.9707 -6.31836 L 12.1973 -6.31836 C 12.6953 -6.31836 13.0371 -6.57227 13.0371 -7.04102 C 13.0371 -7.51953 12.7148 -7.7832 12.1973 -7.7832 L 9.9707 -7.7832 L 9.9707 -10.0098 C 9.9707 -10.5273 9.69727 -10.8496 9.22852 -10.8496 C 8.75977 -10.8496 8.50586 -10.5078 8.50586 -10.0098 L 8.50586 -7.7832 L 6.29883 -7.7832 C 5.78125 -7.7832 5.44922 -7.51953 5.44922 -7.04102 C 5.44922 -6.57227 5.80078 -6.31836 6.29883 -6.31836 L 8.50586 -6.31836 L 8.50586 -4.25781 C 8.50586 -3.75977 8.75977 -3.42773 9.22852 -3.42773 Z"/>
  </g>
  <g id="" transform="matrix(1 0 0 1 281.506 1933)">
   <path d="M 11.709 2.91016 C 17.1484 2.91016 21.6699 -1.60156 21.6699 -7.05078 C 21.6699 -12.4902 17.1387 -17.0117 11.6992 -17.0117 C 6.25 -17.0117 1.74805 -12.4902 1.74805 -7.05078 C 1.74805 -1.60156 6.25977 2.91016 11.709 2.91016 Z M 11.709 1.25 C 7.09961 1.25 3.41797 -2.44141 3.41797 -7.05078 C 3.41797 -11.6504 7.08984 -15.3516 11.6992 -15.3516 C 16.2988 -15.3516 20 -11.6504 20.0098 -7.05078 C 20.0195 -2.44141 16.3086 1.25 11.709 1.25 Z M 11.6797 -2.41211 C 12.207 -2.41211 12.5195 -2.77344 12.5195 -3.33984 L 12.5195 -6.23047 L 15.5762 -6.23047 C 16.123 -6.23047 16.5039 -6.51367 16.5039 -7.03125 C 16.5039 -7.55859 16.1426 -7.86133 15.5762 -7.86133 L 12.5195 -7.86133 L 12.5195 -10.9277 C 12.5195 -11.5039 12.207 -11.8555 11.6797 -11.8555 C 11.1621 -11.8555 10.8789 -11.4844 10.8789 -10.9277 L 10.8789 -7.86133 L 7.83203 -7.86133 C 7.25586 -7.86133 6.89453 -7.55859 6.89453 -7.03125 C 6.89453 -6.51367 7.28516 -6.23047 7.83203 -6.23047 L 10.8789 -6.23047 L 10.8789 -3.33984 C 10.8789 -2.79297 11.1621 -2.41211 11.6797 -2.41211 Z"/>
  </g>
  <g id="" transform="matrix(1 0 0 1 304.914 1933)">
   <path d="M 14.9707 5.67383 C 21.9336 5.67383 27.6855 -0.078125 27.6855 -7.04102 C 27.6855 -14.0039 21.9238 -19.7559 14.9609 -19.7559 C 7.99805 -19.7559 2.25586 -14.0039 2.25586 -7.04102 C 2.25586 -0.078125 8.00781 5.67383 14.9707 5.67383 Z M 14.9707 3.85742 C 8.92578 3.85742 4.08203 -1.00586 4.08203 -7.04102 C 4.08203 -13.0762 8.91602 -17.9395 14.9609 -17.9395 C 20.9961 -17.9395 25.8594 -13.0762 25.8691 -7.04102 C 25.8789 -1.00586 21.0059 3.85742 14.9707 3.85742 Z M 14.9414 -1.06445 C 15.5176 -1.06445 15.8594 -1.45508 15.8594 -2.06055 L 15.8594 -6.13281 L 20.0977 -6.13281 C 20.6934 -6.13281 21.1133 -6.46484 21.1133 -7.02148 C 21.1133 -7.59766 20.7227 -7.93945 20.0977 -7.93945 L 15.8594 -7.93945 L 15.8594 -12.1875 C 15.8594 -12.8027 15.5176 -13.1934 14.9414 -13.1934 C 14.3848 -13.1934 14.0625 -12.7832 14.0625 -12.1875 L 14.0625 -7.93945 L 9.82422 -7.93945 C 9.20898 -7.93945 8.80859 -7.59766 8.80859 -7.02148 C 8.80859 -6.46484 9.23828 -6.13281 9.82422 -6.13281 L 14.0625 -6.13281 L 14.0625 -2.06055 C 14.0625 -1.47461 14.3848 -1.06445 14.9414 -1.06445 Z"/>
  </g>
  <text style="stroke:none;fill:black;font-family:-apple-system,&quot;SF Pro Display&quot;,&quot;SF Pro Text&quot;,Helvetica,sans-serif;font-weight:bold;" transform="matrix(1 0 0 1 263 1953)">Design Variations</text>
  <text style="stroke:none;fill:black;font-family:-apple-system,&quot;SF Pro Display&quot;,&quot;SF Pro Text&quot;,Helvetica,sans-serif;" transform="matrix(1 0 0 1 263 1971)">Symbols are supported in up to nine weights and three scales.</text>
  <text style="stroke:none;fill:black;font-family:-apple-system,&quot;SF Pro Display&quot;,&quot;SF Pro Text&quot;,Helvetica,sans-serif;" transform="matrix(1 0 0 1 263 1989)">For optimal layout with text and other symbols, vertically align</text>
  <text style="stroke:none;fill:black;font-family:-apple-system,&quot;SF Pro Display&quot;,&quot;SF Pro Text&quot;,Helvetica,sans-serif;" transform="matrix(1 0 0 1 263 2007)">symbols with the adjacent text.</text>
  <rect height="14" id="" style="fill:#00AEEF;stroke:none;opacity:0.4;" width="3" x="776" y="1919"/>
  <g id="" transform="matrix(1 0 0 1 779 1933)">
   <path d="M 10.5273 0 L 12.373 0 L 7.17773 -14.0918 L 5.43945 -14.0918 L 0.244141 0 L 2.08984 0 L 3.50586 -4.0332 L 9.11133 -4.0332 Z M 6.2793 -11.9531 L 6.33789 -11.9531 L 8.59375 -5.52734 L 4.02344 -5.52734 Z"/>
  </g>
  <rect height="14" id="" style="fill:#00AEEF;stroke:none;opacity:0.4;" width="3" x="791.617" y="1919"/>
  <text style="stroke:none;fill:black;font-family:-apple-system,&quot;SF Pro Display&quot;,&quot;SF Pro Text&quot;,Helvetica,sans-serif;font-weight:bold;" transform="matrix(1 0 0 1 776 1953)">Side Bearings</text>
  <text style="stroke:none;fill:black;font-family:-apple-system,&quot;SF Pro Display&quot;,&quot;SF Pro Text&quot;,Helvetica,sans-serif;" transform="matrix(1 0 0 1 776 1971)">Horizontal padding on the left and right side of each symbol</text>
  <text style="stroke:none;fill:black;font-family:-apple-system,&quot;SF Pro Display&quot;,&quot;SF Pro Text&quot;,Helvetica,sans-serif;" transform="matrix(1 0 0 1 776 1989)">can be adjusted by modifying the width of the blue rectangles.</text>
  <text style="stroke:none;fill:black;font-family:-apple-system,&quot;SF Pro Display&quot;,&quot;SF Pro Text&quot;,Helvetica,sans-serif;" transform="matrix(1 0 0 1 776 2007)">Modifications are automatically applied proportionally to all</text>
  <text style="stroke:none;fill:black;font-family:-apple-system,&quot;SF Pro Display&quot;,&quot;SF Pro Text&quot;,Helvetica,sans-serif;" transform="matrix(1 0 0 1 776 2025)">scales and weights.</text>
  <g id="" transform="matrix(1 0 0 1 1289 1933)">
   <path d="M 2.96875 2.35352 L 3.80859 3.19336 C 4.84375 4.22852 6.12305 4.15039 7.19727 2.97852 L 16.1621 -6.82617 C 16.5527 -6.74805 16.9629 -6.8457 17.4902 -7.02148 C 18.1738 -7.25586 18.2715 -7.25586 18.3887 -7.13867 C 18.5352 -7.01172 18.4863 -6.89453 18.2422 -6.25 C 17.8809 -5.33203 17.8125 -4.79492 18.5547 -4.02344 L 19.4238 -3.13477 C 20.2734 -2.24609 21.3281 -2.26562 22.2168 -3.14453 L 25.0586 -5.97656 C 25.9473 -6.86523 25.957 -7.92969 25.0781 -8.7793 L 24.1797 -9.64844 C 23.4082 -10.4004 22.8711 -10.3516 21.9629 -9.98047 C 21.3184 -9.72656 21.2012 -9.6875 21.0645 -9.81445 C 20.9375 -9.93164 20.9473 -10.0391 21.1816 -10.7129 C 21.5332 -11.6895 21.5723 -12.2852 20.752 -13.0957 L 19.3359 -14.5117 C 15.1953 -18.6133 11.2305 -18.7402 7.65625 -15.4395 C 7.08008 -14.9023 6.99219 -14.1504 7.53906 -13.6133 L 7.79297 -13.3594 C 8.22266 -12.9297 8.86719 -12.8418 9.41406 -13.1152 C 11.0645 -13.9453 12.2559 -14.0234 13.457 -12.9785 L 13.0273 -11.416 C 12.8516 -10.8008 12.793 -10.3418 12.9199 -9.93164 L 3.18359 -1.04492 C 2.02148 0.0292969 1.93359 1.32812 2.96875 2.35352 Z M 8.96484 -14.4922 C 8.89648 -14.5703 8.86719 -14.6582 8.99414 -14.7559 C 11.709 -17.2852 15.0391 -16.8457 18.3496 -13.5254 L 19.6973 -12.168 C 20.0879 -11.7773 20.0977 -11.582 19.8828 -10.8691 C 19.6582 -10.127 19.502 -9.53125 20.1465 -8.88672 C 20.8105 -8.22266 21.2891 -8.41797 22.207 -8.63281 C 22.9004 -8.79883 23.0664 -8.79883 23.4473 -8.41797 L 24.0918 -7.77344 C 24.4043 -7.48047 24.4141 -7.32422 24.0723 -6.97266 L 21.2207 -4.13086 C 20.8887 -3.79883 20.7227 -3.79883 20.4297 -4.10156 L 19.7852 -4.75586 C 19.4141 -5.13672 19.4141 -5.30273 19.5801 -6.01562 C 19.7852 -6.88477 19.9805 -7.38281 19.3262 -8.04688 C 18.6719 -8.7207 18.0762 -8.57422 17.3438 -8.33008 C 16.5625 -8.06641 16.3281 -8.06641 15.8984 -8.49609 L 14.6094 -9.78516 C 14.1699 -10.2246 14.1309 -10.4395 14.2676 -10.9082 L 15.0293 -13.3984 C 13.3887 -15.2832 11.4941 -15.5566 9.20898 -14.4434 C 9.11133 -14.3945 9.04297 -14.4141 8.96484 -14.4922 Z M 3.96484 1.36719 C 3.52539 0.927734 3.54492 0.537109 4.14062 -0.00976562 L 13.7402 -8.81836 L 15 -7.55859 L 6.17188 2.02148 C 5.625 2.60742 5.24414 2.64648 4.79492 2.19727 Z"/>
  </g>
  <text style="stroke:none;fill:black;font-family:-apple-system,&quot;SF Pro Display&quot;,&quot;SF Pro Text&quot;,Helvetica,sans-serif;font-weight:bold;" transform="matrix(1 0 0 1 1289 1953)">Exporting</text>
  <text style="stroke:none;fill:black;font-family:-apple-system,&quot;SF Pro Display&quot;,&quot;SF Pro Text&quot;,Helvetica,sans-serif;" transform="matrix(1 0 0 1 1289 1971)">Symbols should be outlined when exporting to ensure the</text>
  <text style="stroke:none;fill:black;font-family:-apple-system,&quot;SF Pro Display&quot;,&quot;SF Pro Text&quot;,Helvetica,sans-serif;" transform="matrix(1 0 0 1 1289 1989)">design is preserved when submitting to Xcode.</text>
  <text id="template-version" style="stroke:none;fill:black;font-family:-apple-system,&quot;SF Pro Display&quot;,&quot;SF Pro Text&quot;,Helvetica,sans-serif;text-anchor:end;" transform="matrix(1 0 0 1 3036 1933)">Template v.0.1</text>
  <text style="stroke:none;fill:black;font-family:-apple-system,&quot;SF Pro Display&quot;,&quot;SF Pro Text&quot;,Helvetica,sans-serif;text-anchor:end;" transform="matrix(1 0 0 1 3036 1951)">Generated from wand.and.rays</text>
  <text style="stroke:none;fill:black;font-family:-apple-system,&quot;SF Pro Display&quot;,&quot;SF Pro Text&quot;,Helvetica,sans-serif;text-anchor:end;" transform="matrix(1 0 0 1 3036 1969)">Typeset at 100 points</text>
  <text style="stroke:none;fill:black;font-family:-apple-system,&quot;SF Pro Display&quot;,&quot;SF Pro Text&quot;,Helvetica,sans-serif;" transform="matrix(1 0 0 1 263 726)">Small</text>
  <text style="stroke:none;fill:black;font-family:-apple-system,&quot;SF Pro Display&quot;,&quot;SF Pro Text&quot;,Helvetica,sans-serif;" transform="matrix(1 0 0 1 263 1156)">Medium</text>
  <text style="stroke:none;fill:black;font-family:-apple-system,&quot;SF Pro Display&quot;,&quot;SF Pro Text&quot;,Helvetica,sans-serif;" transform="matrix(1 0 0 1 263 1586)">Large</text>
 </g>
 <g id="Guides">
  <g id="H-reference" style="fill:#27AAE1;stroke:none;" transform="matrix(1 0 0 1 339 696)">
   <path d="M 54.9316 0 L 57.666 0 L 30.5664 -70.459 L 28.0762 -70.459 L 0.976562 0 L 3.66211 0 L 12.9395 -24.4629 L 45.7031 -24.4629 Z M 29.1992 -67.0898 L 29.4434 -67.0898 L 44.8242 -26.709 L 13.8184 -26.709 Z"/>
  </g>
  <line id="Baseline-S" style="fill:none;stroke:#27AAE1;opacity:1;stroke-width:0.577;" x1="263" x2="3036" y1="696" y2="696"/>
  <line id="Capline-S" style="fill:none;stroke:#27AAE1;opacity:1;stroke-width:0.577;" x1="263" x2="3036" y1="625.541" y2="625.541"/>
  <g id="H-reference" style="fill:#27AAE1;stroke:none;" transform="matrix(1 0 0 1 339 1126)">
   <path d="M 54.9316 0 L 57.666 0 L 30.5664 -70.459 L 28.0762 -70.459 L 0.976562 0 L 3.66211 0 L 12.9395 -24.4629 L 45.7031 -24.4629 Z M 29.1992 -67.0898 L 29.4434 -67.0898 L 44.8242 -26.709 L 13.8184 -26.709 Z"/>
  </g>
  <line id="Baseline-M" style="fill:none;stroke:#27AAE1;opacity:1;stroke-width:0.577;" x1="263" x2="3036" y1="1126" y2="1126"/>
  <line id="Capline-M" style="fill:none;stroke:#27AAE1;opacity:1;stroke-width:0.577;" x1="263" x2="3036" y1="1055.54" y2="1055.54"/>
  <g id="H-reference" style="fill:#27AAE1;stroke:none;" transform="matrix(1 0 0 1 339 1556)">
   <path d="M 54.9316 0 L 57.666 0 L 30.5664 -70.459 L 28.0762 -70.459 L 0.976562 0 L 3.66211 0 L 12.9395 -24.4629 L 45.7031 -24.4629 Z M 29.1992 -67.0898 L 29.4434 -67.0898 L 44.8242 -26.709 L 13.8184 -26.709 Z"/>
  </g>
  <line id="Baseline-L" style="fill:none;stroke:#27AAE1;opacity:1;stroke-width:0.577;" x1="263" x2="3036" y1="1556" y2="1556"/>
  <line id="Capline-L" style="fill:none;stroke:#27AAE1;opacity:1;stroke-width:0.577;" x1="263" x2="3036" y1="1485.54" y2="1485.54"/>
  <rect height="119.336" id="left-margin" style="fill:#00AEEF;stroke:none;opacity:0.4;" width="8.74023" x="1389.1" y="1030.79"/>
  <rect height="119.336" id="right-margin" style="fill:#00AEEF;stroke:none;opacity:0.4;" width="8.69141" x="1501.9" y="1030.79"/>
 </g>
 <g id="Symbols">
  <g id="Ultralight-S" transform="matrix(1 0 0 1 512.323 696)">
   <path d="M 48.6328 -74.707 C 48.6328 -75.3418 48.0469 -75.9277 47.3633 -75.9277 C 46.7285 -75.9277 46.1426 -75.3418 46.1426 -74.707 L 46.1426 -62.793 C 46.1426 -62.1094 46.7285 -61.5234 47.3633 -61.5234 C 48.0469 -61.5234 48.6328 -62.1094 48.6328 -62.793 Z M 65.8203 -55.5664 C 65.332 -55.0781 65.332 -54.2969 65.8203 -53.8086 C 66.3086 -53.3203 67.0898 -53.3203 67.5781 -53.8086 L 75.9766 -62.2559 C 76.4648 -62.7441 76.4648 -63.5254 75.9766 -64.0137 C 75.4883 -64.502 74.7559 -64.502 74.2676 -64.0137 Z M 27.1484 -53.8086 C 27.5879 -53.3691 28.418 -53.3203 28.9062 -53.8086 C 29.3945 -54.248 29.3945 -55.0781 28.9062 -55.5664 L 20.5078 -64.0137 C 20.0684 -64.4531 19.2383 -64.502 18.75 -64.0137 C 18.2617 -63.5742 18.2617 -62.7441 18.75 -62.2559 Z M 81.9336 2.83203 C 82.8613 3.80859 84.2285 3.75977 85.1074 2.83203 C 85.9863 1.9043 86.084 0.634766 85.1074 -0.390625 L 47.998 -37.6465 C 47.0703 -38.5742 45.6543 -38.5254 44.8242 -37.6465 C 43.8965 -36.7188 43.8965 -35.3516 44.8242 -34.4238 Z M 57.8125 -23.3887 L 46.0938 -35.2539 C 45.5566 -35.7422 45.459 -36.1328 45.9473 -36.6211 C 46.3379 -37.0117 46.7285 -36.9141 47.2656 -36.4258 L 59.0332 -24.6094 Z M 8.10547 -36.6699 C 7.42188 -36.6699 6.83594 -36.0352 6.83594 -35.4004 C 6.83594 -34.7656 7.42188 -34.1309 8.10547 -34.1309 L 20.0195 -34.1309 C 20.6543 -34.1309 21.2402 -34.7656 21.2402 -35.4004 C 21.2402 -36.0352 20.6543 -36.6699 20.0195 -36.6699 Z M 86.6699 -34.1309 C 87.3047 -34.1309 87.9395 -34.7656 87.9395 -35.4004 C 87.9395 -36.0352 87.3047 -36.6699 86.6699 -36.6699 L 74.7559 -36.6699 C 74.0723 -36.6699 73.4863 -36.0352 73.4863 -35.4004 C 73.4863 -34.7656 74.0723 -34.1309 74.7559 -34.1309 Z M 18.7012 -8.54492 C 18.2617 -8.10547 18.2129 -7.27539 18.7012 -6.78711 C 19.1406 -6.34766 19.9707 -6.29883 20.459 -6.78711 L 28.9062 -15.1855 C 29.3457 -15.625 29.3945 -16.4551 28.9062 -16.9434 C 28.4668 -17.3828 27.6367 -17.4316 27.1484 -16.9434 Z M 48.6328 -8.00781 C 48.6328 -8.69141 48.0469 -9.27734 47.3633 -9.27734 C 46.7285 -9.27734 46.1426 -8.69141 46.1426 -8.00781 L 46.1426 3.90625 C 46.1426 4.54102 46.7285 5.12695 47.3633 5.12695 C 48.0469 5.12695 48.6328 4.54102 48.6328 3.90625 Z"/>
  </g>
  <g id="Thin-S" transform="matrix(1 0 0 1 808.986 696)">
   <path d="M 49.2676 -74.1699 C 49.2676 -75.1465 48.4375 -76.0254 47.4609 -76.0254 C 46.4355 -76.0254 45.6055 -75.1465 45.6055 -74.1699 L 45.6055 -62.3047 C 45.6055 -61.3281 46.4355 -60.4492 47.4609 -60.4492 C 48.4375 -60.4492 49.2676 -61.3281 49.2676 -62.3047 Z M 65.0879 -55.6152 C 64.4043 -54.9316 64.4043 -53.7598 65.0879 -53.0762 C 65.8203 -52.3438 66.9434 -52.3438 67.6758 -53.0762 L 76.0742 -61.4746 C 76.8066 -62.1582 76.8066 -63.3301 76.0742 -64.0625 C 75.3906 -64.7461 74.2188 -64.7461 73.5352 -64.0625 Z M 27.1484 -53.0762 C 27.832 -52.3926 29.0039 -52.3438 29.7363 -53.0762 C 30.4199 -53.7109 30.4199 -54.9316 29.7363 -55.6152 L 21.3867 -64.0625 C 20.7031 -64.6973 19.5312 -64.7461 18.7988 -64.0625 C 18.0664 -63.3789 18.0664 -62.207 18.7988 -61.4746 Z M 80.957 2.53906 C 82.1289 3.71094 83.8867 3.66211 84.9121 2.53906 C 85.9863 1.36719 86.0352 -0.244141 84.9121 -1.41602 L 48.0469 -38.4766 C 46.9238 -39.5996 45.1172 -39.5508 44.0918 -38.4766 C 42.9688 -37.3047 42.9688 -35.6445 44.0918 -34.5215 Z M 8.69141 -37.2559 C 7.71484 -37.2559 6.83594 -36.377 6.83594 -35.4004 C 6.83594 -34.4238 7.71484 -33.5449 8.69141 -33.5449 L 20.5566 -33.5449 C 21.5332 -33.5449 22.4121 -34.4238 22.4121 -35.4004 C 22.4121 -36.377 21.5332 -37.2559 20.5566 -37.2559 Z M 86.1816 -33.5449 C 87.1582 -33.5449 88.0371 -34.4238 88.0371 -35.4004 C 88.0371 -36.377 87.1582 -37.2559 86.1816 -37.2559 L 74.3164 -37.2559 C 73.3398 -37.2559 72.5098 -36.377 72.5098 -35.4004 C 72.5098 -34.4238 73.3398 -33.5449 74.3164 -33.5449 Z M 57.373 -23.7305 L 45.8008 -35.4004 C 45.2637 -35.9375 45.1172 -36.4258 45.6055 -36.9629 C 46.0938 -37.4023 46.582 -37.3047 47.168 -36.7188 L 58.7891 -25.0977 Z M 18.75 -9.32617 C 18.0664 -8.64258 18.0176 -7.4707 18.75 -6.73828 C 19.4336 -6.10352 20.6055 -6.05469 21.3379 -6.73828 L 29.7363 -15.1367 C 30.4199 -15.8203 30.4199 -16.9922 29.7363 -17.6758 C 29.0527 -18.3594 27.8809 -18.4082 27.1484 -17.6758 Z M 49.2676 -8.49609 C 49.2676 -9.47266 48.4375 -10.3516 47.4609 -10.3516 C 46.4355 -10.3516 45.6055 -9.47266 45.6055 -8.49609 L 45.6055 3.36914 C 45.6055 4.3457 46.4355 5.22461 47.4609 5.22461 C 48.4375 5.22461 49.2676 4.3457 49.2676 3.36914 Z"/>
  </g>
  <g id="Light-S" transform="matrix(1 0 0 1 1105.57 696)">
   <path d="M 50.4883 -73.1445 C 50.4883 -74.7559 49.1699 -76.123 47.5586 -76.123 C 45.9473 -76.123 44.5801 -74.7559 44.5801 -73.1445 L 44.5801 -61.3281 C 44.5801 -59.7656 45.9473 -58.3984 47.5586 -58.3984 C 49.1699 -58.3984 50.4883 -59.7656 50.4883 -61.3281 Z M 63.7207 -55.7129 C 62.5977 -54.5898 62.5977 -52.6855 63.7207 -51.5625 C 64.8438 -50.4395 66.7969 -50.4395 67.9199 -51.5625 L 76.2695 -59.9121 C 77.3926 -61.0352 77.3926 -62.9883 76.2695 -64.1113 C 75.1465 -65.2344 73.2422 -65.2344 72.1191 -64.1113 Z M 27.1973 -51.5625 C 28.3203 -50.4395 30.1758 -50.4395 31.3477 -51.5625 C 32.4707 -52.6855 32.4707 -54.5898 31.3477 -55.7129 L 23.0469 -64.0625 C 21.9238 -65.1855 20.0195 -65.2344 18.8965 -64.1113 C 17.7246 -62.9883 17.7246 -61.084 18.8965 -59.9609 Z M 79.1504 1.95312 C 80.6641 3.51562 83.1543 3.4668 84.5703 1.95312 C 86.0352 0.439453 86.0352 -1.9043 84.5703 -3.41797 L 48.0469 -40.0391 C 46.582 -41.5527 44.043 -41.5527 42.6758 -40.0391 C 41.1621 -38.4766 41.2109 -36.1328 42.6758 -34.668 Z M 9.81445 -38.3789 C 8.20312 -38.3789 6.83594 -37.0117 6.83594 -35.4004 C 6.83594 -33.7891 8.20312 -32.4219 9.81445 -32.4219 L 21.6309 -32.4219 C 23.2422 -32.4219 24.6094 -33.7891 24.6094 -35.4004 C 24.6094 -37.0117 23.2422 -38.3789 21.6309 -38.3789 Z M 85.3027 -32.4219 C 86.9141 -32.4219 88.2812 -33.7891 88.2812 -35.4004 C 88.2812 -37.0117 86.9141 -38.3789 85.3027 -38.3789 L 73.4863 -38.3789 C 71.875 -38.3789 70.5566 -37.0117 70.5566 -35.4004 C 70.5566 -33.7891 71.875 -32.4219 73.4863 -32.4219 Z M 56.5918 -24.2676 L 45.2637 -35.6445 C 44.6289 -36.2793 44.4336 -36.9629 45.0684 -37.6465 C 45.6543 -38.1836 46.3379 -38.0371 47.0215 -37.3535 L 58.3496 -26.0254 Z M 18.8477 -10.8887 C 17.7246 -9.76562 17.6758 -7.86133 18.7988 -6.73828 C 19.9219 -5.61523 21.8262 -5.56641 22.998 -6.68945 L 31.3477 -15.0391 C 32.4707 -16.1621 32.4707 -18.0664 31.3477 -19.1895 C 30.2246 -20.3125 28.3203 -20.3125 27.1973 -19.1895 Z M 50.4883 -9.42383 C 50.4883 -11.0352 49.1699 -12.4023 47.5586 -12.4023 C 45.9473 -12.4023 44.5801 -11.0352 44.5801 -9.42383 L 44.5801 2.39258 C 44.5801 4.00391 45.9473 5.37109 47.5586 5.37109 C 49.1699 5.37109 50.4883 4.00391 50.4883 2.39258 Z"/>
  </g>
  <g id="Regular-S" transform="matrix(1 0 0 1 1402.21 696)">
   <path d="M 51.4648 -72.4121 C 51.4648 -74.4629 49.707 -76.2207 47.6562 -76.2207 C 45.5566 -76.2207 43.8477 -74.4629 43.8477 -72.4121 L 43.8477 -60.6445 C 43.8477 -58.5449 45.5566 -56.8359 47.6562 -56.8359 C 49.707 -56.8359 51.4648 -58.5449 51.4648 -60.6445 Z M 62.6953 -55.8105 C 61.2305 -54.3457 61.2305 -51.9043 62.6953 -50.4395 C 64.1602 -48.9746 66.6504 -48.9746 68.0664 -50.4395 L 76.416 -58.7402 C 77.832 -60.2051 77.832 -62.6953 76.416 -64.1602 C 74.9512 -65.625 72.5098 -65.625 71.0449 -64.1602 Z M 27.1973 -50.4395 C 28.6621 -48.9746 31.1035 -48.9746 32.5684 -50.4395 C 33.9844 -51.9043 33.9844 -54.3457 32.5684 -55.8105 L 24.2676 -64.1113 C 22.8516 -65.5762 20.4102 -65.625 18.9453 -64.1602 C 17.4805 -62.6953 17.4805 -60.2539 18.9453 -58.7891 Z M 77.7832 1.5625 C 79.541 3.36914 82.6172 3.32031 84.2773 1.5625 C 86.0352 -0.292969 85.9863 -3.17383 84.2773 -4.98047 L 48.0957 -41.2598 C 46.3379 -43.0664 43.2617 -43.0664 41.6016 -41.2598 C 39.8438 -39.4043 39.8926 -36.5234 41.6016 -34.7656 Z M 10.6445 -39.209 C 8.59375 -39.209 6.83594 -37.4512 6.83594 -35.4004 C 6.83594 -33.3496 8.59375 -31.5918 10.6445 -31.5918 L 22.4609 -31.5918 C 24.5117 -31.5918 26.2695 -33.3496 26.2695 -35.4004 C 26.2695 -37.4512 24.5117 -39.209 22.4609 -39.209 Z M 84.6191 -31.5918 C 86.7188 -31.5918 88.4277 -33.3496 88.4277 -35.4004 C 88.4277 -37.4512 86.7188 -39.209 84.6191 -39.209 L 72.8516 -39.209 C 70.8008 -39.209 69.043 -37.4512 69.043 -35.4004 C 69.043 -33.3496 70.8008 -31.5918 72.8516 -31.5918 Z M 55.957 -24.707 L 44.8242 -35.8398 C 44.1406 -36.5723 43.9453 -37.4023 44.6289 -38.1348 C 45.3125 -38.7695 46.1426 -38.623 46.875 -37.8418 L 58.0078 -26.709 Z M 18.8965 -12.0605 C 17.4316 -10.5957 17.4316 -8.1543 18.8477 -6.68945 C 20.3125 -5.22461 22.8027 -5.17578 24.2188 -6.64062 L 32.5684 -14.9414 C 33.9844 -16.4062 33.9844 -18.8477 32.5684 -20.3125 C 31.1523 -21.7773 28.6621 -21.7773 27.1973 -20.3125 Z M 51.4648 -10.1074 C 51.4648 -12.207 49.707 -13.916 47.6562 -13.916 C 45.5566 -13.916 43.8477 -12.207 43.8477 -10.1074 L 43.8477 1.66016 C 43.8477 3.71094 45.5566 5.46875 47.6562 5.46875 C 49.707 5.46875 51.4648 3.71094 51.4648 1.66016 Z"/>
  </g>
  <g id="Medium-S" transform="matrix(1 0 0 1 1697.17 696)">
   <path d="M 53.7598 -73.5352 C 53.7598 -75.9277 51.7578 -77.9297 49.3652 -77.9297 C 47.0215 -77.9297 45.0195 -75.9277 45.0195 -73.5352 L 45.0195 -61.8164 C 45.0195 -59.4727 47.0215 -57.4707 49.3652 -57.4707 C 51.7578 -57.4707 53.7598 -59.4727 53.7598 -61.8164 Z M 65.0391 -57.1777 C 63.3789 -55.5176 63.3789 -52.6855 65.0391 -50.9766 C 66.6992 -49.3164 69.5801 -49.3652 71.2402 -51.0254 L 79.3945 -59.1797 C 81.0547 -60.8398 81.0547 -63.7207 79.3457 -65.3809 C 77.6855 -67.041 74.8535 -66.9922 73.1934 -65.332 Z M 27.5391 -51.0254 C 29.1992 -49.3652 32.0312 -49.3164 33.6914 -50.9766 C 35.3516 -52.6855 35.3516 -55.5176 33.6914 -57.1777 L 25.6348 -65.332 C 23.9258 -66.9922 21.0938 -67.041 19.4336 -65.3809 C 17.7734 -63.7207 17.7734 -60.8887 19.4336 -59.2285 Z M 79.1504 2.29492 C 81.2012 4.39453 84.7656 4.39453 86.7188 2.29492 C 88.8184 0.146484 88.7695 -3.22266 86.7188 -5.32227 L 50.5371 -41.6992 C 48.4863 -43.7988 44.9219 -43.7988 42.9199 -41.6992 C 40.8691 -39.5508 40.918 -36.1816 42.9199 -34.082 Z M 11.2305 -39.7949 C 8.83789 -39.7949 6.83594 -37.793 6.83594 -35.4004 C 6.83594 -33.0078 8.83789 -31.0059 11.2305 -31.0059 L 22.9492 -31.0059 C 25.3418 -31.0059 27.3438 -33.0078 27.3438 -35.4004 C 27.3438 -37.793 25.3418 -39.7949 22.9492 -39.7949 Z M 87.5488 -31.0059 C 89.9414 -31.0059 91.9434 -33.0078 91.9434 -35.4004 C 91.9434 -37.793 89.9414 -39.7949 87.5488 -39.7949 L 75.8301 -39.7949 C 73.4863 -39.7949 71.4844 -37.793 71.4844 -35.4004 C 71.4844 -33.0078 73.4863 -31.0059 75.8301 -31.0059 Z M 58.0078 -24.2676 L 46.5332 -35.7422 C 45.7031 -36.5723 45.4102 -37.5977 46.2402 -38.4766 C 47.0215 -39.209 48.0469 -38.9648 48.9258 -38.0859 L 60.4004 -26.6113 Z M 19.3848 -11.6699 C 17.7246 -10.0098 17.7246 -7.17773 19.3359 -5.51758 C 20.9961 -3.80859 23.877 -3.75977 25.5371 -5.41992 L 33.6914 -13.5742 C 35.3516 -15.2344 35.3516 -18.0664 33.6914 -19.7266 C 32.0801 -21.3867 29.1992 -21.4355 27.5391 -19.7754 Z M 53.7598 -8.93555 C 53.7598 -11.2793 51.7578 -13.2812 49.3652 -13.2812 C 47.0215 -13.2812 45.0195 -11.2793 45.0195 -8.93555 L 45.0195 2.7832 C 45.0195 5.12695 47.0215 7.17773 49.3652 7.17773 C 51.7578 7.17773 53.7598 5.12695 53.7598 2.7832 Z"/>
  </g>
  <g id="Semibold-S" transform="matrix(1 0 0 1 1992.53 696)">
   <path d="M 55.5176 -74.4141 C 55.5176 -77.0508 53.3203 -79.248 50.7324 -79.248 C 48.0957 -79.248 45.8984 -77.0508 45.8984 -74.4141 L 45.8984 -62.7441 C 45.8984 -60.1562 48.0957 -57.959 50.7324 -57.959 C 53.3203 -57.959 55.5176 -60.1562 55.5176 -62.7441 Z M 66.7969 -58.2031 C 64.9902 -56.3965 65.0391 -53.2715 66.8945 -51.416 C 68.7012 -49.6094 71.8262 -49.6094 73.6816 -51.4648 L 81.6895 -59.5215 C 83.4961 -61.3281 83.4473 -64.4531 81.6406 -66.3086 C 79.7852 -68.1152 76.6602 -68.0664 74.8535 -66.2598 Z M 27.7832 -51.4648 C 29.5898 -49.6094 32.7148 -49.6094 34.5215 -51.416 C 36.377 -53.2715 36.4258 -56.3965 34.6191 -58.2031 L 26.6113 -66.2109 C 24.8047 -68.0664 21.6797 -68.1152 19.873 -66.3086 C 18.0176 -64.4531 17.9688 -61.3281 19.7754 -59.5215 Z M 80.1758 2.88086 C 82.4219 5.22461 86.377 5.22461 88.623 2.88086 C 90.918 0.537109 90.8691 -3.27148 88.623 -5.56641 L 52.3926 -42.041 C 50.1465 -44.3848 46.1914 -44.3848 43.9453 -42.041 C 41.6504 -39.6973 41.6504 -35.8887 43.9453 -33.5938 Z M 11.6211 -40.1855 C 9.0332 -40.1855 6.83594 -37.9883 6.83594 -35.4004 C 6.83594 -32.8125 9.0332 -30.6152 11.6211 -30.6152 L 23.3398 -30.6152 C 25.9277 -30.6152 28.125 -32.8125 28.125 -35.4004 C 28.125 -37.9883 25.9277 -40.1855 23.3398 -40.1855 Z M 89.7949 -30.6152 C 92.4316 -30.6152 94.6289 -32.8125 94.6289 -35.4004 C 94.6289 -37.9883 92.4316 -40.1855 89.7949 -40.1855 L 78.125 -40.1855 C 75.5371 -40.1855 73.3398 -37.9883 73.3398 -35.4004 C 73.3398 -32.8125 75.5371 -30.6152 78.125 -30.6152 Z M 59.6191 -23.877 L 47.8027 -35.6934 C 46.875 -36.6211 46.5332 -37.7441 47.4609 -38.7207 C 48.3398 -39.5508 49.5117 -39.2578 50.4883 -38.2812 L 62.207 -26.5137 Z M 19.7754 -11.377 C 17.9199 -9.52148 17.9199 -6.39648 19.6777 -4.58984 C 21.5332 -2.73438 24.707 -2.68555 26.5137 -4.49219 L 34.5215 -12.5 C 36.377 -14.3555 36.4258 -17.4805 34.6191 -19.2871 C 32.7637 -21.1426 29.6387 -21.1426 27.832 -19.3359 Z M 55.5176 -8.00781 C 55.5176 -10.5957 53.3203 -12.793 50.7324 -12.793 C 48.0957 -12.793 45.8984 -10.5957 45.8984 -8.00781 L 45.8984 3.66211 C 45.8984 6.25 48.0957 8.49609 50.7324 8.49609 C 53.3203 8.49609 55.5176 6.25 55.5176 3.66211 Z"/>
  </g>
  <g id="Bold-S" transform="matrix(1 0 0 1 2287.49 696)">
   <path d="M 57.8613 -75.5859 C 57.8613 -78.5156 55.4199 -81.0059 52.4902 -81.0059 C 49.5605 -81.0059 47.1191 -78.5156 47.1191 -75.5859 L 47.1191 -64.0137 C 47.1191 -61.084 49.5605 -58.5938 52.4902 -58.5938 C 55.4199 -58.5938 57.8613 -61.084 57.8613 -64.0137 Z M 69.1895 -59.5703 C 67.1387 -57.5684 67.1875 -54.0527 69.2871 -51.9531 C 71.2891 -49.9512 74.8047 -50 76.8555 -52.0508 L 84.7168 -59.9121 C 86.7188 -61.9629 86.6699 -65.4785 84.6191 -67.5781 C 82.6172 -69.5801 79.0527 -69.5312 77.0508 -67.4805 Z M 28.125 -52.0508 C 30.127 -50 33.6914 -49.9512 35.6934 -51.9531 C 37.7441 -54.0527 37.793 -57.5684 35.791 -59.5703 L 27.9785 -67.4316 C 25.9277 -69.4824 22.4121 -69.5801 20.3613 -67.5781 C 18.3105 -65.4785 18.2617 -61.9629 20.2637 -59.9609 Z M 81.543 3.66211 C 84.082 6.25 88.5254 6.25 91.1133 3.66211 C 93.7012 0.976562 93.7012 -3.32031 91.1133 -5.95703 L 54.8828 -42.5293 C 52.2949 -45.166 47.8516 -45.166 45.2637 -42.5293 C 42.6758 -39.8926 42.6758 -35.5957 45.2637 -32.959 Z M 12.207 -40.7715 C 9.27734 -40.7715 6.83594 -38.3301 6.83594 -35.4004 C 6.83594 -32.4707 9.27734 -30.0293 12.207 -30.0293 L 23.8281 -30.0293 C 26.709 -30.0293 29.248 -32.4707 29.248 -35.4004 C 29.248 -38.3301 26.709 -40.7715 23.8281 -40.7715 Z M 92.7734 -30.0293 C 95.6543 -30.0293 98.1445 -32.4707 98.1445 -35.4004 C 98.1445 -38.3301 95.6543 -40.7715 92.7734 -40.7715 L 81.1523 -40.7715 C 78.2715 -40.7715 75.7812 -38.3301 75.7812 -35.4004 C 75.7812 -32.4707 78.2715 -30.0293 81.1523 -30.0293 Z M 61.6699 -23.3887 L 49.5117 -35.5957 C 48.4375 -36.6211 48.0469 -37.9883 49.0723 -39.0137 C 50.0977 -39.9902 51.4648 -39.6484 52.5391 -38.5742 L 64.5996 -26.416 Z M 20.3125 -10.9863 C 18.2129 -8.93555 18.1641 -5.41992 20.166 -3.36914 C 22.2656 -1.31836 25.7812 -1.26953 27.832 -3.27148 L 35.6934 -11.1328 C 37.7441 -13.1348 37.793 -16.6992 35.791 -18.7012 C 33.7402 -20.752 30.1758 -20.8008 28.1738 -18.7988 Z M 57.8613 -6.78711 C 57.8613 -9.7168 55.4199 -12.1582 52.4902 -12.1582 C 49.5605 -12.1582 47.1191 -9.7168 47.1191 -6.78711 L 47.1191 4.78516 C 47.1191 7.71484 49.5605 10.2051 52.4902 10.2051 C 55.4199 10.2051 57.8613 7.71484 57.8613 4.78516 Z"/>
  </g>
  <g id="Heavy-S" transform="matrix(1 0 0 1 2581.64 696)">
   <path d="M 61.2305 -77.2461 C 61.2305 -80.6152 58.3984 -83.4961 55.0293 -83.4961 C 51.6602 -83.4961 48.8281 -80.6152 48.8281 -77.2461 L 48.8281 -65.7715 C 48.8281 -62.4023 51.6602 -59.5703 55.0293 -59.5703 C 58.3984 -59.5703 61.2305 -62.4023 61.2305 -65.7715 Z M 72.6074 -61.5723 C 70.3125 -59.2773 70.3613 -55.1758 72.7539 -52.7832 C 75.0488 -50.4395 79.1504 -50.4883 81.4941 -52.9297 L 89.1113 -60.5469 C 91.4062 -62.8418 91.3574 -66.9434 88.9648 -69.3359 C 86.6211 -71.6797 82.5684 -71.582 80.1758 -69.1895 Z M 28.5645 -52.9297 C 30.957 -50.4883 35.0098 -50.4395 37.3535 -52.7832 C 39.7461 -55.1758 39.7949 -59.2773 37.5 -61.5723 L 29.8828 -69.1895 C 27.5391 -71.582 23.4375 -71.6797 21.1426 -69.3359 C 18.75 -66.9434 18.7012 -62.8418 20.9961 -60.5469 Z M 83.4961 4.78516 C 86.4746 7.8125 91.6504 7.8125 94.7266 4.78516 C 97.7539 1.70898 97.7539 -3.36914 94.7266 -6.44531 L 58.4473 -43.2129 C 55.4688 -46.2402 50.293 -46.2402 47.2168 -43.2129 C 44.1895 -40.1367 44.1895 -35.0586 47.2168 -31.9824 Z M 13.0371 -41.6016 C 9.66797 -41.6016 6.83594 -38.7695 6.83594 -35.4004 C 6.83594 -32.0312 9.66797 -29.1992 13.0371 -29.1992 L 24.5117 -29.1992 C 27.8809 -29.1992 30.7617 -32.0312 30.7617 -35.4004 C 30.7617 -38.7695 27.8809 -41.6016 24.5117 -41.6016 Z M 97.0215 -29.1992 C 100.391 -29.1992 103.271 -32.0312 103.271 -35.4004 C 103.271 -38.7695 100.391 -41.6016 97.0215 -41.6016 L 85.5469 -41.6016 C 82.1777 -41.6016 79.3457 -38.7695 79.3457 -35.4004 C 79.3457 -32.0312 82.1777 -29.1992 85.5469 -29.1992 Z M 64.6973 -22.7051 L 51.9531 -35.4492 C 50.7324 -36.6699 50.1953 -38.2812 51.4648 -39.502 C 52.6367 -40.625 54.248 -40.1855 55.5176 -38.916 L 68.0664 -26.2695 Z M 21.0449 -10.4004 C 18.6523 -8.05664 18.6035 -3.95508 20.8984 -1.66016 C 23.291 0.78125 27.3926 0.830078 29.6875 -1.51367 L 37.3535 -9.08203 C 39.7461 -11.4258 39.7949 -15.5273 37.5 -17.8223 C 35.0586 -20.2637 31.0059 -20.3125 28.6621 -17.9688 Z M 61.2305 -5.0293 C 61.2305 -8.39844 58.3984 -11.2305 55.0293 -11.2305 C 51.6602 -11.2305 48.8281 -8.39844 48.8281 -5.0293 L 48.8281 6.44531 C 48.8281 9.81445 51.6602 12.6953 55.0293 12.6953 C 58.3984 12.6953 61.2305 9.81445 61.2305 6.44531 Z"/>
  </g>
  <g id="Black-S" transform="matrix(1 0 0 1 2876.05 696)">
   <path d="M 64.2578 -78.7598 C 64.2578 -82.5195 61.084 -85.791 57.3242 -85.791 C 53.5645 -85.791 50.3906 -82.5195 50.3906 -78.7598 L 50.3906 -67.3828 C 50.3906 -63.5742 53.5645 -60.4004 57.3242 -60.4004 C 61.084 -60.4004 64.2578 -63.5742 64.2578 -67.3828 Z M 29.0039 -53.6621 C 31.6406 -50.9766 36.2305 -50.9277 38.8184 -53.4668 C 41.5039 -56.2012 41.6016 -60.791 39.0137 -63.3789 L 31.6406 -70.8008 C 29.0039 -73.4375 24.4141 -73.5352 21.8262 -70.9473 C 19.1406 -68.2617 19.043 -63.6719 21.6309 -61.084 Z M 75.6836 -63.3789 C 73.0957 -60.791 73.1445 -56.2012 75.8301 -53.4668 C 78.418 -50.9277 83.0078 -50.9766 85.6445 -53.6621 L 93.0176 -61.084 C 95.6055 -63.6719 95.5078 -68.2617 92.8223 -70.9473 C 90.2344 -73.5352 85.6445 -73.3887 83.0078 -70.752 Z M 85.2539 5.76172 C 88.623 9.17969 94.4336 9.17969 97.9492 5.76172 C 101.367 2.29492 101.416 -3.41797 97.9492 -6.93359 L 61.6211 -43.8477 C 58.252 -47.2656 52.4902 -47.2656 48.9746 -43.8477 C 45.5078 -40.3809 45.5078 -34.6191 48.9746 -31.1523 Z M 13.7695 -42.334 C 10.0098 -42.334 6.83594 -39.1602 6.83594 -35.4004 C 6.83594 -31.6406 10.0098 -28.4668 13.7695 -28.4668 L 25.1465 -28.4668 C 28.9551 -28.4668 32.1777 -31.6406 32.1777 -35.4004 C 32.1777 -39.1602 28.9551 -42.334 25.1465 -42.334 Z M 100.879 -28.4668 C 104.639 -28.4668 107.861 -31.6406 107.861 -35.4004 C 107.861 -39.1602 104.639 -42.334 100.879 -42.334 L 89.4531 -42.334 C 85.6934 -42.334 82.5195 -39.1602 82.5195 -35.4004 C 82.5195 -31.6406 85.6934 -28.4668 89.4531 -28.4668 Z M 67.3828 -22.0703 L 54.1504 -35.3516 C 52.7832 -36.6699 52.1484 -38.5742 53.5645 -39.9414 C 54.8828 -41.1621 56.7871 -40.6738 58.1543 -39.2578 L 71.1914 -26.123 Z M 21.7285 -9.86328 C 18.9941 -7.22656 18.9453 -2.63672 21.5332 -0.0976562 C 24.2188 2.63672 28.8086 2.68555 31.3965 0.0976562 L 38.8184 -7.27539 C 41.5039 -9.91211 41.6016 -14.502 39.0137 -17.0898 C 36.2793 -19.7754 31.6895 -19.8242 29.1504 -17.2852 Z M 64.2578 -3.4668 C 64.2578 -7.22656 61.084 -10.4004 57.3242 -10.4004 C 53.5645 -10.4004 50.3906 -7.22656 50.3906 -3.4668 L 50.3906 7.95898 C 50.3906 11.7188 53.5645 14.9414 57.3242 14.9414 C 61.084 14.9414 64.2578 11.7188 64.2578 7.95898 Z"/>
  </g>
  <g id="Ultralight-M" transform="matrix(1 0 0 1 499.262 1126)">
   <path d="M 61.8164 -85.791 C 61.8164 -86.5234 61.1816 -87.1582 60.4492 -87.1582 C 59.7168 -87.1582 59.082 -86.5234 59.082 -85.791 L 59.082 -70.5566 C 59.082 -69.873 59.7168 -69.1895 60.4492 -69.1895 C 61.1816 -69.1895 61.8164 -69.873 61.8164 -70.5566 Z M 84.2773 -61.1816 C 83.7402 -60.6445 83.7402 -59.8145 84.2773 -59.2773 C 84.8145 -58.7402 85.6445 -58.7402 86.1816 -59.2773 L 96.9727 -70.0684 C 97.5098 -70.6055 97.5098 -71.4355 96.9727 -71.9727 C 96.4355 -72.5098 95.6055 -72.5098 95.0684 -71.9727 Z M 34.668 -59.2773 C 35.1074 -58.7891 36.0352 -58.7402 36.5723 -59.2773 C 37.1094 -59.7168 37.1094 -60.6445 36.5723 -61.1816 L 25.8301 -71.9727 C 25.3906 -72.4609 24.4629 -72.5098 23.9258 -71.9727 C 23.3887 -71.4844 23.3887 -70.6055 23.9258 -70.0684 Z M 104.932 13.4277 C 106.104 14.6484 107.666 14.5508 108.691 13.4277 C 109.766 12.3535 109.863 10.8887 108.691 9.66797 L 61.2793 -37.9883 C 60.1562 -39.1113 58.4961 -39.0137 57.4707 -37.9883 C 56.3477 -36.8652 56.3477 -35.3027 57.4707 -34.1797 Z M 73.9746 -20.0195 L 58.9355 -35.2051 C 58.3008 -35.791 58.2031 -36.2793 58.7402 -36.8652 C 59.2285 -37.3535 59.7168 -37.207 60.3516 -36.6211 L 75.4395 -21.4844 Z M 10.1074 -36.8164 C 9.375 -36.8164 8.74023 -36.1816 8.74023 -35.4492 C 8.74023 -34.7168 9.375 -34.082 10.1074 -34.082 L 25.293 -34.082 C 26.0254 -34.082 26.709 -34.7168 26.709 -35.4492 C 26.709 -36.1816 26.0254 -36.8164 25.293 -36.8164 Z M 110.791 -34.082 C 111.523 -34.082 112.158 -34.7168 112.158 -35.4492 C 112.158 -36.1816 111.523 -36.8164 110.791 -36.8164 L 95.6055 -36.8164 C 94.873 -36.8164 94.1895 -36.1816 94.1895 -35.4492 C 94.1895 -34.7168 94.873 -34.082 95.6055 -34.082 Z M 23.877 -0.830078 C 23.3887 -0.390625 23.3398 0.537109 23.877 1.07422 C 24.3652 1.5625 25.2441 1.61133 25.7812 1.07422 L 36.5723 -9.66797 C 37.0605 -10.1074 37.1094 -11.0352 36.5723 -11.5723 C 36.084 -12.0605 35.2051 -12.1094 34.668 -11.5723 Z M 61.8164 -0.292969 C 61.8164 -1.02539 61.1816 -1.70898 60.4492 -1.70898 C 59.7168 -1.70898 59.082 -1.02539 59.082 -0.292969 L 59.082 14.8926 C 59.082 15.625 59.7168 16.2598 60.4492 16.2598 C 61.1816 16.2598 61.8164 15.625 61.8164 14.8926 Z"/>
  </g>
  <g id="Thin-M" transform="matrix(1 0 0 1 795.9 1126)">
   <path d="M 62.5488 -85.2051 C 62.5488 -86.2793 61.5723 -87.2559 60.498 -87.2559 C 59.4238 -87.2559 58.4961 -86.2793 58.4961 -85.2051 L 58.4961 -70.0195 C 58.4961 -68.9453 59.4238 -68.0176 60.498 -68.0176 C 61.5723 -68.0176 62.5488 -68.9453 62.5488 -70.0195 Z M 83.4473 -61.2305 C 82.666 -60.4492 82.666 -59.1797 83.4473 -58.3984 C 84.2773 -57.6172 85.5469 -57.6172 86.3281 -58.3984 L 97.0703 -69.1406 C 97.8516 -69.9219 97.8516 -71.1914 97.0703 -72.0215 C 96.2891 -72.8027 95.0195 -72.8027 94.2383 -72.0215 Z M 34.668 -58.3984 C 35.4004 -57.666 36.7188 -57.6172 37.5 -58.3984 C 38.2812 -59.1309 38.2812 -60.4492 37.5 -61.2305 L 26.8066 -71.9727 C 26.0742 -72.7051 24.7559 -72.8027 23.9746 -72.0215 C 23.1934 -71.2891 23.1934 -69.9707 23.9746 -69.1406 Z M 103.857 13.1348 C 105.225 14.5508 107.275 14.4531 108.496 13.1348 C 109.766 11.7676 109.863 9.91211 108.496 8.49609 L 61.2793 -38.916 C 59.9609 -40.2344 57.9102 -40.1855 56.6406 -38.916 C 55.3223 -37.5488 55.3223 -35.5957 56.6406 -34.2773 Z M 73.4863 -20.3613 L 58.5938 -35.3516 C 57.9102 -36.0352 57.7637 -36.6211 58.3984 -37.2559 C 58.9844 -37.793 59.5703 -37.6465 60.2539 -36.9629 L 75.1953 -22.0215 Z M 10.7422 -37.5 C 9.66797 -37.5 8.74023 -36.5234 8.74023 -35.4492 C 8.74023 -34.375 9.66797 -33.3984 10.7422 -33.3984 L 25.9277 -33.3984 C 27.002 -33.3984 27.9785 -34.375 27.9785 -35.4492 C 27.9785 -36.5234 27.002 -37.5 25.9277 -37.5 Z M 110.254 -33.3984 C 111.377 -33.3984 112.305 -34.375 112.305 -35.4492 C 112.305 -36.5234 111.377 -37.5 110.254 -37.5 L 95.1172 -37.5 C 94.043 -37.5 93.0664 -36.5234 93.0664 -35.4492 C 93.0664 -34.375 94.043 -33.3984 95.1172 -33.3984 Z M 23.9258 -1.75781 C 23.1934 -1.02539 23.1445 0.292969 23.877 1.07422 C 24.6582 1.80664 25.9766 1.9043 26.7578 1.12305 L 37.5 -9.57031 C 38.2324 -10.3516 38.2812 -11.6699 37.5 -12.4512 C 36.7676 -13.1836 35.4492 -13.2324 34.668 -12.4512 Z M 62.5488 -0.830078 C 62.5488 -1.95312 61.5723 -2.88086 60.498 -2.88086 C 59.4238 -2.88086 58.4961 -1.95312 58.4961 -0.830078 L 58.4961 14.3066 C 58.4961 15.3809 59.4238 16.3574 60.498 16.3574 C 61.5723 16.3574 62.5488 15.3809 62.5488 14.3066 Z"/>
  </g>
  <g id="Light-M" transform="matrix(1 0 0 1 1092.49 1126)">
   <path d="M 63.9648 -84.082 C 63.9648 -85.8398 62.4512 -87.3535 60.6445 -87.3535 C 58.8867 -87.3535 57.3242 -85.8398 57.3242 -84.082 L 57.3242 -68.9453 C 57.3242 -67.1875 58.8867 -65.6738 60.6445 -65.6738 C 62.4512 -65.6738 63.9648 -67.1875 63.9648 -68.9453 Z M 81.9336 -61.3281 C 80.6641 -60.0586 80.6641 -57.959 81.9336 -56.6895 C 83.2031 -55.4199 85.3027 -55.4199 86.5723 -56.6895 L 97.2656 -67.3828 C 98.5352 -68.6523 98.5352 -70.8008 97.2656 -72.0703 C 95.9961 -73.3398 93.8965 -73.3398 92.627 -72.0703 Z M 34.668 -56.6895 C 35.9375 -55.4688 38.0371 -55.4199 39.3066 -56.6895 C 40.5762 -57.959 40.5762 -60.0586 39.3066 -61.3281 L 28.7109 -72.0215 C 27.4414 -73.291 25.3418 -73.3398 24.0723 -72.0703 C 22.8027 -70.8496 22.8027 -68.7012 24.0723 -67.4316 Z M 101.807 12.5 C 103.564 14.3066 106.445 14.2578 108.105 12.5 C 109.766 10.6934 109.814 8.00781 108.105 6.20117 L 61.3281 -40.7227 C 59.6191 -42.4805 56.6895 -42.4316 55.0293 -40.7227 C 53.3203 -38.916 53.3691 -36.1816 55.0293 -34.4238 Z M 12.0117 -38.7695 C 10.2539 -38.7695 8.74023 -37.207 8.74023 -35.4492 C 8.74023 -33.6914 10.2539 -32.1289 12.0117 -32.1289 L 27.1484 -32.1289 C 28.9551 -32.1289 30.4688 -33.6914 30.4688 -35.4492 C 30.4688 -37.207 28.9551 -38.7695 27.1484 -38.7695 Z M 109.277 -32.1289 C 111.035 -32.1289 112.549 -33.6914 112.549 -35.4492 C 112.549 -37.207 111.035 -38.7695 109.277 -38.7695 L 94.1406 -38.7695 C 92.3828 -38.7695 90.8691 -37.207 90.8691 -35.4492 C 90.8691 -33.6914 92.3828 -32.1289 94.1406 -32.1289 Z M 72.5586 -20.9961 L 58.0078 -35.6445 C 57.2266 -36.4258 57.0312 -37.207 57.7637 -37.9883 C 58.4473 -38.6719 59.2773 -38.5254 60.0586 -37.6953 L 74.6582 -23.0957 Z M 24.0234 -3.51562 C 22.7539 -2.24609 22.7051 -0.146484 23.9746 1.12305 C 25.1953 2.39258 27.3438 2.44141 28.6133 1.17188 L 39.3066 -9.47266 C 40.5762 -10.7422 40.5762 -12.8418 39.3066 -14.1113 C 38.1348 -15.3809 35.9375 -15.3809 34.668 -14.1113 Z M 63.9648 -1.9043 C 63.9648 -3.66211 62.4512 -5.22461 60.6445 -5.22461 C 58.8867 -5.22461 57.3242 -3.66211 57.3242 -1.9043 L 57.3242 13.1836 C 57.3242 14.9902 58.8867 16.5039 60.6445 16.5039 C 62.4512 16.5039 63.9648 14.9902 63.9648 13.1836 Z"/>
  </g>
  <g id="Regular-M" transform="matrix(1 0 0 1 1389.1 1126)">
   <path d="M 64.9902 -83.2031 C 64.9902 -85.498 63.0371 -87.4512 60.7422 -87.4512 C 58.4473 -87.4512 56.4941 -85.498 56.4941 -83.2031 L 56.4941 -68.1641 C 56.4941 -65.8203 58.4473 -63.8672 60.7422 -63.8672 C 63.0371 -63.8672 64.9902 -65.8203 64.9902 -68.1641 Z M 80.7129 -61.4258 C 79.1016 -59.8145 79.1016 -57.0801 80.7129 -55.4199 C 82.373 -53.8086 85.1562 -53.8086 86.7676 -55.4199 L 97.4121 -66.0645 C 99.0723 -67.7246 99.0723 -70.459 97.4121 -72.1191 C 95.8008 -73.7305 93.0664 -73.7305 91.4062 -72.1191 Z M 34.7168 -55.4199 C 36.3281 -53.8086 39.0625 -53.8086 40.6738 -55.4199 C 42.334 -57.0801 42.334 -59.8145 40.6738 -61.4258 L 30.127 -72.0703 C 28.5156 -73.6816 25.7812 -73.7305 24.1211 -72.1191 C 22.5098 -70.5078 22.5098 -67.7734 24.1211 -66.1133 Z M 100.244 12.0117 C 102.295 14.1113 105.811 14.1113 107.764 12.0117 C 109.814 9.86328 109.766 6.54297 107.764 4.49219 L 61.377 -42.0898 C 59.3262 -44.1406 55.7617 -44.1406 53.8574 -42.0898 C 51.8066 -39.9414 51.8555 -36.5723 53.8574 -34.5215 Z M 12.9883 -39.6973 C 10.6934 -39.6973 8.74023 -37.7441 8.74023 -35.4492 C 8.74023 -33.1543 10.6934 -31.2012 12.9883 -31.2012 L 28.0762 -31.2012 C 30.4199 -31.2012 32.373 -33.1543 32.373 -35.4492 C 32.373 -37.7441 30.4199 -39.6973 28.0762 -39.6973 Z M 108.496 -31.2012 C 110.791 -31.2012 112.793 -33.1543 112.793 -35.4492 C 112.793 -37.7441 110.791 -39.6973 108.496 -39.6973 L 93.457 -39.6973 C 91.1133 -39.6973 89.1602 -37.7441 89.1602 -35.4492 C 89.1602 -33.1543 91.1133 -31.2012 93.457 -31.2012 Z M 71.875 -21.5332 L 57.5195 -35.8887 C 56.6406 -36.7676 56.4453 -37.6953 57.2266 -38.5742 C 58.1055 -39.3555 59.0332 -39.1602 59.9609 -38.2324 L 74.2676 -23.877 Z M 24.0723 -4.83398 C 22.4609 -3.22266 22.4121 -0.439453 24.0234 1.17188 C 25.6348 2.7832 28.418 2.83203 30.0781 1.2207 L 40.6738 -9.42383 C 42.334 -11.0352 42.334 -13.7695 40.6738 -15.3809 C 39.1113 -17.041 36.3281 -17.041 34.7168 -15.3809 Z M 64.9902 -2.68555 C 64.9902 -5.0293 63.0371 -6.98242 60.7422 -6.98242 C 58.4473 -6.98242 56.4941 -5.0293 56.4941 -2.68555 L 56.4941 12.3535 C 56.4941 14.6484 58.4473 16.6016 60.7422 16.6016 C 63.0371 16.6016 64.9902 14.6484 64.9902 12.3535 Z"/>
  </g>
  <g id="Medium-M" transform="matrix(1 0 0 1 1684.01 1126)">
   <path d="M 67.4805 -84.2773 C 67.4805 -86.9629 65.2344 -89.2578 62.5488 -89.2578 C 59.8633 -89.2578 57.5684 -86.9629 57.5684 -84.2773 L 57.5684 -69.2871 C 57.5684 -66.6016 59.8633 -64.3555 62.5488 -64.3555 C 65.2344 -64.3555 67.4805 -66.6016 67.4805 -69.2871 Z M 83.0078 -62.8418 C 81.1035 -60.9375 81.1035 -57.7637 83.0078 -55.8594 C 84.9121 -53.9551 88.1348 -53.9551 90.0391 -55.8594 L 100.488 -66.3574 C 102.393 -68.2129 102.344 -71.4844 100.439 -73.3887 C 98.584 -75.2441 95.3613 -75.2441 93.5059 -73.3398 Z M 35.0586 -55.8594 C 36.9141 -54.0039 40.1367 -53.9551 41.9922 -55.8594 C 43.8965 -57.7637 43.9453 -60.9375 42.041 -62.8418 L 31.6406 -73.291 C 29.7363 -75.1953 26.5625 -75.2441 24.6582 -73.3887 C 22.7539 -71.4844 22.7539 -68.2617 24.6094 -66.4062 Z M 101.416 12.7441 C 103.809 15.1855 107.91 15.1367 110.254 12.7441 C 112.646 10.2539 112.598 6.34766 110.254 3.90625 L 63.8672 -42.7246 C 61.4746 -45.1172 57.373 -45.1172 55.0293 -42.7246 C 52.6367 -40.2344 52.6855 -36.2793 55.0293 -33.8867 Z M 13.6719 -40.3809 C 10.9863 -40.3809 8.74023 -38.1348 8.74023 -35.4492 C 8.74023 -32.7637 10.9863 -30.4688 13.6719 -30.4688 L 28.7109 -30.4688 C 31.3965 -30.4688 33.6914 -32.7637 33.6914 -35.4492 C 33.6914 -38.1348 31.3965 -40.3809 28.7109 -40.3809 Z M 111.426 -30.4688 C 114.111 -30.4688 116.357 -32.7637 116.357 -35.4492 C 116.357 -38.1348 114.111 -40.3809 111.426 -40.3809 L 96.4355 -40.3809 C 93.75 -40.3809 91.4551 -38.1348 91.4551 -35.4492 C 91.4551 -32.7637 93.75 -30.4688 96.4355 -30.4688 Z M 73.877 -21.0938 L 59.1797 -35.791 C 58.2031 -36.8164 57.8613 -37.9395 58.8379 -38.9648 C 59.8145 -39.8438 60.9375 -39.5996 62.0117 -38.5742 L 76.6602 -23.877 Z M 24.6094 -4.58984 C 22.7051 -2.68555 22.6562 0.488281 24.5117 2.39258 C 26.416 4.29688 29.6387 4.3457 31.543 2.49023 L 41.9922 -7.95898 C 43.8965 -9.86328 43.9453 -13.0859 42.041 -14.9414 C 40.1855 -16.8457 36.9629 -16.8945 35.0586 -14.9902 Z M 67.4805 -1.5625 C 67.4805 -4.24805 65.2344 -6.54297 62.5488 -6.54297 C 59.8633 -6.54297 57.5684 -4.24805 57.5684 -1.5625 L 57.5684 13.4277 C 57.5684 16.1133 59.8633 18.4082 62.5488 18.4082 C 65.2344 18.4082 67.4805 16.1133 67.4805 13.4277 Z"/>
  </g>
  <g id="Semibold-M" transform="matrix(1 0 0 1 1979.33 1126)">
   <path d="M 69.3848 -85.1074 C 69.3848 -88.0859 66.8945 -90.625 63.916 -90.625 C 60.9375 -90.625 58.4473 -88.0859 58.4473 -85.1074 L 58.4473 -70.166 C 58.4473 -67.1875 60.9375 -64.6973 63.916 -64.6973 C 66.8945 -64.6973 69.3848 -67.1875 69.3848 -70.166 Z M 84.7168 -63.916 C 82.6172 -61.8164 82.666 -58.252 84.7656 -56.1523 C 86.8652 -54.1016 90.4297 -54.1016 92.5293 -56.2012 L 102.832 -66.5527 C 104.932 -68.6523 104.932 -72.2168 102.783 -74.3652 C 100.732 -76.416 97.168 -76.3672 95.0684 -74.2676 Z M 35.3027 -56.2012 C 37.4023 -54.1016 40.9668 -54.1016 43.0176 -56.1523 C 45.1172 -58.252 45.166 -61.8164 43.0664 -63.916 L 32.8125 -74.2676 C 30.7129 -76.3184 27.1484 -76.416 25.0977 -74.3652 C 22.9492 -72.2168 22.9492 -68.6523 25 -66.6016 Z M 102.344 13.2812 C 104.98 15.9668 109.57 15.9668 112.158 13.2812 C 114.795 10.5469 114.795 6.20117 112.158 3.4668 L 65.7715 -43.2129 C 63.1348 -45.8984 58.5938 -45.8496 55.957 -43.2129 C 53.3203 -40.4297 53.3691 -36.084 55.957 -33.3984 Z M 14.209 -40.918 C 11.2305 -40.918 8.74023 -38.4277 8.74023 -35.4492 C 8.74023 -32.4707 11.2305 -29.9805 14.209 -29.9805 L 29.1504 -29.9805 C 32.1289 -29.9805 34.668 -32.4707 34.668 -35.4492 C 34.668 -38.4277 32.1289 -40.918 29.1504 -40.918 Z M 113.623 -29.9805 C 116.602 -29.9805 119.141 -32.4707 119.141 -35.4492 C 119.141 -38.4277 116.602 -40.918 113.623 -40.918 L 98.6816 -40.918 C 95.7031 -40.918 93.2129 -38.4277 93.2129 -35.4492 C 93.2129 -32.4707 95.7031 -29.9805 98.6816 -29.9805 Z M 75.4395 -20.752 L 60.4492 -35.7422 C 59.375 -36.8652 58.9844 -38.1836 60.0586 -39.3066 C 61.1328 -40.2344 62.4512 -39.9414 63.5742 -38.8184 L 78.5156 -23.877 Z M 25 -4.39453 C 22.9004 -2.29492 22.8516 1.26953 24.9023 3.32031 C 27.002 5.41992 30.6152 5.51758 32.666 3.41797 L 43.0176 -6.88477 C 45.1172 -8.98438 45.166 -12.5488 43.0664 -14.5996 C 41.0156 -16.6992 37.4023 -16.748 35.3516 -14.6484 Z M 69.3848 -0.683594 C 69.3848 -3.66211 66.8945 -6.20117 63.916 -6.20117 C 60.9375 -6.20117 58.4473 -3.66211 58.4473 -0.683594 L 58.4473 14.209 C 58.4473 17.1875 60.9375 19.7266 63.916 19.7266 C 66.8945 19.7266 69.3848 17.1875 69.3848 14.209 Z"/>
  </g>
  <g id="Bold-M" transform="matrix(1 0 0 1 2274.23 1126)">
   <path d="M 71.9238 -86.1816 C 71.9238 -89.5508 69.0918 -92.3828 65.7227 -92.3828 C 62.4023 -92.3828 59.5703 -89.5508 59.5703 -86.1816 L 59.5703 -71.3379 C 59.5703 -67.9688 62.4023 -65.1367 65.7227 -65.1367 C 69.0918 -65.1367 71.9238 -67.9688 71.9238 -71.3379 Z M 87.0117 -65.332 C 84.668 -62.9883 84.7168 -58.9844 87.1094 -56.5918 C 89.4043 -54.248 93.457 -54.2969 95.8496 -56.6895 L 105.957 -66.8457 C 108.301 -69.1895 108.252 -73.2422 105.859 -75.6348 C 103.564 -77.9297 99.5117 -77.8809 97.168 -75.5371 Z M 35.6445 -56.6895 C 37.9883 -54.2969 42.041 -54.248 44.3359 -56.5918 C 46.7285 -58.9355 46.7773 -62.9883 44.4336 -65.332 L 34.3262 -75.4883 C 31.9824 -77.832 27.9297 -77.9297 25.6348 -75.6348 C 23.2422 -73.2422 23.1934 -69.1895 25.5371 -66.8457 Z M 103.564 14.0137 C 106.543 17.041 111.67 17.041 114.648 14.0137 C 117.676 10.9375 117.676 5.95703 114.648 2.92969 L 68.3105 -43.8477 C 65.332 -46.875 60.2051 -46.875 57.2266 -43.8477 C 54.1992 -40.7715 54.1992 -35.791 57.2266 -32.7148 Z M 14.8926 -41.6504 C 11.5723 -41.6504 8.74023 -38.8184 8.74023 -35.4492 C 8.74023 -32.0801 11.5723 -29.248 14.8926 -29.248 L 29.7852 -29.248 C 33.1543 -29.248 35.9863 -32.0801 35.9863 -35.4492 C 35.9863 -38.8184 33.1543 -41.6504 29.7852 -41.6504 Z M 116.553 -29.248 C 119.922 -29.248 122.803 -32.0801 122.803 -35.4492 C 122.803 -38.8184 119.922 -41.6504 116.553 -41.6504 L 101.709 -41.6504 C 98.3398 -41.6504 95.5078 -38.8184 95.5078 -35.4492 C 95.5078 -32.0801 98.3398 -29.248 101.709 -29.248 Z M 77.4902 -20.3125 L 62.1094 -35.6934 C 60.8887 -36.9141 60.4492 -38.4277 61.6699 -39.6973 C 62.8418 -40.7715 64.4043 -40.4297 65.6738 -39.1113 L 80.9082 -23.8281 Z M 25.5371 -4.15039 C 23.1445 -1.80664 23.0957 2.24609 25.3906 4.58984 C 27.7832 6.93359 31.8848 7.03125 34.1797 4.6875 L 44.3359 -5.41992 C 46.7285 -7.8125 46.7773 -11.8164 44.4336 -14.1602 C 42.0898 -16.5527 38.0371 -16.6016 35.6934 -14.2578 Z M 71.9238 0.439453 C 71.9238 -2.88086 69.0918 -5.71289 65.7227 -5.71289 C 62.4023 -5.71289 59.5703 -2.88086 59.5703 0.439453 L 59.5703 15.2832 C 59.5703 18.6523 62.4023 21.5332 65.7227 21.5332 C 69.0918 21.5332 71.9238 18.6523 71.9238 15.2832 Z"/>
  </g>
  <g id="Heavy-M" transform="matrix(1 0 0 1 2568.31 1126)">
   <path d="M 75.5859 -87.7441 C 75.5859 -91.6504 72.2656 -94.9707 68.3594 -94.9707 C 64.4531 -94.9707 61.1816 -91.6504 61.1816 -87.7441 L 61.1816 -72.998 C 61.1816 -69.0918 64.4531 -65.8203 68.3594 -65.8203 C 72.2656 -65.8203 75.5859 -69.0918 75.5859 -72.998 Z M 90.2832 -67.3828 C 87.5977 -64.6973 87.6465 -59.9609 90.4297 -57.1777 C 93.1152 -54.4922 97.8516 -54.541 100.635 -57.3242 L 110.498 -67.2363 C 113.184 -69.9219 113.135 -74.6582 110.352 -77.4414 C 107.666 -80.1758 102.93 -80.0781 100.195 -77.2949 Z M 36.1328 -57.3242 C 38.8672 -54.541 43.6035 -54.4922 46.2891 -57.1777 C 49.0723 -59.9609 49.1211 -64.6973 46.4355 -67.3828 L 36.5723 -77.2949 C 33.8379 -80.0293 29.1016 -80.1758 26.416 -77.4414 C 23.6328 -74.6582 23.584 -69.9219 26.2695 -67.2363 Z M 105.322 15.0879 C 108.789 18.6035 114.746 18.6035 118.311 15.0879 C 121.826 11.4746 121.826 5.66406 118.311 2.09961 L 71.9727 -44.7754 C 68.5059 -48.291 62.5488 -48.291 58.9844 -44.7754 C 55.4688 -41.1621 55.4688 -35.3516 58.9844 -31.7871 Z M 15.918 -42.6758 C 12.0117 -42.6758 8.74023 -39.3555 8.74023 -35.4492 C 8.74023 -31.543 12.0117 -28.2227 15.918 -28.2227 L 30.6641 -28.2227 C 34.5703 -28.2227 37.9395 -31.543 37.9395 -35.4492 C 37.9395 -39.3555 34.5703 -42.6758 30.6641 -42.6758 Z M 120.801 -28.2227 C 124.707 -28.2227 128.076 -31.543 128.076 -35.4492 C 128.076 -39.3555 124.707 -42.6758 120.801 -42.6758 L 106.055 -42.6758 C 102.148 -42.6758 98.877 -39.3555 98.877 -35.4492 C 98.877 -31.543 102.148 -28.2227 106.055 -28.2227 Z M 80.4688 -19.6777 L 64.5508 -35.5957 C 63.1348 -37.0117 62.5488 -38.8672 64.0137 -40.2832 C 65.3809 -41.5527 67.2363 -41.0645 68.7012 -39.5996 L 84.375 -23.7793 Z M 26.3184 -3.80859 C 23.5352 -1.07422 23.4863 3.66211 26.123 6.34766 C 28.9062 9.13086 33.6914 9.22852 36.377 6.54297 L 46.2891 -3.36914 C 49.0723 -6.10352 49.1211 -10.8398 46.4355 -13.5254 C 43.6523 -16.3086 38.916 -16.3574 36.2305 -13.6719 Z M 75.5859 2.09961 C 75.5859 -1.80664 72.2656 -5.07812 68.3594 -5.07812 C 64.4531 -5.07812 61.1816 -1.80664 61.1816 2.09961 L 61.1816 16.8457 C 61.1816 20.752 64.4531 24.1211 68.3594 24.1211 C 72.2656 24.1211 75.5859 20.752 75.5859 16.8457 Z"/>
  </g>
  <g id="Black-M" transform="matrix(1 0 0 1 2862.65 1126)">
   <path d="M 78.8574 -89.1602 C 78.8574 -93.5547 75.1465 -97.3145 70.7031 -97.3145 C 66.3086 -97.3145 62.5977 -93.5547 62.5977 -89.1602 L 62.5977 -74.5117 C 62.5977 -70.1172 66.3086 -66.4062 70.7031 -66.4062 C 75.1465 -66.4062 78.8574 -70.1172 78.8574 -74.5117 Z M 36.5723 -57.9102 C 39.6484 -54.7363 45.0195 -54.6875 47.998 -57.7148 C 51.1719 -60.8398 51.2207 -66.2109 48.1934 -69.2383 L 38.5742 -78.9062 C 35.498 -82.0312 30.127 -82.1289 27.0996 -79.1016 C 23.9746 -75.9766 23.9258 -70.6055 26.9043 -67.627 Z M 93.2617 -69.2383 C 90.2344 -66.2109 90.2832 -60.8398 93.457 -57.7148 C 96.4355 -54.6875 101.807 -54.7363 104.883 -57.9102 L 114.502 -67.627 C 117.529 -70.6055 117.48 -75.9766 114.307 -79.1016 C 111.328 -82.1289 105.957 -81.9824 102.881 -78.9062 Z M 106.885 16.0156 C 110.791 19.9707 117.529 19.9707 121.533 16.0156 C 125.537 11.9629 125.537 5.37109 121.533 1.36719 L 75.2441 -45.6055 C 71.3379 -49.5605 64.5996 -49.5605 60.5957 -45.6055 C 56.5918 -41.5527 56.5918 -34.9609 60.5957 -30.957 Z M 16.8457 -43.5547 C 12.4512 -43.5547 8.74023 -39.8438 8.74023 -35.4492 C 8.74023 -31.0547 12.4512 -27.3438 16.8457 -27.3438 L 31.4941 -27.3438 C 35.8887 -27.3438 39.6484 -31.0547 39.6484 -35.4492 C 39.6484 -39.8438 35.8887 -43.5547 31.4941 -43.5547 Z M 124.609 -27.3438 C 129.004 -27.3438 132.812 -31.0547 132.812 -35.4492 C 132.812 -39.8438 129.004 -43.5547 124.609 -43.5547 L 109.961 -43.5547 C 105.566 -43.5547 101.855 -39.8438 101.855 -35.4492 C 101.855 -31.0547 105.566 -27.3438 109.961 -27.3438 Z M 83.1055 -19.0918 L 66.748 -35.498 C 65.1367 -37.0605 64.4531 -39.209 66.1133 -40.7715 C 67.627 -42.2363 69.7754 -41.6504 71.3867 -40.0391 L 87.5 -23.7793 Z M 27.002 -3.4668 C 23.8281 -0.390625 23.7793 4.93164 26.8066 7.95898 C 29.9316 11.1328 35.3027 11.1816 38.3301 8.1543 L 47.998 -1.46484 C 51.1719 -4.54102 51.2207 -9.91211 48.1934 -12.9395 C 45.0684 -16.0645 39.6973 -16.1133 36.6699 -13.1348 Z M 78.8574 3.61328 C 78.8574 -0.78125 75.1465 -4.49219 70.7031 -4.49219 C 66.3086 -4.49219 62.5977 -0.78125 62.5977 3.61328 L 62.5977 18.2617 C 62.5977 22.6562 66.3086 26.416 70.7031 26.416 C 75.1465 26.416 78.8574 22.6562 78.8574 18.2617 Z"/>
  </g>
  <g id="Ultralight-L" transform="matrix(1 0 0 1 481.733 1556)">
   <path d="M 79.4922 -100.732 C 79.4922 -101.514 78.7598 -102.246 77.9785 -102.246 C 77.1973 -102.246 76.4648 -101.514 76.4648 -100.732 L 76.4648 -81.1035 C 76.4648 -80.3223 77.1973 -79.5898 77.9785 -79.5898 C 78.7598 -79.5898 79.4922 -80.3223 79.4922 -81.1035 Z M 109.082 -68.7012 C 108.496 -68.1152 108.496 -67.1875 109.082 -66.6016 C 109.668 -66.0156 110.547 -66.0156 111.133 -66.6016 L 125.098 -80.5664 C 125.684 -81.1523 125.684 -82.0312 125.098 -82.6172 C 124.512 -83.2031 123.584 -83.2031 122.998 -82.6172 Z M 44.7266 -66.6016 C 45.2148 -66.1133 46.1914 -66.0156 46.7773 -66.6016 C 47.3633 -67.1387 47.3633 -68.1152 46.7773 -68.7012 L 32.959 -82.6172 C 32.4219 -83.1055 31.4453 -83.2031 30.8594 -82.6172 C 30.2734 -82.1289 30.2734 -81.1523 30.8594 -80.5176 Z M 135.84 27.7344 C 137.256 29.1992 139.111 29.0527 140.381 27.7344 C 141.602 26.416 141.797 24.707 140.381 23.1934 L 79.0527 -38.3789 C 77.6855 -39.6973 75.7812 -39.6484 74.5117 -38.3789 C 73.1934 -37.0605 73.1934 -35.2051 74.5117 -33.8379 Z M 95.6543 -15.4785 L 76.1719 -35.1074 C 75.3906 -35.8887 75.2441 -36.4746 75.9277 -37.1582 C 76.5137 -37.7441 77.1484 -37.5977 77.8809 -36.8164 L 97.4609 -17.2852 Z M 12.7441 -37.0117 C 11.9629 -37.0117 11.2793 -36.2793 11.2793 -35.498 C 11.2793 -34.7168 11.9629 -34.0332 12.7441 -34.0332 L 32.373 -34.0332 C 33.1543 -34.0332 33.8867 -34.7168 33.8867 -35.498 C 33.8867 -36.2793 33.1543 -37.0117 32.373 -37.0117 Z M 143.164 -34.0332 C 143.945 -34.0332 144.678 -34.7168 144.678 -35.498 C 144.678 -36.2793 143.945 -37.0117 143.164 -37.0117 L 123.535 -37.0117 C 122.754 -37.0117 122.021 -36.2793 122.021 -35.498 C 122.021 -34.7168 122.754 -34.0332 123.535 -34.0332 Z M 30.7617 9.52148 C 30.2734 10.0098 30.1758 11.0352 30.7617 11.6211 C 31.2988 12.1094 32.2754 12.207 32.8613 11.6211 L 46.7773 -2.24609 C 47.2656 -2.73438 47.3633 -3.71094 46.7773 -4.3457 C 46.2891 -4.83398 45.3125 -4.93164 44.7266 -4.3457 Z M 79.4922 10.0586 C 79.4922 9.27734 78.7598 8.54492 77.9785 8.54492 C 77.1973 8.54492 76.4648 9.27734 76.4648 10.0586 L 76.4648 29.6875 C 76.4648 30.4688 77.1973 31.2012 77.9785 31.2012 C 78.7598 31.2012 79.4922 30.4688 79.4922 29.6875 Z"/>
  </g>
  <g id="Thin-L" transform="matrix(1 0 0 1 778.37 1556)">
   <path d="M 80.2734 -100.049 C 80.2734 -101.27 79.1992 -102.295 78.0273 -102.295 C 76.8555 -102.295 75.8301 -101.27 75.8301 -100.049 L 75.8301 -80.4688 C 75.8301 -79.2969 76.8555 -78.2227 78.0273 -78.2227 C 79.1992 -78.2227 80.2734 -79.2969 80.2734 -80.4688 Z M 108.203 -68.75 C 107.324 -67.8711 107.324 -66.5039 108.203 -65.6738 C 109.033 -64.7949 110.449 -64.7949 111.279 -65.6738 L 125.195 -79.541 C 126.074 -80.4199 126.074 -81.7871 125.195 -82.666 C 124.316 -83.5449 122.949 -83.5449 122.07 -82.666 Z M 44.7266 -65.6738 C 45.5078 -64.8438 46.9727 -64.7949 47.8027 -65.6738 C 48.6816 -66.4551 48.6816 -67.8711 47.8027 -68.75 L 34.0332 -82.666 C 33.2031 -83.4473 31.7871 -83.5449 30.9082 -82.666 C 30.0293 -81.8848 30.0293 -80.4199 30.9082 -79.541 Z M 134.668 27.3438 C 136.279 29.0527 138.623 28.9062 140.137 27.3438 C 141.602 25.7812 141.748 23.584 140.137 21.875 L 79.0527 -39.4043 C 77.4902 -41.0156 75.0977 -40.918 73.584 -39.4043 C 72.0215 -37.8418 72.0215 -35.498 73.584 -33.9355 Z M 95.1172 -15.8203 L 75.8301 -35.3027 C 75 -36.1328 74.8047 -36.8164 75.5371 -37.5977 C 76.2695 -38.2812 76.9531 -38.0859 77.7832 -37.2559 L 97.168 -17.8711 Z M 13.4766 -37.7441 C 12.3047 -37.7441 11.2793 -36.6699 11.2793 -35.498 C 11.2793 -34.3262 12.3047 -33.3008 13.4766 -33.3008 L 33.1055 -33.3008 C 34.2773 -33.3008 35.3027 -34.3262 35.3027 -35.498 C 35.3027 -36.6699 34.2773 -37.7441 33.1055 -37.7441 Z M 142.627 -33.3008 C 143.799 -33.3008 144.824 -34.3262 144.824 -35.498 C 144.824 -36.6699 143.799 -37.7441 142.627 -37.7441 L 122.998 -37.7441 C 121.826 -37.7441 120.801 -36.6699 120.801 -35.498 C 120.801 -34.3262 121.826 -33.3008 122.998 -33.3008 Z M 30.8105 8.54492 C 30.0293 9.32617 29.9805 10.7422 30.8105 11.6211 C 31.5918 12.4023 33.0566 12.5 33.9355 11.6211 L 47.8027 -2.19727 C 48.6328 -2.97852 48.6816 -4.44336 47.8027 -5.27344 C 47.0215 -6.10352 45.6055 -6.15234 44.7266 -5.27344 Z M 80.2734 9.47266 C 80.2734 8.30078 79.1992 7.22656 78.0273 7.22656 C 76.8555 7.22656 75.8301 8.30078 75.8301 9.47266 L 75.8301 29.0527 C 75.8301 30.2246 76.8555 31.2988 78.0273 31.2988 C 79.1992 31.2988 80.2734 30.2246 80.2734 29.0527 Z"/>
  </g>
  <g id="Light-L" transform="matrix(1 0 0 1 1074.94 1556)">
   <path d="M 81.8359 -98.7793 C 81.8359 -100.732 80.127 -102.441 78.1738 -102.441 C 76.2207 -102.441 74.5605 -100.732 74.5605 -98.7793 L 74.5605 -79.248 C 74.5605 -77.2949 76.2207 -75.6348 78.1738 -75.6348 C 80.127 -75.6348 81.8359 -77.2949 81.8359 -79.248 Z M 106.445 -68.8965 C 105.029 -67.4805 105.029 -65.1855 106.445 -63.7695 C 107.861 -62.3535 110.205 -62.3535 111.572 -63.7695 L 125.391 -77.5879 C 126.807 -79.0039 126.807 -81.3477 125.391 -82.7148 C 124.023 -84.1309 121.729 -84.1309 120.312 -82.7148 Z M 44.7266 -63.7695 C 46.0938 -62.4023 48.4375 -62.3535 49.8535 -63.7695 C 51.2695 -65.1367 51.2695 -67.4805 49.8535 -68.8965 L 36.1328 -82.7148 C 34.7656 -84.0332 32.4219 -84.1309 31.0059 -82.7148 C 29.5898 -81.3965 29.5898 -79.0039 31.0059 -77.6367 Z M 132.373 26.6602 C 134.424 28.8086 137.744 28.7109 139.648 26.6602 C 141.65 24.5605 141.699 21.4844 139.648 19.3359 L 79.1016 -41.4062 C 77.0996 -43.5059 73.7305 -43.457 71.8262 -41.4062 C 69.7754 -39.3066 69.8242 -36.1328 71.8262 -34.1309 Z M 14.8926 -39.1602 C 12.9395 -39.1602 11.2793 -37.4512 11.2793 -35.498 C 11.2793 -33.5449 12.9395 -31.8848 14.8926 -31.8848 L 34.4727 -31.8848 C 36.4258 -31.8848 38.0859 -33.5449 38.0859 -35.498 C 38.0859 -37.4512 36.4258 -39.1602 34.4727 -39.1602 Z M 141.504 -31.8848 C 143.457 -31.8848 145.117 -33.5449 145.117 -35.498 C 145.117 -37.4512 143.457 -39.1602 141.504 -39.1602 L 121.973 -39.1602 C 120.02 -39.1602 118.311 -37.4512 118.311 -35.498 C 118.311 -33.5449 120.02 -31.8848 121.973 -31.8848 Z M 94.0918 -16.5527 L 75.1465 -35.6445 C 74.1699 -36.5723 73.9258 -37.5 74.8047 -38.4277 C 75.6836 -39.2578 76.6113 -39.0625 77.5879 -38.0371 L 96.582 -19.043 Z M 30.9082 6.5918 C 29.5898 7.91016 29.541 10.2539 30.9082 11.6699 C 32.2266 13.0371 34.6191 13.1348 36.0352 11.7188 L 49.8535 -2.05078 C 51.2207 -3.41797 51.2695 -5.76172 49.8535 -7.17773 C 48.5352 -8.54492 46.1426 -8.59375 44.7266 -7.17773 Z M 81.8359 8.30078 C 81.8359 6.34766 80.127 4.63867 78.1738 4.63867 C 76.2207 4.63867 74.5605 6.34766 74.5605 8.30078 L 74.5605 27.832 C 74.5605 29.7852 76.2207 31.4453 78.1738 31.4453 C 80.127 31.4453 81.8359 29.7852 81.8359 27.832 Z"/>
  </g>
  <g id="Regular-L" transform="matrix(1 0 0 1 1371.55 1556)">
   <path d="M 83.0078 -97.8516 C 83.0078 -100.391 80.8594 -102.539 78.3203 -102.539 C 75.7812 -102.539 73.584 -100.391 73.584 -97.8516 L 73.584 -78.3691 C 73.584 -75.8301 75.7812 -73.6328 78.3203 -73.6328 C 80.8594 -73.6328 83.0078 -75.8301 83.0078 -78.3691 Z M 105.127 -68.9941 C 103.32 -67.1387 103.32 -64.1602 105.127 -62.3535 C 106.934 -60.5469 110.01 -60.5469 111.816 -62.3535 L 125.586 -76.123 C 127.393 -77.9297 127.393 -80.957 125.586 -82.7637 C 123.779 -84.6191 120.752 -84.6191 118.945 -82.7637 Z M 44.7754 -62.3535 C 46.5332 -60.5469 49.5605 -60.5469 51.3672 -62.3535 C 53.1738 -64.1113 53.1738 -67.1387 51.3672 -68.9941 L 37.6953 -82.7148 C 35.9375 -84.5215 32.9102 -84.6191 31.0547 -82.7637 C 29.248 -81.0059 29.248 -77.9785 31.0547 -76.1719 Z M 130.615 26.123 C 133.057 28.6133 137.061 28.5645 139.307 26.123 C 141.65 23.6328 141.699 19.873 139.307 17.4316 L 79.1504 -42.9199 C 76.7578 -45.3613 72.7051 -45.3613 70.459 -42.9199 C 68.0664 -40.4785 68.1152 -36.6211 70.459 -34.2285 Z M 15.9668 -40.2344 C 13.4277 -40.2344 11.2793 -38.0371 11.2793 -35.498 C 11.2793 -32.959 13.4277 -30.8105 15.9668 -30.8105 L 35.498 -30.8105 C 38.0371 -30.8105 40.2344 -32.959 40.2344 -35.498 C 40.2344 -38.0371 38.0371 -40.2344 35.498 -40.2344 Z M 140.625 -30.8105 C 143.164 -30.8105 145.361 -32.959 145.361 -35.498 C 145.361 -38.0371 143.164 -40.2344 140.625 -40.2344 L 121.143 -40.2344 C 118.604 -40.2344 116.455 -38.0371 116.455 -35.498 C 116.455 -32.959 118.604 -30.8105 121.143 -30.8105 Z M 93.3105 -17.1387 L 74.6094 -35.8887 C 73.584 -36.9141 73.291 -38.0371 74.2676 -39.1113 C 75.2441 -39.9902 76.3672 -39.7461 77.4414 -38.6719 L 96.1914 -19.9707 Z M 31.0059 5.07812 C 29.1992 6.88477 29.1992 9.91211 30.957 11.7188 C 32.7148 13.4766 35.791 13.5742 37.6465 11.7676 L 51.3672 -1.95312 C 53.1738 -3.75977 53.1738 -6.78711 51.3672 -8.59375 C 49.6582 -10.3516 46.582 -10.4004 44.7754 -8.59375 Z M 83.0078 7.37305 C 83.0078 4.83398 80.8594 2.68555 78.3203 2.68555 C 75.7812 2.68555 73.584 4.83398 73.584 7.37305 L 73.584 26.8555 C 73.584 29.3945 75.7812 31.5918 78.3203 31.5918 C 80.8594 31.5918 83.0078 29.3945 83.0078 26.8555 Z"/>
  </g>
  <g id="Medium-L" transform="matrix(1 0 0 1 1666.58 1556)">
   <path d="M 85.498 -98.6328 C 85.498 -101.66 82.959 -104.199 79.9805 -104.199 C 76.9531 -104.199 74.4141 -101.66 74.4141 -98.6328 L 74.4141 -79.248 C 74.4141 -76.2695 76.9531 -73.6816 79.9805 -73.6816 C 82.959 -73.6816 85.498 -76.2695 85.498 -79.248 Z M 106.982 -70.2637 C 104.834 -68.1641 104.883 -64.5996 106.982 -62.4512 C 109.082 -60.3516 112.695 -60.3516 114.844 -62.5 L 128.418 -76.0742 C 130.518 -78.2227 130.518 -81.8359 128.369 -83.9355 C 126.27 -86.084 122.705 -86.0352 120.605 -83.9355 Z M 45.0684 -62.5 C 47.168 -60.4004 50.7812 -60.3516 52.8809 -62.4512 C 54.9805 -64.5508 55.0293 -68.1641 52.8809 -70.2637 L 39.4043 -83.8867 C 37.3047 -85.9863 33.6914 -86.084 31.5918 -83.9355 C 29.4434 -81.8359 29.4434 -78.2715 31.543 -76.123 Z M 131.396 26.6602 C 134.18 29.541 138.867 29.4922 141.504 26.6602 C 144.238 23.8281 144.287 19.3848 141.504 16.5527 L 81.4453 -43.7988 C 78.7109 -46.6309 73.9746 -46.582 71.3379 -43.7988 C 68.5547 -40.918 68.6035 -36.4746 71.3379 -33.6914 Z M 16.7969 -41.0645 C 13.8184 -41.0645 11.2793 -38.5254 11.2793 -35.498 C 11.2793 -32.5195 13.8184 -29.9805 16.7969 -29.9805 L 36.2305 -29.9805 C 39.2578 -29.9805 41.7969 -32.5195 41.7969 -35.498 C 41.7969 -38.5254 39.2578 -41.0645 36.2305 -41.0645 Z M 143.115 -29.9805 C 146.143 -29.9805 148.682 -32.5195 148.682 -35.498 C 148.682 -38.5254 146.143 -41.0645 143.115 -41.0645 L 123.73 -41.0645 C 120.752 -41.0645 118.213 -38.5254 118.213 -35.498 C 118.213 -32.5195 120.752 -29.9805 123.73 -29.9805 Z M 95.0195 -16.8457 L 76.0254 -35.8887 C 74.8535 -37.0605 74.5117 -38.3789 75.6348 -39.5508 C 76.7578 -40.5762 78.0762 -40.332 79.2969 -39.0625 L 98.291 -20.0684 Z M 31.4941 5.0293 C 29.3945 7.12891 29.3457 10.7422 31.3965 12.8418 C 33.5449 14.9414 37.1582 15.0391 39.2578 12.9395 L 52.8809 -0.634766 C 54.9805 -2.73438 55.0293 -6.34766 52.8809 -8.44727 C 50.8301 -10.5469 47.2168 -10.5957 45.1172 -8.49609 Z M 85.498 8.25195 C 85.498 5.27344 82.959 2.73438 79.9805 2.73438 C 76.9531 2.73438 74.4141 5.27344 74.4141 8.25195 L 74.4141 27.6855 C 74.4141 30.6641 76.9531 33.2031 79.9805 33.2031 C 82.959 33.2031 85.498 30.6641 85.498 27.6855 Z"/>
  </g>
  <g id="Semibold-L" transform="matrix(1 0 0 1 1962.02 1556)">
   <path d="M 87.4023 -99.2676 C 87.4023 -102.588 84.5703 -105.469 81.25 -105.469 C 77.8809 -105.469 75.0488 -102.588 75.0488 -99.2676 L 75.0488 -79.9316 C 75.0488 -76.5625 77.8809 -73.7305 81.25 -73.7305 C 84.5703 -73.7305 87.4023 -76.5625 87.4023 -79.9316 Z M 108.35 -71.2891 C 106.006 -68.9453 106.055 -64.9414 108.398 -62.5488 C 110.742 -60.2051 114.795 -60.2051 117.139 -62.5977 L 130.615 -76.0742 C 132.959 -78.418 132.91 -82.4707 130.566 -84.8633 C 128.223 -87.207 124.219 -87.1582 121.875 -84.7656 Z M 45.3125 -62.5977 C 47.6562 -60.2539 51.6602 -60.2051 54.0039 -62.5488 C 56.3965 -64.8926 56.3965 -68.9453 54.0527 -71.2891 L 40.6738 -84.7656 C 38.3301 -87.0605 34.3262 -87.207 31.9824 -84.8633 C 29.5898 -82.4707 29.5898 -78.4668 31.9336 -76.123 Z M 131.982 27.0996 C 135.059 30.2246 140.234 30.1758 143.213 27.0996 C 146.24 23.9258 146.24 18.9941 143.213 15.8691 L 83.2031 -44.4336 C 80.1758 -47.5586 74.9512 -47.5098 71.9727 -44.4336 C 68.9453 -41.3086 68.9941 -36.3281 71.9727 -33.252 Z M 17.4316 -41.6992 C 14.1113 -41.6992 11.2793 -38.8672 11.2793 -35.498 C 11.2793 -32.1777 14.1113 -29.3457 17.4316 -29.3457 L 36.8164 -29.3457 C 40.1367 -29.3457 43.0176 -32.1777 43.0176 -35.498 C 43.0176 -38.8672 40.1367 -41.6992 36.8164 -41.6992 Z M 145.068 -29.3457 C 148.389 -29.3457 151.221 -32.1777 151.221 -35.498 C 151.221 -38.8672 148.389 -41.6992 145.068 -41.6992 L 125.732 -41.6992 C 122.363 -41.6992 119.531 -38.8672 119.531 -35.498 C 119.531 -32.1777 122.363 -29.3457 125.732 -29.3457 Z M 96.3379 -16.6016 L 77.0996 -35.8398 C 75.8301 -37.1582 75.4395 -38.623 76.6602 -39.9414 C 77.8809 -41.0645 79.3945 -40.7227 80.7129 -39.4043 L 99.9023 -20.2148 Z M 31.8848 5.0293 C 29.4922 7.32422 29.4922 11.377 31.7871 13.7207 C 34.1309 16.0645 38.1836 16.1621 40.5273 13.8184 L 54.0039 0.341797 C 56.3477 -1.95312 56.3965 -6.00586 54.0527 -8.34961 C 51.7578 -10.6934 47.7051 -10.7422 45.3613 -8.39844 Z M 87.4023 8.93555 C 87.4023 5.61523 84.5703 2.7832 81.25 2.7832 C 77.8809 2.7832 75.0488 5.61523 75.0488 8.93555 L 75.0488 28.2715 C 75.0488 31.6406 77.8809 34.4727 81.25 34.4727 C 84.5703 34.4727 87.4023 31.6406 87.4023 28.2715 Z"/>
  </g>
  <g id="Bold-L" transform="matrix(1 0 0 1 2257.04 1556)">
   <path d="M 89.9414 -100.049 C 89.9414 -103.857 86.7188 -107.129 82.9102 -107.129 C 79.1016 -107.129 75.9277 -103.857 75.9277 -100.049 L 75.9277 -80.8105 C 75.9277 -77.002 79.1016 -73.7793 82.9102 -73.7793 C 86.7188 -73.7793 89.9414 -77.002 89.9414 -80.8105 Z M 110.205 -72.5586 C 107.568 -69.9219 107.568 -65.3809 110.303 -62.6953 C 112.939 -60.0098 117.529 -60.0586 120.215 -62.7441 L 133.496 -76.0742 C 136.133 -78.7109 136.084 -83.3008 133.398 -86.0352 C 130.762 -88.6719 126.172 -88.623 123.535 -85.9375 Z M 45.6055 -62.7441 C 48.291 -60.0586 52.8809 -60.0098 55.5176 -62.6953 C 58.2031 -65.3809 58.252 -69.9219 55.6152 -72.5586 L 42.3828 -85.8887 C 39.6973 -88.5742 35.1562 -88.6719 32.4707 -86.0352 C 29.7852 -83.3008 29.7363 -78.7598 32.373 -76.123 Z M 132.764 27.6855 C 136.23 31.2012 142.041 31.1523 145.459 27.6855 C 148.877 24.1211 148.877 18.5059 145.459 14.9902 L 85.498 -45.3125 C 82.1289 -48.7793 76.2207 -48.7793 72.8516 -45.3125 C 69.4336 -41.7969 69.4336 -36.1328 72.8516 -32.666 Z M 18.2617 -42.5293 C 14.4531 -42.5293 11.2793 -39.3066 11.2793 -35.498 C 11.2793 -31.6895 14.4531 -28.5156 18.2617 -28.5156 L 37.5488 -28.5156 C 41.3574 -28.5156 44.6289 -31.6895 44.6289 -35.498 C 44.6289 -39.3066 41.3574 -42.5293 37.5488 -42.5293 Z M 147.559 -28.5156 C 151.367 -28.5156 154.639 -31.6895 154.639 -35.498 C 154.639 -39.3066 151.367 -42.5293 147.559 -42.5293 L 128.32 -42.5293 C 124.512 -42.5293 121.289 -39.3066 121.289 -35.498 C 121.289 -31.6895 124.512 -28.5156 128.32 -28.5156 Z M 98.0469 -16.3086 L 78.5645 -35.8398 C 77.1484 -37.2559 76.6602 -38.9648 78.0273 -40.4297 C 79.3945 -41.6992 81.1035 -41.2598 82.6172 -39.7949 L 102.002 -20.3613 Z M 32.373 4.98047 C 29.6875 7.61719 29.6387 12.207 32.2754 14.8438 C 34.9609 17.5293 39.5508 17.627 42.1875 14.9414 L 55.5176 1.70898 C 58.2031 -0.976562 58.252 -5.51758 55.6152 -8.20312 C 52.9297 -10.8887 48.3398 -10.9375 45.7031 -8.25195 Z M 89.9414 9.81445 C 89.9414 6.05469 86.7188 2.83203 82.9102 2.83203 C 79.1016 2.83203 75.9277 6.05469 75.9277 9.81445 L 75.9277 29.1016 C 75.9277 32.9102 79.1016 36.1328 82.9102 36.1328 C 86.7188 36.1328 89.9414 32.9102 89.9414 29.1016 Z"/>
  </g>
  <g id="Heavy-L" transform="matrix(1 0 0 1 2551.31 1556)">
   <path d="M 93.6035 -101.27 C 93.6035 -105.713 89.8438 -109.521 85.3516 -109.521 C 80.9082 -109.521 77.1484 -105.713 77.1484 -101.27 L 77.1484 -82.1289 C 77.1484 -77.6367 80.9082 -73.877 85.3516 -73.877 C 89.8438 -73.877 93.6035 -77.6367 93.6035 -82.1289 Z M 112.891 -74.5117 C 109.766 -71.3867 109.814 -66.0156 112.988 -62.8418 C 116.113 -59.7656 121.484 -59.8145 124.658 -62.9883 L 137.646 -76.0254 C 140.771 -79.1504 140.723 -84.5215 137.549 -87.7441 C 134.424 -90.8203 129.053 -90.7227 125.928 -87.5977 Z M 46.0938 -62.9883 C 49.2188 -59.8145 54.5898 -59.7656 57.666 -62.8418 C 60.8398 -66.0156 60.8887 -71.3867 57.8125 -74.5117 L 44.8242 -87.5488 C 41.6992 -90.6738 36.3281 -90.8203 33.2031 -87.7441 C 30.0293 -84.5703 29.9805 -79.1504 33.1055 -76.0742 Z M 133.936 28.5156 C 137.891 32.5195 144.727 32.5195 148.682 28.5156 C 152.686 24.4141 152.637 17.8223 148.682 13.7207 L 88.8672 -46.582 C 84.9121 -50.5859 78.125 -50.5859 74.1211 -46.582 C 70.1172 -42.4805 70.166 -35.8887 74.1211 -31.8359 Z M 19.4824 -43.75 C 15.0391 -43.75 11.2793 -39.9902 11.2793 -35.498 C 11.2793 -31.0547 15.0391 -27.2949 19.4824 -27.2949 L 38.6719 -27.2949 C 43.1152 -27.2949 46.9238 -31.0547 46.9238 -35.498 C 46.9238 -39.9902 43.1152 -43.75 38.6719 -43.75 Z M 151.221 -27.2949 C 155.713 -27.2949 159.521 -31.0547 159.521 -35.498 C 159.521 -39.9902 155.713 -43.75 151.221 -43.75 L 132.08 -43.75 C 127.637 -43.75 123.877 -39.9902 123.877 -35.498 C 123.877 -31.0547 127.637 -27.2949 132.08 -27.2949 Z M 100.586 -15.8691 L 80.6641 -35.791 C 79.0039 -37.4512 78.418 -39.502 80.0293 -41.1133 C 81.5918 -42.5781 83.6426 -42.0898 85.3516 -40.3809 L 105.078 -20.5566 Z M 33.1055 4.88281 C 29.9316 8.00781 29.8828 13.3789 32.959 16.5039 C 36.1328 19.6777 41.5039 19.7266 44.6289 16.6504 L 57.666 3.61328 C 60.8398 0.488281 60.8887 -4.88281 57.8125 -7.95898 C 54.6875 -11.1328 49.2676 -11.1816 46.1914 -8.10547 Z M 93.6035 11.1328 C 93.6035 6.64062 89.8438 2.88086 85.3516 2.88086 C 80.9082 2.88086 77.1484 6.64062 77.1484 11.1328 L 77.1484 30.2734 C 77.1484 34.7168 80.9082 38.5254 85.3516 38.5254 C 89.8438 38.5254 93.6035 34.7168 93.6035 30.2734 Z"/>
  </g>
  <g id="Black-L" transform="matrix(1 0 0 1 2845.83 1556)">
   <path d="M 96.875 -102.295 C 96.875 -107.373 92.5781 -111.67 87.5488 -111.67 C 82.4707 -111.67 78.2227 -107.373 78.2227 -102.295 L 78.2227 -83.252 C 78.2227 -78.2227 82.4707 -73.9746 87.5488 -73.9746 C 92.5781 -73.9746 96.875 -78.2227 96.875 -83.252 Z M 115.283 -76.1719 C 111.768 -72.7051 111.816 -66.6016 115.43 -62.9883 C 118.945 -59.5215 125.049 -59.5703 128.613 -63.1836 L 141.406 -76.0254 C 144.873 -79.4922 144.824 -85.6445 141.211 -89.2578 C 137.744 -92.7246 131.641 -92.627 128.076 -89.0625 Z M 46.4844 -63.1836 C 50.0488 -59.5703 56.1523 -59.5215 59.6191 -62.9883 C 63.2324 -66.6016 63.2812 -72.7051 59.8145 -76.1719 L 47.0215 -89.0625 C 43.5059 -92.5781 37.3535 -92.7246 33.8867 -89.2578 C 30.2734 -85.6445 30.2246 -79.541 33.6914 -76.0254 Z M 134.961 29.248 C 139.404 33.7402 147.07 33.7402 151.562 29.248 C 156.055 24.6582 156.055 17.1875 151.562 12.5977 L 91.8945 -47.7051 C 87.4512 -52.1973 79.7852 -52.1973 75.2441 -47.7051 C 70.752 -43.1152 70.8008 -35.6445 75.2441 -31.0547 Z M 20.5566 -44.8242 C 15.5273 -44.8242 11.2793 -40.5762 11.2793 -35.498 C 11.2793 -30.4688 15.5273 -26.1719 20.5566 -26.1719 L 39.6484 -26.1719 C 44.6777 -26.1719 49.0234 -30.4688 49.0234 -35.498 C 49.0234 -40.5762 44.6777 -44.8242 39.6484 -44.8242 Z M 154.492 -26.1719 C 159.57 -26.1719 163.867 -30.4688 163.867 -35.498 C 163.867 -40.5762 159.57 -44.8242 154.492 -44.8242 L 135.498 -44.8242 C 130.42 -44.8242 126.172 -40.5762 126.172 -35.498 C 126.172 -30.4688 130.42 -26.1719 135.498 -26.1719 Z M 102.783 -15.4785 L 82.5195 -35.791 C 80.7129 -37.5977 79.9805 -39.9414 81.8359 -41.748 C 83.5449 -43.3594 85.8887 -42.7734 87.793 -40.918 L 107.861 -20.752 Z M 33.7402 4.83398 C 30.127 8.34961 30.0781 14.502 33.5449 17.9688 C 37.1582 21.582 43.3105 21.6309 46.7773 18.1641 L 59.6191 5.37109 C 63.2324 1.80664 63.2812 -4.29688 59.8145 -7.76367 C 56.2012 -11.377 50.0977 -11.4258 46.582 -7.95898 Z M 96.875 12.2559 C 96.875 7.22656 92.5781 2.92969 87.5488 2.92969 C 82.4707 2.92969 78.2227 7.22656 78.2227 12.2559 L 78.2227 31.2988 C 78.2227 36.377 82.4707 40.6738 87.5488 40.6738 C 92.5781 40.6738 96.875 36.377 96.875 31.2988 Z"/>
  </g>
 </g>
</svg>
