<svg width="135" height="135" viewBox="0 0 135 135" fill="none" xmlns="http://www.w3.org/2000/svg">
<path d="M47.5376 36.9033C48.9116 36.9033 50.023 35.8256 50.023 34.4516C50.023 33.0776 48.9116 32 47.5376 32C46.1973 32 45.086 33.0776 45.086 34.4516C45.086 35.8256 46.1973 36.9033 47.5376 36.9033ZM60.6236 36.9033C61.9976 36.9033 63.1089 35.8256 63.1089 34.4516C63.1089 33.0776 61.9976 32 60.6236 32C59.2832 32 58.1719 33.0776 58.1719 34.4516C58.1719 35.8256 59.2832 36.9033 60.6236 36.9033ZM73.7095 36.9033C75.0835 36.9033 76.1949 35.8256 76.1949 34.4516C76.1949 33.0776 75.0835 32 73.7095 32C72.3692 32 71.2578 33.0776 71.2578 34.4516C71.2578 35.8256 72.3692 36.9033 73.7095 36.9033ZM86.7954 36.9033C88.1695 36.9033 89.2808 35.8256 89.2808 34.4516C89.2808 33.0776 88.1695 32 86.7954 32C85.4551 32 84.3438 33.0776 84.3438 34.4516C84.3438 35.8256 85.4551 36.9033 86.7954 36.9033ZM34.4517 50.2334C35.8257 50.2334 36.937 49.1557 36.937 47.7817C36.937 46.4077 35.8257 45.33 34.4517 45.33C33.1114 45.33 32 46.4077 32 47.7817C32 49.1557 33.1114 50.2334 34.4517 50.2334ZM47.5376 50.8715C49.272 50.8715 50.6612 49.5161 50.6612 47.7817C50.6612 46.0473 49.272 44.6918 47.5376 44.6918C45.8369 44.6918 44.4478 46.0473 44.4478 47.7817C44.4478 49.5161 45.8369 50.8715 47.5376 50.8715ZM60.6236 51.6665C62.7705 51.6665 64.5083 49.895 64.5083 47.7817C64.5083 45.6684 62.7705 43.8969 60.6236 43.8969C58.5103 43.8969 56.7573 45.6684 56.7573 47.7817C56.7573 49.895 58.5103 51.6665 60.6236 51.6665ZM73.7095 51.6665C75.8565 51.6665 77.5943 49.895 77.5943 47.7817C77.5943 45.6684 75.8565 43.8969 73.7095 43.8969C71.5962 43.8969 69.8433 45.6684 69.8433 47.7817C69.8433 49.895 71.5962 51.6665 73.7095 51.6665ZM86.7954 50.8715C88.5298 50.8715 89.919 49.5161 89.919 47.7817C89.919 46.0473 88.5298 44.6918 86.7954 44.6918C85.0948 44.6918 83.7056 46.0473 83.7056 47.7817C83.7056 49.5161 85.0948 50.8715 86.7954 50.8715ZM99.8814 50.2334C101.255 50.2334 102.367 49.1557 102.367 47.7817C102.367 46.4077 101.255 45.33 99.8814 45.33C98.541 45.33 97.4297 46.4077 97.4297 47.7817C97.4297 49.1557 98.541 50.2334 99.8814 50.2334ZM34.4517 63.6425C35.8257 63.6425 36.937 62.5312 36.937 61.1572C36.937 59.7832 35.8257 58.6601 34.4517 58.6601C33.1114 58.6601 32 59.7832 32 61.1572C32 62.5312 33.1114 63.6425 34.4517 63.6425ZM47.5376 64.9965C49.6846 64.9965 51.4224 63.2251 51.4224 61.1118C51.4224 58.9985 49.6846 57.227 47.5376 57.227C45.4243 57.227 43.6714 58.9985 43.6714 61.1118C43.6714 63.2251 45.4243 64.9965 47.5376 64.9965ZM86.7954 64.9965C88.9424 64.9965 90.6802 63.2251 90.6802 61.1118C90.6802 58.9985 88.9424 57.227 86.7954 57.227C84.6822 57.227 82.9292 58.9985 82.9292 61.1118C82.9292 63.2251 84.6822 64.9965 86.7954 64.9965ZM99.8814 63.6425C101.255 63.6425 102.367 62.5312 102.367 61.1572C102.367 59.7832 101.255 58.6601 99.8814 58.6601C98.541 58.6601 97.4297 59.7832 97.4297 61.1572C97.4297 62.5312 98.541 63.6425 99.8814 63.6425ZM34.4517 76.8935C35.8257 76.8935 36.937 75.8159 36.937 74.4418C36.937 73.0678 35.8257 71.9902 34.4517 71.9902C33.1114 71.9902 32 73.0678 32 74.4418C32 75.8159 33.1114 76.8935 34.4517 76.8935ZM47.5376 78.3872C49.6846 78.3872 51.4224 76.6005 51.4224 74.4873C51.4224 72.374 49.6846 70.6025 47.5376 70.6025C45.4243 70.6025 43.6714 72.374 43.6714 74.4873C43.6714 76.6005 45.4243 78.3872 47.5376 78.3872ZM86.7954 78.3872C88.9424 78.3872 90.6802 76.6005 90.6802 74.4873C90.6802 72.374 88.9424 70.6025 86.7954 70.6025C84.6822 70.6025 82.9292 72.374 82.9292 74.4873C82.9292 76.6005 84.6822 78.3872 86.7954 78.3872ZM99.8814 76.8935C101.255 76.8935 102.367 75.8159 102.367 74.4418C102.367 73.0678 101.255 71.9902 99.8814 71.9902C98.541 71.9902 97.4297 73.0678 97.4297 74.4418C97.4297 75.8159 98.541 76.8935 99.8814 76.8935ZM34.4517 90.3027C35.8257 90.3027 36.937 89.1914 36.937 87.8173C36.937 86.4433 35.8257 85.3657 34.4517 85.3657C33.1114 85.3657 32 86.4433 32 87.8173C32 89.1914 33.1114 90.3027 34.4517 90.3027ZM47.5376 90.9072C49.272 90.9072 50.6612 89.5517 50.6612 87.8173C50.6612 86.1167 49.272 84.7275 47.5376 84.7275C45.8369 84.7275 44.4478 86.1167 44.4478 87.8173C44.4478 89.5517 45.8369 90.9072 47.5376 90.9072ZM60.6236 91.7172C62.7705 91.7172 64.5083 89.9306 64.5083 87.8173C64.5083 85.7041 62.7705 83.9326 60.6236 83.9326C58.5103 83.9326 56.7573 85.7041 56.7573 87.8173C56.7573 89.9306 58.5103 91.7172 60.6236 91.7172ZM73.7095 91.7172C75.8565 91.7172 77.5943 89.9306 77.5943 87.8173C77.5943 85.7041 75.8565 83.9326 73.7095 83.9326C71.5962 83.9326 69.8433 85.7041 69.8433 87.8173C69.8433 89.9306 71.5962 91.7172 73.7095 91.7172ZM86.7954 90.9072C88.5298 90.9072 89.919 89.5517 89.919 87.8173C89.919 86.1167 88.5298 84.7275 86.7954 84.7275C85.0948 84.7275 83.7056 86.1167 83.7056 87.8173C83.7056 89.5517 85.0948 90.9072 86.7954 90.9072ZM99.8814 90.3027C101.255 90.3027 102.367 89.1914 102.367 87.8173C102.367 86.4433 101.255 85.3657 99.8814 85.3657C98.541 85.3657 97.4297 86.4433 97.4297 87.8173C97.4297 89.1914 98.541 90.3027 99.8814 90.3027ZM47.5376 103.633C48.9116 103.633 50.023 102.521 50.023 101.147C50.023 99.7734 48.9116 98.6958 47.5376 98.6958C46.1973 98.6958 45.086 99.7734 45.086 101.147C45.086 102.521 46.1973 103.633 47.5376 103.633ZM60.6236 103.633C61.9976 103.633 63.1089 102.521 63.1089 101.147C63.1089 99.7734 61.9976 98.6958 60.6236 98.6958C59.2832 98.6958 58.1719 99.7734 58.1719 101.147C58.1719 102.521 59.2832 103.633 60.6236 103.633ZM73.7095 103.633C75.0835 103.633 76.1949 102.521 76.1949 101.147C76.1949 99.7734 75.0835 98.6958 73.7095 98.6958C72.3692 98.6958 71.2578 99.7734 71.2578 101.147C71.2578 102.521 72.3692 103.633 73.7095 103.633ZM86.7954 103.633C88.1695 103.633 89.2808 102.521 89.2808 101.147C89.2808 99.7734 88.1695 98.6958 86.7954 98.6958C85.4551 98.6958 84.3438 99.7734 84.3438 101.147C84.3438 102.521 85.4551 103.633 86.7954 103.633ZM60.6236 64.9965C62.7705 64.9965 64.5083 63.2251 64.5083 61.1118C64.5083 58.9985 62.7705 57.227 60.6236 57.227C58.5103 57.227 56.7573 58.9985 56.7573 61.1118C56.7573 63.2251 58.5103 64.9965 60.6236 64.9965ZM73.7095 64.9965C75.8565 64.9965 77.5943 63.2251 77.5943 61.1118C77.5943 58.9985 75.8565 57.227 73.7095 57.227C71.5962 57.227 69.8433 58.9985 69.8433 61.1118C69.8433 63.2251 71.5962 64.9965 73.7095 64.9965ZM60.6236 78.3872C62.7705 78.3872 64.5083 76.6005 64.5083 74.4873C64.5083 72.374 62.7705 70.6025 60.6236 70.6025C58.5103 70.6025 56.7573 72.374 56.7573 74.4873C56.7573 76.6005 58.5103 78.3872 60.6236 78.3872ZM73.7095 78.3872C75.8565 78.3872 77.5943 76.6005 77.5943 74.4873C77.5943 72.374 75.8565 70.6025 73.7095 70.6025C71.5962 70.6025 69.8433 72.374 69.8433 74.4873C69.8433 76.6005 71.5962 78.3872 73.7095 78.3872Z" fill="black"/>
</svg>
