<svg width="135" height="135" viewBox="0 0 135 135" fill="none" xmlns="http://www.w3.org/2000/svg">
<path d="M67.5372 108.891C86.0821 108.891 101.074 93.8496 101.074 75.3198C101.074 73.8056 99.8414 72.6064 98.376 72.6064C96.8955 72.6064 95.6626 73.8056 95.6626 75.3198C95.6626 90.8515 83.0689 103.396 67.5372 103.396C52.0054 103.396 39.4268 90.8515 39.4268 75.3198C39.4268 59.7881 52.0054 47.1943 67.5372 47.1943C71.1348 47.1943 74.5406 47.8491 77.7056 49.1015C79.4219 49.7988 81.4414 48.8017 81.502 46.7451C81.5474 45.0556 80.3379 44.3838 79.3511 44.0234C75.7935 42.6025 71.7613 41.8164 67.5372 41.8164C49.0074 41.8164 34 56.8086 34 75.3535C34 93.8496 49.0074 108.891 67.5372 108.891ZM78.4229 46.2802L63.9039 60.7216C63.3565 61.2353 63.1241 61.9511 63.1241 62.6635C63.1241 64.1811 64.2896 65.3618 65.7852 65.3618C66.6509 65.3618 67.2505 65.062 67.7339 64.5971L83.7691 48.4106C84.4375 47.727 84.7188 47.0634 84.7188 46.2651C84.7188 45.519 84.3887 44.7881 83.7691 44.1684L67.7491 27.8471C67.2657 27.3486 66.6475 27 65.7701 27C64.2745 27 63.1241 28.2632 63.1241 29.7807C63.1241 30.5268 63.3565 31.2275 63.8702 31.7412L78.4229 46.2802Z" fill="black"/>
</svg>
